<?xml version="1.0" encoding="UTF-8" standalone="no"?><svg xmlns="http://www.w3.org/2000/svg" xmlns:xlink="http://www.w3.org/1999/xlink" contentScriptType="application/ecmascript" contentStyleType="text/css" height="312px" preserveAspectRatio="none" style="width:169px;height:312px;background:#FFFFFF;" version="1.1" viewBox="0 0 169 312" width="169px" zoomAndPan="magnify"><defs><filter height="300%" id="f15s90bmaqra4g" width="300%" x="-1" y="-1"><feGaussianBlur result="blurOut" stdDeviation="2.0"/><feColorMatrix in="blurOut" result="blurOut2" type="matrix" values="0 0 0 0 0 0 0 0 0 0 0 0 0 0 0 0 0 0 .4 0"/><feOffset dx="4.0" dy="4.0" in="blurOut2" result="blurOut3"/><feBlend in="SourceGraphic" in2="blurOut3" mode="normal"/></filter></defs><g><!--MD5=[607a9cac80470f439abf5e174b4df386]
class MapPainterUI--><rect codeLine="1" fill="#FEFECE" filter="url(#f15s90bmaqra4g)" height="48" id="MapPainterUI" style="stroke:#A80036;stroke-width:1.5;" width="106" x="28" y="7"/><ellipse cx="43" cy="23" fill="#ADD1B2" rx="11" ry="11" style="stroke:#A80036;stroke-width:1.0;"/><path d="M45,19.5 Q45.2031,19 45.4375,18.75 Q45.6719,18.5 45.9375,18.5 Q46.4063,18.5 46.7031,18.7813 Q47,19.0625 47,19.7188 L47,21.2813 Q47,21.9375 46.7188,22.2188 Q46.4375,22.5 46,22.5 Q45.6094,22.5 45.3594,22.3281 Q45.1094,22.1563 45,21.7031 Q44.9531,21.3906 44.7813,21.2188 Q44.4688,20.8906 43.9063,20.7031 Q43.3438,20.5 42.7813,20.5 Q42.0781,20.5 41.4844,20.7813 Q40.9063,21.0625 40.4531,21.6875 Q40,22.3125 40,23.1719 L40,24.0938 Q40,25.125 40.8438,25.8125 Q41.6875,26.5 43.1875,26.5 Q44.0781,26.5 44.7031,26.2969 Q45.0625,26.1875 45.4688,25.8281 Q45.7344,25.625 45.875,25.5625 Q46.0156,25.5 46.1875,25.5 Q46.5156,25.5 46.75,25.7656 Q47,26.0156 47,26.375 Q47,26.7188 46.6563,27.125 Q46.1563,27.7188 45.3594,28.0469 Q44.3125,28.5 43.0313,28.5 Q41.5313,28.5 40.3281,27.9063 Q39.3594,27.4375 38.6719,26.4219 Q38,25.4063 38,24.2031 L38,23.1094 Q38,21.8594 38.5938,20.7656 Q39.2031,19.6719 40.25,19.0938 Q41.3125,18.5 42.5,18.5 Q43.2188,18.5 43.8438,18.75 Q44.4688,19 45,19.5 Z " fill="#000000"/><text fill="#000000" font-family="sans-serif" font-size="12" lengthAdjust="spacing" textLength="74" x="57" y="27.9102">MapPainterUI</text><line style="stroke:#A80036;stroke-width:1.5;" x1="29" x2="133" y1="39" y2="39"/><line style="stroke:#A80036;stroke-width:1.5;" x1="29" x2="133" y1="47" y2="47"/><!--MD5=[6e484d090d8e057d27e0dc5ff4a84e5b]
class MapPainterController--><rect codeLine="4" fill="#FEFECE" filter="url(#f15s90bmaqra4g)" height="61.8359" id="MapPainterController" style="stroke:#A80036;stroke-width:1.5;" width="148" x="7" y="115"/><ellipse cx="22" cy="131" fill="#ADD1B2" rx="11" ry="11" style="stroke:#A80036;stroke-width:1.0;"/><path d="M24,127.5 Q24.2031,127 24.4375,126.75 Q24.6719,126.5 24.9375,126.5 Q25.4063,126.5 25.7031,126.7813 Q26,127.0625 26,127.7188 L26,129.2813 Q26,129.9375 25.7188,130.2188 Q25.4375,130.5 25,130.5 Q24.6094,130.5 24.3594,130.3281 Q24.1094,130.1563 24,129.7031 Q23.9531,129.3906 23.7813,129.2188 Q23.4688,128.8906 22.9063,128.7031 Q22.3438,128.5 21.7813,128.5 Q21.0781,128.5 20.4844,128.7813 Q19.9063,129.0625 19.4531,129.6875 Q19,130.3125 19,131.1719 L19,132.0938 Q19,133.125 19.8438,133.8125 Q20.6875,134.5 22.1875,134.5 Q23.0781,134.5 23.7031,134.2969 Q24.0625,134.1875 24.4688,133.8281 Q24.7344,133.625 24.875,133.5625 Q25.0156,133.5 25.1875,133.5 Q25.5156,133.5 25.75,133.7656 Q26,134.0156 26,134.375 Q26,134.7188 25.6563,135.125 Q25.1563,135.7188 24.3594,136.0469 Q23.3125,136.5 22.0313,136.5 Q20.5313,136.5 19.3281,135.9063 Q18.3594,135.4375 17.6719,134.4219 Q17,133.4063 17,132.2031 L17,131.1094 Q17,129.8594 17.5938,128.7656 Q18.2031,127.6719 19.25,127.0938 Q20.3125,126.5 21.5,126.5 Q22.2188,126.5 22.8438,126.75 Q23.4688,127 24,127.5 Z " fill="#000000"/><text fill="#000000" font-family="sans-serif" font-size="12" lengthAdjust="spacing" textLength="116" x="36" y="135.9102">MapPainterController</text><line style="stroke:#A80036;stroke-width:1.5;" x1="8" x2="154" y1="147" y2="147"/><line style="stroke:#A80036;stroke-width:1.5;" x1="8" x2="154" y1="155" y2="155"/><ellipse cx="18" cy="166" fill="#84BE84" rx="3" ry="3" style="stroke:#038048;stroke-width:1.0;"/><text fill="#000000" font-family="sans-serif" font-size="11" lengthAdjust="spacing" textLength="51" x="27" y="170.4189">mapPaint()</text><!--MD5=[0cb1fb62baf337fbef894c9eccdcd867]
class MapPainter--><rect codeLine="8" fill="#FEFECE" filter="url(#f15s90bmaqra4g)" height="61.8359" id="MapPainter" style="stroke:#A80036;stroke-width:1.5;" width="94" x="34" y="237"/><ellipse cx="49" cy="253" fill="#ADD1B2" rx="11" ry="11" style="stroke:#A80036;stroke-width:1.0;"/><path d="M51,249.5 Q51.2031,249 51.4375,248.75 Q51.6719,248.5 51.9375,248.5 Q52.4063,248.5 52.7031,248.7813 Q53,249.0625 53,249.7188 L53,251.2813 Q53,251.9375 52.7188,252.2188 Q52.4375,252.5 52,252.5 Q51.6094,252.5 51.3594,252.3281 Q51.1094,252.1563 51,251.7031 Q50.9531,251.3906 50.7813,251.2188 Q50.4688,250.8906 49.9063,250.7031 Q49.3438,250.5 48.7813,250.5 Q48.0781,250.5 47.4844,250.7813 Q46.9063,251.0625 46.4531,251.6875 Q46,252.3125 46,253.1719 L46,254.0938 Q46,255.125 46.8438,255.8125 Q47.6875,256.5 49.1875,256.5 Q50.0781,256.5 50.7031,256.2969 Q51.0625,256.1875 51.4688,255.8281 Q51.7344,255.625 51.875,255.5625 Q52.0156,255.5 52.1875,255.5 Q52.5156,255.5 52.75,255.7656 Q53,256.0156 53,256.375 Q53,256.7188 52.6563,257.125 Q52.1563,257.7188 51.3594,258.0469 Q50.3125,258.5 49.0313,258.5 Q47.5313,258.5 46.3281,257.9063 Q45.3594,257.4375 44.6719,256.4219 Q44,255.4063 44,254.2031 L44,253.1094 Q44,251.8594 44.5938,250.7656 Q45.2031,249.6719 46.25,249.0938 Q47.3125,248.5 48.5,248.5 Q49.2188,248.5 49.8438,248.75 Q50.4688,249 51,249.5 Z " fill="#000000"/><text fill="#000000" font-family="sans-serif" font-size="12" lengthAdjust="spacing" textLength="62" x="63" y="257.9102">MapPainter</text><line style="stroke:#A80036;stroke-width:1.5;" x1="35" x2="127" y1="269" y2="269"/><line style="stroke:#A80036;stroke-width:1.5;" x1="35" x2="127" y1="277" y2="277"/><ellipse cx="45" cy="288" fill="#84BE84" rx="3" ry="3" style="stroke:#038048;stroke-width:1.0;"/><text fill="#000000" font-family="sans-serif" font-size="11" lengthAdjust="spacing" textLength="61" x="54" y="292.4189">mapPainter()</text><!--MD5=[efbde0e66897956dca75561a2a6de924]
link MapPainterUI to MapPainterController--><path codeLine="13" d="M81,55.14 C81,70.71 81,91.53 81,109.22 " fill="none" id="MapPainterUI-to-MapPainterController" style="stroke:#A80036;stroke-width:1.0;stroke-dasharray:7.0,7.0;"/><polygon fill="#A80036" points="81,114.6,85,105.6,81,109.6,77,105.6,81,114.6" style="stroke:#A80036;stroke-width:1.0;"/><!--MD5=[31e6ae15893fabb27ea894d38b52a8d5]
link MapPainterController to MapPainter--><path codeLine="14" d="M81,177.28 C81,193.77 81,214.26 81,231.49 " fill="none" id="MapPainterController-to-MapPainter" style="stroke:#A80036;stroke-width:1.0;stroke-dasharray:7.0,7.0;"/><polygon fill="#A80036" points="81,236.73,85,227.73,81,231.73,77,227.73,81,236.73" style="stroke:#A80036;stroke-width:1.0;"/><!--MD5=[ee36efbfeb477ebc9e72a05a302f12a7]
@startuml
class MapPainterUI{
}

class MapPainterController{
    +mapPaint()
}

class MapPainter{
    +mapPainter()
}


MapPainterUI ..> MapPainterController
MapPainterController ..> MapPainter


@enduml

PlantUML version 1.2021.11(Sat Oct 02 14:26:11 BST 2021)
(GPL source distribution)
Java Runtime: OpenJDK Runtime Environment
JVM: OpenJDK 64-Bit Server VM
Default Encoding: Cp1252
Language: pt
Country: PT
--></g></svg>