<?xml version="1.0" encoding="UTF-8" standalone="no"?><svg xmlns="http://www.w3.org/2000/svg" xmlns:xlink="http://www.w3.org/1999/xlink" contentScriptType="application/ecmascript" contentStyleType="text/css" height="601px" preserveAspectRatio="none" style="width:542px;height:601px;background:#FFFFFF;" version="1.1" viewBox="0 0 542 601" width="542px" zoomAndPan="magnify"><defs><filter height="300%" id="f9y2vrj6hubi0" width="300%" x="-1" y="-1"><feGaussianBlur result="blurOut" stdDeviation="2.0"/><feColorMatrix in="blurOut" result="blurOut2" type="matrix" values="0 0 0 0 0 0 0 0 0 0 0 0 0 0 0 0 0 0 .4 0"/><feOffset dx="4.0" dy="4.0" in="blurOut2" result="blurOut3"/><feBlend in="SourceGraphic" in2="blurOut3" mode="normal"/></filter></defs><g><!--MD5=[790fdf5b1e4930773078b9142fbc815d]
class ShipUI--><rect codeLine="2" fill="#FEFECE" filter="url(#f9y2vrj6hubi0)" height="61.8359" id="ShipUI" style="stroke:#A80036;stroke-width:1.5;" width="83" x="89.5" y="7"/><ellipse cx="110.8" cy="23" fill="#ADD1B2" rx="11" ry="11" style="stroke:#A80036;stroke-width:1.0;"/><path d="M112.8,19.5 Q113.0031,19 113.2375,18.75 Q113.4719,18.5 113.7375,18.5 Q114.2063,18.5 114.5031,18.7813 Q114.8,19.0625 114.8,19.7188 L114.8,21.2813 Q114.8,21.9375 114.5188,22.2188 Q114.2375,22.5 113.8,22.5 Q113.4094,22.5 113.1594,22.3281 Q112.9094,22.1563 112.8,21.7031 Q112.7531,21.3906 112.5813,21.2188 Q112.2688,20.8906 111.7063,20.7031 Q111.1438,20.5 110.5813,20.5 Q109.8781,20.5 109.2844,20.7813 Q108.7063,21.0625 108.2531,21.6875 Q107.8,22.3125 107.8,23.1719 L107.8,24.0938 Q107.8,25.125 108.6438,25.8125 Q109.4875,26.5 110.9875,26.5 Q111.8781,26.5 112.5031,26.2969 Q112.8625,26.1875 113.2688,25.8281 Q113.5344,25.625 113.675,25.5625 Q113.8156,25.5 113.9875,25.5 Q114.3156,25.5 114.55,25.7656 Q114.8,26.0156 114.8,26.375 Q114.8,26.7188 114.4563,27.125 Q113.9563,27.7188 113.1594,28.0469 Q112.1125,28.5 110.8313,28.5 Q109.3313,28.5 108.1281,27.9063 Q107.1594,27.4375 106.4719,26.4219 Q105.8,25.4063 105.8,24.2031 L105.8,23.1094 Q105.8,21.8594 106.3938,20.7656 Q107.0031,19.6719 108.05,19.0938 Q109.1125,18.5 110.3,18.5 Q111.0188,18.5 111.6438,18.75 Q112.2688,19 112.8,19.5 Z " fill="#000000"/><text fill="#000000" font-family="sans-serif" font-size="12" lengthAdjust="spacing" textLength="37" x="126.2" y="27.9102">ShipUI</text><line style="stroke:#A80036;stroke-width:1.5;" x1="90.5" x2="171.5" y1="39" y2="39"/><rect fill="none" height="6" style="stroke:#C82930;stroke-width:1.0;" width="6" x="97.5" y="47"/><text fill="#000000" font-family="sans-serif" font-size="11" lengthAdjust="spacing" textLength="57" x="109.5" y="54.4189">String ships</text><line style="stroke:#A80036;stroke-width:1.5;" x1="90.5" x2="171.5" y1="60.8359" y2="60.8359"/><!--MD5=[d8a5c6f12add15b22e781f1f574c705d]
class ShipController--><rect codeLine="6" fill="#FEFECE" filter="url(#f9y2vrj6hubi0)" height="89.5078" id="ShipController" style="stroke:#A80036;stroke-width:1.5;" width="245" x="8.5" y="129"/><ellipse cx="87.25" cy="145" fill="#ADD1B2" rx="11" ry="11" style="stroke:#A80036;stroke-width:1.0;"/><path d="M89.25,141.5 Q89.4531,141 89.6875,140.75 Q89.9219,140.5 90.1875,140.5 Q90.6563,140.5 90.9531,140.7813 Q91.25,141.0625 91.25,141.7188 L91.25,143.2813 Q91.25,143.9375 90.9688,144.2188 Q90.6875,144.5 90.25,144.5 Q89.8594,144.5 89.6094,144.3281 Q89.3594,144.1563 89.25,143.7031 Q89.2031,143.3906 89.0313,143.2188 Q88.7188,142.8906 88.1563,142.7031 Q87.5938,142.5 87.0313,142.5 Q86.3281,142.5 85.7344,142.7813 Q85.1563,143.0625 84.7031,143.6875 Q84.25,144.3125 84.25,145.1719 L84.25,146.0938 Q84.25,147.125 85.0938,147.8125 Q85.9375,148.5 87.4375,148.5 Q88.3281,148.5 88.9531,148.2969 Q89.3125,148.1875 89.7188,147.8281 Q89.9844,147.625 90.125,147.5625 Q90.2656,147.5 90.4375,147.5 Q90.7656,147.5 91,147.7656 Q91.25,148.0156 91.25,148.375 Q91.25,148.7188 90.9063,149.125 Q90.4063,149.7188 89.6094,150.0469 Q88.5625,150.5 87.2813,150.5 Q85.7813,150.5 84.5781,149.9063 Q83.6094,149.4375 82.9219,148.4219 Q82.25,147.4063 82.25,146.2031 L82.25,145.1094 Q82.25,143.8594 82.8438,142.7656 Q83.4531,141.6719 84.5,141.0938 Q85.5625,140.5 86.75,140.5 Q87.4688,140.5 88.0938,140.75 Q88.7188,141 89.25,141.5 Z " fill="#000000"/><text fill="#000000" font-family="sans-serif" font-size="12" lengthAdjust="spacing" textLength="79" x="107.75" y="149.9102">ShipController</text><line style="stroke:#A80036;stroke-width:1.5;" x1="9.5" x2="252.5" y1="161" y2="161"/><rect fill="none" height="6" style="stroke:#C82930;stroke-width:1.0;" width="6" x="16.5" y="169"/><text fill="#000000" font-family="sans-serif" font-size="11" lengthAdjust="spacing" textLength="219" x="28.5" y="176.4189">Map&lt;Ship_static, BST&lt;Ship_dynamic&gt;&gt; mapa</text><line style="stroke:#A80036;stroke-width:1.0;" x1="9.5" x2="252.5" y1="182.8359" y2="182.8359"/><ellipse cx="19.5" cy="193.8359" fill="#84BE84" rx="3" ry="3" style="stroke:#038048;stroke-width:1.0;"/><text fill="#000000" font-family="sans-serif" font-size="11" lengthAdjust="spacing" textLength="50" x="28.5" y="198.2549">getShips()</text><ellipse cx="19.5" cy="207.6719" fill="#84BE84" rx="3" ry="3" style="stroke:#038048;stroke-width:1.0;"/><text fill="#000000" font-family="sans-serif" font-size="11" lengthAdjust="spacing" textLength="77" x="28.5" y="212.0908">getShips(string)</text><!--MD5=[ea2206eefe09474e90beb17e18e6b3d8]
class ShipStore--><rect codeLine="13" fill="#FEFECE" filter="url(#f9y2vrj6hubi0)" height="89.5078" id="ShipStore" style="stroke:#A80036;stroke-width:1.5;" width="248" x="7" y="456.5"/><ellipse cx="99.75" cy="472.5" fill="#ADD1B2" rx="11" ry="11" style="stroke:#A80036;stroke-width:1.0;"/><path d="M101.75,469 Q101.9531,468.5 102.1875,468.25 Q102.4219,468 102.6875,468 Q103.1563,468 103.4531,468.2813 Q103.75,468.5625 103.75,469.2188 L103.75,470.7813 Q103.75,471.4375 103.4688,471.7188 Q103.1875,472 102.75,472 Q102.3594,472 102.1094,471.8281 Q101.8594,471.6563 101.75,471.2031 Q101.7031,470.8906 101.5313,470.7188 Q101.2188,470.3906 100.6563,470.2031 Q100.0938,470 99.5313,470 Q98.8281,470 98.2344,470.2813 Q97.6563,470.5625 97.2031,471.1875 Q96.75,471.8125 96.75,472.6719 L96.75,473.5938 Q96.75,474.625 97.5938,475.3125 Q98.4375,476 99.9375,476 Q100.8281,476 101.4531,475.7969 Q101.8125,475.6875 102.2188,475.3281 Q102.4844,475.125 102.625,475.0625 Q102.7656,475 102.9375,475 Q103.2656,475 103.5,475.2656 Q103.75,475.5156 103.75,475.875 Q103.75,476.2188 103.4063,476.625 Q102.9063,477.2188 102.1094,477.5469 Q101.0625,478 99.7813,478 Q98.2813,478 97.0781,477.4063 Q96.1094,476.9375 95.4219,475.9219 Q94.75,474.9063 94.75,473.7031 L94.75,472.6094 Q94.75,471.3594 95.3438,470.2656 Q95.9531,469.1719 97,468.5938 Q98.0625,468 99.25,468 Q99.9688,468 100.5938,468.25 Q101.2188,468.5 101.75,469 Z " fill="#000000"/><text fill="#000000" font-family="sans-serif" font-size="12" lengthAdjust="spacing" textLength="54" x="120.25" y="477.4102">ShipStore</text><line style="stroke:#A80036;stroke-width:1.5;" x1="8" x2="254" y1="488.5" y2="488.5"/><ellipse cx="18" cy="499.5" fill="#84BE84" rx="3" ry="3" style="stroke:#038048;stroke-width:1.0;"/><text fill="#000000" font-family="sans-serif" font-size="11" lengthAdjust="spacing" textLength="70" x="27" y="503.9189">getShipStore()</text><ellipse cx="18" cy="513.3359" fill="#84BE84" rx="3" ry="3" style="stroke:#038048;stroke-width:1.0;"/><text fill="#000000" font-family="sans-serif" font-size="11" lengthAdjust="spacing" textLength="222" x="27" y="517.7549">insert(Ship_static sta, Ship_dynamic dynamic)</text><line style="stroke:#A80036;stroke-width:1.0;" x1="8" x2="254" y1="524.1719" y2="524.1719"/><rect fill="none" height="6" style="stroke:#C82930;stroke-width:1.0;" width="6" x="15" y="532.1719"/><text fill="#000000" font-family="sans-serif" font-size="11" lengthAdjust="spacing" textLength="219" x="27" y="539.5908">Map&lt;Ship_static, BST&lt;Ship_dynamic&gt;&gt; mapa</text><!--MD5=[02e4b9b7573f1156f41e60aa5b4e25a4]
class Company--><rect codeLine="20" fill="#FEFECE" filter="url(#f9y2vrj6hubi0)" height="75.6719" id="Company" style="stroke:#A80036;stroke-width:1.5;" width="96" x="134" y="279"/><ellipse cx="153.95" cy="295" fill="#ADD1B2" rx="11" ry="11" style="stroke:#A80036;stroke-width:1.0;"/><path d="M155.95,291.5 Q156.1531,291 156.3875,290.75 Q156.6219,290.5 156.8875,290.5 Q157.3563,290.5 157.6531,290.7813 Q157.95,291.0625 157.95,291.7188 L157.95,293.2813 Q157.95,293.9375 157.6688,294.2188 Q157.3875,294.5 156.95,294.5 Q156.5594,294.5 156.3094,294.3281 Q156.0594,294.1563 155.95,293.7031 Q155.9031,293.3906 155.7313,293.2188 Q155.4188,292.8906 154.8563,292.7031 Q154.2938,292.5 153.7313,292.5 Q153.0281,292.5 152.4344,292.7813 Q151.8563,293.0625 151.4031,293.6875 Q150.95,294.3125 150.95,295.1719 L150.95,296.0938 Q150.95,297.125 151.7938,297.8125 Q152.6375,298.5 154.1375,298.5 Q155.0281,298.5 155.6531,298.2969 Q156.0125,298.1875 156.4188,297.8281 Q156.6844,297.625 156.825,297.5625 Q156.9656,297.5 157.1375,297.5 Q157.4656,297.5 157.7,297.7656 Q157.95,298.0156 157.95,298.375 Q157.95,298.7188 157.6063,299.125 Q157.1063,299.7188 156.3094,300.0469 Q155.2625,300.5 153.9813,300.5 Q152.4813,300.5 151.2781,299.9063 Q150.3094,299.4375 149.6219,298.4219 Q148.95,297.4063 148.95,296.2031 L148.95,295.1094 Q148.95,293.8594 149.5438,292.7656 Q150.1531,291.6719 151.2,291.0938 Q152.2625,290.5 153.45,290.5 Q154.1688,290.5 154.7938,290.75 Q155.4188,291 155.95,291.5 Z " fill="#000000"/><text fill="#000000" font-family="sans-serif" font-size="12" lengthAdjust="spacing" textLength="53" x="169.05" y="299.9102">Company</text><line style="stroke:#A80036;stroke-width:1.5;" x1="135" x2="229" y1="311" y2="311"/><rect fill="none" height="6" style="stroke:#C82930;stroke-width:1.0;" width="6" x="142" y="319"/><text fill="#000000" font-family="sans-serif" font-size="11" lengthAdjust="spacing" textLength="56" x="154" y="326.4189">ShipStore a</text><line style="stroke:#A80036;stroke-width:1.0;" x1="135" x2="229" y1="332.8359" y2="332.8359"/><ellipse cx="145" cy="343.8359" fill="#84BE84" rx="3" ry="3" style="stroke:#038048;stroke-width:1.0;"/><text fill="#000000" font-family="sans-serif" font-size="11" lengthAdjust="spacing" textLength="70" x="154" y="348.2549">getShipStore()</text><!--MD5=[9b6d7727f2e1e1e9ba33fdb2cf7ae46e]
class Ship_static--><rect codeLine="26" fill="#FEFECE" filter="url(#f9y2vrj6hubi0)" height="172.5234" id="Ship_static" style="stroke:#A80036;stroke-width:1.5;" width="93" x="435.5" y="415"/><ellipse cx="450.5" cy="431" fill="#ADD1B2" rx="11" ry="11" style="stroke:#A80036;stroke-width:1.0;"/><path d="M452.5,427.5 Q452.7031,427 452.9375,426.75 Q453.1719,426.5 453.4375,426.5 Q453.9063,426.5 454.2031,426.7813 Q454.5,427.0625 454.5,427.7188 L454.5,429.2813 Q454.5,429.9375 454.2188,430.2188 Q453.9375,430.5 453.5,430.5 Q453.1094,430.5 452.8594,430.3281 Q452.6094,430.1563 452.5,429.7031 Q452.4531,429.3906 452.2813,429.2188 Q451.9688,428.8906 451.4063,428.7031 Q450.8438,428.5 450.2813,428.5 Q449.5781,428.5 448.9844,428.7813 Q448.4063,429.0625 447.9531,429.6875 Q447.5,430.3125 447.5,431.1719 L447.5,432.0938 Q447.5,433.125 448.3438,433.8125 Q449.1875,434.5 450.6875,434.5 Q451.5781,434.5 452.2031,434.2969 Q452.5625,434.1875 452.9688,433.8281 Q453.2344,433.625 453.375,433.5625 Q453.5156,433.5 453.6875,433.5 Q454.0156,433.5 454.25,433.7656 Q454.5,434.0156 454.5,434.375 Q454.5,434.7188 454.1563,435.125 Q453.6563,435.7188 452.8594,436.0469 Q451.8125,436.5 450.5313,436.5 Q449.0313,436.5 447.8281,435.9063 Q446.8594,435.4375 446.1719,434.4219 Q445.5,433.4063 445.5,432.2031 L445.5,431.1094 Q445.5,429.8594 446.0938,428.7656 Q446.7031,427.6719 447.75,427.0938 Q448.8125,426.5 450,426.5 Q450.7188,426.5 451.3438,426.75 Q451.9688,427 452.5,427.5 Z " fill="#000000"/><text fill="#000000" font-family="sans-serif" font-size="12" lengthAdjust="spacing" textLength="61" x="464.5" y="435.9102">Ship_static</text><line style="stroke:#A80036;stroke-width:1.5;" x1="436.5" x2="527.5" y1="447" y2="447"/><rect fill="none" height="6" style="stroke:#C82930;stroke-width:1.0;" width="6" x="443.5" y="455"/><text fill="#000000" font-family="sans-serif" font-size="11" lengthAdjust="spacing" textLength="24" x="455.5" y="462.4189">mmsi</text><rect fill="none" height="6" style="stroke:#C82930;stroke-width:1.0;" width="6" x="443.5" y="468.8359"/><text fill="#000000" font-family="sans-serif" font-size="11" lengthAdjust="spacing" textLength="16" x="455.5" y="476.2549">imo</text><rect fill="none" height="6" style="stroke:#C82930;stroke-width:1.0;" width="6" x="443.5" y="482.6719"/><text fill="#000000" font-family="sans-serif" font-size="11" lengthAdjust="spacing" textLength="37" x="455.5" y="490.0908">callSign</text><rect fill="none" height="6" style="stroke:#C82930;stroke-width:1.0;" width="6" x="443.5" y="496.5078"/><text fill="#000000" font-family="sans-serif" font-size="11" lengthAdjust="spacing" textLength="59" x="455.5" y="503.9268">vesselName</text><rect fill="none" height="6" style="stroke:#C82930;stroke-width:1.0;" width="6" x="443.5" y="510.3438"/><text fill="#000000" font-family="sans-serif" font-size="11" lengthAdjust="spacing" textLength="56" x="455.5" y="517.7627">vesselType</text><rect fill="none" height="6" style="stroke:#C82930;stroke-width:1.0;" width="6" x="443.5" y="524.1797"/><text fill="#000000" font-family="sans-serif" font-size="11" lengthAdjust="spacing" textLength="29" x="455.5" y="531.5986">length</text><rect fill="none" height="6" style="stroke:#C82930;stroke-width:1.0;" width="6" x="443.5" y="538.0156"/><text fill="#000000" font-family="sans-serif" font-size="11" lengthAdjust="spacing" textLength="27" x="455.5" y="545.4346">width</text><rect fill="none" height="6" style="stroke:#C82930;stroke-width:1.0;" width="6" x="443.5" y="551.8516"/><text fill="#000000" font-family="sans-serif" font-size="11" lengthAdjust="spacing" textLength="23" x="455.5" y="559.2705">draft</text><rect fill="none" height="6" style="stroke:#C82930;stroke-width:1.0;" width="6" x="443.5" y="565.6875"/><text fill="#000000" font-family="sans-serif" font-size="11" lengthAdjust="spacing" textLength="28" x="455.5" y="573.1064">cargo</text><line style="stroke:#A80036;stroke-width:1.5;" x1="436.5" x2="527.5" y1="579.5234" y2="579.5234"/><!--MD5=[1ddfaeb822fc2a2861c140960f151a5d]
class Ship_dynamic--><rect codeLine="38" fill="#FEFECE" filter="url(#f9y2vrj6hubi0)" height="144.8516" id="Ship_dynamic" style="stroke:#A80036;stroke-width:1.5;" width="110" x="290" y="429"/><ellipse cx="305" cy="445" fill="#ADD1B2" rx="11" ry="11" style="stroke:#A80036;stroke-width:1.0;"/><path d="M307,441.5 Q307.2031,441 307.4375,440.75 Q307.6719,440.5 307.9375,440.5 Q308.4063,440.5 308.7031,440.7813 Q309,441.0625 309,441.7188 L309,443.2813 Q309,443.9375 308.7188,444.2188 Q308.4375,444.5 308,444.5 Q307.6094,444.5 307.3594,444.3281 Q307.1094,444.1563 307,443.7031 Q306.9531,443.3906 306.7813,443.2188 Q306.4688,442.8906 305.9063,442.7031 Q305.3438,442.5 304.7813,442.5 Q304.0781,442.5 303.4844,442.7813 Q302.9063,443.0625 302.4531,443.6875 Q302,444.3125 302,445.1719 L302,446.0938 Q302,447.125 302.8438,447.8125 Q303.6875,448.5 305.1875,448.5 Q306.0781,448.5 306.7031,448.2969 Q307.0625,448.1875 307.4688,447.8281 Q307.7344,447.625 307.875,447.5625 Q308.0156,447.5 308.1875,447.5 Q308.5156,447.5 308.75,447.7656 Q309,448.0156 309,448.375 Q309,448.7188 308.6563,449.125 Q308.1563,449.7188 307.3594,450.0469 Q306.3125,450.5 305.0313,450.5 Q303.5313,450.5 302.3281,449.9063 Q301.3594,449.4375 300.6719,448.4219 Q300,447.4063 300,446.2031 L300,445.1094 Q300,443.8594 300.5938,442.7656 Q301.2031,441.6719 302.25,441.0938 Q303.3125,440.5 304.5,440.5 Q305.2188,440.5 305.8438,440.75 Q306.4688,441 307,441.5 Z " fill="#000000"/><text fill="#000000" font-family="sans-serif" font-size="12" lengthAdjust="spacing" textLength="78" x="319" y="449.9102">Ship_dynamic</text><line style="stroke:#A80036;stroke-width:1.5;" x1="291" x2="399" y1="461" y2="461"/><rect fill="none" height="6" style="stroke:#C82930;stroke-width:1.0;" width="6" x="298" y="469"/><text fill="#000000" font-family="sans-serif" font-size="11" lengthAdjust="spacing" textLength="68" x="310" y="476.4189">baseDateTime</text><rect fill="none" height="6" style="stroke:#C82930;stroke-width:1.0;" width="6" x="298" y="482.8359"/><text fill="#000000" font-family="sans-serif" font-size="11" lengthAdjust="spacing" textLength="11" x="310" y="490.2549">lat</text><rect fill="none" height="6" style="stroke:#C82930;stroke-width:1.0;" width="6" x="298" y="496.6719"/><text fill="#000000" font-family="sans-serif" font-size="11" lengthAdjust="spacing" textLength="14" x="310" y="504.0908">lon</text><rect fill="none" height="6" style="stroke:#C82930;stroke-width:1.0;" width="6" x="298" y="510.5078"/><text fill="#000000" font-family="sans-serif" font-size="11" lengthAdjust="spacing" textLength="18" x="310" y="517.9268">sog</text><rect fill="none" height="6" style="stroke:#C82930;stroke-width:1.0;" width="6" x="298" y="524.3438"/><text fill="#000000" font-family="sans-serif" font-size="11" lengthAdjust="spacing" textLength="18" x="310" y="531.7627">cog</text><rect fill="none" height="6" style="stroke:#C82930;stroke-width:1.0;" width="6" x="298" y="538.1797"/><text fill="#000000" font-family="sans-serif" font-size="11" lengthAdjust="spacing" textLength="38" x="310" y="545.5986">heading</text><rect fill="none" height="6" style="stroke:#C82930;stroke-width:1.0;" width="6" x="298" y="552.0156"/><text fill="#000000" font-family="sans-serif" font-size="11" lengthAdjust="spacing" textLength="82" x="310" y="559.4346">transceiverClass</text><line style="stroke:#A80036;stroke-width:1.5;" x1="291" x2="399" y1="565.8516" y2="565.8516"/><!--MD5=[599e1cce28c43a006685f27e6d19f6c6]
link ShipUI to ShipController--><path codeLine="48" d="M131,69.07 C131,85.15 131,105.36 131,123.67 " fill="none" id="ShipUI-to-ShipController" style="stroke:#A80036;stroke-width:1.0;stroke-dasharray:7.0,7.0;"/><polygon fill="#A80036" points="131,128.78,135,119.78,131,123.78,127,119.78,131,128.78" style="stroke:#A80036;stroke-width:1.0;"/><!--MD5=[bf74851aff38bc49bd5171b1d2f8ce12]
link ShipController to Company--><path codeLine="49" d="M147,219.23 C153.3,236.65 160.5,256.57 166.73,273.79 " fill="none" id="ShipController-to-Company" style="stroke:#A80036;stroke-width:1.0;stroke-dasharray:7.0,7.0;"/><polygon fill="#A80036" points="168.46,278.57,169.1603,268.7461,166.7593,273.8681,161.6373,271.4672,168.46,278.57" style="stroke:#A80036;stroke-width:1.0;"/><!--MD5=[6b4a94d80660e97c6833bde801bd4c89]
link Company to ShipStore--><path codeLine="50" d="M171.56,355.37 C163.82,383.07 153.19,421.09 144.76,451.27 " fill="none" id="Company-to-ShipStore" style="stroke:#A80036;stroke-width:1.0;"/><polygon fill="#A80036" points="143.32,456.43,149.591,448.8356,144.6634,451.6138,141.8852,446.6862,143.32,456.43" style="stroke:#A80036;stroke-width:1.0;"/><!--MD5=[27a7b45e2e93ed268b2d2f3a23fa2d92]
link ShipController to ShipStore--><path codeLine="51" d="M123.21,219.13 C120.33,237.57 117.42,259.26 116,279 C111.75,338.23 118.05,406.39 123.74,451.28 " fill="none" id="ShipController-to-ShipStore" style="stroke:#A80036;stroke-width:1.0;stroke-dasharray:7.0,7.0;"/><polygon fill="#A80036" points="124.39,456.37,127.1993,446.9303,123.747,451.4115,119.2658,447.9592,124.39,456.37" style="stroke:#A80036;stroke-width:1.0;"/><!--MD5=[8987bf6bea37f8d0ccd1196857e26e9d]
link ShipStore to Ship_static--><path codeLine="52" d="M176.05,456.46 C205.79,430.04 247.14,399.15 290.5,385 C336.98,369.83 357.14,362.42 400.5,385 C412.78,391.4 423.6,400.59 433,411.04 " fill="none" id="ShipStore-to-Ship_static" style="stroke:#A80036;stroke-width:1.0;"/><polygon fill="#A80036" points="436.4,414.94,433.504,405.5265,433.1156,411.17,427.4721,410.7816,436.4,414.94" style="stroke:#A80036;stroke-width:1.0;"/><!--MD5=[6dcf3abd3e511283f57c719e9e706226]
link ShipStore to Ship_dynamic--><path codeLine="53" d="M255.14,501.5 C265,501.5 274.87,501.5 284.73,501.5 " fill="none" id="ShipStore-to-Ship_dynamic" style="stroke:#A80036;stroke-width:1.0;"/><polygon fill="#A80036" points="289.89,501.5,280.89,497.5,284.89,501.5,280.89,505.5,289.89,501.5" style="stroke:#A80036;stroke-width:1.0;"/><!--MD5=[61fc5af626d1205318a27dddef2de4bc]
@startuml

class ShipUI{
-String ships
}

class ShipController{
-Map<Ship_static, BST<Ship_dynamic>> mapa
- -
+getShips()
+getShips(string)
}

class ShipStore{
+getShipStore()
+insert(Ship_static sta, Ship_dynamic dynamic)
- -
-Map<Ship_static, BST<Ship_dynamic>> mapa
}

class Company{
-ShipStore a
- -
+getShipStore()
}

class Ship_static{
-mmsi
-imo
-callSign
-vesselName
-vesselType
-length
-width
-draft
-cargo
}

class Ship_dynamic{
-baseDateTime
-lat
-lon
-sog
-cog
-heading
-transceiverClass
}

ShipUI ..> ShipController
ShipController ..> Company
Company - -> ShipStore
ShipController ..> ShipStore
ShipStore -> Ship_static
ShipStore -> Ship_dynamic

@enduml

PlantUML version 1.2021.11(Sat Oct 02 14:26:11 BST 2021)
(GPL source distribution)
Java Runtime: OpenJDK Runtime Environment
JVM: OpenJDK 64-Bit Server VM
Default Encoding: Cp1252
Language: pt
Country: PT
--></g></svg>