<?xml version="1.0" encoding="UTF-8" standalone="no"?><svg xmlns="http://www.w3.org/2000/svg" xmlns:xlink="http://www.w3.org/1999/xlink" contentScriptType="application/ecmascript" contentStyleType="text/css" height="907px" preserveAspectRatio="none" style="width:882px;height:907px;background:#FFFFFF;" version="1.1" viewBox="0 0 882 907" width="882px" zoomAndPan="magnify"><defs><filter height="300%" id="f1e9rt75b2i00e" width="300%" x="-1" y="-1"><feGaussianBlur result="blurOut" stdDeviation="2.0"/><feColorMatrix in="blurOut" result="blurOut2" type="matrix" values="0 0 0 0 0 0 0 0 0 0 0 0 0 0 0 0 0 0 .4 0"/><feOffset dx="4.0" dy="4.0" in="blurOut2" result="blurOut3"/><feBlend in="SourceGraphic" in2="blurOut3" mode="normal"/></filter></defs><g><rect fill="#FFFFFF" filter="url(#f1e9rt75b2i00e)" height="703.8906" style="stroke:#A80036;stroke-width:1.0;" width="10" x="53" y="99.6094"/><rect fill="#FFFFFF" filter="url(#f1e9rt75b2i00e)" height="151.7578" style="stroke:#A80036;stroke-width:1.0;" width="10" x="407" y="121.9609"/><rect fill="#FFFFFF" filter="url(#f1e9rt75b2i00e)" height="483.4297" style="stroke:#A80036;stroke-width:1.0;" width="10" x="407" y="329.0703"/><rect fill="#FFFFFF" filter="url(#f1e9rt75b2i00e)" height="91.0547" style="stroke:#A80036;stroke-width:1.0;" width="10" x="565" y="152.3125"/><rect fill="#FFFFFF" filter="url(#f1e9rt75b2i00e)" height="91.0547" style="stroke:#A80036;stroke-width:1.0;" width="10" x="565" y="400.6094"/><rect fill="#FFFFFF" filter="url(#f1e9rt75b2i00e)" height="91.0547" style="stroke:#A80036;stroke-width:1.0;" width="10" x="565" y="537.8516"/><rect fill="#FFFFFF" filter="url(#f1e9rt75b2i00e)" height="91.0547" style="stroke:#A80036;stroke-width:1.0;" width="10" x="565" y="675.0938"/><rect fill="#FFFFFF" filter="url(#f1e9rt75b2i00e)" height="30.3516" style="stroke:#A80036;stroke-width:1.0;" width="10" x="688" y="182.6641"/><rect fill="#FFFFFF" filter="url(#f1e9rt75b2i00e)" height="30.3516" style="stroke:#A80036;stroke-width:1.0;" width="10" x="811" y="213.0156"/><rect fill="#FFFFFF" filter="url(#f1e9rt75b2i00e)" height="30.3516" style="stroke:#A80036;stroke-width:1.0;" width="10" x="811" y="430.9609"/><rect fill="#FFFFFF" filter="url(#f1e9rt75b2i00e)" height="30.3516" style="stroke:#A80036;stroke-width:1.0;" width="10" x="811" y="568.2031"/><rect fill="#FFFFFF" filter="url(#f1e9rt75b2i00e)" height="30.3516" style="stroke:#A80036;stroke-width:1.0;" width="10" x="811" y="705.4453"/><rect fill="#FFFFFF" filter="url(#f1e9rt75b2i00e)" height="430.0781" style="stroke:#000000;stroke-width:2.0;" width="497" x="371" y="344.0703"/><rect fill="#FFFFFF" height="137.2422" style="stroke:none;stroke-width:1.0;" width="497" x="371" y="362.4219"/><rect fill="#FFFFFF" height="137.2422" style="stroke:none;stroke-width:1.0;" width="497" x="371" y="499.6641"/><rect fill="#FFFFFF" height="137.2422" style="stroke:none;stroke-width:1.0;" width="497" x="371" y="636.9063"/><line style="stroke:#A80036;stroke-width:1.0;stroke-dasharray:5.0,5.0;" x1="58" x2="58" y1="89.6094" y2="821.5"/><line style="stroke:#A80036;stroke-width:1.0;stroke-dasharray:5.0,5.0;" x1="412" x2="412" y1="89.6094" y2="821.5"/><line style="stroke:#A80036;stroke-width:1.0;stroke-dasharray:5.0,5.0;" x1="570" x2="570" y1="89.6094" y2="821.5"/><line style="stroke:#A80036;stroke-width:1.0;stroke-dasharray:5.0,5.0;" x1="693" x2="693" y1="89.6094" y2="821.5"/><line style="stroke:#A80036;stroke-width:1.0;stroke-dasharray:5.0,5.0;" x1="816" x2="816" y1="89.6094" y2="821.5"/><text fill="#000000" font-family="sans-serif" font-size="14" lengthAdjust="spacing" textLength="100" x="5" y="86.5332">Traffic Manager</text><ellipse cx="58" cy="15" fill="#FEFECE" filter="url(#f1e9rt75b2i00e)" rx="8" ry="8" style="stroke:#A80036;stroke-width:2.0;"/><path d="M58,23 L58,50 M45,31 L71,31 M58,50 L45,65 M58,50 L71,65 " fill="none" filter="url(#f1e9rt75b2i00e)" style="stroke:#A80036;stroke-width:2.0;"/><text fill="#000000" font-family="sans-serif" font-size="14" lengthAdjust="spacing" textLength="100" x="5" y="835.0332">Traffic Manager</text><ellipse cx="58" cy="848.1094" fill="#FEFECE" filter="url(#f1e9rt75b2i00e)" rx="8" ry="8" style="stroke:#A80036;stroke-width:2.0;"/><path d="M58,856.1094 L58,883.1094 M45,864.1094 L71,864.1094 M58,883.1094 L45,898.1094 M58,883.1094 L71,898.1094 " fill="none" filter="url(#f1e9rt75b2i00e)" style="stroke:#A80036;stroke-width:2.0;"/><rect fill="#FEFECE" filter="url(#f1e9rt75b2i00e)" height="31.6094" style="stroke:#A80036;stroke-width:1.5;" width="58" x="381" y="53"/><text fill="#000000" font-family="sans-serif" font-size="14" lengthAdjust="spacing" textLength="44" x="388" y="74.5332">:ShipUI</text><rect fill="#FEFECE" filter="url(#f1e9rt75b2i00e)" height="31.6094" style="stroke:#A80036;stroke-width:1.5;" width="58" x="381" y="820.5"/><text fill="#000000" font-family="sans-serif" font-size="14" lengthAdjust="spacing" textLength="44" x="388" y="842.0332">:ShipUI</text><rect fill="#FEFECE" filter="url(#f1e9rt75b2i00e)" height="31.6094" style="stroke:#A80036;stroke-width:1.5;" width="108" x="514" y="53"/><text fill="#000000" font-family="sans-serif" font-size="14" lengthAdjust="spacing" textLength="94" x="521" y="74.5332">:ShipController</text><rect fill="#FEFECE" filter="url(#f1e9rt75b2i00e)" height="31.6094" style="stroke:#A80036;stroke-width:1.5;" width="108" x="514" y="820.5"/><text fill="#000000" font-family="sans-serif" font-size="14" lengthAdjust="spacing" textLength="94" x="521" y="842.0332">:ShipController</text><rect fill="#FEFECE" filter="url(#f1e9rt75b2i00e)" height="31.6094" style="stroke:#A80036;stroke-width:1.5;" width="78" x="652" y="53"/><text fill="#000000" font-family="sans-serif" font-size="14" lengthAdjust="spacing" textLength="64" x="659" y="74.5332">:Company</text><rect fill="#FEFECE" filter="url(#f1e9rt75b2i00e)" height="31.6094" style="stroke:#A80036;stroke-width:1.5;" width="78" x="652" y="820.5"/><text fill="#000000" font-family="sans-serif" font-size="14" lengthAdjust="spacing" textLength="64" x="659" y="842.0332">:Company</text><rect fill="#FEFECE" filter="url(#f1e9rt75b2i00e)" height="31.6094" style="stroke:#A80036;stroke-width:1.5;" width="80" x="774" y="53"/><text fill="#000000" font-family="sans-serif" font-size="14" lengthAdjust="spacing" textLength="66" x="781" y="74.5332">:ShipStore</text><rect fill="#FEFECE" filter="url(#f1e9rt75b2i00e)" height="31.6094" style="stroke:#A80036;stroke-width:1.5;" width="80" x="774" y="820.5"/><text fill="#000000" font-family="sans-serif" font-size="14" lengthAdjust="spacing" textLength="66" x="781" y="842.0332">:ShipStore</text><rect fill="#FFFFFF" filter="url(#f1e9rt75b2i00e)" height="703.8906" style="stroke:#A80036;stroke-width:1.0;" width="10" x="53" y="99.6094"/><rect fill="#FFFFFF" filter="url(#f1e9rt75b2i00e)" height="151.7578" style="stroke:#A80036;stroke-width:1.0;" width="10" x="407" y="121.9609"/><rect fill="#FFFFFF" filter="url(#f1e9rt75b2i00e)" height="483.4297" style="stroke:#A80036;stroke-width:1.0;" width="10" x="407" y="329.0703"/><rect fill="#FFFFFF" filter="url(#f1e9rt75b2i00e)" height="91.0547" style="stroke:#A80036;stroke-width:1.0;" width="10" x="565" y="152.3125"/><rect fill="#FFFFFF" filter="url(#f1e9rt75b2i00e)" height="91.0547" style="stroke:#A80036;stroke-width:1.0;" width="10" x="565" y="400.6094"/><rect fill="#FFFFFF" filter="url(#f1e9rt75b2i00e)" height="91.0547" style="stroke:#A80036;stroke-width:1.0;" width="10" x="565" y="537.8516"/><rect fill="#FFFFFF" filter="url(#f1e9rt75b2i00e)" height="91.0547" style="stroke:#A80036;stroke-width:1.0;" width="10" x="565" y="675.0938"/><rect fill="#FFFFFF" filter="url(#f1e9rt75b2i00e)" height="30.3516" style="stroke:#A80036;stroke-width:1.0;" width="10" x="688" y="182.6641"/><rect fill="#FFFFFF" filter="url(#f1e9rt75b2i00e)" height="30.3516" style="stroke:#A80036;stroke-width:1.0;" width="10" x="811" y="213.0156"/><rect fill="#FFFFFF" filter="url(#f1e9rt75b2i00e)" height="30.3516" style="stroke:#A80036;stroke-width:1.0;" width="10" x="811" y="430.9609"/><rect fill="#FFFFFF" filter="url(#f1e9rt75b2i00e)" height="30.3516" style="stroke:#A80036;stroke-width:1.0;" width="10" x="811" y="568.2031"/><rect fill="#FFFFFF" filter="url(#f1e9rt75b2i00e)" height="30.3516" style="stroke:#A80036;stroke-width:1.0;" width="10" x="811" y="705.4453"/><polygon fill="#A80036" points="395,117.9609,405,121.9609,395,125.9609,399,121.9609" style="stroke:#A80036;stroke-width:1.0;"/><line style="stroke:#A80036;stroke-width:1.0;" x1="63" x2="401" y1="121.9609" y2="121.9609"/><text fill="#000000" font-family="sans-serif" font-size="13" font-weight="bold" lengthAdjust="spacing" textLength="7" x="70" y="117.1045">1</text><text fill="#000000" font-family="sans-serif" font-size="13" lengthAdjust="spacing" textLength="125" x="81" y="117.1045">asks to search a ship</text><polygon fill="#A80036" points="553,148.3125,563,152.3125,553,156.3125,557,152.3125" style="stroke:#A80036;stroke-width:1.0;"/><line style="stroke:#A80036;stroke-width:1.0;" x1="417" x2="559" y1="152.3125" y2="152.3125"/><text fill="#000000" font-family="sans-serif" font-size="13" font-weight="bold" lengthAdjust="spacing" textLength="7" x="424" y="147.4561">2</text><text fill="#000000" font-family="sans-serif" font-size="13" lengthAdjust="spacing" textLength="59" x="435" y="147.4561">getShips()</text><polygon fill="#A80036" points="676,178.6641,686,182.6641,676,186.6641,680,182.6641" style="stroke:#A80036;stroke-width:1.0;"/><line style="stroke:#A80036;stroke-width:1.0;" x1="575" x2="682" y1="182.6641" y2="182.6641"/><text fill="#000000" font-family="sans-serif" font-size="13" font-weight="bold" lengthAdjust="spacing" textLength="7" x="582" y="177.8076">3</text><text fill="#000000" font-family="sans-serif" font-size="13" lengthAdjust="spacing" textLength="83" x="593" y="177.8076">getShipStore()</text><polygon fill="#A80036" points="799,209.0156,809,213.0156,799,217.0156,803,213.0156" style="stroke:#A80036;stroke-width:1.0;"/><line style="stroke:#A80036;stroke-width:1.0;" x1="693" x2="805" y1="213.0156" y2="213.0156"/><text fill="#000000" font-family="sans-serif" font-size="13" font-weight="bold" lengthAdjust="spacing" textLength="7" x="700" y="208.1592">4</text><text fill="#000000" font-family="sans-serif" font-size="13" lengthAdjust="spacing" textLength="83" x="711" y="208.1592">getShipStore()</text><polygon fill="#A80036" points="581,239.3672,571,243.3672,581,247.3672,577,243.3672" style="stroke:#A80036;stroke-width:1.0;"/><line style="stroke:#A80036;stroke-width:1.0;stroke-dasharray:2.0,2.0;" x1="575" x2="815" y1="243.3672" y2="243.3672"/><text fill="#000000" font-family="sans-serif" font-size="13" font-weight="bold" lengthAdjust="spacing" textLength="7" x="587" y="238.5107">5</text><text fill="#000000" font-family="sans-serif" font-size="13" lengthAdjust="spacing" textLength="49" x="598" y="238.5107">shipMap</text><polygon fill="#A80036" points="74,269.7188,64,273.7188,74,277.7188,70,273.7188" style="stroke:#A80036;stroke-width:1.0;"/><line style="stroke:#A80036;stroke-width:1.0;stroke-dasharray:2.0,2.0;" x1="68" x2="411" y1="273.7188" y2="273.7188"/><text fill="#000000" font-family="sans-serif" font-size="13" font-weight="bold" lengthAdjust="spacing" textLength="7" x="80" y="268.8623">6</text><text fill="#000000" font-family="sans-serif" font-size="13" lengthAdjust="spacing" textLength="282" x="91" y="268.8623">asks one of it's codes(MMSI, IMMO or Call Sign)</text><polygon fill="#A80036" points="395,325.0703,405,329.0703,395,333.0703,399,329.0703" style="stroke:#A80036;stroke-width:1.0;"/><line style="stroke:#A80036;stroke-width:1.0;" x1="63" x2="401" y1="329.0703" y2="329.0703"/><text fill="#000000" font-family="sans-serif" font-size="13" font-weight="bold" lengthAdjust="spacing" textLength="7" x="70" y="324.2139">7</text><text fill="#000000" font-family="sans-serif" font-size="13" lengthAdjust="spacing" textLength="314" x="81" y="324.2139">introduces one of it's codes(MMSI, IMMO or Call Sign)</text><path d="M371,344.0703 L432,344.0703 L432,352.0703 L422,362.0703 L371,362.0703 L371,344.0703 " fill="#EEEEEE" style="stroke:#000000;stroke-width:1.0;"/><rect fill="none" height="430.0781" style="stroke:#000000;stroke-width:2.0;" width="497" x="371" y="344.0703"/><text fill="#000000" font-family="sans-serif" font-size="13" font-weight="bold" lengthAdjust="spacing" textLength="16" x="386" y="358.5654">alt</text><line style="stroke:#000000;stroke-width:1.0;stroke-dasharray:2.0,2.0;" x1="371" x2="868" y1="363.4219" y2="363.4219"/><text fill="#000000" font-family="sans-serif" font-size="11" font-weight="bold" lengthAdjust="spacing" textLength="51" x="376" y="374.8408">[if: MMSI]</text><polygon fill="#A80036" points="553,396.6094,563,400.6094,553,404.6094,557,400.6094" style="stroke:#A80036;stroke-width:1.0;"/><line style="stroke:#A80036;stroke-width:1.0;" x1="417" x2="559" y1="400.6094" y2="400.6094"/><text fill="#000000" font-family="sans-serif" font-size="13" font-weight="bold" lengthAdjust="spacing" textLength="7" x="424" y="395.7529">8</text><text fill="#000000" font-family="sans-serif" font-size="13" lengthAdjust="spacing" textLength="93" x="435" y="395.7529">getShips(MMSI)</text><polygon fill="#A80036" points="799,426.9609,809,430.9609,799,434.9609,803,430.9609" style="stroke:#A80036;stroke-width:1.0;"/><line style="stroke:#A80036;stroke-width:1.0;" x1="575" x2="805" y1="430.9609" y2="430.9609"/><text fill="#000000" font-family="sans-serif" font-size="13" font-weight="bold" lengthAdjust="spacing" textLength="7" x="582" y="426.1045">9</text><text fill="#000000" font-family="sans-serif" font-size="13" lengthAdjust="spacing" textLength="86" x="593" y="426.1045">getShip(MMSI)</text><polygon fill="#A80036" points="586,457.3125,576,461.3125,586,465.3125,582,461.3125" style="stroke:#A80036;stroke-width:1.0;"/><line style="stroke:#A80036;stroke-width:1.0;stroke-dasharray:2.0,2.0;" x1="580" x2="815" y1="461.3125" y2="461.3125"/><text fill="#000000" font-family="sans-serif" font-size="13" font-weight="bold" lengthAdjust="spacing" textLength="14" x="592" y="456.4561">10</text><text fill="#000000" font-family="sans-serif" font-size="13" lengthAdjust="spacing" textLength="26" x="610" y="456.4561">Ship</text><polygon fill="#A80036" points="428,487.6641,418,491.6641,428,495.6641,424,491.6641" style="stroke:#A80036;stroke-width:1.0;"/><line style="stroke:#A80036;stroke-width:1.0;stroke-dasharray:2.0,2.0;" x1="422" x2="569" y1="491.6641" y2="491.6641"/><text fill="#000000" font-family="sans-serif" font-size="13" font-weight="bold" lengthAdjust="spacing" textLength="14" x="434" y="486.8076">11</text><text fill="#000000" font-family="sans-serif" font-size="13" lengthAdjust="spacing" textLength="26" x="452" y="486.8076">Ship</text><line style="stroke:#000000;stroke-width:1.0;stroke-dasharray:2.0,2.0;" x1="371" x2="868" y1="500.6641" y2="500.6641"/><text fill="#000000" font-family="sans-serif" font-size="11" font-weight="bold" lengthAdjust="spacing" textLength="52" x="376" y="512.083">[if: IMMO]</text><polygon fill="#A80036" points="553,533.8516,563,537.8516,553,541.8516,557,537.8516" style="stroke:#A80036;stroke-width:1.0;"/><line style="stroke:#A80036;stroke-width:1.0;" x1="417" x2="559" y1="537.8516" y2="537.8516"/><text fill="#000000" font-family="sans-serif" font-size="13" font-weight="bold" lengthAdjust="spacing" textLength="14" x="424" y="532.9951">12</text><text fill="#000000" font-family="sans-serif" font-size="13" lengthAdjust="spacing" textLength="94" x="442" y="532.9951">getShips(IMMO)</text><polygon fill="#A80036" points="799,564.2031,809,568.2031,799,572.2031,803,568.2031" style="stroke:#A80036;stroke-width:1.0;"/><line style="stroke:#A80036;stroke-width:1.0;" x1="575" x2="805" y1="568.2031" y2="568.2031"/><text fill="#000000" font-family="sans-serif" font-size="13" font-weight="bold" lengthAdjust="spacing" textLength="14" x="582" y="563.3467">13</text><text fill="#000000" font-family="sans-serif" font-size="13" lengthAdjust="spacing" textLength="87" x="600" y="563.3467">getShip(IMMO)</text><polygon fill="#A80036" points="586,594.5547,576,598.5547,586,602.5547,582,598.5547" style="stroke:#A80036;stroke-width:1.0;"/><line style="stroke:#A80036;stroke-width:1.0;stroke-dasharray:2.0,2.0;" x1="580" x2="815" y1="598.5547" y2="598.5547"/><text fill="#000000" font-family="sans-serif" font-size="13" font-weight="bold" lengthAdjust="spacing" textLength="14" x="592" y="593.6982">14</text><text fill="#000000" font-family="sans-serif" font-size="13" lengthAdjust="spacing" textLength="26" x="610" y="593.6982">Ship</text><polygon fill="#A80036" points="428,624.9063,418,628.9063,428,632.9063,424,628.9063" style="stroke:#A80036;stroke-width:1.0;"/><line style="stroke:#A80036;stroke-width:1.0;stroke-dasharray:2.0,2.0;" x1="422" x2="569" y1="628.9063" y2="628.9063"/><text fill="#000000" font-family="sans-serif" font-size="13" font-weight="bold" lengthAdjust="spacing" textLength="14" x="434" y="624.0498">15</text><text fill="#000000" font-family="sans-serif" font-size="13" lengthAdjust="spacing" textLength="26" x="452" y="624.0498">Ship</text><line style="stroke:#000000;stroke-width:1.0;stroke-dasharray:2.0,2.0;" x1="371" x2="868" y1="637.9063" y2="637.9063"/><text fill="#000000" font-family="sans-serif" font-size="11" font-weight="bold" lengthAdjust="spacing" textLength="68" x="376" y="649.3252">[if: Call Sign]</text><polygon fill="#A80036" points="553,671.0938,563,675.0938,553,679.0938,557,675.0938" style="stroke:#A80036;stroke-width:1.0;"/><line style="stroke:#A80036;stroke-width:1.0;" x1="417" x2="559" y1="675.0938" y2="675.0938"/><text fill="#000000" font-family="sans-serif" font-size="13" font-weight="bold" lengthAdjust="spacing" textLength="14" x="424" y="670.2373">16</text><text fill="#000000" font-family="sans-serif" font-size="13" lengthAdjust="spacing" textLength="111" x="442" y="670.2373">getShips(Call Sign)</text><polygon fill="#A80036" points="799,701.4453,809,705.4453,799,709.4453,803,705.4453" style="stroke:#A80036;stroke-width:1.0;"/><line style="stroke:#A80036;stroke-width:1.0;" x1="575" x2="805" y1="705.4453" y2="705.4453"/><text fill="#000000" font-family="sans-serif" font-size="13" font-weight="bold" lengthAdjust="spacing" textLength="14" x="582" y="700.5889">17</text><text fill="#000000" font-family="sans-serif" font-size="13" lengthAdjust="spacing" textLength="104" x="600" y="700.5889">getShip(Call Sign)</text><polygon fill="#A80036" points="586,731.7969,576,735.7969,586,739.7969,582,735.7969" style="stroke:#A80036;stroke-width:1.0;"/><line style="stroke:#A80036;stroke-width:1.0;stroke-dasharray:2.0,2.0;" x1="580" x2="815" y1="735.7969" y2="735.7969"/><text fill="#000000" font-family="sans-serif" font-size="13" font-weight="bold" lengthAdjust="spacing" textLength="14" x="592" y="730.9404">18</text><text fill="#000000" font-family="sans-serif" font-size="13" lengthAdjust="spacing" textLength="26" x="610" y="730.9404">Ship</text><polygon fill="#A80036" points="428,762.1484,418,766.1484,428,770.1484,424,766.1484" style="stroke:#A80036;stroke-width:1.0;"/><line style="stroke:#A80036;stroke-width:1.0;stroke-dasharray:2.0,2.0;" x1="422" x2="569" y1="766.1484" y2="766.1484"/><text fill="#000000" font-family="sans-serif" font-size="13" font-weight="bold" lengthAdjust="spacing" textLength="14" x="434" y="761.292">19</text><text fill="#000000" font-family="sans-serif" font-size="13" lengthAdjust="spacing" textLength="26" x="452" y="761.292">Ship</text><polygon fill="#A80036" points="69,799.5,59,803.5,69,807.5,65,803.5" style="stroke:#A80036;stroke-width:1.0;"/><line style="stroke:#A80036;stroke-width:1.0;stroke-dasharray:2.0,2.0;" x1="63" x2="406" y1="803.5" y2="803.5"/><text fill="#000000" font-family="sans-serif" font-size="13" font-weight="bold" lengthAdjust="spacing" textLength="14" x="75" y="798.6436">20</text><text fill="#000000" font-family="sans-serif" font-size="13" lengthAdjust="spacing" textLength="218" x="93" y="798.6436">shows the details of the selected ship</text><!--MD5=[81f65a13d4acb9b95a187a41d6df5517]
@startuml
'https://plantuml.com/sequence-diagram

autonumber

actor "Traffic Manager" as tm

participant ":ShipUI" as ShipUI
participant ":ShipController" as ShipCtrl
participant ":Company" as Comp
participant ":ShipStore" as Ss

activate tm
tm -> ShipUI : asks to search a ship
activate ShipUI
ShipUI -> ShipCtrl : getShips()
activate ShipCtrl
ShipCtrl -> Comp : getShipStore()
activate Comp
Comp -> Ss : getShipStore()
deactivate Comp
activate Ss
Ss - -> ShipCtrl : shipMap
deactivate Ss
deactivate ShipCtrl
ShipUI - -> tm : asks one of it's codes(MMSI, IMMO or Call Sign)
deactivate ShipUI
|||
tm -> ShipUI : introduces one of it's codes(MMSI, IMMO or Call Sign)
activate ShipUI
alt
else if: MMSI
ShipUI -> ShipCtrl : getShips(MMSI)
activate ShipCtrl
ShipCtrl -> Ss : getShip(MMSI)
activate Ss
Ss - -> ShipCtrl : Ship
deactivate Ss
ShipCtrl - -> ShipUI : Ship
deactivate ShipCtrl

else if: IMMO
ShipUI -> ShipCtrl : getShips(IMMO)
activate ShipCtrl
ShipCtrl -> Ss : getShip(IMMO)
activate Ss
Ss - -> ShipCtrl : Ship
deactivate Ss
ShipCtrl - -> ShipUI : Ship
deactivate ShipCtrl

else if: Call Sign
ShipUI -> ShipCtrl : getShips(Call Sign)
activate ShipCtrl
ShipCtrl -> Ss : getShip(Call Sign)
activate Ss
Ss - -> ShipCtrl : Ship
deactivate Ss
ShipCtrl - -> ShipUI : Ship
deactivate ShipCtrl

end
ShipUI - -> tm : shows the details of the selected ship
deactivate tm
@enduml

@startuml

autonumber

actor "Traffic Manager" as tm

participant ":ShipUI" as ShipUI
participant ":ShipController" as ShipCtrl
participant ":Company" as Comp
participant ":ShipStore" as Ss

activate tm
tm -> ShipUI : asks to search a ship
activate ShipUI
ShipUI -> ShipCtrl : getShips()
activate ShipCtrl
ShipCtrl -> Comp : getShipStore()
activate Comp
Comp -> Ss : getShipStore()
deactivate Comp
activate Ss
Ss - -> ShipCtrl : shipMap
deactivate Ss
deactivate ShipCtrl
ShipUI - -> tm : asks one of it's codes(MMSI, IMMO or Call Sign)
deactivate ShipUI
|||
tm -> ShipUI : introduces one of it's codes(MMSI, IMMO or Call Sign)
activate ShipUI
alt
else if: MMSI
ShipUI -> ShipCtrl : getShips(MMSI)
activate ShipCtrl
ShipCtrl -> Ss : getShip(MMSI)
activate Ss
Ss - -> ShipCtrl : Ship
deactivate Ss
ShipCtrl - -> ShipUI : Ship
deactivate ShipCtrl

else if: IMMO
ShipUI -> ShipCtrl : getShips(IMMO)
activate ShipCtrl
ShipCtrl -> Ss : getShip(IMMO)
activate Ss
Ss - -> ShipCtrl : Ship
deactivate Ss
ShipCtrl - -> ShipUI : Ship
deactivate ShipCtrl

else if: Call Sign
ShipUI -> ShipCtrl : getShips(Call Sign)
activate ShipCtrl
ShipCtrl -> Ss : getShip(Call Sign)
activate Ss
Ss - -> ShipCtrl : Ship
deactivate Ss
ShipCtrl - -> ShipUI : Ship
deactivate ShipCtrl

end
ShipUI - -> tm : shows the details of the selected ship
deactivate tm
@enduml

PlantUML version 1.2021.11(Sat Oct 02 14:26:11 BST 2021)
(GPL source distribution)
Java Runtime: OpenJDK Runtime Environment
JVM: OpenJDK 64-Bit Server VM
Default Encoding: Cp1252
Language: pt
Country: PT
--></g></svg>