<?xml version="1.0" encoding="UTF-8" standalone="no"?><svg xmlns="http://www.w3.org/2000/svg" xmlns:xlink="http://www.w3.org/1999/xlink" contentScriptType="application/ecmascript" contentStyleType="text/css" height="462px" preserveAspectRatio="none" style="width:266px;height:462px;background:#FFFFFF;" version="1.1" viewBox="0 0 266 462" width="266px" zoomAndPan="magnify"><defs><filter height="300%" id="fa11a78c5vipa" width="300%" x="-1" y="-1"><feGaussianBlur result="blurOut" stdDeviation="2.0"/><feColorMatrix in="blurOut" result="blurOut2" type="matrix" values="0 0 0 0 0 0 0 0 0 0 0 0 0 0 0 0 0 0 .4 0"/><feOffset dx="4.0" dy="4.0" in="blurOut2" result="blurOut3"/><feBlend in="SourceGraphic" in2="blurOut3" mode="normal"/></filter></defs><g><!--MD5=[07f9432d13f82712e3b2a8d5af0a646c]
class WarehouseMapUI--><rect codeLine="1" fill="#FEFECE" filter="url(#fa11a78c5vipa)" height="48" id="WarehouseMapUI" style="stroke:#A80036;stroke-width:1.5;" width="131" x="84" y="7"/><ellipse cx="99" cy="23" fill="#ADD1B2" rx="11" ry="11" style="stroke:#A80036;stroke-width:1.0;"/><path d="M101,19.5 Q101.2031,19 101.4375,18.75 Q101.6719,18.5 101.9375,18.5 Q102.4063,18.5 102.7031,18.7813 Q103,19.0625 103,19.7188 L103,21.2813 Q103,21.9375 102.7188,22.2188 Q102.4375,22.5 102,22.5 Q101.6094,22.5 101.3594,22.3281 Q101.1094,22.1563 101,21.7031 Q100.9531,21.3906 100.7813,21.2188 Q100.4688,20.8906 99.9063,20.7031 Q99.3438,20.5 98.7813,20.5 Q98.0781,20.5 97.4844,20.7813 Q96.9063,21.0625 96.4531,21.6875 Q96,22.3125 96,23.1719 L96,24.0938 Q96,25.125 96.8438,25.8125 Q97.6875,26.5 99.1875,26.5 Q100.0781,26.5 100.7031,26.2969 Q101.0625,26.1875 101.4688,25.8281 Q101.7344,25.625 101.875,25.5625 Q102.0156,25.5 102.1875,25.5 Q102.5156,25.5 102.75,25.7656 Q103,26.0156 103,26.375 Q103,26.7188 102.6563,27.125 Q102.1563,27.7188 101.3594,28.0469 Q100.3125,28.5 99.0313,28.5 Q97.5313,28.5 96.3281,27.9063 Q95.3594,27.4375 94.6719,26.4219 Q94,25.4063 94,24.2031 L94,23.1094 Q94,21.8594 94.5938,20.7656 Q95.2031,19.6719 96.25,19.0938 Q97.3125,18.5 98.5,18.5 Q99.2188,18.5 99.8438,18.75 Q100.4688,19 101,19.5 Z " fill="#000000"/><text fill="#000000" font-family="sans-serif" font-size="12" lengthAdjust="spacing" textLength="99" x="113" y="27.9102">WarehouseMapUI</text><line style="stroke:#A80036;stroke-width:1.5;" x1="85" x2="214" y1="39" y2="39"/><line style="stroke:#A80036;stroke-width:1.5;" x1="85" x2="214" y1="47" y2="47"/><!--MD5=[9f37d4c6b3591c9215842fe93658d236]
class WarehouseMapController--><rect codeLine="4" fill="#FEFECE" filter="url(#fa11a78c5vipa)" height="61.8359" id="WarehouseMapController" style="stroke:#A80036;stroke-width:1.5;" width="205" x="47" y="115"/><ellipse cx="76.4" cy="131" fill="#ADD1B2" rx="11" ry="11" style="stroke:#A80036;stroke-width:1.0;"/><path d="M78.4,127.5 Q78.6031,127 78.8375,126.75 Q79.0719,126.5 79.3375,126.5 Q79.8063,126.5 80.1031,126.7813 Q80.4,127.0625 80.4,127.7188 L80.4,129.2813 Q80.4,129.9375 80.1188,130.2188 Q79.8375,130.5 79.4,130.5 Q79.0094,130.5 78.7594,130.3281 Q78.5094,130.1563 78.4,129.7031 Q78.3531,129.3906 78.1813,129.2188 Q77.8688,128.8906 77.3063,128.7031 Q76.7438,128.5 76.1813,128.5 Q75.4781,128.5 74.8844,128.7813 Q74.3063,129.0625 73.8531,129.6875 Q73.4,130.3125 73.4,131.1719 L73.4,132.0938 Q73.4,133.125 74.2438,133.8125 Q75.0875,134.5 76.5875,134.5 Q77.4781,134.5 78.1031,134.2969 Q78.4625,134.1875 78.8688,133.8281 Q79.1344,133.625 79.275,133.5625 Q79.4156,133.5 79.5875,133.5 Q79.9156,133.5 80.15,133.7656 Q80.4,134.0156 80.4,134.375 Q80.4,134.7188 80.0563,135.125 Q79.5563,135.7188 78.7594,136.0469 Q77.7125,136.5 76.4313,136.5 Q74.9313,136.5 73.7281,135.9063 Q72.7594,135.4375 72.0719,134.4219 Q71.4,133.4063 71.4,132.2031 L71.4,131.1094 Q71.4,129.8594 71.9938,128.7656 Q72.6031,127.6719 73.65,127.0938 Q74.7125,126.5 75.9,126.5 Q76.6188,126.5 77.2438,126.75 Q77.8688,127 78.4,127.5 Z " fill="#000000"/><text fill="#000000" font-family="sans-serif" font-size="12" lengthAdjust="spacing" textLength="141" x="93.6" y="135.9102">WarehouseMapController</text><line style="stroke:#A80036;stroke-width:1.5;" x1="48" x2="251" y1="147" y2="147"/><line style="stroke:#A80036;stroke-width:1.5;" x1="48" x2="251" y1="155" y2="155"/><ellipse cx="58" cy="166" fill="#84BE84" rx="3" ry="3" style="stroke:#038048;stroke-width:1.0;"/><text fill="#000000" font-family="sans-serif" font-size="11" lengthAdjust="spacing" textLength="179" x="67" y="170.4189">getWarehouseMap(idPortWare, data)</text><!--MD5=[02e4b9b7573f1156f41e60aa5b4e25a4]
class Company--><rect codeLine="8" fill="#FEFECE" filter="url(#fa11a78c5vipa)" height="75.6719" id="Company" style="stroke:#A80036;stroke-width:1.5;" width="155" x="7" y="237"/><ellipse cx="53.75" cy="253" fill="#ADD1B2" rx="11" ry="11" style="stroke:#A80036;stroke-width:1.0;"/><path d="M55.75,249.5 Q55.9531,249 56.1875,248.75 Q56.4219,248.5 56.6875,248.5 Q57.1563,248.5 57.4531,248.7813 Q57.75,249.0625 57.75,249.7188 L57.75,251.2813 Q57.75,251.9375 57.4688,252.2188 Q57.1875,252.5 56.75,252.5 Q56.3594,252.5 56.1094,252.3281 Q55.8594,252.1563 55.75,251.7031 Q55.7031,251.3906 55.5313,251.2188 Q55.2188,250.8906 54.6563,250.7031 Q54.0938,250.5 53.5313,250.5 Q52.8281,250.5 52.2344,250.7813 Q51.6563,251.0625 51.2031,251.6875 Q50.75,252.3125 50.75,253.1719 L50.75,254.0938 Q50.75,255.125 51.5938,255.8125 Q52.4375,256.5 53.9375,256.5 Q54.8281,256.5 55.4531,256.2969 Q55.8125,256.1875 56.2188,255.8281 Q56.4844,255.625 56.625,255.5625 Q56.7656,255.5 56.9375,255.5 Q57.2656,255.5 57.5,255.7656 Q57.75,256.0156 57.75,256.375 Q57.75,256.7188 57.4063,257.125 Q56.9063,257.7188 56.1094,258.0469 Q55.0625,258.5 53.7813,258.5 Q52.2813,258.5 51.0781,257.9063 Q50.1094,257.4375 49.4219,256.4219 Q48.75,255.4063 48.75,254.2031 L48.75,253.1094 Q48.75,251.8594 49.3438,250.7656 Q49.9531,249.6719 51,249.0938 Q52.0625,248.5 53.25,248.5 Q53.9688,248.5 54.5938,248.75 Q55.2188,249 55.75,249.5 Z " fill="#000000"/><text fill="#000000" font-family="sans-serif" font-size="12" lengthAdjust="spacing" textLength="53" x="74.25" y="257.9102">Company</text><line style="stroke:#A80036;stroke-width:1.5;" x1="8" x2="161" y1="269" y2="269"/><rect fill="none" height="6" style="stroke:#C82930;stroke-width:1.0;" width="6" x="15" y="277"/><text fill="#000000" font-family="sans-serif" font-size="11" lengthAdjust="spacing" textLength="129" x="27" y="284.4189">WarehouseMapStore wms</text><line style="stroke:#A80036;stroke-width:1.0;" x1="8" x2="161" y1="290.8359" y2="290.8359"/><ellipse cx="18" cy="301.8359" fill="#84BE84" rx="3" ry="3" style="stroke:#038048;stroke-width:1.0;"/><text fill="#000000" font-family="sans-serif" font-size="11" lengthAdjust="spacing" textLength="99" x="27" y="306.2549">getWarehouseMap()</text><!--MD5=[b70715ac9af13d83c9abe3104007591f]
class WarehouseMapStore--><rect codeLine="14" fill="#FEFECE" filter="url(#fa11a78c5vipa)" height="75.6719" id="WarehouseMapStore" style="stroke:#A80036;stroke-width:1.5;" width="205" x="47" y="373"/><ellipse cx="87.65" cy="389" fill="#ADD1B2" rx="11" ry="11" style="stroke:#A80036;stroke-width:1.0;"/><path d="M89.65,385.5 Q89.8531,385 90.0875,384.75 Q90.3219,384.5 90.5875,384.5 Q91.0563,384.5 91.3531,384.7813 Q91.65,385.0625 91.65,385.7188 L91.65,387.2813 Q91.65,387.9375 91.3688,388.2188 Q91.0875,388.5 90.65,388.5 Q90.2594,388.5 90.0094,388.3281 Q89.7594,388.1563 89.65,387.7031 Q89.6031,387.3906 89.4313,387.2188 Q89.1188,386.8906 88.5563,386.7031 Q87.9938,386.5 87.4313,386.5 Q86.7281,386.5 86.1344,386.7813 Q85.5563,387.0625 85.1031,387.6875 Q84.65,388.3125 84.65,389.1719 L84.65,390.0938 Q84.65,391.125 85.4938,391.8125 Q86.3375,392.5 87.8375,392.5 Q88.7281,392.5 89.3531,392.2969 Q89.7125,392.1875 90.1188,391.8281 Q90.3844,391.625 90.525,391.5625 Q90.6656,391.5 90.8375,391.5 Q91.1656,391.5 91.4,391.7656 Q91.65,392.0156 91.65,392.375 Q91.65,392.7188 91.3063,393.125 Q90.8063,393.7188 90.0094,394.0469 Q88.9625,394.5 87.6813,394.5 Q86.1813,394.5 84.9781,393.9063 Q84.0094,393.4375 83.3219,392.4219 Q82.65,391.4063 82.65,390.2031 L82.65,389.1094 Q82.65,387.8594 83.2438,386.7656 Q83.8531,385.6719 84.9,385.0938 Q85.9625,384.5 87.15,384.5 Q87.8688,384.5 88.4938,384.75 Q89.1188,385 89.65,385.5 Z " fill="#000000"/><text fill="#000000" font-family="sans-serif" font-size="12" lengthAdjust="spacing" textLength="116" x="107.35" y="393.9102">WarehouseMapStore</text><line style="stroke:#A80036;stroke-width:1.5;" x1="48" x2="251" y1="405" y2="405"/><line style="stroke:#A80036;stroke-width:1.5;" x1="48" x2="251" y1="413" y2="413"/><ellipse cx="58" cy="424" fill="#84BE84" rx="3" ry="3" style="stroke:#038048;stroke-width:1.0;"/><text fill="#000000" font-family="sans-serif" font-size="11" lengthAdjust="spacing" textLength="99" x="67" y="428.4189">getWarehouseMap()</text><ellipse cx="58" cy="437.8359" fill="#84BE84" rx="3" ry="3" style="stroke:#038048;stroke-width:1.0;"/><text fill="#000000" font-family="sans-serif" font-size="11" lengthAdjust="spacing" textLength="179" x="67" y="442.2549">getWarehouseMap(idPortWare, data)</text><!--MD5=[8e85779733fb6d9b1e9f9b1cada0fafc]
link WarehouseMapUI to WarehouseMapController--><path codeLine="19" d="M149.5,55.14 C149.5,70.71 149.5,91.53 149.5,109.22 " fill="none" id="WarehouseMapUI-to-WarehouseMapController" style="stroke:#A80036;stroke-width:1.0;stroke-dasharray:7.0,7.0;"/><polygon fill="#A80036" points="149.5,114.6,153.5,105.6,149.5,109.6,145.5,105.6,149.5,114.6" style="stroke:#A80036;stroke-width:1.0;"/><!--MD5=[64d2d038e0d2ae395291bb40b1699aab]
link WarehouseMapController to Company--><path codeLine="20" d="M134.1,177.1 C125.65,193.6 115.05,214.3 105.83,232.33 " fill="none" id="WarehouseMapController-to-Company" style="stroke:#A80036;stroke-width:1.0;stroke-dasharray:7.0,7.0;"/><polygon fill="#A80036" points="103.51,236.86,111.1604,230.6574,105.7803,232.4051,104.0326,227.025,103.51,236.86" style="stroke:#A80036;stroke-width:1.0;"/><!--MD5=[f5460e436ec47066b877cf2827540418]
link Company to WarehouseMapStore--><path codeLine="21" d="M102.61,313.33 C110.85,330.31 120.63,350.49 129.13,368.01 " fill="none" id="Company-to-WarehouseMapStore" style="stroke:#A80036;stroke-width:1.0;"/><polygon fill="#A80036" points="131.49,372.87,131.1559,363.0268,129.3055,368.3725,123.9598,366.522,131.49,372.87" style="stroke:#A80036;stroke-width:1.0;"/><!--MD5=[daf89db6912482a91a9dfe9d6fc5d858]
link WarehouseMapController to WarehouseMapStore--><path codeLine="22" d="M162.28,177.21 C168.86,194.39 176.18,216.52 179.5,237 C184.91,270.34 184.55,279.6 179.5,313 C176.73,331.32 171.18,350.95 165.59,367.73 " fill="none" id="WarehouseMapController-to-WarehouseMapStore" style="stroke:#A80036;stroke-width:1.0;stroke-dasharray:7.0,7.0;"/><polygon fill="#A80036" points="163.86,372.84,170.5532,365.615,165.4754,368.1081,162.9822,363.0303,163.86,372.84" style="stroke:#A80036;stroke-width:1.0;"/><!--MD5=[fdbbf6a46d4745441b9f1d1056d76f5f]
@startuml
class WarehouseMapUI{
}

class WarehouseMapController{
    +getWarehouseMap(idPortWare, data)
}

class Company{
    -WarehouseMapStore wms
    - -
    +getWarehouseMap()
}

class WarehouseMapStore{
    +getWarehouseMap()
    +getWarehouseMap(idPortWare, data)
}

WarehouseMapUI ..> WarehouseMapController
WarehouseMapController ..> Company
Company - -> WarehouseMapStore
WarehouseMapController ..> WarehouseMapStore

@endum

PlantUML version 1.2021.15(Tue Nov 30 16:45:34 GMT 2021)
(GPL source distribution)
Java Runtime: OpenJDK Runtime Environment
JVM: OpenJDK 64-Bit Server VM
Default Encoding: Cp1252
Language: pt
Country: PT
--></g></svg>