<?xml version="1.0" encoding="UTF-8" standalone="no"?><svg xmlns="http://www.w3.org/2000/svg" xmlns:xlink="http://www.w3.org/1999/xlink" contentScriptType="application/ecmascript" contentStyleType="text/css" height="368px" preserveAspectRatio="none" style="width:178px;height:368px;background:#FFFFFF;" version="1.1" viewBox="0 0 178 368" width="178px" zoomAndPan="magnify"><defs><filter height="300%" id="f1ver3lnsfoxjz" width="300%" x="-1" y="-1"><feGaussianBlur result="blurOut" stdDeviation="2.0"/><feColorMatrix in="blurOut" result="blurOut2" type="matrix" values="0 0 0 0 0 0 0 0 0 0 0 0 0 0 0 0 0 0 .4 0"/><feOffset dx="4.0" dy="4.0" in="blurOut2" result="blurOut3"/><feBlend in="SourceGraphic" in2="blurOut3" mode="normal"/></filter></defs><g><!--MD5=[df76e760f2062188d44f98c21a88999b]
class UI--><rect codeLine="8" fill="#FEFECE" filter="url(#f1ver3lnsfoxjz)" height="48" id="UI" style="stroke:#A80036;stroke-width:1.5;" width="44" x="63.5" y="7"/><ellipse cx="78.5" cy="23" fill="#ADD1B2" rx="11" ry="11" style="stroke:#A80036;stroke-width:1.0;"/><path d="M80.5,19.5 Q80.7031,19 80.9375,18.75 Q81.1719,18.5 81.4375,18.5 Q81.9063,18.5 82.2031,18.7813 Q82.5,19.0625 82.5,19.7188 L82.5,21.2813 Q82.5,21.9375 82.2188,22.2188 Q81.9375,22.5 81.5,22.5 Q81.1094,22.5 80.8594,22.3281 Q80.6094,22.1563 80.5,21.7031 Q80.4531,21.3906 80.2813,21.2188 Q79.9688,20.8906 79.4063,20.7031 Q78.8438,20.5 78.2813,20.5 Q77.5781,20.5 76.9844,20.7813 Q76.4063,21.0625 75.9531,21.6875 Q75.5,22.3125 75.5,23.1719 L75.5,24.0938 Q75.5,25.125 76.3438,25.8125 Q77.1875,26.5 78.6875,26.5 Q79.5781,26.5 80.2031,26.2969 Q80.5625,26.1875 80.9688,25.8281 Q81.2344,25.625 81.375,25.5625 Q81.5156,25.5 81.6875,25.5 Q82.0156,25.5 82.25,25.7656 Q82.5,26.0156 82.5,26.375 Q82.5,26.7188 82.1563,27.125 Q81.6563,27.7188 80.8594,28.0469 Q79.8125,28.5 78.5313,28.5 Q77.0313,28.5 75.8281,27.9063 Q74.8594,27.4375 74.1719,26.4219 Q73.5,25.4063 73.5,24.2031 L73.5,23.1094 Q73.5,21.8594 74.0938,20.7656 Q74.7031,19.6719 75.75,19.0938 Q76.8125,18.5 78,18.5 Q78.7188,18.5 79.3438,18.75 Q79.9688,19 80.5,19.5 Z " fill="#000000"/><text fill="#000000" font-family="sans-serif" font-size="12" lengthAdjust="spacing" textLength="12" x="92.5" y="27.9102">UI</text><line style="stroke:#A80036;stroke-width:1.5;" x1="64.5" x2="106.5" y1="39" y2="39"/><line style="stroke:#A80036;stroke-width:1.5;" x1="64.5" x2="106.5" y1="47" y2="47"/><!--MD5=[1d7ba1c7002d54515419844fbd155368]
class Controller--><rect codeLine="12" fill="#FEFECE" filter="url(#f1ver3lnsfoxjz)" height="89.5078" id="Controller" style="stroke:#A80036;stroke-width:1.5;" width="157" x="7" y="115"/><ellipse cx="54.25" cy="131" fill="#ADD1B2" rx="11" ry="11" style="stroke:#A80036;stroke-width:1.0;"/><path d="M56.25,127.5 Q56.4531,127 56.6875,126.75 Q56.9219,126.5 57.1875,126.5 Q57.6563,126.5 57.9531,126.7813 Q58.25,127.0625 58.25,127.7188 L58.25,129.2813 Q58.25,129.9375 57.9688,130.2188 Q57.6875,130.5 57.25,130.5 Q56.8594,130.5 56.6094,130.3281 Q56.3594,130.1563 56.25,129.7031 Q56.2031,129.3906 56.0313,129.2188 Q55.7188,128.8906 55.1563,128.7031 Q54.5938,128.5 54.0313,128.5 Q53.3281,128.5 52.7344,128.7813 Q52.1563,129.0625 51.7031,129.6875 Q51.25,130.3125 51.25,131.1719 L51.25,132.0938 Q51.25,133.125 52.0938,133.8125 Q52.9375,134.5 54.4375,134.5 Q55.3281,134.5 55.9531,134.2969 Q56.3125,134.1875 56.7188,133.8281 Q56.9844,133.625 57.125,133.5625 Q57.2656,133.5 57.4375,133.5 Q57.7656,133.5 58,133.7656 Q58.25,134.0156 58.25,134.375 Q58.25,134.7188 57.9063,135.125 Q57.4063,135.7188 56.6094,136.0469 Q55.5625,136.5 54.2813,136.5 Q52.7813,136.5 51.5781,135.9063 Q50.6094,135.4375 49.9219,134.4219 Q49.25,133.4063 49.25,132.2031 L49.25,131.1094 Q49.25,129.8594 49.8438,128.7656 Q50.4531,127.6719 51.5,127.0938 Q52.5625,126.5 53.75,126.5 Q54.4688,126.5 55.0938,126.75 Q55.7188,127 56.25,127.5 Z " fill="#000000"/><text fill="#000000" font-family="sans-serif" font-size="12" lengthAdjust="spacing" textLength="54" x="74.75" y="135.9102">Controller</text><line style="stroke:#A80036;stroke-width:1.5;" x1="8" x2="163" y1="147" y2="147"/><rect fill="none" height="6" style="stroke:#C82930;stroke-width:1.0;" width="6" x="15" y="155"/><text fill="#000000" font-family="sans-serif" font-size="11" lengthAdjust="spacing" textLength="72" x="27" y="162.4189">id_load_unload</text><rect fill="none" height="6" style="stroke:#C82930;stroke-width:1.0;" width="6" x="15" y="168.8359"/><text fill="#000000" font-family="sans-serif" font-size="11" lengthAdjust="spacing" textLength="59" x="27" y="176.2549">id_container</text><line style="stroke:#A80036;stroke-width:1.5;" x1="8" x2="163" y1="182.6719" y2="182.6719"/><ellipse cx="18" cy="193.6719" fill="#84BE84" rx="3" ry="3" style="stroke:#038048;stroke-width:1.0;"/><text fill="#000000" font-family="sans-serif" font-size="11" lengthAdjust="spacing" textLength="131" x="27" y="198.0908">findContainer(id_container)</text><!--MD5=[35046a94640f58ac9f18b7768827fbaf]
class FindContainer--><rect codeLine="18" fill="#FEFECE" filter="url(#f1ver3lnsfoxjz)" height="89.5078" id="FindContainer" style="stroke:#A80036;stroke-width:1.5;" width="157" x="7" y="265"/><ellipse cx="43.15" cy="281" fill="#ADD1B2" rx="11" ry="11" style="stroke:#A80036;stroke-width:1.0;"/><path d="M45.15,277.5 Q45.3531,277 45.5875,276.75 Q45.8219,276.5 46.0875,276.5 Q46.5563,276.5 46.8531,276.7813 Q47.15,277.0625 47.15,277.7188 L47.15,279.2813 Q47.15,279.9375 46.8688,280.2188 Q46.5875,280.5 46.15,280.5 Q45.7594,280.5 45.5094,280.3281 Q45.2594,280.1563 45.15,279.7031 Q45.1031,279.3906 44.9313,279.2188 Q44.6188,278.8906 44.0563,278.7031 Q43.4938,278.5 42.9313,278.5 Q42.2281,278.5 41.6344,278.7813 Q41.0563,279.0625 40.6031,279.6875 Q40.15,280.3125 40.15,281.1719 L40.15,282.0938 Q40.15,283.125 40.9938,283.8125 Q41.8375,284.5 43.3375,284.5 Q44.2281,284.5 44.8531,284.2969 Q45.2125,284.1875 45.6188,283.8281 Q45.8844,283.625 46.025,283.5625 Q46.1656,283.5 46.3375,283.5 Q46.6656,283.5 46.9,283.7656 Q47.15,284.0156 47.15,284.375 Q47.15,284.7188 46.8063,285.125 Q46.3063,285.7188 45.5094,286.0469 Q44.4625,286.5 43.1813,286.5 Q41.6813,286.5 40.4781,285.9063 Q39.5094,285.4375 38.8219,284.4219 Q38.15,283.4063 38.15,282.2031 L38.15,281.1094 Q38.15,279.8594 38.7438,278.7656 Q39.3531,277.6719 40.4,277.0938 Q41.4625,276.5 42.65,276.5 Q43.3688,276.5 43.9938,276.75 Q44.6188,277 45.15,277.5 Z " fill="#000000"/><text fill="#000000" font-family="sans-serif" font-size="12" lengthAdjust="spacing" textLength="78" x="61.85" y="285.9102">FindContainer</text><line style="stroke:#A80036;stroke-width:1.5;" x1="8" x2="163" y1="297" y2="297"/><rect fill="none" height="6" style="stroke:#C82930;stroke-width:1.0;" width="6" x="15" y="305"/><text fill="#000000" font-family="sans-serif" font-size="11" lengthAdjust="spacing" textLength="52" x="27" y="312.4189">ship_name</text><rect fill="none" height="6" style="stroke:#C82930;stroke-width:1.0;" width="6" x="15" y="318.8359"/><text fill="#000000" font-family="sans-serif" font-size="11" lengthAdjust="spacing" textLength="51" x="27" y="326.2549">port_name</text><line style="stroke:#A80036;stroke-width:1.5;" x1="8" x2="163" y1="332.6719" y2="332.6719"/><ellipse cx="18" cy="343.6719" fill="#84BE84" rx="3" ry="3" style="stroke:#038048;stroke-width:1.0;"/><text fill="#000000" font-family="sans-serif" font-size="11" lengthAdjust="spacing" textLength="131" x="27" y="348.0908">findContainer(id_container)</text><!--MD5=[132c963044dc2a803644bb1c6fd2eeb1]
link UI to Controller--><path codeLine="5" d="M85.5,55.29 C85.5,70.48 85.5,90.88 85.5,109.56 " fill="none" id="UI-to-Controller" style="stroke:#A80036;stroke-width:1.0;stroke-dasharray:7.0,7.0;"/><polygon fill="#A80036" points="85.5,114.78,89.5,105.78,85.5,109.78,81.5,105.78,85.5,114.78" style="stroke:#A80036;stroke-width:1.0;"/><!--MD5=[413709e452a9353143bbcb527f40553e]
link Controller to FindContainer--><path codeLine="6" d="M85.5,205 C85.5,222.15 85.5,241.87 85.5,259.51 " fill="none" id="Controller-to-FindContainer" style="stroke:#A80036;stroke-width:1.0;stroke-dasharray:7.0,7.0;"/><polygon fill="#A80036" points="85.5,264.91,89.5,255.91,85.5,259.91,81.5,255.91,85.5,264.91" style="stroke:#A80036;stroke-width:1.0;"/><!--MD5=[9a47fede3d69f9fff7a4663f5ce0f09e]
@startuml
top to bottom direction
class UI
class Controller
class FindContainer
UI ..> Controller
Controller ..> FindContainer

class UI {

}

class Controller{
-id_load_unload
-id_container
+findContainer(id_container)
}

class FindContainer {
-ship_name
-port_name
+findContainer(id_container)
}

@enduml

PlantUML version 1.2021.11(Sat Oct 02 14:26:11 BST 2021)
(GPL source distribution)
Java Runtime: OpenJDK Runtime Environment
JVM: OpenJDK 64-Bit Server VM
Default Encoding: Cp1252
Language: pt
Country: PT
--></g></svg>