<?xml version="1.0" encoding="UTF-8" standalone="no"?><svg xmlns="http://www.w3.org/2000/svg" xmlns:xlink="http://www.w3.org/1999/xlink" contentScriptType="application/ecmascript" contentStyleType="text/css" height="468px" preserveAspectRatio="none" style="width:915px;height:468px;background:#FFFFFF;" version="1.1" viewBox="0 0 915 468" width="915px" zoomAndPan="magnify"><defs><filter height="300%" id="f1asy9ar3ycqgk" width="300%" x="-1" y="-1"><feGaussianBlur result="blurOut" stdDeviation="2.0"/><feColorMatrix in="blurOut" result="blurOut2" type="matrix" values="0 0 0 0 0 0 0 0 0 0 0 0 0 0 0 0 0 0 .4 0"/><feOffset dx="4.0" dy="4.0" in="blurOut2" result="blurOut3"/><feBlend in="SourceGraphic" in2="blurOut3" mode="normal"/></filter></defs><g><rect fill="#FFFFFF" filter="url(#f1asy9ar3ycqgk)" height="274.1641" style="stroke:#A80036;stroke-width:1.0;" width="10" x="21" y="99.6094"/><rect fill="#FFFFFF" filter="url(#f1asy9ar3ycqgk)" height="30.3516" style="stroke:#A80036;stroke-width:1.0;" width="10" x="398" y="121.9609"/><rect fill="#FFFFFF" filter="url(#f1asy9ar3ycqgk)" height="182.1094" style="stroke:#A80036;stroke-width:1.0;" width="10" x="398" y="182.6641"/><rect fill="#FFFFFF" filter="url(#f1asy9ar3ycqgk)" height="121.4063" style="stroke:#A80036;stroke-width:1.0;" width="10" x="582" y="213.0156"/><rect fill="#FFFFFF" filter="url(#f1asy9ar3ycqgk)" height="30.3516" style="stroke:#A80036;stroke-width:1.0;" width="10" x="705" y="243.3672"/><rect fill="#FFFFFF" filter="url(#f1asy9ar3ycqgk)" height="30.3516" style="stroke:#A80036;stroke-width:1.0;" width="10" x="873" y="273.7188"/><line style="stroke:#A80036;stroke-width:1.0;stroke-dasharray:5.0,5.0;" x1="26" x2="26" y1="89.6094" y2="382.7734"/><line style="stroke:#A80036;stroke-width:1.0;stroke-dasharray:5.0,5.0;" x1="403" x2="403" y1="89.6094" y2="382.7734"/><line style="stroke:#A80036;stroke-width:1.0;stroke-dasharray:5.0,5.0;" x1="587" x2="587" y1="89.6094" y2="382.7734"/><line style="stroke:#A80036;stroke-width:1.0;stroke-dasharray:5.0,5.0;" x1="709.5" x2="709.5" y1="89.6094" y2="382.7734"/><line style="stroke:#A80036;stroke-width:1.0;stroke-dasharray:5.0,5.0;" x1="878" x2="878" y1="89.6094" y2="382.7734"/><text fill="#000000" font-family="sans-serif" font-size="14" lengthAdjust="spacing" textLength="36" x="5" y="86.5332">Client</text><ellipse cx="26" cy="15" fill="#FEFECE" filter="url(#f1asy9ar3ycqgk)" rx="8" ry="8" style="stroke:#A80036;stroke-width:2.0;"/><path d="M26,23 L26,50 M13,31 L39,31 M26,50 L13,65 M26,50 L39,65 " fill="none" filter="url(#f1asy9ar3ycqgk)" style="stroke:#A80036;stroke-width:2.0;"/><text fill="#000000" font-family="sans-serif" font-size="14" lengthAdjust="spacing" textLength="36" x="5" y="396.3066">Client</text><ellipse cx="26" cy="409.3828" fill="#FEFECE" filter="url(#f1asy9ar3ycqgk)" rx="8" ry="8" style="stroke:#A80036;stroke-width:2.0;"/><path d="M26,417.3828 L26,444.3828 M13,425.3828 L39,425.3828 M26,444.3828 L13,459.3828 M26,444.3828 L39,459.3828 " fill="none" filter="url(#f1asy9ar3ycqgk)" style="stroke:#A80036;stroke-width:2.0;"/><rect fill="#FEFECE" filter="url(#f1asy9ar3ycqgk)" height="31.6094" style="stroke:#A80036;stroke-width:1.5;" width="30" x="386" y="53"/><text fill="#000000" font-family="sans-serif" font-size="14" lengthAdjust="spacing" textLength="16" x="393" y="74.5332">:UI</text><rect fill="#FEFECE" filter="url(#f1asy9ar3ycqgk)" height="31.6094" style="stroke:#A80036;stroke-width:1.5;" width="30" x="386" y="381.7734"/><text fill="#000000" font-family="sans-serif" font-size="14" lengthAdjust="spacing" textLength="16" x="393" y="403.3066">:UI</text><rect fill="#FEFECE" filter="url(#f1asy9ar3ycqgk)" height="31.6094" style="stroke:#A80036;stroke-width:1.5;" width="80" x="545" y="53"/><text fill="#000000" font-family="sans-serif" font-size="14" lengthAdjust="spacing" textLength="66" x="552" y="74.5332">:Controller</text><rect fill="#FEFECE" filter="url(#f1asy9ar3ycqgk)" height="31.6094" style="stroke:#A80036;stroke-width:1.5;" width="80" x="545" y="381.7734"/><text fill="#000000" font-family="sans-serif" font-size="14" lengthAdjust="spacing" textLength="66" x="552" y="403.3066">:Controller</text><rect fill="#FEFECE" filter="url(#f1asy9ar3ycqgk)" height="31.6094" style="stroke:#A80036;stroke-width:1.5;" width="113" x="651.5" y="53"/><text fill="#000000" font-family="sans-serif" font-size="14" lengthAdjust="spacing" textLength="99" x="658.5" y="74.5332">:findContainer()</text><rect fill="#FEFECE" filter="url(#f1asy9ar3ycqgk)" height="31.6094" style="stroke:#A80036;stroke-width:1.5;" width="113" x="651.5" y="381.7734"/><text fill="#000000" font-family="sans-serif" font-size="14" lengthAdjust="spacing" textLength="99" x="658.5" y="403.3066">:findContainer()</text><text fill="#000000" font-family="sans-serif" font-size="14" lengthAdjust="spacing" textLength="66" x="842" y="86.5332">:DataBase</text><path d="M860,36 C860,26 878,26 878,26 C878,26 896,26 896,36 L896,62 C896,72 878,72 878,72 C878,72 860,72 860,62 L860,36 " fill="#FEFECE" filter="url(#f1asy9ar3ycqgk)" style="stroke:#000000;stroke-width:1.5;"/><path d="M860,36 C860,46 878,46 878,46 C878,46 896,46 896,36 " fill="none" style="stroke:#000000;stroke-width:1.5;"/><text fill="#000000" font-family="sans-serif" font-size="14" lengthAdjust="spacing" textLength="66" x="842" y="396.3066">:DataBase</text><path d="M860,409.3828 C860,399.3828 878,399.3828 878,399.3828 C878,399.3828 896,399.3828 896,409.3828 L896,435.3828 C896,445.3828 878,445.3828 878,445.3828 C878,445.3828 860,445.3828 860,435.3828 L860,409.3828 " fill="#FEFECE" filter="url(#f1asy9ar3ycqgk)" style="stroke:#000000;stroke-width:1.5;"/><path d="M860,409.3828 C860,419.3828 878,419.3828 878,419.3828 C878,419.3828 896,419.3828 896,409.3828 " fill="none" style="stroke:#000000;stroke-width:1.5;"/><rect fill="#FFFFFF" filter="url(#f1asy9ar3ycqgk)" height="274.1641" style="stroke:#A80036;stroke-width:1.0;" width="10" x="21" y="99.6094"/><rect fill="#FFFFFF" filter="url(#f1asy9ar3ycqgk)" height="30.3516" style="stroke:#A80036;stroke-width:1.0;" width="10" x="398" y="121.9609"/><rect fill="#FFFFFF" filter="url(#f1asy9ar3ycqgk)" height="182.1094" style="stroke:#A80036;stroke-width:1.0;" width="10" x="398" y="182.6641"/><rect fill="#FFFFFF" filter="url(#f1asy9ar3ycqgk)" height="121.4063" style="stroke:#A80036;stroke-width:1.0;" width="10" x="582" y="213.0156"/><rect fill="#FFFFFF" filter="url(#f1asy9ar3ycqgk)" height="30.3516" style="stroke:#A80036;stroke-width:1.0;" width="10" x="705" y="243.3672"/><rect fill="#FFFFFF" filter="url(#f1asy9ar3ycqgk)" height="30.3516" style="stroke:#A80036;stroke-width:1.0;" width="10" x="873" y="273.7188"/><polygon fill="#A80036" points="386,117.9609,396,121.9609,386,125.9609,390,121.9609" style="stroke:#A80036;stroke-width:1.0;"/><line style="stroke:#A80036;stroke-width:1.0;" x1="31" x2="392" y1="121.9609" y2="121.9609"/><text fill="#000000" font-family="sans-serif" font-size="13" font-weight="bold" lengthAdjust="spacing" textLength="7" x="38" y="117.1045">1</text><text fill="#000000" font-family="sans-serif" font-size="13" lengthAdjust="spacing" textLength="337" x="49" y="117.1045">Asks to search the current situation of a specific container</text><polygon fill="#A80036" points="42,148.3125,32,152.3125,42,156.3125,38,152.3125" style="stroke:#A80036;stroke-width:1.0;"/><line style="stroke:#A80036;stroke-width:1.0;stroke-dasharray:2.0,2.0;" x1="36" x2="402" y1="152.3125" y2="152.3125"/><text fill="#000000" font-family="sans-serif" font-size="13" font-weight="bold" lengthAdjust="spacing" textLength="7" x="48" y="147.4561">2</text><text fill="#000000" font-family="sans-serif" font-size="13" lengthAdjust="spacing" textLength="157" x="59" y="147.4561">Request container identifier</text><polygon fill="#A80036" points="386,178.6641,396,182.6641,386,186.6641,390,182.6641" style="stroke:#A80036;stroke-width:1.0;"/><line style="stroke:#A80036;stroke-width:1.0;" x1="31" x2="392" y1="182.6641" y2="182.6641"/><text fill="#000000" font-family="sans-serif" font-size="13" font-weight="bold" lengthAdjust="spacing" textLength="7" x="38" y="177.8076">3</text><text fill="#000000" font-family="sans-serif" font-size="13" lengthAdjust="spacing" textLength="141" x="49" y="177.8076">Insert container identifier</text><polygon fill="#A80036" points="570,209.0156,580,213.0156,570,217.0156,574,213.0156" style="stroke:#A80036;stroke-width:1.0;"/><line style="stroke:#A80036;stroke-width:1.0;" x1="408" x2="576" y1="213.0156" y2="213.0156"/><text fill="#000000" font-family="sans-serif" font-size="13" font-weight="bold" lengthAdjust="spacing" textLength="7" x="415" y="208.1592">4</text><text fill="#000000" font-family="sans-serif" font-size="13" lengthAdjust="spacing" textLength="83" x="426" y="208.1592">findContainer()</text><polygon fill="#A80036" points="693,239.3672,703,243.3672,693,247.3672,697,243.3672" style="stroke:#A80036;stroke-width:1.0;"/><line style="stroke:#A80036;stroke-width:1.0;" x1="592" x2="699" y1="243.3672" y2="243.3672"/><text fill="#000000" font-family="sans-serif" font-size="13" font-weight="bold" lengthAdjust="spacing" textLength="7" x="599" y="238.5107">5</text><text fill="#000000" font-family="sans-serif" font-size="13" lengthAdjust="spacing" textLength="83" x="610" y="238.5107">findContainer()</text><polygon fill="#A80036" points="861,269.7188,871,273.7188,861,277.7188,865,273.7188" style="stroke:#A80036;stroke-width:1.0;"/><line style="stroke:#A80036;stroke-width:1.0;" x1="710" x2="867" y1="273.7188" y2="273.7188"/><text fill="#000000" font-family="sans-serif" font-size="13" font-weight="bold" lengthAdjust="spacing" textLength="7" x="717" y="268.8623">6</text><text fill="#000000" font-family="sans-serif" font-size="13" lengthAdjust="spacing" textLength="128" x="728" y="268.8623">query to find container</text><polygon fill="#A80036" points="603,300.0703,593,304.0703,603,308.0703,599,304.0703" style="stroke:#A80036;stroke-width:1.0;"/><line style="stroke:#A80036;stroke-width:1.0;stroke-dasharray:2.0,2.0;" x1="597" x2="877" y1="304.0703" y2="304.0703"/><text fill="#000000" font-family="sans-serif" font-size="13" font-weight="bold" lengthAdjust="spacing" textLength="7" x="609" y="299.2139">7</text><text fill="#000000" font-family="sans-serif" font-size="13" lengthAdjust="spacing" textLength="139" x="620" y="299.2139">return container location</text><polygon fill="#A80036" points="419,330.4219,409,334.4219,419,338.4219,415,334.4219" style="stroke:#A80036;stroke-width:1.0;"/><line style="stroke:#A80036;stroke-width:1.0;stroke-dasharray:2.0,2.0;" x1="413" x2="586" y1="334.4219" y2="334.4219"/><text fill="#000000" font-family="sans-serif" font-size="13" font-weight="bold" lengthAdjust="spacing" textLength="7" x="425" y="329.5654">8</text><text fill="#000000" font-family="sans-serif" font-size="13" lengthAdjust="spacing" textLength="139" x="436" y="329.5654">return container location</text><polygon fill="#A80036" points="42,360.7734,32,364.7734,42,368.7734,38,364.7734" style="stroke:#A80036;stroke-width:1.0;"/><line style="stroke:#A80036;stroke-width:1.0;stroke-dasharray:2.0,2.0;" x1="36" x2="402" y1="364.7734" y2="364.7734"/><text fill="#000000" font-family="sans-serif" font-size="13" font-weight="bold" lengthAdjust="spacing" textLength="7" x="48" y="359.917">9</text><text fill="#000000" font-family="sans-serif" font-size="13" lengthAdjust="spacing" textLength="136" x="59" y="359.917">show container location</text><!--MD5=[abad6531885e3249b77aea2f01973ea0]
@startuml
autonumber
actor "Client" as ADM

participant ":UI" as ui
participant ":Controller" as ctrl
participant ":findContainer()" as model
database ":DataBase" as db


activate ADM
ADM -> ui : Asks to search the current situation of a specific container

activate ui
ui - -> ADM : Request container identifier
deactivate ui
ADM -> ui : Insert container identifier
activate ui

ui -> ctrl : findContainer()
activate ctrl
ctrl -> model : findContainer()
activate model
model -> db : query to find container
deactivate model
activate db
db - -> ctrl : return container location
deactivate db
ctrl - -> ui : return container location
deactivate ctrl
ui - -> ADM : show container location

deactivate ui

@enduml

PlantUML version 1.2021.11(Sat Oct 02 14:26:11 BST 2021)
(GPL source distribution)
Java Runtime: OpenJDK Runtime Environment
JVM: OpenJDK 64-Bit Server VM
Default Encoding: Cp1252
Language: pt
Country: PT
--></g></svg>