<?xml version="1.0" encoding="UTF-8" standalone="no"?><svg xmlns="http://www.w3.org/2000/svg" xmlns:xlink="http://www.w3.org/1999/xlink" contentScriptType="application/ecmascript" contentStyleType="text/css" height="434px" preserveAspectRatio="none" style="width:268px;height:434px;background:#FFFFFF;" version="1.1" viewBox="0 0 268 434" width="268px" zoomAndPan="magnify"><defs><filter height="300%" id="f2e0wqslmj253" width="300%" x="-1" y="-1"><feGaussianBlur result="blurOut" stdDeviation="2.0"/><feColorMatrix in="blurOut" result="blurOut2" type="matrix" values="0 0 0 0 0 0 0 0 0 0 0 0 0 0 0 0 0 0 .4 0"/><feOffset dx="4.0" dy="4.0" in="blurOut2" result="blurOut3"/><feBlend in="SourceGraphic" in2="blurOut3" mode="normal"/></filter></defs><g><!--MD5=[3290a66fbe226781d8993540d697648d]
class OccupancyRateUI--><rect codeLine="1" fill="#FEFECE" filter="url(#f2e0wqslmj253)" height="48" id="OccupancyRateUI" style="stroke:#A80036;stroke-width:1.5;" width="130" x="83.5" y="7"/><ellipse cx="98.5" cy="23" fill="#ADD1B2" rx="11" ry="11" style="stroke:#A80036;stroke-width:1.0;"/><path d="M100.5,19.5 Q100.7031,19 100.9375,18.75 Q101.1719,18.5 101.4375,18.5 Q101.9063,18.5 102.2031,18.7813 Q102.5,19.0625 102.5,19.7188 L102.5,21.2813 Q102.5,21.9375 102.2188,22.2188 Q101.9375,22.5 101.5,22.5 Q101.1094,22.5 100.8594,22.3281 Q100.6094,22.1563 100.5,21.7031 Q100.4531,21.3906 100.2813,21.2188 Q99.9688,20.8906 99.4063,20.7031 Q98.8438,20.5 98.2813,20.5 Q97.5781,20.5 96.9844,20.7813 Q96.4063,21.0625 95.9531,21.6875 Q95.5,22.3125 95.5,23.1719 L95.5,24.0938 Q95.5,25.125 96.3438,25.8125 Q97.1875,26.5 98.6875,26.5 Q99.5781,26.5 100.2031,26.2969 Q100.5625,26.1875 100.9688,25.8281 Q101.2344,25.625 101.375,25.5625 Q101.5156,25.5 101.6875,25.5 Q102.0156,25.5 102.25,25.7656 Q102.5,26.0156 102.5,26.375 Q102.5,26.7188 102.1563,27.125 Q101.6563,27.7188 100.8594,28.0469 Q99.8125,28.5 98.5313,28.5 Q97.0313,28.5 95.8281,27.9063 Q94.8594,27.4375 94.1719,26.4219 Q93.5,25.4063 93.5,24.2031 L93.5,23.1094 Q93.5,21.8594 94.0938,20.7656 Q94.7031,19.6719 95.75,19.0938 Q96.8125,18.5 98,18.5 Q98.7188,18.5 99.3438,18.75 Q99.9688,19 100.5,19.5 Z " fill="#000000"/><text fill="#000000" font-family="sans-serif" font-size="12" lengthAdjust="spacing" textLength="98" x="112.5" y="27.9102">OccupancyRateUI</text><line style="stroke:#A80036;stroke-width:1.5;" x1="84.5" x2="212.5" y1="39" y2="39"/><line style="stroke:#A80036;stroke-width:1.5;" x1="84.5" x2="212.5" y1="47" y2="47"/><!--MD5=[9031d846d186f456c35bb211c48c30c0]
class OccupancyRateController--><rect codeLine="4" fill="#FEFECE" filter="url(#f2e0wqslmj253)" height="61.8359" id="OccupancyRateController" style="stroke:#A80036;stroke-width:1.5;" width="190" x="53.5" y="115"/><ellipse cx="76.6" cy="131" fill="#ADD1B2" rx="11" ry="11" style="stroke:#A80036;stroke-width:1.0;"/><path d="M78.6,127.5 Q78.8031,127 79.0375,126.75 Q79.2719,126.5 79.5375,126.5 Q80.0063,126.5 80.3031,126.7813 Q80.6,127.0625 80.6,127.7188 L80.6,129.2813 Q80.6,129.9375 80.3188,130.2188 Q80.0375,130.5 79.6,130.5 Q79.2094,130.5 78.9594,130.3281 Q78.7094,130.1563 78.6,129.7031 Q78.5531,129.3906 78.3813,129.2188 Q78.0688,128.8906 77.5063,128.7031 Q76.9438,128.5 76.3813,128.5 Q75.6781,128.5 75.0844,128.7813 Q74.5063,129.0625 74.0531,129.6875 Q73.6,130.3125 73.6,131.1719 L73.6,132.0938 Q73.6,133.125 74.4438,133.8125 Q75.2875,134.5 76.7875,134.5 Q77.6781,134.5 78.3031,134.2969 Q78.6625,134.1875 79.0688,133.8281 Q79.3344,133.625 79.475,133.5625 Q79.6156,133.5 79.7875,133.5 Q80.1156,133.5 80.35,133.7656 Q80.6,134.0156 80.6,134.375 Q80.6,134.7188 80.2563,135.125 Q79.7563,135.7188 78.9594,136.0469 Q77.9125,136.5 76.6313,136.5 Q75.1313,136.5 73.9281,135.9063 Q72.9594,135.4375 72.2719,134.4219 Q71.6,133.4063 71.6,132.2031 L71.6,131.1094 Q71.6,129.8594 72.1938,128.7656 Q72.8031,127.6719 73.85,127.0938 Q74.9125,126.5 76.1,126.5 Q76.8188,126.5 77.4438,126.75 Q78.0688,127 78.6,127.5 Z " fill="#000000"/><text fill="#000000" font-family="sans-serif" font-size="12" lengthAdjust="spacing" textLength="140" x="92.4" y="135.9102">OccupancyRateController</text><line style="stroke:#A80036;stroke-width:1.5;" x1="54.5" x2="242.5" y1="147" y2="147"/><line style="stroke:#A80036;stroke-width:1.5;" x1="54.5" x2="242.5" y1="155" y2="155"/><ellipse cx="64.5" cy="166" fill="#84BE84" rx="3" ry="3" style="stroke:#038048;stroke-width:1.0;"/><text fill="#000000" font-family="sans-serif" font-size="11" lengthAdjust="spacing" textLength="164" x="73.5" y="170.4189">getOccupancy(mmsi, id_manifest)</text><!--MD5=[02e4b9b7573f1156f41e60aa5b4e25a4]
class Company--><rect codeLine="8" fill="#FEFECE" filter="url(#f2e0wqslmj253)" height="61.8359" id="Company" style="stroke:#A80036;stroke-width:1.5;" width="153" x="7" y="237"/><ellipse cx="52.75" cy="253" fill="#ADD1B2" rx="11" ry="11" style="stroke:#A80036;stroke-width:1.0;"/><path d="M54.75,249.5 Q54.9531,249 55.1875,248.75 Q55.4219,248.5 55.6875,248.5 Q56.1563,248.5 56.4531,248.7813 Q56.75,249.0625 56.75,249.7188 L56.75,251.2813 Q56.75,251.9375 56.4688,252.2188 Q56.1875,252.5 55.75,252.5 Q55.3594,252.5 55.1094,252.3281 Q54.8594,252.1563 54.75,251.7031 Q54.7031,251.3906 54.5313,251.2188 Q54.2188,250.8906 53.6563,250.7031 Q53.0938,250.5 52.5313,250.5 Q51.8281,250.5 51.2344,250.7813 Q50.6563,251.0625 50.2031,251.6875 Q49.75,252.3125 49.75,253.1719 L49.75,254.0938 Q49.75,255.125 50.5938,255.8125 Q51.4375,256.5 52.9375,256.5 Q53.8281,256.5 54.4531,256.2969 Q54.8125,256.1875 55.2188,255.8281 Q55.4844,255.625 55.625,255.5625 Q55.7656,255.5 55.9375,255.5 Q56.2656,255.5 56.5,255.7656 Q56.75,256.0156 56.75,256.375 Q56.75,256.7188 56.4063,257.125 Q55.9063,257.7188 55.1094,258.0469 Q54.0625,258.5 52.7813,258.5 Q51.2813,258.5 50.0781,257.9063 Q49.1094,257.4375 48.4219,256.4219 Q47.75,255.4063 47.75,254.2031 L47.75,253.1094 Q47.75,251.8594 48.3438,250.7656 Q48.9531,249.6719 50,249.0938 Q51.0625,248.5 52.25,248.5 Q52.9688,248.5 53.5938,248.75 Q54.2188,249 54.75,249.5 Z " fill="#000000"/><text fill="#000000" font-family="sans-serif" font-size="12" lengthAdjust="spacing" textLength="53" x="73.25" y="257.9102">Company</text><line style="stroke:#A80036;stroke-width:1.5;" x1="8" x2="159" y1="269" y2="269"/><line style="stroke:#A80036;stroke-width:1.5;" x1="8" x2="159" y1="277" y2="277"/><ellipse cx="18" cy="288" fill="#84BE84" rx="3" ry="3" style="stroke:#038048;stroke-width:1.0;"/><text fill="#000000" font-family="sans-serif" font-size="11" lengthAdjust="spacing" textLength="127" x="27" y="292.4189">getOccupancyRateStore()</text><!--MD5=[7e857f1fc8405913d7d6d9b07d2a2fd4]
class OccupancyRateStore--><rect codeLine="12" fill="#FEFECE" filter="url(#f2e0wqslmj253)" height="61.8359" id="OccupancyRateStore" style="stroke:#A80036;stroke-width:1.5;" width="212" x="42.5" y="359"/><ellipse cx="86.75" cy="375" fill="#ADD1B2" rx="11" ry="11" style="stroke:#A80036;stroke-width:1.0;"/><path d="M88.75,371.5 Q88.9531,371 89.1875,370.75 Q89.4219,370.5 89.6875,370.5 Q90.1563,370.5 90.4531,370.7813 Q90.75,371.0625 90.75,371.7188 L90.75,373.2813 Q90.75,373.9375 90.4688,374.2188 Q90.1875,374.5 89.75,374.5 Q89.3594,374.5 89.1094,374.3281 Q88.8594,374.1563 88.75,373.7031 Q88.7031,373.3906 88.5313,373.2188 Q88.2188,372.8906 87.6563,372.7031 Q87.0938,372.5 86.5313,372.5 Q85.8281,372.5 85.2344,372.7813 Q84.6563,373.0625 84.2031,373.6875 Q83.75,374.3125 83.75,375.1719 L83.75,376.0938 Q83.75,377.125 84.5938,377.8125 Q85.4375,378.5 86.9375,378.5 Q87.8281,378.5 88.4531,378.2969 Q88.8125,378.1875 89.2188,377.8281 Q89.4844,377.625 89.625,377.5625 Q89.7656,377.5 89.9375,377.5 Q90.2656,377.5 90.5,377.7656 Q90.75,378.0156 90.75,378.375 Q90.75,378.7188 90.4063,379.125 Q89.9063,379.7188 89.1094,380.0469 Q88.0625,380.5 86.7813,380.5 Q85.2813,380.5 84.0781,379.9063 Q83.1094,379.4375 82.4219,378.4219 Q81.75,377.4063 81.75,376.2031 L81.75,375.1094 Q81.75,373.8594 82.3438,372.7656 Q82.9531,371.6719 84,371.0938 Q85.0625,370.5 86.25,370.5 Q86.9688,370.5 87.5938,370.75 Q88.2188,371 88.75,371.5 Z " fill="#000000"/><text fill="#000000" font-family="sans-serif" font-size="12" lengthAdjust="spacing" textLength="115" x="107.25" y="379.9102">OccupancyRateStore</text><line style="stroke:#A80036;stroke-width:1.5;" x1="43.5" x2="253.5" y1="391" y2="391"/><line style="stroke:#A80036;stroke-width:1.5;" x1="43.5" x2="253.5" y1="399" y2="399"/><ellipse cx="53.5" cy="410" fill="#84BE84" rx="3" ry="3" style="stroke:#038048;stroke-width:1.0;"/><text fill="#000000" font-family="sans-serif" font-size="11" lengthAdjust="spacing" textLength="186" x="62.5" y="414.4189">getOccupancyRate(mmsi, id_manifest)</text><!--MD5=[6146df68144618e66810121db03f5a39]
link OccupancyRateUI to OccupancyRateController--><path codeLine="16" d="M148.5,55.14 C148.5,70.71 148.5,91.53 148.5,109.22 " fill="none" id="OccupancyRateUI-to-OccupancyRateController" style="stroke:#A80036;stroke-width:1.0;stroke-dasharray:7.0,7.0;"/><polygon fill="#A80036" points="148.5,114.6,152.5,105.6,148.5,109.6,144.5,105.6,148.5,114.6" style="stroke:#A80036;stroke-width:1.0;"/><!--MD5=[747f2d5fb3e2cfbbc9721fbe6b8b1b88]
link OccupancyRateController to Company--><path codeLine="17" d="M132.1,177.28 C123.09,193.91 111.88,214.61 102.49,231.94 " fill="none" id="OccupancyRateController-to-Company" style="stroke:#A80036;stroke-width:1.0;stroke-dasharray:7.0,7.0;"/><polygon fill="#A80036" points="99.9,236.73,107.7062,230.7248,102.2833,232.3345,100.6735,226.9116,99.9,236.73" style="stroke:#A80036;stroke-width:1.0;"/><!--MD5=[36b69d3f925b42622dd26e3c2dc53f9e]
link Company to OccupancyRateStore--><path codeLine="18" d="M99.9,299.28 C108.91,315.91 120.12,336.61 129.51,353.94 " fill="none" id="Company-to-OccupancyRateStore" style="stroke:#A80036;stroke-width:1.0;"/><polygon fill="#A80036" points="132.1,358.73,131.3265,348.9116,129.7167,354.3345,124.2938,352.7248,132.1,358.73" style="stroke:#A80036;stroke-width:1.0;"/><!--MD5=[a56c3b2137599402f70f2475641b76fc]
link OccupancyRateController to OccupancyRateStore--><path codeLine="19" d="M160.86,177.25 C167.21,194.44 174.29,216.57 177.5,237 C181.78,264.22 181.78,271.78 177.5,299 C174.59,317.52 168.51,337.42 162.66,353.79 " fill="none" id="OccupancyRateController-to-OccupancyRateStore" style="stroke:#A80036;stroke-width:1.0;stroke-dasharray:7.0,7.0;"/><polygon fill="#A80036" points="160.86,358.75,167.6827,351.6472,162.5607,354.0481,160.1597,348.9261,160.86,358.75" style="stroke:#A80036;stroke-width:1.0;"/><!--MD5=[98c80dc55f6d2714a4ab957e4c7c5a16]
@startuml
class OccupancyRateUI{
}

class OccupancyRateController{
    +getOccupancy(mmsi, id_manifest)
}

class Company{
    +getOccupancyRateStore()
}

class OccupancyRateStore{
    +getOccupancyRate(mmsi, id_manifest)
}

OccupancyRateUI ..> OccupancyRateController
OccupancyRateController ..> Company
Company - -> OccupancyRateStore
OccupancyRateController ..> OccupancyRateStore

@endum

PlantUML version 1.2021.11(Sat Oct 02 14:26:11 BST 2021)
(GPL source distribution)
Java Runtime: OpenJDK Runtime Environment
JVM: OpenJDK 64-Bit Server VM
Default Encoding: Cp1252
Language: pt
Country: PT
--></g></svg>