<?xml version="1.0" encoding="UTF-8" standalone="no"?><svg xmlns="http://www.w3.org/2000/svg" xmlns:xlink="http://www.w3.org/1999/xlink" contentScriptType="application/ecmascript" contentStyleType="text/css" height="316px" preserveAspectRatio="none" style="width:629px;height:316px;background:#FFFFFF;" version="1.1" viewBox="0 0 629 316" width="629px" zoomAndPan="magnify"><defs><filter height="300%" id="f16mh21f36bp2h" width="300%" x="-1" y="-1"><feGaussianBlur result="blurOut" stdDeviation="2.0"/><feColorMatrix in="blurOut" result="blurOut2" type="matrix" values="0 0 0 0 0 0 0 0 0 0 0 0 0 0 0 0 0 0 .4 0"/><feOffset dx="4.0" dy="4.0" in="blurOut2" result="blurOut3"/><feBlend in="SourceGraphic" in2="blurOut3" mode="normal"/></filter></defs><g><rect fill="#FFFFFF" filter="url(#f16mh21f36bp2h)" height="122.4063" style="stroke:#A80036;stroke-width:1.0;" width="10" x="43.5" y="99.6094"/><rect fill="#FFFFFF" filter="url(#f16mh21f36bp2h)" height="91.0547" style="stroke:#A80036;stroke-width:1.0;" width="10" x="239.5" y="121.9609"/><rect fill="#FFFFFF" filter="url(#f16mh21f36bp2h)" height="30.3516" style="stroke:#A80036;stroke-width:1.0;" width="10" x="557.5" y="152.3125"/><line style="stroke:#A80036;stroke-width:1.0;stroke-dasharray:5.0,5.0;" x1="48" x2="48" y1="89.6094" y2="231.0156"/><line style="stroke:#A80036;stroke-width:1.0;stroke-dasharray:5.0,5.0;" x1="244.5" x2="244.5" y1="89.6094" y2="231.0156"/><line style="stroke:#A80036;stroke-width:1.0;stroke-dasharray:5.0,5.0;" x1="562" x2="562" y1="89.6094" y2="231.0156"/><text fill="#000000" font-family="sans-serif" font-size="14" lengthAdjust="spacing" textLength="81" x="5" y="86.5332">Ship Captain</text><ellipse cx="48.5" cy="15" fill="#FEFECE" filter="url(#f16mh21f36bp2h)" rx="8" ry="8" style="stroke:#A80036;stroke-width:2.0;"/><path d="M48.5,23 L48.5,50 M35.5,31 L61.5,31 M48.5,50 L35.5,65 M48.5,50 L61.5,65 " fill="none" filter="url(#f16mh21f36bp2h)" style="stroke:#A80036;stroke-width:2.0;"/><text fill="#000000" font-family="sans-serif" font-size="14" lengthAdjust="spacing" textLength="81" x="5" y="244.5488">Ship Captain</text><ellipse cx="48.5" cy="257.625" fill="#FEFECE" filter="url(#f16mh21f36bp2h)" rx="8" ry="8" style="stroke:#A80036;stroke-width:2.0;"/><path d="M48.5,265.625 L48.5,292.625 M35.5,273.625 L61.5,273.625 M48.5,292.625 L35.5,307.625 M48.5,292.625 L61.5,307.625 " fill="none" filter="url(#f16mh21f36bp2h)" style="stroke:#A80036;stroke-width:2.0;"/><rect fill="#FEFECE" filter="url(#f16mh21f36bp2h)" height="31.6094" style="stroke:#A80036;stroke-width:1.5;" width="30" x="227.5" y="53"/><text fill="#000000" font-family="sans-serif" font-size="14" lengthAdjust="spacing" textLength="16" x="234.5" y="74.5332">:UI</text><rect fill="#FEFECE" filter="url(#f16mh21f36bp2h)" height="31.6094" style="stroke:#A80036;stroke-width:1.5;" width="30" x="227.5" y="230.0156"/><text fill="#000000" font-family="sans-serif" font-size="14" lengthAdjust="spacing" textLength="16" x="234.5" y="251.5488">:UI</text><rect fill="#FEFECE" filter="url(#f16mh21f36bp2h)" height="31.6094" style="stroke:#A80036;stroke-width:1.5;" width="109" x="506" y="53"/><text fill="#000000" font-family="sans-serif" font-size="14" lengthAdjust="spacing" textLength="95" x="513" y="74.5332">:CenterOfMass</text><rect fill="#FEFECE" filter="url(#f16mh21f36bp2h)" height="31.6094" style="stroke:#A80036;stroke-width:1.5;" width="109" x="506" y="230.0156"/><text fill="#000000" font-family="sans-serif" font-size="14" lengthAdjust="spacing" textLength="95" x="513" y="251.5488">:CenterOfMass</text><rect fill="#FFFFFF" filter="url(#f16mh21f36bp2h)" height="122.4063" style="stroke:#A80036;stroke-width:1.0;" width="10" x="43.5" y="99.6094"/><rect fill="#FFFFFF" filter="url(#f16mh21f36bp2h)" height="91.0547" style="stroke:#A80036;stroke-width:1.0;" width="10" x="239.5" y="121.9609"/><rect fill="#FFFFFF" filter="url(#f16mh21f36bp2h)" height="30.3516" style="stroke:#A80036;stroke-width:1.0;" width="10" x="557.5" y="152.3125"/><polygon fill="#A80036" points="227.5,117.9609,237.5,121.9609,227.5,125.9609,231.5,121.9609" style="stroke:#A80036;stroke-width:1.0;"/><line style="stroke:#A80036;stroke-width:1.0;" x1="53.5" x2="233.5" y1="121.9609" y2="121.9609"/><text fill="#000000" font-family="sans-serif" font-size="13" font-weight="bold" lengthAdjust="spacing" textLength="7" x="60.5" y="117.1045">1</text><text fill="#000000" font-family="sans-serif" font-size="13" lengthAdjust="spacing" textLength="0" x="75.5" y="117.1045"/><polygon fill="#A80036" points="545.5,148.3125,555.5,152.3125,545.5,156.3125,549.5,152.3125" style="stroke:#A80036;stroke-width:1.0;"/><line style="stroke:#A80036;stroke-width:1.0;" x1="249.5" x2="551.5" y1="152.3125" y2="152.3125"/><text fill="#000000" font-family="sans-serif" font-size="13" font-weight="bold" lengthAdjust="spacing" textLength="7" x="256.5" y="147.4561">2</text><text fill="#000000" font-family="sans-serif" font-size="13" lengthAdjust="spacing" textLength="80" x="267.5" y="147.4561">calculateCM()</text><polygon fill="#A80036" points="260.5,178.6641,250.5,182.6641,260.5,186.6641,256.5,182.6641" style="stroke:#A80036;stroke-width:1.0;"/><line style="stroke:#A80036;stroke-width:1.0;stroke-dasharray:2.0,2.0;" x1="254.5" x2="561.5" y1="182.6641" y2="182.6641"/><text fill="#000000" font-family="sans-serif" font-size="13" font-weight="bold" lengthAdjust="spacing" textLength="7" x="266.5" y="177.8076">3</text><text fill="#000000" font-family="sans-serif" font-size="13" lengthAdjust="spacing" textLength="273" x="277.5" y="177.8076">Receive the value x and y of the center of mass</text><polygon fill="#A80036" points="64.5,209.0156,54.5,213.0156,64.5,217.0156,60.5,213.0156" style="stroke:#A80036;stroke-width:1.0;"/><line style="stroke:#A80036;stroke-width:1.0;stroke-dasharray:2.0,2.0;" x1="58.5" x2="243.5" y1="213.0156" y2="213.0156"/><text fill="#000000" font-family="sans-serif" font-size="13" font-weight="bold" lengthAdjust="spacing" textLength="7" x="70.5" y="208.1592">4</text><text fill="#000000" font-family="sans-serif" font-size="13" lengthAdjust="spacing" textLength="151" x="81.5" y="208.1592">Shows the center of mass</text><!--MD5=[3b3926dc20cf99c35b1de1d1eb29623d]
@startuml
autonumber
actor "Ship Captain" as ADM

participant ":UI" as UI

participant ":CenterOfMass" as COS

activate ADM
ADM -> UI:
activate UI
UI -> COS: calculateCM()
activate COS
COS - -> UI: Receive the value x and y of the center of mass
deactivate COS
UI - -> ADM: Shows the center of mass
deactivate UI

@enduml

PlantUML version 1.2021.11(Sat Oct 02 14:26:11 BST 2021)
(GPL source distribution)
Java Runtime: OpenJDK Runtime Environment
JVM: OpenJDK 64-Bit Server VM
Default Encoding: Cp1252
Language: pt
Country: PT
--></g></svg>