<?xml version="1.0" encoding="UTF-8" standalone="no"?><svg xmlns="http://www.w3.org/2000/svg" xmlns:xlink="http://www.w3.org/1999/xlink" contentScriptType="application/ecmascript" contentStyleType="text/css" height="190px" preserveAspectRatio="none" style="width:132px;height:190px;background:#FFFFFF;" version="1.1" viewBox="0 0 132 190" width="132px" zoomAndPan="magnify"><defs><filter height="300%" id="f16aty6w7fob4n" width="300%" x="-1" y="-1"><feGaussianBlur result="blurOut" stdDeviation="2.0"/><feColorMatrix in="blurOut" result="blurOut2" type="matrix" values="0 0 0 0 0 0 0 0 0 0 0 0 0 0 0 0 0 0 .4 0"/><feOffset dx="4.0" dy="4.0" in="blurOut2" result="blurOut3"/><feBlend in="SourceGraphic" in2="blurOut3" mode="normal"/></filter></defs><g><!--MD5=[df76e760f2062188d44f98c21a88999b]
class UI--><rect codeLine="1" fill="#FEFECE" filter="url(#f16aty6w7fob4n)" height="48" id="UI" style="stroke:#A80036;stroke-width:1.5;" width="44" x="40.5" y="7"/><ellipse cx="55.5" cy="23" fill="#ADD1B2" rx="11" ry="11" style="stroke:#A80036;stroke-width:1.0;"/><path d="M57.5,19.5 Q57.7031,19 57.9375,18.75 Q58.1719,18.5 58.4375,18.5 Q58.9063,18.5 59.2031,18.7813 Q59.5,19.0625 59.5,19.7188 L59.5,21.2813 Q59.5,21.9375 59.2188,22.2188 Q58.9375,22.5 58.5,22.5 Q58.1094,22.5 57.8594,22.3281 Q57.6094,22.1563 57.5,21.7031 Q57.4531,21.3906 57.2813,21.2188 Q56.9688,20.8906 56.4063,20.7031 Q55.8438,20.5 55.2813,20.5 Q54.5781,20.5 53.9844,20.7813 Q53.4063,21.0625 52.9531,21.6875 Q52.5,22.3125 52.5,23.1719 L52.5,24.0938 Q52.5,25.125 53.3438,25.8125 Q54.1875,26.5 55.6875,26.5 Q56.5781,26.5 57.2031,26.2969 Q57.5625,26.1875 57.9688,25.8281 Q58.2344,25.625 58.375,25.5625 Q58.5156,25.5 58.6875,25.5 Q59.0156,25.5 59.25,25.7656 Q59.5,26.0156 59.5,26.375 Q59.5,26.7188 59.1563,27.125 Q58.6563,27.7188 57.8594,28.0469 Q56.8125,28.5 55.5313,28.5 Q54.0313,28.5 52.8281,27.9063 Q51.8594,27.4375 51.1719,26.4219 Q50.5,25.4063 50.5,24.2031 L50.5,23.1094 Q50.5,21.8594 51.0938,20.7656 Q51.7031,19.6719 52.75,19.0938 Q53.8125,18.5 55,18.5 Q55.7188,18.5 56.3438,18.75 Q56.9688,19 57.5,19.5 Z " fill="#000000"/><text fill="#000000" font-family="sans-serif" font-size="12" lengthAdjust="spacing" textLength="12" x="69.5" y="27.9102">UI</text><line style="stroke:#A80036;stroke-width:1.5;" x1="41.5" x2="83.5" y1="39" y2="39"/><line style="stroke:#A80036;stroke-width:1.5;" x1="41.5" x2="83.5" y1="47" y2="47"/><!--MD5=[59b69178a3371929e4ed347205b12574]
class CenterOfMass--><rect codeLine="4" fill="#FEFECE" filter="url(#f16aty6w7fob4n)" height="61.8359" id="CenterOfMass" style="stroke:#A80036;stroke-width:1.5;" width="111" x="7" y="115"/><ellipse cx="22" cy="131" fill="#ADD1B2" rx="11" ry="11" style="stroke:#A80036;stroke-width:1.0;"/><path d="M24,127.5 Q24.2031,127 24.4375,126.75 Q24.6719,126.5 24.9375,126.5 Q25.4063,126.5 25.7031,126.7813 Q26,127.0625 26,127.7188 L26,129.2813 Q26,129.9375 25.7188,130.2188 Q25.4375,130.5 25,130.5 Q24.6094,130.5 24.3594,130.3281 Q24.1094,130.1563 24,129.7031 Q23.9531,129.3906 23.7813,129.2188 Q23.4688,128.8906 22.9063,128.7031 Q22.3438,128.5 21.7813,128.5 Q21.0781,128.5 20.4844,128.7813 Q19.9063,129.0625 19.4531,129.6875 Q19,130.3125 19,131.1719 L19,132.0938 Q19,133.125 19.8438,133.8125 Q20.6875,134.5 22.1875,134.5 Q23.0781,134.5 23.7031,134.2969 Q24.0625,134.1875 24.4688,133.8281 Q24.7344,133.625 24.875,133.5625 Q25.0156,133.5 25.1875,133.5 Q25.5156,133.5 25.75,133.7656 Q26,134.0156 26,134.375 Q26,134.7188 25.6563,135.125 Q25.1563,135.7188 24.3594,136.0469 Q23.3125,136.5 22.0313,136.5 Q20.5313,136.5 19.3281,135.9063 Q18.3594,135.4375 17.6719,134.4219 Q17,133.4063 17,132.2031 L17,131.1094 Q17,129.8594 17.5938,128.7656 Q18.2031,127.6719 19.25,127.0938 Q20.3125,126.5 21.5,126.5 Q22.2188,126.5 22.8438,126.75 Q23.4688,127 24,127.5 Z " fill="#000000"/><text fill="#000000" font-family="sans-serif" font-size="12" lengthAdjust="spacing" textLength="79" x="36" y="135.9102">CenterOfMass</text><line style="stroke:#A80036;stroke-width:1.5;" x1="8" x2="117" y1="147" y2="147"/><line style="stroke:#A80036;stroke-width:1.5;" x1="8" x2="117" y1="155" y2="155"/><ellipse cx="18" cy="166" fill="#84BE84" rx="3" ry="3" style="stroke:#038048;stroke-width:1.0;"/><text fill="#000000" font-family="sans-serif" font-size="11" lengthAdjust="spacing" textLength="66" x="27" y="170.4189">calculateCM()</text><!--MD5=[3c963b5bdac25c7688f6de2c60392454]
link UI to CenterOfMass--><path codeLine="9" d="M62.5,55.14 C62.5,70.71 62.5,91.53 62.5,109.22 " fill="none" id="UI-to-CenterOfMass" style="stroke:#A80036;stroke-width:1.0;stroke-dasharray:7.0,7.0;"/><polygon fill="#A80036" points="62.5,114.6,66.5,105.6,62.5,109.6,58.5,105.6,62.5,114.6" style="stroke:#A80036;stroke-width:1.0;"/><!--MD5=[7f326209f456582fdafa342c207410e5]
@startuml
class UI{
}

class CenterOfMass{
+calculateCM()
}


UI ..> CenterOfMass


@enduml

PlantUML version 1.2021.11(Sat Oct 02 14:26:11 BST 2021)
(GPL source distribution)
Java Runtime: OpenJDK Runtime Environment
JVM: OpenJDK 64-Bit Server VM
Default Encoding: Cp1252
Language: pt
Country: PT
--></g></svg>