<?xml version="1.0" encoding="UTF-8" standalone="no"?><svg xmlns="http://www.w3.org/2000/svg" xmlns:xlink="http://www.w3.org/1999/xlink" contentScriptType="application/ecmascript" contentStyleType="text/css" height="152px" preserveAspectRatio="none" style="width:719px;height:152px;background:#FFFFFF;" version="1.1" viewBox="0 0 719 152" width="719px" zoomAndPan="magnify"><defs><filter height="300%" id="f19g1vs8r5w27c" width="300%" x="-1" y="-1"><feGaussianBlur result="blurOut" stdDeviation="2.0"/><feColorMatrix in="blurOut" result="blurOut2" type="matrix" values="0 0 0 0 0 0 0 0 0 0 0 0 0 0 0 0 0 0 .4 0"/><feOffset dx="4.0" dy="4.0" in="blurOut2" result="blurOut3"/><feBlend in="SourceGraphic" in2="blurOut3" mode="normal"/></filter></defs><g><!--MD5=[02e4b9b7573f1156f41e60aa5b4e25a4]
class Company--><rect codeLine="3" fill="#FEFECE" filter="url(#f19g1vs8r5w27c)" height="61.8359" id="Company" style="stroke:#A80036;stroke-width:1.5;" width="85" x="7" y="41.5"/><ellipse cx="22" cy="57.5" fill="#ADD1B2" rx="11" ry="11" style="stroke:#A80036;stroke-width:1.0;"/><path d="M24,54 Q24.2031,53.5 24.4375,53.25 Q24.6719,53 24.9375,53 Q25.4063,53 25.7031,53.2813 Q26,53.5625 26,54.2188 L26,55.7813 Q26,56.4375 25.7188,56.7188 Q25.4375,57 25,57 Q24.6094,57 24.3594,56.8281 Q24.1094,56.6563 24,56.2031 Q23.9531,55.8906 23.7813,55.7188 Q23.4688,55.3906 22.9063,55.2031 Q22.3438,55 21.7813,55 Q21.0781,55 20.4844,55.2813 Q19.9063,55.5625 19.4531,56.1875 Q19,56.8125 19,57.6719 L19,58.5938 Q19,59.625 19.8438,60.3125 Q20.6875,61 22.1875,61 Q23.0781,61 23.7031,60.7969 Q24.0625,60.6875 24.4688,60.3281 Q24.7344,60.125 24.875,60.0625 Q25.0156,60 25.1875,60 Q25.5156,60 25.75,60.2656 Q26,60.5156 26,60.875 Q26,61.2188 25.6563,61.625 Q25.1563,62.2188 24.3594,62.5469 Q23.3125,63 22.0313,63 Q20.5313,63 19.3281,62.4063 Q18.3594,61.9375 17.6719,60.9219 Q17,59.9063 17,58.7031 L17,57.6094 Q17,56.3594 17.5938,55.2656 Q18.2031,54.1719 19.25,53.5938 Q20.3125,53 21.5,53 Q22.2188,53 22.8438,53.25 Q23.4688,53.5 24,54 Z " fill="#000000"/><text fill="#000000" font-family="sans-serif" font-size="12" lengthAdjust="spacing" textLength="53" x="36" y="62.4102">Company</text><line style="stroke:#A80036;stroke-width:1.5;" x1="8" x2="91" y1="73.5" y2="73.5"/><rect fill="none" height="6" style="stroke:#C82930;stroke-width:1.0;" width="6" x="15" y="81.5"/><text fill="#000000" font-family="sans-serif" font-size="11" lengthAdjust="spacing" textLength="26" x="27" y="88.9189">name</text><line style="stroke:#A80036;stroke-width:1.5;" x1="8" x2="91" y1="95.3359" y2="95.3359"/><!--MD5=[bc7c05f31c243bd25c89b072cb7ec92c]
class Workers--><rect codeLine="7" fill="#FEFECE" filter="url(#f19g1vs8r5w27c)" height="131.0156" id="Workers" style="stroke:#A80036;stroke-width:1.5;" width="78" x="175" y="7"/><ellipse cx="190" cy="23" fill="#ADD1B2" rx="11" ry="11" style="stroke:#A80036;stroke-width:1.0;"/><path d="M192,19.5 Q192.2031,19 192.4375,18.75 Q192.6719,18.5 192.9375,18.5 Q193.4063,18.5 193.7031,18.7813 Q194,19.0625 194,19.7188 L194,21.2813 Q194,21.9375 193.7188,22.2188 Q193.4375,22.5 193,22.5 Q192.6094,22.5 192.3594,22.3281 Q192.1094,22.1563 192,21.7031 Q191.9531,21.3906 191.7813,21.2188 Q191.4688,20.8906 190.9063,20.7031 Q190.3438,20.5 189.7813,20.5 Q189.0781,20.5 188.4844,20.7813 Q187.9063,21.0625 187.4531,21.6875 Q187,22.3125 187,23.1719 L187,24.0938 Q187,25.125 187.8438,25.8125 Q188.6875,26.5 190.1875,26.5 Q191.0781,26.5 191.7031,26.2969 Q192.0625,26.1875 192.4688,25.8281 Q192.7344,25.625 192.875,25.5625 Q193.0156,25.5 193.1875,25.5 Q193.5156,25.5 193.75,25.7656 Q194,26.0156 194,26.375 Q194,26.7188 193.6563,27.125 Q193.1563,27.7188 192.3594,28.0469 Q191.3125,28.5 190.0313,28.5 Q188.5313,28.5 187.3281,27.9063 Q186.3594,27.4375 185.6719,26.4219 Q185,25.4063 185,24.2031 L185,23.1094 Q185,21.8594 185.5938,20.7656 Q186.2031,19.6719 187.25,19.0938 Q188.3125,18.5 189.5,18.5 Q190.2188,18.5 190.8438,18.75 Q191.4688,19 192,19.5 Z " fill="#000000"/><text fill="#000000" font-family="sans-serif" font-size="12" lengthAdjust="spacing" textLength="46" x="204" y="27.9102">Workers</text><line style="stroke:#A80036;stroke-width:1.5;" x1="176" x2="252" y1="39" y2="39"/><rect fill="none" height="6" style="stroke:#C82930;stroke-width:1.0;" width="6" x="183" y="47"/><text fill="#000000" font-family="sans-serif" font-size="11" lengthAdjust="spacing" textLength="26" x="195" y="54.4189">name</text><rect fill="none" height="6" style="stroke:#C82930;stroke-width:1.0;" width="6" x="183" y="60.8359"/><text fill="#000000" font-family="sans-serif" font-size="11" lengthAdjust="spacing" textLength="48" x="195" y="68.2549">birth_date</text><rect fill="none" height="6" style="stroke:#C82930;stroke-width:1.0;" width="6" x="183" y="74.6719"/><text fill="#000000" font-family="sans-serif" font-size="11" lengthAdjust="spacing" textLength="24" x="195" y="82.0908">email</text><rect fill="none" height="6" style="stroke:#C82930;stroke-width:1.0;" width="6" x="183" y="88.5078"/><text fill="#000000" font-family="sans-serif" font-size="11" lengthAdjust="spacing" textLength="34" x="195" y="95.9268">adress</text><rect fill="none" height="6" style="stroke:#C82930;stroke-width:1.0;" width="6" x="183" y="102.3438"/><text fill="#000000" font-family="sans-serif" font-size="11" lengthAdjust="spacing" textLength="30" x="195" y="109.7627">phone</text><rect fill="none" height="6" style="stroke:#C82930;stroke-width:1.0;" width="6" x="183" y="116.1797"/><text fill="#000000" font-family="sans-serif" font-size="11" lengthAdjust="spacing" textLength="30" x="195" y="123.5986">salary</text><line style="stroke:#A80036;stroke-width:1.5;" x1="176" x2="252" y1="130.0156" y2="130.0156"/><!--MD5=[9cc55bf2d84552ace8c47ccc388e3368]
class Ship_captain--><rect codeLine="16" fill="#FEFECE" filter="url(#f19g1vs8r5w27c)" height="48" id="Ship_captain" style="stroke:#A80036;stroke-width:1.5;" width="104" x="336" y="48.5"/><ellipse cx="351" cy="64.5" fill="#ADD1B2" rx="11" ry="11" style="stroke:#A80036;stroke-width:1.0;"/><path d="M353,61 Q353.2031,60.5 353.4375,60.25 Q353.6719,60 353.9375,60 Q354.4063,60 354.7031,60.2813 Q355,60.5625 355,61.2188 L355,62.7813 Q355,63.4375 354.7188,63.7188 Q354.4375,64 354,64 Q353.6094,64 353.3594,63.8281 Q353.1094,63.6563 353,63.2031 Q352.9531,62.8906 352.7813,62.7188 Q352.4688,62.3906 351.9063,62.2031 Q351.3438,62 350.7813,62 Q350.0781,62 349.4844,62.2813 Q348.9063,62.5625 348.4531,63.1875 Q348,63.8125 348,64.6719 L348,65.5938 Q348,66.625 348.8438,67.3125 Q349.6875,68 351.1875,68 Q352.0781,68 352.7031,67.7969 Q353.0625,67.6875 353.4688,67.3281 Q353.7344,67.125 353.875,67.0625 Q354.0156,67 354.1875,67 Q354.5156,67 354.75,67.2656 Q355,67.5156 355,67.875 Q355,68.2188 354.6563,68.625 Q354.1563,69.2188 353.3594,69.5469 Q352.3125,70 351.0313,70 Q349.5313,70 348.3281,69.4063 Q347.3594,68.9375 346.6719,67.9219 Q346,66.9063 346,65.7031 L346,64.6094 Q346,63.3594 346.5938,62.2656 Q347.2031,61.1719 348.25,60.5938 Q349.3125,60 350.5,60 Q351.2188,60 351.8438,60.25 Q352.4688,60.5 353,61 Z " fill="#000000"/><text fill="#000000" font-family="sans-serif" font-size="12" lengthAdjust="spacing" textLength="72" x="365" y="69.4102">Ship_captain</text><line style="stroke:#A80036;stroke-width:1.5;" x1="337" x2="439" y1="80.5" y2="80.5"/><line style="stroke:#A80036;stroke-width:1.5;" x1="337" x2="439" y1="88.5" y2="88.5"/><!--MD5=[d7dcb3f52ce869f71e8b546cb8901c83]
class Oversee_ship_operations--><rect codeLine="19" fill="#FEFECE" filter="url(#f19g1vs8r5w27c)" height="48" id="Oversee_ship_operations" style="stroke:#A80036;stroke-width:1.5;" width="175" x="530" y="48.5"/><ellipse cx="545" cy="64.5" fill="#ADD1B2" rx="11" ry="11" style="stroke:#A80036;stroke-width:1.0;"/><path d="M547,61 Q547.2031,60.5 547.4375,60.25 Q547.6719,60 547.9375,60 Q548.4063,60 548.7031,60.2813 Q549,60.5625 549,61.2188 L549,62.7813 Q549,63.4375 548.7188,63.7188 Q548.4375,64 548,64 Q547.6094,64 547.3594,63.8281 Q547.1094,63.6563 547,63.2031 Q546.9531,62.8906 546.7813,62.7188 Q546.4688,62.3906 545.9063,62.2031 Q545.3438,62 544.7813,62 Q544.0781,62 543.4844,62.2813 Q542.9063,62.5625 542.4531,63.1875 Q542,63.8125 542,64.6719 L542,65.5938 Q542,66.625 542.8438,67.3125 Q543.6875,68 545.1875,68 Q546.0781,68 546.7031,67.7969 Q547.0625,67.6875 547.4688,67.3281 Q547.7344,67.125 547.875,67.0625 Q548.0156,67 548.1875,67 Q548.5156,67 548.75,67.2656 Q549,67.5156 549,67.875 Q549,68.2188 548.6563,68.625 Q548.1563,69.2188 547.3594,69.5469 Q546.3125,70 545.0313,70 Q543.5313,70 542.3281,69.4063 Q541.3594,68.9375 540.6719,67.9219 Q540,66.9063 540,65.7031 L540,64.6094 Q540,63.3594 540.5938,62.2656 Q541.2031,61.1719 542.25,60.5938 Q543.3125,60 544.5,60 Q545.2188,60 545.8438,60.25 Q546.4688,60.5 547,61 Z " fill="#000000"/><text fill="#000000" font-family="sans-serif" font-size="12" lengthAdjust="spacing" textLength="143" x="559" y="69.4102">Oversee_ship_operations</text><line style="stroke:#A80036;stroke-width:1.5;" x1="531" x2="704" y1="80.5" y2="80.5"/><line style="stroke:#A80036;stroke-width:1.5;" x1="531" x2="704" y1="88.5" y2="88.5"/><!--MD5=[d7cc1c6600be90445dc2065f7e31c297]
link Company to Workers--><path codeLine="24" d="M92.35,72.5 C117.83,72.5 150.14,72.5 174.91,72.5 " fill="none" id="Company-Workers" style="stroke:#A80036;stroke-width:1.0;"/><text fill="#000000" font-family="sans-serif" font-size="13" lengthAdjust="spacing" textLength="21" x="123" y="68.9951">has</text><text fill="#000000" font-family="sans-serif" font-size="13" lengthAdjust="spacing" textLength="7" x="100.0267" y="87.3628">1</text><text fill="#000000" font-family="sans-serif" font-size="13" lengthAdjust="spacing" textLength="5" x="161.9819" y="87.5521">*</text><!--MD5=[f1fb7d27d197e7f645d99a496ffcd6c5]
link Workers to Ship_captain--><path codeLine="25" d="M253.17,72.5 C277.52,72.5 309.36,72.5 335.88,72.5 " fill="none" id="Workers-Ship_captain" style="stroke:#A80036;stroke-width:1.0;"/><text fill="#000000" font-family="sans-serif" font-size="13" lengthAdjust="spacing" textLength="21" x="284" y="68.9951">has</text><text fill="#000000" font-family="sans-serif" font-size="13" lengthAdjust="spacing" textLength="5" x="261.1133" y="87.5521">*</text><text fill="#000000" font-family="sans-serif" font-size="13" lengthAdjust="spacing" textLength="7" x="321.0584" y="87.1448">1</text><!--MD5=[6e647d3b120f46a76d0cb0cbc888b3cd]
link Ship_captain to Oversee_ship_operations--><path codeLine="26" d="M440.06,72.5 C466.52,72.5 499.56,72.5 529.88,72.5 " fill="none" id="Ship_captain-Oversee_ship_operations" style="stroke:#A80036;stroke-width:1.0;"/><text fill="#000000" font-family="sans-serif" font-size="13" lengthAdjust="spacing" textLength="28" x="471" y="68.9951">does</text><text fill="#000000" font-family="sans-serif" font-size="13" lengthAdjust="spacing" textLength="7" x="447.8731" y="87.1448">1</text><text fill="#000000" font-family="sans-serif" font-size="13" lengthAdjust="spacing" textLength="7" x="515.0494" y="86.6977">1</text><!--MD5=[c99c016d6d1ccf20d74a2e4f74ff7506]
@startuml
left to right direction

class Company{
    -name
}

class Workers {
    -name
    -birth_date
    -email
    -adress
    -phone
    -salary
}

class Ship_captain {
}

class Oversee_ship_operations{
}



Company "1" - -  "*" Workers : has
Workers "*" - -  "1" Ship_captain : has
Ship_captain "1" - -  "1" Oversee_ship_operations : does

@enduml

PlantUML version 1.2021.11(Sat Oct 02 14:26:11 BST 2021)
(GPL source distribution)
Java Runtime: OpenJDK Runtime Environment
JVM: OpenJDK 64-Bit Server VM
Default Encoding: Cp1252
Language: pt
Country: PT
--></g></svg>