<?xml version="1.0" encoding="UTF-8" standalone="no"?><svg xmlns="http://www.w3.org/2000/svg" xmlns:xlink="http://www.w3.org/1999/xlink" contentScriptType="application/ecmascript" contentStyleType="text/css" height="434px" preserveAspectRatio="none" style="width:212px;height:434px;background:#FFFFFF;" version="1.1" viewBox="0 0 212 434" width="212px" zoomAndPan="magnify"><defs><filter height="300%" id="f163rf028esz9p" width="300%" x="-1" y="-1"><feGaussianBlur result="blurOut" stdDeviation="2.0"/><feColorMatrix in="blurOut" result="blurOut2" type="matrix" values="0 0 0 0 0 0 0 0 0 0 0 0 0 0 0 0 0 0 .4 0"/><feOffset dx="4.0" dy="4.0" in="blurOut2" result="blurOut3"/><feBlend in="SourceGraphic" in2="blurOut3" mode="normal"/></filter></defs><g><!--MD5=[05583c72e3d8eebcf780455324191a36]
class RouteUI--><rect codeLine="1" fill="#FEFECE" filter="url(#f163rf028esz9p)" height="48" id="RouteUI" style="stroke:#A80036;stroke-width:1.5;" width="77" x="72" y="7"/><ellipse cx="87" cy="23" fill="#ADD1B2" rx="11" ry="11" style="stroke:#A80036;stroke-width:1.0;"/><path d="M89,19.5 Q89.2031,19 89.4375,18.75 Q89.6719,18.5 89.9375,18.5 Q90.4063,18.5 90.7031,18.7813 Q91,19.0625 91,19.7188 L91,21.2813 Q91,21.9375 90.7188,22.2188 Q90.4375,22.5 90,22.5 Q89.6094,22.5 89.3594,22.3281 Q89.1094,22.1563 89,21.7031 Q88.9531,21.3906 88.7813,21.2188 Q88.4688,20.8906 87.9063,20.7031 Q87.3438,20.5 86.7813,20.5 Q86.0781,20.5 85.4844,20.7813 Q84.9063,21.0625 84.4531,21.6875 Q84,22.3125 84,23.1719 L84,24.0938 Q84,25.125 84.8438,25.8125 Q85.6875,26.5 87.1875,26.5 Q88.0781,26.5 88.7031,26.2969 Q89.0625,26.1875 89.4688,25.8281 Q89.7344,25.625 89.875,25.5625 Q90.0156,25.5 90.1875,25.5 Q90.5156,25.5 90.75,25.7656 Q91,26.0156 91,26.375 Q91,26.7188 90.6563,27.125 Q90.1563,27.7188 89.3594,28.0469 Q88.3125,28.5 87.0313,28.5 Q85.5313,28.5 84.3281,27.9063 Q83.3594,27.4375 82.6719,26.4219 Q82,25.4063 82,24.2031 L82,23.1094 Q82,21.8594 82.5938,20.7656 Q83.2031,19.6719 84.25,19.0938 Q85.3125,18.5 86.5,18.5 Q87.2188,18.5 87.8438,18.75 Q88.4688,19 89,19.5 Z " fill="#000000"/><text fill="#000000" font-family="sans-serif" font-size="12" lengthAdjust="spacing" textLength="45" x="101" y="27.9102">RouteUI</text><line style="stroke:#A80036;stroke-width:1.5;" x1="73" x2="148" y1="39" y2="39"/><line style="stroke:#A80036;stroke-width:1.5;" x1="73" x2="148" y1="47" y2="47"/><!--MD5=[c5d028cfb923927428df76bde0173eb1]
class RouteController--><rect codeLine="4" fill="#FEFECE" filter="url(#f163rf028esz9p)" height="61.8359" id="RouteController" style="stroke:#A80036;stroke-width:1.5;" width="176" x="22.5" y="115"/><ellipse cx="63.15" cy="131" fill="#ADD1B2" rx="11" ry="11" style="stroke:#A80036;stroke-width:1.0;"/><path d="M65.15,127.5 Q65.3531,127 65.5875,126.75 Q65.8219,126.5 66.0875,126.5 Q66.5563,126.5 66.8531,126.7813 Q67.15,127.0625 67.15,127.7188 L67.15,129.2813 Q67.15,129.9375 66.8688,130.2188 Q66.5875,130.5 66.15,130.5 Q65.7594,130.5 65.5094,130.3281 Q65.2594,130.1563 65.15,129.7031 Q65.1031,129.3906 64.9313,129.2188 Q64.6188,128.8906 64.0563,128.7031 Q63.4938,128.5 62.9313,128.5 Q62.2281,128.5 61.6344,128.7813 Q61.0563,129.0625 60.6031,129.6875 Q60.15,130.3125 60.15,131.1719 L60.15,132.0938 Q60.15,133.125 60.9938,133.8125 Q61.8375,134.5 63.3375,134.5 Q64.2281,134.5 64.8531,134.2969 Q65.2125,134.1875 65.6188,133.8281 Q65.8844,133.625 66.025,133.5625 Q66.1656,133.5 66.3375,133.5 Q66.6656,133.5 66.9,133.7656 Q67.15,134.0156 67.15,134.375 Q67.15,134.7188 66.8063,135.125 Q66.3063,135.7188 65.5094,136.0469 Q64.4625,136.5 63.1813,136.5 Q61.6813,136.5 60.4781,135.9063 Q59.5094,135.4375 58.8219,134.4219 Q58.15,133.4063 58.15,132.2031 L58.15,131.1094 Q58.15,129.8594 58.7438,128.7656 Q59.3531,127.6719 60.4,127.0938 Q61.4625,126.5 62.65,126.5 Q63.3688,126.5 63.9938,126.75 Q64.6188,127 65.15,127.5 Z " fill="#000000"/><text fill="#000000" font-family="sans-serif" font-size="12" lengthAdjust="spacing" textLength="87" x="82.85" y="135.9102">RouteController</text><line style="stroke:#A80036;stroke-width:1.5;" x1="23.5" x2="197.5" y1="147" y2="147"/><line style="stroke:#A80036;stroke-width:1.5;" x1="23.5" x2="197.5" y1="155" y2="155"/><ellipse cx="33.5" cy="166" fill="#84BE84" rx="3" ry="3" style="stroke:#038048;stroke-width:1.0;"/><text fill="#000000" font-family="sans-serif" font-size="11" lengthAdjust="spacing" textLength="150" x="42.5" y="170.4189">getRoute(register,container_id)</text><!--MD5=[02e4b9b7573f1156f41e60aa5b4e25a4]
class Company--><rect codeLine="8" fill="#FEFECE" filter="url(#f163rf028esz9p)" height="61.8359" id="Company" style="stroke:#A80036;stroke-width:1.5;" width="103" x="7" y="237"/><ellipse cx="30.1" cy="253" fill="#ADD1B2" rx="11" ry="11" style="stroke:#A80036;stroke-width:1.0;"/><path d="M32.1,249.5 Q32.3031,249 32.5375,248.75 Q32.7719,248.5 33.0375,248.5 Q33.5063,248.5 33.8031,248.7813 Q34.1,249.0625 34.1,249.7188 L34.1,251.2813 Q34.1,251.9375 33.8188,252.2188 Q33.5375,252.5 33.1,252.5 Q32.7094,252.5 32.4594,252.3281 Q32.2094,252.1563 32.1,251.7031 Q32.0531,251.3906 31.8813,251.2188 Q31.5688,250.8906 31.0063,250.7031 Q30.4438,250.5 29.8813,250.5 Q29.1781,250.5 28.5844,250.7813 Q28.0063,251.0625 27.5531,251.6875 Q27.1,252.3125 27.1,253.1719 L27.1,254.0938 Q27.1,255.125 27.9438,255.8125 Q28.7875,256.5 30.2875,256.5 Q31.1781,256.5 31.8031,256.2969 Q32.1625,256.1875 32.5688,255.8281 Q32.8344,255.625 32.975,255.5625 Q33.1156,255.5 33.2875,255.5 Q33.6156,255.5 33.85,255.7656 Q34.1,256.0156 34.1,256.375 Q34.1,256.7188 33.7563,257.125 Q33.2563,257.7188 32.4594,258.0469 Q31.4125,258.5 30.1313,258.5 Q28.6313,258.5 27.4281,257.9063 Q26.4594,257.4375 25.7719,256.4219 Q25.1,255.4063 25.1,254.2031 L25.1,253.1094 Q25.1,251.8594 25.6938,250.7656 Q26.3031,249.6719 27.35,249.0938 Q28.4125,248.5 29.6,248.5 Q30.3188,248.5 30.9438,248.75 Q31.5688,249 32.1,249.5 Z " fill="#000000"/><text fill="#000000" font-family="sans-serif" font-size="12" lengthAdjust="spacing" textLength="53" x="45.9" y="257.9102">Company</text><line style="stroke:#A80036;stroke-width:1.5;" x1="8" x2="109" y1="269" y2="269"/><line style="stroke:#A80036;stroke-width:1.5;" x1="8" x2="109" y1="277" y2="277"/><ellipse cx="18" cy="288" fill="#84BE84" rx="3" ry="3" style="stroke:#038048;stroke-width:1.0;"/><text fill="#000000" font-family="sans-serif" font-size="11" lengthAdjust="spacing" textLength="77" x="27" y="292.4189">getRouteStore()</text><!--MD5=[c26d32633b83ccf7569905f5dfaffd4e]
class RouteStore--><rect codeLine="12" fill="#FEFECE" filter="url(#f163rf028esz9p)" height="61.8359" id="RouteStore" style="stroke:#A80036;stroke-width:1.5;" width="176" x="22.5" y="359"/><ellipse cx="75.25" cy="375" fill="#ADD1B2" rx="11" ry="11" style="stroke:#A80036;stroke-width:1.0;"/><path d="M77.25,371.5 Q77.4531,371 77.6875,370.75 Q77.9219,370.5 78.1875,370.5 Q78.6563,370.5 78.9531,370.7813 Q79.25,371.0625 79.25,371.7188 L79.25,373.2813 Q79.25,373.9375 78.9688,374.2188 Q78.6875,374.5 78.25,374.5 Q77.8594,374.5 77.6094,374.3281 Q77.3594,374.1563 77.25,373.7031 Q77.2031,373.3906 77.0313,373.2188 Q76.7188,372.8906 76.1563,372.7031 Q75.5938,372.5 75.0313,372.5 Q74.3281,372.5 73.7344,372.7813 Q73.1563,373.0625 72.7031,373.6875 Q72.25,374.3125 72.25,375.1719 L72.25,376.0938 Q72.25,377.125 73.0938,377.8125 Q73.9375,378.5 75.4375,378.5 Q76.3281,378.5 76.9531,378.2969 Q77.3125,378.1875 77.7188,377.8281 Q77.9844,377.625 78.125,377.5625 Q78.2656,377.5 78.4375,377.5 Q78.7656,377.5 79,377.7656 Q79.25,378.0156 79.25,378.375 Q79.25,378.7188 78.9063,379.125 Q78.4063,379.7188 77.6094,380.0469 Q76.5625,380.5 75.2813,380.5 Q73.7813,380.5 72.5781,379.9063 Q71.6094,379.4375 70.9219,378.4219 Q70.25,377.4063 70.25,376.2031 L70.25,375.1094 Q70.25,373.8594 70.8438,372.7656 Q71.4531,371.6719 72.5,371.0938 Q73.5625,370.5 74.75,370.5 Q75.4688,370.5 76.0938,370.75 Q76.7188,371 77.25,371.5 Z " fill="#000000"/><text fill="#000000" font-family="sans-serif" font-size="12" lengthAdjust="spacing" textLength="62" x="95.75" y="379.9102">RouteStore</text><line style="stroke:#A80036;stroke-width:1.5;" x1="23.5" x2="197.5" y1="391" y2="391"/><line style="stroke:#A80036;stroke-width:1.5;" x1="23.5" x2="197.5" y1="399" y2="399"/><ellipse cx="33.5" cy="410" fill="#84BE84" rx="3" ry="3" style="stroke:#038048;stroke-width:1.0;"/><text fill="#000000" font-family="sans-serif" font-size="11" lengthAdjust="spacing" textLength="150" x="42.5" y="414.4189">getRoute(register,container_id)</text><!--MD5=[3b456f8e4e4ad71bf7d8ad53d347bdf7]
link RouteUI to RouteController--><path codeLine="16" d="M110.5,55.14 C110.5,70.71 110.5,91.53 110.5,109.22 " fill="none" id="RouteUI-to-RouteController" style="stroke:#A80036;stroke-width:1.0;stroke-dasharray:7.0,7.0;"/><polygon fill="#A80036" points="110.5,114.6,114.5,105.6,110.5,109.6,106.5,105.6,110.5,114.6" style="stroke:#A80036;stroke-width:1.0;"/><!--MD5=[9ea853bf7c1169d3019f90b54fc16c06]
link RouteController to Company--><path codeLine="17" d="M97.38,177.28 C90.17,193.91 81.2,214.61 73.69,231.94 " fill="none" id="RouteController-to-Company" style="stroke:#A80036;stroke-width:1.0;stroke-dasharray:7.0,7.0;"/><polygon fill="#A80036" points="71.62,236.73,78.8669,230.0605,73.6068,232.1417,71.5257,226.8816,71.62,236.73" style="stroke:#A80036;stroke-width:1.0;"/><!--MD5=[bc05bb2fb4d74e105b8d3ac28722da2a]
link Company to RouteStore--><path codeLine="18" d="M71.62,299.28 C78.83,315.91 87.8,336.61 95.31,353.94 " fill="none" id="Company-to-RouteStore" style="stroke:#A80036;stroke-width:1.0;"/><polygon fill="#A80036" points="97.38,358.73,97.4743,348.8816,95.3932,354.1417,90.1331,352.0605,97.38,358.73" style="stroke:#A80036;stroke-width:1.0;"/><!--MD5=[6b6737d9ffd7ec92c4e8d3ab9197ff2b]
link RouteController to RouteStore--><path codeLine="19" d="M117.67,177.21 C121.42,194.59 125.62,216.89 127.5,237 C130.07,264.44 130.07,271.56 127.5,299 C125.79,317.22 122.19,337.25 118.73,353.78 " fill="none" id="RouteController-to-RouteStore" style="stroke:#A80036;stroke-width:1.0;stroke-dasharray:7.0,7.0;"/><polygon fill="#A80036" points="117.67,358.79,123.4559,350.8198,118.7108,353.8995,115.6311,349.1545,117.67,358.79" style="stroke:#A80036;stroke-width:1.0;"/><!--MD5=[854611aadde1c495a8e0f69870b1f5de]
@startuml
class RouteUI{
}

class RouteController{
    +getRoute(register,container_id)
}

class Company{
    +getRouteStore()
}

class RouteStore{
    +getRoute(register,container_id)
}

RouteUI ..> RouteController
RouteController ..> Company
Company - -> RouteStore
RouteController ..> RouteStore

@enduml

PlantUML version 1.2021.11(Sat Oct 02 14:26:11 BST 2021)
(GPL source distribution)
Java Runtime: OpenJDK Runtime Environment
JVM: OpenJDK 64-Bit Server VM
Default Encoding: Cp1252
Language: pt
Country: PT
--></g></svg>