<?xml version="1.0" encoding="UTF-8" standalone="no"?><svg xmlns="http://www.w3.org/2000/svg" xmlns:xlink="http://www.w3.org/1999/xlink" contentScriptType="application/ecmascript" contentStyleType="text/css" height="310px" preserveAspectRatio="none" style="width:661px;height:310px;background:#FFFFFF;" version="1.1" viewBox="0 0 661 310" width="661px" zoomAndPan="magnify"><defs><filter height="300%" id="f1xu9wh2ewv29b" width="300%" x="-1" y="-1"><feGaussianBlur result="blurOut" stdDeviation="2.0"/><feColorMatrix in="blurOut" result="blurOut2" type="matrix" values="0 0 0 0 0 0 0 0 0 0 0 0 0 0 0 0 0 0 .4 0"/><feOffset dx="4.0" dy="4.0" in="blurOut2" result="blurOut3"/><feBlend in="SourceGraphic" in2="blurOut3" mode="normal"/></filter></defs><g><!--MD5=[e9a58730c562b34349daa605d1ed6662]
class Container--><rect codeLine="20" fill="#FEFECE" filter="url(#f1xu9wh2ewv29b)" height="123.0156" id="Container" style="stroke:#A80036;stroke-width:1.5;" width="86" x="561" y="90"/><ellipse cx="576" cy="106" fill="#ADD1B2" rx="11" ry="11" style="stroke:#A80036;stroke-width:1.0;"/><path d="M578,102.5 Q578.2031,102 578.4375,101.75 Q578.6719,101.5 578.9375,101.5 Q579.4063,101.5 579.7031,101.7813 Q580,102.0625 580,102.7188 L580,104.2813 Q580,104.9375 579.7188,105.2188 Q579.4375,105.5 579,105.5 Q578.6094,105.5 578.3594,105.3281 Q578.1094,105.1563 578,104.7031 Q577.9531,104.3906 577.7813,104.2188 Q577.4688,103.8906 576.9063,103.7031 Q576.3438,103.5 575.7813,103.5 Q575.0781,103.5 574.4844,103.7813 Q573.9063,104.0625 573.4531,104.6875 Q573,105.3125 573,106.1719 L573,107.0938 Q573,108.125 573.8438,108.8125 Q574.6875,109.5 576.1875,109.5 Q577.0781,109.5 577.7031,109.2969 Q578.0625,109.1875 578.4688,108.8281 Q578.7344,108.625 578.875,108.5625 Q579.0156,108.5 579.1875,108.5 Q579.5156,108.5 579.75,108.7656 Q580,109.0156 580,109.375 Q580,109.7188 579.6563,110.125 Q579.1563,110.7188 578.3594,111.0469 Q577.3125,111.5 576.0313,111.5 Q574.5313,111.5 573.3281,110.9063 Q572.3594,110.4375 571.6719,109.4219 Q571,108.4063 571,107.2031 L571,106.1094 Q571,104.8594 571.5938,103.7656 Q572.2031,102.6719 573.25,102.0938 Q574.3125,101.5 575.5,101.5 Q576.2188,101.5 576.8438,101.75 Q577.4688,102 578,102.5 Z " fill="#000000"/><text fill="#000000" font-family="sans-serif" font-size="12" lengthAdjust="spacing" textLength="54" x="590" y="110.9102">Container</text><line style="stroke:#A80036;stroke-width:1.5;" x1="562" x2="646" y1="122" y2="122"/><text fill="#000000" font-family="sans-serif" font-size="11" lengthAdjust="spacing" textLength="48" x="567" y="137.4189">-iso_code</text><text fill="#000000" font-family="sans-serif" font-size="11" lengthAdjust="spacing" textLength="63" x="567" y="151.2549">-refrigeration</text><text fill="#000000" font-family="sans-serif" font-size="11" lengthAdjust="spacing" textLength="62" x="567" y="165.0908">-temperature</text><text fill="#000000" font-family="sans-serif" font-size="11" lengthAdjust="spacing" textLength="42" x="567" y="178.9268">-payload</text><text fill="#000000" font-family="sans-serif" font-size="11" lengthAdjust="spacing" textLength="23" x="567" y="192.7627">-tare</text><text fill="#000000" font-family="sans-serif" font-size="11" lengthAdjust="spacing" textLength="32" x="567" y="206.5986">-gross</text><!--MD5=[bc6d56fff33115396b36caccb440b7b0]
class Manifest--><rect codeLine="29" fill="#FEFECE" filter="url(#f1xu9wh2ewv29b)" height="81.5078" id="Manifest" style="stroke:#A80036;stroke-width:1.5;" width="78" x="387" y="110.5"/><ellipse cx="402" cy="126.5" fill="#ADD1B2" rx="11" ry="11" style="stroke:#A80036;stroke-width:1.0;"/><path d="M404,123 Q404.2031,122.5 404.4375,122.25 Q404.6719,122 404.9375,122 Q405.4063,122 405.7031,122.2813 Q406,122.5625 406,123.2188 L406,124.7813 Q406,125.4375 405.7188,125.7188 Q405.4375,126 405,126 Q404.6094,126 404.3594,125.8281 Q404.1094,125.6563 404,125.2031 Q403.9531,124.8906 403.7813,124.7188 Q403.4688,124.3906 402.9063,124.2031 Q402.3438,124 401.7813,124 Q401.0781,124 400.4844,124.2813 Q399.9063,124.5625 399.4531,125.1875 Q399,125.8125 399,126.6719 L399,127.5938 Q399,128.625 399.8438,129.3125 Q400.6875,130 402.1875,130 Q403.0781,130 403.7031,129.7969 Q404.0625,129.6875 404.4688,129.3281 Q404.7344,129.125 404.875,129.0625 Q405.0156,129 405.1875,129 Q405.5156,129 405.75,129.2656 Q406,129.5156 406,129.875 Q406,130.2188 405.6563,130.625 Q405.1563,131.2188 404.3594,131.5469 Q403.3125,132 402.0313,132 Q400.5313,132 399.3281,131.4063 Q398.3594,130.9375 397.6719,129.9219 Q397,128.9063 397,127.7031 L397,126.6094 Q397,125.3594 397.5938,124.2656 Q398.2031,123.1719 399.25,122.5938 Q400.3125,122 401.5,122 Q402.2188,122 402.8438,122.25 Q403.4688,122.5 404,123 Z " fill="#000000"/><text fill="#000000" font-family="sans-serif" font-size="12" lengthAdjust="spacing" textLength="46" x="416" y="131.4102">Manifest</text><line style="stroke:#A80036;stroke-width:1.5;" x1="388" x2="464" y1="142.5" y2="142.5"/><text fill="#000000" font-family="sans-serif" font-size="11" lengthAdjust="spacing" textLength="25" x="393" y="157.9189">-date</text><text fill="#000000" font-family="sans-serif" font-size="11" lengthAdjust="spacing" textLength="32" x="393" y="171.7549">-gross</text><text fill="#000000" font-family="sans-serif" font-size="11" lengthAdjust="spacing" textLength="41" x="393" y="185.5908">-position</text><!--MD5=[0dc7f2ddb409b58bcf52b12238c25399]
class Ship--><rect codeLine="35" fill="#FEFECE" filter="url(#f1xu9wh2ewv29b)" height="289.0469" id="Ship" style="stroke:#A80036;stroke-width:1.5;" width="103" x="188" y="7"/><ellipse cx="223.7" cy="23" fill="#ADD1B2" rx="11" ry="11" style="stroke:#A80036;stroke-width:1.0;"/><path d="M225.7,19.5 Q225.9031,19 226.1375,18.75 Q226.3719,18.5 226.6375,18.5 Q227.1063,18.5 227.4031,18.7813 Q227.7,19.0625 227.7,19.7188 L227.7,21.2813 Q227.7,21.9375 227.4188,22.2188 Q227.1375,22.5 226.7,22.5 Q226.3094,22.5 226.0594,22.3281 Q225.8094,22.1563 225.7,21.7031 Q225.6531,21.3906 225.4813,21.2188 Q225.1688,20.8906 224.6063,20.7031 Q224.0438,20.5 223.4813,20.5 Q222.7781,20.5 222.1844,20.7813 Q221.6063,21.0625 221.1531,21.6875 Q220.7,22.3125 220.7,23.1719 L220.7,24.0938 Q220.7,25.125 221.5438,25.8125 Q222.3875,26.5 223.8875,26.5 Q224.7781,26.5 225.4031,26.2969 Q225.7625,26.1875 226.1688,25.8281 Q226.4344,25.625 226.575,25.5625 Q226.7156,25.5 226.8875,25.5 Q227.2156,25.5 227.45,25.7656 Q227.7,26.0156 227.7,26.375 Q227.7,26.7188 227.3563,27.125 Q226.8563,27.7188 226.0594,28.0469 Q225.0125,28.5 223.7313,28.5 Q222.2313,28.5 221.0281,27.9063 Q220.0594,27.4375 219.3719,26.4219 Q218.7,25.4063 218.7,24.2031 L218.7,23.1094 Q218.7,21.8594 219.2938,20.7656 Q219.9031,19.6719 220.95,19.0938 Q222.0125,18.5 223.2,18.5 Q223.9188,18.5 224.5438,18.75 Q225.1688,19 225.7,19.5 Z " fill="#000000"/><text fill="#000000" font-family="sans-serif" font-size="12" lengthAdjust="spacing" textLength="25" x="242.3" y="27.9102">Ship</text><line style="stroke:#A80036;stroke-width:1.5;" x1="189" x2="290" y1="39" y2="39"/><text fill="#000000" font-family="sans-serif" font-size="11" lengthAdjust="spacing" textLength="28" x="194" y="54.4189">-mmsi</text><text fill="#000000" font-family="sans-serif" font-size="11" lengthAdjust="spacing" textLength="20" x="194" y="68.2549">-imo</text><text fill="#000000" font-family="sans-serif" font-size="11" lengthAdjust="spacing" textLength="69" x="194" y="82.0908">-n_generators</text><text fill="#000000" font-family="sans-serif" font-size="11" lengthAdjust="spacing" textLength="33" x="194" y="95.9268">-length</text><text fill="#000000" font-family="sans-serif" font-size="11" lengthAdjust="spacing" textLength="31" x="194" y="109.7627">-width</text><text fill="#000000" font-family="sans-serif" font-size="11" lengthAdjust="spacing" textLength="69" x="194" y="123.5986">-p_generators</text><text fill="#000000" font-family="sans-serif" font-size="11" lengthAdjust="spacing" textLength="45" x="194" y="137.4346">-capacity</text><text fill="#000000" font-family="sans-serif" font-size="11" lengthAdjust="spacing" textLength="56" x="194" y="151.2705">-ship_name</text><text fill="#000000" font-family="sans-serif" font-size="11" lengthAdjust="spacing" textLength="63" x="194" y="165.1064">-vessel_type</text><text fill="#000000" font-family="sans-serif" font-size="11" lengthAdjust="spacing" textLength="46" x="194" y="178.9424">-call_sign</text><text fill="#000000" font-family="sans-serif" font-size="11" lengthAdjust="spacing" textLength="27" x="194" y="192.7783">-draft</text><text fill="#000000" font-family="sans-serif" font-size="11" lengthAdjust="spacing" textLength="50" x="194" y="206.6143">-date_time</text><text fill="#000000" font-family="sans-serif" font-size="11" lengthAdjust="spacing" textLength="38" x="194" y="220.4502">-latitude</text><text fill="#000000" font-family="sans-serif" font-size="11" lengthAdjust="spacing" textLength="47" x="194" y="234.2861">-longitude</text><text fill="#000000" font-family="sans-serif" font-size="11" lengthAdjust="spacing" textLength="22" x="194" y="248.1221">-sog</text><text fill="#000000" font-family="sans-serif" font-size="11" lengthAdjust="spacing" textLength="22" x="194" y="261.958">-cog</text><text fill="#000000" font-family="sans-serif" font-size="11" lengthAdjust="spacing" textLength="42" x="194" y="275.7939">-heading</text><text fill="#000000" font-family="sans-serif" font-size="11" lengthAdjust="spacing" textLength="91" x="194" y="289.6299">-transceiver_class</text><!--MD5=[02e4b9b7573f1156f41e60aa5b4e25a4]
class Company--><rect codeLine="56" fill="#FEFECE" filter="url(#f1xu9wh2ewv29b)" height="53.8359" id="Company" style="stroke:#A80036;stroke-width:1.5;" width="85" x="7" y="124.5"/><ellipse cx="22" cy="140.5" fill="#ADD1B2" rx="11" ry="11" style="stroke:#A80036;stroke-width:1.0;"/><path d="M24,137 Q24.2031,136.5 24.4375,136.25 Q24.6719,136 24.9375,136 Q25.4063,136 25.7031,136.2813 Q26,136.5625 26,137.2188 L26,138.7813 Q26,139.4375 25.7188,139.7188 Q25.4375,140 25,140 Q24.6094,140 24.3594,139.8281 Q24.1094,139.6563 24,139.2031 Q23.9531,138.8906 23.7813,138.7188 Q23.4688,138.3906 22.9063,138.2031 Q22.3438,138 21.7813,138 Q21.0781,138 20.4844,138.2813 Q19.9063,138.5625 19.4531,139.1875 Q19,139.8125 19,140.6719 L19,141.5938 Q19,142.625 19.8438,143.3125 Q20.6875,144 22.1875,144 Q23.0781,144 23.7031,143.7969 Q24.0625,143.6875 24.4688,143.3281 Q24.7344,143.125 24.875,143.0625 Q25.0156,143 25.1875,143 Q25.5156,143 25.75,143.2656 Q26,143.5156 26,143.875 Q26,144.2188 25.6563,144.625 Q25.1563,145.2188 24.3594,145.5469 Q23.3125,146 22.0313,146 Q20.5313,146 19.3281,145.4063 Q18.3594,144.9375 17.6719,143.9219 Q17,142.9063 17,141.7031 L17,140.6094 Q17,139.3594 17.5938,138.2656 Q18.2031,137.1719 19.25,136.5938 Q20.3125,136 21.5,136 Q22.2188,136 22.8438,136.25 Q23.4688,136.5 24,137 Z " fill="#000000"/><text fill="#000000" font-family="sans-serif" font-size="12" lengthAdjust="spacing" textLength="53" x="36" y="145.4102">Company</text><line style="stroke:#A80036;stroke-width:1.5;" x1="8" x2="91" y1="156.5" y2="156.5"/><text fill="#000000" font-family="sans-serif" font-size="11" lengthAdjust="spacing" textLength="30" x="13" y="171.9189">-name</text><!--MD5=[37a14a5de6d6fd738aee271300f4b5c8]
link Company to Ship--><path codeLine="14" d="M92.22,151.5 C120.46,151.5 157.92,151.5 187.86,151.5 " fill="none" id="Company-Ship" style="stroke:#A80036;stroke-width:1.0;"/><polygon fill="#000000" points="132,142.6758,122.9549,139.7369,122.9549,145.6147,132,142.6758" style="stroke:#000000;stroke-width:1.0;"/><text fill="#000000" font-family="sans-serif" font-size="13" lengthAdjust="spacing" textLength="21" x="136" y="147.9951">has</text><text fill="#000000" font-family="sans-serif" font-size="13" lengthAdjust="spacing" textLength="7" x="99.8752" y="166.3628">1</text><text fill="#000000" font-family="sans-serif" font-size="13" lengthAdjust="spacing" textLength="5" x="174.9082" y="166.1925">*</text><!--MD5=[bf3ea1a9851801edc53195a9e0780a16]
link Ship to Manifest--><path codeLine="15" d="M291.4,151.5 C321.59,151.5 359.22,151.5 386.85,151.5 " fill="none" id="Ship-Manifest" style="stroke:#A80036;stroke-width:1.0;"/><polygon fill="#000000" points="331,142.6758,321.9549,139.7369,321.9549,145.6147,331,142.6758" style="stroke:#000000;stroke-width:1.0;"/><text fill="#000000" font-family="sans-serif" font-size="13" lengthAdjust="spacing" textLength="21" x="335" y="147.9951">has</text><text fill="#000000" font-family="sans-serif" font-size="13" lengthAdjust="spacing" textLength="7" x="298.8444" y="166.0906">1</text><text fill="#000000" font-family="sans-serif" font-size="13" lengthAdjust="spacing" textLength="5" x="373.9105" y="166.6005">*</text><!--MD5=[20b0b298cd787f7a117538e20040cc6f]
link Manifest to Container--><path codeLine="16" d="M465.19,151.5 C493.4,151.5 531.78,151.5 560.88,151.5 " fill="none" id="Manifest-Container" style="stroke:#A80036;stroke-width:1.0;"/><polygon fill="#000000" points="505,142.6758,495.9549,139.7369,495.9549,145.6147,505,142.6758" style="stroke:#000000;stroke-width:1.0;"/><text fill="#000000" font-family="sans-serif" font-size="13" lengthAdjust="spacing" textLength="21" x="509" y="147.9951">has</text><text fill="#000000" font-family="sans-serif" font-size="13" lengthAdjust="spacing" textLength="7" x="473.061" y="166.5479">1</text><text fill="#000000" font-family="sans-serif" font-size="13" lengthAdjust="spacing" textLength="5" x="548.0391" y="166.399">*</text><!--MD5=[37c2f2e68a8caa6fe32396c36d6d6f44]
@startuml
hide methods
skinparam classAttributeIconSize 0
left to right direction


class Container
class Manifest
class Ship
class Company




Company"1" - - "*"Ship : has >
Ship"1" - - "*"Manifest : has >
Manifest"1" - - "*"Container: has >



class Container {
-iso_code
-refrigeration
-temperature
-payload
-tare
-gross
}

class Manifest {
-date
-gross
-position
}

class Ship {
-mmsi
-imo
-n_generators
-length
-width
-p_generators
-capacity
-ship_name
-vessel_type
-call_sign
-draft
-date_time
-latitude
-longitude
-sog
-cog
-heading
-transceiver_class
}

class Company {
-name
}


@enduml

PlantUML version 1.2021.11(Sat Oct 02 14:26:11 BST 2021)
(GPL source distribution)
Java Runtime: OpenJDK Runtime Environment
JVM: OpenJDK 64-Bit Server VM
Default Encoding: Cp1252
Language: pt
Country: PT
--></g></svg>