<?xml version="1.0" encoding="UTF-8" standalone="no"?><svg xmlns="http://www.w3.org/2000/svg" xmlns:xlink="http://www.w3.org/1999/xlink" contentScriptType="application/ecmascript" contentStyleType="text/css" height="448px" preserveAspectRatio="none" style="width:167px;height:448px;background:#FFFFFF;" version="1.1" viewBox="0 0 167 448" width="167px" zoomAndPan="magnify"><defs><filter height="300%" id="f1feb2d3qe5car" width="300%" x="-1" y="-1"><feGaussianBlur result="blurOut" stdDeviation="2.0"/><feColorMatrix in="blurOut" result="blurOut2" type="matrix" values="0 0 0 0 0 0 0 0 0 0 0 0 0 0 0 0 0 0 .4 0"/><feOffset dx="4.0" dy="4.0" in="blurOut2" result="blurOut3"/><feBlend in="SourceGraphic" in2="blurOut3" mode="normal"/></filter></defs><g><!--MD5=[df76e760f2062188d44f98c21a88999b]
class UI--><rect codeLine="1" fill="#FEFECE" filter="url(#f1feb2d3qe5car)" height="48" id="UI" style="stroke:#A80036;stroke-width:1.5;" width="44" x="58" y="7"/><ellipse cx="73" cy="23" fill="#ADD1B2" rx="11" ry="11" style="stroke:#A80036;stroke-width:1.0;"/><path d="M75,19.5 Q75.2031,19 75.4375,18.75 Q75.6719,18.5 75.9375,18.5 Q76.4063,18.5 76.7031,18.7813 Q77,19.0625 77,19.7188 L77,21.2813 Q77,21.9375 76.7188,22.2188 Q76.4375,22.5 76,22.5 Q75.6094,22.5 75.3594,22.3281 Q75.1094,22.1563 75,21.7031 Q74.9531,21.3906 74.7813,21.2188 Q74.4688,20.8906 73.9063,20.7031 Q73.3438,20.5 72.7813,20.5 Q72.0781,20.5 71.4844,20.7813 Q70.9063,21.0625 70.4531,21.6875 Q70,22.3125 70,23.1719 L70,24.0938 Q70,25.125 70.8438,25.8125 Q71.6875,26.5 73.1875,26.5 Q74.0781,26.5 74.7031,26.2969 Q75.0625,26.1875 75.4688,25.8281 Q75.7344,25.625 75.875,25.5625 Q76.0156,25.5 76.1875,25.5 Q76.5156,25.5 76.75,25.7656 Q77,26.0156 77,26.375 Q77,26.7188 76.6563,27.125 Q76.1563,27.7188 75.3594,28.0469 Q74.3125,28.5 73.0313,28.5 Q71.5313,28.5 70.3281,27.9063 Q69.3594,27.4375 68.6719,26.4219 Q68,25.4063 68,24.2031 L68,23.1094 Q68,21.8594 68.5938,20.7656 Q69.2031,19.6719 70.25,19.0938 Q71.3125,18.5 72.5,18.5 Q73.2188,18.5 73.8438,18.75 Q74.4688,19 75,19.5 Z " fill="#000000"/><text fill="#000000" font-family="sans-serif" font-size="12" lengthAdjust="spacing" textLength="12" x="87" y="27.9102">UI</text><line style="stroke:#A80036;stroke-width:1.5;" x1="59" x2="101" y1="39" y2="39"/><line style="stroke:#A80036;stroke-width:1.5;" x1="59" x2="101" y1="47" y2="47"/><!--MD5=[1d7ba1c7002d54515419844fbd155368]
class Controller--><rect codeLine="4" fill="#FEFECE" filter="url(#f1feb2d3qe5car)" height="75.6719" id="Controller" style="stroke:#A80036;stroke-width:1.5;" width="146" x="7" y="115"/><ellipse cx="49" cy="131" fill="#ADD1B2" rx="11" ry="11" style="stroke:#A80036;stroke-width:1.0;"/><path d="M51,127.5 Q51.2031,127 51.4375,126.75 Q51.6719,126.5 51.9375,126.5 Q52.4063,126.5 52.7031,126.7813 Q53,127.0625 53,127.7188 L53,129.2813 Q53,129.9375 52.7188,130.2188 Q52.4375,130.5 52,130.5 Q51.6094,130.5 51.3594,130.3281 Q51.1094,130.1563 51,129.7031 Q50.9531,129.3906 50.7813,129.2188 Q50.4688,128.8906 49.9063,128.7031 Q49.3438,128.5 48.7813,128.5 Q48.0781,128.5 47.4844,128.7813 Q46.9063,129.0625 46.4531,129.6875 Q46,130.3125 46,131.1719 L46,132.0938 Q46,133.125 46.8438,133.8125 Q47.6875,134.5 49.1875,134.5 Q50.0781,134.5 50.7031,134.2969 Q51.0625,134.1875 51.4688,133.8281 Q51.7344,133.625 51.875,133.5625 Q52.0156,133.5 52.1875,133.5 Q52.5156,133.5 52.75,133.7656 Q53,134.0156 53,134.375 Q53,134.7188 52.6563,135.125 Q52.1563,135.7188 51.3594,136.0469 Q50.3125,136.5 49.0313,136.5 Q47.5313,136.5 46.3281,135.9063 Q45.3594,135.4375 44.6719,134.4219 Q44,133.4063 44,132.2031 L44,131.1094 Q44,129.8594 44.5938,128.7656 Q45.2031,127.6719 46.25,127.0938 Q47.3125,126.5 48.5,126.5 Q49.2188,126.5 49.8438,126.75 Q50.4688,127 51,127.5 Z " fill="#000000"/><text fill="#000000" font-family="sans-serif" font-size="12" lengthAdjust="spacing" textLength="54" x="69" y="135.9102">Controller</text><line style="stroke:#A80036;stroke-width:1.5;" x1="8" x2="152" y1="147" y2="147"/><line style="stroke:#A80036;stroke-width:1.5;" x1="8" x2="152" y1="155" y2="155"/><ellipse cx="18" cy="166" fill="#84BE84" rx="3" ry="3" style="stroke:#038048;stroke-width:1.0;"/><text fill="#000000" font-family="sans-serif" font-size="11" lengthAdjust="spacing" textLength="94" x="27" y="170.4189">getShortestCircuit()</text><ellipse cx="18" cy="179.8359" fill="#84BE84" rx="3" ry="3" style="stroke:#038048;stroke-width:1.0;"/><text fill="#000000" font-family="sans-serif" font-size="11" lengthAdjust="spacing" textLength="120" x="27" y="184.2549">getShortestCircuitStore()</text><!--MD5=[02e4b9b7573f1156f41e60aa5b4e25a4]
class Company--><rect codeLine="9" fill="#FEFECE" filter="url(#f1feb2d3qe5car)" height="61.8359" id="Company" style="stroke:#A80036;stroke-width:1.5;" width="146" x="7" y="251"/><ellipse cx="49.45" cy="267" fill="#ADD1B2" rx="11" ry="11" style="stroke:#A80036;stroke-width:1.0;"/><path d="M51.45,263.5 Q51.6531,263 51.8875,262.75 Q52.1219,262.5 52.3875,262.5 Q52.8563,262.5 53.1531,262.7813 Q53.45,263.0625 53.45,263.7188 L53.45,265.2813 Q53.45,265.9375 53.1688,266.2188 Q52.8875,266.5 52.45,266.5 Q52.0594,266.5 51.8094,266.3281 Q51.5594,266.1563 51.45,265.7031 Q51.4031,265.3906 51.2313,265.2188 Q50.9188,264.8906 50.3563,264.7031 Q49.7938,264.5 49.2313,264.5 Q48.5281,264.5 47.9344,264.7813 Q47.3563,265.0625 46.9031,265.6875 Q46.45,266.3125 46.45,267.1719 L46.45,268.0938 Q46.45,269.125 47.2938,269.8125 Q48.1375,270.5 49.6375,270.5 Q50.5281,270.5 51.1531,270.2969 Q51.5125,270.1875 51.9188,269.8281 Q52.1844,269.625 52.325,269.5625 Q52.4656,269.5 52.6375,269.5 Q52.9656,269.5 53.2,269.7656 Q53.45,270.0156 53.45,270.375 Q53.45,270.7188 53.1063,271.125 Q52.6063,271.7188 51.8094,272.0469 Q50.7625,272.5 49.4813,272.5 Q47.9813,272.5 46.7781,271.9063 Q45.8094,271.4375 45.1219,270.4219 Q44.45,269.4063 44.45,268.2031 L44.45,267.1094 Q44.45,265.8594 45.0438,264.7656 Q45.6531,263.6719 46.7,263.0938 Q47.7625,262.5 48.95,262.5 Q49.6688,262.5 50.2938,262.75 Q50.9188,263 51.45,263.5 Z " fill="#000000"/><text fill="#000000" font-family="sans-serif" font-size="12" lengthAdjust="spacing" textLength="53" x="69.55" y="271.9102">Company</text><line style="stroke:#A80036;stroke-width:1.5;" x1="8" x2="152" y1="283" y2="283"/><line style="stroke:#A80036;stroke-width:1.5;" x1="8" x2="152" y1="291" y2="291"/><ellipse cx="18" cy="302" fill="#84BE84" rx="3" ry="3" style="stroke:#038048;stroke-width:1.0;"/><text fill="#000000" font-family="sans-serif" font-size="11" lengthAdjust="spacing" textLength="120" x="27" y="306.4189">getShortestCircuitStore()</text><!--MD5=[b4d3d50c0abf08df45181fececb9f04d]
class Store--><rect codeLine="13" fill="#FEFECE" filter="url(#f1feb2d3qe5car)" height="61.8359" id="Store" style="stroke:#A80036;stroke-width:1.5;" width="120" x="20" y="373"/><ellipse cx="61.55" cy="389" fill="#ADD1B2" rx="11" ry="11" style="stroke:#A80036;stroke-width:1.0;"/><path d="M63.55,385.5 Q63.7531,385 63.9875,384.75 Q64.2219,384.5 64.4875,384.5 Q64.9563,384.5 65.2531,384.7813 Q65.55,385.0625 65.55,385.7188 L65.55,387.2813 Q65.55,387.9375 65.2688,388.2188 Q64.9875,388.5 64.55,388.5 Q64.1594,388.5 63.9094,388.3281 Q63.6594,388.1563 63.55,387.7031 Q63.5031,387.3906 63.3313,387.2188 Q63.0188,386.8906 62.4563,386.7031 Q61.8938,386.5 61.3313,386.5 Q60.6281,386.5 60.0344,386.7813 Q59.4563,387.0625 59.0031,387.6875 Q58.55,388.3125 58.55,389.1719 L58.55,390.0938 Q58.55,391.125 59.3938,391.8125 Q60.2375,392.5 61.7375,392.5 Q62.6281,392.5 63.2531,392.2969 Q63.6125,392.1875 64.0188,391.8281 Q64.2844,391.625 64.425,391.5625 Q64.5656,391.5 64.7375,391.5 Q65.0656,391.5 65.3,391.7656 Q65.55,392.0156 65.55,392.375 Q65.55,392.7188 65.2063,393.125 Q64.7063,393.7188 63.9094,394.0469 Q62.8625,394.5 61.5813,394.5 Q60.0813,394.5 58.8781,393.9063 Q57.9094,393.4375 57.2219,392.4219 Q56.55,391.4063 56.55,390.2031 L56.55,389.1094 Q56.55,387.8594 57.1438,386.7656 Q57.7531,385.6719 58.8,385.0938 Q59.8625,384.5 61.05,384.5 Q61.7688,384.5 62.3938,384.75 Q63.0188,385 63.55,385.5 Z " fill="#000000"/><text fill="#000000" font-family="sans-serif" font-size="12" lengthAdjust="spacing" textLength="29" x="81.45" y="393.9102">Store</text><line style="stroke:#A80036;stroke-width:1.5;" x1="21" x2="139" y1="405" y2="405"/><line style="stroke:#A80036;stroke-width:1.5;" x1="21" x2="139" y1="413" y2="413"/><ellipse cx="31" cy="424" fill="#84BE84" rx="3" ry="3" style="stroke:#038048;stroke-width:1.0;"/><text fill="#000000" font-family="sans-serif" font-size="11" lengthAdjust="spacing" textLength="94" x="40" y="428.4189">getShortestCircuit()</text><!--MD5=[132c963044dc2a803644bb1c6fd2eeb1]
link UI to Controller--><path codeLine="18" d="M80,55.14 C80,70.58 80,91.33 80,109.67 " fill="none" id="UI-to-Controller" style="stroke:#A80036;stroke-width:1.0;stroke-dasharray:7.0,7.0;"/><polygon fill="#A80036" points="80,114.77,84,105.77,80,109.77,76,105.77,80,114.77" style="stroke:#A80036;stroke-width:1.0;"/><!--MD5=[e6ed5f8d33eaf4b7717944dd53806eb1]
link Controller to Company--><path codeLine="19" d="M80,191.08 C80,208.33 80,228.74 80,245.76 " fill="none" id="Controller-to-Company" style="stroke:#A80036;stroke-width:1.0;stroke-dasharray:7.0,7.0;"/><polygon fill="#A80036" points="80,250.93,84,241.93,80,245.93,76,241.93,80,250.93" style="stroke:#A80036;stroke-width:1.0;"/><!--MD5=[94141ed6bd4db0a0d11426b15c5ddee2]
link Company to Store--><path codeLine="20" d="M80,313.28 C80,329.77 80,350.26 80,367.49 " fill="none" id="Company-to-Store" style="stroke:#A80036;stroke-width:1.0;stroke-dasharray:7.0,7.0;"/><polygon fill="#A80036" points="80,372.73,84,363.73,80,367.73,76,363.73,80,372.73" style="stroke:#A80036;stroke-width:1.0;"/><!--MD5=[7d26d22aad45d4d9e22d8a72d6a29f02]
@startuml
class UI{
}

class Controller{
    +getShortestCircuit()
    +getShortestCircuitStore()
}

class Company{
    +getShortestCircuitStore()
}

class Store{
    +getShortestCircuit()
}


UI ..> Controller
Controller ..> Company
Company ..> Store


@enduml

PlantUML version 1.2021.11(Sat Oct 02 14:26:11 BST 2021)
(GPL source distribution)
Java Runtime: OpenJDK Runtime Environment
JVM: OpenJDK 64-Bit Server VM
Default Encoding: Cp1252
Language: pt
Country: PT
--></g></svg>