<?xml version="1.0" encoding="UTF-8" standalone="no"?><svg xmlns="http://www.w3.org/2000/svg" xmlns:xlink="http://www.w3.org/1999/xlink" contentScriptType="application/ecmascript" contentStyleType="text/css" height="528px" preserveAspectRatio="none" style="width:1131px;height:528px;background:#FFFFFF;" version="1.1" viewBox="0 0 1131 528" width="1131px" zoomAndPan="magnify"><defs><filter height="300%" id="f1hvlt3w43n8xa" width="300%" x="-1" y="-1"><feGaussianBlur result="blurOut" stdDeviation="2.0"/><feColorMatrix in="blurOut" result="blurOut2" type="matrix" values="0 0 0 0 0 0 0 0 0 0 0 0 0 0 0 0 0 0 .4 0"/><feOffset dx="4.0" dy="4.0" in="blurOut2" result="blurOut3"/><feBlend in="SourceGraphic" in2="blurOut3" mode="normal"/></filter></defs><g><rect fill="#FFFFFF" filter="url(#f1hvlt3w43n8xa)" height="325.5156" style="stroke:#A80036;stroke-width:1.0;" width="10" x="41.5" y="99.6094"/><rect fill="#FFFFFF" filter="url(#f1hvlt3w43n8xa)" height="30.3516" style="stroke:#A80036;stroke-width:1.0;" width="10" x="479.5" y="121.9609"/><rect fill="#FFFFFF" filter="url(#f1hvlt3w43n8xa)" height="242.4609" style="stroke:#A80036;stroke-width:1.0;" width="10" x="479.5" y="182.6641"/><rect fill="#FFFFFF" filter="url(#f1hvlt3w43n8xa)" height="181.7578" style="stroke:#A80036;stroke-width:1.0;" width="10" x="657.5" y="213.0156"/><rect fill="#FFFFFF" filter="url(#f1hvlt3w43n8xa)" height="60.3516" style="stroke:#A80036;stroke-width:1.0;" width="10" x="847.5" y="243.3672"/><rect fill="#FFFFFF" filter="url(#f1hvlt3w43n8xa)" height="30" style="stroke:#A80036;stroke-width:1.0;" width="10" x="1037.5" y="273.7188"/><rect fill="#FFFFFF" filter="url(#f1hvlt3w43n8xa)" height="30.3516" style="stroke:#A80036;stroke-width:1.0;" width="10" x="1037.5" y="334.0703"/><line style="stroke:#A80036;stroke-width:1.0;stroke-dasharray:5.0,5.0;" x1="46" x2="46" y1="89.6094" y2="443.125"/><line style="stroke:#A80036;stroke-width:1.0;stroke-dasharray:5.0,5.0;" x1="484" x2="484" y1="89.6094" y2="443.125"/><line style="stroke:#A80036;stroke-width:1.0;stroke-dasharray:5.0,5.0;" x1="662" x2="662" y1="89.6094" y2="443.125"/><line style="stroke:#A80036;stroke-width:1.0;stroke-dasharray:5.0,5.0;" x1="852.5" x2="852.5" y1="89.6094" y2="443.125"/><line style="stroke:#A80036;stroke-width:1.0;stroke-dasharray:5.0,5.0;" x1="1042" x2="1042" y1="89.6094" y2="443.125"/><text fill="#000000" font-family="sans-serif" font-size="14" lengthAdjust="spacing" textLength="77" x="5" y="86.5332">ShipCaptain</text><ellipse cx="46.5" cy="15" fill="#FEFECE" filter="url(#f1hvlt3w43n8xa)" rx="8" ry="8" style="stroke:#A80036;stroke-width:2.0;"/><path d="M46.5,23 L46.5,50 M33.5,31 L59.5,31 M46.5,50 L33.5,65 M46.5,50 L59.5,65 " fill="none" filter="url(#f1hvlt3w43n8xa)" style="stroke:#A80036;stroke-width:2.0;"/><text fill="#000000" font-family="sans-serif" font-size="14" lengthAdjust="spacing" textLength="77" x="5" y="456.6582">ShipCaptain</text><ellipse cx="46.5" cy="469.7344" fill="#FEFECE" filter="url(#f1hvlt3w43n8xa)" rx="8" ry="8" style="stroke:#A80036;stroke-width:2.0;"/><path d="M46.5,477.7344 L46.5,504.7344 M33.5,485.7344 L59.5,485.7344 M46.5,504.7344 L33.5,519.7344 M46.5,504.7344 L59.5,519.7344 " fill="none" filter="url(#f1hvlt3w43n8xa)" style="stroke:#A80036;stroke-width:2.0;"/><rect fill="#FEFECE" filter="url(#f1hvlt3w43n8xa)" height="31.6094" style="stroke:#A80036;stroke-width:1.5;" width="131" x="417" y="53"/><text fill="#000000" font-family="sans-serif" font-size="14" lengthAdjust="spacing" textLength="117" x="424" y="74.5332">:OccupancyRateUI</text><rect fill="#FEFECE" filter="url(#f1hvlt3w43n8xa)" height="31.6094" style="stroke:#A80036;stroke-width:1.5;" width="131" x="417" y="442.125"/><text fill="#000000" font-family="sans-serif" font-size="14" lengthAdjust="spacing" textLength="117" x="424" y="463.6582">:OccupancyRateUI</text><rect fill="#FEFECE" filter="url(#f1hvlt3w43n8xa)" height="31.6094" style="stroke:#A80036;stroke-width:1.5;" width="181" x="570" y="53"/><text fill="#000000" font-family="sans-serif" font-size="14" lengthAdjust="spacing" textLength="167" x="577" y="74.5332">:OccupancyRateController</text><rect fill="#FEFECE" filter="url(#f1hvlt3w43n8xa)" height="31.6094" style="stroke:#A80036;stroke-width:1.5;" width="181" x="570" y="442.125"/><text fill="#000000" font-family="sans-serif" font-size="14" lengthAdjust="spacing" textLength="167" x="577" y="463.6582">:OccupancyRateController</text><rect fill="#FEFECE" filter="url(#f1hvlt3w43n8xa)" height="31.6094" style="stroke:#A80036;stroke-width:1.5;" width="78" x="811.5" y="53"/><text fill="#000000" font-family="sans-serif" font-size="14" lengthAdjust="spacing" textLength="64" x="818.5" y="74.5332">:Company</text><rect fill="#FEFECE" filter="url(#f1hvlt3w43n8xa)" height="31.6094" style="stroke:#A80036;stroke-width:1.5;" width="78" x="811.5" y="442.125"/><text fill="#000000" font-family="sans-serif" font-size="14" lengthAdjust="spacing" textLength="64" x="818.5" y="463.6582">:Company</text><rect fill="#FEFECE" filter="url(#f1hvlt3w43n8xa)" height="31.6094" style="stroke:#A80036;stroke-width:1.5;" width="153" x="964" y="53"/><text fill="#000000" font-family="sans-serif" font-size="14" lengthAdjust="spacing" textLength="139" x="971" y="74.5332">:OccupancyRateStore</text><rect fill="#FEFECE" filter="url(#f1hvlt3w43n8xa)" height="31.6094" style="stroke:#A80036;stroke-width:1.5;" width="153" x="964" y="442.125"/><text fill="#000000" font-family="sans-serif" font-size="14" lengthAdjust="spacing" textLength="139" x="971" y="463.6582">:OccupancyRateStore</text><rect fill="#FFFFFF" filter="url(#f1hvlt3w43n8xa)" height="325.5156" style="stroke:#A80036;stroke-width:1.0;" width="10" x="41.5" y="99.6094"/><rect fill="#FFFFFF" filter="url(#f1hvlt3w43n8xa)" height="30.3516" style="stroke:#A80036;stroke-width:1.0;" width="10" x="479.5" y="121.9609"/><rect fill="#FFFFFF" filter="url(#f1hvlt3w43n8xa)" height="242.4609" style="stroke:#A80036;stroke-width:1.0;" width="10" x="479.5" y="182.6641"/><rect fill="#FFFFFF" filter="url(#f1hvlt3w43n8xa)" height="181.7578" style="stroke:#A80036;stroke-width:1.0;" width="10" x="657.5" y="213.0156"/><rect fill="#FFFFFF" filter="url(#f1hvlt3w43n8xa)" height="60.3516" style="stroke:#A80036;stroke-width:1.0;" width="10" x="847.5" y="243.3672"/><rect fill="#FFFFFF" filter="url(#f1hvlt3w43n8xa)" height="30" style="stroke:#A80036;stroke-width:1.0;" width="10" x="1037.5" y="273.7188"/><rect fill="#FFFFFF" filter="url(#f1hvlt3w43n8xa)" height="30.3516" style="stroke:#A80036;stroke-width:1.0;" width="10" x="1037.5" y="334.0703"/><polygon fill="#A80036" points="467.5,117.9609,477.5,121.9609,467.5,125.9609,471.5,121.9609" style="stroke:#A80036;stroke-width:1.0;"/><line style="stroke:#A80036;stroke-width:1.0;" x1="51.5" x2="473.5" y1="121.9609" y2="121.9609"/><text fill="#000000" font-family="sans-serif" font-size="13" font-weight="bold" lengthAdjust="spacing" textLength="7" x="58.5" y="117.1045">1</text><text fill="#000000" font-family="sans-serif" font-size="13" lengthAdjust="spacing" textLength="398" x="69.5" y="117.1045">I want to know the occupancy rate of a given ship at a given moment.</text><polygon fill="#A80036" points="62.5,148.3125,52.5,152.3125,62.5,156.3125,58.5,152.3125" style="stroke:#A80036;stroke-width:1.0;"/><line style="stroke:#A80036;stroke-width:1.0;stroke-dasharray:2.0,2.0;" x1="56.5" x2="483.5" y1="152.3125" y2="152.3125"/><text fill="#000000" font-family="sans-serif" font-size="13" font-weight="bold" lengthAdjust="spacing" textLength="7" x="68.5" y="147.4561">2</text><text fill="#000000" font-family="sans-serif" font-size="13" lengthAdjust="spacing" textLength="347" x="79.5" y="147.4561">Show the occupancy rate of a given ship at a given moment.</text><polygon fill="#A80036" points="467.5,178.6641,477.5,182.6641,467.5,186.6641,471.5,182.6641" style="stroke:#A80036;stroke-width:1.0;"/><line style="stroke:#A80036;stroke-width:1.0;" x1="51.5" x2="473.5" y1="182.6641" y2="182.6641"/><text fill="#000000" font-family="sans-serif" font-size="13" font-weight="bold" lengthAdjust="spacing" textLength="7" x="58.5" y="177.8076">3</text><text fill="#000000" font-family="sans-serif" font-size="13" lengthAdjust="spacing" textLength="68" x="69.5" y="177.8076">Insert mmsi</text><polygon fill="#A80036" points="645.5,209.0156,655.5,213.0156,645.5,217.0156,649.5,213.0156" style="stroke:#A80036;stroke-width:1.0;"/><line style="stroke:#A80036;stroke-width:1.0;" x1="489.5" x2="651.5" y1="213.0156" y2="213.0156"/><text fill="#000000" font-family="sans-serif" font-size="13" font-weight="bold" lengthAdjust="spacing" textLength="7" x="496.5" y="208.1592">4</text><text fill="#000000" font-family="sans-serif" font-size="13" lengthAdjust="spacing" textLength="124" x="507.5" y="208.1592">getOccupancy(mmsi)</text><polygon fill="#A80036" points="835.5,239.3672,845.5,243.3672,835.5,247.3672,839.5,243.3672" style="stroke:#A80036;stroke-width:1.0;"/><line style="stroke:#A80036;stroke-width:1.0;" x1="667.5" x2="841.5" y1="243.3672" y2="243.3672"/><text fill="#000000" font-family="sans-serif" font-size="13" font-weight="bold" lengthAdjust="spacing" textLength="7" x="674.5" y="238.5107">5</text><text fill="#000000" font-family="sans-serif" font-size="13" lengthAdjust="spacing" textLength="150" x="685.5" y="238.5107">getOccupancyRateStore()</text><polygon fill="#A80036" points="1025.5,269.7188,1035.5,273.7188,1025.5,277.7188,1029.5,273.7188" style="stroke:#A80036;stroke-width:1.0;"/><line style="stroke:#A80036;stroke-width:1.0;" x1="857.5" x2="1031.5" y1="273.7188" y2="273.7188"/><text fill="#000000" font-family="sans-serif" font-size="13" font-weight="bold" lengthAdjust="spacing" textLength="7" x="864.5" y="268.8623">6</text><text fill="#000000" font-family="sans-serif" font-size="13" lengthAdjust="spacing" textLength="150" x="875.5" y="268.8623">getOccupancyRateStore()</text><polygon fill="#A80036" points="1025.5,330.0703,1035.5,334.0703,1025.5,338.0703,1029.5,334.0703" style="stroke:#A80036;stroke-width:1.0;"/><line style="stroke:#A80036;stroke-width:1.0;" x1="667.5" x2="1031.5" y1="334.0703" y2="334.0703"/><text fill="#000000" font-family="sans-serif" font-size="13" font-weight="bold" lengthAdjust="spacing" textLength="7" x="674.5" y="329.2139">7</text><text fill="#000000" font-family="sans-serif" font-size="13" lengthAdjust="spacing" textLength="151" x="685.5" y="329.2139">getOccupancyRate(mmsi)</text><polygon fill="#A80036" points="678.5,360.4219,668.5,364.4219,678.5,368.4219,674.5,364.4219" style="stroke:#A80036;stroke-width:1.0;"/><line style="stroke:#A80036;stroke-width:1.0;stroke-dasharray:2.0,2.0;" x1="672.5" x2="1041.5" y1="364.4219" y2="364.4219"/><text fill="#000000" font-family="sans-serif" font-size="13" font-weight="bold" lengthAdjust="spacing" textLength="7" x="684.5" y="359.5654">8</text><text fill="#000000" font-family="sans-serif" font-size="13" lengthAdjust="spacing" textLength="133" x="695.5" y="359.5654">returns occupancy rate</text><polygon fill="#A80036" points="500.5,390.7734,490.5,394.7734,500.5,398.7734,496.5,394.7734" style="stroke:#A80036;stroke-width:1.0;"/><line style="stroke:#A80036;stroke-width:1.0;stroke-dasharray:2.0,2.0;" x1="494.5" x2="661.5" y1="394.7734" y2="394.7734"/><text fill="#000000" font-family="sans-serif" font-size="13" font-weight="bold" lengthAdjust="spacing" textLength="7" x="506.5" y="389.917">9</text><text fill="#000000" font-family="sans-serif" font-size="13" lengthAdjust="spacing" textLength="133" x="517.5" y="389.917">returns occupancy rate</text><polygon fill="#A80036" points="57.5,421.125,47.5,425.125,57.5,429.125,53.5,425.125" style="stroke:#A80036;stroke-width:1.0;"/><line style="stroke:#A80036;stroke-width:1.0;stroke-dasharray:2.0,2.0;" x1="51.5" x2="483.5" y1="425.125" y2="425.125"/><text fill="#000000" font-family="sans-serif" font-size="13" font-weight="bold" lengthAdjust="spacing" textLength="14" x="63.5" y="420.2686">10</text><text fill="#000000" font-family="sans-serif" font-size="13" lengthAdjust="spacing" textLength="133" x="81.5" y="420.2686">returns occupancy rate</text><!--MD5=[ef6d6eff4d95cce0ccf102a8d9fd869c]
@startuml
autonumber
actor ShipCaptain as sc

participant ":OccupancyRateUI" as orui
participant ":OccupancyRateController" as orc
participant ":Company" as comp
participant ":OccupancyRateStore" as ors

activate sc
sc -> orui : I want to know the occupancy rate of a given ship at a given moment.
activate orui
orui - -> sc : Show the occupancy rate of a given ship at a given moment.
deactivate orui
sc -> orui : Insert mmsi 
activate orui
orui -> orc : getOccupancy(mmsi)
activate orc
orc -> comp : getOccupancyRateStore()
activate comp
comp -> ors : getOccupancyRateStore()
activate ors
deactivate ors
deactivate comp
orc -> ors : getOccupancyRate(mmsi)
activate ors
ors - -> orc : returns occupancy rate
deactivate ors
orc - -> orui : returns occupancy rate
deactivate orc
orui - -> sc : returns occupancy rate
deactivate orui
deactivate sc
@enduml

PlantUML version 1.2021.11(Sat Oct 02 14:26:11 BST 2021)
(GPL source distribution)
Java Runtime: OpenJDK Runtime Environment
JVM: OpenJDK 64-Bit Server VM
Default Encoding: Cp1252
Language: pt
Country: PT
--></g></svg>