<?xml version="1.0" encoding="UTF-8" standalone="no"?><svg xmlns="http://www.w3.org/2000/svg" xmlns:xlink="http://www.w3.org/1999/xlink" contentScriptType="application/ecmascript" contentStyleType="text/css" height="476px" preserveAspectRatio="none" style="width:288px;height:476px;background:#FFFFFF;" version="1.1" viewBox="0 0 288 476" width="288px" zoomAndPan="magnify"><defs><filter height="300%" id="fbocetwz6loea" width="300%" x="-1" y="-1"><feGaussianBlur result="blurOut" stdDeviation="2.0"/><feColorMatrix in="blurOut" result="blurOut2" type="matrix" values="0 0 0 0 0 0 0 0 0 0 0 0 0 0 0 0 0 0 .4 0"/><feOffset dx="4.0" dy="4.0" in="blurOut2" result="blurOut3"/><feBlend in="SourceGraphic" in2="blurOut3" mode="normal"/></filter></defs><g><!--MD5=[df76e760f2062188d44f98c21a88999b]
class UI--><rect codeLine="1" fill="#FEFECE" filter="url(#fbocetwz6loea)" height="75.6719" id="UI" style="stroke:#A80036;stroke-width:1.5;" width="56" x="112.5" y="7"/><ellipse cx="132.9" cy="23" fill="#ADD1B2" rx="11" ry="11" style="stroke:#A80036;stroke-width:1.0;"/><path d="M134.9,19.5 Q135.1031,19 135.3375,18.75 Q135.5719,18.5 135.8375,18.5 Q136.3063,18.5 136.6031,18.7813 Q136.9,19.0625 136.9,19.7188 L136.9,21.2813 Q136.9,21.9375 136.6188,22.2188 Q136.3375,22.5 135.9,22.5 Q135.5094,22.5 135.2594,22.3281 Q135.0094,22.1563 134.9,21.7031 Q134.8531,21.3906 134.6813,21.2188 Q134.3688,20.8906 133.8063,20.7031 Q133.2438,20.5 132.6813,20.5 Q131.9781,20.5 131.3844,20.7813 Q130.8063,21.0625 130.3531,21.6875 Q129.9,22.3125 129.9,23.1719 L129.9,24.0938 Q129.9,25.125 130.7438,25.8125 Q131.5875,26.5 133.0875,26.5 Q133.9781,26.5 134.6031,26.2969 Q134.9625,26.1875 135.3688,25.8281 Q135.6344,25.625 135.775,25.5625 Q135.9156,25.5 136.0875,25.5 Q136.4156,25.5 136.65,25.7656 Q136.9,26.0156 136.9,26.375 Q136.9,26.7188 136.5563,27.125 Q136.0563,27.7188 135.2594,28.0469 Q134.2125,28.5 132.9313,28.5 Q131.4313,28.5 130.2281,27.9063 Q129.2594,27.4375 128.5719,26.4219 Q127.9,25.4063 127.9,24.2031 L127.9,23.1094 Q127.9,21.8594 128.4938,20.7656 Q129.1031,19.6719 130.15,19.0938 Q131.2125,18.5 132.4,18.5 Q133.1188,18.5 133.7438,18.75 Q134.3688,19 134.9,19.5 Z " fill="#000000"/><text fill="#000000" font-family="sans-serif" font-size="12" lengthAdjust="spacing" textLength="12" x="148.1" y="27.9102">UI</text><line style="stroke:#A80036;stroke-width:1.5;" x1="113.5" x2="167.5" y1="39" y2="39"/><rect fill="none" height="6" style="stroke:#C82930;stroke-width:1.0;" width="6" x="120.5" y="47"/><text fill="#000000" font-family="sans-serif" font-size="11" lengthAdjust="spacing" textLength="24" x="132.5" y="54.4189">mmsi</text><rect fill="none" height="6" style="stroke:#C82930;stroke-width:1.0;" width="6" x="120.5" y="60.8359"/><text fill="#000000" font-family="sans-serif" font-size="11" lengthAdjust="spacing" textLength="30" x="132.5" y="68.2549">period</text><line style="stroke:#A80036;stroke-width:1.5;" x1="113.5" x2="167.5" y1="74.6719" y2="74.6719"/><!--MD5=[1d7ba1c7002d54515419844fbd155368]
class Controller--><rect codeLine="6" fill="#FEFECE" filter="url(#fbocetwz6loea)" height="75.6719" id="Controller" style="stroke:#A80036;stroke-width:1.5;" width="267" x="7" y="143"/><ellipse cx="109.25" cy="159" fill="#ADD1B2" rx="11" ry="11" style="stroke:#A80036;stroke-width:1.0;"/><path d="M111.25,155.5 Q111.4531,155 111.6875,154.75 Q111.9219,154.5 112.1875,154.5 Q112.6563,154.5 112.9531,154.7813 Q113.25,155.0625 113.25,155.7188 L113.25,157.2813 Q113.25,157.9375 112.9688,158.2188 Q112.6875,158.5 112.25,158.5 Q111.8594,158.5 111.6094,158.3281 Q111.3594,158.1563 111.25,157.7031 Q111.2031,157.3906 111.0313,157.2188 Q110.7188,156.8906 110.1563,156.7031 Q109.5938,156.5 109.0313,156.5 Q108.3281,156.5 107.7344,156.7813 Q107.1563,157.0625 106.7031,157.6875 Q106.25,158.3125 106.25,159.1719 L106.25,160.0938 Q106.25,161.125 107.0938,161.8125 Q107.9375,162.5 109.4375,162.5 Q110.3281,162.5 110.9531,162.2969 Q111.3125,162.1875 111.7188,161.8281 Q111.9844,161.625 112.125,161.5625 Q112.2656,161.5 112.4375,161.5 Q112.7656,161.5 113,161.7656 Q113.25,162.0156 113.25,162.375 Q113.25,162.7188 112.9063,163.125 Q112.4063,163.7188 111.6094,164.0469 Q110.5625,164.5 109.2813,164.5 Q107.7813,164.5 106.5781,163.9063 Q105.6094,163.4375 104.9219,162.4219 Q104.25,161.4063 104.25,160.2031 L104.25,159.1094 Q104.25,157.8594 104.8438,156.7656 Q105.4531,155.6719 106.5,155.0938 Q107.5625,154.5 108.75,154.5 Q109.4688,154.5 110.0938,154.75 Q110.7188,155 111.25,155.5 Z " fill="#000000"/><text fill="#000000" font-family="sans-serif" font-size="12" lengthAdjust="spacing" textLength="54" x="129.75" y="163.9102">Controller</text><line style="stroke:#A80036;stroke-width:1.5;" x1="8" x2="273" y1="175" y2="175"/><line style="stroke:#A80036;stroke-width:1.5;" x1="8" x2="273" y1="183" y2="183"/><ellipse cx="18" cy="194" fill="#84BE84" rx="3" ry="3" style="stroke:#038048;stroke-width:1.0;"/><text fill="#000000" font-family="sans-serif" font-size="11" lengthAdjust="spacing" textLength="241" x="27" y="198.4189">getAverageOccupancyRateManifest(mmsi,period)</text><ellipse cx="18" cy="207.8359" fill="#84BE84" rx="3" ry="3" style="stroke:#038048;stroke-width:1.0;"/><text fill="#000000" font-family="sans-serif" font-size="11" lengthAdjust="spacing" textLength="210" x="27" y="212.2549">getAverageOccupancyRateManifestStore()</text><!--MD5=[02e4b9b7573f1156f41e60aa5b4e25a4]
class Company--><rect codeLine="11" fill="#FEFECE" filter="url(#fbocetwz6loea)" height="61.8359" id="Company" style="stroke:#A80036;stroke-width:1.5;" width="236" x="22.5" y="279"/><ellipse cx="109.75" cy="295" fill="#ADD1B2" rx="11" ry="11" style="stroke:#A80036;stroke-width:1.0;"/><path d="M111.75,291.5 Q111.9531,291 112.1875,290.75 Q112.4219,290.5 112.6875,290.5 Q113.1563,290.5 113.4531,290.7813 Q113.75,291.0625 113.75,291.7188 L113.75,293.2813 Q113.75,293.9375 113.4688,294.2188 Q113.1875,294.5 112.75,294.5 Q112.3594,294.5 112.1094,294.3281 Q111.8594,294.1563 111.75,293.7031 Q111.7031,293.3906 111.5313,293.2188 Q111.2188,292.8906 110.6563,292.7031 Q110.0938,292.5 109.5313,292.5 Q108.8281,292.5 108.2344,292.7813 Q107.6563,293.0625 107.2031,293.6875 Q106.75,294.3125 106.75,295.1719 L106.75,296.0938 Q106.75,297.125 107.5938,297.8125 Q108.4375,298.5 109.9375,298.5 Q110.8281,298.5 111.4531,298.2969 Q111.8125,298.1875 112.2188,297.8281 Q112.4844,297.625 112.625,297.5625 Q112.7656,297.5 112.9375,297.5 Q113.2656,297.5 113.5,297.7656 Q113.75,298.0156 113.75,298.375 Q113.75,298.7188 113.4063,299.125 Q112.9063,299.7188 112.1094,300.0469 Q111.0625,300.5 109.7813,300.5 Q108.2813,300.5 107.0781,299.9063 Q106.1094,299.4375 105.4219,298.4219 Q104.75,297.4063 104.75,296.2031 L104.75,295.1094 Q104.75,293.8594 105.3438,292.7656 Q105.9531,291.6719 107,291.0938 Q108.0625,290.5 109.25,290.5 Q109.9688,290.5 110.5938,290.75 Q111.2188,291 111.75,291.5 Z " fill="#000000"/><text fill="#000000" font-family="sans-serif" font-size="12" lengthAdjust="spacing" textLength="53" x="130.25" y="299.9102">Company</text><line style="stroke:#A80036;stroke-width:1.5;" x1="23.5" x2="257.5" y1="311" y2="311"/><line style="stroke:#A80036;stroke-width:1.5;" x1="23.5" x2="257.5" y1="319" y2="319"/><ellipse cx="33.5" cy="330" fill="#84BE84" rx="3" ry="3" style="stroke:#038048;stroke-width:1.0;"/><text fill="#000000" font-family="sans-serif" font-size="11" lengthAdjust="spacing" textLength="210" x="42.5" y="334.4189">getAverageOccupancyRateManifestStore()</text><!--MD5=[b4d3d50c0abf08df45181fececb9f04d]
class Store--><rect codeLine="15" fill="#FEFECE" filter="url(#fbocetwz6loea)" height="61.8359" id="Store" style="stroke:#A80036;stroke-width:1.5;" width="267" x="7" y="401"/><ellipse cx="121.75" cy="417" fill="#ADD1B2" rx="11" ry="11" style="stroke:#A80036;stroke-width:1.0;"/><path d="M123.75,413.5 Q123.9531,413 124.1875,412.75 Q124.4219,412.5 124.6875,412.5 Q125.1563,412.5 125.4531,412.7813 Q125.75,413.0625 125.75,413.7188 L125.75,415.2813 Q125.75,415.9375 125.4688,416.2188 Q125.1875,416.5 124.75,416.5 Q124.3594,416.5 124.1094,416.3281 Q123.8594,416.1563 123.75,415.7031 Q123.7031,415.3906 123.5313,415.2188 Q123.2188,414.8906 122.6563,414.7031 Q122.0938,414.5 121.5313,414.5 Q120.8281,414.5 120.2344,414.7813 Q119.6563,415.0625 119.2031,415.6875 Q118.75,416.3125 118.75,417.1719 L118.75,418.0938 Q118.75,419.125 119.5938,419.8125 Q120.4375,420.5 121.9375,420.5 Q122.8281,420.5 123.4531,420.2969 Q123.8125,420.1875 124.2188,419.8281 Q124.4844,419.625 124.625,419.5625 Q124.7656,419.5 124.9375,419.5 Q125.2656,419.5 125.5,419.7656 Q125.75,420.0156 125.75,420.375 Q125.75,420.7188 125.4063,421.125 Q124.9063,421.7188 124.1094,422.0469 Q123.0625,422.5 121.7813,422.5 Q120.2813,422.5 119.0781,421.9063 Q118.1094,421.4375 117.4219,420.4219 Q116.75,419.4063 116.75,418.2031 L116.75,417.1094 Q116.75,415.8594 117.3438,414.7656 Q117.9531,413.6719 119,413.0938 Q120.0625,412.5 121.25,412.5 Q121.9688,412.5 122.5938,412.75 Q123.2188,413 123.75,413.5 Z " fill="#000000"/><text fill="#000000" font-family="sans-serif" font-size="12" lengthAdjust="spacing" textLength="29" x="142.25" y="421.9102">Store</text><line style="stroke:#A80036;stroke-width:1.5;" x1="8" x2="273" y1="433" y2="433"/><line style="stroke:#A80036;stroke-width:1.5;" x1="8" x2="273" y1="441" y2="441"/><ellipse cx="18" cy="452" fill="#84BE84" rx="3" ry="3" style="stroke:#038048;stroke-width:1.0;"/><text fill="#000000" font-family="sans-serif" font-size="11" lengthAdjust="spacing" textLength="241" x="27" y="456.4189">getAverageOccupancyRateManifest(mmsi,period)</text><!--MD5=[132c963044dc2a803644bb1c6fd2eeb1]
link UI to Controller--><path codeLine="20" d="M140.5,83.33 C140.5,100.17 140.5,120.15 140.5,137.56 " fill="none" id="UI-to-Controller" style="stroke:#A80036;stroke-width:1.0;stroke-dasharray:7.0,7.0;"/><polygon fill="#A80036" points="140.5,142.87,144.5,133.87,140.5,137.87,136.5,133.87,140.5,142.87" style="stroke:#A80036;stroke-width:1.0;"/><!--MD5=[e6ed5f8d33eaf4b7717944dd53806eb1]
link Controller to Company--><path codeLine="21" d="M140.5,219.08 C140.5,236.33 140.5,256.74 140.5,273.76 " fill="none" id="Controller-to-Company" style="stroke:#A80036;stroke-width:1.0;stroke-dasharray:7.0,7.0;"/><polygon fill="#A80036" points="140.5,278.93,144.5,269.93,140.5,273.93,136.5,269.93,140.5,278.93" style="stroke:#A80036;stroke-width:1.0;"/><!--MD5=[94141ed6bd4db0a0d11426b15c5ddee2]
link Company to Store--><path codeLine="22" d="M140.5,341.28 C140.5,357.77 140.5,378.26 140.5,395.49 " fill="none" id="Company-to-Store" style="stroke:#A80036;stroke-width:1.0;stroke-dasharray:7.0,7.0;"/><polygon fill="#A80036" points="140.5,400.73,144.5,391.73,140.5,395.73,136.5,391.73,140.5,400.73" style="stroke:#A80036;stroke-width:1.0;"/><!--MD5=[7e77c0cda0e5b7cfff29c2906ddbab31]
@startuml
class UI{
    -mmsi
    -period
}

class Controller{
    +getAverageOccupancyRateManifest(mmsi,period)
    +getAverageOccupancyRateManifestStore()
}

class Company{
    +getAverageOccupancyRateManifestStore()
}

class Store{
    +getAverageOccupancyRateManifest(mmsi,period)
}


UI ..> Controller
Controller ..> Company
Company ..> Store


@enduml

PlantUML version 1.2021.11(Sat Oct 02 14:26:11 BST 2021)
(GPL source distribution)
Java Runtime: OpenJDK Runtime Environment
JVM: OpenJDK 64-Bit Server VM
Default Encoding: Cp1252
Language: pt
Country: PT
--></g></svg>