<?xml version="1.0" encoding="UTF-8" standalone="no"?><svg xmlns="http://www.w3.org/2000/svg" xmlns:xlink="http://www.w3.org/1999/xlink" contentScriptType="application/ecmascript" contentStyleType="text/css" height="316px" preserveAspectRatio="none" style="width:818px;height:316px;background:#FFFFFF;" version="1.1" viewBox="0 0 818 316" width="818px" zoomAndPan="magnify"><defs><filter height="300%" id="flitjzvlb906n" width="300%" x="-1" y="-1"><feGaussianBlur result="blurOut" stdDeviation="2.0"/><feColorMatrix in="blurOut" result="blurOut2" type="matrix" values="0 0 0 0 0 0 0 0 0 0 0 0 0 0 0 0 0 0 .4 0"/><feOffset dx="4.0" dy="4.0" in="blurOut2" result="blurOut3"/><feBlend in="SourceGraphic" in2="blurOut3" mode="normal"/></filter></defs><g><rect fill="#FFFFFF" filter="url(#flitjzvlb906n)" height="122.4063" style="stroke:#A80036;stroke-width:1.0;" width="10" x="43.5" y="99.6094"/><rect fill="#FFFFFF" filter="url(#flitjzvlb906n)" height="91.0547" style="stroke:#A80036;stroke-width:1.0;" width="10" x="540.5" y="121.9609"/><rect fill="#FFFFFF" filter="url(#flitjzvlb906n)" height="30.3516" style="stroke:#A80036;stroke-width:1.0;" width="10" x="771.5" y="152.3125"/><line style="stroke:#A80036;stroke-width:1.0;stroke-dasharray:5.0,5.0;" x1="48" x2="48" y1="89.6094" y2="231.0156"/><line style="stroke:#A80036;stroke-width:1.0;stroke-dasharray:5.0,5.0;" x1="545.5" x2="545.5" y1="89.6094" y2="231.0156"/><line style="stroke:#A80036;stroke-width:1.0;stroke-dasharray:5.0,5.0;" x1="776.5" x2="776.5" y1="89.6094" y2="231.0156"/><text fill="#000000" font-family="sans-serif" font-size="14" lengthAdjust="spacing" textLength="81" x="5" y="86.5332">Ship Captain</text><ellipse cx="48.5" cy="15" fill="#FEFECE" filter="url(#flitjzvlb906n)" rx="8" ry="8" style="stroke:#A80036;stroke-width:2.0;"/><path d="M48.5,23 L48.5,50 M35.5,31 L61.5,31 M48.5,50 L35.5,65 M48.5,50 L61.5,65 " fill="none" filter="url(#flitjzvlb906n)" style="stroke:#A80036;stroke-width:2.0;"/><text fill="#000000" font-family="sans-serif" font-size="14" lengthAdjust="spacing" textLength="81" x="5" y="244.5488">Ship Captain</text><ellipse cx="48.5" cy="257.625" fill="#FEFECE" filter="url(#flitjzvlb906n)" rx="8" ry="8" style="stroke:#A80036;stroke-width:2.0;"/><path d="M48.5,265.625 L48.5,292.625 M35.5,273.625 L61.5,273.625 M48.5,292.625 L35.5,307.625 M48.5,292.625 L61.5,307.625 " fill="none" filter="url(#flitjzvlb906n)" style="stroke:#A80036;stroke-width:2.0;"/><rect fill="#FEFECE" filter="url(#flitjzvlb906n)" height="31.6094" style="stroke:#A80036;stroke-width:1.5;" width="30" x="528.5" y="53"/><text fill="#000000" font-family="sans-serif" font-size="14" lengthAdjust="spacing" textLength="16" x="535.5" y="74.5332">:UI</text><rect fill="#FEFECE" filter="url(#flitjzvlb906n)" height="31.6094" style="stroke:#A80036;stroke-width:1.5;" width="30" x="528.5" y="230.0156"/><text fill="#000000" font-family="sans-serif" font-size="14" lengthAdjust="spacing" textLength="16" x="535.5" y="251.5488">:UI</text><rect fill="#FEFECE" filter="url(#flitjzvlb906n)" height="31.6094" style="stroke:#A80036;stroke-width:1.5;" width="60" x="744.5" y="53"/><text fill="#000000" font-family="sans-serif" font-size="14" lengthAdjust="spacing" textLength="46" x="751.5" y="74.5332">:US415</text><rect fill="#FEFECE" filter="url(#flitjzvlb906n)" height="31.6094" style="stroke:#A80036;stroke-width:1.5;" width="60" x="744.5" y="230.0156"/><text fill="#000000" font-family="sans-serif" font-size="14" lengthAdjust="spacing" textLength="46" x="751.5" y="251.5488">:US415</text><rect fill="#FFFFFF" filter="url(#flitjzvlb906n)" height="122.4063" style="stroke:#A80036;stroke-width:1.0;" width="10" x="43.5" y="99.6094"/><rect fill="#FFFFFF" filter="url(#flitjzvlb906n)" height="91.0547" style="stroke:#A80036;stroke-width:1.0;" width="10" x="540.5" y="121.9609"/><rect fill="#FFFFFF" filter="url(#flitjzvlb906n)" height="30.3516" style="stroke:#A80036;stroke-width:1.0;" width="10" x="771.5" y="152.3125"/><polygon fill="#A80036" points="528.5,117.9609,538.5,121.9609,528.5,125.9609,532.5,121.9609" style="stroke:#A80036;stroke-width:1.0;"/><line style="stroke:#A80036;stroke-width:1.0;" x1="53.5" x2="534.5" y1="121.9609" y2="121.9609"/><text fill="#000000" font-family="sans-serif" font-size="13" font-weight="bold" lengthAdjust="spacing" textLength="7" x="60.5" y="117.1045">1</text><text fill="#000000" font-family="sans-serif" font-size="13" lengthAdjust="spacing" textLength="457" x="71.5" y="117.1045">I need to know how many auxiliary power equipment are needed for the voyage.</text><polygon fill="#A80036" points="759.5,148.3125,769.5,152.3125,759.5,156.3125,763.5,152.3125" style="stroke:#A80036;stroke-width:1.0;"/><line style="stroke:#A80036;stroke-width:1.0;" x1="550.5" x2="765.5" y1="152.3125" y2="152.3125"/><text fill="#000000" font-family="sans-serif" font-size="13" font-weight="bold" lengthAdjust="spacing" textLength="7" x="557.5" y="147.4561">2</text><text fill="#000000" font-family="sans-serif" font-size="13" lengthAdjust="spacing" textLength="115" x="568.5" y="147.4561">numberGenerators()</text><polygon fill="#A80036" points="561.5,178.6641,551.5,182.6641,561.5,186.6641,557.5,182.6641" style="stroke:#A80036;stroke-width:1.0;"/><line style="stroke:#A80036;stroke-width:1.0;stroke-dasharray:2.0,2.0;" x1="555.5" x2="775.5" y1="182.6641" y2="182.6641"/><text fill="#000000" font-family="sans-serif" font-size="13" font-weight="bold" lengthAdjust="spacing" textLength="7" x="567.5" y="177.8076">3</text><text fill="#000000" font-family="sans-serif" font-size="13" lengthAdjust="spacing" textLength="186" x="578.5" y="177.8076">Return the number of generators</text><polygon fill="#A80036" points="64.5,209.0156,54.5,213.0156,64.5,217.0156,60.5,213.0156" style="stroke:#A80036;stroke-width:1.0;"/><line style="stroke:#A80036;stroke-width:1.0;stroke-dasharray:2.0,2.0;" x1="58.5" x2="544.5" y1="213.0156" y2="213.0156"/><text fill="#000000" font-family="sans-serif" font-size="13" font-weight="bold" lengthAdjust="spacing" textLength="7" x="70.5" y="208.1592">4</text><text fill="#000000" font-family="sans-serif" font-size="13" lengthAdjust="spacing" textLength="186" x="81.5" y="208.1592">Return the number of generators</text><!--MD5=[4140993c419f115adacd25bdb3d19cb4]
@startuml
autonumber
actor "Ship Captain" as SC

participant ":UI" as UI
participant ":US415" as US415

activate SC
SC -> UI: I need to know how many auxiliary power equipment are needed for the voyage.
activate UI
UI -> US415: numberGenerators()
activate US415
US415 - -> UI: Return the number of generators
deactivate US415
UI - -> SC: Return the number of generators
deactivate UI

@enduml

PlantUML version 1.2021.11(Sat Oct 02 14:26:11 BST 2021)
(GPL source distribution)
Java Runtime: OpenJDK Runtime Environment
JVM: OpenJDK 64-Bit Server VM
Default Encoding: Cp1252
Language: pt
Country: PT
--></g></svg>