<?xml version="1.0" encoding="UTF-8" standalone="no"?><svg xmlns="http://www.w3.org/2000/svg" xmlns:xlink="http://www.w3.org/1999/xlink" contentScriptType="application/ecmascript" contentStyleType="text/css" height="190px" preserveAspectRatio="none" style="width:146px;height:190px;background:#FFFFFF;" version="1.1" viewBox="0 0 146 190" width="146px" zoomAndPan="magnify"><defs><filter height="300%" id="f1iw187l9cdwn4" width="300%" x="-1" y="-1"><feGaussianBlur result="blurOut" stdDeviation="2.0"/><feColorMatrix in="blurOut" result="blurOut2" type="matrix" values="0 0 0 0 0 0 0 0 0 0 0 0 0 0 0 0 0 0 .4 0"/><feOffset dx="4.0" dy="4.0" in="blurOut2" result="blurOut3"/><feBlend in="SourceGraphic" in2="blurOut3" mode="normal"/></filter></defs><g><!--MD5=[df76e760f2062188d44f98c21a88999b]
class UI--><rect codeLine="1" fill="#FEFECE" filter="url(#f1iw187l9cdwn4)" height="48" id="UI" style="stroke:#A80036;stroke-width:1.5;" width="44" x="47.5" y="7"/><ellipse cx="62.5" cy="23" fill="#ADD1B2" rx="11" ry="11" style="stroke:#A80036;stroke-width:1.0;"/><path d="M64.5,19.5 Q64.7031,19 64.9375,18.75 Q65.1719,18.5 65.4375,18.5 Q65.9063,18.5 66.2031,18.7813 Q66.5,19.0625 66.5,19.7188 L66.5,21.2813 Q66.5,21.9375 66.2188,22.2188 Q65.9375,22.5 65.5,22.5 Q65.1094,22.5 64.8594,22.3281 Q64.6094,22.1563 64.5,21.7031 Q64.4531,21.3906 64.2813,21.2188 Q63.9688,20.8906 63.4063,20.7031 Q62.8438,20.5 62.2813,20.5 Q61.5781,20.5 60.9844,20.7813 Q60.4063,21.0625 59.9531,21.6875 Q59.5,22.3125 59.5,23.1719 L59.5,24.0938 Q59.5,25.125 60.3438,25.8125 Q61.1875,26.5 62.6875,26.5 Q63.5781,26.5 64.2031,26.2969 Q64.5625,26.1875 64.9688,25.8281 Q65.2344,25.625 65.375,25.5625 Q65.5156,25.5 65.6875,25.5 Q66.0156,25.5 66.25,25.7656 Q66.5,26.0156 66.5,26.375 Q66.5,26.7188 66.1563,27.125 Q65.6563,27.7188 64.8594,28.0469 Q63.8125,28.5 62.5313,28.5 Q61.0313,28.5 59.8281,27.9063 Q58.8594,27.4375 58.1719,26.4219 Q57.5,25.4063 57.5,24.2031 L57.5,23.1094 Q57.5,21.8594 58.0938,20.7656 Q58.7031,19.6719 59.75,19.0938 Q60.8125,18.5 62,18.5 Q62.7188,18.5 63.3438,18.75 Q63.9688,19 64.5,19.5 Z " fill="#000000"/><text fill="#000000" font-family="sans-serif" font-size="12" lengthAdjust="spacing" textLength="12" x="76.5" y="27.9102">UI</text><line style="stroke:#A80036;stroke-width:1.5;" x1="48.5" x2="90.5" y1="39" y2="39"/><line style="stroke:#A80036;stroke-width:1.5;" x1="48.5" x2="90.5" y1="47" y2="47"/><!--MD5=[7e3a413facf28edd3d911a9227df16a7]
class US415--><rect codeLine="4" fill="#FEFECE" filter="url(#f1iw187l9cdwn4)" height="61.8359" id="US415" style="stroke:#A80036;stroke-width:1.5;" width="125" x="7" y="115"/><ellipse cx="46.75" cy="131" fill="#ADD1B2" rx="11" ry="11" style="stroke:#A80036;stroke-width:1.0;"/><path d="M48.75,127.5 Q48.9531,127 49.1875,126.75 Q49.4219,126.5 49.6875,126.5 Q50.1563,126.5 50.4531,126.7813 Q50.75,127.0625 50.75,127.7188 L50.75,129.2813 Q50.75,129.9375 50.4688,130.2188 Q50.1875,130.5 49.75,130.5 Q49.3594,130.5 49.1094,130.3281 Q48.8594,130.1563 48.75,129.7031 Q48.7031,129.3906 48.5313,129.2188 Q48.2188,128.8906 47.6563,128.7031 Q47.0938,128.5 46.5313,128.5 Q45.8281,128.5 45.2344,128.7813 Q44.6563,129.0625 44.2031,129.6875 Q43.75,130.3125 43.75,131.1719 L43.75,132.0938 Q43.75,133.125 44.5938,133.8125 Q45.4375,134.5 46.9375,134.5 Q47.8281,134.5 48.4531,134.2969 Q48.8125,134.1875 49.2188,133.8281 Q49.4844,133.625 49.625,133.5625 Q49.7656,133.5 49.9375,133.5 Q50.2656,133.5 50.5,133.7656 Q50.75,134.0156 50.75,134.375 Q50.75,134.7188 50.4063,135.125 Q49.9063,135.7188 49.1094,136.0469 Q48.0625,136.5 46.7813,136.5 Q45.2813,136.5 44.0781,135.9063 Q43.1094,135.4375 42.4219,134.4219 Q41.75,133.4063 41.75,132.2031 L41.75,131.1094 Q41.75,129.8594 42.3438,128.7656 Q42.9531,127.6719 44,127.0938 Q45.0625,126.5 46.25,126.5 Q46.9688,126.5 47.5938,126.75 Q48.2188,127 48.75,127.5 Z " fill="#000000"/><text fill="#000000" font-family="sans-serif" font-size="12" lengthAdjust="spacing" textLength="38" x="66.25" y="135.9102">US415</text><line style="stroke:#A80036;stroke-width:1.5;" x1="8" x2="131" y1="147" y2="147"/><line style="stroke:#A80036;stroke-width:1.5;" x1="8" x2="131" y1="155" y2="155"/><ellipse cx="18" cy="166" fill="#84BE84" rx="3" ry="3" style="stroke:#038048;stroke-width:1.0;"/><text fill="#000000" font-family="sans-serif" font-size="11" lengthAdjust="spacing" textLength="99" x="27" y="170.4189">numberGenerators()</text><!--MD5=[d4790908be1a16f271b5f0a2d3124f6d]
link UI to US415--><path codeLine="8" d="M69.5,55.14 C69.5,70.71 69.5,91.53 69.5,109.22 " fill="none" id="UI-to-US415" style="stroke:#A80036;stroke-width:1.0;stroke-dasharray:7.0,7.0;"/><polygon fill="#A80036" points="69.5,114.6,73.5,105.6,69.5,109.6,65.5,105.6,69.5,114.6" style="stroke:#A80036;stroke-width:1.0;"/><!--MD5=[0c6977d2b703e3143c493f5c75a96ec2]
@startuml
class UI{
}

class US415{
    +numberGenerators()
}

UI ..> US415

@enduml

PlantUML version 1.2021.11(Sat Oct 02 14:26:11 BST 2021)
(GPL source distribution)
Java Runtime: OpenJDK Runtime Environment
JVM: OpenJDK 64-Bit Server VM
Default Encoding: Cp1252
Language: pt
Country: PT
--></g></svg>