<?xml version="1.0" encoding="UTF-8" standalone="no"?><svg xmlns="http://www.w3.org/2000/svg" xmlns:xlink="http://www.w3.org/1999/xlink" contentScriptType="application/ecmascript" contentStyleType="text/css" height="255px" preserveAspectRatio="none" style="width:572px;height:255px;background:#FFFFFF;" version="1.1" viewBox="0 0 572 255" width="572px" zoomAndPan="magnify"><defs><filter height="300%" id="fweuau7copnvc" width="300%" x="-1" y="-1"><feGaussianBlur result="blurOut" stdDeviation="2.0"/><feColorMatrix in="blurOut" result="blurOut2" type="matrix" values="0 0 0 0 0 0 0 0 0 0 0 0 0 0 0 0 0 0 .4 0"/><feOffset dx="4.0" dy="4.0" in="blurOut2" result="blurOut3"/><feBlend in="SourceGraphic" in2="blurOut3" mode="normal"/></filter></defs><g><rect fill="#FFFFFF" filter="url(#fweuau7copnvc)" height="61.7031" style="stroke:#A80036;stroke-width:1.0;" width="10" x="43.5" y="99.6094"/><rect fill="#FFFFFF" filter="url(#fweuau7copnvc)" height="30.3516" style="stroke:#A80036;stroke-width:1.0;" width="10" x="540.5" y="121.9609"/><line style="stroke:#A80036;stroke-width:1.0;stroke-dasharray:5.0,5.0;" x1="48" x2="48" y1="89.6094" y2="170.3125"/><line style="stroke:#A80036;stroke-width:1.0;stroke-dasharray:5.0,5.0;" x1="545.5" x2="545.5" y1="89.6094" y2="170.3125"/><text fill="#000000" font-family="sans-serif" font-size="14" lengthAdjust="spacing" textLength="81" x="5" y="86.5332">Ship Captain</text><ellipse cx="48.5" cy="15" fill="#FEFECE" filter="url(#fweuau7copnvc)" rx="8" ry="8" style="stroke:#A80036;stroke-width:2.0;"/><path d="M48.5,23 L48.5,50 M35.5,31 L61.5,31 M48.5,50 L35.5,65 M48.5,50 L61.5,65 " fill="none" filter="url(#fweuau7copnvc)" style="stroke:#A80036;stroke-width:2.0;"/><text fill="#000000" font-family="sans-serif" font-size="14" lengthAdjust="spacing" textLength="81" x="5" y="183.8457">Ship Captain</text><ellipse cx="48.5" cy="196.9219" fill="#FEFECE" filter="url(#fweuau7copnvc)" rx="8" ry="8" style="stroke:#A80036;stroke-width:2.0;"/><path d="M48.5,204.9219 L48.5,231.9219 M35.5,212.9219 L61.5,212.9219 M48.5,231.9219 L35.5,246.9219 M48.5,231.9219 L61.5,246.9219 " fill="none" filter="url(#fweuau7copnvc)" style="stroke:#A80036;stroke-width:2.0;"/><rect fill="#FEFECE" filter="url(#fweuau7copnvc)" height="31.6094" style="stroke:#A80036;stroke-width:1.5;" width="30" x="528.5" y="53"/><text fill="#000000" font-family="sans-serif" font-size="14" lengthAdjust="spacing" textLength="16" x="535.5" y="74.5332">:UI</text><rect fill="#FEFECE" filter="url(#fweuau7copnvc)" height="31.6094" style="stroke:#A80036;stroke-width:1.5;" width="30" x="528.5" y="169.3125"/><text fill="#000000" font-family="sans-serif" font-size="14" lengthAdjust="spacing" textLength="16" x="535.5" y="190.8457">:UI</text><rect fill="#FFFFFF" filter="url(#fweuau7copnvc)" height="61.7031" style="stroke:#A80036;stroke-width:1.0;" width="10" x="43.5" y="99.6094"/><rect fill="#FFFFFF" filter="url(#fweuau7copnvc)" height="30.3516" style="stroke:#A80036;stroke-width:1.0;" width="10" x="540.5" y="121.9609"/><polygon fill="#A80036" points="528.5,117.9609,538.5,121.9609,528.5,125.9609,532.5,121.9609" style="stroke:#A80036;stroke-width:1.0;"/><line style="stroke:#A80036;stroke-width:1.0;" x1="53.5" x2="534.5" y1="121.9609" y2="121.9609"/><text fill="#000000" font-family="sans-serif" font-size="13" font-weight="bold" lengthAdjust="spacing" textLength="7" x="60.5" y="117.1045">1</text><text fill="#000000" font-family="sans-serif" font-size="13" lengthAdjust="spacing" textLength="457" x="71.5" y="117.1045">I need to know how many auxiliary power equipment are needed for the voyage.</text><polygon fill="#A80036" points="64.5,148.3125,54.5,152.3125,64.5,156.3125,60.5,152.3125" style="stroke:#A80036;stroke-width:1.0;"/><line style="stroke:#A80036;stroke-width:1.0;stroke-dasharray:2.0,2.0;" x1="58.5" x2="544.5" y1="152.3125" y2="152.3125"/><text fill="#000000" font-family="sans-serif" font-size="13" font-weight="bold" lengthAdjust="spacing" textLength="7" x="70.5" y="147.4561">2</text><text fill="#000000" font-family="sans-serif" font-size="13" lengthAdjust="spacing" textLength="186" x="81.5" y="147.4561">Return the number of generators</text><!--MD5=[7b41a9edc31b13a1b14f6af6b358173d]
@startuml
autonumber
actor "Ship Captain" as SC

participant ":UI" as UI

activate SC
SC -> UI: I need to know how many auxiliary power equipment are needed for the voyage.
activate UI
UI - -> SC: Return the number of generators
deactivate UI

@enduml

PlantUML version 1.2021.11(Sat Oct 02 14:26:11 BST 2021)
(GPL source distribution)
Java Runtime: OpenJDK Runtime Environment
JVM: OpenJDK 64-Bit Server VM
Default Encoding: Cp1252
Language: pt
Country: PT
--></g></svg>