<?xml version="1.0" encoding="UTF-8" standalone="no"?><svg xmlns="http://www.w3.org/2000/svg" xmlns:xlink="http://www.w3.org/1999/xlink" contentScriptType="application/ecmascript" contentStyleType="text/css" height="434px" preserveAspectRatio="none" style="width:251px;height:434px;background:#FFFFFF;" version="1.1" viewBox="0 0 251 434" width="251px" zoomAndPan="magnify"><defs><filter height="300%" id="f1usc1m8zkecdx" width="300%" x="-1" y="-1"><feGaussianBlur result="blurOut" stdDeviation="2.0"/><feColorMatrix in="blurOut" result="blurOut2" type="matrix" values="0 0 0 0 0 0 0 0 0 0 0 0 0 0 0 0 0 0 .4 0"/><feOffset dx="4.0" dy="4.0" in="blurOut2" result="blurOut3"/><feBlend in="SourceGraphic" in2="blurOut3" mode="normal"/></filter></defs><g><!--MD5=[3290a66fbe226781d8993540d697648d]
class OccupancyRateUI--><rect codeLine="1" fill="#FEFECE" filter="url(#f1usc1m8zkecdx)" height="48" id="OccupancyRateUI" style="stroke:#A80036;stroke-width:1.5;" width="130" x="83.5" y="7"/><ellipse cx="98.5" cy="23" fill="#ADD1B2" rx="11" ry="11" style="stroke:#A80036;stroke-width:1.0;"/><path d="M100.5,19.5 Q100.7031,19 100.9375,18.75 Q101.1719,18.5 101.4375,18.5 Q101.9063,18.5 102.2031,18.7813 Q102.5,19.0625 102.5,19.7188 L102.5,21.2813 Q102.5,21.9375 102.2188,22.2188 Q101.9375,22.5 101.5,22.5 Q101.1094,22.5 100.8594,22.3281 Q100.6094,22.1563 100.5,21.7031 Q100.4531,21.3906 100.2813,21.2188 Q99.9688,20.8906 99.4063,20.7031 Q98.8438,20.5 98.2813,20.5 Q97.5781,20.5 96.9844,20.7813 Q96.4063,21.0625 95.9531,21.6875 Q95.5,22.3125 95.5,23.1719 L95.5,24.0938 Q95.5,25.125 96.3438,25.8125 Q97.1875,26.5 98.6875,26.5 Q99.5781,26.5 100.2031,26.2969 Q100.5625,26.1875 100.9688,25.8281 Q101.2344,25.625 101.375,25.5625 Q101.5156,25.5 101.6875,25.5 Q102.0156,25.5 102.25,25.7656 Q102.5,26.0156 102.5,26.375 Q102.5,26.7188 102.1563,27.125 Q101.6563,27.7188 100.8594,28.0469 Q99.8125,28.5 98.5313,28.5 Q97.0313,28.5 95.8281,27.9063 Q94.8594,27.4375 94.1719,26.4219 Q93.5,25.4063 93.5,24.2031 L93.5,23.1094 Q93.5,21.8594 94.0938,20.7656 Q94.7031,19.6719 95.75,19.0938 Q96.8125,18.5 98,18.5 Q98.7188,18.5 99.3438,18.75 Q99.9688,19 100.5,19.5 Z " fill="#000000"/><text fill="#000000" font-family="sans-serif" font-size="12" lengthAdjust="spacing" textLength="98" x="112.5" y="27.9102">OccupancyRateUI</text><line style="stroke:#A80036;stroke-width:1.5;" x1="84.5" x2="212.5" y1="39" y2="39"/><line style="stroke:#A80036;stroke-width:1.5;" x1="84.5" x2="212.5" y1="47" y2="47"/><!--MD5=[9031d846d186f456c35bb211c48c30c0]
class OccupancyRateController--><rect codeLine="4" fill="#FEFECE" filter="url(#f1usc1m8zkecdx)" height="61.8359" id="OccupancyRateController" style="stroke:#A80036;stroke-width:1.5;" width="172" x="62.5" y="115"/><ellipse cx="77.5" cy="131" fill="#ADD1B2" rx="11" ry="11" style="stroke:#A80036;stroke-width:1.0;"/><path d="M79.5,127.5 Q79.7031,127 79.9375,126.75 Q80.1719,126.5 80.4375,126.5 Q80.9063,126.5 81.2031,126.7813 Q81.5,127.0625 81.5,127.7188 L81.5,129.2813 Q81.5,129.9375 81.2188,130.2188 Q80.9375,130.5 80.5,130.5 Q80.1094,130.5 79.8594,130.3281 Q79.6094,130.1563 79.5,129.7031 Q79.4531,129.3906 79.2813,129.2188 Q78.9688,128.8906 78.4063,128.7031 Q77.8438,128.5 77.2813,128.5 Q76.5781,128.5 75.9844,128.7813 Q75.4063,129.0625 74.9531,129.6875 Q74.5,130.3125 74.5,131.1719 L74.5,132.0938 Q74.5,133.125 75.3438,133.8125 Q76.1875,134.5 77.6875,134.5 Q78.5781,134.5 79.2031,134.2969 Q79.5625,134.1875 79.9688,133.8281 Q80.2344,133.625 80.375,133.5625 Q80.5156,133.5 80.6875,133.5 Q81.0156,133.5 81.25,133.7656 Q81.5,134.0156 81.5,134.375 Q81.5,134.7188 81.1563,135.125 Q80.6563,135.7188 79.8594,136.0469 Q78.8125,136.5 77.5313,136.5 Q76.0313,136.5 74.8281,135.9063 Q73.8594,135.4375 73.1719,134.4219 Q72.5,133.4063 72.5,132.2031 L72.5,131.1094 Q72.5,129.8594 73.0938,128.7656 Q73.7031,127.6719 74.75,127.0938 Q75.8125,126.5 77,126.5 Q77.7188,126.5 78.3438,126.75 Q78.9688,127 79.5,127.5 Z " fill="#000000"/><text fill="#000000" font-family="sans-serif" font-size="12" lengthAdjust="spacing" textLength="140" x="91.5" y="135.9102">OccupancyRateController</text><line style="stroke:#A80036;stroke-width:1.5;" x1="63.5" x2="233.5" y1="147" y2="147"/><line style="stroke:#A80036;stroke-width:1.5;" x1="63.5" x2="233.5" y1="155" y2="155"/><ellipse cx="73.5" cy="166" fill="#84BE84" rx="3" ry="3" style="stroke:#038048;stroke-width:1.0;"/><text fill="#000000" font-family="sans-serif" font-size="11" lengthAdjust="spacing" textLength="130" x="82.5" y="170.4189">getOccupancy(mmsi, date)</text><!--MD5=[02e4b9b7573f1156f41e60aa5b4e25a4]
class Company--><rect codeLine="8" fill="#FEFECE" filter="url(#f1usc1m8zkecdx)" height="61.8359" id="Company" style="stroke:#A80036;stroke-width:1.5;" width="153" x="7" y="237"/><ellipse cx="52.75" cy="253" fill="#ADD1B2" rx="11" ry="11" style="stroke:#A80036;stroke-width:1.0;"/><path d="M54.75,249.5 Q54.9531,249 55.1875,248.75 Q55.4219,248.5 55.6875,248.5 Q56.1563,248.5 56.4531,248.7813 Q56.75,249.0625 56.75,249.7188 L56.75,251.2813 Q56.75,251.9375 56.4688,252.2188 Q56.1875,252.5 55.75,252.5 Q55.3594,252.5 55.1094,252.3281 Q54.8594,252.1563 54.75,251.7031 Q54.7031,251.3906 54.5313,251.2188 Q54.2188,250.8906 53.6563,250.7031 Q53.0938,250.5 52.5313,250.5 Q51.8281,250.5 51.2344,250.7813 Q50.6563,251.0625 50.2031,251.6875 Q49.75,252.3125 49.75,253.1719 L49.75,254.0938 Q49.75,255.125 50.5938,255.8125 Q51.4375,256.5 52.9375,256.5 Q53.8281,256.5 54.4531,256.2969 Q54.8125,256.1875 55.2188,255.8281 Q55.4844,255.625 55.625,255.5625 Q55.7656,255.5 55.9375,255.5 Q56.2656,255.5 56.5,255.7656 Q56.75,256.0156 56.75,256.375 Q56.75,256.7188 56.4063,257.125 Q55.9063,257.7188 55.1094,258.0469 Q54.0625,258.5 52.7813,258.5 Q51.2813,258.5 50.0781,257.9063 Q49.1094,257.4375 48.4219,256.4219 Q47.75,255.4063 47.75,254.2031 L47.75,253.1094 Q47.75,251.8594 48.3438,250.7656 Q48.9531,249.6719 50,249.0938 Q51.0625,248.5 52.25,248.5 Q52.9688,248.5 53.5938,248.75 Q54.2188,249 54.75,249.5 Z " fill="#000000"/><text fill="#000000" font-family="sans-serif" font-size="12" lengthAdjust="spacing" textLength="53" x="73.25" y="257.9102">Company</text><line style="stroke:#A80036;stroke-width:1.5;" x1="8" x2="159" y1="269" y2="269"/><line style="stroke:#A80036;stroke-width:1.5;" x1="8" x2="159" y1="277" y2="277"/><ellipse cx="18" cy="288" fill="#84BE84" rx="3" ry="3" style="stroke:#038048;stroke-width:1.0;"/><text fill="#000000" font-family="sans-serif" font-size="11" lengthAdjust="spacing" textLength="127" x="27" y="292.4189">getOccupancyRateStore()</text><!--MD5=[7e857f1fc8405913d7d6d9b07d2a2fd4]
class OccupancyRateStore--><rect codeLine="12" fill="#FEFECE" filter="url(#f1usc1m8zkecdx)" height="61.8359" id="OccupancyRateStore" style="stroke:#A80036;stroke-width:1.5;" width="178" x="59.5" y="359"/><ellipse cx="88.45" cy="375" fill="#ADD1B2" rx="11" ry="11" style="stroke:#A80036;stroke-width:1.0;"/><path d="M90.45,371.5 Q90.6531,371 90.8875,370.75 Q91.1219,370.5 91.3875,370.5 Q91.8563,370.5 92.1531,370.7813 Q92.45,371.0625 92.45,371.7188 L92.45,373.2813 Q92.45,373.9375 92.1688,374.2188 Q91.8875,374.5 91.45,374.5 Q91.0594,374.5 90.8094,374.3281 Q90.5594,374.1563 90.45,373.7031 Q90.4031,373.3906 90.2313,373.2188 Q89.9188,372.8906 89.3563,372.7031 Q88.7938,372.5 88.2313,372.5 Q87.5281,372.5 86.9344,372.7813 Q86.3563,373.0625 85.9031,373.6875 Q85.45,374.3125 85.45,375.1719 L85.45,376.0938 Q85.45,377.125 86.2938,377.8125 Q87.1375,378.5 88.6375,378.5 Q89.5281,378.5 90.1531,378.2969 Q90.5125,378.1875 90.9188,377.8281 Q91.1844,377.625 91.325,377.5625 Q91.4656,377.5 91.6375,377.5 Q91.9656,377.5 92.2,377.7656 Q92.45,378.0156 92.45,378.375 Q92.45,378.7188 92.1063,379.125 Q91.6063,379.7188 90.8094,380.0469 Q89.7625,380.5 88.4813,380.5 Q86.9813,380.5 85.7781,379.9063 Q84.8094,379.4375 84.1219,378.4219 Q83.45,377.4063 83.45,376.2031 L83.45,375.1094 Q83.45,373.8594 84.0438,372.7656 Q84.6531,371.6719 85.7,371.0938 Q86.7625,370.5 87.95,370.5 Q88.6688,370.5 89.2938,370.75 Q89.9188,371 90.45,371.5 Z " fill="#000000"/><text fill="#000000" font-family="sans-serif" font-size="12" lengthAdjust="spacing" textLength="115" x="105.55" y="379.9102">OccupancyRateStore</text><line style="stroke:#A80036;stroke-width:1.5;" x1="60.5" x2="236.5" y1="391" y2="391"/><line style="stroke:#A80036;stroke-width:1.5;" x1="60.5" x2="236.5" y1="399" y2="399"/><ellipse cx="70.5" cy="410" fill="#84BE84" rx="3" ry="3" style="stroke:#038048;stroke-width:1.0;"/><text fill="#000000" font-family="sans-serif" font-size="11" lengthAdjust="spacing" textLength="152" x="79.5" y="414.4189">getOccupancyRate(mmsi, date)</text><!--MD5=[6146df68144618e66810121db03f5a39]
link OccupancyRateUI to OccupancyRateController--><path codeLine="16" d="M148.5,55.14 C148.5,70.71 148.5,91.53 148.5,109.22 " fill="none" id="OccupancyRateUI-to-OccupancyRateController" style="stroke:#A80036;stroke-width:1.0;stroke-dasharray:7.0,7.0;"/><polygon fill="#A80036" points="148.5,114.6,152.5,105.6,148.5,109.6,144.5,105.6,148.5,114.6" style="stroke:#A80036;stroke-width:1.0;"/><!--MD5=[747f2d5fb3e2cfbbc9721fbe6b8b1b88]
link OccupancyRateController to Company--><path codeLine="17" d="M132.1,177.28 C123.09,193.91 111.88,214.61 102.49,231.94 " fill="none" id="OccupancyRateController-to-Company" style="stroke:#A80036;stroke-width:1.0;stroke-dasharray:7.0,7.0;"/><polygon fill="#A80036" points="99.9,236.73,107.7062,230.7248,102.2833,232.3345,100.6735,226.9116,99.9,236.73" style="stroke:#A80036;stroke-width:1.0;"/><!--MD5=[36b69d3f925b42622dd26e3c2dc53f9e]
link Company to OccupancyRateStore--><path codeLine="18" d="M99.9,299.28 C108.91,315.91 120.12,336.61 129.51,353.94 " fill="none" id="Company-to-OccupancyRateStore" style="stroke:#A80036;stroke-width:1.0;"/><polygon fill="#A80036" points="132.1,358.73,131.3265,348.9116,129.7167,354.3345,124.2938,352.7248,132.1,358.73" style="stroke:#A80036;stroke-width:1.0;"/><!--MD5=[a56c3b2137599402f70f2475641b76fc]
link OccupancyRateController to OccupancyRateStore--><path codeLine="19" d="M160.86,177.25 C167.21,194.44 174.29,216.57 177.5,237 C181.78,264.22 181.78,271.78 177.5,299 C174.59,317.52 168.51,337.42 162.66,353.79 " fill="none" id="OccupancyRateController-to-OccupancyRateStore" style="stroke:#A80036;stroke-width:1.0;stroke-dasharray:7.0,7.0;"/><polygon fill="#A80036" points="160.86,358.75,167.6827,351.6472,162.5607,354.0481,160.1597,348.9261,160.86,358.75" style="stroke:#A80036;stroke-width:1.0;"/><!--MD5=[aba2d0406c907edf7f848c50bd21fefa]
@startuml
class OccupancyRateUI{
}

class OccupancyRateController{
    +getOccupancy(mmsi, date)
}

class Company{
    +getOccupancyRateStore()
}

class OccupancyRateStore{
    +getOccupancyRate(mmsi, date)
}

OccupancyRateUI ..> OccupancyRateController
OccupancyRateController ..> Company
Company - -> OccupancyRateStore
OccupancyRateController ..> OccupancyRateStore

@enduml

PlantUML version 1.2021.11(Sat Oct 02 14:26:11 BST 2021)
(GPL source distribution)
Java Runtime: OpenJDK Runtime Environment
JVM: OpenJDK 64-Bit Server VM
Default Encoding: Cp1252
Language: pt
Country: PT
--></g></svg>