<?xml version="1.0" encoding="UTF-8" standalone="no"?><svg xmlns="http://www.w3.org/2000/svg" xmlns:xlink="http://www.w3.org/1999/xlink" contentScriptType="application/ecmascript" contentStyleType="text/css" height="528px" preserveAspectRatio="none" style="width:1216px;height:528px;background:#FFFFFF;" version="1.1" viewBox="0 0 1216 528" width="1216px" zoomAndPan="magnify"><defs><filter height="300%" id="f4wivybje1fde" width="300%" x="-1" y="-1"><feGaussianBlur result="blurOut" stdDeviation="2.0"/><feColorMatrix in="blurOut" result="blurOut2" type="matrix" values="0 0 0 0 0 0 0 0 0 0 0 0 0 0 0 0 0 0 .4 0"/><feOffset dx="4.0" dy="4.0" in="blurOut2" result="blurOut3"/><feBlend in="SourceGraphic" in2="blurOut3" mode="normal"/></filter></defs><g><rect fill="#FFFFFF" filter="url(#f4wivybje1fde)" height="325.5156" style="stroke:#A80036;stroke-width:1.0;" width="10" x="51" y="99.6094"/><rect fill="#FFFFFF" filter="url(#f4wivybje1fde)" height="30.3516" style="stroke:#A80036;stroke-width:1.0;" width="10" x="546" y="121.9609"/><rect fill="#FFFFFF" filter="url(#f4wivybje1fde)" height="242.4609" style="stroke:#A80036;stroke-width:1.0;" width="10" x="546" y="182.6641"/><rect fill="#FFFFFF" filter="url(#f4wivybje1fde)" height="181.7578" style="stroke:#A80036;stroke-width:1.0;" width="10" x="743" y="213.0156"/><rect fill="#FFFFFF" filter="url(#f4wivybje1fde)" height="60.3516" style="stroke:#A80036;stroke-width:1.0;" width="10" x="933" y="243.3672"/><rect fill="#FFFFFF" filter="url(#f4wivybje1fde)" height="30" style="stroke:#A80036;stroke-width:1.0;" width="10" x="1123" y="273.7188"/><rect fill="#FFFFFF" filter="url(#f4wivybje1fde)" height="30.3516" style="stroke:#A80036;stroke-width:1.0;" width="10" x="1123" y="334.0703"/><line style="stroke:#A80036;stroke-width:1.0;stroke-dasharray:5.0,5.0;" x1="56" x2="56" y1="89.6094" y2="443.125"/><line style="stroke:#A80036;stroke-width:1.0;stroke-dasharray:5.0,5.0;" x1="550.5" x2="550.5" y1="89.6094" y2="443.125"/><line style="stroke:#A80036;stroke-width:1.0;stroke-dasharray:5.0,5.0;" x1="747.5" x2="747.5" y1="89.6094" y2="443.125"/><line style="stroke:#A80036;stroke-width:1.0;stroke-dasharray:5.0,5.0;" x1="938" x2="938" y1="89.6094" y2="443.125"/><line style="stroke:#A80036;stroke-width:1.0;stroke-dasharray:5.0,5.0;" x1="1127.5" x2="1127.5" y1="89.6094" y2="443.125"/><text fill="#000000" font-family="sans-serif" font-size="14" lengthAdjust="spacing" textLength="96" x="5" y="86.5332">TrafficManager</text><ellipse cx="56" cy="15" fill="#FEFECE" filter="url(#f4wivybje1fde)" rx="8" ry="8" style="stroke:#A80036;stroke-width:2.0;"/><path d="M56,23 L56,50 M43,31 L69,31 M56,50 L43,65 M56,50 L69,65 " fill="none" filter="url(#f4wivybje1fde)" style="stroke:#A80036;stroke-width:2.0;"/><text fill="#000000" font-family="sans-serif" font-size="14" lengthAdjust="spacing" textLength="96" x="5" y="456.6582">TrafficManager</text><ellipse cx="56" cy="469.7344" fill="#FEFECE" filter="url(#f4wivybje1fde)" rx="8" ry="8" style="stroke:#A80036;stroke-width:2.0;"/><path d="M56,477.7344 L56,504.7344 M43,485.7344 L69,485.7344 M56,504.7344 L43,519.7344 M56,504.7344 L69,519.7344 " fill="none" filter="url(#f4wivybje1fde)" style="stroke:#A80036;stroke-width:2.0;"/><rect fill="#FEFECE" filter="url(#f4wivybje1fde)" height="31.6094" style="stroke:#A80036;stroke-width:1.5;" width="131" x="483.5" y="53"/><text fill="#000000" font-family="sans-serif" font-size="14" lengthAdjust="spacing" textLength="117" x="490.5" y="74.5332">:OccupancyRateUI</text><rect fill="#FEFECE" filter="url(#f4wivybje1fde)" height="31.6094" style="stroke:#A80036;stroke-width:1.5;" width="131" x="483.5" y="442.125"/><text fill="#000000" font-family="sans-serif" font-size="14" lengthAdjust="spacing" textLength="117" x="490.5" y="463.6582">:OccupancyRateUI</text><rect fill="#FEFECE" filter="url(#f4wivybje1fde)" height="31.6094" style="stroke:#A80036;stroke-width:1.5;" width="181" x="655.5" y="53"/><text fill="#000000" font-family="sans-serif" font-size="14" lengthAdjust="spacing" textLength="167" x="662.5" y="74.5332">:OccupancyRateController</text><rect fill="#FEFECE" filter="url(#f4wivybje1fde)" height="31.6094" style="stroke:#A80036;stroke-width:1.5;" width="181" x="655.5" y="442.125"/><text fill="#000000" font-family="sans-serif" font-size="14" lengthAdjust="spacing" textLength="167" x="662.5" y="463.6582">:OccupancyRateController</text><rect fill="#FEFECE" filter="url(#f4wivybje1fde)" height="31.6094" style="stroke:#A80036;stroke-width:1.5;" width="78" x="897" y="53"/><text fill="#000000" font-family="sans-serif" font-size="14" lengthAdjust="spacing" textLength="64" x="904" y="74.5332">:Company</text><rect fill="#FEFECE" filter="url(#f4wivybje1fde)" height="31.6094" style="stroke:#A80036;stroke-width:1.5;" width="78" x="897" y="442.125"/><text fill="#000000" font-family="sans-serif" font-size="14" lengthAdjust="spacing" textLength="64" x="904" y="463.6582">:Company</text><rect fill="#FEFECE" filter="url(#f4wivybje1fde)" height="31.6094" style="stroke:#A80036;stroke-width:1.5;" width="153" x="1049.5" y="53"/><text fill="#000000" font-family="sans-serif" font-size="14" lengthAdjust="spacing" textLength="139" x="1056.5" y="74.5332">:OccupancyRateStore</text><rect fill="#FEFECE" filter="url(#f4wivybje1fde)" height="31.6094" style="stroke:#A80036;stroke-width:1.5;" width="153" x="1049.5" y="442.125"/><text fill="#000000" font-family="sans-serif" font-size="14" lengthAdjust="spacing" textLength="139" x="1056.5" y="463.6582">:OccupancyRateStore</text><rect fill="#FFFFFF" filter="url(#f4wivybje1fde)" height="325.5156" style="stroke:#A80036;stroke-width:1.0;" width="10" x="51" y="99.6094"/><rect fill="#FFFFFF" filter="url(#f4wivybje1fde)" height="30.3516" style="stroke:#A80036;stroke-width:1.0;" width="10" x="546" y="121.9609"/><rect fill="#FFFFFF" filter="url(#f4wivybje1fde)" height="242.4609" style="stroke:#A80036;stroke-width:1.0;" width="10" x="546" y="182.6641"/><rect fill="#FFFFFF" filter="url(#f4wivybje1fde)" height="181.7578" style="stroke:#A80036;stroke-width:1.0;" width="10" x="743" y="213.0156"/><rect fill="#FFFFFF" filter="url(#f4wivybje1fde)" height="60.3516" style="stroke:#A80036;stroke-width:1.0;" width="10" x="933" y="243.3672"/><rect fill="#FFFFFF" filter="url(#f4wivybje1fde)" height="30" style="stroke:#A80036;stroke-width:1.0;" width="10" x="1123" y="273.7188"/><rect fill="#FFFFFF" filter="url(#f4wivybje1fde)" height="30.3516" style="stroke:#A80036;stroke-width:1.0;" width="10" x="1123" y="334.0703"/><polygon fill="#A80036" points="534,117.9609,544,121.9609,534,125.9609,538,121.9609" style="stroke:#A80036;stroke-width:1.0;"/><line style="stroke:#A80036;stroke-width:1.0;" x1="61" x2="540" y1="121.9609" y2="121.9609"/><text fill="#000000" font-family="sans-serif" font-size="13" font-weight="bold" lengthAdjust="spacing" textLength="7" x="68" y="117.1045">1</text><text fill="#000000" font-family="sans-serif" font-size="13" lengthAdjust="spacing" textLength="455" x="79" y="117.1045">I want to know the occupancy rate (percentage) of a given ship on a given date.</text><polygon fill="#A80036" points="72,148.3125,62,152.3125,72,156.3125,68,152.3125" style="stroke:#A80036;stroke-width:1.0;"/><line style="stroke:#A80036;stroke-width:1.0;stroke-dasharray:2.0,2.0;" x1="66" x2="550" y1="152.3125" y2="152.3125"/><text fill="#000000" font-family="sans-serif" font-size="13" font-weight="bold" lengthAdjust="spacing" textLength="7" x="78" y="147.4561">2</text><text fill="#000000" font-family="sans-serif" font-size="13" lengthAdjust="spacing" textLength="382" x="89" y="147.4561">Show occupancy rate (percentage) of a given ship for a given date.</text><polygon fill="#A80036" points="534,178.6641,544,182.6641,534,186.6641,538,182.6641" style="stroke:#A80036;stroke-width:1.0;"/><line style="stroke:#A80036;stroke-width:1.0;" x1="61" x2="540" y1="182.6641" y2="182.6641"/><text fill="#000000" font-family="sans-serif" font-size="13" font-weight="bold" lengthAdjust="spacing" textLength="7" x="68" y="177.8076">3</text><text fill="#000000" font-family="sans-serif" font-size="13" lengthAdjust="spacing" textLength="122" x="79" y="177.8076">Insert mmsi and date</text><polygon fill="#A80036" points="731,209.0156,741,213.0156,731,217.0156,735,213.0156" style="stroke:#A80036;stroke-width:1.0;"/><line style="stroke:#A80036;stroke-width:1.0;" x1="556" x2="737" y1="213.0156" y2="213.0156"/><text fill="#000000" font-family="sans-serif" font-size="13" font-weight="bold" lengthAdjust="spacing" textLength="7" x="563" y="208.1592">4</text><text fill="#000000" font-family="sans-serif" font-size="13" lengthAdjust="spacing" textLength="157" x="574" y="208.1592">getOccupancy(mmsi, date)</text><polygon fill="#A80036" points="921,239.3672,931,243.3672,921,247.3672,925,243.3672" style="stroke:#A80036;stroke-width:1.0;"/><line style="stroke:#A80036;stroke-width:1.0;" x1="753" x2="927" y1="243.3672" y2="243.3672"/><text fill="#000000" font-family="sans-serif" font-size="13" font-weight="bold" lengthAdjust="spacing" textLength="7" x="760" y="238.5107">5</text><text fill="#000000" font-family="sans-serif" font-size="13" lengthAdjust="spacing" textLength="150" x="771" y="238.5107">getOccupancyRateStore()</text><polygon fill="#A80036" points="1111,269.7188,1121,273.7188,1111,277.7188,1115,273.7188" style="stroke:#A80036;stroke-width:1.0;"/><line style="stroke:#A80036;stroke-width:1.0;" x1="943" x2="1117" y1="273.7188" y2="273.7188"/><text fill="#000000" font-family="sans-serif" font-size="13" font-weight="bold" lengthAdjust="spacing" textLength="7" x="950" y="268.8623">6</text><text fill="#000000" font-family="sans-serif" font-size="13" lengthAdjust="spacing" textLength="150" x="961" y="268.8623">getOccupancyRateStore()</text><polygon fill="#A80036" points="1111,330.0703,1121,334.0703,1111,338.0703,1115,334.0703" style="stroke:#A80036;stroke-width:1.0;"/><line style="stroke:#A80036;stroke-width:1.0;" x1="753" x2="1117" y1="334.0703" y2="334.0703"/><text fill="#000000" font-family="sans-serif" font-size="13" font-weight="bold" lengthAdjust="spacing" textLength="7" x="760" y="329.2139">7</text><text fill="#000000" font-family="sans-serif" font-size="13" lengthAdjust="spacing" textLength="184" x="771" y="329.2139">getOccupancyRate(mmsi, date)</text><polygon fill="#A80036" points="764,360.4219,754,364.4219,764,368.4219,760,364.4219" style="stroke:#A80036;stroke-width:1.0;"/><line style="stroke:#A80036;stroke-width:1.0;stroke-dasharray:2.0,2.0;" x1="758" x2="1127" y1="364.4219" y2="364.4219"/><text fill="#000000" font-family="sans-serif" font-size="13" font-weight="bold" lengthAdjust="spacing" textLength="7" x="770" y="359.5654">8</text><text fill="#000000" font-family="sans-serif" font-size="13" lengthAdjust="spacing" textLength="133" x="781" y="359.5654">returns occupancy rate</text><polygon fill="#A80036" points="567,390.7734,557,394.7734,567,398.7734,563,394.7734" style="stroke:#A80036;stroke-width:1.0;"/><line style="stroke:#A80036;stroke-width:1.0;stroke-dasharray:2.0,2.0;" x1="561" x2="747" y1="394.7734" y2="394.7734"/><text fill="#000000" font-family="sans-serif" font-size="13" font-weight="bold" lengthAdjust="spacing" textLength="7" x="573" y="389.917">9</text><text fill="#000000" font-family="sans-serif" font-size="13" lengthAdjust="spacing" textLength="133" x="584" y="389.917">returns occupancy rate</text><polygon fill="#A80036" points="67,421.125,57,425.125,67,429.125,63,425.125" style="stroke:#A80036;stroke-width:1.0;"/><line style="stroke:#A80036;stroke-width:1.0;stroke-dasharray:2.0,2.0;" x1="61" x2="550" y1="425.125" y2="425.125"/><text fill="#000000" font-family="sans-serif" font-size="13" font-weight="bold" lengthAdjust="spacing" textLength="14" x="73" y="420.2686">10</text><text fill="#000000" font-family="sans-serif" font-size="13" lengthAdjust="spacing" textLength="130" x="91" y="420.2686">shows occupancy rate</text><!--MD5=[7e98b791a77ad3f54c3364f204631f16]
@startuml
autonumber
actor TrafficManager as tm

participant ":OccupancyRateUI" as orui
participant ":OccupancyRateController" as orc
participant ":Company" as comp
participant ":OccupancyRateStore" as ors

activate tm
tm -> orui : I want to know the occupancy rate (percentage) of a given ship on a given date.
activate orui
orui - -> tm : Show occupancy rate (percentage) of a given ship for a given date.
deactivate orui
tm -> orui : Insert mmsi and date
activate orui
orui -> orc : getOccupancy(mmsi, date)
activate orc
orc -> comp : getOccupancyRateStore()
activate comp
comp -> ors : getOccupancyRateStore()
activate ors
deactivate ors
deactivate comp
orc -> ors : getOccupancyRate(mmsi, date)
activate ors
ors - -> orc : returns occupancy rate
deactivate ors
orc - -> orui : returns occupancy rate
deactivate orc
orui - -> tm : shows occupancy rate
deactivate orui
deactivate tm
@enduml

PlantUML version 1.2021.11(Sat Oct 02 14:26:11 BST 2021)
(GPL source distribution)
Java Runtime: OpenJDK Runtime Environment
JVM: OpenJDK 64-Bit Server VM
Default Encoding: Cp1252
Language: pt
Country: PT
--></g></svg>