<?xml version="1.0" encoding="UTF-8" standalone="no"?><svg xmlns="http://www.w3.org/2000/svg" xmlns:xlink="http://www.w3.org/1999/xlink" contentScriptType="application/ecmascript" contentStyleType="text/css" height="434px" preserveAspectRatio="none" style="width:134px;height:434px;background:#FFFFFF;" version="1.1" viewBox="0 0 134 434" width="134px" zoomAndPan="magnify"><defs><filter height="300%" id="f1o781i41k7vvw" width="300%" x="-1" y="-1"><feGaussianBlur result="blurOut" stdDeviation="2.0"/><feColorMatrix in="blurOut" result="blurOut2" type="matrix" values="0 0 0 0 0 0 0 0 0 0 0 0 0 0 0 0 0 0 .4 0"/><feOffset dx="4.0" dy="4.0" in="blurOut2" result="blurOut3"/><feBlend in="SourceGraphic" in2="blurOut3" mode="normal"/></filter></defs><g><!--MD5=[df76e760f2062188d44f98c21a88999b]
class UI--><rect codeLine="1" fill="#FEFECE" filter="url(#f1o781i41k7vvw)" height="48" id="UI" style="stroke:#A80036;stroke-width:1.5;" width="44" x="41.5" y="7"/><ellipse cx="56.5" cy="23" fill="#ADD1B2" rx="11" ry="11" style="stroke:#A80036;stroke-width:1.0;"/><path d="M58.5,19.5 Q58.7031,19 58.9375,18.75 Q59.1719,18.5 59.4375,18.5 Q59.9063,18.5 60.2031,18.7813 Q60.5,19.0625 60.5,19.7188 L60.5,21.2813 Q60.5,21.9375 60.2188,22.2188 Q59.9375,22.5 59.5,22.5 Q59.1094,22.5 58.8594,22.3281 Q58.6094,22.1563 58.5,21.7031 Q58.4531,21.3906 58.2813,21.2188 Q57.9688,20.8906 57.4063,20.7031 Q56.8438,20.5 56.2813,20.5 Q55.5781,20.5 54.9844,20.7813 Q54.4063,21.0625 53.9531,21.6875 Q53.5,22.3125 53.5,23.1719 L53.5,24.0938 Q53.5,25.125 54.3438,25.8125 Q55.1875,26.5 56.6875,26.5 Q57.5781,26.5 58.2031,26.2969 Q58.5625,26.1875 58.9688,25.8281 Q59.2344,25.625 59.375,25.5625 Q59.5156,25.5 59.6875,25.5 Q60.0156,25.5 60.25,25.7656 Q60.5,26.0156 60.5,26.375 Q60.5,26.7188 60.1563,27.125 Q59.6563,27.7188 58.8594,28.0469 Q57.8125,28.5 56.5313,28.5 Q55.0313,28.5 53.8281,27.9063 Q52.8594,27.4375 52.1719,26.4219 Q51.5,25.4063 51.5,24.2031 L51.5,23.1094 Q51.5,21.8594 52.0938,20.7656 Q52.7031,19.6719 53.75,19.0938 Q54.8125,18.5 56,18.5 Q56.7188,18.5 57.3438,18.75 Q57.9688,19 58.5,19.5 Z " fill="#000000"/><text fill="#000000" font-family="sans-serif" font-size="12" lengthAdjust="spacing" textLength="12" x="70.5" y="27.9102">UI</text><line style="stroke:#A80036;stroke-width:1.5;" x1="42.5" x2="84.5" y1="39" y2="39"/><line style="stroke:#A80036;stroke-width:1.5;" x1="42.5" x2="84.5" y1="47" y2="47"/><!--MD5=[1d7ba1c7002d54515419844fbd155368]
class Controller--><rect codeLine="4" fill="#FEFECE" filter="url(#f1o781i41k7vvw)" height="61.8359" id="Controller" style="stroke:#A80036;stroke-width:1.5;" width="104" x="11.5" y="115"/><ellipse cx="34.6" cy="131" fill="#ADD1B2" rx="11" ry="11" style="stroke:#A80036;stroke-width:1.0;"/><path d="M36.6,127.5 Q36.8031,127 37.0375,126.75 Q37.2719,126.5 37.5375,126.5 Q38.0063,126.5 38.3031,126.7813 Q38.6,127.0625 38.6,127.7188 L38.6,129.2813 Q38.6,129.9375 38.3188,130.2188 Q38.0375,130.5 37.6,130.5 Q37.2094,130.5 36.9594,130.3281 Q36.7094,130.1563 36.6,129.7031 Q36.5531,129.3906 36.3813,129.2188 Q36.0688,128.8906 35.5063,128.7031 Q34.9438,128.5 34.3813,128.5 Q33.6781,128.5 33.0844,128.7813 Q32.5063,129.0625 32.0531,129.6875 Q31.6,130.3125 31.6,131.1719 L31.6,132.0938 Q31.6,133.125 32.4438,133.8125 Q33.2875,134.5 34.7875,134.5 Q35.6781,134.5 36.3031,134.2969 Q36.6625,134.1875 37.0688,133.8281 Q37.3344,133.625 37.475,133.5625 Q37.6156,133.5 37.7875,133.5 Q38.1156,133.5 38.35,133.7656 Q38.6,134.0156 38.6,134.375 Q38.6,134.7188 38.2563,135.125 Q37.7563,135.7188 36.9594,136.0469 Q35.9125,136.5 34.6313,136.5 Q33.1313,136.5 31.9281,135.9063 Q30.9594,135.4375 30.2719,134.4219 Q29.6,133.4063 29.6,132.2031 L29.6,131.1094 Q29.6,129.8594 30.1938,128.7656 Q30.8031,127.6719 31.85,127.0938 Q32.9125,126.5 34.1,126.5 Q34.8188,126.5 35.4438,126.75 Q36.0688,127 36.6,127.5 Z " fill="#000000"/><text fill="#000000" font-family="sans-serif" font-size="12" lengthAdjust="spacing" textLength="54" x="50.4" y="135.9102">Controller</text><line style="stroke:#A80036;stroke-width:1.5;" x1="12.5" x2="114.5" y1="147" y2="147"/><line style="stroke:#A80036;stroke-width:1.5;" x1="12.5" x2="114.5" y1="155" y2="155"/><ellipse cx="22.5" cy="166" fill="#84BE84" rx="3" ry="3" style="stroke:#038048;stroke-width:1.0;"/><text fill="#000000" font-family="sans-serif" font-size="11" lengthAdjust="spacing" textLength="78" x="31.5" y="170.4189">returnShip(int n)</text><!--MD5=[02e4b9b7573f1156f41e60aa5b4e25a4]
class Company--><rect codeLine="8" fill="#FEFECE" filter="url(#f1o781i41k7vvw)" height="61.8359" id="Company" style="stroke:#A80036;stroke-width:1.5;" width="113" x="7" y="237"/><ellipse cx="34.6" cy="253" fill="#ADD1B2" rx="11" ry="11" style="stroke:#A80036;stroke-width:1.0;"/><path d="M36.6,249.5 Q36.8031,249 37.0375,248.75 Q37.2719,248.5 37.5375,248.5 Q38.0063,248.5 38.3031,248.7813 Q38.6,249.0625 38.6,249.7188 L38.6,251.2813 Q38.6,251.9375 38.3188,252.2188 Q38.0375,252.5 37.6,252.5 Q37.2094,252.5 36.9594,252.3281 Q36.7094,252.1563 36.6,251.7031 Q36.5531,251.3906 36.3813,251.2188 Q36.0688,250.8906 35.5063,250.7031 Q34.9438,250.5 34.3813,250.5 Q33.6781,250.5 33.0844,250.7813 Q32.5063,251.0625 32.0531,251.6875 Q31.6,252.3125 31.6,253.1719 L31.6,254.0938 Q31.6,255.125 32.4438,255.8125 Q33.2875,256.5 34.7875,256.5 Q35.6781,256.5 36.3031,256.2969 Q36.6625,256.1875 37.0688,255.8281 Q37.3344,255.625 37.475,255.5625 Q37.6156,255.5 37.7875,255.5 Q38.1156,255.5 38.35,255.7656 Q38.6,256.0156 38.6,256.375 Q38.6,256.7188 38.2563,257.125 Q37.7563,257.7188 36.9594,258.0469 Q35.9125,258.5 34.6313,258.5 Q33.1313,258.5 31.9281,257.9063 Q30.9594,257.4375 30.2719,256.4219 Q29.6,255.4063 29.6,254.2031 L29.6,253.1094 Q29.6,251.8594 30.1938,250.7656 Q30.8031,249.6719 31.85,249.0938 Q32.9125,248.5 34.1,248.5 Q34.8188,248.5 35.4438,248.75 Q36.0688,249 36.6,249.5 Z " fill="#000000"/><text fill="#000000" font-family="sans-serif" font-size="12" lengthAdjust="spacing" textLength="53" x="51.4" y="257.9102">Company</text><line style="stroke:#A80036;stroke-width:1.5;" x1="8" x2="119" y1="269" y2="269"/><line style="stroke:#A80036;stroke-width:1.5;" x1="8" x2="119" y1="277" y2="277"/><ellipse cx="18" cy="288" fill="#84BE84" rx="3" ry="3" style="stroke:#038048;stroke-width:1.0;"/><text fill="#000000" font-family="sans-serif" font-size="11" lengthAdjust="spacing" textLength="87" x="27" y="292.4189">get406Store(int n)</text><!--MD5=[b4d3d50c0abf08df45181fececb9f04d]
class Store--><rect codeLine="12" fill="#FEFECE" filter="url(#f1o781i41k7vvw)" height="61.8359" id="Store" style="stroke:#A80036;stroke-width:1.5;" width="87" x="20" y="359"/><ellipse cx="46.7" cy="375" fill="#ADD1B2" rx="11" ry="11" style="stroke:#A80036;stroke-width:1.0;"/><path d="M48.7,371.5 Q48.9031,371 49.1375,370.75 Q49.3719,370.5 49.6375,370.5 Q50.1063,370.5 50.4031,370.7813 Q50.7,371.0625 50.7,371.7188 L50.7,373.2813 Q50.7,373.9375 50.4188,374.2188 Q50.1375,374.5 49.7,374.5 Q49.3094,374.5 49.0594,374.3281 Q48.8094,374.1563 48.7,373.7031 Q48.6531,373.3906 48.4813,373.2188 Q48.1688,372.8906 47.6063,372.7031 Q47.0438,372.5 46.4813,372.5 Q45.7781,372.5 45.1844,372.7813 Q44.6063,373.0625 44.1531,373.6875 Q43.7,374.3125 43.7,375.1719 L43.7,376.0938 Q43.7,377.125 44.5438,377.8125 Q45.3875,378.5 46.8875,378.5 Q47.7781,378.5 48.4031,378.2969 Q48.7625,378.1875 49.1688,377.8281 Q49.4344,377.625 49.575,377.5625 Q49.7156,377.5 49.8875,377.5 Q50.2156,377.5 50.45,377.7656 Q50.7,378.0156 50.7,378.375 Q50.7,378.7188 50.3563,379.125 Q49.8563,379.7188 49.0594,380.0469 Q48.0125,380.5 46.7313,380.5 Q45.2313,380.5 44.0281,379.9063 Q43.0594,379.4375 42.3719,378.4219 Q41.7,377.4063 41.7,376.2031 L41.7,375.1094 Q41.7,373.8594 42.2938,372.7656 Q42.9031,371.6719 43.95,371.0938 Q45.0125,370.5 46.2,370.5 Q46.9188,370.5 47.5438,370.75 Q48.1688,371 48.7,371.5 Z " fill="#000000"/><text fill="#000000" font-family="sans-serif" font-size="12" lengthAdjust="spacing" textLength="29" x="63.3" y="379.9102">Store</text><line style="stroke:#A80036;stroke-width:1.5;" x1="21" x2="106" y1="391" y2="391"/><line style="stroke:#A80036;stroke-width:1.5;" x1="21" x2="106" y1="399" y2="399"/><ellipse cx="31" cy="410" fill="#84BE84" rx="3" ry="3" style="stroke:#038048;stroke-width:1.0;"/><text fill="#000000" font-family="sans-serif" font-size="11" lengthAdjust="spacing" textLength="61" x="40" y="414.4189">get406(int n)</text><!--MD5=[132c963044dc2a803644bb1c6fd2eeb1]
link UI to Controller--><path codeLine="17" d="M63.5,55.14 C63.5,70.71 63.5,91.53 63.5,109.22 " fill="none" id="UI-to-Controller" style="stroke:#A80036;stroke-width:1.0;stroke-dasharray:7.0,7.0;"/><polygon fill="#A80036" points="63.5,114.6,67.5,105.6,63.5,109.6,59.5,105.6,63.5,114.6" style="stroke:#A80036;stroke-width:1.0;"/><!--MD5=[e6ed5f8d33eaf4b7717944dd53806eb1]
link Controller to Company--><path codeLine="18" d="M63.5,177.28 C63.5,193.77 63.5,214.26 63.5,231.49 " fill="none" id="Controller-to-Company" style="stroke:#A80036;stroke-width:1.0;stroke-dasharray:7.0,7.0;"/><polygon fill="#A80036" points="63.5,236.73,67.5,227.73,63.5,231.73,59.5,227.73,63.5,236.73" style="stroke:#A80036;stroke-width:1.0;"/><!--MD5=[94141ed6bd4db0a0d11426b15c5ddee2]
link Company to Store--><path codeLine="19" d="M63.5,299.28 C63.5,315.77 63.5,336.26 63.5,353.49 " fill="none" id="Company-to-Store" style="stroke:#A80036;stroke-width:1.0;stroke-dasharray:7.0,7.0;"/><polygon fill="#A80036" points="63.5,358.73,67.5,349.73,63.5,353.73,59.5,349.73,63.5,358.73" style="stroke:#A80036;stroke-width:1.0;"/><!--MD5=[30046eeafb0cd8a7aefd4985d22db36c]
@startuml
class UI{
}

class Controller{
    +returnShip(int n)
}

class Company{
    +get406Store(int n)
}

class Store{
    +get406(int n)
}


UI ..> Controller
Controller ..> Company
Company ..> Store


@enduml

PlantUML version 1.2021.15(Tue Nov 30 16:45:34 GMT 2021)
(GPL source distribution)
Java Runtime: OpenJDK Runtime Environment
JVM: OpenJDK 64-Bit Server VM
Default Encoding: Cp1252
Language: pt
Country: PT
--></g></svg>