<?xml version="1.0" encoding="UTF-8" standalone="no"?><svg xmlns="http://www.w3.org/2000/svg" xmlns:xlink="http://www.w3.org/1999/xlink" contentScriptType="application/ecmascript" contentStyleType="text/css" height="454px" preserveAspectRatio="none" style="width:681px;height:454px;background:#FFFFFF;" version="1.1" viewBox="0 0 681 454" width="681px" zoomAndPan="magnify"><defs><filter height="300%" id="f1w5kqn2g7cdgg" width="300%" x="-1" y="-1"><feGaussianBlur result="blurOut" stdDeviation="2.0"/><feColorMatrix in="blurOut" result="blurOut2" type="matrix" values="0 0 0 0 0 0 0 0 0 0 0 0 0 0 0 0 0 0 .4 0"/><feOffset dx="4.0" dy="4.0" in="blurOut2" result="blurOut3"/><feBlend in="SourceGraphic" in2="blurOut3" mode="normal"/></filter></defs><g><!--MD5=[02e4b9b7573f1156f41e60aa5b4e25a4]
class Company--><rect codeLine="46" fill="#FEFECE" filter="url(#f1w5kqn2g7cdgg)" height="53.8359" id="Company" style="stroke:#A80036;stroke-width:1.5;" width="85" x="7" y="329.5"/><ellipse cx="22" cy="345.5" fill="#ADD1B2" rx="11" ry="11" style="stroke:#A80036;stroke-width:1.0;"/><path d="M24,342 Q24.2031,341.5 24.4375,341.25 Q24.6719,341 24.9375,341 Q25.4063,341 25.7031,341.2813 Q26,341.5625 26,342.2188 L26,343.7813 Q26,344.4375 25.7188,344.7188 Q25.4375,345 25,345 Q24.6094,345 24.3594,344.8281 Q24.1094,344.6563 24,344.2031 Q23.9531,343.8906 23.7813,343.7188 Q23.4688,343.3906 22.9063,343.2031 Q22.3438,343 21.7813,343 Q21.0781,343 20.4844,343.2813 Q19.9063,343.5625 19.4531,344.1875 Q19,344.8125 19,345.6719 L19,346.5938 Q19,347.625 19.8438,348.3125 Q20.6875,349 22.1875,349 Q23.0781,349 23.7031,348.7969 Q24.0625,348.6875 24.4688,348.3281 Q24.7344,348.125 24.875,348.0625 Q25.0156,348 25.1875,348 Q25.5156,348 25.75,348.2656 Q26,348.5156 26,348.875 Q26,349.2188 25.6563,349.625 Q25.1563,350.2188 24.3594,350.5469 Q23.3125,351 22.0313,351 Q20.5313,351 19.3281,350.4063 Q18.3594,349.9375 17.6719,348.9219 Q17,347.9063 17,346.7031 L17,345.6094 Q17,344.3594 17.5938,343.2656 Q18.2031,342.1719 19.25,341.5938 Q20.3125,341 21.5,341 Q22.2188,341 22.8438,341.25 Q23.4688,341.5 24,342 Z " fill="#000000"/><text fill="#000000" font-family="sans-serif" font-size="12" lengthAdjust="spacing" textLength="53" x="36" y="350.4102">Company</text><line style="stroke:#A80036;stroke-width:1.5;" x1="8" x2="91" y1="361.5" y2="361.5"/><text fill="#000000" font-family="sans-serif" font-size="11" lengthAdjust="spacing" textLength="30" x="13" y="376.9189">-name</text><!--MD5=[0dc7f2ddb409b58bcf52b12238c25399]
class Ship--><rect codeLine="25" fill="#FEFECE" filter="url(#f1w5kqn2g7cdgg)" height="289.0469" id="Ship" style="stroke:#A80036;stroke-width:1.5;" width="103" x="198" y="7"/><ellipse cx="233.7" cy="23" fill="#ADD1B2" rx="11" ry="11" style="stroke:#A80036;stroke-width:1.0;"/><path d="M235.7,19.5 Q235.9031,19 236.1375,18.75 Q236.3719,18.5 236.6375,18.5 Q237.1063,18.5 237.4031,18.7813 Q237.7,19.0625 237.7,19.7188 L237.7,21.2813 Q237.7,21.9375 237.4188,22.2188 Q237.1375,22.5 236.7,22.5 Q236.3094,22.5 236.0594,22.3281 Q235.8094,22.1563 235.7,21.7031 Q235.6531,21.3906 235.4813,21.2188 Q235.1688,20.8906 234.6063,20.7031 Q234.0438,20.5 233.4813,20.5 Q232.7781,20.5 232.1844,20.7813 Q231.6063,21.0625 231.1531,21.6875 Q230.7,22.3125 230.7,23.1719 L230.7,24.0938 Q230.7,25.125 231.5438,25.8125 Q232.3875,26.5 233.8875,26.5 Q234.7781,26.5 235.4031,26.2969 Q235.7625,26.1875 236.1688,25.8281 Q236.4344,25.625 236.575,25.5625 Q236.7156,25.5 236.8875,25.5 Q237.2156,25.5 237.45,25.7656 Q237.7,26.0156 237.7,26.375 Q237.7,26.7188 237.3563,27.125 Q236.8563,27.7188 236.0594,28.0469 Q235.0125,28.5 233.7313,28.5 Q232.2313,28.5 231.0281,27.9063 Q230.0594,27.4375 229.3719,26.4219 Q228.7,25.4063 228.7,24.2031 L228.7,23.1094 Q228.7,21.8594 229.2938,20.7656 Q229.9031,19.6719 230.95,19.0938 Q232.0125,18.5 233.2,18.5 Q233.9188,18.5 234.5438,18.75 Q235.1688,19 235.7,19.5 Z " fill="#000000"/><text fill="#000000" font-family="sans-serif" font-size="12" lengthAdjust="spacing" textLength="25" x="252.3" y="27.9102">Ship</text><line style="stroke:#A80036;stroke-width:1.5;" x1="199" x2="300" y1="39" y2="39"/><text fill="#000000" font-family="sans-serif" font-size="11" lengthAdjust="spacing" textLength="28" x="204" y="54.4189">-mmsi</text><text fill="#000000" font-family="sans-serif" font-size="11" lengthAdjust="spacing" textLength="20" x="204" y="68.2549">-imo</text><text fill="#000000" font-family="sans-serif" font-size="11" lengthAdjust="spacing" textLength="69" x="204" y="82.0908">-n_generators</text><text fill="#000000" font-family="sans-serif" font-size="11" lengthAdjust="spacing" textLength="33" x="204" y="95.9268">-length</text><text fill="#000000" font-family="sans-serif" font-size="11" lengthAdjust="spacing" textLength="31" x="204" y="109.7627">-width</text><text fill="#000000" font-family="sans-serif" font-size="11" lengthAdjust="spacing" textLength="69" x="204" y="123.5986">-p_generators</text><text fill="#000000" font-family="sans-serif" font-size="11" lengthAdjust="spacing" textLength="45" x="204" y="137.4346">-capacity</text><text fill="#000000" font-family="sans-serif" font-size="11" lengthAdjust="spacing" textLength="56" x="204" y="151.2705">-ship_name</text><text fill="#000000" font-family="sans-serif" font-size="11" lengthAdjust="spacing" textLength="63" x="204" y="165.1064">-vessel_type</text><text fill="#000000" font-family="sans-serif" font-size="11" lengthAdjust="spacing" textLength="46" x="204" y="178.9424">-call_sign</text><text fill="#000000" font-family="sans-serif" font-size="11" lengthAdjust="spacing" textLength="27" x="204" y="192.7783">-draft</text><text fill="#000000" font-family="sans-serif" font-size="11" lengthAdjust="spacing" textLength="50" x="204" y="206.6143">-date_time</text><text fill="#000000" font-family="sans-serif" font-size="11" lengthAdjust="spacing" textLength="38" x="204" y="220.4502">-latitude</text><text fill="#000000" font-family="sans-serif" font-size="11" lengthAdjust="spacing" textLength="47" x="204" y="234.2861">-longitude</text><text fill="#000000" font-family="sans-serif" font-size="11" lengthAdjust="spacing" textLength="22" x="204" y="248.1221">-sog</text><text fill="#000000" font-family="sans-serif" font-size="11" lengthAdjust="spacing" textLength="22" x="204" y="261.958">-cog</text><text fill="#000000" font-family="sans-serif" font-size="11" lengthAdjust="spacing" textLength="42" x="204" y="275.7939">-heading</text><text fill="#000000" font-family="sans-serif" font-size="11" lengthAdjust="spacing" textLength="91" x="204" y="289.6299">-transceiver_class</text><!--MD5=[bc6d56fff33115396b36caccb440b7b0]
class Manifest--><rect codeLine="19" fill="#FEFECE" filter="url(#f1w5kqn2g7cdgg)" height="81.5078" id="Manifest" style="stroke:#A80036;stroke-width:1.5;" width="78" x="407" y="110.5"/><ellipse cx="422" cy="126.5" fill="#ADD1B2" rx="11" ry="11" style="stroke:#A80036;stroke-width:1.0;"/><path d="M424,123 Q424.2031,122.5 424.4375,122.25 Q424.6719,122 424.9375,122 Q425.4063,122 425.7031,122.2813 Q426,122.5625 426,123.2188 L426,124.7813 Q426,125.4375 425.7188,125.7188 Q425.4375,126 425,126 Q424.6094,126 424.3594,125.8281 Q424.1094,125.6563 424,125.2031 Q423.9531,124.8906 423.7813,124.7188 Q423.4688,124.3906 422.9063,124.2031 Q422.3438,124 421.7813,124 Q421.0781,124 420.4844,124.2813 Q419.9063,124.5625 419.4531,125.1875 Q419,125.8125 419,126.6719 L419,127.5938 Q419,128.625 419.8438,129.3125 Q420.6875,130 422.1875,130 Q423.0781,130 423.7031,129.7969 Q424.0625,129.6875 424.4688,129.3281 Q424.7344,129.125 424.875,129.0625 Q425.0156,129 425.1875,129 Q425.5156,129 425.75,129.2656 Q426,129.5156 426,129.875 Q426,130.2188 425.6563,130.625 Q425.1563,131.2188 424.3594,131.5469 Q423.3125,132 422.0313,132 Q420.5313,132 419.3281,131.4063 Q418.3594,130.9375 417.6719,129.9219 Q417,128.9063 417,127.7031 L417,126.6094 Q417,125.3594 417.5938,124.2656 Q418.2031,123.1719 419.25,122.5938 Q420.3125,122 421.5,122 Q422.2188,122 422.8438,122.25 Q423.4688,122.5 424,123 Z " fill="#000000"/><text fill="#000000" font-family="sans-serif" font-size="12" lengthAdjust="spacing" textLength="46" x="436" y="131.4102">Manifest</text><line style="stroke:#A80036;stroke-width:1.5;" x1="408" x2="484" y1="142.5" y2="142.5"/><text fill="#000000" font-family="sans-serif" font-size="11" lengthAdjust="spacing" textLength="25" x="413" y="157.9189">-date</text><text fill="#000000" font-family="sans-serif" font-size="11" lengthAdjust="spacing" textLength="32" x="413" y="171.7549">-gross</text><text fill="#000000" font-family="sans-serif" font-size="11" lengthAdjust="spacing" textLength="41" x="413" y="185.5908">-position</text><!--MD5=[e9a58730c562b34349daa605d1ed6662]
class Container--><rect codeLine="10" fill="#FEFECE" filter="url(#f1w5kqn2g7cdgg)" height="123.0156" id="Container" style="stroke:#A80036;stroke-width:1.5;" width="86" x="581" y="90"/><ellipse cx="596" cy="106" fill="#ADD1B2" rx="11" ry="11" style="stroke:#A80036;stroke-width:1.0;"/><path d="M598,102.5 Q598.2031,102 598.4375,101.75 Q598.6719,101.5 598.9375,101.5 Q599.4063,101.5 599.7031,101.7813 Q600,102.0625 600,102.7188 L600,104.2813 Q600,104.9375 599.7188,105.2188 Q599.4375,105.5 599,105.5 Q598.6094,105.5 598.3594,105.3281 Q598.1094,105.1563 598,104.7031 Q597.9531,104.3906 597.7813,104.2188 Q597.4688,103.8906 596.9063,103.7031 Q596.3438,103.5 595.7813,103.5 Q595.0781,103.5 594.4844,103.7813 Q593.9063,104.0625 593.4531,104.6875 Q593,105.3125 593,106.1719 L593,107.0938 Q593,108.125 593.8438,108.8125 Q594.6875,109.5 596.1875,109.5 Q597.0781,109.5 597.7031,109.2969 Q598.0625,109.1875 598.4688,108.8281 Q598.7344,108.625 598.875,108.5625 Q599.0156,108.5 599.1875,108.5 Q599.5156,108.5 599.75,108.7656 Q600,109.0156 600,109.375 Q600,109.7188 599.6563,110.125 Q599.1563,110.7188 598.3594,111.0469 Q597.3125,111.5 596.0313,111.5 Q594.5313,111.5 593.3281,110.9063 Q592.3594,110.4375 591.6719,109.4219 Q591,108.4063 591,107.2031 L591,106.1094 Q591,104.8594 591.5938,103.7656 Q592.2031,102.6719 593.25,102.0938 Q594.3125,101.5 595.5,101.5 Q596.2188,101.5 596.8438,101.75 Q597.4688,102 598,102.5 Z " fill="#000000"/><text fill="#000000" font-family="sans-serif" font-size="12" lengthAdjust="spacing" textLength="54" x="610" y="110.9102">Container</text><line style="stroke:#A80036;stroke-width:1.5;" x1="582" x2="666" y1="122" y2="122"/><text fill="#000000" font-family="sans-serif" font-size="11" lengthAdjust="spacing" textLength="48" x="587" y="137.4189">-iso_code</text><text fill="#000000" font-family="sans-serif" font-size="11" lengthAdjust="spacing" textLength="63" x="587" y="151.2549">-refrigeration</text><text fill="#000000" font-family="sans-serif" font-size="11" lengthAdjust="spacing" textLength="62" x="587" y="165.0908">-temperature</text><text fill="#000000" font-family="sans-serif" font-size="11" lengthAdjust="spacing" textLength="42" x="587" y="178.9268">-payload</text><text fill="#000000" font-family="sans-serif" font-size="11" lengthAdjust="spacing" textLength="23" x="587" y="192.7627">-tare</text><text fill="#000000" font-family="sans-serif" font-size="11" lengthAdjust="spacing" textLength="32" x="587" y="206.5986">-gross</text><!--MD5=[bcc940113eb56f17e168fc00879a289d]
class Port_warehouse--><rect codeLine="50" fill="#FEFECE" filter="url(#f1w5kqn2g7cdgg)" height="109.1797" id="Port_warehouse" style="stroke:#A80036;stroke-width:1.5;" width="123" x="188" y="331"/><ellipse cx="203" cy="347" fill="#ADD1B2" rx="11" ry="11" style="stroke:#A80036;stroke-width:1.0;"/><path d="M205,343.5 Q205.2031,343 205.4375,342.75 Q205.6719,342.5 205.9375,342.5 Q206.4063,342.5 206.7031,342.7813 Q207,343.0625 207,343.7188 L207,345.2813 Q207,345.9375 206.7188,346.2188 Q206.4375,346.5 206,346.5 Q205.6094,346.5 205.3594,346.3281 Q205.1094,346.1563 205,345.7031 Q204.9531,345.3906 204.7813,345.2188 Q204.4688,344.8906 203.9063,344.7031 Q203.3438,344.5 202.7813,344.5 Q202.0781,344.5 201.4844,344.7813 Q200.9063,345.0625 200.4531,345.6875 Q200,346.3125 200,347.1719 L200,348.0938 Q200,349.125 200.8438,349.8125 Q201.6875,350.5 203.1875,350.5 Q204.0781,350.5 204.7031,350.2969 Q205.0625,350.1875 205.4688,349.8281 Q205.7344,349.625 205.875,349.5625 Q206.0156,349.5 206.1875,349.5 Q206.5156,349.5 206.75,349.7656 Q207,350.0156 207,350.375 Q207,350.7188 206.6563,351.125 Q206.1563,351.7188 205.3594,352.0469 Q204.3125,352.5 203.0313,352.5 Q201.5313,352.5 200.3281,351.9063 Q199.3594,351.4375 198.6719,350.4219 Q198,349.4063 198,348.2031 L198,347.1094 Q198,345.8594 198.5938,344.7656 Q199.2031,343.6719 200.25,343.0938 Q201.3125,342.5 202.5,342.5 Q203.2188,342.5 203.8438,342.75 Q204.4688,343 205,343.5 Z " fill="#000000"/><text fill="#000000" font-family="sans-serif" font-size="12" lengthAdjust="spacing" textLength="91" x="217" y="351.9102">Port_warehouse</text><line style="stroke:#A80036;stroke-width:1.5;" x1="189" x2="310" y1="363" y2="363"/><text fill="#000000" font-family="sans-serif" font-size="11" lengthAdjust="spacing" textLength="30" x="194" y="378.4189">-name</text><text fill="#000000" font-family="sans-serif" font-size="11" lengthAdjust="spacing" textLength="47" x="194" y="392.2549">-longitude</text><text fill="#000000" font-family="sans-serif" font-size="11" lengthAdjust="spacing" textLength="38" x="194" y="406.0908">-latitude</text><text fill="#000000" font-family="sans-serif" font-size="11" lengthAdjust="spacing" textLength="48" x="194" y="419.9268">-continent</text><text fill="#000000" font-family="sans-serif" font-size="11" lengthAdjust="spacing" textLength="41" x="194" y="433.7627">-country</text><!--MD5=[37a14a5de6d6fd738aee271300f4b5c8]
link Company to Ship--><path codeLine="5" d="M76.79,329.28 C107.51,297.47 159.04,244.12 197.65,204.15 " fill="none" id="Company-Ship" style="stroke:#A80036;stroke-width:1.0;"/><polygon fill="#000000" points="130.4736,235.0794,122.0759,239.5435,126.3037,243.6271,130.4736,235.0794" style="stroke:#000000;stroke-width:1.0;"/><text fill="#000000" font-family="sans-serif" font-size="13" lengthAdjust="spacing" textLength="21" x="136" y="243.9951">has</text><text fill="#000000" font-family="sans-serif" font-size="13" lengthAdjust="spacing" textLength="7" x="75.2914" y="318.6901">1</text><text fill="#000000" font-family="sans-serif" font-size="13" lengthAdjust="spacing" textLength="5" x="185.007" y="226.1954">*</text><!--MD5=[bf3ea1a9851801edc53195a9e0780a16]
link Ship to Manifest--><path codeLine="6" d="M301.09,151.5 C334.19,151.5 376.72,151.5 406.95,151.5 " fill="none" id="Ship-Manifest" style="stroke:#A80036;stroke-width:1.0;"/><polygon fill="#000000" points="351,142.6758,341.9549,139.7369,341.9549,145.6147,351,142.6758" style="stroke:#000000;stroke-width:1.0;"/><text fill="#000000" font-family="sans-serif" font-size="13" lengthAdjust="spacing" textLength="21" x="355" y="147.9951">has</text><text fill="#000000" font-family="sans-serif" font-size="13" lengthAdjust="spacing" textLength="7" x="308.837" y="166.1415">1</text><text fill="#000000" font-family="sans-serif" font-size="13" lengthAdjust="spacing" textLength="5" x="394.0295" y="166.6005">*</text><!--MD5=[20b0b298cd787f7a117538e20040cc6f]
link Manifest to Container--><path codeLine="7" d="M485.19,151.5 C513.4,151.5 551.78,151.5 580.88,151.5 " fill="none" id="Manifest-Container" style="stroke:#A80036;stroke-width:1.0;"/><polygon fill="#000000" points="525,142.6758,515.9549,139.7369,515.9549,145.6147,525,142.6758" style="stroke:#000000;stroke-width:1.0;"/><text fill="#000000" font-family="sans-serif" font-size="13" lengthAdjust="spacing" textLength="21" x="529" y="147.9951">has</text><text fill="#000000" font-family="sans-serif" font-size="13" lengthAdjust="spacing" textLength="7" x="493.061" y="166.5479">1</text><text fill="#000000" font-family="sans-serif" font-size="13" lengthAdjust="spacing" textLength="5" x="568.0391" y="166.399">*</text><!--MD5=[1c1fe225845e822c292d354f4b880db3]
link Company to Port_warehouse--><path codeLine="8" d="M92.01,362.58 C119.79,366.65 156.82,372.07 187.88,376.62 " fill="none" id="Company-Port_warehouse" style="stroke:#A80036;stroke-width:1.0;"/><polygon fill="#000000" points="131.9472,359.4003,123.4235,355.1817,122.5717,360.9975,131.9472,359.4003" style="stroke:#000000;stroke-width:1.0;"/><text fill="#000000" font-family="sans-serif" font-size="13" lengthAdjust="spacing" textLength="21" x="136" y="363.9951">has</text><text fill="#000000" font-family="sans-serif" font-size="13" lengthAdjust="spacing" textLength="7" x="99.918" y="378.5394">1</text><text fill="#000000" font-family="sans-serif" font-size="13" lengthAdjust="spacing" textLength="5" x="175.0654" y="390.0183">*</text><!--MD5=[df8198381f142c2080f64087f8b71ed8]
@startuml
hide methods
skinparam classAttributeIconSize 0
left to right direction

Company"1" - - "*"Ship : has >
Ship"1" - - "*"Manifest : has >
Manifest"1" - - "*"Container: has >
Company"1" - - "*"Port_warehouse : has >

class Container {
-iso_code
-refrigeration
-temperature
-payload
-tare
-gross
}

class Manifest {
-date
-gross
-position
}

class Ship {
-mmsi
-imo
-n_generators
-length
-width
-p_generators
-capacity
-ship_name
-vessel_type
-call_sign
-draft
-date_time
-latitude
-longitude
-sog
-cog
-heading
-transceiver_class
}

class Company {
-name
}

class Port_warehouse{
-name
-longitude
-latitude
-continent
-country
}

@enduml

PlantUML version 1.2021.15(Tue Nov 30 16:45:34 GMT 2021)
(GPL source distribution)
Java Runtime: OpenJDK Runtime Environment
JVM: OpenJDK 64-Bit Server VM
Default Encoding: Cp1252
Language: pt
Country: PT
--></g></svg>