<?xml version="1.0" encoding="UTF-8" standalone="no"?><svg xmlns="http://www.w3.org/2000/svg" xmlns:xlink="http://www.w3.org/1999/xlink" contentScriptType="application/ecmascript" contentStyleType="text/css" height="407px" preserveAspectRatio="none" style="width:765px;height:407px;background:#FFFFFF;" version="1.1" viewBox="0 0 765 407" width="765px" zoomAndPan="magnify"><defs><filter height="300%" id="f14bivojg9bz3r" width="300%" x="-1" y="-1"><feGaussianBlur result="blurOut" stdDeviation="2.0"/><feColorMatrix in="blurOut" result="blurOut2" type="matrix" values="0 0 0 0 0 0 0 0 0 0 0 0 0 0 0 0 0 0 .4 0"/><feOffset dx="4.0" dy="4.0" in="blurOut2" result="blurOut3"/><feBlend in="SourceGraphic" in2="blurOut3" mode="normal"/></filter></defs><g><rect fill="#FFFFFF" filter="url(#f14bivojg9bz3r)" height="213.4609" style="stroke:#A80036;stroke-width:1.0;" width="10" x="53" y="99.6094"/><rect fill="#FFFFFF" filter="url(#f14bivojg9bz3r)" height="191.1094" style="stroke:#A80036;stroke-width:1.0;" width="10" x="339" y="121.9609"/><rect fill="#FFFFFF" filter="url(#f14bivojg9bz3r)" height="160.7578" style="stroke:#A80036;stroke-width:1.0;" width="10" x="469.5" y="152.3125"/><rect fill="#FFFFFF" filter="url(#f14bivojg9bz3r)" height="130.4063" style="stroke:#A80036;stroke-width:1.0;" width="10" x="601.5" y="182.6641"/><rect fill="#FFFFFF" filter="url(#f14bivojg9bz3r)" height="100.0547" style="stroke:#A80036;stroke-width:1.0;" width="10" x="702.5" y="213.0156"/><line style="stroke:#A80036;stroke-width:1.0;stroke-dasharray:5.0,5.0;" x1="58" x2="58" y1="89.6094" y2="322.0703"/><line style="stroke:#A80036;stroke-width:1.0;stroke-dasharray:5.0,5.0;" x1="344" x2="344" y1="89.6094" y2="322.0703"/><line style="stroke:#A80036;stroke-width:1.0;stroke-dasharray:5.0,5.0;" x1="474" x2="474" y1="89.6094" y2="322.0703"/><line style="stroke:#A80036;stroke-width:1.0;stroke-dasharray:5.0,5.0;" x1="606.5" x2="606.5" y1="89.6094" y2="322.0703"/><line style="stroke:#A80036;stroke-width:1.0;stroke-dasharray:5.0,5.0;" x1="707.5" x2="707.5" y1="89.6094" y2="322.0703"/><text fill="#000000" font-family="sans-serif" font-size="14" lengthAdjust="spacing" textLength="100" x="5" y="86.5332">Traffic Manager</text><ellipse cx="58" cy="15" fill="#FEFECE" filter="url(#f14bivojg9bz3r)" rx="8" ry="8" style="stroke:#A80036;stroke-width:2.0;"/><path d="M58,23 L58,50 M45,31 L71,31 M58,50 L45,65 M58,50 L71,65 " fill="none" filter="url(#f14bivojg9bz3r)" style="stroke:#A80036;stroke-width:2.0;"/><text fill="#000000" font-family="sans-serif" font-size="14" lengthAdjust="spacing" textLength="100" x="5" y="335.6035">Traffic Manager</text><ellipse cx="58" cy="348.6797" fill="#FEFECE" filter="url(#f14bivojg9bz3r)" rx="8" ry="8" style="stroke:#A80036;stroke-width:2.0;"/><path d="M58,356.6797 L58,383.6797 M45,364.6797 L71,364.6797 M58,383.6797 L45,398.6797 M58,383.6797 L71,398.6797 " fill="none" filter="url(#f14bivojg9bz3r)" style="stroke:#A80036;stroke-width:2.0;"/><rect fill="#FEFECE" filter="url(#f14bivojg9bz3r)" height="31.6094" style="stroke:#A80036;stroke-width:1.5;" width="84" x="300" y="53"/><text fill="#000000" font-family="sans-serif" font-size="14" lengthAdjust="spacing" textLength="70" x="307" y="74.5332">:PortShipUI</text><rect fill="#FEFECE" filter="url(#f14bivojg9bz3r)" height="31.6094" style="stroke:#A80036;stroke-width:1.5;" width="84" x="300" y="321.0703"/><text fill="#000000" font-family="sans-serif" font-size="14" lengthAdjust="spacing" textLength="70" x="307" y="342.6035">:PortShipUI</text><rect fill="#FEFECE" filter="url(#f14bivojg9bz3r)" height="31.6094" style="stroke:#A80036;stroke-width:1.5;" width="149" x="398" y="53"/><text fill="#000000" font-family="sans-serif" font-size="14" lengthAdjust="spacing" textLength="135" x="405" y="74.5332">:CriticalPortController</text><rect fill="#FEFECE" filter="url(#f14bivojg9bz3r)" height="31.6094" style="stroke:#A80036;stroke-width:1.5;" width="149" x="398" y="321.0703"/><text fill="#000000" font-family="sans-serif" font-size="14" lengthAdjust="spacing" textLength="135" x="405" y="342.6035">:CriticalPortController</text><rect fill="#FEFECE" filter="url(#f14bivojg9bz3r)" height="31.6094" style="stroke:#A80036;stroke-width:1.5;" width="78" x="565.5" y="53"/><text fill="#000000" font-family="sans-serif" font-size="14" lengthAdjust="spacing" textLength="64" x="572.5" y="74.5332">:Company</text><rect fill="#FEFECE" filter="url(#f14bivojg9bz3r)" height="31.6094" style="stroke:#A80036;stroke-width:1.5;" width="78" x="565.5" y="321.0703"/><text fill="#000000" font-family="sans-serif" font-size="14" lengthAdjust="spacing" textLength="64" x="572.5" y="342.6035">:Company</text><rect fill="#FEFECE" filter="url(#f14bivojg9bz3r)" height="31.6094" style="stroke:#A80036;stroke-width:1.5;" width="92" x="659.5" y="53"/><text fill="#000000" font-family="sans-serif" font-size="14" lengthAdjust="spacing" textLength="78" x="666.5" y="74.5332">:GraphStore</text><rect fill="#FEFECE" filter="url(#f14bivojg9bz3r)" height="31.6094" style="stroke:#A80036;stroke-width:1.5;" width="92" x="659.5" y="321.0703"/><text fill="#000000" font-family="sans-serif" font-size="14" lengthAdjust="spacing" textLength="78" x="666.5" y="342.6035">:GraphStore</text><rect fill="#FFFFFF" filter="url(#f14bivojg9bz3r)" height="213.4609" style="stroke:#A80036;stroke-width:1.0;" width="10" x="53" y="99.6094"/><rect fill="#FFFFFF" filter="url(#f14bivojg9bz3r)" height="191.1094" style="stroke:#A80036;stroke-width:1.0;" width="10" x="339" y="121.9609"/><rect fill="#FFFFFF" filter="url(#f14bivojg9bz3r)" height="160.7578" style="stroke:#A80036;stroke-width:1.0;" width="10" x="469.5" y="152.3125"/><rect fill="#FFFFFF" filter="url(#f14bivojg9bz3r)" height="130.4063" style="stroke:#A80036;stroke-width:1.0;" width="10" x="601.5" y="182.6641"/><rect fill="#FFFFFF" filter="url(#f14bivojg9bz3r)" height="100.0547" style="stroke:#A80036;stroke-width:1.0;" width="10" x="702.5" y="213.0156"/><polygon fill="#A80036" points="327,117.9609,337,121.9609,327,125.9609,331,121.9609" style="stroke:#A80036;stroke-width:1.0;"/><line style="stroke:#A80036;stroke-width:1.0;" x1="63" x2="333" y1="121.9609" y2="121.9609"/><text fill="#000000" font-family="sans-serif" font-size="13" font-weight="bold" lengthAdjust="spacing" textLength="7" x="70" y="117.1045">1</text><text fill="#000000" font-family="sans-serif" font-size="13" lengthAdjust="spacing" textLength="246" x="81" y="117.1045">Asks to know which ports are more critical</text><polygon fill="#A80036" points="457.5,148.3125,467.5,152.3125,457.5,156.3125,461.5,152.3125" style="stroke:#A80036;stroke-width:1.0;"/><line style="stroke:#A80036;stroke-width:1.0;" x1="349" x2="463.5" y1="152.3125" y2="152.3125"/><text fill="#000000" font-family="sans-serif" font-size="13" font-weight="bold" lengthAdjust="spacing" textLength="7" x="356" y="147.4561">2</text><text fill="#000000" font-family="sans-serif" font-size="13" lengthAdjust="spacing" textLength="81" x="367" y="147.4561">returnCritical()</text><polygon fill="#A80036" points="589.5,178.6641,599.5,182.6641,589.5,186.6641,593.5,182.6641" style="stroke:#A80036;stroke-width:1.0;"/><line style="stroke:#A80036;stroke-width:1.0;" x1="479.5" x2="595.5" y1="182.6641" y2="182.6641"/><text fill="#000000" font-family="sans-serif" font-size="13" font-weight="bold" lengthAdjust="spacing" textLength="7" x="486.5" y="177.8076">3</text><text fill="#000000" font-family="sans-serif" font-size="13" lengthAdjust="spacing" textLength="92" x="497.5" y="177.8076">getGraphStore()</text><polygon fill="#A80036" points="690.5,209.0156,700.5,213.0156,690.5,217.0156,694.5,213.0156" style="stroke:#A80036;stroke-width:1.0;"/><line style="stroke:#A80036;stroke-width:1.0;" x1="611.5" x2="696.5" y1="213.0156" y2="213.0156"/><text fill="#000000" font-family="sans-serif" font-size="13" font-weight="bold" lengthAdjust="spacing" textLength="7" x="618.5" y="208.1592">4</text><text fill="#000000" font-family="sans-serif" font-size="13" lengthAdjust="spacing" textLength="61" x="629.5" y="208.1592">getGraph()</text><polygon fill="#A80036" points="622.5,239.3672,612.5,243.3672,622.5,247.3672,618.5,243.3672" style="stroke:#A80036;stroke-width:1.0;"/><line style="stroke:#A80036;stroke-width:1.0;stroke-dasharray:2.0,2.0;" x1="616.5" x2="701.5" y1="243.3672" y2="243.3672"/><text fill="#000000" font-family="sans-serif" font-size="13" font-weight="bold" lengthAdjust="spacing" textLength="7" x="628.5" y="238.5107">5</text><text fill="#000000" font-family="sans-serif" font-size="13" lengthAdjust="spacing" textLength="35" x="639.5" y="238.5107">Graph</text><polygon fill="#A80036" points="490.5,269.7188,480.5,273.7188,490.5,277.7188,486.5,273.7188" style="stroke:#A80036;stroke-width:1.0;"/><line style="stroke:#A80036;stroke-width:1.0;stroke-dasharray:2.0,2.0;" x1="484.5" x2="600.5" y1="273.7188" y2="273.7188"/><text fill="#000000" font-family="sans-serif" font-size="13" font-weight="bold" lengthAdjust="spacing" textLength="7" x="496.5" y="268.8623">6</text><text fill="#000000" font-family="sans-serif" font-size="13" lengthAdjust="spacing" textLength="35" x="507.5" y="268.8623">Graph</text><polygon fill="#A80036" points="360,300.0703,350,304.0703,360,308.0703,356,304.0703" style="stroke:#A80036;stroke-width:1.0;"/><line style="stroke:#A80036;stroke-width:1.0;stroke-dasharray:2.0,2.0;" x1="354" x2="468.5" y1="304.0703" y2="304.0703"/><text fill="#000000" font-family="sans-serif" font-size="13" font-weight="bold" lengthAdjust="spacing" textLength="7" x="366" y="299.2139">7</text><text fill="#000000" font-family="sans-serif" font-size="13" lengthAdjust="spacing" textLength="35" x="377" y="299.2139">Graph</text><!--MD5=[1300bb061f43e7e2ab0651f29221b6b9]
@startuml
autonumber
actor "Traffic Manager" as TM

participant ":PortShipUI" as psui
participant ":CriticalPortController" as rgc
participant ":Company" as comp
participant ":GraphStore" as gs


activate TM
TM -> psui : Asks to know which ports are more critical
activate psui
psui -> rgc : returnCritical()
activate rgc
rgc -> comp : getGraphStore()
activate comp
comp -> gs : getGraph()
activate gs
gs - -> comp : Graph
comp - -> rgc : Graph
rgc - -> psui : Graph



@enduml

PlantUML version 1.2021.11(Sat Oct 02 14:26:11 BST 2021)
(GPL source distribution)
Java Runtime: OpenJDK Runtime Environment
JVM: OpenJDK 64-Bit Server VM
Default Encoding: Cp1252
Language: pt
Country: PT
--></g></svg>