<?xml version="1.0" encoding="UTF-8" standalone="no"?><svg xmlns="http://www.w3.org/2000/svg" xmlns:xlink="http://www.w3.org/1999/xlink" contentScriptType="application/ecmascript" contentStyleType="text/css" height="448px" preserveAspectRatio="none" style="width:265px;height:448px;background:#FFFFFF;" version="1.1" viewBox="0 0 265 448" width="265px" zoomAndPan="magnify"><defs><filter height="300%" id="f19wrrr2qhbonc" width="300%" x="-1" y="-1"><feGaussianBlur result="blurOut" stdDeviation="2.0"/><feColorMatrix in="blurOut" result="blurOut2" type="matrix" values="0 0 0 0 0 0 0 0 0 0 0 0 0 0 0 0 0 0 .4 0"/><feOffset dx="4.0" dy="4.0" in="blurOut2" result="blurOut3"/><feBlend in="SourceGraphic" in2="blurOut3" mode="normal"/></filter></defs><g><!--MD5=[3290a66fbe226781d8993540d697648d]
class OccupancyRateUI--><rect codeLine="1" fill="#FEFECE" filter="url(#f19wrrr2qhbonc)" height="48" id="OccupancyRateUI" style="stroke:#A80036;stroke-width:1.5;" width="130" x="83.5" y="7"/><ellipse cx="98.5" cy="23" fill="#ADD1B2" rx="11" ry="11" style="stroke:#A80036;stroke-width:1.0;"/><path d="M100.5,19.5 Q100.7031,19 100.9375,18.75 Q101.1719,18.5 101.4375,18.5 Q101.9063,18.5 102.2031,18.7813 Q102.5,19.0625 102.5,19.7188 L102.5,21.2813 Q102.5,21.9375 102.2188,22.2188 Q101.9375,22.5 101.5,22.5 Q101.1094,22.5 100.8594,22.3281 Q100.6094,22.1563 100.5,21.7031 Q100.4531,21.3906 100.2813,21.2188 Q99.9688,20.8906 99.4063,20.7031 Q98.8438,20.5 98.2813,20.5 Q97.5781,20.5 96.9844,20.7813 Q96.4063,21.0625 95.9531,21.6875 Q95.5,22.3125 95.5,23.1719 L95.5,24.0938 Q95.5,25.125 96.3438,25.8125 Q97.1875,26.5 98.6875,26.5 Q99.5781,26.5 100.2031,26.2969 Q100.5625,26.1875 100.9688,25.8281 Q101.2344,25.625 101.375,25.5625 Q101.5156,25.5 101.6875,25.5 Q102.0156,25.5 102.25,25.7656 Q102.5,26.0156 102.5,26.375 Q102.5,26.7188 102.1563,27.125 Q101.6563,27.7188 100.8594,28.0469 Q99.8125,28.5 98.5313,28.5 Q97.0313,28.5 95.8281,27.9063 Q94.8594,27.4375 94.1719,26.4219 Q93.5,25.4063 93.5,24.2031 L93.5,23.1094 Q93.5,21.8594 94.0938,20.7656 Q94.7031,19.6719 95.75,19.0938 Q96.8125,18.5 98,18.5 Q98.7188,18.5 99.3438,18.75 Q99.9688,19 100.5,19.5 Z " fill="#000000"/><text fill="#000000" font-family="sans-serif" font-size="12" lengthAdjust="spacing" textLength="98" x="112.5" y="27.9102">OccupancyRateUI</text><line style="stroke:#A80036;stroke-width:1.5;" x1="84.5" x2="212.5" y1="39" y2="39"/><line style="stroke:#A80036;stroke-width:1.5;" x1="84.5" x2="212.5" y1="47" y2="47"/><!--MD5=[9031d846d186f456c35bb211c48c30c0]
class OccupancyRateController--><rect codeLine="4" fill="#FEFECE" filter="url(#f19wrrr2qhbonc)" height="61.8359" id="OccupancyRateController" style="stroke:#A80036;stroke-width:1.5;" width="184" x="56.5" y="115"/><ellipse cx="76.9" cy="131" fill="#ADD1B2" rx="11" ry="11" style="stroke:#A80036;stroke-width:1.0;"/><path d="M78.9,127.5 Q79.1031,127 79.3375,126.75 Q79.5719,126.5 79.8375,126.5 Q80.3063,126.5 80.6031,126.7813 Q80.9,127.0625 80.9,127.7188 L80.9,129.2813 Q80.9,129.9375 80.6188,130.2188 Q80.3375,130.5 79.9,130.5 Q79.5094,130.5 79.2594,130.3281 Q79.0094,130.1563 78.9,129.7031 Q78.8531,129.3906 78.6813,129.2188 Q78.3688,128.8906 77.8063,128.7031 Q77.2438,128.5 76.6813,128.5 Q75.9781,128.5 75.3844,128.7813 Q74.8063,129.0625 74.3531,129.6875 Q73.9,130.3125 73.9,131.1719 L73.9,132.0938 Q73.9,133.125 74.7438,133.8125 Q75.5875,134.5 77.0875,134.5 Q77.9781,134.5 78.6031,134.2969 Q78.9625,134.1875 79.3688,133.8281 Q79.6344,133.625 79.775,133.5625 Q79.9156,133.5 80.0875,133.5 Q80.4156,133.5 80.65,133.7656 Q80.9,134.0156 80.9,134.375 Q80.9,134.7188 80.5563,135.125 Q80.0563,135.7188 79.2594,136.0469 Q78.2125,136.5 76.9313,136.5 Q75.4313,136.5 74.2281,135.9063 Q73.2594,135.4375 72.5719,134.4219 Q71.9,133.4063 71.9,132.2031 L71.9,131.1094 Q71.9,129.8594 72.4938,128.7656 Q73.1031,127.6719 74.15,127.0938 Q75.2125,126.5 76.4,126.5 Q77.1188,126.5 77.7438,126.75 Q78.3688,127 78.9,127.5 Z " fill="#000000"/><text fill="#000000" font-family="sans-serif" font-size="12" lengthAdjust="spacing" textLength="140" x="92.1" y="135.9102">OccupancyRateController</text><line style="stroke:#A80036;stroke-width:1.5;" x1="57.5" x2="239.5" y1="147" y2="147"/><line style="stroke:#A80036;stroke-width:1.5;" x1="57.5" x2="239.5" y1="155" y2="155"/><ellipse cx="67.5" cy="166" fill="#84BE84" rx="3" ry="3" style="stroke:#038048;stroke-width:1.0;"/><text fill="#000000" font-family="sans-serif" font-size="11" lengthAdjust="spacing" textLength="158" x="76.5" y="170.4189">getOccupancy(idManifest, mmsi)</text><!--MD5=[02e4b9b7573f1156f41e60aa5b4e25a4]
class Company--><rect codeLine="8" fill="#FEFECE" filter="url(#f19wrrr2qhbonc)" height="75.6719" id="Company" style="stroke:#A80036;stroke-width:1.5;" width="153" x="7" y="237"/><ellipse cx="52.75" cy="253" fill="#ADD1B2" rx="11" ry="11" style="stroke:#A80036;stroke-width:1.0;"/><path d="M54.75,249.5 Q54.9531,249 55.1875,248.75 Q55.4219,248.5 55.6875,248.5 Q56.1563,248.5 56.4531,248.7813 Q56.75,249.0625 56.75,249.7188 L56.75,251.2813 Q56.75,251.9375 56.4688,252.2188 Q56.1875,252.5 55.75,252.5 Q55.3594,252.5 55.1094,252.3281 Q54.8594,252.1563 54.75,251.7031 Q54.7031,251.3906 54.5313,251.2188 Q54.2188,250.8906 53.6563,250.7031 Q53.0938,250.5 52.5313,250.5 Q51.8281,250.5 51.2344,250.7813 Q50.6563,251.0625 50.2031,251.6875 Q49.75,252.3125 49.75,253.1719 L49.75,254.0938 Q49.75,255.125 50.5938,255.8125 Q51.4375,256.5 52.9375,256.5 Q53.8281,256.5 54.4531,256.2969 Q54.8125,256.1875 55.2188,255.8281 Q55.4844,255.625 55.625,255.5625 Q55.7656,255.5 55.9375,255.5 Q56.2656,255.5 56.5,255.7656 Q56.75,256.0156 56.75,256.375 Q56.75,256.7188 56.4063,257.125 Q55.9063,257.7188 55.1094,258.0469 Q54.0625,258.5 52.7813,258.5 Q51.2813,258.5 50.0781,257.9063 Q49.1094,257.4375 48.4219,256.4219 Q47.75,255.4063 47.75,254.2031 L47.75,253.1094 Q47.75,251.8594 48.3438,250.7656 Q48.9531,249.6719 50,249.0938 Q51.0625,248.5 52.25,248.5 Q52.9688,248.5 53.5938,248.75 Q54.2188,249 54.75,249.5 Z " fill="#000000"/><text fill="#000000" font-family="sans-serif" font-size="12" lengthAdjust="spacing" textLength="53" x="73.25" y="257.9102">Company</text><line style="stroke:#A80036;stroke-width:1.5;" x1="8" x2="159" y1="269" y2="269"/><rect fill="none" height="6" style="stroke:#C82930;stroke-width:1.0;" width="6" x="15" y="277"/><text fill="#000000" font-family="sans-serif" font-size="11" lengthAdjust="spacing" textLength="123" x="27" y="284.4189">OccupancyRateStore ors</text><line style="stroke:#A80036;stroke-width:1.5;" x1="8" x2="159" y1="290.8359" y2="290.8359"/><ellipse cx="18" cy="301.8359" fill="#84BE84" rx="3" ry="3" style="stroke:#038048;stroke-width:1.0;"/><text fill="#000000" font-family="sans-serif" font-size="11" lengthAdjust="spacing" textLength="127" x="27" y="306.2549">getOccupancyRateStore()</text><!--MD5=[7e857f1fc8405913d7d6d9b07d2a2fd4]
class OccupancyRateStore--><rect codeLine="13" fill="#FEFECE" filter="url(#f19wrrr2qhbonc)" height="61.8359" id="OccupancyRateStore" style="stroke:#A80036;stroke-width:1.5;" width="206" x="45.5" y="373"/><ellipse cx="87.05" cy="389" fill="#ADD1B2" rx="11" ry="11" style="stroke:#A80036;stroke-width:1.0;"/><path d="M89.05,385.5 Q89.2531,385 89.4875,384.75 Q89.7219,384.5 89.9875,384.5 Q90.4563,384.5 90.7531,384.7813 Q91.05,385.0625 91.05,385.7188 L91.05,387.2813 Q91.05,387.9375 90.7688,388.2188 Q90.4875,388.5 90.05,388.5 Q89.6594,388.5 89.4094,388.3281 Q89.1594,388.1563 89.05,387.7031 Q89.0031,387.3906 88.8313,387.2188 Q88.5188,386.8906 87.9563,386.7031 Q87.3938,386.5 86.8313,386.5 Q86.1281,386.5 85.5344,386.7813 Q84.9563,387.0625 84.5031,387.6875 Q84.05,388.3125 84.05,389.1719 L84.05,390.0938 Q84.05,391.125 84.8938,391.8125 Q85.7375,392.5 87.2375,392.5 Q88.1281,392.5 88.7531,392.2969 Q89.1125,392.1875 89.5188,391.8281 Q89.7844,391.625 89.925,391.5625 Q90.0656,391.5 90.2375,391.5 Q90.5656,391.5 90.8,391.7656 Q91.05,392.0156 91.05,392.375 Q91.05,392.7188 90.7063,393.125 Q90.2063,393.7188 89.4094,394.0469 Q88.3625,394.5 87.0813,394.5 Q85.5813,394.5 84.3781,393.9063 Q83.4094,393.4375 82.7219,392.4219 Q82.05,391.4063 82.05,390.2031 L82.05,389.1094 Q82.05,387.8594 82.6438,386.7656 Q83.2531,385.6719 84.3,385.0938 Q85.3625,384.5 86.55,384.5 Q87.2688,384.5 87.8938,384.75 Q88.5188,385 89.05,385.5 Z " fill="#000000"/><text fill="#000000" font-family="sans-serif" font-size="12" lengthAdjust="spacing" textLength="115" x="106.95" y="393.9102">OccupancyRateStore</text><line style="stroke:#A80036;stroke-width:1.5;" x1="46.5" x2="250.5" y1="405" y2="405"/><line style="stroke:#A80036;stroke-width:1.5;" x1="46.5" x2="250.5" y1="413" y2="413"/><ellipse cx="56.5" cy="424" fill="#84BE84" rx="3" ry="3" style="stroke:#038048;stroke-width:1.0;"/><text fill="#000000" font-family="sans-serif" font-size="11" lengthAdjust="spacing" textLength="180" x="65.5" y="428.4189">getOccupancyRate(idManifest, mmsi)</text><!--MD5=[6146df68144618e66810121db03f5a39]
link OccupancyRateUI to OccupancyRateController--><path codeLine="17" d="M148.5,55.14 C148.5,70.71 148.5,91.53 148.5,109.22 " fill="none" id="OccupancyRateUI-to-OccupancyRateController" style="stroke:#A80036;stroke-width:1.0;stroke-dasharray:7.0,7.0;"/><polygon fill="#A80036" points="148.5,114.6,152.5,105.6,148.5,109.6,144.5,105.6,148.5,114.6" style="stroke:#A80036;stroke-width:1.0;"/><!--MD5=[747f2d5fb3e2cfbbc9721fbe6b8b1b88]
link OccupancyRateController to Company--><path codeLine="18" d="M133.1,177.1 C124.65,193.6 114.05,214.3 104.83,232.33 " fill="none" id="OccupancyRateController-to-Company" style="stroke:#A80036;stroke-width:1.0;stroke-dasharray:7.0,7.0;"/><polygon fill="#A80036" points="102.51,236.86,110.1604,230.6574,104.7803,232.4051,103.0326,227.025,102.51,236.86" style="stroke:#A80036;stroke-width:1.0;"/><!--MD5=[36b69d3f925b42622dd26e3c2dc53f9e]
link Company to OccupancyRateStore--><path codeLine="19" d="M102.48,313.08 C111.38,330.47 121.94,351.1 130.69,368.2 " fill="none" id="Company-to-OccupancyRateStore" style="stroke:#A80036;stroke-width:1.0;"/><polygon fill="#A80036" points="133.11,372.93,132.5874,363.095,130.8397,368.4751,125.4596,366.7274,133.11,372.93" style="stroke:#A80036;stroke-width:1.0;"/><!--MD5=[a56c3b2137599402f70f2475641b76fc]
link OccupancyRateController to OccupancyRateStore--><path codeLine="20" d="M160.86,177.25 C167.21,194.44 174.29,216.57 177.5,237 C182.74,270.37 182.74,279.63 177.5,313 C174.59,331.52 168.51,351.42 162.66,367.79 " fill="none" id="OccupancyRateController-to-OccupancyRateStore" style="stroke:#A80036;stroke-width:1.0;stroke-dasharray:7.0,7.0;"/><polygon fill="#A80036" points="160.86,372.75,167.6827,365.6472,162.5607,368.0481,160.1597,362.9261,160.86,372.75" style="stroke:#A80036;stroke-width:1.0;"/><!--MD5=[578df4cc10ed62385c30163500039f0d]
@startuml
class OccupancyRateUI{
}

class OccupancyRateController{
    +getOccupancy(idManifest, mmsi)
}

class Company{
    -OccupancyRateStore ors
    +getOccupancyRateStore()
}

class OccupancyRateStore{
    +getOccupancyRate(idManifest, mmsi)
}

OccupancyRateUI ..> OccupancyRateController
OccupancyRateController ..> Company
Company - -> OccupancyRateStore
OccupancyRateController ..> OccupancyRateStore


@enduml

PlantUML version 1.2021.11(Sat Oct 02 14:26:11 BST 2021)
(GPL source distribution)
Java Runtime: OpenJDK Runtime Environment
JVM: OpenJDK 64-Bit Server VM
Default Encoding: Cp1252
Language: pt
Country: PT
--></g></svg>