<?xml version="1.0" encoding="UTF-8" standalone="no"?><svg xmlns="http://www.w3.org/2000/svg" xmlns:xlink="http://www.w3.org/1999/xlink" contentScriptType="application/ecmascript" contentStyleType="text/css" height="264px" preserveAspectRatio="none" style="width:597px;height:264px;background:#FFFFFF;" version="1.1" viewBox="0 0 597 264" width="597.5px" zoomAndPan="magnify"><defs><filter height="300%" id="fvq4861kch76i" width="300%" x="-1" y="-1"><feGaussianBlur result="blurOut" stdDeviation="1.0"/><feColorMatrix in="blurOut" result="blurOut2" type="matrix" values="0 0 0 0 0 0 0 0 0 0 0 0 0 0 0 0 0 0 .4 0"/><feOffset dx="2.0" dy="2.0" in="blurOut2" result="blurOut3"/><feBlend in="SourceGraphic" in2="blurOut3" mode="normal"/></filter></defs><g><rect fill="#FFFFFF" filter="url(#fvq4861kch76i)" height="162.7578" style="stroke:#A80036;stroke-width:0.5;" width="5" x="25.5" y="49.8047"/><rect fill="#FFFFFF" filter="url(#fvq4861kch76i)" height="15.1758" style="stroke:#A80036;stroke-width:0.5;" width="5" x="195" y="60.9805"/><rect fill="#FFFFFF" filter="url(#fvq4861kch76i)" height="121.2305" style="stroke:#A80036;stroke-width:0.5;" width="5" x="195" y="91.332"/><rect fill="#FFFFFF" filter="url(#fvq4861kch76i)" height="90.8789" style="stroke:#A80036;stroke-width:0.5;" width="5" x="361" y="106.5078"/><rect fill="#FFFFFF" filter="url(#fvq4861kch76i)" height="30.1758" style="stroke:#A80036;stroke-width:0.5;" width="5" x="456" y="121.6836"/><rect fill="#FFFFFF" filter="url(#fvq4861kch76i)" height="15" style="stroke:#A80036;stroke-width:0.5;" width="5" x="551" y="136.8594"/><rect fill="#FFFFFF" filter="url(#fvq4861kch76i)" height="15.1758" style="stroke:#A80036;stroke-width:0.5;" width="5" x="551" y="167.0352"/><line style="stroke:#A80036;stroke-width:0.5;stroke-dasharray:5.0,5.0;" x1="28" x2="28" y1="44.8047" y2="221.5625"/><line style="stroke:#A80036;stroke-width:0.5;stroke-dasharray:5.0,5.0;" x1="197.25" x2="197.25" y1="44.8047" y2="221.5625"/><line style="stroke:#A80036;stroke-width:0.5;stroke-dasharray:5.0,5.0;" x1="363.25" x2="363.25" y1="44.8047" y2="221.5625"/><line style="stroke:#A80036;stroke-width:0.5;stroke-dasharray:5.0,5.0;" x1="458.5" x2="458.5" y1="44.8047" y2="221.5625"/><line style="stroke:#A80036;stroke-width:0.5;stroke-dasharray:5.0,5.0;" x1="553.25" x2="553.25" y1="44.8047" y2="221.5625"/><text fill="#000000" font-family="sans-serif" font-size="7" lengthAdjust="spacing" textLength="48" x="2.5" y="43.2666">TrafficManager</text><ellipse cx="28" cy="7.5" fill="#FEFECE" filter="url(#fvq4861kch76i)" rx="4" ry="4" style="stroke:#A80036;stroke-width:1.0;"/><path d="M28,11.5 L28,25 M21.5,15.5 L34.5,15.5 M28,25 L21.5,32.5 M28,25 L34.5,32.5 " fill="none" filter="url(#fvq4861kch76i)" style="stroke:#A80036;stroke-width:1.0;"/><text fill="#000000" font-family="sans-serif" font-size="7" lengthAdjust="spacing" textLength="48" x="2.5" y="228.3291">TrafficManager</text><ellipse cx="28" cy="234.8672" fill="#FEFECE" filter="url(#fvq4861kch76i)" rx="4" ry="4" style="stroke:#A80036;stroke-width:1.0;"/><path d="M28,238.8672 L28,252.3672 M21.5,242.8672 L34.5,242.8672 M28,252.3672 L21.5,259.8672 M28,252.3672 L34.5,259.8672 " fill="none" filter="url(#fvq4861kch76i)" style="stroke:#A80036;stroke-width:1.0;"/><rect fill="#FEFECE" filter="url(#fvq4861kch76i)" height="15.8047" style="stroke:#A80036;stroke-width:0.75;" width="65.5" x="163.75" y="26.5"/><text fill="#000000" font-family="sans-serif" font-size="7" lengthAdjust="spacing" textLength="58.5" x="167.25" y="37.2666">:OccupancyRateUI</text><rect fill="#FEFECE" filter="url(#fvq4861kch76i)" height="15.8047" style="stroke:#A80036;stroke-width:0.75;" width="65.5" x="163.75" y="221.0625"/><text fill="#000000" font-family="sans-serif" font-size="7" lengthAdjust="spacing" textLength="58.5" x="167.25" y="231.8291">:OccupancyRateUI</text><rect fill="#FEFECE" filter="url(#fvq4861kch76i)" height="15.8047" style="stroke:#A80036;stroke-width:0.75;" width="90.5" x="317.25" y="26.5"/><text fill="#000000" font-family="sans-serif" font-size="7" lengthAdjust="spacing" textLength="83.5" x="320.75" y="37.2666">:OccupancyRateController</text><rect fill="#FEFECE" filter="url(#fvq4861kch76i)" height="15.8047" style="stroke:#A80036;stroke-width:0.75;" width="90.5" x="317.25" y="221.0625"/><text fill="#000000" font-family="sans-serif" font-size="7" lengthAdjust="spacing" textLength="83.5" x="320.75" y="231.8291">:OccupancyRateController</text><rect fill="#FEFECE" filter="url(#fvq4861kch76i)" height="15.8047" style="stroke:#A80036;stroke-width:0.75;" width="39" x="438" y="26.5"/><text fill="#000000" font-family="sans-serif" font-size="7" lengthAdjust="spacing" textLength="32" x="441.5" y="37.2666">:Company</text><rect fill="#FEFECE" filter="url(#fvq4861kch76i)" height="15.8047" style="stroke:#A80036;stroke-width:0.75;" width="39" x="438" y="221.0625"/><text fill="#000000" font-family="sans-serif" font-size="7" lengthAdjust="spacing" textLength="32" x="441.5" y="231.8291">:Company</text><rect fill="#FEFECE" filter="url(#fvq4861kch76i)" height="15.8047" style="stroke:#A80036;stroke-width:0.75;" width="76.5" x="514.25" y="26.5"/><text fill="#000000" font-family="sans-serif" font-size="7" lengthAdjust="spacing" textLength="69.5" x="517.75" y="37.2666">:OccupancyRateStore</text><rect fill="#FEFECE" filter="url(#fvq4861kch76i)" height="15.8047" style="stroke:#A80036;stroke-width:0.75;" width="76.5" x="514.25" y="221.0625"/><text fill="#000000" font-family="sans-serif" font-size="7" lengthAdjust="spacing" textLength="69.5" x="517.75" y="231.8291">:OccupancyRateStore</text><rect fill="#FFFFFF" filter="url(#fvq4861kch76i)" height="162.7578" style="stroke:#A80036;stroke-width:0.5;" width="5" x="25.5" y="49.8047"/><rect fill="#FFFFFF" filter="url(#fvq4861kch76i)" height="15.1758" style="stroke:#A80036;stroke-width:0.5;" width="5" x="195" y="60.9805"/><rect fill="#FFFFFF" filter="url(#fvq4861kch76i)" height="121.2305" style="stroke:#A80036;stroke-width:0.5;" width="5" x="195" y="91.332"/><rect fill="#FFFFFF" filter="url(#fvq4861kch76i)" height="90.8789" style="stroke:#A80036;stroke-width:0.5;" width="5" x="361" y="106.5078"/><rect fill="#FFFFFF" filter="url(#fvq4861kch76i)" height="30.1758" style="stroke:#A80036;stroke-width:0.5;" width="5" x="456" y="121.6836"/><rect fill="#FFFFFF" filter="url(#fvq4861kch76i)" height="15" style="stroke:#A80036;stroke-width:0.5;" width="5" x="551" y="136.8594"/><rect fill="#FFFFFF" filter="url(#fvq4861kch76i)" height="15.1758" style="stroke:#A80036;stroke-width:0.5;" width="5" x="551" y="167.0352"/><polygon fill="#A80036" points="189,58.9805,194,60.9805,189,62.9805,191,60.9805" style="stroke:#A80036;stroke-width:0.5;"/><line style="stroke:#A80036;stroke-width:0.5;" x1="30.5" x2="192" y1="60.9805" y2="60.9805"/><text fill="#000000" font-family="sans-serif" font-size="6.5" font-weight="bold" lengthAdjust="spacing" textLength="3.5" x="34" y="58.5522">1</text><text fill="#000000" font-family="sans-serif" font-size="6.5" lengthAdjust="spacing" textLength="65.5" x="39.5" y="58.5522">Issue a cargo manifest</text><polygon fill="#A80036" points="36,74.1563,31,76.1563,36,78.1563,34,76.1563" style="stroke:#A80036;stroke-width:0.5;"/><line style="stroke:#A80036;stroke-width:0.5;stroke-dasharray:2.0,2.0;" x1="33" x2="197" y1="76.1563" y2="76.1563"/><text fill="#000000" font-family="sans-serif" font-size="6.5" font-weight="bold" lengthAdjust="spacing" textLength="3.5" x="39" y="73.728">2</text><text fill="#000000" font-family="sans-serif" font-size="6.5" lengthAdjust="spacing" textLength="82.5" x="44.5" y="73.728">Asks for the destination ship</text><polygon fill="#A80036" points="189,89.332,194,91.332,189,93.332,191,91.332" style="stroke:#A80036;stroke-width:0.5;"/><line style="stroke:#A80036;stroke-width:0.5;" x1="30.5" x2="192" y1="91.332" y2="91.332"/><text fill="#000000" font-family="sans-serif" font-size="6.5" font-weight="bold" lengthAdjust="spacing" textLength="3.5" x="34" y="88.9038">3</text><text fill="#000000" font-family="sans-serif" font-size="6.5" lengthAdjust="spacing" textLength="130.5" x="39.5" y="88.9038">Introduces destination ship and id of manifest</text><polygon fill="#A80036" points="355,104.5078,360,106.5078,355,108.5078,357,106.5078" style="stroke:#A80036;stroke-width:0.5;"/><line style="stroke:#A80036;stroke-width:0.5;" x1="200" x2="358" y1="106.5078" y2="106.5078"/><text fill="#000000" font-family="sans-serif" font-size="6.5" font-weight="bold" lengthAdjust="spacing" textLength="3.5" x="203.5" y="104.0796">4</text><text fill="#000000" font-family="sans-serif" font-size="6.5" lengthAdjust="spacing" textLength="113.5" x="209" y="104.0796">getOccupancy(int idManifest, int mmsi)</text><polygon fill="#A80036" points="450,119.6836,455,121.6836,450,123.6836,452,121.6836" style="stroke:#A80036;stroke-width:0.5;"/><line style="stroke:#A80036;stroke-width:0.5;" x1="366" x2="453" y1="121.6836" y2="121.6836"/><text fill="#000000" font-family="sans-serif" font-size="6.5" font-weight="bold" lengthAdjust="spacing" textLength="3.5" x="369.5" y="119.2554">5</text><text fill="#000000" font-family="sans-serif" font-size="6.5" lengthAdjust="spacing" textLength="75" x="375" y="119.2554">getOccupancyRateStore()</text><polygon fill="#A80036" points="545,134.8594,550,136.8594,545,138.8594,547,136.8594" style="stroke:#A80036;stroke-width:0.5;"/><line style="stroke:#A80036;stroke-width:0.5;" x1="461" x2="548" y1="136.8594" y2="136.8594"/><text fill="#000000" font-family="sans-serif" font-size="6.5" font-weight="bold" lengthAdjust="spacing" textLength="3.5" x="464.5" y="134.4312">6</text><text fill="#000000" font-family="sans-serif" font-size="6.5" lengthAdjust="spacing" textLength="75" x="470" y="134.4312">getOccupancyRateStore()</text><polygon fill="#A80036" points="545,165.0352,550,167.0352,545,169.0352,547,167.0352" style="stroke:#A80036;stroke-width:0.5;"/><line style="stroke:#A80036;stroke-width:0.5;" x1="366" x2="548" y1="167.0352" y2="167.0352"/><text fill="#000000" font-family="sans-serif" font-size="6.5" font-weight="bold" lengthAdjust="spacing" textLength="3.5" x="369.5" y="164.6069">7</text><text fill="#000000" font-family="sans-serif" font-size="6.5" lengthAdjust="spacing" textLength="113.5" x="375" y="164.6069">getOccupancy(int idManifest, int mmsi)</text><polygon fill="#A80036" points="371.5,180.2109,366.5,182.2109,371.5,184.2109,369.5,182.2109" style="stroke:#A80036;stroke-width:0.5;"/><line style="stroke:#A80036;stroke-width:0.5;stroke-dasharray:2.0,2.0;" x1="368.5" x2="553" y1="182.2109" y2="182.2109"/><text fill="#000000" font-family="sans-serif" font-size="6.5" font-weight="bold" lengthAdjust="spacing" textLength="3.5" x="374.5" y="179.7827">8</text><text fill="#000000" font-family="sans-serif" font-size="6.5" lengthAdjust="spacing" textLength="143.5" x="380" y="179.7827">Changes the number of containers in the manifest</text><polygon fill="#A80036" points="205.5,195.3867,200.5,197.3867,205.5,199.3867,203.5,197.3867" style="stroke:#A80036;stroke-width:0.5;"/><line style="stroke:#A80036;stroke-width:0.5;stroke-dasharray:2.0,2.0;" x1="202.5" x2="363" y1="197.3867" y2="197.3867"/><text fill="#000000" font-family="sans-serif" font-size="6.5" font-weight="bold" lengthAdjust="spacing" textLength="3.5" x="208.5" y="194.9585">9</text><text fill="#000000" font-family="sans-serif" font-size="6.5" lengthAdjust="spacing" textLength="143.5" x="214" y="194.9585">Changes the number of containers in the manifest</text><polygon fill="#A80036" points="33.5,210.5625,28.5,212.5625,33.5,214.5625,31.5,212.5625" style="stroke:#A80036;stroke-width:0.5;"/><line style="stroke:#A80036;stroke-width:0.5;stroke-dasharray:2.0,2.0;" x1="30.5" x2="197" y1="212.5625" y2="212.5625"/><text fill="#000000" font-family="sans-serif" font-size="6.5" font-weight="bold" lengthAdjust="spacing" textLength="7" x="36.5" y="210.1343">10</text><text fill="#000000" font-family="sans-serif" font-size="6.5" lengthAdjust="spacing" textLength="143.5" x="45.5" y="210.1343">Changes the number of containers in the manifest</text><!--MD5=[2014eb560f6455211c15d24b954f2c4c]
@startuml
autonumber
actor TrafficManager as TM

participant ":OccupancyRateUI" as or
participant ":OccupancyRateController" as orc
participant ":Company" as comp
participant ":OccupancyRateStore" as ors

activate TM
TM -> or : Issue a cargo manifest
activate or
or - -> TM : Asks for the destination ship
deactivate or
TM ->or : Introduces destination ship and id of manifest
activate or
or -> orc : getOccupancy(int idManifest, int mmsi)
activate orc
orc -> comp : getOccupancyRateStore()
activate comp
comp -> ors : getOccupancyRateStore()
activate ors
deactivate ors
deactivate comp
orc -> ors : getOccupancy(int idManifest, int mmsi)
activate ors
ors - -> orc : Changes the number of containers in the manifest
deactivate ors
orc - -> or : Changes the number of containers in the manifest
deactivate orc
or - -> TM : Changes the number of containers in the manifest
deactivate or
deactivate TM
@enduml

PlantUML version 1.2021.11(Sat Oct 02 14:26:11 BST 2021)
(GPL source distribution)
Java Runtime: OpenJDK Runtime Environment
JVM: OpenJDK 64-Bit Server VM
Default Encoding: Cp1252
Language: pt
Country: PT
--></g></svg>