<?xml version="1.0" encoding="UTF-8" standalone="no"?><svg xmlns="http://www.w3.org/2000/svg" xmlns:xlink="http://www.w3.org/1999/xlink" contentScriptType="application/ecmascript" contentStyleType="text/css" height="462px" preserveAspectRatio="none" style="width:241px;height:462px;background:#FFFFFF;" version="1.1" viewBox="0 0 241 462" width="241px" zoomAndPan="magnify"><defs><filter height="300%" id="f1c370x8jdmzau" width="300%" x="-1" y="-1"><feGaussianBlur result="blurOut" stdDeviation="2.0"/><feColorMatrix in="blurOut" result="blurOut2" type="matrix" values="0 0 0 0 0 0 0 0 0 0 0 0 0 0 0 0 0 0 .4 0"/><feOffset dx="4.0" dy="4.0" in="blurOut2" result="blurOut3"/><feBlend in="SourceGraphic" in2="blurOut3" mode="normal"/></filter></defs><g><!--MD5=[01fce8d72a4b9d8d145f559a88436210]
class OffloadedContainersUI--><rect codeLine="1" fill="#FEFECE" filter="url(#f1c370x8jdmzau)" height="48" id="OffloadedContainersUI" style="stroke:#A80036;stroke-width:1.5;" width="158" x="48.5" y="7"/><ellipse cx="63.5" cy="23" fill="#ADD1B2" rx="11" ry="11" style="stroke:#A80036;stroke-width:1.0;"/><path d="M65.5,19.5 Q65.7031,19 65.9375,18.75 Q66.1719,18.5 66.4375,18.5 Q66.9063,18.5 67.2031,18.7813 Q67.5,19.0625 67.5,19.7188 L67.5,21.2813 Q67.5,21.9375 67.2188,22.2188 Q66.9375,22.5 66.5,22.5 Q66.1094,22.5 65.8594,22.3281 Q65.6094,22.1563 65.5,21.7031 Q65.4531,21.3906 65.2813,21.2188 Q64.9688,20.8906 64.4063,20.7031 Q63.8438,20.5 63.2813,20.5 Q62.5781,20.5 61.9844,20.7813 Q61.4063,21.0625 60.9531,21.6875 Q60.5,22.3125 60.5,23.1719 L60.5,24.0938 Q60.5,25.125 61.3438,25.8125 Q62.1875,26.5 63.6875,26.5 Q64.5781,26.5 65.2031,26.2969 Q65.5625,26.1875 65.9688,25.8281 Q66.2344,25.625 66.375,25.5625 Q66.5156,25.5 66.6875,25.5 Q67.0156,25.5 67.25,25.7656 Q67.5,26.0156 67.5,26.375 Q67.5,26.7188 67.1563,27.125 Q66.6563,27.7188 65.8594,28.0469 Q64.8125,28.5 63.5313,28.5 Q62.0313,28.5 60.8281,27.9063 Q59.8594,27.4375 59.1719,26.4219 Q58.5,25.4063 58.5,24.2031 L58.5,23.1094 Q58.5,21.8594 59.0938,20.7656 Q59.7031,19.6719 60.75,19.0938 Q61.8125,18.5 63,18.5 Q63.7188,18.5 64.3438,18.75 Q64.9688,19 65.5,19.5 Z " fill="#000000"/><text fill="#000000" font-family="sans-serif" font-size="12" lengthAdjust="spacing" textLength="126" x="77.5" y="27.9102">OffloadedContainersUI</text><line style="stroke:#A80036;stroke-width:1.5;" x1="49.5" x2="205.5" y1="39" y2="39"/><line style="stroke:#A80036;stroke-width:1.5;" x1="49.5" x2="205.5" y1="47" y2="47"/><!--MD5=[99b287f92bda127d6e68b2ee18773952]
class OffloadedContainersController--><rect codeLine="4" fill="#FEFECE" filter="url(#f1c370x8jdmzau)" height="61.8359" id="OffloadedContainersController" style="stroke:#A80036;stroke-width:1.5;" width="200" x="27.5" y="115"/><ellipse cx="42.5" cy="131" fill="#ADD1B2" rx="11" ry="11" style="stroke:#A80036;stroke-width:1.0;"/><path d="M44.5,127.5 Q44.7031,127 44.9375,126.75 Q45.1719,126.5 45.4375,126.5 Q45.9063,126.5 46.2031,126.7813 Q46.5,127.0625 46.5,127.7188 L46.5,129.2813 Q46.5,129.9375 46.2188,130.2188 Q45.9375,130.5 45.5,130.5 Q45.1094,130.5 44.8594,130.3281 Q44.6094,130.1563 44.5,129.7031 Q44.4531,129.3906 44.2813,129.2188 Q43.9688,128.8906 43.4063,128.7031 Q42.8438,128.5 42.2813,128.5 Q41.5781,128.5 40.9844,128.7813 Q40.4063,129.0625 39.9531,129.6875 Q39.5,130.3125 39.5,131.1719 L39.5,132.0938 Q39.5,133.125 40.3438,133.8125 Q41.1875,134.5 42.6875,134.5 Q43.5781,134.5 44.2031,134.2969 Q44.5625,134.1875 44.9688,133.8281 Q45.2344,133.625 45.375,133.5625 Q45.5156,133.5 45.6875,133.5 Q46.0156,133.5 46.25,133.7656 Q46.5,134.0156 46.5,134.375 Q46.5,134.7188 46.1563,135.125 Q45.6563,135.7188 44.8594,136.0469 Q43.8125,136.5 42.5313,136.5 Q41.0313,136.5 39.8281,135.9063 Q38.8594,135.4375 38.1719,134.4219 Q37.5,133.4063 37.5,132.2031 L37.5,131.1094 Q37.5,129.8594 38.0938,128.7656 Q38.7031,127.6719 39.75,127.0938 Q40.8125,126.5 42,126.5 Q42.7188,126.5 43.3438,126.75 Q43.9688,127 44.5,127.5 Z " fill="#000000"/><text fill="#000000" font-family="sans-serif" font-size="12" lengthAdjust="spacing" textLength="168" x="56.5" y="135.9102">OffloadedContainersController</text><line style="stroke:#A80036;stroke-width:1.5;" x1="28.5" x2="226.5" y1="147" y2="147"/><line style="stroke:#A80036;stroke-width:1.5;" x1="28.5" x2="226.5" y1="155" y2="155"/><ellipse cx="38.5" cy="166" fill="#84BE84" rx="3" ry="3" style="stroke:#038048;stroke-width:1.0;"/><text fill="#000000" font-family="sans-serif" font-size="11" lengthAdjust="spacing" textLength="116" x="47.5" y="170.4189">getListContainers(mmsi)</text><!--MD5=[02e4b9b7573f1156f41e60aa5b4e25a4]
class Company--><rect codeLine="8" fill="#FEFECE" filter="url(#f1c370x8jdmzau)" height="75.6719" id="Company" style="stroke:#A80036;stroke-width:1.5;" width="125" x="7" y="237"/><ellipse cx="40" cy="253" fill="#ADD1B2" rx="11" ry="11" style="stroke:#A80036;stroke-width:1.0;"/><path d="M42,249.5 Q42.2031,249 42.4375,248.75 Q42.6719,248.5 42.9375,248.5 Q43.4063,248.5 43.7031,248.7813 Q44,249.0625 44,249.7188 L44,251.2813 Q44,251.9375 43.7188,252.2188 Q43.4375,252.5 43,252.5 Q42.6094,252.5 42.3594,252.3281 Q42.1094,252.1563 42,251.7031 Q41.9531,251.3906 41.7813,251.2188 Q41.4688,250.8906 40.9063,250.7031 Q40.3438,250.5 39.7813,250.5 Q39.0781,250.5 38.4844,250.7813 Q37.9063,251.0625 37.4531,251.6875 Q37,252.3125 37,253.1719 L37,254.0938 Q37,255.125 37.8438,255.8125 Q38.6875,256.5 40.1875,256.5 Q41.0781,256.5 41.7031,256.2969 Q42.0625,256.1875 42.4688,255.8281 Q42.7344,255.625 42.875,255.5625 Q43.0156,255.5 43.1875,255.5 Q43.5156,255.5 43.75,255.7656 Q44,256.0156 44,256.375 Q44,256.7188 43.6563,257.125 Q43.1563,257.7188 42.3594,258.0469 Q41.3125,258.5 40.0313,258.5 Q38.5313,258.5 37.3281,257.9063 Q36.3594,257.4375 35.6719,256.4219 Q35,255.4063 35,254.2031 L35,253.1094 Q35,251.8594 35.5938,250.7656 Q36.2031,249.6719 37.25,249.0938 Q38.3125,248.5 39.5,248.5 Q40.2188,248.5 40.8438,248.75 Q41.4688,249 42,249.5 Z " fill="#000000"/><text fill="#000000" font-family="sans-serif" font-size="12" lengthAdjust="spacing" textLength="53" x="58" y="257.9102">Company</text><line style="stroke:#A80036;stroke-width:1.5;" x1="8" x2="131" y1="269" y2="269"/><line style="stroke:#A80036;stroke-width:1.5;" x1="8" x2="131" y1="277" y2="277"/><ellipse cx="18" cy="288" fill="#84BE84" rx="3" ry="3" style="stroke:#038048;stroke-width:1.0;"/><text fill="#000000" font-family="sans-serif" font-size="11" lengthAdjust="spacing" textLength="75" x="27" y="292.4189">getContainers()</text><ellipse cx="18" cy="301.8359" fill="#84BE84" rx="3" ry="3" style="stroke:#038048;stroke-width:1.0;"/><text fill="#000000" font-family="sans-serif" font-size="11" lengthAdjust="spacing" textLength="99" x="27" y="306.2549">getContainers(mmsi)</text><!--MD5=[e89d392aea7b90bd80b4382ad54f4411]
class ContainersStore--><rect codeLine="13" fill="#FEFECE" filter="url(#f1c370x8jdmzau)" height="75.6719" id="ContainersStore" style="stroke:#A80036;stroke-width:1.5;" width="125" x="65" y="373"/><ellipse cx="81.35" cy="389" fill="#ADD1B2" rx="11" ry="11" style="stroke:#A80036;stroke-width:1.0;"/><path d="M83.35,385.5 Q83.5531,385 83.7875,384.75 Q84.0219,384.5 84.2875,384.5 Q84.7563,384.5 85.0531,384.7813 Q85.35,385.0625 85.35,385.7188 L85.35,387.2813 Q85.35,387.9375 85.0688,388.2188 Q84.7875,388.5 84.35,388.5 Q83.9594,388.5 83.7094,388.3281 Q83.4594,388.1563 83.35,387.7031 Q83.3031,387.3906 83.1313,387.2188 Q82.8188,386.8906 82.2563,386.7031 Q81.6938,386.5 81.1313,386.5 Q80.4281,386.5 79.8344,386.7813 Q79.2563,387.0625 78.8031,387.6875 Q78.35,388.3125 78.35,389.1719 L78.35,390.0938 Q78.35,391.125 79.1938,391.8125 Q80.0375,392.5 81.5375,392.5 Q82.4281,392.5 83.0531,392.2969 Q83.4125,392.1875 83.8188,391.8281 Q84.0844,391.625 84.225,391.5625 Q84.3656,391.5 84.5375,391.5 Q84.8656,391.5 85.1,391.7656 Q85.35,392.0156 85.35,392.375 Q85.35,392.7188 85.0063,393.125 Q84.5063,393.7188 83.7094,394.0469 Q82.6625,394.5 81.3813,394.5 Q79.8813,394.5 78.6781,393.9063 Q77.7094,393.4375 77.0219,392.4219 Q76.35,391.4063 76.35,390.2031 L76.35,389.1094 Q76.35,387.8594 76.9438,386.7656 Q77.5531,385.6719 78.6,385.0938 Q79.6625,384.5 80.85,384.5 Q81.5688,384.5 82.1938,384.75 Q82.8188,385 83.35,385.5 Z " fill="#000000"/><text fill="#000000" font-family="sans-serif" font-size="12" lengthAdjust="spacing" textLength="90" x="95.65" y="393.9102">ContainersStore</text><line style="stroke:#A80036;stroke-width:1.5;" x1="66" x2="189" y1="405" y2="405"/><line style="stroke:#A80036;stroke-width:1.5;" x1="66" x2="189" y1="413" y2="413"/><ellipse cx="76" cy="424" fill="#84BE84" rx="3" ry="3" style="stroke:#038048;stroke-width:1.0;"/><text fill="#000000" font-family="sans-serif" font-size="11" lengthAdjust="spacing" textLength="75" x="85" y="428.4189">getContainers()</text><ellipse cx="76" cy="437.8359" fill="#84BE84" rx="3" ry="3" style="stroke:#038048;stroke-width:1.0;"/><text fill="#000000" font-family="sans-serif" font-size="11" lengthAdjust="spacing" textLength="99" x="85" y="442.2549">getContainers(mmsi)</text><!--MD5=[2093dc7329d5e2d7d2bd3e6654dd1566]
link OffloadedContainersUI to OffloadedContainersController--><path codeLine="18" d="M127.5,55.14 C127.5,70.71 127.5,91.53 127.5,109.22 " fill="none" id="OffloadedContainersUI-to-OffloadedContainersController" style="stroke:#A80036;stroke-width:1.0;stroke-dasharray:7.0,7.0;"/><polygon fill="#A80036" points="127.5,114.6,131.5,105.6,127.5,109.6,123.5,105.6,127.5,114.6" style="stroke:#A80036;stroke-width:1.0;"/><!--MD5=[202454ba79aa2b6ceafb8c9edc87ca35]
link OffloadedContainersController to Company--><path codeLine="19" d="M113.75,177.1 C106.28,193.46 96.92,213.95 88.74,231.87 " fill="none" id="OffloadedContainersController-to-Company" style="stroke:#A80036;stroke-width:1.0;stroke-dasharray:7.0,7.0;"/><polygon fill="#A80036" points="86.46,236.86,93.8334,230.3306,88.5344,232.3106,86.5544,227.0116,86.46,236.86" style="stroke:#A80036;stroke-width:1.0;"/><!--MD5=[3edc07305c452574a4d41e48777c58ac]
link Company to ContainersStore--><path codeLine="20" d="M85.66,313.33 C93.01,330.31 101.74,350.49 109.32,368.01 " fill="none" id="Company-to-ContainersStore" style="stroke:#A80036;stroke-width:1.0;"/><polygon fill="#A80036" points="111.43,372.87,111.5243,363.0216,109.4432,368.2817,104.1831,366.2005,111.43,372.87" style="stroke:#A80036;stroke-width:1.0;"/><!--MD5=[a1ccb0100de2663ca643f99a319f4884]
link OffloadedContainersController to ContainersStore--><path codeLine="21" d="M136.77,177.08 C141.62,194.41 147.06,216.72 149.5,237 C153.54,270.54 153.26,279.43 149.5,313 C147.48,331.04 143.41,350.62 139.31,367.44 " fill="none" id="OffloadedContainersController-to-ContainersStore" style="stroke:#A80036;stroke-width:1.0;stroke-dasharray:7.0,7.0;"/><polygon fill="#A80036" points="138.04,372.56,144.0872,364.7862,139.2426,367.7068,136.322,362.8621,138.04,372.56" style="stroke:#A80036;stroke-width:1.0;"/><!--MD5=[9ede6d02e3cf6b26680fba244eaa52fa]
@startuml
class OffloadedContainersUI{
}

class OffloadedContainersController{
    +getListContainers(mmsi)
}

class Company{
    +getContainers()
    +getContainers(mmsi)
}

class ContainersStore{
    +getContainers()
    +getContainers(mmsi)
}

OffloadedContainersUI ..> OffloadedContainersController
OffloadedContainersController ..> Company
Company - -> ContainersStore
OffloadedContainersController ..> ContainersStore

@endum

PlantUML version 1.2021.11(Sat Oct 02 14:26:11 BST 2021)
(GPL source distribution)
Java Runtime: OpenJDK Runtime Environment
JVM: OpenJDK 64-Bit Server VM
Default Encoding: Cp1252
Language: pt
Country: PT
--></g></svg>