<?xml version="1.0" encoding="UTF-8" standalone="no"?><svg xmlns="http://www.w3.org/2000/svg" xmlns:xlink="http://www.w3.org/1999/xlink" contentScriptType="application/ecmascript" contentStyleType="text/css" height="470px" preserveAspectRatio="none" style="width:637px;height:470px;background:#FFFFFF;" version="1.1" viewBox="0 0 637 470" width="637px" zoomAndPan="magnify"><defs><filter height="300%" id="fp4swojo9534w" width="300%" x="-1" y="-1"><feGaussianBlur result="blurOut" stdDeviation="2.0"/><feColorMatrix in="blurOut" result="blurOut2" type="matrix" values="0 0 0 0 0 0 0 0 0 0 0 0 0 0 0 0 0 0 .4 0"/><feOffset dx="4.0" dy="4.0" in="blurOut2" result="blurOut3"/><feBlend in="SourceGraphic" in2="blurOut3" mode="normal"/></filter></defs><g><!--MD5=[02e4b9b7573f1156f41e60aa5b4e25a4]
class Company--><rect codeLine="3" fill="#FEFECE" filter="url(#fp4swojo9534w)" height="61.8359" id="Company" style="stroke:#A80036;stroke-width:1.5;" width="85" x="7" y="155.5"/><ellipse cx="22" cy="171.5" fill="#ADD1B2" rx="11" ry="11" style="stroke:#A80036;stroke-width:1.0;"/><path d="M24,168 Q24.2031,167.5 24.4375,167.25 Q24.6719,167 24.9375,167 Q25.4063,167 25.7031,167.2813 Q26,167.5625 26,168.2188 L26,169.7813 Q26,170.4375 25.7188,170.7188 Q25.4375,171 25,171 Q24.6094,171 24.3594,170.8281 Q24.1094,170.6563 24,170.2031 Q23.9531,169.8906 23.7813,169.7188 Q23.4688,169.3906 22.9063,169.2031 Q22.3438,169 21.7813,169 Q21.0781,169 20.4844,169.2813 Q19.9063,169.5625 19.4531,170.1875 Q19,170.8125 19,171.6719 L19,172.5938 Q19,173.625 19.8438,174.3125 Q20.6875,175 22.1875,175 Q23.0781,175 23.7031,174.7969 Q24.0625,174.6875 24.4688,174.3281 Q24.7344,174.125 24.875,174.0625 Q25.0156,174 25.1875,174 Q25.5156,174 25.75,174.2656 Q26,174.5156 26,174.875 Q26,175.2188 25.6563,175.625 Q25.1563,176.2188 24.3594,176.5469 Q23.3125,177 22.0313,177 Q20.5313,177 19.3281,176.4063 Q18.3594,175.9375 17.6719,174.9219 Q17,173.9063 17,172.7031 L17,171.6094 Q17,170.3594 17.5938,169.2656 Q18.2031,168.1719 19.25,167.5938 Q20.3125,167 21.5,167 Q22.2188,167 22.8438,167.25 Q23.4688,167.5 24,168 Z " fill="#000000"/><text fill="#000000" font-family="sans-serif" font-size="12" lengthAdjust="spacing" textLength="53" x="36" y="176.4102">Company</text><line style="stroke:#A80036;stroke-width:1.5;" x1="8" x2="91" y1="187.5" y2="187.5"/><rect fill="none" height="6" style="stroke:#C82930;stroke-width:1.0;" width="6" x="15" y="195.5"/><text fill="#000000" font-family="sans-serif" font-size="11" lengthAdjust="spacing" textLength="26" x="27" y="202.9189">name</text><line style="stroke:#A80036;stroke-width:1.5;" x1="8" x2="91" y1="209.3359" y2="209.3359"/><!--MD5=[437bb26754fe16ac4a5026aa47879818]
class PortWarehouse--><rect codeLine="7" fill="#FEFECE" filter="url(#fp4swojo9534w)" height="117.1797" id="PortWarehouse" style="stroke:#A80036;stroke-width:1.5;" width="118" x="175" y="7"/><ellipse cx="190" cy="23" fill="#ADD1B2" rx="11" ry="11" style="stroke:#A80036;stroke-width:1.0;"/><path d="M192,19.5 Q192.2031,19 192.4375,18.75 Q192.6719,18.5 192.9375,18.5 Q193.4063,18.5 193.7031,18.7813 Q194,19.0625 194,19.7188 L194,21.2813 Q194,21.9375 193.7188,22.2188 Q193.4375,22.5 193,22.5 Q192.6094,22.5 192.3594,22.3281 Q192.1094,22.1563 192,21.7031 Q191.9531,21.3906 191.7813,21.2188 Q191.4688,20.8906 190.9063,20.7031 Q190.3438,20.5 189.7813,20.5 Q189.0781,20.5 188.4844,20.7813 Q187.9063,21.0625 187.4531,21.6875 Q187,22.3125 187,23.1719 L187,24.0938 Q187,25.125 187.8438,25.8125 Q188.6875,26.5 190.1875,26.5 Q191.0781,26.5 191.7031,26.2969 Q192.0625,26.1875 192.4688,25.8281 Q192.7344,25.625 192.875,25.5625 Q193.0156,25.5 193.1875,25.5 Q193.5156,25.5 193.75,25.7656 Q194,26.0156 194,26.375 Q194,26.7188 193.6563,27.125 Q193.1563,27.7188 192.3594,28.0469 Q191.3125,28.5 190.0313,28.5 Q188.5313,28.5 187.3281,27.9063 Q186.3594,27.4375 185.6719,26.4219 Q185,25.4063 185,24.2031 L185,23.1094 Q185,21.8594 185.5938,20.7656 Q186.2031,19.6719 187.25,19.0938 Q188.3125,18.5 189.5,18.5 Q190.2188,18.5 190.8438,18.75 Q191.4688,19 192,19.5 Z " fill="#000000"/><text fill="#000000" font-family="sans-serif" font-size="12" lengthAdjust="spacing" textLength="86" x="204" y="27.9102">PortWarehouse</text><line style="stroke:#A80036;stroke-width:1.5;" x1="176" x2="292" y1="39" y2="39"/><rect fill="none" height="6" style="stroke:#C82930;stroke-width:1.0;" width="6" x="183" y="47"/><text fill="#000000" font-family="sans-serif" font-size="11" lengthAdjust="spacing" textLength="26" x="195" y="54.4189">name</text><rect fill="none" height="6" style="stroke:#C82930;stroke-width:1.0;" width="6" x="183" y="60.8359"/><text fill="#000000" font-family="sans-serif" font-size="11" lengthAdjust="spacing" textLength="34" x="195" y="68.2549">latitude</text><rect fill="none" height="6" style="stroke:#C82930;stroke-width:1.0;" width="6" x="183" y="74.6719"/><text fill="#000000" font-family="sans-serif" font-size="11" lengthAdjust="spacing" textLength="43" x="195" y="82.0908">longitude</text><rect fill="none" height="6" style="stroke:#C82930;stroke-width:1.0;" width="6" x="183" y="88.5078"/><text fill="#000000" font-family="sans-serif" font-size="11" lengthAdjust="spacing" textLength="37" x="195" y="95.9268">country</text><rect fill="none" height="6" style="stroke:#C82930;stroke-width:1.0;" width="6" x="183" y="102.3438"/><text fill="#000000" font-family="sans-serif" font-size="11" lengthAdjust="spacing" textLength="44" x="195" y="109.7627">continent</text><line style="stroke:#A80036;stroke-width:1.5;" x1="176" x2="292" y1="116.1797" y2="116.1797"/><!--MD5=[0dc7f2ddb409b58bcf52b12238c25399]
class Ship--><rect codeLine="15" fill="#FEFECE" filter="url(#fp4swojo9534w)" height="297.0469" id="Ship" style="stroke:#A80036;stroke-width:1.5;" width="113" x="177.5" y="159"/><ellipse cx="217.7" cy="175" fill="#ADD1B2" rx="11" ry="11" style="stroke:#A80036;stroke-width:1.0;"/><path d="M219.7,171.5 Q219.9031,171 220.1375,170.75 Q220.3719,170.5 220.6375,170.5 Q221.1063,170.5 221.4031,170.7813 Q221.7,171.0625 221.7,171.7188 L221.7,173.2813 Q221.7,173.9375 221.4188,174.2188 Q221.1375,174.5 220.7,174.5 Q220.3094,174.5 220.0594,174.3281 Q219.8094,174.1563 219.7,173.7031 Q219.6531,173.3906 219.4813,173.2188 Q219.1688,172.8906 218.6063,172.7031 Q218.0438,172.5 217.4813,172.5 Q216.7781,172.5 216.1844,172.7813 Q215.6063,173.0625 215.1531,173.6875 Q214.7,174.3125 214.7,175.1719 L214.7,176.0938 Q214.7,177.125 215.5438,177.8125 Q216.3875,178.5 217.8875,178.5 Q218.7781,178.5 219.4031,178.2969 Q219.7625,178.1875 220.1688,177.8281 Q220.4344,177.625 220.575,177.5625 Q220.7156,177.5 220.8875,177.5 Q221.2156,177.5 221.45,177.7656 Q221.7,178.0156 221.7,178.375 Q221.7,178.7188 221.3563,179.125 Q220.8563,179.7188 220.0594,180.0469 Q219.0125,180.5 217.7313,180.5 Q216.2313,180.5 215.0281,179.9063 Q214.0594,179.4375 213.3719,178.4219 Q212.7,177.4063 212.7,176.2031 L212.7,175.1094 Q212.7,173.8594 213.2938,172.7656 Q213.9031,171.6719 214.95,171.0938 Q216.0125,170.5 217.2,170.5 Q217.9188,170.5 218.5438,170.75 Q219.1688,171 219.7,171.5 Z " fill="#000000"/><text fill="#000000" font-family="sans-serif" font-size="12" lengthAdjust="spacing" textLength="25" x="237.3" y="179.9102">Ship</text><line style="stroke:#A80036;stroke-width:1.5;" x1="178.5" x2="289.5" y1="191" y2="191"/><rect fill="none" height="6" style="stroke:#C82930;stroke-width:1.0;" width="6" x="185.5" y="199"/><text fill="#000000" font-family="sans-serif" font-size="11" lengthAdjust="spacing" textLength="24" x="197.5" y="206.4189">mmsi</text><rect fill="none" height="6" style="stroke:#C82930;stroke-width:1.0;" width="6" x="185.5" y="212.8359"/><text fill="#000000" font-family="sans-serif" font-size="11" lengthAdjust="spacing" textLength="16" x="197.5" y="220.2549">imo</text><rect fill="none" height="6" style="stroke:#C82930;stroke-width:1.0;" width="6" x="185.5" y="226.6719"/><text fill="#000000" font-family="sans-serif" font-size="11" lengthAdjust="spacing" textLength="65" x="197.5" y="234.0908">n_generators</text><rect fill="none" height="6" style="stroke:#C82930;stroke-width:1.0;" width="6" x="185.5" y="240.5078"/><text fill="#000000" font-family="sans-serif" font-size="11" lengthAdjust="spacing" textLength="29" x="197.5" y="247.9268">length</text><rect fill="none" height="6" style="stroke:#C82930;stroke-width:1.0;" width="6" x="185.5" y="254.3438"/><text fill="#000000" font-family="sans-serif" font-size="11" lengthAdjust="spacing" textLength="27" x="197.5" y="261.7627">width</text><rect fill="none" height="6" style="stroke:#C82930;stroke-width:1.0;" width="6" x="185.5" y="268.1797"/><text fill="#000000" font-family="sans-serif" font-size="11" lengthAdjust="spacing" textLength="65" x="197.5" y="275.5986">p_generators</text><rect fill="none" height="6" style="stroke:#C82930;stroke-width:1.0;" width="6" x="185.5" y="282.0156"/><text fill="#000000" font-family="sans-serif" font-size="11" lengthAdjust="spacing" textLength="41" x="197.5" y="289.4346">capacity</text><rect fill="none" height="6" style="stroke:#C82930;stroke-width:1.0;" width="6" x="185.5" y="295.8516"/><text fill="#000000" font-family="sans-serif" font-size="11" lengthAdjust="spacing" textLength="52" x="197.5" y="303.2705">ship_name</text><rect fill="none" height="6" style="stroke:#C82930;stroke-width:1.0;" width="6" x="185.5" y="309.6875"/><text fill="#000000" font-family="sans-serif" font-size="11" lengthAdjust="spacing" textLength="59" x="197.5" y="317.1064">vessel_type</text><rect fill="none" height="6" style="stroke:#C82930;stroke-width:1.0;" width="6" x="185.5" y="323.5234"/><text fill="#000000" font-family="sans-serif" font-size="11" lengthAdjust="spacing" textLength="42" x="197.5" y="330.9424">call_sign</text><rect fill="none" height="6" style="stroke:#C82930;stroke-width:1.0;" width="6" x="185.5" y="337.3594"/><text fill="#000000" font-family="sans-serif" font-size="11" lengthAdjust="spacing" textLength="23" x="197.5" y="344.7783">draft</text><rect fill="none" height="6" style="stroke:#C82930;stroke-width:1.0;" width="6" x="185.5" y="351.1953"/><text fill="#000000" font-family="sans-serif" font-size="11" lengthAdjust="spacing" textLength="46" x="197.5" y="358.6143">date_time</text><rect fill="none" height="6" style="stroke:#C82930;stroke-width:1.0;" width="6" x="185.5" y="365.0313"/><text fill="#000000" font-family="sans-serif" font-size="11" lengthAdjust="spacing" textLength="34" x="197.5" y="372.4502">latitude</text><rect fill="none" height="6" style="stroke:#C82930;stroke-width:1.0;" width="6" x="185.5" y="378.8672"/><text fill="#000000" font-family="sans-serif" font-size="11" lengthAdjust="spacing" textLength="43" x="197.5" y="386.2861">longitude</text><rect fill="none" height="6" style="stroke:#C82930;stroke-width:1.0;" width="6" x="185.5" y="392.7031"/><text fill="#000000" font-family="sans-serif" font-size="11" lengthAdjust="spacing" textLength="18" x="197.5" y="400.1221">sog</text><rect fill="none" height="6" style="stroke:#C82930;stroke-width:1.0;" width="6" x="185.5" y="406.5391"/><text fill="#000000" font-family="sans-serif" font-size="11" lengthAdjust="spacing" textLength="18" x="197.5" y="413.958">cog</text><rect fill="none" height="6" style="stroke:#C82930;stroke-width:1.0;" width="6" x="185.5" y="420.375"/><text fill="#000000" font-family="sans-serif" font-size="11" lengthAdjust="spacing" textLength="38" x="197.5" y="427.7939">heading</text><rect fill="none" height="6" style="stroke:#C82930;stroke-width:1.0;" width="6" x="185.5" y="434.2109"/><text fill="#000000" font-family="sans-serif" font-size="11" lengthAdjust="spacing" textLength="87" x="197.5" y="441.6299">transceiver_class</text><line style="stroke:#A80036;stroke-width:1.5;" x1="178.5" x2="289.5" y1="448.0469" y2="448.0469"/><!--MD5=[bc6d56fff33115396b36caccb440b7b0]
class Manifest--><rect codeLine="36" fill="#FEFECE" filter="url(#fp4swojo9534w)" height="89.5078" id="Manifest" style="stroke:#A80036;stroke-width:1.5;" width="78" x="376" y="262.5"/><ellipse cx="391" cy="278.5" fill="#ADD1B2" rx="11" ry="11" style="stroke:#A80036;stroke-width:1.0;"/><path d="M393,275 Q393.2031,274.5 393.4375,274.25 Q393.6719,274 393.9375,274 Q394.4063,274 394.7031,274.2813 Q395,274.5625 395,275.2188 L395,276.7813 Q395,277.4375 394.7188,277.7188 Q394.4375,278 394,278 Q393.6094,278 393.3594,277.8281 Q393.1094,277.6563 393,277.2031 Q392.9531,276.8906 392.7813,276.7188 Q392.4688,276.3906 391.9063,276.2031 Q391.3438,276 390.7813,276 Q390.0781,276 389.4844,276.2813 Q388.9063,276.5625 388.4531,277.1875 Q388,277.8125 388,278.6719 L388,279.5938 Q388,280.625 388.8438,281.3125 Q389.6875,282 391.1875,282 Q392.0781,282 392.7031,281.7969 Q393.0625,281.6875 393.4688,281.3281 Q393.7344,281.125 393.875,281.0625 Q394.0156,281 394.1875,281 Q394.5156,281 394.75,281.2656 Q395,281.5156 395,281.875 Q395,282.2188 394.6563,282.625 Q394.1563,283.2188 393.3594,283.5469 Q392.3125,284 391.0313,284 Q389.5313,284 388.3281,283.4063 Q387.3594,282.9375 386.6719,281.9219 Q386,280.9063 386,279.7031 L386,278.6094 Q386,277.3594 386.5938,276.2656 Q387.2031,275.1719 388.25,274.5938 Q389.3125,274 390.5,274 Q391.2188,274 391.8438,274.25 Q392.4688,274.5 393,275 Z " fill="#000000"/><text fill="#000000" font-family="sans-serif" font-size="12" lengthAdjust="spacing" textLength="46" x="405" y="283.4102">Manifest</text><line style="stroke:#A80036;stroke-width:1.5;" x1="377" x2="453" y1="294.5" y2="294.5"/><rect fill="none" height="6" style="stroke:#C82930;stroke-width:1.0;" width="6" x="384" y="302.5"/><text fill="#000000" font-family="sans-serif" font-size="11" lengthAdjust="spacing" textLength="21" x="396" y="309.9189">date</text><rect fill="none" height="6" style="stroke:#C82930;stroke-width:1.0;" width="6" x="384" y="316.3359"/><text fill="#000000" font-family="sans-serif" font-size="11" lengthAdjust="spacing" textLength="28" x="396" y="323.7549">gross</text><rect fill="none" height="6" style="stroke:#C82930;stroke-width:1.0;" width="6" x="384" y="330.1719"/><text fill="#000000" font-family="sans-serif" font-size="11" lengthAdjust="spacing" textLength="37" x="396" y="337.5908">position</text><line style="stroke:#A80036;stroke-width:1.5;" x1="377" x2="453" y1="344.0078" y2="344.0078"/><!--MD5=[e9a58730c562b34349daa605d1ed6662]
class Container--><rect codeLine="42" fill="#FEFECE" filter="url(#fp4swojo9534w)" height="131.0156" id="Container" style="stroke:#A80036;stroke-width:1.5;" width="86" x="537" y="242"/><ellipse cx="552" cy="258" fill="#ADD1B2" rx="11" ry="11" style="stroke:#A80036;stroke-width:1.0;"/><path d="M554,254.5 Q554.2031,254 554.4375,253.75 Q554.6719,253.5 554.9375,253.5 Q555.4063,253.5 555.7031,253.7813 Q556,254.0625 556,254.7188 L556,256.2813 Q556,256.9375 555.7188,257.2188 Q555.4375,257.5 555,257.5 Q554.6094,257.5 554.3594,257.3281 Q554.1094,257.1563 554,256.7031 Q553.9531,256.3906 553.7813,256.2188 Q553.4688,255.8906 552.9063,255.7031 Q552.3438,255.5 551.7813,255.5 Q551.0781,255.5 550.4844,255.7813 Q549.9063,256.0625 549.4531,256.6875 Q549,257.3125 549,258.1719 L549,259.0938 Q549,260.125 549.8438,260.8125 Q550.6875,261.5 552.1875,261.5 Q553.0781,261.5 553.7031,261.2969 Q554.0625,261.1875 554.4688,260.8281 Q554.7344,260.625 554.875,260.5625 Q555.0156,260.5 555.1875,260.5 Q555.5156,260.5 555.75,260.7656 Q556,261.0156 556,261.375 Q556,261.7188 555.6563,262.125 Q555.1563,262.7188 554.3594,263.0469 Q553.3125,263.5 552.0313,263.5 Q550.5313,263.5 549.3281,262.9063 Q548.3594,262.4375 547.6719,261.4219 Q547,260.4063 547,259.2031 L547,258.1094 Q547,256.8594 547.5938,255.7656 Q548.2031,254.6719 549.25,254.0938 Q550.3125,253.5 551.5,253.5 Q552.2188,253.5 552.8438,253.75 Q553.4688,254 554,254.5 Z " fill="#000000"/><text fill="#000000" font-family="sans-serif" font-size="12" lengthAdjust="spacing" textLength="54" x="566" y="262.9102">Container</text><line style="stroke:#A80036;stroke-width:1.5;" x1="538" x2="622" y1="274" y2="274"/><rect fill="none" height="6" style="stroke:#C82930;stroke-width:1.0;" width="6" x="545" y="282"/><text fill="#000000" font-family="sans-serif" font-size="11" lengthAdjust="spacing" textLength="44" x="557" y="289.4189">iso_code</text><rect fill="none" height="6" style="stroke:#C82930;stroke-width:1.0;" width="6" x="545" y="295.8359"/><text fill="#000000" font-family="sans-serif" font-size="11" lengthAdjust="spacing" textLength="59" x="557" y="303.2549">refrigeration</text><rect fill="none" height="6" style="stroke:#C82930;stroke-width:1.0;" width="6" x="545" y="309.6719"/><text fill="#000000" font-family="sans-serif" font-size="11" lengthAdjust="spacing" textLength="58" x="557" y="317.0908">temperature</text><rect fill="none" height="6" style="stroke:#C82930;stroke-width:1.0;" width="6" x="545" y="323.5078"/><text fill="#000000" font-family="sans-serif" font-size="11" lengthAdjust="spacing" textLength="38" x="557" y="330.9268">payload</text><rect fill="none" height="6" style="stroke:#C82930;stroke-width:1.0;" width="6" x="545" y="337.3438"/><text fill="#000000" font-family="sans-serif" font-size="11" lengthAdjust="spacing" textLength="19" x="557" y="344.7627">tare</text><rect fill="none" height="6" style="stroke:#C82930;stroke-width:1.0;" width="6" x="545" y="351.1797"/><text fill="#000000" font-family="sans-serif" font-size="11" lengthAdjust="spacing" textLength="28" x="557" y="358.5986">gross</text><line style="stroke:#A80036;stroke-width:1.5;" x1="538" x2="622" y1="365.0156" y2="365.0156"/><!--MD5=[37a14a5de6d6fd738aee271300f4b5c8]
link Company to Ship--><path codeLine="51" d="M92.37,214.26 C117.63,231.01 150.1,252.54 177.49,270.69 " fill="none" id="Company-Ship" style="stroke:#A80036;stroke-width:1.0;"/><text fill="#000000" font-family="sans-serif" font-size="13" lengthAdjust="spacing" textLength="21" x="123" y="232.9951">has</text><text fill="#000000" font-family="sans-serif" font-size="13" lengthAdjust="spacing" textLength="7" x="100.05" y="233.7206">1</text><text fill="#000000" font-family="sans-serif" font-size="13" lengthAdjust="spacing" textLength="5" x="164.5605" y="280.3342">*</text><!--MD5=[9bc598176497c41962aad9ea04f5f1f0]
link Company to PortWarehouse--><path codeLine="52" d="M92.37,158.74 C116.78,142.55 147.95,121.89 174.73,104.13 " fill="none" id="Company-PortWarehouse" style="stroke:#A80036;stroke-width:1.0;"/><text fill="#000000" font-family="sans-serif" font-size="13" lengthAdjust="spacing" textLength="21" x="123" y="122.9951">has</text><text fill="#000000" font-family="sans-serif" font-size="13" lengthAdjust="spacing" textLength="7" x="100.05" y="169.0051">1</text><text fill="#000000" font-family="sans-serif" font-size="13" lengthAdjust="spacing" textLength="5" x="161.8157" y="123.6106">*</text><!--MD5=[bf3ea1a9851801edc53195a9e0780a16]
link Ship to Manifest--><path codeLine="53" d="M290.66,307.5 C318.37,307.5 351.15,307.5 375.95,307.5 " fill="none" id="Ship-Manifest" style="stroke:#A80036;stroke-width:1.0;"/><text fill="#000000" font-family="sans-serif" font-size="13" lengthAdjust="spacing" textLength="21" x="324" y="303.9951">has</text><text fill="#000000" font-family="sans-serif" font-size="13" lengthAdjust="spacing" textLength="7" x="298.368" y="322.0396">1</text><text fill="#000000" font-family="sans-serif" font-size="13" lengthAdjust="spacing" textLength="7" x="361.1048" y="322.5479">1</text><!--MD5=[20b0b298cd787f7a117538e20040cc6f]
link Manifest to Container--><path codeLine="54" d="M454.22,307.5 C478.96,307.5 511.21,307.5 536.73,307.5 " fill="none" id="Manifest-Container" style="stroke:#A80036;stroke-width:1.0;"/><text fill="#000000" font-family="sans-serif" font-size="13" lengthAdjust="spacing" textLength="21" x="485" y="303.9951">has</text><text fill="#000000" font-family="sans-serif" font-size="13" lengthAdjust="spacing" textLength="7" x="462.0965" y="322.5479">1</text><text fill="#000000" font-family="sans-serif" font-size="13" lengthAdjust="spacing" textLength="5" x="523.8633" y="322.399">*</text><!--MD5=[91c774596327d9cb601a1a9bcc94f272]
@startuml
left to right direction

class Company{
    -name
}

class PortWarehouse {
    -name
    -latitude
    -longitude
    -country
    -continent
}

class Ship {
    -mmsi
    -imo
    -n_generators
    -length
    -width
    -p_generators
    -capacity
    -ship_name
    -vessel_type
    -call_sign
    -draft
    -date_time
    -latitude
    -longitude
    -sog
    -cog
    -heading
    -transceiver_class
}

class Manifest{
    -date
    -gross
    -position
}

class Container{
    -iso_code
    -refrigeration
    -temperature
    -payload
    -tare
    -gross
}

Company "1" - - "*" Ship : has
Company "1" - - "*" PortWarehouse : has
Ship "1" - - "1" Manifest : has
Manifest "1" - - "*" Container : has
@enduml

PlantUML version 1.2021.11(Sat Oct 02 14:26:11 BST 2021)
(GPL source distribution)
Java Runtime: OpenJDK Runtime Environment
JVM: OpenJDK 64-Bit Server VM
Default Encoding: Cp1252
Language: pt
Country: PT
--></g></svg>