<?xml version="1.0" encoding="UTF-8" standalone="no"?><svg xmlns="http://www.w3.org/2000/svg" xmlns:xlink="http://www.w3.org/1999/xlink" contentScriptType="application/ecmascript" contentStyleType="text/css" height="462px" preserveAspectRatio="none" style="width:272px;height:462px;background:#FFFFFF;" version="1.1" viewBox="0 0 272 462" width="272px" zoomAndPan="magnify"><defs><filter height="300%" id="f1b9yf0brnjnnn" width="300%" x="-1" y="-1"><feGaussianBlur result="blurOut" stdDeviation="2.0"/><feColorMatrix in="blurOut" result="blurOut2" type="matrix" values="0 0 0 0 0 0 0 0 0 0 0 0 0 0 0 0 0 0 .4 0"/><feOffset dx="4.0" dy="4.0" in="blurOut2" result="blurOut3"/><feBlend in="SourceGraphic" in2="blurOut3" mode="normal"/></filter></defs><g><!--MD5=[1f27746edd2d4c89185df8cb1d110fcb]
class WarehouseFullUI--><rect codeLine="1" fill="#FEFECE" filter="url(#f1b9yf0brnjnnn)" height="48" id="WarehouseFullUI" style="stroke:#A80036;stroke-width:1.5;" width="128" x="79.5" y="7"/><ellipse cx="94.5" cy="23" fill="#ADD1B2" rx="11" ry="11" style="stroke:#A80036;stroke-width:1.0;"/><path d="M96.5,19.5 Q96.7031,19 96.9375,18.75 Q97.1719,18.5 97.4375,18.5 Q97.9063,18.5 98.2031,18.7813 Q98.5,19.0625 98.5,19.7188 L98.5,21.2813 Q98.5,21.9375 98.2188,22.2188 Q97.9375,22.5 97.5,22.5 Q97.1094,22.5 96.8594,22.3281 Q96.6094,22.1563 96.5,21.7031 Q96.4531,21.3906 96.2813,21.2188 Q95.9688,20.8906 95.4063,20.7031 Q94.8438,20.5 94.2813,20.5 Q93.5781,20.5 92.9844,20.7813 Q92.4063,21.0625 91.9531,21.6875 Q91.5,22.3125 91.5,23.1719 L91.5,24.0938 Q91.5,25.125 92.3438,25.8125 Q93.1875,26.5 94.6875,26.5 Q95.5781,26.5 96.2031,26.2969 Q96.5625,26.1875 96.9688,25.8281 Q97.2344,25.625 97.375,25.5625 Q97.5156,25.5 97.6875,25.5 Q98.0156,25.5 98.25,25.7656 Q98.5,26.0156 98.5,26.375 Q98.5,26.7188 98.1563,27.125 Q97.6563,27.7188 96.8594,28.0469 Q95.8125,28.5 94.5313,28.5 Q93.0313,28.5 91.8281,27.9063 Q90.8594,27.4375 90.1719,26.4219 Q89.5,25.4063 89.5,24.2031 L89.5,23.1094 Q89.5,21.8594 90.0938,20.7656 Q90.7031,19.6719 91.75,19.0938 Q92.8125,18.5 94,18.5 Q94.7188,18.5 95.3438,18.75 Q95.9688,19 96.5,19.5 Z " fill="#000000"/><text fill="#000000" font-family="sans-serif" font-size="12" lengthAdjust="spacing" textLength="96" x="108.5" y="27.9102">WarehouseFullUI</text><line style="stroke:#A80036;stroke-width:1.5;" x1="80.5" x2="206.5" y1="39" y2="39"/><line style="stroke:#A80036;stroke-width:1.5;" x1="80.5" x2="206.5" y1="47" y2="47"/><!--MD5=[d2f9c3fd6e7d0bd166c5d3d961e374c9]
class WarehouseFullController--><rect codeLine="4" fill="#FEFECE" filter="url(#f1b9yf0brnjnnn)" height="61.8359" id="WarehouseFullController" style="stroke:#A80036;stroke-width:1.5;" width="229" x="29" y="115"/><ellipse cx="70.55" cy="131" fill="#ADD1B2" rx="11" ry="11" style="stroke:#A80036;stroke-width:1.0;"/><path d="M72.55,127.5 Q72.7531,127 72.9875,126.75 Q73.2219,126.5 73.4875,126.5 Q73.9563,126.5 74.2531,126.7813 Q74.55,127.0625 74.55,127.7188 L74.55,129.2813 Q74.55,129.9375 74.2688,130.2188 Q73.9875,130.5 73.55,130.5 Q73.1594,130.5 72.9094,130.3281 Q72.6594,130.1563 72.55,129.7031 Q72.5031,129.3906 72.3313,129.2188 Q72.0188,128.8906 71.4563,128.7031 Q70.8938,128.5 70.3313,128.5 Q69.6281,128.5 69.0344,128.7813 Q68.4563,129.0625 68.0031,129.6875 Q67.55,130.3125 67.55,131.1719 L67.55,132.0938 Q67.55,133.125 68.3938,133.8125 Q69.2375,134.5 70.7375,134.5 Q71.6281,134.5 72.2531,134.2969 Q72.6125,134.1875 73.0188,133.8281 Q73.2844,133.625 73.425,133.5625 Q73.5656,133.5 73.7375,133.5 Q74.0656,133.5 74.3,133.7656 Q74.55,134.0156 74.55,134.375 Q74.55,134.7188 74.2063,135.125 Q73.7063,135.7188 72.9094,136.0469 Q71.8625,136.5 70.5813,136.5 Q69.0813,136.5 67.8781,135.9063 Q66.9094,135.4375 66.2219,134.4219 Q65.55,133.4063 65.55,132.2031 L65.55,131.1094 Q65.55,129.8594 66.1438,128.7656 Q66.7531,127.6719 67.8,127.0938 Q68.8625,126.5 70.05,126.5 Q70.7688,126.5 71.3938,126.75 Q72.0188,127 72.55,127.5 Z " fill="#000000"/><text fill="#000000" font-family="sans-serif" font-size="12" lengthAdjust="spacing" textLength="138" x="90.45" y="135.9102">WarehouseFullController</text><line style="stroke:#A80036;stroke-width:1.5;" x1="30" x2="257" y1="147" y2="147"/><line style="stroke:#A80036;stroke-width:1.5;" x1="30" x2="257" y1="155" y2="155"/><ellipse cx="40" cy="166" fill="#84BE84" rx="3" ry="3" style="stroke:#038048;stroke-width:1.0;"/><text fill="#000000" font-family="sans-serif" font-size="11" lengthAdjust="spacing" textLength="203" x="49" y="170.4189">getWarehouseFull(idManifest, idPortWare)</text><!--MD5=[02e4b9b7573f1156f41e60aa5b4e25a4]
class Company--><rect codeLine="8" fill="#FEFECE" filter="url(#f1b9yf0brnjnnn)" height="75.6719" id="Company" style="stroke:#A80036;stroke-width:1.5;" width="147" x="7" y="237"/><ellipse cx="49.9" cy="253" fill="#ADD1B2" rx="11" ry="11" style="stroke:#A80036;stroke-width:1.0;"/><path d="M51.9,249.5 Q52.1031,249 52.3375,248.75 Q52.5719,248.5 52.8375,248.5 Q53.3063,248.5 53.6031,248.7813 Q53.9,249.0625 53.9,249.7188 L53.9,251.2813 Q53.9,251.9375 53.6188,252.2188 Q53.3375,252.5 52.9,252.5 Q52.5094,252.5 52.2594,252.3281 Q52.0094,252.1563 51.9,251.7031 Q51.8531,251.3906 51.6813,251.2188 Q51.3688,250.8906 50.8063,250.7031 Q50.2438,250.5 49.6813,250.5 Q48.9781,250.5 48.3844,250.7813 Q47.8063,251.0625 47.3531,251.6875 Q46.9,252.3125 46.9,253.1719 L46.9,254.0938 Q46.9,255.125 47.7438,255.8125 Q48.5875,256.5 50.0875,256.5 Q50.9781,256.5 51.6031,256.2969 Q51.9625,256.1875 52.3688,255.8281 Q52.6344,255.625 52.775,255.5625 Q52.9156,255.5 53.0875,255.5 Q53.4156,255.5 53.65,255.7656 Q53.9,256.0156 53.9,256.375 Q53.9,256.7188 53.5563,257.125 Q53.0563,257.7188 52.2594,258.0469 Q51.2125,258.5 49.9313,258.5 Q48.4313,258.5 47.2281,257.9063 Q46.2594,257.4375 45.5719,256.4219 Q44.9,255.4063 44.9,254.2031 L44.9,253.1094 Q44.9,251.8594 45.4938,250.7656 Q46.1031,249.6719 47.15,249.0938 Q48.2125,248.5 49.4,248.5 Q50.1188,248.5 50.7438,248.75 Q51.3688,249 51.9,249.5 Z " fill="#000000"/><text fill="#000000" font-family="sans-serif" font-size="12" lengthAdjust="spacing" textLength="53" x="70.1" y="257.9102">Company</text><line style="stroke:#A80036;stroke-width:1.5;" x1="8" x2="153" y1="269" y2="269"/><rect fill="none" height="6" style="stroke:#C82930;stroke-width:1.0;" width="6" x="15" y="277"/><text fill="#000000" font-family="sans-serif" font-size="11" lengthAdjust="spacing" textLength="121" x="27" y="284.4189">WarehouseFullStore wfs</text><line style="stroke:#A80036;stroke-width:1.0;" x1="8" x2="153" y1="290.8359" y2="290.8359"/><ellipse cx="18" cy="301.8359" fill="#84BE84" rx="3" ry="3" style="stroke:#038048;stroke-width:1.0;"/><text fill="#000000" font-family="sans-serif" font-size="11" lengthAdjust="spacing" textLength="95" x="27" y="306.2549">getWarehouseFull()</text><!--MD5=[c980268e2295464f19c460a33ea3f887]
class WarehouseFullStore--><rect codeLine="14" fill="#FEFECE" filter="url(#f1b9yf0brnjnnn)" height="75.6719" id="WarehouseFullStore" style="stroke:#A80036;stroke-width:1.5;" width="229" x="29" y="373"/><ellipse cx="82.75" cy="389" fill="#ADD1B2" rx="11" ry="11" style="stroke:#A80036;stroke-width:1.0;"/><path d="M84.75,385.5 Q84.9531,385 85.1875,384.75 Q85.4219,384.5 85.6875,384.5 Q86.1563,384.5 86.4531,384.7813 Q86.75,385.0625 86.75,385.7188 L86.75,387.2813 Q86.75,387.9375 86.4688,388.2188 Q86.1875,388.5 85.75,388.5 Q85.3594,388.5 85.1094,388.3281 Q84.8594,388.1563 84.75,387.7031 Q84.7031,387.3906 84.5313,387.2188 Q84.2188,386.8906 83.6563,386.7031 Q83.0938,386.5 82.5313,386.5 Q81.8281,386.5 81.2344,386.7813 Q80.6563,387.0625 80.2031,387.6875 Q79.75,388.3125 79.75,389.1719 L79.75,390.0938 Q79.75,391.125 80.5938,391.8125 Q81.4375,392.5 82.9375,392.5 Q83.8281,392.5 84.4531,392.2969 Q84.8125,392.1875 85.2188,391.8281 Q85.4844,391.625 85.625,391.5625 Q85.7656,391.5 85.9375,391.5 Q86.2656,391.5 86.5,391.7656 Q86.75,392.0156 86.75,392.375 Q86.75,392.7188 86.4063,393.125 Q85.9063,393.7188 85.1094,394.0469 Q84.0625,394.5 82.7813,394.5 Q81.2813,394.5 80.0781,393.9063 Q79.1094,393.4375 78.4219,392.4219 Q77.75,391.4063 77.75,390.2031 L77.75,389.1094 Q77.75,387.8594 78.3438,386.7656 Q78.9531,385.6719 80,385.0938 Q81.0625,384.5 82.25,384.5 Q82.9688,384.5 83.5938,384.75 Q84.2188,385 84.75,385.5 Z " fill="#000000"/><text fill="#000000" font-family="sans-serif" font-size="12" lengthAdjust="spacing" textLength="113" x="103.25" y="393.9102">WarehouseFullStore</text><line style="stroke:#A80036;stroke-width:1.5;" x1="30" x2="257" y1="405" y2="405"/><line style="stroke:#A80036;stroke-width:1.5;" x1="30" x2="257" y1="413" y2="413"/><ellipse cx="40" cy="424" fill="#84BE84" rx="3" ry="3" style="stroke:#038048;stroke-width:1.0;"/><text fill="#000000" font-family="sans-serif" font-size="11" lengthAdjust="spacing" textLength="95" x="49" y="428.4189">getWarehouseFull()</text><ellipse cx="40" cy="437.8359" fill="#84BE84" rx="3" ry="3" style="stroke:#038048;stroke-width:1.0;"/><text fill="#000000" font-family="sans-serif" font-size="11" lengthAdjust="spacing" textLength="203" x="49" y="442.2549">getWarehouseFull(idManifest, idPortWare)</text><!--MD5=[674fd8d9ce514732318f5f74f6c1491a]
link WarehouseFullUI to WarehouseFullController--><path codeLine="19" d="M143.5,55.14 C143.5,70.71 143.5,91.53 143.5,109.22 " fill="none" id="WarehouseFullUI-to-WarehouseFullController" style="stroke:#A80036;stroke-width:1.0;stroke-dasharray:7.0,7.0;"/><polygon fill="#A80036" points="143.5,114.6,147.5,105.6,143.5,109.6,139.5,105.6,143.5,114.6" style="stroke:#A80036;stroke-width:1.0;"/><!--MD5=[f5ae3c836b44fd686db1c0d880e35c5d]
link WarehouseFullController to Company--><path codeLine="20" d="M128.57,177.1 C120.39,193.6 110.11,214.3 101.17,232.33 " fill="none" id="WarehouseFullController-to-Company" style="stroke:#A80036;stroke-width:1.0;stroke-dasharray:7.0,7.0;"/><polygon fill="#A80036" points="98.93,236.86,106.5005,230.5603,101.1432,232.3765,99.3269,227.0191,98.93,236.86" style="stroke:#A80036;stroke-width:1.0;"/><!--MD5=[7b335231c242cd879347e6413a4ec2ab]
link Company to WarehouseFullStore--><path codeLine="21" d="M98.05,313.33 C106.04,330.31 115.52,350.49 123.76,368.01 " fill="none" id="Company-to-WarehouseFullStore" style="stroke:#A80036;stroke-width:1.0;"/><polygon fill="#A80036" points="126.05,372.87,125.8416,363.0233,123.9231,368.3449,118.6015,366.4264,126.05,372.87" style="stroke:#A80036;stroke-width:1.0;"/><!--MD5=[79168afd079c20f2f01f472631e69151]
link WarehouseFullController to WarehouseFullStore--><path codeLine="22" d="M155.43,177.28 C161.57,194.49 168.4,216.62 171.5,237 C176.57,270.39 176.23,279.56 171.5,313 C168.92,331.24 163.74,350.86 158.52,367.65 " fill="none" id="WarehouseFullController-to-WarehouseFullStore" style="stroke:#A80036;stroke-width:1.0;stroke-dasharray:7.0,7.0;"/><polygon fill="#A80036" points="156.91,372.76,163.4313,365.3795,158.4136,367.9914,155.8016,362.9737,156.91,372.76" style="stroke:#A80036;stroke-width:1.0;"/><!--MD5=[4cad62cb46b609773026e1f056385d0a]
@startuml
class WarehouseFullUI{
}

class WarehouseFullController{
    +getWarehouseFull(idManifest, idPortWare)
}

class Company{
    -WarehouseFullStore wfs
    - -
    +getWarehouseFull()
}

class WarehouseFullStore{
    +getWarehouseFull()
    +getWarehouseFull(idManifest, idPortWare)
}

WarehouseFullUI ..> WarehouseFullController
WarehouseFullController ..> Company
Company - -> WarehouseFullStore
WarehouseFullController ..> WarehouseFullStore

@endum

PlantUML version 1.2021.15(Tue Nov 30 16:45:34 GMT 2021)
(GPL source distribution)
Java Runtime: OpenJDK Runtime Environment
JVM: OpenJDK 64-Bit Server VM
Default Encoding: Cp1252
Language: pt
Country: PT
--></g></svg>