<?xml version="1.0" encoding="UTF-8" standalone="no"?><svg xmlns="http://www.w3.org/2000/svg" xmlns:xlink="http://www.w3.org/1999/xlink" contentScriptType="application/ecmascript" contentStyleType="text/css" height="528px" preserveAspectRatio="none" style="width:1116px;height:528px;background:#FFFFFF;" version="1.1" viewBox="0 0 1116 528" width="1116px" zoomAndPan="magnify"><defs><filter height="300%" id="f12qzz9cqjn0wz" width="300%" x="-1" y="-1"><feGaussianBlur result="blurOut" stdDeviation="2.0"/><feColorMatrix in="blurOut" result="blurOut2" type="matrix" values="0 0 0 0 0 0 0 0 0 0 0 0 0 0 0 0 0 0 .4 0"/><feOffset dx="4.0" dy="4.0" in="blurOut2" result="blurOut3"/><feBlend in="SourceGraphic" in2="blurOut3" mode="normal"/></filter></defs><g><rect fill="#FFFFFF" filter="url(#f12qzz9cqjn0wz)" height="325.5156" style="stroke:#A80036;stroke-width:1.0;" width="10" x="44" y="99.6094"/><rect fill="#FFFFFF" filter="url(#f12qzz9cqjn0wz)" height="30.3516" style="stroke:#A80036;stroke-width:1.0;" width="10" x="383" y="121.9609"/><rect fill="#FFFFFF" filter="url(#f12qzz9cqjn0wz)" height="242.4609" style="stroke:#A80036;stroke-width:1.0;" width="10" x="383" y="182.6641"/><rect fill="#FFFFFF" filter="url(#f12qzz9cqjn0wz)" height="181.7578" style="stroke:#A80036;stroke-width:1.0;" width="10" x="704" y="213.0156"/><rect fill="#FFFFFF" filter="url(#f12qzz9cqjn0wz)" height="60.3516" style="stroke:#A80036;stroke-width:1.0;" width="10" x="857" y="243.3672"/><rect fill="#FFFFFF" filter="url(#f12qzz9cqjn0wz)" height="30" style="stroke:#A80036;stroke-width:1.0;" width="10" x="1025" y="273.7188"/><rect fill="#FFFFFF" filter="url(#f12qzz9cqjn0wz)" height="30.3516" style="stroke:#A80036;stroke-width:1.0;" width="10" x="1025" y="334.0703"/><line style="stroke:#A80036;stroke-width:1.0;stroke-dasharray:5.0,5.0;" x1="49" x2="49" y1="89.6094" y2="443.125"/><line style="stroke:#A80036;stroke-width:1.0;stroke-dasharray:5.0,5.0;" x1="388" x2="388" y1="89.6094" y2="443.125"/><line style="stroke:#A80036;stroke-width:1.0;stroke-dasharray:5.0,5.0;" x1="709" x2="709" y1="89.6094" y2="443.125"/><line style="stroke:#A80036;stroke-width:1.0;stroke-dasharray:5.0,5.0;" x1="862" x2="862" y1="89.6094" y2="443.125"/><line style="stroke:#A80036;stroke-width:1.0;stroke-dasharray:5.0,5.0;" x1="1030" x2="1030" y1="89.6094" y2="443.125"/><text fill="#000000" font-family="sans-serif" font-size="14" lengthAdjust="spacing" textLength="82" x="5" y="86.5332">Portmanager</text><ellipse cx="49" cy="15" fill="#FEFECE" filter="url(#f12qzz9cqjn0wz)" rx="8" ry="8" style="stroke:#A80036;stroke-width:2.0;"/><path d="M49,23 L49,50 M36,31 L62,31 M49,50 L36,65 M49,50 L62,65 " fill="none" filter="url(#f12qzz9cqjn0wz)" style="stroke:#A80036;stroke-width:2.0;"/><text fill="#000000" font-family="sans-serif" font-size="14" lengthAdjust="spacing" textLength="82" x="5" y="456.6582">Portmanager</text><ellipse cx="49" cy="469.7344" fill="#FEFECE" filter="url(#f12qzz9cqjn0wz)" rx="8" ry="8" style="stroke:#A80036;stroke-width:2.0;"/><path d="M49,477.7344 L49,504.7344 M36,485.7344 L62,485.7344 M49,504.7344 L36,519.7344 M49,504.7344 L62,519.7344 " fill="none" filter="url(#f12qzz9cqjn0wz)" style="stroke:#A80036;stroke-width:2.0;"/><rect fill="#FEFECE" filter="url(#f12qzz9cqjn0wz)" height="31.6094" style="stroke:#A80036;stroke-width:1.5;" width="126" x="323" y="53"/><text fill="#000000" font-family="sans-serif" font-size="14" lengthAdjust="spacing" textLength="112" x="330" y="74.5332">:WarehouseFullUI</text><rect fill="#FEFECE" filter="url(#f12qzz9cqjn0wz)" height="31.6094" style="stroke:#A80036;stroke-width:1.5;" width="126" x="323" y="442.125"/><text fill="#000000" font-family="sans-serif" font-size="14" lengthAdjust="spacing" textLength="112" x="330" y="463.6582">:WarehouseFullUI</text><rect fill="#FEFECE" filter="url(#f12qzz9cqjn0wz)" height="31.6094" style="stroke:#A80036;stroke-width:1.5;" width="176" x="619" y="53"/><text fill="#000000" font-family="sans-serif" font-size="14" lengthAdjust="spacing" textLength="162" x="626" y="74.5332">:WarehouseFullController</text><rect fill="#FEFECE" filter="url(#f12qzz9cqjn0wz)" height="31.6094" style="stroke:#A80036;stroke-width:1.5;" width="176" x="619" y="442.125"/><text fill="#000000" font-family="sans-serif" font-size="14" lengthAdjust="spacing" textLength="162" x="626" y="463.6582">:WarehouseFullController</text><rect fill="#FEFECE" filter="url(#f12qzz9cqjn0wz)" height="31.6094" style="stroke:#A80036;stroke-width:1.5;" width="78" x="821" y="53"/><text fill="#000000" font-family="sans-serif" font-size="14" lengthAdjust="spacing" textLength="64" x="828" y="74.5332">:Company</text><rect fill="#FEFECE" filter="url(#f12qzz9cqjn0wz)" height="31.6094" style="stroke:#A80036;stroke-width:1.5;" width="78" x="821" y="442.125"/><text fill="#000000" font-family="sans-serif" font-size="14" lengthAdjust="spacing" textLength="64" x="828" y="463.6582">:Company</text><rect fill="#FEFECE" filter="url(#f12qzz9cqjn0wz)" height="31.6094" style="stroke:#A80036;stroke-width:1.5;" width="148" x="954" y="53"/><text fill="#000000" font-family="sans-serif" font-size="14" lengthAdjust="spacing" textLength="134" x="961" y="74.5332">:WarehouseFullStore</text><rect fill="#FEFECE" filter="url(#f12qzz9cqjn0wz)" height="31.6094" style="stroke:#A80036;stroke-width:1.5;" width="148" x="954" y="442.125"/><text fill="#000000" font-family="sans-serif" font-size="14" lengthAdjust="spacing" textLength="134" x="961" y="463.6582">:WarehouseFullStore</text><rect fill="#FFFFFF" filter="url(#f12qzz9cqjn0wz)" height="325.5156" style="stroke:#A80036;stroke-width:1.0;" width="10" x="44" y="99.6094"/><rect fill="#FFFFFF" filter="url(#f12qzz9cqjn0wz)" height="30.3516" style="stroke:#A80036;stroke-width:1.0;" width="10" x="383" y="121.9609"/><rect fill="#FFFFFF" filter="url(#f12qzz9cqjn0wz)" height="242.4609" style="stroke:#A80036;stroke-width:1.0;" width="10" x="383" y="182.6641"/><rect fill="#FFFFFF" filter="url(#f12qzz9cqjn0wz)" height="181.7578" style="stroke:#A80036;stroke-width:1.0;" width="10" x="704" y="213.0156"/><rect fill="#FFFFFF" filter="url(#f12qzz9cqjn0wz)" height="60.3516" style="stroke:#A80036;stroke-width:1.0;" width="10" x="857" y="243.3672"/><rect fill="#FFFFFF" filter="url(#f12qzz9cqjn0wz)" height="30" style="stroke:#A80036;stroke-width:1.0;" width="10" x="1025" y="273.7188"/><rect fill="#FFFFFF" filter="url(#f12qzz9cqjn0wz)" height="30.3516" style="stroke:#A80036;stroke-width:1.0;" width="10" x="1025" y="334.0703"/><polygon fill="#A80036" points="371,117.9609,381,121.9609,371,125.9609,375,121.9609" style="stroke:#A80036;stroke-width:1.0;"/><line style="stroke:#A80036;stroke-width:1.0;" x1="54" x2="377" y1="121.9609" y2="121.9609"/><text fill="#000000" font-family="sans-serif" font-size="13" font-weight="bold" lengthAdjust="spacing" textLength="7" x="61" y="117.1045">1</text><text fill="#000000" font-family="sans-serif" font-size="13" lengthAdjust="spacing" textLength="131" x="72" y="117.1045">Issue a cargo manifest</text><polygon fill="#A80036" points="65,148.3125,55,152.3125,65,156.3125,61,152.3125" style="stroke:#A80036;stroke-width:1.0;"/><line style="stroke:#A80036;stroke-width:1.0;stroke-dasharray:2.0,2.0;" x1="59" x2="387" y1="152.3125" y2="152.3125"/><text fill="#000000" font-family="sans-serif" font-size="13" font-weight="bold" lengthAdjust="spacing" textLength="7" x="71" y="147.4561">2</text><text fill="#000000" font-family="sans-serif" font-size="13" lengthAdjust="spacing" textLength="203" x="82" y="147.4561">Asks for the destination warehouse</text><polygon fill="#A80036" points="371,178.6641,381,182.6641,371,186.6641,375,182.6641" style="stroke:#A80036;stroke-width:1.0;"/><line style="stroke:#A80036;stroke-width:1.0;" x1="54" x2="377" y1="182.6641" y2="182.6641"/><text fill="#000000" font-family="sans-serif" font-size="13" font-weight="bold" lengthAdjust="spacing" textLength="7" x="61" y="177.8076">3</text><text fill="#000000" font-family="sans-serif" font-size="13" lengthAdjust="spacing" textLength="299" x="72" y="177.8076">Introduces destination warehouse and id of manifest</text><polygon fill="#A80036" points="692,209.0156,702,213.0156,692,217.0156,696,213.0156" style="stroke:#A80036;stroke-width:1.0;"/><line style="stroke:#A80036;stroke-width:1.0;" x1="393" x2="698" y1="213.0156" y2="213.0156"/><text fill="#000000" font-family="sans-serif" font-size="13" font-weight="bold" lengthAdjust="spacing" textLength="7" x="400" y="208.1592">4</text><text fill="#000000" font-family="sans-serif" font-size="13" lengthAdjust="spacing" textLength="281" x="411" y="208.1592">getWarehouseFull(int idManifest, int idPortWare)</text><polygon fill="#A80036" points="845,239.3672,855,243.3672,845,247.3672,849,243.3672" style="stroke:#A80036;stroke-width:1.0;"/><line style="stroke:#A80036;stroke-width:1.0;" x1="714" x2="851" y1="243.3672" y2="243.3672"/><text fill="#000000" font-family="sans-serif" font-size="13" font-weight="bold" lengthAdjust="spacing" textLength="7" x="721" y="238.5107">5</text><text fill="#000000" font-family="sans-serif" font-size="13" lengthAdjust="spacing" textLength="113" x="732" y="238.5107">getWarehouseFull()</text><polygon fill="#A80036" points="1013,269.7188,1023,273.7188,1013,277.7188,1017,273.7188" style="stroke:#A80036;stroke-width:1.0;"/><line style="stroke:#A80036;stroke-width:1.0;" x1="867" x2="1019" y1="273.7188" y2="273.7188"/><text fill="#000000" font-family="sans-serif" font-size="13" font-weight="bold" lengthAdjust="spacing" textLength="7" x="874" y="268.8623">6</text><text fill="#000000" font-family="sans-serif" font-size="13" lengthAdjust="spacing" textLength="113" x="885" y="268.8623">getWarehouseFull()</text><polygon fill="#A80036" points="1013,330.0703,1023,334.0703,1013,338.0703,1017,334.0703" style="stroke:#A80036;stroke-width:1.0;"/><line style="stroke:#A80036;stroke-width:1.0;" x1="714" x2="1019" y1="334.0703" y2="334.0703"/><text fill="#000000" font-family="sans-serif" font-size="13" font-weight="bold" lengthAdjust="spacing" textLength="7" x="721" y="329.2139">7</text><text fill="#000000" font-family="sans-serif" font-size="13" lengthAdjust="spacing" textLength="281" x="732" y="329.2139">getWarehouseFull(int idManifest, int idPortWare)</text><polygon fill="#A80036" points="725,360.4219,715,364.4219,725,368.4219,721,364.4219" style="stroke:#A80036;stroke-width:1.0;"/><line style="stroke:#A80036;stroke-width:1.0;stroke-dasharray:2.0,2.0;" x1="719" x2="1029" y1="364.4219" y2="364.4219"/><text fill="#000000" font-family="sans-serif" font-size="13" font-weight="bold" lengthAdjust="spacing" textLength="7" x="731" y="359.5654">8</text><text fill="#000000" font-family="sans-serif" font-size="13" lengthAdjust="spacing" textLength="232" x="742" y="359.5654">Returns warning if capacity is insuficient</text><polygon fill="#A80036" points="404,390.7734,394,394.7734,404,398.7734,400,394.7734" style="stroke:#A80036;stroke-width:1.0;"/><line style="stroke:#A80036;stroke-width:1.0;stroke-dasharray:2.0,2.0;" x1="398" x2="708" y1="394.7734" y2="394.7734"/><text fill="#000000" font-family="sans-serif" font-size="13" font-weight="bold" lengthAdjust="spacing" textLength="7" x="410" y="389.917">9</text><text fill="#000000" font-family="sans-serif" font-size="13" lengthAdjust="spacing" textLength="232" x="421" y="389.917">Returns warning if capacity is insuficient</text><polygon fill="#A80036" points="60,421.125,50,425.125,60,429.125,56,425.125" style="stroke:#A80036;stroke-width:1.0;"/><line style="stroke:#A80036;stroke-width:1.0;stroke-dasharray:2.0,2.0;" x1="54" x2="387" y1="425.125" y2="425.125"/><text fill="#000000" font-family="sans-serif" font-size="13" font-weight="bold" lengthAdjust="spacing" textLength="14" x="66" y="420.2686">10</text><text fill="#000000" font-family="sans-serif" font-size="13" lengthAdjust="spacing" textLength="232" x="84" y="420.2686">Returns warning if capacity is insuficient</text><!--MD5=[52054f371ca28a9c5b3116fdabbf64aa]
@startuml
autonumber
actor Portmanager as PM

participant ":WarehouseFullUI" as whf
participant ":WarehouseFullController" as whfc
participant ":Company" as comp
participant ":WarehouseFullStore" as whfs

activate PM
PM -> whf : Issue a cargo manifest
activate whf
whf - -> PM : Asks for the destination warehouse
deactivate whf
PM -> whf : Introduces destination warehouse and id of manifest
activate whf
whf -> whfc : getWarehouseFull(int idManifest, int idPortWare)
activate whfc
whfc -> comp : getWarehouseFull()
activate comp
comp -> whfs : getWarehouseFull()
activate whfs
deactivate whfs
deactivate comp
whfc -> whfs : getWarehouseFull(int idManifest, int idPortWare)
activate whfs
whfs - -> whfc : Returns warning if capacity is insuficient
deactivate whfs
whfc - -> whf : Returns warning if capacity is insuficient
deactivate whfc
whf - -> PM : Returns warning if capacity is insuficient
deactivate whf
deactivate PM
@enduml

PlantUML version 1.2021.11(Sat Oct 02 14:26:11 BST 2021)
(GPL source distribution)
Java Runtime: OpenJDK Runtime Environment
JVM: OpenJDK 64-Bit Server VM
Default Encoding: Cp1252
Language: pt
Country: PT
--></g></svg>