<?xml version="1.0" encoding="UTF-8" standalone="no"?><svg xmlns="http://www.w3.org/2000/svg" xmlns:xlink="http://www.w3.org/1999/xlink" contentScriptType="application/ecmascript" contentStyleType="text/css" height="316px" preserveAspectRatio="none" style="width:434px;height:316px;background:#FFFFFF;" version="1.1" viewBox="0 0 434 316" width="434px" zoomAndPan="magnify"><defs><filter height="300%" id="f9r5b72iy3zab" width="300%" x="-1" y="-1"><feGaussianBlur result="blurOut" stdDeviation="2.0"/><feColorMatrix in="blurOut" result="blurOut2" type="matrix" values="0 0 0 0 0 0 0 0 0 0 0 0 0 0 0 0 0 0 .4 0"/><feOffset dx="4.0" dy="4.0" in="blurOut2" result="blurOut3"/><feBlend in="SourceGraphic" in2="blurOut3" mode="normal"/></filter></defs><g><rect fill="#FFFFFF" filter="url(#f9r5b72iy3zab)" height="113.4063" style="stroke:#A80036;stroke-width:1.0;" width="10" x="46" y="99.6094"/><rect fill="#FFFFFF" filter="url(#f9r5b72iy3zab)" height="30.3516" style="stroke:#A80036;stroke-width:1.0;" width="10" x="385" y="121.9609"/><rect fill="#FFFFFF" filter="url(#f9r5b72iy3zab)" height="30.3516" style="stroke:#A80036;stroke-width:1.0;" width="10" x="385" y="182.6641"/><line style="stroke:#A80036;stroke-width:1.0;stroke-dasharray:5.0,5.0;" x1="51" x2="51" y1="89.6094" y2="231.0156"/><line style="stroke:#A80036;stroke-width:1.0;stroke-dasharray:5.0,5.0;" x1="390" x2="390" y1="89.6094" y2="231.0156"/><text fill="#000000" font-family="sans-serif" font-size="14" lengthAdjust="spacing" textLength="86" x="5" y="86.5332">Port Manager</text><ellipse cx="51" cy="15" fill="#FEFECE" filter="url(#f9r5b72iy3zab)" rx="8" ry="8" style="stroke:#A80036;stroke-width:2.0;"/><path d="M51,23 L51,50 M38,31 L64,31 M51,50 L38,65 M51,50 L64,65 " fill="none" filter="url(#f9r5b72iy3zab)" style="stroke:#A80036;stroke-width:2.0;"/><text fill="#000000" font-family="sans-serif" font-size="14" lengthAdjust="spacing" textLength="86" x="5" y="244.5488">Port Manager</text><ellipse cx="51" cy="257.625" fill="#FEFECE" filter="url(#f9r5b72iy3zab)" rx="8" ry="8" style="stroke:#A80036;stroke-width:2.0;"/><path d="M51,265.625 L51,292.625 M38,273.625 L64,273.625 M51,292.625 L38,307.625 M51,292.625 L64,307.625 " fill="none" filter="url(#f9r5b72iy3zab)" style="stroke:#A80036;stroke-width:2.0;"/><rect fill="#FEFECE" filter="url(#f9r5b72iy3zab)" height="31.6094" style="stroke:#A80036;stroke-width:1.5;" width="64" x="356" y="53"/><text fill="#000000" font-family="sans-serif" font-size="14" lengthAdjust="spacing" textLength="50" x="363" y="74.5332">:System</text><rect fill="#FEFECE" filter="url(#f9r5b72iy3zab)" height="31.6094" style="stroke:#A80036;stroke-width:1.5;" width="64" x="356" y="230.0156"/><text fill="#000000" font-family="sans-serif" font-size="14" lengthAdjust="spacing" textLength="50" x="363" y="251.5488">:System</text><rect fill="#FFFFFF" filter="url(#f9r5b72iy3zab)" height="113.4063" style="stroke:#A80036;stroke-width:1.0;" width="10" x="46" y="99.6094"/><rect fill="#FFFFFF" filter="url(#f9r5b72iy3zab)" height="30.3516" style="stroke:#A80036;stroke-width:1.0;" width="10" x="385" y="121.9609"/><rect fill="#FFFFFF" filter="url(#f9r5b72iy3zab)" height="30.3516" style="stroke:#A80036;stroke-width:1.0;" width="10" x="385" y="182.6641"/><polygon fill="#A80036" points="373,117.9609,383,121.9609,373,125.9609,377,121.9609" style="stroke:#A80036;stroke-width:1.0;"/><line style="stroke:#A80036;stroke-width:1.0;" x1="56" x2="379" y1="121.9609" y2="121.9609"/><text fill="#000000" font-family="sans-serif" font-size="13" font-weight="bold" lengthAdjust="spacing" textLength="7" x="63" y="117.1045">1</text><text fill="#000000" font-family="sans-serif" font-size="13" lengthAdjust="spacing" textLength="131" x="74" y="117.1045">Issue a cargo manifest</text><polygon fill="#A80036" points="67,148.3125,57,152.3125,67,156.3125,63,152.3125" style="stroke:#A80036;stroke-width:1.0;"/><line style="stroke:#A80036;stroke-width:1.0;stroke-dasharray:2.0,2.0;" x1="61" x2="389" y1="152.3125" y2="152.3125"/><text fill="#000000" font-family="sans-serif" font-size="13" font-weight="bold" lengthAdjust="spacing" textLength="7" x="73" y="147.4561">2</text><text fill="#000000" font-family="sans-serif" font-size="13" lengthAdjust="spacing" textLength="203" x="84" y="147.4561">Asks for the destination warehouse</text><polygon fill="#A80036" points="373,178.6641,383,182.6641,373,186.6641,377,182.6641" style="stroke:#A80036;stroke-width:1.0;"/><line style="stroke:#A80036;stroke-width:1.0;" x1="56" x2="379" y1="182.6641" y2="182.6641"/><text fill="#000000" font-family="sans-serif" font-size="13" font-weight="bold" lengthAdjust="spacing" textLength="7" x="63" y="177.8076">3</text><text fill="#000000" font-family="sans-serif" font-size="13" lengthAdjust="spacing" textLength="299" x="74" y="177.8076">Introduces destination warehouse and id of manifest</text><polygon fill="#A80036" points="62,209.0156,52,213.0156,62,217.0156,58,213.0156" style="stroke:#A80036;stroke-width:1.0;"/><line style="stroke:#A80036;stroke-width:1.0;stroke-dasharray:2.0,2.0;" x1="56" x2="389" y1="213.0156" y2="213.0156"/><text fill="#000000" font-family="sans-serif" font-size="13" font-weight="bold" lengthAdjust="spacing" textLength="7" x="68" y="208.1592">4</text><text fill="#000000" font-family="sans-serif" font-size="13" lengthAdjust="spacing" textLength="232" x="79" y="208.1592">Returns warning if capacity is insuficient</text><!--MD5=[d994bcbcd13d8af9dbc9fabebbf33bd7]
@startuml
autonumber

actor "Port Manager" as PM

participant ":System" as Sys

activate PM
PM -> Sys : Issue a cargo manifest
activate Sys
Sys - -> PM : Asks for the destination warehouse
deactivate Sys
PM -> Sys : Introduces destination warehouse and id of manifest
activate Sys
Sys - -> PM : Returns warning if capacity is insuficient
deactivate Sys
deactivate PM

@enduml

PlantUML version 1.2021.11(Sat Oct 02 14:26:11 BST 2021)
(GPL source distribution)
Java Runtime: OpenJDK Runtime Environment
JVM: OpenJDK 64-Bit Server VM
Default Encoding: Cp1252
Language: pt
Country: PT
--></g></svg>