<?xml version="1.0" encoding="UTF-8" standalone="no"?><svg xmlns="http://www.w3.org/2000/svg" xmlns:xlink="http://www.w3.org/1999/xlink" contentScriptType="application/ecmascript" contentStyleType="text/css" height="312px" preserveAspectRatio="none" style="width:166px;height:312px;background:#FFFFFF;" version="1.1" viewBox="0 0 166 312" width="166px" zoomAndPan="magnify"><defs><filter height="300%" id="f19hccsc6gk84h" width="300%" x="-1" y="-1"><feGaussianBlur result="blurOut" stdDeviation="2.0"/><feColorMatrix in="blurOut" result="blurOut2" type="matrix" values="0 0 0 0 0 0 0 0 0 0 0 0 0 0 0 0 0 0 .4 0"/><feOffset dx="4.0" dy="4.0" in="blurOut2" result="blurOut3"/><feBlend in="SourceGraphic" in2="blurOut3" mode="normal"/></filter></defs><g><!--MD5=[df76e760f2062188d44f98c21a88999b]
class UI--><rect codeLine="1" fill="#FEFECE" filter="url(#f19hccsc6gk84h)" height="48" id="UI" style="stroke:#A80036;stroke-width:1.5;" width="44" x="57.5" y="7"/><ellipse cx="72.5" cy="23" fill="#ADD1B2" rx="11" ry="11" style="stroke:#A80036;stroke-width:1.0;"/><path d="M74.5,19.5 Q74.7031,19 74.9375,18.75 Q75.1719,18.5 75.4375,18.5 Q75.9063,18.5 76.2031,18.7813 Q76.5,19.0625 76.5,19.7188 L76.5,21.2813 Q76.5,21.9375 76.2188,22.2188 Q75.9375,22.5 75.5,22.5 Q75.1094,22.5 74.8594,22.3281 Q74.6094,22.1563 74.5,21.7031 Q74.4531,21.3906 74.2813,21.2188 Q73.9688,20.8906 73.4063,20.7031 Q72.8438,20.5 72.2813,20.5 Q71.5781,20.5 70.9844,20.7813 Q70.4063,21.0625 69.9531,21.6875 Q69.5,22.3125 69.5,23.1719 L69.5,24.0938 Q69.5,25.125 70.3438,25.8125 Q71.1875,26.5 72.6875,26.5 Q73.5781,26.5 74.2031,26.2969 Q74.5625,26.1875 74.9688,25.8281 Q75.2344,25.625 75.375,25.5625 Q75.5156,25.5 75.6875,25.5 Q76.0156,25.5 76.25,25.7656 Q76.5,26.0156 76.5,26.375 Q76.5,26.7188 76.1563,27.125 Q75.6563,27.7188 74.8594,28.0469 Q73.8125,28.5 72.5313,28.5 Q71.0313,28.5 69.8281,27.9063 Q68.8594,27.4375 68.1719,26.4219 Q67.5,25.4063 67.5,24.2031 L67.5,23.1094 Q67.5,21.8594 68.0938,20.7656 Q68.7031,19.6719 69.75,19.0938 Q70.8125,18.5 72,18.5 Q72.7188,18.5 73.3438,18.75 Q73.9688,19 74.5,19.5 Z " fill="#000000"/><text fill="#000000" font-family="sans-serif" font-size="12" lengthAdjust="spacing" textLength="12" x="86.5" y="27.9102">UI</text><line style="stroke:#A80036;stroke-width:1.5;" x1="58.5" x2="100.5" y1="39" y2="39"/><line style="stroke:#A80036;stroke-width:1.5;" x1="58.5" x2="100.5" y1="47" y2="47"/><!--MD5=[84718776d214be480e4c259efcb737fc]
class Main--><rect codeLine="4" fill="#FEFECE" filter="url(#f19hccsc6gk84h)" height="61.8359" id="Main" style="stroke:#A80036;stroke-width:1.5;" width="111" x="24" y="115"/><ellipse cx="62.85" cy="131" fill="#ADD1B2" rx="11" ry="11" style="stroke:#A80036;stroke-width:1.0;"/><path d="M64.85,127.5 Q65.0531,127 65.2875,126.75 Q65.5219,126.5 65.7875,126.5 Q66.2563,126.5 66.5531,126.7813 Q66.85,127.0625 66.85,127.7188 L66.85,129.2813 Q66.85,129.9375 66.5688,130.2188 Q66.2875,130.5 65.85,130.5 Q65.4594,130.5 65.2094,130.3281 Q64.9594,130.1563 64.85,129.7031 Q64.8031,129.3906 64.6313,129.2188 Q64.3188,128.8906 63.7563,128.7031 Q63.1938,128.5 62.6313,128.5 Q61.9281,128.5 61.3344,128.7813 Q60.7563,129.0625 60.3031,129.6875 Q59.85,130.3125 59.85,131.1719 L59.85,132.0938 Q59.85,133.125 60.6938,133.8125 Q61.5375,134.5 63.0375,134.5 Q63.9281,134.5 64.5531,134.2969 Q64.9125,134.1875 65.3188,133.8281 Q65.5844,133.625 65.725,133.5625 Q65.8656,133.5 66.0375,133.5 Q66.3656,133.5 66.6,133.7656 Q66.85,134.0156 66.85,134.375 Q66.85,134.7188 66.5063,135.125 Q66.0063,135.7188 65.2094,136.0469 Q64.1625,136.5 62.8813,136.5 Q61.3813,136.5 60.1781,135.9063 Q59.2094,135.4375 58.5219,134.4219 Q57.85,133.4063 57.85,132.2031 L57.85,131.1094 Q57.85,129.8594 58.4438,128.7656 Q59.0531,127.6719 60.1,127.0938 Q61.1625,126.5 62.35,126.5 Q63.0688,126.5 63.6938,126.75 Q64.3188,127 64.85,127.5 Z " fill="#000000"/><text fill="#000000" font-family="sans-serif" font-size="12" lengthAdjust="spacing" textLength="26" x="82.15" y="135.9102">Main</text><line style="stroke:#A80036;stroke-width:1.5;" x1="25" x2="134" y1="147" y2="147"/><ellipse cx="35" cy="158" rx="3" ry="3" style="stroke:#038048;stroke-width:1.0;fill:none;"/><text fill="#000000" font-family="sans-serif" font-size="11" lengthAdjust="spacing" textLength="85" x="44" y="162.4189">getOccupiedSlots</text><line style="stroke:#A80036;stroke-width:1.5;" x1="25" x2="134" y1="168.8359" y2="168.8359"/><!--MD5=[80b6d0231b3ed5c8ee2f0c8ed16ef6ec]
class CountOccupiedSlots--><rect codeLine="8" fill="#FEFECE" filter="url(#f19hccsc6gk84h)" height="61.8359" id="CountOccupiedSlots" style="stroke:#A80036;stroke-width:1.5;" width="145" x="7" y="237"/><ellipse cx="22" cy="253" fill="#ADD1B2" rx="11" ry="11" style="stroke:#A80036;stroke-width:1.0;"/><path d="M24,249.5 Q24.2031,249 24.4375,248.75 Q24.6719,248.5 24.9375,248.5 Q25.4063,248.5 25.7031,248.7813 Q26,249.0625 26,249.7188 L26,251.2813 Q26,251.9375 25.7188,252.2188 Q25.4375,252.5 25,252.5 Q24.6094,252.5 24.3594,252.3281 Q24.1094,252.1563 24,251.7031 Q23.9531,251.3906 23.7813,251.2188 Q23.4688,250.8906 22.9063,250.7031 Q22.3438,250.5 21.7813,250.5 Q21.0781,250.5 20.4844,250.7813 Q19.9063,251.0625 19.4531,251.6875 Q19,252.3125 19,253.1719 L19,254.0938 Q19,255.125 19.8438,255.8125 Q20.6875,256.5 22.1875,256.5 Q23.0781,256.5 23.7031,256.2969 Q24.0625,256.1875 24.4688,255.8281 Q24.7344,255.625 24.875,255.5625 Q25.0156,255.5 25.1875,255.5 Q25.5156,255.5 25.75,255.7656 Q26,256.0156 26,256.375 Q26,256.7188 25.6563,257.125 Q25.1563,257.7188 24.3594,258.0469 Q23.3125,258.5 22.0313,258.5 Q20.5313,258.5 19.3281,257.9063 Q18.3594,257.4375 17.6719,256.4219 Q17,255.4063 17,254.2031 L17,253.1094 Q17,251.8594 17.5938,250.7656 Q18.2031,249.6719 19.25,249.0938 Q20.3125,248.5 21.5,248.5 Q22.2188,248.5 22.8438,248.75 Q23.4688,249 24,249.5 Z " fill="#000000"/><text fill="#000000" font-family="sans-serif" font-size="12" lengthAdjust="spacing" textLength="113" x="36" y="257.9102">CountOccupiedSlots</text><line style="stroke:#A80036;stroke-width:1.5;" x1="8" x2="151" y1="269" y2="269"/><line style="stroke:#A80036;stroke-width:1.5;" x1="8" x2="151" y1="277" y2="277"/><ellipse cx="18" cy="288" fill="#84BE84" rx="3" ry="3" style="stroke:#038048;stroke-width:1.0;"/><text fill="#000000" font-family="sans-serif" font-size="11" lengthAdjust="spacing" textLength="105" x="27" y="292.4189">countOccupiedSlots()</text><!--MD5=[94ae5a444bf38bb580342dc6dd15767e]
link UI to Main--><path codeLine="12" d="M79.5,55.14 C79.5,70.71 79.5,91.53 79.5,109.22 " fill="none" id="UI-to-Main" style="stroke:#A80036;stroke-width:1.0;stroke-dasharray:7.0,7.0;"/><polygon fill="#A80036" points="79.5,114.6,83.5,105.6,79.5,109.6,75.5,105.6,79.5,114.6" style="stroke:#A80036;stroke-width:1.0;"/><!--MD5=[e4fda5572347f1bef514e3765c53c347]
link Main to CountOccupiedSlots--><path codeLine="13" d="M79.5,177.28 C79.5,193.77 79.5,214.26 79.5,231.49 " fill="none" id="Main-to-CountOccupiedSlots" style="stroke:#A80036;stroke-width:1.0;stroke-dasharray:7.0,7.0;"/><polygon fill="#A80036" points="79.5,236.73,83.5,227.73,79.5,231.73,75.5,227.73,79.5,236.73" style="stroke:#A80036;stroke-width:1.0;"/><!--MD5=[0b4cc5f8cbacddb2ff350852af374146]
@startuml
class UI{
}

class Main{
    +getOccupiedSlots
}

class CountOccupiedSlots{
    +countOccupiedSlots()
}

UI ..> Main
Main ..> CountOccupiedSlots

@enduml

PlantUML version 1.2021.11(Sat Oct 02 14:26:11 BST 2021)
(GPL source distribution)
Java Runtime: OpenJDK Runtime Environment
JVM: OpenJDK 64-Bit Server VM
Default Encoding: Cp1252
Language: pt
Country: PT
--></g></svg>