<?xml version="1.0" encoding="UTF-8" standalone="no"?><svg xmlns="http://www.w3.org/2000/svg" xmlns:xlink="http://www.w3.org/1999/xlink" contentScriptType="application/ecmascript" contentStyleType="text/css" height="310px" preserveAspectRatio="none" style="width:827px;height:310px;background:#FFFFFF;" version="1.1" viewBox="0 0 827 310" width="827px" zoomAndPan="magnify"><defs><filter height="300%" id="f1tqsd5fkvhe3m" width="300%" x="-1" y="-1"><feGaussianBlur result="blurOut" stdDeviation="2.0"/><feColorMatrix in="blurOut" result="blurOut2" type="matrix" values="0 0 0 0 0 0 0 0 0 0 0 0 0 0 0 0 0 0 .4 0"/><feOffset dx="4.0" dy="4.0" in="blurOut2" result="blurOut3"/><feBlend in="SourceGraphic" in2="blurOut3" mode="normal"/></filter></defs><g><!--MD5=[a0e14dc1c5f22798a4d68a7546a0e1d4]
class PortStaff--><rect codeLine="6" fill="#FEFECE" filter="url(#f1tqsd5fkvhe3m)" height="40" id="PortStaff" style="stroke:#A80036;stroke-width:1.5;" width="78" x="7" y="131.5"/><ellipse cx="22" cy="147.5" fill="#ADD1B2" rx="11" ry="11" style="stroke:#A80036;stroke-width:1.0;"/><path d="M24,144 Q24.2031,143.5 24.4375,143.25 Q24.6719,143 24.9375,143 Q25.4063,143 25.7031,143.2813 Q26,143.5625 26,144.2188 L26,145.7813 Q26,146.4375 25.7188,146.7188 Q25.4375,147 25,147 Q24.6094,147 24.3594,146.8281 Q24.1094,146.6563 24,146.2031 Q23.9531,145.8906 23.7813,145.7188 Q23.4688,145.3906 22.9063,145.2031 Q22.3438,145 21.7813,145 Q21.0781,145 20.4844,145.2813 Q19.9063,145.5625 19.4531,146.1875 Q19,146.8125 19,147.6719 L19,148.5938 Q19,149.625 19.8438,150.3125 Q20.6875,151 22.1875,151 Q23.0781,151 23.7031,150.7969 Q24.0625,150.6875 24.4688,150.3281 Q24.7344,150.125 24.875,150.0625 Q25.0156,150 25.1875,150 Q25.5156,150 25.75,150.2656 Q26,150.5156 26,150.875 Q26,151.2188 25.6563,151.625 Q25.1563,152.2188 24.3594,152.5469 Q23.3125,153 22.0313,153 Q20.5313,153 19.3281,152.4063 Q18.3594,151.9375 17.6719,150.9219 Q17,149.9063 17,148.7031 L17,147.6094 Q17,146.3594 17.5938,145.2656 Q18.2031,144.1719 19.25,143.5938 Q20.3125,143 21.5,143 Q22.2188,143 22.8438,143.25 Q23.4688,143.5 24,144 Z " fill="#000000"/><text fill="#000000" font-family="sans-serif" font-size="12" lengthAdjust="spacing" textLength="46" x="36" y="152.4102">PortStaff</text><line style="stroke:#A80036;stroke-width:1.5;" x1="8" x2="84" y1="163.5" y2="163.5"/><!--MD5=[bc6d56fff33115396b36caccb440b7b0]
class Manifest--><rect codeLine="28" fill="#FEFECE" filter="url(#f1tqsd5fkvhe3m)" height="81.5078" id="Manifest" style="stroke:#A80036;stroke-width:1.5;" width="78" x="735" y="110.5"/><ellipse cx="750" cy="126.5" fill="#ADD1B2" rx="11" ry="11" style="stroke:#A80036;stroke-width:1.0;"/><path d="M752,123 Q752.2031,122.5 752.4375,122.25 Q752.6719,122 752.9375,122 Q753.4063,122 753.7031,122.2813 Q754,122.5625 754,123.2188 L754,124.7813 Q754,125.4375 753.7188,125.7188 Q753.4375,126 753,126 Q752.6094,126 752.3594,125.8281 Q752.1094,125.6563 752,125.2031 Q751.9531,124.8906 751.7813,124.7188 Q751.4688,124.3906 750.9063,124.2031 Q750.3438,124 749.7813,124 Q749.0781,124 748.4844,124.2813 Q747.9063,124.5625 747.4531,125.1875 Q747,125.8125 747,126.6719 L747,127.5938 Q747,128.625 747.8438,129.3125 Q748.6875,130 750.1875,130 Q751.0781,130 751.7031,129.7969 Q752.0625,129.6875 752.4688,129.3281 Q752.7344,129.125 752.875,129.0625 Q753.0156,129 753.1875,129 Q753.5156,129 753.75,129.2656 Q754,129.5156 754,129.875 Q754,130.2188 753.6563,130.625 Q753.1563,131.2188 752.3594,131.5469 Q751.3125,132 750.0313,132 Q748.5313,132 747.3281,131.4063 Q746.3594,130.9375 745.6719,129.9219 Q745,128.9063 745,127.7031 L745,126.6094 Q745,125.3594 745.5938,124.2656 Q746.2031,123.1719 747.25,122.5938 Q748.3125,122 749.5,122 Q750.2188,122 750.8438,122.25 Q751.4688,122.5 752,123 Z " fill="#000000"/><text fill="#000000" font-family="sans-serif" font-size="12" lengthAdjust="spacing" textLength="46" x="764" y="131.4102">Manifest</text><line style="stroke:#A80036;stroke-width:1.5;" x1="736" x2="812" y1="142.5" y2="142.5"/><text fill="#000000" font-family="sans-serif" font-size="11" lengthAdjust="spacing" textLength="25" x="741" y="157.9189">-date</text><text fill="#000000" font-family="sans-serif" font-size="11" lengthAdjust="spacing" textLength="32" x="741" y="171.7549">-gross</text><text fill="#000000" font-family="sans-serif" font-size="11" lengthAdjust="spacing" textLength="41" x="741" y="185.5908">-position</text><!--MD5=[0dc7f2ddb409b58bcf52b12238c25399]
class Ship--><rect codeLine="34" fill="#FEFECE" filter="url(#f1tqsd5fkvhe3m)" height="289.0469" id="Ship" style="stroke:#A80036;stroke-width:1.5;" width="103" x="536" y="7"/><ellipse cx="571.7" cy="23" fill="#ADD1B2" rx="11" ry="11" style="stroke:#A80036;stroke-width:1.0;"/><path d="M573.7,19.5 Q573.9031,19 574.1375,18.75 Q574.3719,18.5 574.6375,18.5 Q575.1063,18.5 575.4031,18.7813 Q575.7,19.0625 575.7,19.7188 L575.7,21.2813 Q575.7,21.9375 575.4188,22.2188 Q575.1375,22.5 574.7,22.5 Q574.3094,22.5 574.0594,22.3281 Q573.8094,22.1563 573.7,21.7031 Q573.6531,21.3906 573.4813,21.2188 Q573.1688,20.8906 572.6063,20.7031 Q572.0438,20.5 571.4813,20.5 Q570.7781,20.5 570.1844,20.7813 Q569.6063,21.0625 569.1531,21.6875 Q568.7,22.3125 568.7,23.1719 L568.7,24.0938 Q568.7,25.125 569.5438,25.8125 Q570.3875,26.5 571.8875,26.5 Q572.7781,26.5 573.4031,26.2969 Q573.7625,26.1875 574.1688,25.8281 Q574.4344,25.625 574.575,25.5625 Q574.7156,25.5 574.8875,25.5 Q575.2156,25.5 575.45,25.7656 Q575.7,26.0156 575.7,26.375 Q575.7,26.7188 575.3563,27.125 Q574.8563,27.7188 574.0594,28.0469 Q573.0125,28.5 571.7313,28.5 Q570.2313,28.5 569.0281,27.9063 Q568.0594,27.4375 567.3719,26.4219 Q566.7,25.4063 566.7,24.2031 L566.7,23.1094 Q566.7,21.8594 567.2938,20.7656 Q567.9031,19.6719 568.95,19.0938 Q570.0125,18.5 571.2,18.5 Q571.9188,18.5 572.5438,18.75 Q573.1688,19 573.7,19.5 Z " fill="#000000"/><text fill="#000000" font-family="sans-serif" font-size="12" lengthAdjust="spacing" textLength="25" x="590.3" y="27.9102">Ship</text><line style="stroke:#A80036;stroke-width:1.5;" x1="537" x2="638" y1="39" y2="39"/><text fill="#000000" font-family="sans-serif" font-size="11" lengthAdjust="spacing" textLength="28" x="542" y="54.4189">-mmsi</text><text fill="#000000" font-family="sans-serif" font-size="11" lengthAdjust="spacing" textLength="20" x="542" y="68.2549">-imo</text><text fill="#000000" font-family="sans-serif" font-size="11" lengthAdjust="spacing" textLength="69" x="542" y="82.0908">-n_generators</text><text fill="#000000" font-family="sans-serif" font-size="11" lengthAdjust="spacing" textLength="33" x="542" y="95.9268">-length</text><text fill="#000000" font-family="sans-serif" font-size="11" lengthAdjust="spacing" textLength="31" x="542" y="109.7627">-width</text><text fill="#000000" font-family="sans-serif" font-size="11" lengthAdjust="spacing" textLength="69" x="542" y="123.5986">-p_generators</text><text fill="#000000" font-family="sans-serif" font-size="11" lengthAdjust="spacing" textLength="45" x="542" y="137.4346">-capacity</text><text fill="#000000" font-family="sans-serif" font-size="11" lengthAdjust="spacing" textLength="56" x="542" y="151.2705">-ship_name</text><text fill="#000000" font-family="sans-serif" font-size="11" lengthAdjust="spacing" textLength="63" x="542" y="165.1064">-vessel_type</text><text fill="#000000" font-family="sans-serif" font-size="11" lengthAdjust="spacing" textLength="46" x="542" y="178.9424">-call_sign</text><text fill="#000000" font-family="sans-serif" font-size="11" lengthAdjust="spacing" textLength="27" x="542" y="192.7783">-draft</text><text fill="#000000" font-family="sans-serif" font-size="11" lengthAdjust="spacing" textLength="50" x="542" y="206.6143">-date_time</text><text fill="#000000" font-family="sans-serif" font-size="11" lengthAdjust="spacing" textLength="38" x="542" y="220.4502">-latitude</text><text fill="#000000" font-family="sans-serif" font-size="11" lengthAdjust="spacing" textLength="47" x="542" y="234.2861">-longitude</text><text fill="#000000" font-family="sans-serif" font-size="11" lengthAdjust="spacing" textLength="22" x="542" y="248.1221">-sog</text><text fill="#000000" font-family="sans-serif" font-size="11" lengthAdjust="spacing" textLength="22" x="542" y="261.958">-cog</text><text fill="#000000" font-family="sans-serif" font-size="11" lengthAdjust="spacing" textLength="42" x="542" y="275.7939">-heading</text><text fill="#000000" font-family="sans-serif" font-size="11" lengthAdjust="spacing" textLength="91" x="542" y="289.6299">-transceiver_class</text><!--MD5=[02e4b9b7573f1156f41e60aa5b4e25a4]
class Company--><rect codeLine="55" fill="#FEFECE" filter="url(#f1tqsd5fkvhe3m)" height="53.8359" id="Company" style="stroke:#A80036;stroke-width:1.5;" width="85" x="355" y="124.5"/><ellipse cx="370" cy="140.5" fill="#ADD1B2" rx="11" ry="11" style="stroke:#A80036;stroke-width:1.0;"/><path d="M372,137 Q372.2031,136.5 372.4375,136.25 Q372.6719,136 372.9375,136 Q373.4063,136 373.7031,136.2813 Q374,136.5625 374,137.2188 L374,138.7813 Q374,139.4375 373.7188,139.7188 Q373.4375,140 373,140 Q372.6094,140 372.3594,139.8281 Q372.1094,139.6563 372,139.2031 Q371.9531,138.8906 371.7813,138.7188 Q371.4688,138.3906 370.9063,138.2031 Q370.3438,138 369.7813,138 Q369.0781,138 368.4844,138.2813 Q367.9063,138.5625 367.4531,139.1875 Q367,139.8125 367,140.6719 L367,141.5938 Q367,142.625 367.8438,143.3125 Q368.6875,144 370.1875,144 Q371.0781,144 371.7031,143.7969 Q372.0625,143.6875 372.4688,143.3281 Q372.7344,143.125 372.875,143.0625 Q373.0156,143 373.1875,143 Q373.5156,143 373.75,143.2656 Q374,143.5156 374,143.875 Q374,144.2188 373.6563,144.625 Q373.1563,145.2188 372.3594,145.5469 Q371.3125,146 370.0313,146 Q368.5313,146 367.3281,145.4063 Q366.3594,144.9375 365.6719,143.9219 Q365,142.9063 365,141.7031 L365,140.6094 Q365,139.3594 365.5938,138.2656 Q366.2031,137.1719 367.25,136.5938 Q368.3125,136 369.5,136 Q370.2188,136 370.8438,136.25 Q371.4688,136.5 372,137 Z " fill="#000000"/><text fill="#000000" font-family="sans-serif" font-size="12" lengthAdjust="spacing" textLength="53" x="384" y="145.4102">Company</text><line style="stroke:#A80036;stroke-width:1.5;" x1="356" x2="439" y1="156.5" y2="156.5"/><text fill="#000000" font-family="sans-serif" font-size="11" lengthAdjust="spacing" textLength="30" x="361" y="171.9189">-name</text><!--MD5=[bc7c05f31c243bd25c89b072cb7ec92c]
class Workers--><rect codeLine="19" fill="#FEFECE" filter="url(#f1tqsd5fkvhe3m)" height="123.0156" id="Workers" style="stroke:#A80036;stroke-width:1.5;" width="78" x="181" y="90"/><ellipse cx="196" cy="106" fill="#ADD1B2" rx="11" ry="11" style="stroke:#A80036;stroke-width:1.0;"/><path d="M198,102.5 Q198.2031,102 198.4375,101.75 Q198.6719,101.5 198.9375,101.5 Q199.4063,101.5 199.7031,101.7813 Q200,102.0625 200,102.7188 L200,104.2813 Q200,104.9375 199.7188,105.2188 Q199.4375,105.5 199,105.5 Q198.6094,105.5 198.3594,105.3281 Q198.1094,105.1563 198,104.7031 Q197.9531,104.3906 197.7813,104.2188 Q197.4688,103.8906 196.9063,103.7031 Q196.3438,103.5 195.7813,103.5 Q195.0781,103.5 194.4844,103.7813 Q193.9063,104.0625 193.4531,104.6875 Q193,105.3125 193,106.1719 L193,107.0938 Q193,108.125 193.8438,108.8125 Q194.6875,109.5 196.1875,109.5 Q197.0781,109.5 197.7031,109.2969 Q198.0625,109.1875 198.4688,108.8281 Q198.7344,108.625 198.875,108.5625 Q199.0156,108.5 199.1875,108.5 Q199.5156,108.5 199.75,108.7656 Q200,109.0156 200,109.375 Q200,109.7188 199.6563,110.125 Q199.1563,110.7188 198.3594,111.0469 Q197.3125,111.5 196.0313,111.5 Q194.5313,111.5 193.3281,110.9063 Q192.3594,110.4375 191.6719,109.4219 Q191,108.4063 191,107.2031 L191,106.1094 Q191,104.8594 191.5938,103.7656 Q192.2031,102.6719 193.25,102.0938 Q194.3125,101.5 195.5,101.5 Q196.2188,101.5 196.8438,101.75 Q197.4688,102 198,102.5 Z " fill="#000000"/><text fill="#000000" font-family="sans-serif" font-size="12" lengthAdjust="spacing" textLength="46" x="210" y="110.9102">Workers</text><line style="stroke:#A80036;stroke-width:1.5;" x1="182" x2="258" y1="122" y2="122"/><text fill="#000000" font-family="sans-serif" font-size="11" lengthAdjust="spacing" textLength="30" x="187" y="137.4189">-name</text><text fill="#000000" font-family="sans-serif" font-size="11" lengthAdjust="spacing" textLength="52" x="187" y="151.2549">-birth_date</text><text fill="#000000" font-family="sans-serif" font-size="11" lengthAdjust="spacing" textLength="28" x="187" y="165.0908">-email</text><text fill="#000000" font-family="sans-serif" font-size="11" lengthAdjust="spacing" textLength="44" x="187" y="178.9268">-address</text><text fill="#000000" font-family="sans-serif" font-size="11" lengthAdjust="spacing" textLength="34" x="187" y="192.7627">-phone</text><text fill="#000000" font-family="sans-serif" font-size="11" lengthAdjust="spacing" textLength="34" x="187" y="206.5986">-salary</text><!--MD5=[b851e20103ecbea81150c6f317849ee7]
link PortStaff to Workers--><path codeLine="12" d="M85.17,151.5 C113.68,151.5 152.46,151.5 180.93,151.5 " fill="none" id="PortStaff-Workers" style="stroke:#A80036;stroke-width:1.0;"/><polygon fill="#000000" points="125,142.6758,115.9549,139.7369,115.9549,145.6147,125,142.6758" style="stroke:#000000;stroke-width:1.0;"/><text fill="#000000" font-family="sans-serif" font-size="13" lengthAdjust="spacing" textLength="21" x="129" y="147.9951">has</text><text fill="#000000" font-family="sans-serif" font-size="13" lengthAdjust="spacing" textLength="7" x="93.0373" y="166.5025">1</text><text fill="#000000" font-family="sans-serif" font-size="13" lengthAdjust="spacing" textLength="5" x="168.0057" y="166.5521">*</text><!--MD5=[a595b11ee52542f0efa6e5ed12b246e9]
link Workers to Company--><path codeLine="13" d="M259.08,151.5 C287.31,151.5 325.76,151.5 354.81,151.5 " fill="none" id="Workers-Company" style="stroke:#A80036;stroke-width:1.0;"/><polygon fill="#000000" points="289,142.6758,298.0451,145.6147,298.0451,139.7369,289,142.6758" style="stroke:#000000;stroke-width:1.0;"/><text fill="#000000" font-family="sans-serif" font-size="13" lengthAdjust="spacing" textLength="21" x="303" y="147.9951">has</text><text fill="#000000" font-family="sans-serif" font-size="13" lengthAdjust="spacing" textLength="5" x="267.0062" y="166.5521">*</text><text fill="#000000" font-family="sans-serif" font-size="13" lengthAdjust="spacing" textLength="7" x="339.8711" y="166.4144">1</text><!--MD5=[37a14a5de6d6fd738aee271300f4b5c8]
link Company to Ship--><path codeLine="14" d="M440.22,151.5 C468.46,151.5 505.92,151.5 535.86,151.5 " fill="none" id="Company-Ship" style="stroke:#A80036;stroke-width:1.0;"/><polygon fill="#000000" points="480,142.6758,470.9549,139.7369,470.9549,145.6147,480,142.6758" style="stroke:#000000;stroke-width:1.0;"/><text fill="#000000" font-family="sans-serif" font-size="13" lengthAdjust="spacing" textLength="21" x="484" y="147.9951">has</text><text fill="#000000" font-family="sans-serif" font-size="13" lengthAdjust="spacing" textLength="7" x="447.8752" y="166.3628">1</text><text fill="#000000" font-family="sans-serif" font-size="13" lengthAdjust="spacing" textLength="5" x="522.9082" y="166.1925">*</text><!--MD5=[bf3ea1a9851801edc53195a9e0780a16]
link Ship to Manifest--><path codeLine="15" d="M639.4,151.5 C669.59,151.5 707.22,151.5 734.85,151.5 " fill="none" id="Ship-Manifest" style="stroke:#A80036;stroke-width:1.0;"/><polygon fill="#000000" points="679,142.6758,669.9549,139.7369,669.9549,145.6147,679,142.6758" style="stroke:#000000;stroke-width:1.0;"/><text fill="#000000" font-family="sans-serif" font-size="13" lengthAdjust="spacing" textLength="21" x="683" y="147.9951">has</text><text fill="#000000" font-family="sans-serif" font-size="13" lengthAdjust="spacing" textLength="7" x="646.8444" y="166.0906">1</text><text fill="#000000" font-family="sans-serif" font-size="13" lengthAdjust="spacing" textLength="5" x="721.9105" y="166.6005">*</text><!--MD5=[093fe7030cf228fd0e2fd06c63bf3244]
@startuml
'https://plantuml.com/class-diagram
hide methods
skinparam classAttributeIconSize 0
left to right direction

class PortStaff
class Manifest
class Ship
class Company
class Workers

PortStaff "1" - - "*" Workers : has >
Workers"*" - - "1"Company : < has
Company"1" - - "*"Ship : has >
Ship"1" - - "*"Manifest : has >



class Workers {
-name
-birth_date
-email
-address
-phone
-salary
}

class Manifest {
-date
-gross
-position
}

class Ship {
-mmsi
-imo
-n_generators
-length
-width
-p_generators
-capacity
-ship_name
-vessel_type
-call_sign
-draft
-date_time
-latitude
-longitude
-sog
-cog
-heading
-transceiver_class
}

class Company {
-name
}


@enduml

@startuml
hide methods
skinparam classAttributeIconSize 0
left to right direction

class PortStaff
class Manifest
class Ship
class Company
class Workers

PortStaff "1" - - "*" Workers : has >
Workers"*" - - "1"Company : < has
Company"1" - - "*"Ship : has >
Ship"1" - - "*"Manifest : has >



class Workers {
-name
-birth_date
-email
-address
-phone
-salary
}

class Manifest {
-date
-gross
-position
}

class Ship {
-mmsi
-imo
-n_generators
-length
-width
-p_generators
-capacity
-ship_name
-vessel_type
-call_sign
-draft
-date_time
-latitude
-longitude
-sog
-cog
-heading
-transceiver_class
}

class Company {
-name
}


@enduml

PlantUML version 1.2021.11(Sat Oct 02 14:26:11 BST 2021)
(GPL source distribution)
Java Runtime: OpenJDK Runtime Environment
JVM: OpenJDK 64-Bit Server VM
Default Encoding: Cp1252
Language: pt
Country: PT
--></g></svg>