<?xml version="1.0" encoding="UTF-8" standalone="no"?><svg xmlns="http://www.w3.org/2000/svg" xmlns:xlink="http://www.w3.org/1999/xlink" contentScriptType="application/ecmascript" contentStyleType="text/css" height="379.2px" preserveAspectRatio="none" style="width:698px;height:379px;background:#FFFFFF;" version="1.1" viewBox="0 0 698 379" width="698.4px" zoomAndPan="magnify"><defs><filter height="300%" id="f1reljfdf4z52r" width="300%" x="-1" y="-1"><feGaussianBlur result="blurOut" stdDeviation="2.4"/><feColorMatrix in="blurOut" result="blurOut2" type="matrix" values="0 0 0 0 0 0 0 0 0 0 0 0 0 0 0 0 0 0 .4 0"/><feOffset dx="4.8" dy="4.8" in="blurOut2" result="blurOut3"/><feBlend in="SourceGraphic" in2="blurOut3" mode="normal"/></filter></defs><g><rect fill="#FFFFFF" filter="url(#f1reljfdf4z52r)" height="146.8875" style="stroke:#A80036;stroke-width:1.2;" width="12" x="39" y="119.5313"/><rect fill="#FFFFFF" filter="url(#f1reljfdf4z52r)" height="109.2656" style="stroke:#A80036;stroke-width:1.2;" width="12" x="384.6" y="146.3531"/><rect fill="#FFFFFF" filter="url(#f1reljfdf4z52r)" height="36.4219" style="stroke:#A80036;stroke-width:1.2;" width="12" x="589.8" y="182.775"/><line style="stroke:#A80036;stroke-width:1.2;stroke-dasharray:5.0,5.0;" x1="44.4" x2="44.4" y1="107.5313" y2="277.2188"/><line style="stroke:#A80036;stroke-width:1.2;stroke-dasharray:5.0,5.0;" x1="390.6" x2="390.6" y1="107.5313" y2="277.2188"/><line style="stroke:#A80036;stroke-width:1.2;stroke-dasharray:5.0,5.0;" x1="595.2" x2="595.2" y1="107.5313" y2="277.2188"/><text fill="#000000" font-family="sans-serif" font-size="16.8" lengthAdjust="spacing" textLength="70.8" x="6" y="103.8398">Port Staff</text><ellipse cx="45" cy="18" fill="#FEFECE" filter="url(#f1reljfdf4z52r)" rx="9.6" ry="9.6" style="stroke:#A80036;stroke-width:2.4;"/><path d="M45,27.6 L45,60 M29.4,37.2 L60.6,37.2 M45,60 L29.4,78 M45,60 L60.6,78 " fill="none" filter="url(#f1reljfdf4z52r)" style="stroke:#A80036;stroke-width:2.4;"/><text fill="#000000" font-family="sans-serif" font-size="16.8" lengthAdjust="spacing" textLength="70.8" x="6" y="293.4586">Port Staff</text><ellipse cx="45" cy="309.15" fill="#FEFECE" filter="url(#f1reljfdf4z52r)" rx="9.6" ry="9.6" style="stroke:#A80036;stroke-width:2.4;"/><path d="M45,318.75 L45,351.15 M29.4,328.35 L60.6,328.35 M45,351.15 L29.4,369.15 M45,351.15 L60.6,369.15 " fill="none" filter="url(#f1reljfdf4z52r)" style="stroke:#A80036;stroke-width:2.4;"/><rect fill="#FEFECE" filter="url(#f1reljfdf4z52r)" height="37.9313" style="stroke:#A80036;stroke-width:1.7999999999999998;" width="36" x="370.2" y="63.6"/><text fill="#000000" font-family="sans-serif" font-size="16.8" lengthAdjust="spacing" textLength="19.2" x="378.6" y="89.4398">:UI</text><rect fill="#FEFECE" filter="url(#f1reljfdf4z52r)" height="37.9313" style="stroke:#A80036;stroke-width:1.7999999999999998;" width="36" x="370.2" y="276.0188"/><text fill="#000000" font-family="sans-serif" font-size="16.8" lengthAdjust="spacing" textLength="19.2" x="378.6" y="301.8586">:UI</text><rect fill="#FEFECE" filter="url(#f1reljfdf4z52r)" height="37.9313" style="stroke:#A80036;stroke-width:1.7999999999999998;" width="176.4" x="505.2" y="63.6"/><text fill="#000000" font-family="sans-serif" font-size="16.8" lengthAdjust="spacing" textLength="159.6" x="513.6" y="89.4398">:CountOccupiedSlots</text><rect fill="#FEFECE" filter="url(#f1reljfdf4z52r)" height="37.9313" style="stroke:#A80036;stroke-width:1.7999999999999998;" width="176.4" x="505.2" y="276.0188"/><text fill="#000000" font-family="sans-serif" font-size="16.8" lengthAdjust="spacing" textLength="159.6" x="513.6" y="301.8586">:CountOccupiedSlots</text><rect fill="#FFFFFF" filter="url(#f1reljfdf4z52r)" height="146.8875" style="stroke:#A80036;stroke-width:1.2;" width="12" x="39" y="119.5313"/><rect fill="#FFFFFF" filter="url(#f1reljfdf4z52r)" height="109.2656" style="stroke:#A80036;stroke-width:1.2;" width="12" x="384.6" y="146.3531"/><rect fill="#FFFFFF" filter="url(#f1reljfdf4z52r)" height="36.4219" style="stroke:#A80036;stroke-width:1.2;" width="12" x="589.8" y="182.775"/><polygon fill="#A80036" points="370.2,141.5531,382.2,146.3531,370.2,151.1531,375,146.3531" style="stroke:#A80036;stroke-width:1.2;"/><line style="stroke:#A80036;stroke-width:1.2;" x1="51" x2="377.4" y1="146.3531" y2="146.3531"/><text fill="#000000" font-family="sans-serif" font-size="15.6" font-weight="bold" lengthAdjust="spacing" textLength="8.4" x="59.4" y="140.5254">1</text><text fill="#000000" font-family="sans-serif" font-size="15.6" lengthAdjust="spacing" textLength="297.6" x="72.6" y="140.5254">Request the total number of occupied slots</text><polygon fill="#A80036" points="575.4,177.975,587.4,182.775,575.4,187.575,580.2,182.775" style="stroke:#A80036;stroke-width:1.2;"/><line style="stroke:#A80036;stroke-width:1.2;" x1="396.6" x2="582.6" y1="182.775" y2="182.775"/><text fill="#000000" font-family="sans-serif" font-size="15.6" font-weight="bold" lengthAdjust="spacing" textLength="8.4" x="405" y="176.9473">2</text><text fill="#000000" font-family="sans-serif" font-size="15.6" lengthAdjust="spacing" textLength="133.2" x="418.2" y="176.9473">getOccupiedSlots()</text><polygon fill="#A80036" points="409.8,214.3969,397.8,219.1969,409.8,223.9969,405,219.1969" style="stroke:#A80036;stroke-width:1.2;"/><line style="stroke:#A80036;stroke-width:1.2;stroke-dasharray:2.0,2.0;" x1="402.6" x2="594.6" y1="219.1969" y2="219.1969"/><text fill="#000000" font-family="sans-serif" font-size="15.6" font-weight="bold" lengthAdjust="spacing" textLength="8.4" x="417" y="213.3691">3</text><text fill="#000000" font-family="sans-serif" font-size="15.6" lengthAdjust="spacing" textLength="151.2" x="430.2" y="213.3691">Return occupied slots</text><polygon fill="#A80036" points="64.2,250.8188,52.2,255.6187,64.2,260.4188,59.4,255.6187" style="stroke:#A80036;stroke-width:1.2;"/><line style="stroke:#A80036;stroke-width:1.2;stroke-dasharray:2.0,2.0;" x1="57" x2="389.4" y1="255.6187" y2="255.6187"/><text fill="#000000" font-family="sans-serif" font-size="15.6" font-weight="bold" lengthAdjust="spacing" textLength="8.4" x="71.4" y="249.791">4</text><text fill="#000000" font-family="sans-serif" font-size="15.6" lengthAdjust="spacing" textLength="144" x="84.6" y="249.791">Show occupied slots</text><!--MD5=[55aec0ce1413c9a9b8b4e3d14164200f]
@startuml
autonumber
actor "Port Staff" as ADM

participant ":UI" as UI

participant ":CountOccupiedSlots" as COS

activate ADM
ADM -> UI: Request the total number of occupied slots
activate UI
UI -> COS: getOccupiedSlots()
activate COS
COS - -> UI: Return occupied slots
deactivate COS
UI - -> ADM: Show occupied slots
deactivate UI

@enduml

PlantUML version 1.2021.11(Sat Oct 02 14:26:11 BST 2021)
(GPL source distribution)
Java Runtime: OpenJDK Runtime Environment
JVM: OpenJDK 64-Bit Server VM
Default Encoding: Cp1252
Language: pt
Country: PT
--></g></svg>