<?xml version="1.0" encoding="UTF-8" standalone="no"?><svg xmlns="http://www.w3.org/2000/svg" xmlns:xlink="http://www.w3.org/1999/xlink" contentScriptType="application/ecmascript" contentStyleType="text/css" height="476px" preserveAspectRatio="none" style="width:294px;height:476px;background:#FFFFFF;" version="1.1" viewBox="0 0 294 476" width="294px" zoomAndPan="magnify"><defs><filter height="300%" id="f3jzs02smjuea" width="300%" x="-1" y="-1"><feGaussianBlur result="blurOut" stdDeviation="2.0"/><feColorMatrix in="blurOut" result="blurOut2" type="matrix" values="0 0 0 0 0 0 0 0 0 0 0 0 0 0 0 0 0 0 .4 0"/><feOffset dx="4.0" dy="4.0" in="blurOut2" result="blurOut3"/><feBlend in="SourceGraphic" in2="blurOut3" mode="normal"/></filter></defs><g><!--MD5=[df76e760f2062188d44f98c21a88999b]
class UI--><rect codeLine="1" fill="#FEFECE" filter="url(#f3jzs02smjuea)" height="48" id="UI" style="stroke:#A80036;stroke-width:1.5;" width="44" x="121.5" y="7"/><ellipse cx="136.5" cy="23" fill="#ADD1B2" rx="11" ry="11" style="stroke:#A80036;stroke-width:1.0;"/><path d="M138.5,19.5 Q138.7031,19 138.9375,18.75 Q139.1719,18.5 139.4375,18.5 Q139.9063,18.5 140.2031,18.7813 Q140.5,19.0625 140.5,19.7188 L140.5,21.2813 Q140.5,21.9375 140.2188,22.2188 Q139.9375,22.5 139.5,22.5 Q139.1094,22.5 138.8594,22.3281 Q138.6094,22.1563 138.5,21.7031 Q138.4531,21.3906 138.2813,21.2188 Q137.9688,20.8906 137.4063,20.7031 Q136.8438,20.5 136.2813,20.5 Q135.5781,20.5 134.9844,20.7813 Q134.4063,21.0625 133.9531,21.6875 Q133.5,22.3125 133.5,23.1719 L133.5,24.0938 Q133.5,25.125 134.3438,25.8125 Q135.1875,26.5 136.6875,26.5 Q137.5781,26.5 138.2031,26.2969 Q138.5625,26.1875 138.9688,25.8281 Q139.2344,25.625 139.375,25.5625 Q139.5156,25.5 139.6875,25.5 Q140.0156,25.5 140.25,25.7656 Q140.5,26.0156 140.5,26.375 Q140.5,26.7188 140.1563,27.125 Q139.6563,27.7188 138.8594,28.0469 Q137.8125,28.5 136.5313,28.5 Q135.0313,28.5 133.8281,27.9063 Q132.8594,27.4375 132.1719,26.4219 Q131.5,25.4063 131.5,24.2031 L131.5,23.1094 Q131.5,21.8594 132.0938,20.7656 Q132.7031,19.6719 133.75,19.0938 Q134.8125,18.5 136,18.5 Q136.7188,18.5 137.3438,18.75 Q137.9688,19 138.5,19.5 Z " fill="#000000"/><text fill="#000000" font-family="sans-serif" font-size="12" lengthAdjust="spacing" textLength="12" x="150.5" y="27.9102">UI</text><line style="stroke:#A80036;stroke-width:1.5;" x1="122.5" x2="164.5" y1="39" y2="39"/><line style="stroke:#A80036;stroke-width:1.5;" x1="122.5" x2="164.5" y1="47" y2="47"/><!--MD5=[9b4d6350505f0ccf5a42f8153c75860f]
class ShortestPathController--><rect codeLine="4" fill="#FEFECE" filter="url(#f3jzs02smjuea)" height="75.6719" id="ShortestPathController" style="stroke:#A80036;stroke-width:1.5;" width="157" x="65" y="115"/><ellipse cx="80" cy="131" fill="#ADD1B2" rx="11" ry="11" style="stroke:#A80036;stroke-width:1.0;"/><path d="M82,127.5 Q82.2031,127 82.4375,126.75 Q82.6719,126.5 82.9375,126.5 Q83.4063,126.5 83.7031,126.7813 Q84,127.0625 84,127.7188 L84,129.2813 Q84,129.9375 83.7188,130.2188 Q83.4375,130.5 83,130.5 Q82.6094,130.5 82.3594,130.3281 Q82.1094,130.1563 82,129.7031 Q81.9531,129.3906 81.7813,129.2188 Q81.4688,128.8906 80.9063,128.7031 Q80.3438,128.5 79.7813,128.5 Q79.0781,128.5 78.4844,128.7813 Q77.9063,129.0625 77.4531,129.6875 Q77,130.3125 77,131.1719 L77,132.0938 Q77,133.125 77.8438,133.8125 Q78.6875,134.5 80.1875,134.5 Q81.0781,134.5 81.7031,134.2969 Q82.0625,134.1875 82.4688,133.8281 Q82.7344,133.625 82.875,133.5625 Q83.0156,133.5 83.1875,133.5 Q83.5156,133.5 83.75,133.7656 Q84,134.0156 84,134.375 Q84,134.7188 83.6563,135.125 Q83.1563,135.7188 82.3594,136.0469 Q81.3125,136.5 80.0313,136.5 Q78.5313,136.5 77.3281,135.9063 Q76.3594,135.4375 75.6719,134.4219 Q75,133.4063 75,132.2031 L75,131.1094 Q75,129.8594 75.5938,128.7656 Q76.2031,127.6719 77.25,127.0938 Q78.3125,126.5 79.5,126.5 Q80.2188,126.5 80.8438,126.75 Q81.4688,127 82,127.5 Z " fill="#000000"/><text fill="#000000" font-family="sans-serif" font-size="12" lengthAdjust="spacing" textLength="125" x="94" y="135.9102">ShortestPathController</text><line style="stroke:#A80036;stroke-width:1.5;" x1="66" x2="221" y1="147" y2="147"/><line style="stroke:#A80036;stroke-width:1.5;" x1="66" x2="221" y1="155" y2="155"/><ellipse cx="76" cy="166" fill="#84BE84" rx="3" ry="3" style="stroke:#038048;stroke-width:1.0;"/><text fill="#000000" font-family="sans-serif" font-size="11" lengthAdjust="spacing" textLength="99" x="85" y="170.4189">returnShortestPath()</text><ellipse cx="76" cy="179.8359" fill="#84BE84" rx="3" ry="3" style="stroke:#038048;stroke-width:1.0;"/><text fill="#000000" font-family="sans-serif" font-size="11" lengthAdjust="spacing" textLength="88" x="85" y="184.2549">findShortestPath()</text><!--MD5=[02e4b9b7573f1156f41e60aa5b4e25a4]
class Company--><rect codeLine="9" fill="#FEFECE" filter="url(#f3jzs02smjuea)" height="75.6719" id="Company" style="stroke:#A80036;stroke-width:1.5;" width="105" x="38" y="251"/><ellipse cx="62" cy="267" fill="#ADD1B2" rx="11" ry="11" style="stroke:#A80036;stroke-width:1.0;"/><path d="M64,263.5 Q64.2031,263 64.4375,262.75 Q64.6719,262.5 64.9375,262.5 Q65.4063,262.5 65.7031,262.7813 Q66,263.0625 66,263.7188 L66,265.2813 Q66,265.9375 65.7188,266.2188 Q65.4375,266.5 65,266.5 Q64.6094,266.5 64.3594,266.3281 Q64.1094,266.1563 64,265.7031 Q63.9531,265.3906 63.7813,265.2188 Q63.4688,264.8906 62.9063,264.7031 Q62.3438,264.5 61.7813,264.5 Q61.0781,264.5 60.4844,264.7813 Q59.9063,265.0625 59.4531,265.6875 Q59,266.3125 59,267.1719 L59,268.0938 Q59,269.125 59.8438,269.8125 Q60.6875,270.5 62.1875,270.5 Q63.0781,270.5 63.7031,270.2969 Q64.0625,270.1875 64.4688,269.8281 Q64.7344,269.625 64.875,269.5625 Q65.0156,269.5 65.1875,269.5 Q65.5156,269.5 65.75,269.7656 Q66,270.0156 66,270.375 Q66,270.7188 65.6563,271.125 Q65.1563,271.7188 64.3594,272.0469 Q63.3125,272.5 62.0313,272.5 Q60.5313,272.5 59.3281,271.9063 Q58.3594,271.4375 57.6719,270.4219 Q57,269.4063 57,268.2031 L57,267.1094 Q57,265.8594 57.5938,264.7656 Q58.2031,263.6719 59.25,263.0938 Q60.3125,262.5 61.5,262.5 Q62.2188,262.5 62.8438,262.75 Q63.4688,263 64,263.5 Z " fill="#000000"/><text fill="#000000" font-family="sans-serif" font-size="12" lengthAdjust="spacing" textLength="53" x="78" y="271.9102">Company</text><line style="stroke:#A80036;stroke-width:1.5;" x1="39" x2="142" y1="283" y2="283"/><rect fill="none" height="6" style="stroke:#C82930;stroke-width:1.0;" width="6" x="46" y="291"/><text fill="#000000" font-family="sans-serif" font-size="11" lengthAdjust="spacing" textLength="71" x="58" y="298.4189">GraphStore gs</text><line style="stroke:#A80036;stroke-width:1.0;" x1="39" x2="142" y1="304.8359" y2="304.8359"/><ellipse cx="49" cy="315.8359" fill="#84BE84" rx="3" ry="3" style="stroke:#038048;stroke-width:1.0;"/><text fill="#000000" font-family="sans-serif" font-size="11" lengthAdjust="spacing" textLength="79" x="58" y="320.2549">getGraphStore()</text><!--MD5=[65be2154f266a1385fe9dd381331645f]
class GraphStore--><rect codeLine="15" fill="#FEFECE" filter="url(#f3jzs02smjuea)" height="75.6719" id="GraphStore" style="stroke:#A80036;stroke-width:1.5;" width="273" x="7" y="387"/><ellipse cx="107.75" cy="403" fill="#ADD1B2" rx="11" ry="11" style="stroke:#A80036;stroke-width:1.0;"/><path d="M109.75,399.5 Q109.9531,399 110.1875,398.75 Q110.4219,398.5 110.6875,398.5 Q111.1563,398.5 111.4531,398.7813 Q111.75,399.0625 111.75,399.7188 L111.75,401.2813 Q111.75,401.9375 111.4688,402.2188 Q111.1875,402.5 110.75,402.5 Q110.3594,402.5 110.1094,402.3281 Q109.8594,402.1563 109.75,401.7031 Q109.7031,401.3906 109.5313,401.2188 Q109.2188,400.8906 108.6563,400.7031 Q108.0938,400.5 107.5313,400.5 Q106.8281,400.5 106.2344,400.7813 Q105.6563,401.0625 105.2031,401.6875 Q104.75,402.3125 104.75,403.1719 L104.75,404.0938 Q104.75,405.125 105.5938,405.8125 Q106.4375,406.5 107.9375,406.5 Q108.8281,406.5 109.4531,406.2969 Q109.8125,406.1875 110.2188,405.8281 Q110.4844,405.625 110.625,405.5625 Q110.7656,405.5 110.9375,405.5 Q111.2656,405.5 111.5,405.7656 Q111.75,406.0156 111.75,406.375 Q111.75,406.7188 111.4063,407.125 Q110.9063,407.7188 110.1094,408.0469 Q109.0625,408.5 107.7813,408.5 Q106.2813,408.5 105.0781,407.9063 Q104.1094,407.4375 103.4219,406.4219 Q102.75,405.4063 102.75,404.2031 L102.75,403.1094 Q102.75,401.8594 103.3438,400.7656 Q103.9531,399.6719 105,399.0938 Q106.0625,398.5 107.25,398.5 Q107.9688,398.5 108.5938,398.75 Q109.2188,399 109.75,399.5 Z " fill="#000000"/><text fill="#000000" font-family="sans-serif" font-size="12" lengthAdjust="spacing" textLength="63" x="128.25" y="407.9102">GraphStore</text><line style="stroke:#A80036;stroke-width:1.5;" x1="8" x2="279" y1="419" y2="419"/><rect fill="none" height="6" style="stroke:#C82930;stroke-width:1.0;" width="6" x="15" y="427"/><text fill="#000000" font-family="sans-serif" font-size="11" lengthAdjust="spacing" textLength="196" x="27" y="434.4189">MatrixGraph&lt;PortsGraph, Integer&gt; graph</text><line style="stroke:#A80036;stroke-width:1.0;" x1="8" x2="279" y1="440.8359" y2="440.8359"/><ellipse cx="18" cy="451.8359" fill="#84BE84" rx="3" ry="3" style="stroke:#038048;stroke-width:1.0;"/><text fill="#000000" font-family="sans-serif" font-size="11" lengthAdjust="spacing" textLength="247" x="27" y="456.2549">MatrixGraph&lt;PortsGraph, Integer&gt; getGraphStore()</text><!--MD5=[4c39e55af759856a84ce486aa5e9590f]
link UI to ShortestPathController--><path codeLine="22" d="M143.5,55.14 C143.5,70.58 143.5,91.33 143.5,109.67 " fill="none" id="UI-to-ShortestPathController" style="stroke:#A80036;stroke-width:1.0;stroke-dasharray:7.0,7.0;"/><polygon fill="#A80036" points="143.5,114.77,147.5,105.77,143.5,109.77,139.5,105.77,143.5,114.77" style="stroke:#A80036;stroke-width:1.0;"/><!--MD5=[4580d9fe07e36d54de3df101f6c0e966]
link ShortestPathController to Company--><path codeLine="23" d="M128.74,191.33 C122.02,208.31 114.04,228.49 107.11,246.01 " fill="none" id="ShortestPathController-to-Company" style="stroke:#A80036;stroke-width:1.0;stroke-dasharray:7.0,7.0;"/><polygon fill="#A80036" points="105.18,250.87,112.2182,243.9806,107.0246,246.2227,104.7825,241.0292,105.18,250.87" style="stroke:#A80036;stroke-width:1.0;"/><!--MD5=[7f16c109d8e6804f8569d9954fe88580]
link Company to GraphStore--><path codeLine="24" d="M105.26,327.33 C111.98,344.31 119.96,364.49 126.89,382.01 " fill="none" id="Company-to-GraphStore" style="stroke:#A80036;stroke-width:1.0;"/><polygon fill="#A80036" points="128.82,386.87,129.2175,377.0292,126.9754,382.2227,121.7818,379.9806,128.82,386.87" style="stroke:#A80036;stroke-width:1.0;"/><!--MD5=[d23a2bf3c54892bb46158573e9466e1f]
link ShortestPathController to GraphStore--><path codeLine="25" d="M151.56,191.11 C155.07,209.1 158.77,231.07 160.5,251 C163.43,284.65 163.43,293.35 160.5,327 C158.93,345.06 155.74,364.8 152.55,381.73 " fill="none" id="ShortestPathController-to-GraphStore" style="stroke:#A80036;stroke-width:1.0;stroke-dasharray:7.0,7.0;"/><polygon fill="#A80036" points="151.56,386.89,157.1842,378.8049,152.5021,381.9796,149.3275,377.2975,151.56,386.89" style="stroke:#A80036;stroke-width:1.0;"/><!--MD5=[52710756f9fbd2947677c4c524965cef]
@startuml
class UI{
}

class ShortestPathController{
+returnShortestPath()
+findShortestPath()
}

class Company{
-GraphStore gs
- -
+getGraphStore()
}

class GraphStore{
-MatrixGraph<PortsGraph, Integer> graph
- -
+MatrixGraph<PortsGraph, Integer> getGraphStore()
}


UI ..> ShortestPathController
ShortestPathController ..> Company
Company - -> GraphStore
ShortestPathController ..> GraphStore

@enduml

PlantUML version 1.2021.15(Tue Nov 30 16:45:34 GMT 2021)
(GPL source distribution)
Java Runtime: OpenJDK Runtime Environment
JVM: OpenJDK 64-Bit Server VM
Default Encoding: Cp1252
Language: pt
Country: PT
--></g></svg>