<?xml version="1.0" encoding="UTF-8" standalone="no"?><svg xmlns="http://www.w3.org/2000/svg" xmlns:xlink="http://www.w3.org/1999/xlink" contentScriptType="application/ecmascript" contentStyleType="text/css" height="481px" preserveAspectRatio="none" style="width:939px;height:481px;background:#FFFFFF;" version="1.1" viewBox="0 0 939 481" width="939px" zoomAndPan="magnify"><defs><filter height="300%" id="f1imr7n1df0iy6" width="300%" x="-1" y="-1"><feGaussianBlur result="blurOut" stdDeviation="2.0"/><feColorMatrix in="blurOut" result="blurOut2" type="matrix" values="0 0 0 0 0 0 0 0 0 0 0 0 0 0 0 0 0 0 .4 0"/><feOffset dx="4.0" dy="4.0" in="blurOut2" result="blurOut3"/><feBlend in="SourceGraphic" in2="blurOut3" mode="normal"/></filter></defs><g><rect fill="#FFFFFF" filter="url(#f1imr7n1df0iy6)" height="287.1641" style="stroke:#A80036;stroke-width:1.0;" width="10" x="53" y="99.6094"/><rect fill="#FFFFFF" filter="url(#f1imr7n1df0iy6)" height="264.8125" style="stroke:#A80036;stroke-width:1.0;" width="10" x="395" y="121.9609"/><rect fill="#FFFFFF" filter="url(#f1imr7n1df0iy6)" height="195.1094" style="stroke:#A80036;stroke-width:1.0;" width="10" x="636" y="152.3125"/><rect fill="#FFFFFF" filter="url(#f1imr7n1df0iy6)" height="91.0547" style="stroke:#A80036;stroke-width:1.0;" width="10" x="775" y="182.6641"/><rect fill="#FFFFFF" filter="url(#f1imr7n1df0iy6)" height="30.3516" style="stroke:#A80036;stroke-width:1.0;" width="10" x="876" y="213.0156"/><line style="stroke:#A80036;stroke-width:1.0;stroke-dasharray:5.0,5.0;" x1="58" x2="58" y1="89.6094" y2="395.7734"/><line style="stroke:#A80036;stroke-width:1.0;stroke-dasharray:5.0,5.0;" x1="400" x2="400" y1="89.6094" y2="395.7734"/><line style="stroke:#A80036;stroke-width:1.0;stroke-dasharray:5.0,5.0;" x1="641" x2="641" y1="89.6094" y2="395.7734"/><line style="stroke:#A80036;stroke-width:1.0;stroke-dasharray:5.0,5.0;" x1="780" x2="780" y1="89.6094" y2="395.7734"/><line style="stroke:#A80036;stroke-width:1.0;stroke-dasharray:5.0,5.0;" x1="881" x2="881" y1="89.6094" y2="395.7734"/><text fill="#000000" font-family="sans-serif" font-size="14" lengthAdjust="spacing" textLength="100" x="5" y="86.5332">Traffic Manager</text><ellipse cx="58" cy="15" fill="#FEFECE" filter="url(#f1imr7n1df0iy6)" rx="8" ry="8" style="stroke:#A80036;stroke-width:2.0;"/><path d="M58,23 L58,50 M45,31 L71,31 M58,50 L45,65 M58,50 L71,65 " fill="none" filter="url(#f1imr7n1df0iy6)" style="stroke:#A80036;stroke-width:2.0;"/><text fill="#000000" font-family="sans-serif" font-size="14" lengthAdjust="spacing" textLength="100" x="5" y="409.3066">Traffic Manager</text><ellipse cx="58" cy="422.3828" fill="#FEFECE" filter="url(#f1imr7n1df0iy6)" rx="8" ry="8" style="stroke:#A80036;stroke-width:2.0;"/><path d="M58,430.3828 L58,457.3828 M45,438.3828 L71,438.3828 M58,457.3828 L45,472.3828 M58,457.3828 L71,472.3828 " fill="none" filter="url(#f1imr7n1df0iy6)" style="stroke:#A80036;stroke-width:2.0;"/><rect fill="#FEFECE" filter="url(#f1imr7n1df0iy6)" height="31.6094" style="stroke:#A80036;stroke-width:1.5;" width="30" x="383" y="53"/><text fill="#000000" font-family="sans-serif" font-size="14" lengthAdjust="spacing" textLength="16" x="390" y="74.5332">:UI</text><rect fill="#FEFECE" filter="url(#f1imr7n1df0iy6)" height="31.6094" style="stroke:#A80036;stroke-width:1.5;" width="30" x="383" y="394.7734"/><text fill="#000000" font-family="sans-serif" font-size="14" lengthAdjust="spacing" textLength="16" x="390" y="416.3066">:UI</text><rect fill="#FEFECE" filter="url(#f1imr7n1df0iy6)" height="31.6094" style="stroke:#A80036;stroke-width:1.5;" width="162" x="558" y="53"/><text fill="#000000" font-family="sans-serif" font-size="14" lengthAdjust="spacing" textLength="148" x="565" y="74.5332">:ShortestPathController</text><rect fill="#FEFECE" filter="url(#f1imr7n1df0iy6)" height="31.6094" style="stroke:#A80036;stroke-width:1.5;" width="162" x="558" y="394.7734"/><text fill="#000000" font-family="sans-serif" font-size="14" lengthAdjust="spacing" textLength="148" x="565" y="416.3066">:ShortestPathController</text><rect fill="#FEFECE" filter="url(#f1imr7n1df0iy6)" height="31.6094" style="stroke:#A80036;stroke-width:1.5;" width="78" x="739" y="53"/><text fill="#000000" font-family="sans-serif" font-size="14" lengthAdjust="spacing" textLength="64" x="746" y="74.5332">:Company</text><rect fill="#FEFECE" filter="url(#f1imr7n1df0iy6)" height="31.6094" style="stroke:#A80036;stroke-width:1.5;" width="78" x="739" y="394.7734"/><text fill="#000000" font-family="sans-serif" font-size="14" lengthAdjust="spacing" textLength="64" x="746" y="416.3066">:Company</text><rect fill="#FEFECE" filter="url(#f1imr7n1df0iy6)" height="31.6094" style="stroke:#A80036;stroke-width:1.5;" width="92" x="833" y="53"/><text fill="#000000" font-family="sans-serif" font-size="14" lengthAdjust="spacing" textLength="78" x="840" y="74.5332">:GraphStore</text><rect fill="#FEFECE" filter="url(#f1imr7n1df0iy6)" height="31.6094" style="stroke:#A80036;stroke-width:1.5;" width="92" x="833" y="394.7734"/><text fill="#000000" font-family="sans-serif" font-size="14" lengthAdjust="spacing" textLength="78" x="840" y="416.3066">:GraphStore</text><rect fill="#FFFFFF" filter="url(#f1imr7n1df0iy6)" height="287.1641" style="stroke:#A80036;stroke-width:1.0;" width="10" x="53" y="99.6094"/><rect fill="#FFFFFF" filter="url(#f1imr7n1df0iy6)" height="264.8125" style="stroke:#A80036;stroke-width:1.0;" width="10" x="395" y="121.9609"/><rect fill="#FFFFFF" filter="url(#f1imr7n1df0iy6)" height="195.1094" style="stroke:#A80036;stroke-width:1.0;" width="10" x="636" y="152.3125"/><rect fill="#FFFFFF" filter="url(#f1imr7n1df0iy6)" height="91.0547" style="stroke:#A80036;stroke-width:1.0;" width="10" x="775" y="182.6641"/><rect fill="#FFFFFF" filter="url(#f1imr7n1df0iy6)" height="30.3516" style="stroke:#A80036;stroke-width:1.0;" width="10" x="876" y="213.0156"/><polygon fill="#A80036" points="383,117.9609,393,121.9609,383,125.9609,387,121.9609" style="stroke:#A80036;stroke-width:1.0;"/><line style="stroke:#A80036;stroke-width:1.0;" x1="63" x2="389" y1="121.9609" y2="121.9609"/><text fill="#000000" font-family="sans-serif" font-size="13" font-weight="bold" lengthAdjust="spacing" textLength="7" x="70" y="117.1045">1</text><text fill="#000000" font-family="sans-serif" font-size="13" lengthAdjust="spacing" textLength="302" x="81" y="117.1045">I wish to know the shortest path between two locals.</text><polygon fill="#A80036" points="624,148.3125,634,152.3125,624,156.3125,628,152.3125" style="stroke:#A80036;stroke-width:1.0;"/><line style="stroke:#A80036;stroke-width:1.0;" x1="405" x2="630" y1="152.3125" y2="152.3125"/><text fill="#000000" font-family="sans-serif" font-size="13" font-weight="bold" lengthAdjust="spacing" textLength="7" x="412" y="147.4561">2</text><text fill="#000000" font-family="sans-serif" font-size="13" lengthAdjust="spacing" textLength="117" x="423" y="147.4561">returnShortestPath()</text><polygon fill="#A80036" points="763,178.6641,773,182.6641,763,186.6641,767,182.6641" style="stroke:#A80036;stroke-width:1.0;"/><line style="stroke:#A80036;stroke-width:1.0;" x1="646" x2="769" y1="182.6641" y2="182.6641"/><text fill="#000000" font-family="sans-serif" font-size="13" font-weight="bold" lengthAdjust="spacing" textLength="7" x="653" y="177.8076">3</text><text fill="#000000" font-family="sans-serif" font-size="13" lengthAdjust="spacing" textLength="92" x="664" y="177.8076">getGraphStore()</text><polygon fill="#A80036" points="864,209.0156,874,213.0156,864,217.0156,868,213.0156" style="stroke:#A80036;stroke-width:1.0;"/><line style="stroke:#A80036;stroke-width:1.0;" x1="785" x2="870" y1="213.0156" y2="213.0156"/><text fill="#000000" font-family="sans-serif" font-size="13" font-weight="bold" lengthAdjust="spacing" textLength="7" x="792" y="208.1592">4</text><text fill="#000000" font-family="sans-serif" font-size="13" lengthAdjust="spacing" textLength="61" x="803" y="208.1592">getGraph()</text><polygon fill="#A80036" points="796,239.3672,786,243.3672,796,247.3672,792,243.3672" style="stroke:#A80036;stroke-width:1.0;"/><line style="stroke:#A80036;stroke-width:1.0;stroke-dasharray:2.0,2.0;" x1="790" x2="880" y1="243.3672" y2="243.3672"/><text fill="#000000" font-family="sans-serif" font-size="13" font-weight="bold" lengthAdjust="spacing" textLength="7" x="802" y="238.5107">5</text><text fill="#000000" font-family="sans-serif" font-size="13" lengthAdjust="spacing" textLength="35" x="813" y="238.5107">Graph</text><polygon fill="#A80036" points="657,269.7188,647,273.7188,657,277.7188,653,273.7188" style="stroke:#A80036;stroke-width:1.0;"/><line style="stroke:#A80036;stroke-width:1.0;stroke-dasharray:2.0,2.0;" x1="651" x2="779" y1="273.7188" y2="273.7188"/><text fill="#000000" font-family="sans-serif" font-size="13" font-weight="bold" lengthAdjust="spacing" textLength="7" x="663" y="268.8623">6</text><text fill="#000000" font-family="sans-serif" font-size="13" lengthAdjust="spacing" textLength="35" x="674" y="268.8623">Graph</text><line style="stroke:#A80036;stroke-width:1.0;stroke-dasharray:2.0,2.0;" x1="646" x2="688" y1="304.0703" y2="304.0703"/><line style="stroke:#A80036;stroke-width:1.0;stroke-dasharray:2.0,2.0;" x1="688" x2="688" y1="304.0703" y2="317.0703"/><line style="stroke:#A80036;stroke-width:1.0;stroke-dasharray:2.0,2.0;" x1="647" x2="688" y1="317.0703" y2="317.0703"/><polygon fill="#A80036" points="657,313.0703,647,317.0703,657,321.0703,653,317.0703" style="stroke:#A80036;stroke-width:1.0;"/><text fill="#000000" font-family="sans-serif" font-size="13" font-weight="bold" lengthAdjust="spacing" textLength="7" x="653" y="299.2139">7</text><text fill="#000000" font-family="sans-serif" font-size="13" lengthAdjust="spacing" textLength="104" x="664" y="299.2139">findShortestPath()</text><polygon fill="#A80036" points="416,343.4219,406,347.4219,416,351.4219,412,347.4219" style="stroke:#A80036;stroke-width:1.0;"/><line style="stroke:#A80036;stroke-width:1.0;stroke-dasharray:2.0,2.0;" x1="410" x2="640" y1="347.4219" y2="347.4219"/><text fill="#000000" font-family="sans-serif" font-size="13" font-weight="bold" lengthAdjust="spacing" textLength="7" x="422" y="342.5654">8</text><text fill="#000000" font-family="sans-serif" font-size="13" lengthAdjust="spacing" textLength="196" x="433" y="342.5654">Shortest path between two locals.</text><polygon fill="#A80036" points="74,373.7734,64,377.7734,74,381.7734,70,377.7734" style="stroke:#A80036;stroke-width:1.0;"/><line style="stroke:#A80036;stroke-width:1.0;stroke-dasharray:2.0,2.0;" x1="68" x2="394" y1="377.7734" y2="377.7734"/><text fill="#000000" font-family="sans-serif" font-size="13" font-weight="bold" lengthAdjust="spacing" textLength="7" x="80" y="372.917">9</text><text fill="#000000" font-family="sans-serif" font-size="13" lengthAdjust="spacing" textLength="196" x="91" y="372.917">Shortest path between two locals.</text><!--MD5=[3d24b702c72d3acb80cc010faf7e2669]
@startuml
autonumber
actor "Traffic Manager" as TM

participant ":UI" as ui
participant ":ShortestPathController" as spc
participant ":Company" as comp
participant ":GraphStore" as gs

activate TM
TM -> ui : I wish to know the shortest path between two locals.
activate ui
ui -> spc : returnShortestPath()
activate spc
spc -> comp : getGraphStore()
activate comp
comp -> gs : getGraph()
activate gs
gs - -> comp : Graph
deactivate gs
comp - -> spc : Graph
deactivate comp
spc - -> spc: findShortestPath()
spc - -> ui : Shortest path between two locals.
deactivate spc
ui - -> TM : Shortest path between two locals.

@enduml

PlantUML version 1.2021.15(Tue Nov 30 16:45:34 GMT 2021)
(GPL source distribution)
Java Runtime: OpenJDK Runtime Environment
JVM: OpenJDK 64-Bit Server VM
Default Encoding: Cp1252
Language: pt
Country: PT
--></g></svg>