<?xml version="1.0" encoding="UTF-8" standalone="no"?><svg xmlns="http://www.w3.org/2000/svg" xmlns:xlink="http://www.w3.org/1999/xlink" contentScriptType="application/ecmascript" contentStyleType="text/css" height="190px" preserveAspectRatio="none" style="width:98px;height:190px;background:#FFFFFF;" version="1.1" viewBox="0 0 98 190" width="98px" zoomAndPan="magnify"><defs><filter height="300%" id="fs5eld1bhw52q" width="300%" x="-1" y="-1"><feGaussianBlur result="blurOut" stdDeviation="2.0"/><feColorMatrix in="blurOut" result="blurOut2" type="matrix" values="0 0 0 0 0 0 0 0 0 0 0 0 0 0 0 0 0 0 .4 0"/><feOffset dx="4.0" dy="4.0" in="blurOut2" result="blurOut3"/><feBlend in="SourceGraphic" in2="blurOut3" mode="normal"/></filter></defs><g><!--MD5=[df76e760f2062188d44f98c21a88999b]
class UI--><rect codeLine="1" fill="#FEFECE" filter="url(#fs5eld1bhw52q)" height="48" id="UI" style="stroke:#A80036;stroke-width:1.5;" width="44" x="23.5" y="7"/><ellipse cx="38.5" cy="23" fill="#ADD1B2" rx="11" ry="11" style="stroke:#A80036;stroke-width:1.0;"/><path d="M40.5,19.5 Q40.7031,19 40.9375,18.75 Q41.1719,18.5 41.4375,18.5 Q41.9063,18.5 42.2031,18.7813 Q42.5,19.0625 42.5,19.7188 L42.5,21.2813 Q42.5,21.9375 42.2188,22.2188 Q41.9375,22.5 41.5,22.5 Q41.1094,22.5 40.8594,22.3281 Q40.6094,22.1563 40.5,21.7031 Q40.4531,21.3906 40.2813,21.2188 Q39.9688,20.8906 39.4063,20.7031 Q38.8438,20.5 38.2813,20.5 Q37.5781,20.5 36.9844,20.7813 Q36.4063,21.0625 35.9531,21.6875 Q35.5,22.3125 35.5,23.1719 L35.5,24.0938 Q35.5,25.125 36.3438,25.8125 Q37.1875,26.5 38.6875,26.5 Q39.5781,26.5 40.2031,26.2969 Q40.5625,26.1875 40.9688,25.8281 Q41.2344,25.625 41.375,25.5625 Q41.5156,25.5 41.6875,25.5 Q42.0156,25.5 42.25,25.7656 Q42.5,26.0156 42.5,26.375 Q42.5,26.7188 42.1563,27.125 Q41.6563,27.7188 40.8594,28.0469 Q39.8125,28.5 38.5313,28.5 Q37.0313,28.5 35.8281,27.9063 Q34.8594,27.4375 34.1719,26.4219 Q33.5,25.4063 33.5,24.2031 L33.5,23.1094 Q33.5,21.8594 34.0938,20.7656 Q34.7031,19.6719 35.75,19.0938 Q36.8125,18.5 38,18.5 Q38.7188,18.5 39.3438,18.75 Q39.9688,19 40.5,19.5 Z " fill="#000000"/><text fill="#000000" font-family="sans-serif" font-size="12" lengthAdjust="spacing" textLength="12" x="52.5" y="27.9102">UI</text><line style="stroke:#A80036;stroke-width:1.5;" x1="24.5" x2="66.5" y1="39" y2="39"/><line style="stroke:#A80036;stroke-width:1.5;" x1="24.5" x2="66.5" y1="47" y2="47"/><!--MD5=[0a8ce998ca43e5f39ec834e4687b6bcb]
class readInfo--><rect codeLine="4" fill="#FEFECE" filter="url(#fs5eld1bhw52q)" height="61.8359" id="readInfo" style="stroke:#A80036;stroke-width:1.5;" width="77" x="7" y="115"/><ellipse cx="22" cy="131" fill="#ADD1B2" rx="11" ry="11" style="stroke:#A80036;stroke-width:1.0;"/><path d="M24,127.5 Q24.2031,127 24.4375,126.75 Q24.6719,126.5 24.9375,126.5 Q25.4063,126.5 25.7031,126.7813 Q26,127.0625 26,127.7188 L26,129.2813 Q26,129.9375 25.7188,130.2188 Q25.4375,130.5 25,130.5 Q24.6094,130.5 24.3594,130.3281 Q24.1094,130.1563 24,129.7031 Q23.9531,129.3906 23.7813,129.2188 Q23.4688,128.8906 22.9063,128.7031 Q22.3438,128.5 21.7813,128.5 Q21.0781,128.5 20.4844,128.7813 Q19.9063,129.0625 19.4531,129.6875 Q19,130.3125 19,131.1719 L19,132.0938 Q19,133.125 19.8438,133.8125 Q20.6875,134.5 22.1875,134.5 Q23.0781,134.5 23.7031,134.2969 Q24.0625,134.1875 24.4688,133.8281 Q24.7344,133.625 24.875,133.5625 Q25.0156,133.5 25.1875,133.5 Q25.5156,133.5 25.75,133.7656 Q26,134.0156 26,134.375 Q26,134.7188 25.6563,135.125 Q25.1563,135.7188 24.3594,136.0469 Q23.3125,136.5 22.0313,136.5 Q20.5313,136.5 19.3281,135.9063 Q18.3594,135.4375 17.6719,134.4219 Q17,133.4063 17,132.2031 L17,131.1094 Q17,129.8594 17.5938,128.7656 Q18.2031,127.6719 19.25,127.0938 Q20.3125,126.5 21.5,126.5 Q22.2188,126.5 22.8438,126.75 Q23.4688,127 24,127.5 Z " fill="#000000"/><text fill="#000000" font-family="sans-serif" font-size="12" lengthAdjust="spacing" textLength="45" x="36" y="135.9102">readInfo</text><line style="stroke:#A80036;stroke-width:1.5;" x1="8" x2="83" y1="147" y2="147"/><line style="stroke:#A80036;stroke-width:1.5;" x1="8" x2="83" y1="155" y2="155"/><ellipse cx="18" cy="166" fill="#84BE84" rx="3" ry="3" style="stroke:#038048;stroke-width:1.0;"/><text fill="#000000" font-family="sans-serif" font-size="11" lengthAdjust="spacing" textLength="46" x="27" y="170.4189">fillArray()</text><!--MD5=[856eabfba5449e479413ea68f0fc9bc2]
link UI to readInfo--><path codeLine="9" d="M45.5,55.14 C45.5,70.71 45.5,91.53 45.5,109.22 " fill="none" id="UI-to-readInfo" style="stroke:#A80036;stroke-width:1.0;stroke-dasharray:7.0,7.0;"/><polygon fill="#A80036" points="45.5,114.6,49.5,105.6,45.5,109.6,41.5,105.6,45.5,114.6" style="stroke:#A80036;stroke-width:1.0;"/><!--MD5=[911c657ef1e308748c7f90cbf6a4116c]
@startuml
class UI{
}

class readInfo{
    +fillArray()
}


UI ..> readInfo

@enduml

PlantUML version 1.2021.15(Tue Nov 30 16:45:34 GMT 2021)
(GPL source distribution)
Java Runtime: OpenJDK Runtime Environment
JVM: OpenJDK 64-Bit Server VM
Default Encoding: Cp1252
Language: pt
Country: PT
--></g></svg>