<?xml version="1.0" encoding="UTF-8" standalone="no"?><svg xmlns="http://www.w3.org/2000/svg" xmlns:xlink="http://www.w3.org/1999/xlink" contentScriptType="application/ecmascript" contentStyleType="text/css" height="462px" preserveAspectRatio="none" style="width:772px;height:462px;background:#FFFFFF;" version="1.1" viewBox="0 0 772 462" width="772px" zoomAndPan="magnify"><defs><filter height="300%" id="f1ptsn6puie8ky" width="300%" x="-1" y="-1"><feGaussianBlur result="blurOut" stdDeviation="2.0"/><feColorMatrix in="blurOut" result="blurOut2" type="matrix" values="0 0 0 0 0 0 0 0 0 0 0 0 0 0 0 0 0 0 .4 0"/><feOffset dx="4.0" dy="4.0" in="blurOut2" result="blurOut3"/><feBlend in="SourceGraphic" in2="blurOut3" mode="normal"/></filter></defs><g><!--MD5=[3d57a5727168e0e2a852a5c6ae235d81]
class PortShipUI--><rect codeLine="1" fill="#FEFECE" filter="url(#f1ptsn6puie8ky)" height="48" id="PortShipUI" style="stroke:#A80036;stroke-width:1.5;" width="91" x="98" y="7"/><ellipse cx="113" cy="23" fill="#ADD1B2" rx="11" ry="11" style="stroke:#A80036;stroke-width:1.0;"/><path d="M115,19.5 Q115.2031,19 115.4375,18.75 Q115.6719,18.5 115.9375,18.5 Q116.4063,18.5 116.7031,18.7813 Q117,19.0625 117,19.7188 L117,21.2813 Q117,21.9375 116.7188,22.2188 Q116.4375,22.5 116,22.5 Q115.6094,22.5 115.3594,22.3281 Q115.1094,22.1563 115,21.7031 Q114.9531,21.3906 114.7813,21.2188 Q114.4688,20.8906 113.9063,20.7031 Q113.3438,20.5 112.7813,20.5 Q112.0781,20.5 111.4844,20.7813 Q110.9063,21.0625 110.4531,21.6875 Q110,22.3125 110,23.1719 L110,24.0938 Q110,25.125 110.8438,25.8125 Q111.6875,26.5 113.1875,26.5 Q114.0781,26.5 114.7031,26.2969 Q115.0625,26.1875 115.4688,25.8281 Q115.7344,25.625 115.875,25.5625 Q116.0156,25.5 116.1875,25.5 Q116.5156,25.5 116.75,25.7656 Q117,26.0156 117,26.375 Q117,26.7188 116.6563,27.125 Q116.1563,27.7188 115.3594,28.0469 Q114.3125,28.5 113.0313,28.5 Q111.5313,28.5 110.3281,27.9063 Q109.3594,27.4375 108.6719,26.4219 Q108,25.4063 108,24.2031 L108,23.1094 Q108,21.8594 108.5938,20.7656 Q109.2031,19.6719 110.25,19.0938 Q111.3125,18.5 112.5,18.5 Q113.2188,18.5 113.8438,18.75 Q114.4688,19 115,19.5 Z " fill="#000000"/><text fill="#000000" font-family="sans-serif" font-size="12" lengthAdjust="spacing" textLength="59" x="127" y="27.9102">PortShipUI</text><line style="stroke:#A80036;stroke-width:1.5;" x1="99" x2="188" y1="39" y2="39"/><line style="stroke:#A80036;stroke-width:1.5;" x1="99" x2="188" y1="47" y2="47"/><!--MD5=[3ae1a431627663bcda35c72bda918471]
class ClosestLocalController--><rect codeLine="4" fill="#FEFECE" filter="url(#f1ptsn6puie8ky)" height="61.8359" id="ClosestLocalController" style="stroke:#A80036;stroke-width:1.5;" width="159" x="64" y="115"/><ellipse cx="79" cy="131" fill="#ADD1B2" rx="11" ry="11" style="stroke:#A80036;stroke-width:1.0;"/><path d="M81,127.5 Q81.2031,127 81.4375,126.75 Q81.6719,126.5 81.9375,126.5 Q82.4063,126.5 82.7031,126.7813 Q83,127.0625 83,127.7188 L83,129.2813 Q83,129.9375 82.7188,130.2188 Q82.4375,130.5 82,130.5 Q81.6094,130.5 81.3594,130.3281 Q81.1094,130.1563 81,129.7031 Q80.9531,129.3906 80.7813,129.2188 Q80.4688,128.8906 79.9063,128.7031 Q79.3438,128.5 78.7813,128.5 Q78.0781,128.5 77.4844,128.7813 Q76.9063,129.0625 76.4531,129.6875 Q76,130.3125 76,131.1719 L76,132.0938 Q76,133.125 76.8438,133.8125 Q77.6875,134.5 79.1875,134.5 Q80.0781,134.5 80.7031,134.2969 Q81.0625,134.1875 81.4688,133.8281 Q81.7344,133.625 81.875,133.5625 Q82.0156,133.5 82.1875,133.5 Q82.5156,133.5 82.75,133.7656 Q83,134.0156 83,134.375 Q83,134.7188 82.6563,135.125 Q82.1563,135.7188 81.3594,136.0469 Q80.3125,136.5 79.0313,136.5 Q77.5313,136.5 76.3281,135.9063 Q75.3594,135.4375 74.6719,134.4219 Q74,133.4063 74,132.2031 L74,131.1094 Q74,129.8594 74.5938,128.7656 Q75.2031,127.6719 76.25,127.0938 Q77.3125,126.5 78.5,126.5 Q79.2188,126.5 79.8438,126.75 Q80.4688,127 81,127.5 Z " fill="#000000"/><text fill="#000000" font-family="sans-serif" font-size="12" lengthAdjust="spacing" textLength="127" x="93" y="135.9102">ClosestLocalController</text><line style="stroke:#A80036;stroke-width:1.5;" x1="65" x2="222" y1="147" y2="147"/><line style="stroke:#A80036;stroke-width:1.5;" x1="65" x2="222" y1="155" y2="155"/><ellipse cx="75" cy="166" fill="#84BE84" rx="3" ry="3" style="stroke:#038048;stroke-width:1.0;"/><text fill="#000000" font-family="sans-serif" font-size="11" lengthAdjust="spacing" textLength="73" x="84" y="170.4189">returnClosest()</text><!--MD5=[02e4b9b7573f1156f41e60aa5b4e25a4]
class Company--><rect codeLine="8" fill="#FEFECE" filter="url(#f1ptsn6puie8ky)" height="75.6719" id="Company" style="stroke:#A80036;stroke-width:1.5;" width="105" x="144" y="237"/><ellipse cx="168" cy="253" fill="#ADD1B2" rx="11" ry="11" style="stroke:#A80036;stroke-width:1.0;"/><path d="M170,249.5 Q170.2031,249 170.4375,248.75 Q170.6719,248.5 170.9375,248.5 Q171.4063,248.5 171.7031,248.7813 Q172,249.0625 172,249.7188 L172,251.2813 Q172,251.9375 171.7188,252.2188 Q171.4375,252.5 171,252.5 Q170.6094,252.5 170.3594,252.3281 Q170.1094,252.1563 170,251.7031 Q169.9531,251.3906 169.7813,251.2188 Q169.4688,250.8906 168.9063,250.7031 Q168.3438,250.5 167.7813,250.5 Q167.0781,250.5 166.4844,250.7813 Q165.9063,251.0625 165.4531,251.6875 Q165,252.3125 165,253.1719 L165,254.0938 Q165,255.125 165.8438,255.8125 Q166.6875,256.5 168.1875,256.5 Q169.0781,256.5 169.7031,256.2969 Q170.0625,256.1875 170.4688,255.8281 Q170.7344,255.625 170.875,255.5625 Q171.0156,255.5 171.1875,255.5 Q171.5156,255.5 171.75,255.7656 Q172,256.0156 172,256.375 Q172,256.7188 171.6563,257.125 Q171.1563,257.7188 170.3594,258.0469 Q169.3125,258.5 168.0313,258.5 Q166.5313,258.5 165.3281,257.9063 Q164.3594,257.4375 163.6719,256.4219 Q163,255.4063 163,254.2031 L163,253.1094 Q163,251.8594 163.5938,250.7656 Q164.2031,249.6719 165.25,249.0938 Q166.3125,248.5 167.5,248.5 Q168.2188,248.5 168.8438,248.75 Q169.4688,249 170,249.5 Z " fill="#000000"/><text fill="#000000" font-family="sans-serif" font-size="12" lengthAdjust="spacing" textLength="53" x="184" y="257.9102">Company</text><line style="stroke:#A80036;stroke-width:1.5;" x1="145" x2="248" y1="269" y2="269"/><rect fill="none" height="6" style="stroke:#C82930;stroke-width:1.0;" width="6" x="152" y="277"/><text fill="#000000" font-family="sans-serif" font-size="11" lengthAdjust="spacing" textLength="71" x="164" y="284.4189">GraphStore gs</text><line style="stroke:#A80036;stroke-width:1.0;" x1="145" x2="248" y1="290.8359" y2="290.8359"/><ellipse cx="155" cy="301.8359" fill="#84BE84" rx="3" ry="3" style="stroke:#038048;stroke-width:1.0;"/><text fill="#000000" font-family="sans-serif" font-size="11" lengthAdjust="spacing" textLength="79" x="164" y="306.2549">getGraphStore()</text><!--MD5=[65be2154f266a1385fe9dd381331645f]
class GraphStore--><rect codeLine="14" fill="#FEFECE" filter="url(#f1ptsn6puie8ky)" height="75.6719" id="GraphStore" style="stroke:#A80036;stroke-width:1.5;" width="273" x="7" y="373"/><ellipse cx="107.75" cy="389" fill="#ADD1B2" rx="11" ry="11" style="stroke:#A80036;stroke-width:1.0;"/><path d="M109.75,385.5 Q109.9531,385 110.1875,384.75 Q110.4219,384.5 110.6875,384.5 Q111.1563,384.5 111.4531,384.7813 Q111.75,385.0625 111.75,385.7188 L111.75,387.2813 Q111.75,387.9375 111.4688,388.2188 Q111.1875,388.5 110.75,388.5 Q110.3594,388.5 110.1094,388.3281 Q109.8594,388.1563 109.75,387.7031 Q109.7031,387.3906 109.5313,387.2188 Q109.2188,386.8906 108.6563,386.7031 Q108.0938,386.5 107.5313,386.5 Q106.8281,386.5 106.2344,386.7813 Q105.6563,387.0625 105.2031,387.6875 Q104.75,388.3125 104.75,389.1719 L104.75,390.0938 Q104.75,391.125 105.5938,391.8125 Q106.4375,392.5 107.9375,392.5 Q108.8281,392.5 109.4531,392.2969 Q109.8125,392.1875 110.2188,391.8281 Q110.4844,391.625 110.625,391.5625 Q110.7656,391.5 110.9375,391.5 Q111.2656,391.5 111.5,391.7656 Q111.75,392.0156 111.75,392.375 Q111.75,392.7188 111.4063,393.125 Q110.9063,393.7188 110.1094,394.0469 Q109.0625,394.5 107.7813,394.5 Q106.2813,394.5 105.0781,393.9063 Q104.1094,393.4375 103.4219,392.4219 Q102.75,391.4063 102.75,390.2031 L102.75,389.1094 Q102.75,387.8594 103.3438,386.7656 Q103.9531,385.6719 105,385.0938 Q106.0625,384.5 107.25,384.5 Q107.9688,384.5 108.5938,384.75 Q109.2188,385 109.75,385.5 Z " fill="#000000"/><text fill="#000000" font-family="sans-serif" font-size="12" lengthAdjust="spacing" textLength="63" x="128.25" y="393.9102">GraphStore</text><line style="stroke:#A80036;stroke-width:1.5;" x1="8" x2="279" y1="405" y2="405"/><rect fill="none" height="6" style="stroke:#C82930;stroke-width:1.0;" width="6" x="15" y="413"/><text fill="#000000" font-family="sans-serif" font-size="11" lengthAdjust="spacing" textLength="196" x="27" y="420.4189">MatrixGraph&lt;PortsGraph, Integer&gt; graph</text><line style="stroke:#A80036;stroke-width:1.0;" x1="8" x2="279" y1="426.8359" y2="426.8359"/><ellipse cx="18" cy="437.8359" fill="#84BE84" rx="3" ry="3" style="stroke:#038048;stroke-width:1.0;"/><text fill="#000000" font-family="sans-serif" font-size="11" lengthAdjust="spacing" textLength="247" x="27" y="442.2549">MatrixGraph&lt;PortsGraph, Integer&gt; getGraphStore()</text><!--MD5=[af232aa5d2f6cfab16003c753e17a147]
class ClosestLocal--><rect codeLine="20" fill="#FEFECE" filter="url(#f1ptsn6puie8ky)" height="75.6719" id="ClosestLocal" style="stroke:#A80036;stroke-width:1.5;" width="443" x="315" y="373"/><ellipse cx="495.75" cy="389" fill="#ADD1B2" rx="11" ry="11" style="stroke:#A80036;stroke-width:1.0;"/><path d="M497.75,385.5 Q497.9531,385 498.1875,384.75 Q498.4219,384.5 498.6875,384.5 Q499.1563,384.5 499.4531,384.7813 Q499.75,385.0625 499.75,385.7188 L499.75,387.2813 Q499.75,387.9375 499.4688,388.2188 Q499.1875,388.5 498.75,388.5 Q498.3594,388.5 498.1094,388.3281 Q497.8594,388.1563 497.75,387.7031 Q497.7031,387.3906 497.5313,387.2188 Q497.2188,386.8906 496.6563,386.7031 Q496.0938,386.5 495.5313,386.5 Q494.8281,386.5 494.2344,386.7813 Q493.6563,387.0625 493.2031,387.6875 Q492.75,388.3125 492.75,389.1719 L492.75,390.0938 Q492.75,391.125 493.5938,391.8125 Q494.4375,392.5 495.9375,392.5 Q496.8281,392.5 497.4531,392.2969 Q497.8125,392.1875 498.2188,391.8281 Q498.4844,391.625 498.625,391.5625 Q498.7656,391.5 498.9375,391.5 Q499.2656,391.5 499.5,391.7656 Q499.75,392.0156 499.75,392.375 Q499.75,392.7188 499.4063,393.125 Q498.9063,393.7188 498.1094,394.0469 Q497.0625,394.5 495.7813,394.5 Q494.2813,394.5 493.0781,393.9063 Q492.1094,393.4375 491.4219,392.4219 Q490.75,391.4063 490.75,390.2031 L490.75,389.1094 Q490.75,387.8594 491.3438,386.7656 Q491.9531,385.6719 493,385.0938 Q494.0625,384.5 495.25,384.5 Q495.9688,384.5 496.5938,384.75 Q497.2188,385 497.75,385.5 Z " fill="#000000"/><text fill="#000000" font-family="sans-serif" font-size="12" lengthAdjust="spacing" textLength="73" x="516.25" y="393.9102">ClosestLocal</text><line style="stroke:#A80036;stroke-width:1.5;" x1="316" x2="757" y1="405" y2="405"/><line style="stroke:#A80036;stroke-width:1.0;" x1="316" x2="757" y1="413" y2="413"/><ellipse cx="326" cy="424" fill="#84BE84" rx="3" ry="3" style="stroke:#038048;stroke-width:1.0;"/><text fill="#000000" font-family="sans-serif" font-size="11" lengthAdjust="spacing" textLength="417" x="335" y="428.4189">Map&lt;PortsGraph, Set&lt;PortsGraph&gt;&gt; returnClosest(MatrixGraph&lt;PortsGraph, Integer&gt;)</text><text fill="#000000" font-family="sans-serif" font-size="11" lengthAdjust="spacing" textLength="0" x="338" y="442.2549"/><!--MD5=[9621acd2f230aa0833910a98b29f5294]
link PortShipUI to ClosestLocalController--><path codeLine="27" d="M143.5,55.14 C143.5,70.71 143.5,91.53 143.5,109.22 " fill="none" id="PortShipUI-to-ClosestLocalController" style="stroke:#A80036;stroke-width:1.0;stroke-dasharray:7.0,7.0;"/><polygon fill="#A80036" points="143.5,114.6,147.5,105.6,143.5,109.6,139.5,105.6,143.5,114.6" style="stroke:#A80036;stroke-width:1.0;"/><!--MD5=[ee02a0e4693445f0cbb383166c02ae71]
link ClosestLocalController to Company--><path codeLine="28" d="M156.06,177.1 C162.89,193.46 171.44,213.95 178.92,231.87 " fill="none" id="ClosestLocalController-to-Company" style="stroke:#A80036;stroke-width:1.0;stroke-dasharray:7.0,7.0;"/><polygon fill="#A80036" points="181,236.86,181.22,227.0136,179.0719,232.2467,173.8387,230.0986,181,236.86" style="stroke:#A80036;stroke-width:1.0;"/><!--MD5=[7f16c109d8e6804f8569d9954fe88580]
link Company to GraphStore--><path codeLine="29" d="M181.74,313.33 C175.02,330.31 167.04,350.49 160.11,368.01 " fill="none" id="Company-to-GraphStore" style="stroke:#A80036;stroke-width:1.0;"/><polygon fill="#A80036" points="158.18,372.87,165.2182,365.9806,160.0246,368.2227,157.7825,363.0292,158.18,372.87" style="stroke:#A80036;stroke-width:1.0;"/><!--MD5=[3e77fd44652414e02f81c413048359aa]
link ClosestLocalController to GraphStore--><path codeLine="30" d="M136.33,177.21 C132.58,194.59 128.38,216.89 126.5,237 C123.35,270.63 123.57,279.35 126.5,313 C128.07,331.06 131.26,350.8 134.45,367.73 " fill="none" id="ClosestLocalController-to-GraphStore" style="stroke:#A80036;stroke-width:1.0;stroke-dasharray:7.0,7.0;"/><polygon fill="#A80036" points="135.44,372.89,137.6725,363.2975,134.4979,367.9796,129.8158,364.8049,135.44,372.89" style="stroke:#A80036;stroke-width:1.0;"/><!--MD5=[070c627c13572eb00af97c933ecf2dd6]
link GraphStore to ClosestLocal--><path codeLine="31" d="M280.13,411 C290.01,411 299.89,411 309.76,411 " fill="none" id="GraphStore-to-ClosestLocal" style="stroke:#A80036;stroke-width:1.0;"/><polygon fill="#A80036" points="314.93,411,305.93,407,309.93,411,305.93,415,314.93,411" style="stroke:#A80036;stroke-width:1.0;"/><!--MD5=[4373359af7dd8de67de782b662b5e65e]
@startuml
class PortShipUI{
}

class ClosestLocalController{
+returnClosest()
}

class Company{
-GraphStore gs
- -
+getGraphStore()
}

class GraphStore{
-MatrixGraph<PortsGraph, Integer> graph
- -
+MatrixGraph<PortsGraph, Integer> getGraphStore()
}

class ClosestLocal{
- -
+ Map<PortsGraph, Set<PortsGraph>> returnClosest(MatrixGraph<PortsGraph, Integer>)

}


PortShipUI ..> ClosestLocalController
ClosestLocalController ..> Company
Company - -> GraphStore
ClosestLocalController ..> GraphStore
GraphStore -> ClosestLocal

@enduml

PlantUML version 1.2021.11(Sat Oct 02 14:26:11 BST 2021)
(GPL source distribution)
Java Runtime: OpenJDK Runtime Environment
JVM: OpenJDK 64-Bit Server VM
Default Encoding: Cp1252
Language: pt
Country: PT
--></g></svg>