<?xml version="1.0" encoding="UTF-8" standalone="no"?><svg xmlns="http://www.w3.org/2000/svg" xmlns:xlink="http://www.w3.org/1999/xlink" contentScriptType="application/ecmascript" contentStyleType="text/css" height="407px" preserveAspectRatio="none" style="width:951px;height:407px;background:#FFFFFF;" version="1.1" viewBox="0 0 951 407" width="951px" zoomAndPan="magnify"><defs><filter height="300%" id="fl6c46ypxfaxr" width="300%" x="-1" y="-1"><feGaussianBlur result="blurOut" stdDeviation="2.0"/><feColorMatrix in="blurOut" result="blurOut2" type="matrix" values="0 0 0 0 0 0 0 0 0 0 0 0 0 0 0 0 0 0 .4 0"/><feOffset dx="4.0" dy="4.0" in="blurOut2" result="blurOut3"/><feBlend in="SourceGraphic" in2="blurOut3" mode="normal"/></filter></defs><g><rect fill="#FFFFFF" filter="url(#fl6c46ypxfaxr)" height="213.4609" style="stroke:#A80036;stroke-width:1.0;" width="10" x="53" y="99.6094"/><rect fill="#FFFFFF" filter="url(#fl6c46ypxfaxr)" height="191.1094" style="stroke:#A80036;stroke-width:1.0;" width="10" x="517" y="121.9609"/><rect fill="#FFFFFF" filter="url(#fl6c46ypxfaxr)" height="160.7578" style="stroke:#A80036;stroke-width:1.0;" width="10" x="653.5" y="152.3125"/><rect fill="#FFFFFF" filter="url(#fl6c46ypxfaxr)" height="130.4063" style="stroke:#A80036;stroke-width:1.0;" width="10" x="787" y="182.6641"/><rect fill="#FFFFFF" filter="url(#fl6c46ypxfaxr)" height="100.0547" style="stroke:#A80036;stroke-width:1.0;" width="10" x="888" y="213.0156"/><line style="stroke:#A80036;stroke-width:1.0;stroke-dasharray:5.0,5.0;" x1="58" x2="58" y1="89.6094" y2="322.0703"/><line style="stroke:#A80036;stroke-width:1.0;stroke-dasharray:5.0,5.0;" x1="522" x2="522" y1="89.6094" y2="322.0703"/><line style="stroke:#A80036;stroke-width:1.0;stroke-dasharray:5.0,5.0;" x1="658" x2="658" y1="89.6094" y2="322.0703"/><line style="stroke:#A80036;stroke-width:1.0;stroke-dasharray:5.0,5.0;" x1="792" x2="792" y1="89.6094" y2="322.0703"/><line style="stroke:#A80036;stroke-width:1.0;stroke-dasharray:5.0,5.0;" x1="893" x2="893" y1="89.6094" y2="322.0703"/><text fill="#000000" font-family="sans-serif" font-size="14" lengthAdjust="spacing" textLength="100" x="5" y="86.5332">Traffic Manager</text><ellipse cx="58" cy="15" fill="#FEFECE" filter="url(#fl6c46ypxfaxr)" rx="8" ry="8" style="stroke:#A80036;stroke-width:2.0;"/><path d="M58,23 L58,50 M45,31 L71,31 M58,50 L45,65 M58,50 L71,65 " fill="none" filter="url(#fl6c46ypxfaxr)" style="stroke:#A80036;stroke-width:2.0;"/><text fill="#000000" font-family="sans-serif" font-size="14" lengthAdjust="spacing" textLength="100" x="5" y="335.6035">Traffic Manager</text><ellipse cx="58" cy="348.6797" fill="#FEFECE" filter="url(#fl6c46ypxfaxr)" rx="8" ry="8" style="stroke:#A80036;stroke-width:2.0;"/><path d="M58,356.6797 L58,383.6797 M45,364.6797 L71,364.6797 M58,383.6797 L45,398.6797 M58,383.6797 L71,398.6797 " fill="none" filter="url(#fl6c46ypxfaxr)" style="stroke:#A80036;stroke-width:2.0;"/><rect fill="#FEFECE" filter="url(#fl6c46ypxfaxr)" height="31.6094" style="stroke:#A80036;stroke-width:1.5;" width="84" x="478" y="53"/><text fill="#000000" font-family="sans-serif" font-size="14" lengthAdjust="spacing" textLength="70" x="485" y="74.5332">:PortShipUI</text><rect fill="#FEFECE" filter="url(#fl6c46ypxfaxr)" height="31.6094" style="stroke:#A80036;stroke-width:1.5;" width="84" x="478" y="321.0703"/><text fill="#000000" font-family="sans-serif" font-size="14" lengthAdjust="spacing" textLength="70" x="485" y="342.6035">:PortShipUI</text><rect fill="#FEFECE" filter="url(#fl6c46ypxfaxr)" height="31.6094" style="stroke:#A80036;stroke-width:1.5;" width="161" x="576" y="53"/><text fill="#000000" font-family="sans-serif" font-size="14" lengthAdjust="spacing" textLength="147" x="583" y="74.5332">:ClosestLocalController</text><rect fill="#FEFECE" filter="url(#fl6c46ypxfaxr)" height="31.6094" style="stroke:#A80036;stroke-width:1.5;" width="161" x="576" y="321.0703"/><text fill="#000000" font-family="sans-serif" font-size="14" lengthAdjust="spacing" textLength="147" x="583" y="342.6035">:ClosestLocalController</text><rect fill="#FEFECE" filter="url(#fl6c46ypxfaxr)" height="31.6094" style="stroke:#A80036;stroke-width:1.5;" width="78" x="751" y="53"/><text fill="#000000" font-family="sans-serif" font-size="14" lengthAdjust="spacing" textLength="64" x="758" y="74.5332">:Company</text><rect fill="#FEFECE" filter="url(#fl6c46ypxfaxr)" height="31.6094" style="stroke:#A80036;stroke-width:1.5;" width="78" x="751" y="321.0703"/><text fill="#000000" font-family="sans-serif" font-size="14" lengthAdjust="spacing" textLength="64" x="758" y="342.6035">:Company</text><rect fill="#FEFECE" filter="url(#fl6c46ypxfaxr)" height="31.6094" style="stroke:#A80036;stroke-width:1.5;" width="92" x="845" y="53"/><text fill="#000000" font-family="sans-serif" font-size="14" lengthAdjust="spacing" textLength="78" x="852" y="74.5332">:GraphStore</text><rect fill="#FEFECE" filter="url(#fl6c46ypxfaxr)" height="31.6094" style="stroke:#A80036;stroke-width:1.5;" width="92" x="845" y="321.0703"/><text fill="#000000" font-family="sans-serif" font-size="14" lengthAdjust="spacing" textLength="78" x="852" y="342.6035">:GraphStore</text><rect fill="#FFFFFF" filter="url(#fl6c46ypxfaxr)" height="213.4609" style="stroke:#A80036;stroke-width:1.0;" width="10" x="53" y="99.6094"/><rect fill="#FFFFFF" filter="url(#fl6c46ypxfaxr)" height="191.1094" style="stroke:#A80036;stroke-width:1.0;" width="10" x="517" y="121.9609"/><rect fill="#FFFFFF" filter="url(#fl6c46ypxfaxr)" height="160.7578" style="stroke:#A80036;stroke-width:1.0;" width="10" x="653.5" y="152.3125"/><rect fill="#FFFFFF" filter="url(#fl6c46ypxfaxr)" height="130.4063" style="stroke:#A80036;stroke-width:1.0;" width="10" x="787" y="182.6641"/><rect fill="#FFFFFF" filter="url(#fl6c46ypxfaxr)" height="100.0547" style="stroke:#A80036;stroke-width:1.0;" width="10" x="888" y="213.0156"/><polygon fill="#A80036" points="505,117.9609,515,121.9609,505,125.9609,509,121.9609" style="stroke:#A80036;stroke-width:1.0;"/><line style="stroke:#A80036;stroke-width:1.0;" x1="63" x2="511" y1="121.9609" y2="121.9609"/><text fill="#000000" font-family="sans-serif" font-size="13" font-weight="bold" lengthAdjust="spacing" textLength="7" x="70" y="117.1045">1</text><text fill="#000000" font-family="sans-serif" font-size="13" lengthAdjust="spacing" textLength="424" x="81" y="117.1045">Asks to know which places (cities or ports) are closest to all other places</text><polygon fill="#A80036" points="641.5,148.3125,651.5,152.3125,641.5,156.3125,645.5,152.3125" style="stroke:#A80036;stroke-width:1.0;"/><line style="stroke:#A80036;stroke-width:1.0;" x1="527" x2="647.5" y1="152.3125" y2="152.3125"/><text fill="#000000" font-family="sans-serif" font-size="13" font-weight="bold" lengthAdjust="spacing" textLength="7" x="534" y="147.4561">2</text><text fill="#000000" font-family="sans-serif" font-size="13" lengthAdjust="spacing" textLength="85" x="545" y="147.4561">returnClosest()</text><polygon fill="#A80036" points="775,178.6641,785,182.6641,775,186.6641,779,182.6641" style="stroke:#A80036;stroke-width:1.0;"/><line style="stroke:#A80036;stroke-width:1.0;" x1="663.5" x2="781" y1="182.6641" y2="182.6641"/><text fill="#000000" font-family="sans-serif" font-size="13" font-weight="bold" lengthAdjust="spacing" textLength="7" x="670.5" y="177.8076">3</text><text fill="#000000" font-family="sans-serif" font-size="13" lengthAdjust="spacing" textLength="92" x="681.5" y="177.8076">getGraphStore()</text><polygon fill="#A80036" points="876,209.0156,886,213.0156,876,217.0156,880,213.0156" style="stroke:#A80036;stroke-width:1.0;"/><line style="stroke:#A80036;stroke-width:1.0;" x1="797" x2="882" y1="213.0156" y2="213.0156"/><text fill="#000000" font-family="sans-serif" font-size="13" font-weight="bold" lengthAdjust="spacing" textLength="7" x="804" y="208.1592">4</text><text fill="#000000" font-family="sans-serif" font-size="13" lengthAdjust="spacing" textLength="61" x="815" y="208.1592">getGraph()</text><polygon fill="#A80036" points="808,239.3672,798,243.3672,808,247.3672,804,243.3672" style="stroke:#A80036;stroke-width:1.0;"/><line style="stroke:#A80036;stroke-width:1.0;stroke-dasharray:2.0,2.0;" x1="802" x2="887" y1="243.3672" y2="243.3672"/><text fill="#000000" font-family="sans-serif" font-size="13" font-weight="bold" lengthAdjust="spacing" textLength="7" x="814" y="238.5107">5</text><text fill="#000000" font-family="sans-serif" font-size="13" lengthAdjust="spacing" textLength="35" x="825" y="238.5107">Graph</text><polygon fill="#A80036" points="674.5,269.7188,664.5,273.7188,674.5,277.7188,670.5,273.7188" style="stroke:#A80036;stroke-width:1.0;"/><line style="stroke:#A80036;stroke-width:1.0;stroke-dasharray:2.0,2.0;" x1="668.5" x2="786" y1="273.7188" y2="273.7188"/><text fill="#000000" font-family="sans-serif" font-size="13" font-weight="bold" lengthAdjust="spacing" textLength="7" x="680.5" y="268.8623">6</text><text fill="#000000" font-family="sans-serif" font-size="13" lengthAdjust="spacing" textLength="35" x="691.5" y="268.8623">Graph</text><polygon fill="#A80036" points="538,300.0703,528,304.0703,538,308.0703,534,304.0703" style="stroke:#A80036;stroke-width:1.0;"/><line style="stroke:#A80036;stroke-width:1.0;stroke-dasharray:2.0,2.0;" x1="532" x2="652.5" y1="304.0703" y2="304.0703"/><text fill="#000000" font-family="sans-serif" font-size="13" font-weight="bold" lengthAdjust="spacing" textLength="7" x="544" y="299.2139">7</text><text fill="#000000" font-family="sans-serif" font-size="13" lengthAdjust="spacing" textLength="35" x="555" y="299.2139">Graph</text><!--MD5=[fd8b5af513d9e3d43d6b1556d4f74e9a]
@startuml
autonumber
actor "Traffic Manager" as TM

participant ":PortShipUI" as psui
participant ":ClosestLocalController" as rgc
participant ":Company" as comp
participant ":GraphStore" as gs


activate TM
TM -> psui : Asks to know which places (cities or ports) are closest to all other places
activate psui
psui -> rgc : returnClosest()
activate rgc
rgc -> comp : getGraphStore()
activate comp
comp -> gs : getGraph()
activate gs
gs - -> comp : Graph
comp - -> rgc : Graph
rgc - -> psui : Graph



@enduml

PlantUML version 1.2021.11(Sat Oct 02 14:26:11 BST 2021)
(GPL source distribution)
Java Runtime: OpenJDK Runtime Environment
JVM: OpenJDK 64-Bit Server VM
Default Encoding: Cp1252
Language: pt
Country: PT
--></g></svg>