<?xml version="1.0" encoding="UTF-8" standalone="no"?><svg xmlns="http://www.w3.org/2000/svg" xmlns:xlink="http://www.w3.org/1999/xlink" contentScriptType="application/ecmascript" contentStyleType="text/css" height="204px" preserveAspectRatio="none" style="width:255px;height:204px;background:#FFFFFF;" version="1.1" viewBox="0 0 255 204" width="255px" zoomAndPan="magnify"><defs><filter height="300%" id="f1movhc6uwkgju" width="300%" x="-1" y="-1"><feGaussianBlur result="blurOut" stdDeviation="2.0"/><feColorMatrix in="blurOut" result="blurOut2" type="matrix" values="0 0 0 0 0 0 0 0 0 0 0 0 0 0 0 0 0 0 .4 0"/><feOffset dx="4.0" dy="4.0" in="blurOut2" result="blurOut3"/><feBlend in="SourceGraphic" in2="blurOut3" mode="normal"/></filter></defs><g><!--MD5=[df76e760f2062188d44f98c21a88999b]
class UI--><rect codeLine="1" fill="#FEFECE" filter="url(#f1movhc6uwkgju)" height="48" id="UI" style="stroke:#A80036;stroke-width:1.5;" width="44" x="102" y="7"/><ellipse cx="117" cy="23" fill="#ADD1B2" rx="11" ry="11" style="stroke:#A80036;stroke-width:1.0;"/><path d="M119,19.5 Q119.2031,19 119.4375,18.75 Q119.6719,18.5 119.9375,18.5 Q120.4063,18.5 120.7031,18.7813 Q121,19.0625 121,19.7188 L121,21.2813 Q121,21.9375 120.7188,22.2188 Q120.4375,22.5 120,22.5 Q119.6094,22.5 119.3594,22.3281 Q119.1094,22.1563 119,21.7031 Q118.9531,21.3906 118.7813,21.2188 Q118.4688,20.8906 117.9063,20.7031 Q117.3438,20.5 116.7813,20.5 Q116.0781,20.5 115.4844,20.7813 Q114.9063,21.0625 114.4531,21.6875 Q114,22.3125 114,23.1719 L114,24.0938 Q114,25.125 114.8438,25.8125 Q115.6875,26.5 117.1875,26.5 Q118.0781,26.5 118.7031,26.2969 Q119.0625,26.1875 119.4688,25.8281 Q119.7344,25.625 119.875,25.5625 Q120.0156,25.5 120.1875,25.5 Q120.5156,25.5 120.75,25.7656 Q121,26.0156 121,26.375 Q121,26.7188 120.6563,27.125 Q120.1563,27.7188 119.3594,28.0469 Q118.3125,28.5 117.0313,28.5 Q115.5313,28.5 114.3281,27.9063 Q113.3594,27.4375 112.6719,26.4219 Q112,25.4063 112,24.2031 L112,23.1094 Q112,21.8594 112.5938,20.7656 Q113.2031,19.6719 114.25,19.0938 Q115.3125,18.5 116.5,18.5 Q117.2188,18.5 117.8438,18.75 Q118.4688,19 119,19.5 Z " fill="#000000"/><text fill="#000000" font-family="sans-serif" font-size="12" lengthAdjust="spacing" textLength="12" x="131" y="27.9102">UI</text><line style="stroke:#A80036;stroke-width:1.5;" x1="103" x2="145" y1="39" y2="39"/><line style="stroke:#A80036;stroke-width:1.5;" x1="103" x2="145" y1="47" y2="47"/><!--MD5=[8de2e16a4be852e64af2e6658b955615]
class US414--><rect codeLine="4" fill="#FEFECE" filter="url(#f1movhc6uwkgju)" height="75.6719" id="US414" style="stroke:#A80036;stroke-width:1.5;" width="234" x="7" y="115"/><ellipse cx="100.75" cy="131" fill="#ADD1B2" rx="11" ry="11" style="stroke:#A80036;stroke-width:1.0;"/><path d="M102.75,127.5 Q102.9531,127 103.1875,126.75 Q103.4219,126.5 103.6875,126.5 Q104.1563,126.5 104.4531,126.7813 Q104.75,127.0625 104.75,127.7188 L104.75,129.2813 Q104.75,129.9375 104.4688,130.2188 Q104.1875,130.5 103.75,130.5 Q103.3594,130.5 103.1094,130.3281 Q102.8594,130.1563 102.75,129.7031 Q102.7031,129.3906 102.5313,129.2188 Q102.2188,128.8906 101.6563,128.7031 Q101.0938,128.5 100.5313,128.5 Q99.8281,128.5 99.2344,128.7813 Q98.6563,129.0625 98.2031,129.6875 Q97.75,130.3125 97.75,131.1719 L97.75,132.0938 Q97.75,133.125 98.5938,133.8125 Q99.4375,134.5 100.9375,134.5 Q101.8281,134.5 102.4531,134.2969 Q102.8125,134.1875 103.2188,133.8281 Q103.4844,133.625 103.625,133.5625 Q103.7656,133.5 103.9375,133.5 Q104.2656,133.5 104.5,133.7656 Q104.75,134.0156 104.75,134.375 Q104.75,134.7188 104.4063,135.125 Q103.9063,135.7188 103.1094,136.0469 Q102.0625,136.5 100.7813,136.5 Q99.2813,136.5 98.0781,135.9063 Q97.1094,135.4375 96.4219,134.4219 Q95.75,133.4063 95.75,132.2031 L95.75,131.1094 Q95.75,129.8594 96.3438,128.7656 Q96.9531,127.6719 98,127.0938 Q99.0625,126.5 100.25,126.5 Q100.9688,126.5 101.5938,126.75 Q102.2188,127 102.75,127.5 Z " fill="#000000"/><text fill="#000000" font-family="sans-serif" font-size="12" lengthAdjust="spacing" textLength="38" x="121.25" y="135.9102">US414</text><line style="stroke:#A80036;stroke-width:1.5;" x1="8" x2="240" y1="147" y2="147"/><line style="stroke:#A80036;stroke-width:1.5;" x1="8" x2="240" y1="155" y2="155"/><ellipse cx="18" cy="166" fill="#84BE84" rx="3" ry="3" style="stroke:#038048;stroke-width:1.0;"/><text fill="#000000" font-family="sans-serif" font-size="11" lengthAdjust="spacing" textLength="192" x="27" y="170.4189">getRefrigeratedContainers(containers[])</text><ellipse cx="18" cy="179.8359" fill="#84BE84" rx="3" ry="3" style="stroke:#038048;stroke-width:1.0;"/><text fill="#000000" font-family="sans-serif" font-size="11" lengthAdjust="spacing" textLength="208" x="27" y="184.2549">calculateEnergy(containers_refrigerados[])</text><!--MD5=[4abfaf802c4c5502f65102f17bfaa300]
link UI to US414--><path codeLine="9" d="M124,55.14 C124,70.58 124,91.33 124,109.67 " fill="none" id="UI-to-US414" style="stroke:#A80036;stroke-width:1.0;stroke-dasharray:7.0,7.0;"/><polygon fill="#A80036" points="124,114.77,128,105.77,124,109.77,120,105.77,124,114.77" style="stroke:#A80036;stroke-width:1.0;"/><!--MD5=[1e7ac8b7fa855018d3b4813afd739082]
@startuml
class UI{
}

class US414{
    +getRefrigeratedContainers(containers[])
    +calculateEnergy(containers_refrigerados[])
}

UI ..> US414

@enduml

PlantUML version 1.2021.11(Sat Oct 02 14:26:11 BST 2021)
(GPL source distribution)
Java Runtime: OpenJDK Runtime Environment
JVM: OpenJDK 64-Bit Server VM
Default Encoding: Cp1252
Language: pt
Country: PT
--></g></svg>