<?xml version="1.0" encoding="UTF-8" standalone="no"?><svg xmlns="http://www.w3.org/2000/svg" xmlns:xlink="http://www.w3.org/1999/xlink" contentScriptType="application/ecmascript" contentStyleType="text/css" height="434px" preserveAspectRatio="none" style="width:320px;height:434px;background:#FFFFFF;" version="1.1" viewBox="0 0 320 434" width="320px" zoomAndPan="magnify"><defs><filter height="300%" id="f1p4wmldowaauu" width="300%" x="-1" y="-1"><feGaussianBlur result="blurOut" stdDeviation="2.0"/><feColorMatrix in="blurOut" result="blurOut2" type="matrix" values="0 0 0 0 0 0 0 0 0 0 0 0 0 0 0 0 0 0 .4 0"/><feOffset dx="4.0" dy="4.0" in="blurOut2" result="blurOut3"/><feBlend in="SourceGraphic" in2="blurOut3" mode="normal"/></filter></defs><g><!--MD5=[c4fd78bda09a6d9be9cd3faf191b9148]
class OccupancyWarehouseUI--><rect codeLine="1" fill="#FEFECE" filter="url(#f1p4wmldowaauu)" height="48" id="OccupancyWarehouseUI" style="stroke:#A80036;stroke-width:1.5;" width="168" x="89.5" y="7"/><ellipse cx="104.5" cy="23" fill="#ADD1B2" rx="11" ry="11" style="stroke:#A80036;stroke-width:1.0;"/><path d="M106.5,19.5 Q106.7031,19 106.9375,18.75 Q107.1719,18.5 107.4375,18.5 Q107.9063,18.5 108.2031,18.7813 Q108.5,19.0625 108.5,19.7188 L108.5,21.2813 Q108.5,21.9375 108.2188,22.2188 Q107.9375,22.5 107.5,22.5 Q107.1094,22.5 106.8594,22.3281 Q106.6094,22.1563 106.5,21.7031 Q106.4531,21.3906 106.2813,21.2188 Q105.9688,20.8906 105.4063,20.7031 Q104.8438,20.5 104.2813,20.5 Q103.5781,20.5 102.9844,20.7813 Q102.4063,21.0625 101.9531,21.6875 Q101.5,22.3125 101.5,23.1719 L101.5,24.0938 Q101.5,25.125 102.3438,25.8125 Q103.1875,26.5 104.6875,26.5 Q105.5781,26.5 106.2031,26.2969 Q106.5625,26.1875 106.9688,25.8281 Q107.2344,25.625 107.375,25.5625 Q107.5156,25.5 107.6875,25.5 Q108.0156,25.5 108.25,25.7656 Q108.5,26.0156 108.5,26.375 Q108.5,26.7188 108.1563,27.125 Q107.6563,27.7188 106.8594,28.0469 Q105.8125,28.5 104.5313,28.5 Q103.0313,28.5 101.8281,27.9063 Q100.8594,27.4375 100.1719,26.4219 Q99.5,25.4063 99.5,24.2031 L99.5,23.1094 Q99.5,21.8594 100.0938,20.7656 Q100.7031,19.6719 101.75,19.0938 Q102.8125,18.5 104,18.5 Q104.7188,18.5 105.3438,18.75 Q105.9688,19 106.5,19.5 Z " fill="#000000"/><text fill="#000000" font-family="sans-serif" font-size="12" lengthAdjust="spacing" textLength="136" x="118.5" y="27.9102">OccupancyWarehouseUI</text><line style="stroke:#A80036;stroke-width:1.5;" x1="90.5" x2="256.5" y1="39" y2="39"/><line style="stroke:#A80036;stroke-width:1.5;" x1="90.5" x2="256.5" y1="47" y2="47"/><!--MD5=[5be28092227a31995ab402b5239015fe]
class OccupancyWarehouseController--><rect codeLine="4" fill="#FEFECE" filter="url(#f1p4wmldowaauu)" height="61.8359" id="OccupancyWarehouseController" style="stroke:#A80036;stroke-width:1.5;" width="240" x="53.5" y="115"/><ellipse cx="82" cy="131" fill="#ADD1B2" rx="11" ry="11" style="stroke:#A80036;stroke-width:1.0;"/><path d="M84,127.5 Q84.2031,127 84.4375,126.75 Q84.6719,126.5 84.9375,126.5 Q85.4063,126.5 85.7031,126.7813 Q86,127.0625 86,127.7188 L86,129.2813 Q86,129.9375 85.7188,130.2188 Q85.4375,130.5 85,130.5 Q84.6094,130.5 84.3594,130.3281 Q84.1094,130.1563 84,129.7031 Q83.9531,129.3906 83.7813,129.2188 Q83.4688,128.8906 82.9063,128.7031 Q82.3438,128.5 81.7813,128.5 Q81.0781,128.5 80.4844,128.7813 Q79.9063,129.0625 79.4531,129.6875 Q79,130.3125 79,131.1719 L79,132.0938 Q79,133.125 79.8438,133.8125 Q80.6875,134.5 82.1875,134.5 Q83.0781,134.5 83.7031,134.2969 Q84.0625,134.1875 84.4688,133.8281 Q84.7344,133.625 84.875,133.5625 Q85.0156,133.5 85.1875,133.5 Q85.5156,133.5 85.75,133.7656 Q86,134.0156 86,134.375 Q86,134.7188 85.6563,135.125 Q85.1563,135.7188 84.3594,136.0469 Q83.3125,136.5 82.0313,136.5 Q80.5313,136.5 79.3281,135.9063 Q78.3594,135.4375 77.6719,134.4219 Q77,133.4063 77,132.2031 L77,131.1094 Q77,129.8594 77.5938,128.7656 Q78.2031,127.6719 79.25,127.0938 Q80.3125,126.5 81.5,126.5 Q82.2188,126.5 82.8438,126.75 Q83.4688,127 84,127.5 Z " fill="#000000"/><text fill="#000000" font-family="sans-serif" font-size="12" lengthAdjust="spacing" textLength="178" x="99" y="135.9102">OccupancyWarehouseController</text><line style="stroke:#A80036;stroke-width:1.5;" x1="54.5" x2="292.5" y1="147" y2="147"/><line style="stroke:#A80036;stroke-width:1.5;" x1="54.5" x2="292.5" y1="155" y2="155"/><ellipse cx="64.5" cy="166" fill="#84BE84" rx="3" ry="3" style="stroke:#038048;stroke-width:1.0;"/><text fill="#000000" font-family="sans-serif" font-size="11" lengthAdjust="spacing" textLength="214" x="73.5" y="170.4189">getOccupancyWarehouse(int id_port_ware)</text><!--MD5=[02e4b9b7573f1156f41e60aa5b4e25a4]
class Company--><rect codeLine="8" fill="#FEFECE" filter="url(#f1p4wmldowaauu)" height="61.8359" id="Company" style="stroke:#A80036;stroke-width:1.5;" width="187" x="7" y="237"/><ellipse cx="69.75" cy="253" fill="#ADD1B2" rx="11" ry="11" style="stroke:#A80036;stroke-width:1.0;"/><path d="M71.75,249.5 Q71.9531,249 72.1875,248.75 Q72.4219,248.5 72.6875,248.5 Q73.1563,248.5 73.4531,248.7813 Q73.75,249.0625 73.75,249.7188 L73.75,251.2813 Q73.75,251.9375 73.4688,252.2188 Q73.1875,252.5 72.75,252.5 Q72.3594,252.5 72.1094,252.3281 Q71.8594,252.1563 71.75,251.7031 Q71.7031,251.3906 71.5313,251.2188 Q71.2188,250.8906 70.6563,250.7031 Q70.0938,250.5 69.5313,250.5 Q68.8281,250.5 68.2344,250.7813 Q67.6563,251.0625 67.2031,251.6875 Q66.75,252.3125 66.75,253.1719 L66.75,254.0938 Q66.75,255.125 67.5938,255.8125 Q68.4375,256.5 69.9375,256.5 Q70.8281,256.5 71.4531,256.2969 Q71.8125,256.1875 72.2188,255.8281 Q72.4844,255.625 72.625,255.5625 Q72.7656,255.5 72.9375,255.5 Q73.2656,255.5 73.5,255.7656 Q73.75,256.0156 73.75,256.375 Q73.75,256.7188 73.4063,257.125 Q72.9063,257.7188 72.1094,258.0469 Q71.0625,258.5 69.7813,258.5 Q68.2813,258.5 67.0781,257.9063 Q66.1094,257.4375 65.4219,256.4219 Q64.75,255.4063 64.75,254.2031 L64.75,253.1094 Q64.75,251.8594 65.3438,250.7656 Q65.9531,249.6719 67,249.0938 Q68.0625,248.5 69.25,248.5 Q69.9688,248.5 70.5938,248.75 Q71.2188,249 71.75,249.5 Z " fill="#000000"/><text fill="#000000" font-family="sans-serif" font-size="12" lengthAdjust="spacing" textLength="53" x="90.25" y="257.9102">Company</text><line style="stroke:#A80036;stroke-width:1.5;" x1="8" x2="193" y1="269" y2="269"/><line style="stroke:#A80036;stroke-width:1.5;" x1="8" x2="193" y1="277" y2="277"/><ellipse cx="18" cy="288" fill="#84BE84" rx="3" ry="3" style="stroke:#038048;stroke-width:1.0;"/><text fill="#000000" font-family="sans-serif" font-size="11" lengthAdjust="spacing" textLength="161" x="27" y="292.4189">getOccupancyWarehouseStore()</text><!--MD5=[ea71b8c65f8df8d829ba1a93bd480120]
class OccupancyWarehouseStore--><rect codeLine="12" fill="#FEFECE" filter="url(#f1p4wmldowaauu)" height="61.8359" id="OccupancyWarehouseStore" style="stroke:#A80036;stroke-width:1.5;" width="266" x="40.5" y="359"/><ellipse cx="92.75" cy="375" fill="#ADD1B2" rx="11" ry="11" style="stroke:#A80036;stroke-width:1.0;"/><path d="M94.75,371.5 Q94.9531,371 95.1875,370.75 Q95.4219,370.5 95.6875,370.5 Q96.1563,370.5 96.4531,370.7813 Q96.75,371.0625 96.75,371.7188 L96.75,373.2813 Q96.75,373.9375 96.4688,374.2188 Q96.1875,374.5 95.75,374.5 Q95.3594,374.5 95.1094,374.3281 Q94.8594,374.1563 94.75,373.7031 Q94.7031,373.3906 94.5313,373.2188 Q94.2188,372.8906 93.6563,372.7031 Q93.0938,372.5 92.5313,372.5 Q91.8281,372.5 91.2344,372.7813 Q90.6563,373.0625 90.2031,373.6875 Q89.75,374.3125 89.75,375.1719 L89.75,376.0938 Q89.75,377.125 90.5938,377.8125 Q91.4375,378.5 92.9375,378.5 Q93.8281,378.5 94.4531,378.2969 Q94.8125,378.1875 95.2188,377.8281 Q95.4844,377.625 95.625,377.5625 Q95.7656,377.5 95.9375,377.5 Q96.2656,377.5 96.5,377.7656 Q96.75,378.0156 96.75,378.375 Q96.75,378.7188 96.4063,379.125 Q95.9063,379.7188 95.1094,380.0469 Q94.0625,380.5 92.7813,380.5 Q91.2813,380.5 90.0781,379.9063 Q89.1094,379.4375 88.4219,378.4219 Q87.75,377.4063 87.75,376.2031 L87.75,375.1094 Q87.75,373.8594 88.3438,372.7656 Q88.9531,371.6719 90,371.0938 Q91.0625,370.5 92.25,370.5 Q92.9688,370.5 93.5938,370.75 Q94.2188,371 94.75,371.5 Z " fill="#000000"/><text fill="#000000" font-family="sans-serif" font-size="12" lengthAdjust="spacing" textLength="153" x="113.25" y="379.9102">OccupancyWarehouseStore</text><line style="stroke:#A80036;stroke-width:1.5;" x1="41.5" x2="305.5" y1="391" y2="391"/><line style="stroke:#A80036;stroke-width:1.5;" x1="41.5" x2="305.5" y1="399" y2="399"/><ellipse cx="51.5" cy="410" fill="#84BE84" rx="3" ry="3" style="stroke:#038048;stroke-width:1.0;"/><text fill="#000000" font-family="sans-serif" font-size="11" lengthAdjust="spacing" textLength="240" x="60.5" y="414.4189">getOccupancyWarehouseStore(int id_port_ware)</text><!--MD5=[067a343bb4f998950d21ec49e761d4a3]
link OccupancyWarehouseUI to OccupancyWarehouseController--><path codeLine="16" d="M173.5,55.14 C173.5,70.71 173.5,91.53 173.5,109.22 " fill="none" id="OccupancyWarehouseUI-to-OccupancyWarehouseController" style="stroke:#A80036;stroke-width:1.0;stroke-dasharray:7.0,7.0;"/><polygon fill="#A80036" points="173.5,114.6,177.5,105.6,173.5,109.6,169.5,105.6,173.5,114.6" style="stroke:#A80036;stroke-width:1.0;"/><!--MD5=[256311f1b1afbd0ee545104a524c3f7a]
link OccupancyWarehouseController to OccupancyWarehouseStore--><path codeLine="17" d="M189.86,177.26 C198.13,194.28 207.29,216.22 211.5,237 C216.97,264.01 216.97,271.99 211.5,299 C207.69,317.83 199.81,337.62 192.21,353.83 " fill="none" id="OccupancyWarehouseController-to-OccupancyWarehouseStore" style="stroke:#A80036;stroke-width:1.0;stroke-dasharray:7.0,7.0;"/><polygon fill="#A80036" points="189.86,358.74,197.333,352.3248,192.0041,354.2231,190.1059,348.8942,189.86,358.74" style="stroke:#A80036;stroke-width:1.0;"/><!--MD5=[d9c704f2a79b1d36c0833f1bac980f17]
link OccupancyWarehouseController to Company--><path codeLine="18" d="M155.08,177.28 C144.88,194.05 132.15,214.96 121.56,232.38 " fill="none" id="OccupancyWarehouseController-to-Company" style="stroke:#A80036;stroke-width:1.0;stroke-dasharray:7.0,7.0;"/><polygon fill="#A80036" points="118.92,236.73,127.0163,231.122,121.5197,232.459,120.1827,226.9624,118.92,236.73" style="stroke:#A80036;stroke-width:1.0;"/><!--MD5=[23d899d2f14103d3daaed5e58daa7f1e]
link Company to OccupancyWarehouseStore--><path codeLine="19" d="M118.92,299.28 C129.12,316.05 141.85,336.96 152.44,354.38 " fill="none" id="Company-to-OccupancyWarehouseStore" style="stroke:#A80036;stroke-width:1.0;"/><polygon fill="#A80036" points="155.08,358.73,153.8173,348.9624,152.4803,354.459,146.9837,353.122,155.08,358.73" style="stroke:#A80036;stroke-width:1.0;"/><!--MD5=[dba5af5f3eab7cccb97f61b4d481b264]
@startuml
class OccupancyWarehouseUI{
}

class OccupancyWarehouseController{
+getOccupancyWarehouse(int id_port_ware)
}

class Company{
+getOccupancyWarehouseStore()
}

class OccupancyWarehouseStore{
+getOccupancyWarehouseStore(int id_port_ware)
}

OccupancyWarehouseUI ..> OccupancyWarehouseController
OccupancyWarehouseController ..> OccupancyWarehouseStore
OccupancyWarehouseController ..> Company
Company - -> OccupancyWarehouseStore



@enduml

PlantUML version 1.2021.11(Sat Oct 02 14:26:11 BST 2021)
(GPL source distribution)
Java Runtime: OpenJDK Runtime Environment
JVM: OpenJDK 64-Bit Server VM
Default Encoding: Cp1252
Language: pt
Country: PT
--></g></svg>