<?xml version="1.0" encoding="UTF-8" standalone="no"?><svg xmlns="http://www.w3.org/2000/svg" xmlns:xlink="http://www.w3.org/1999/xlink" contentScriptType="application/ecmascript" contentStyleType="text/css" height="381px" preserveAspectRatio="none" style="width:263px;height:381px;background:#FFFFFF;" version="1.1" viewBox="0 0 263 381" width="263px" zoomAndPan="magnify"><defs><filter height="300%" id="fh0xd5kt5d0h" width="300%" x="-1" y="-1"><feGaussianBlur result="blurOut" stdDeviation="2.0"/><feColorMatrix in="blurOut" result="blurOut2" type="matrix" values="0 0 0 0 0 0 0 0 0 0 0 0 0 0 0 0 0 0 .4 0"/><feOffset dx="4.0" dy="4.0" in="blurOut2" result="blurOut3"/><feBlend in="SourceGraphic" in2="blurOut3" mode="normal"/></filter></defs><g><!--MD5=[df76e760f2062188d44f98c21a88999b]
class UI--><rect codeLine="8" fill="#FEFECE" filter="url(#fh0xd5kt5d0h)" height="48" id="UI" style="stroke:#A80036;stroke-width:1.5;" width="44" x="106" y="7"/><ellipse cx="121" cy="23" fill="#ADD1B2" rx="11" ry="11" style="stroke:#A80036;stroke-width:1.0;"/><path d="M123,19.5 Q123.2031,19 123.4375,18.75 Q123.6719,18.5 123.9375,18.5 Q124.4063,18.5 124.7031,18.7813 Q125,19.0625 125,19.7188 L125,21.2813 Q125,21.9375 124.7188,22.2188 Q124.4375,22.5 124,22.5 Q123.6094,22.5 123.3594,22.3281 Q123.1094,22.1563 123,21.7031 Q122.9531,21.3906 122.7813,21.2188 Q122.4688,20.8906 121.9063,20.7031 Q121.3438,20.5 120.7813,20.5 Q120.0781,20.5 119.4844,20.7813 Q118.9063,21.0625 118.4531,21.6875 Q118,22.3125 118,23.1719 L118,24.0938 Q118,25.125 118.8438,25.8125 Q119.6875,26.5 121.1875,26.5 Q122.0781,26.5 122.7031,26.2969 Q123.0625,26.1875 123.4688,25.8281 Q123.7344,25.625 123.875,25.5625 Q124.0156,25.5 124.1875,25.5 Q124.5156,25.5 124.75,25.7656 Q125,26.0156 125,26.375 Q125,26.7188 124.6563,27.125 Q124.1563,27.7188 123.3594,28.0469 Q122.3125,28.5 121.0313,28.5 Q119.5313,28.5 118.3281,27.9063 Q117.3594,27.4375 116.6719,26.4219 Q116,25.4063 116,24.2031 L116,23.1094 Q116,21.8594 116.5938,20.7656 Q117.2031,19.6719 118.25,19.0938 Q119.3125,18.5 120.5,18.5 Q121.2188,18.5 121.8438,18.75 Q122.4688,19 123,19.5 Z " fill="#000000"/><text fill="#000000" font-family="sans-serif" font-size="12" lengthAdjust="spacing" textLength="12" x="135" y="27.9102">UI</text><line style="stroke:#A80036;stroke-width:1.5;" x1="107" x2="149" y1="39" y2="39"/><line style="stroke:#A80036;stroke-width:1.5;" x1="107" x2="149" y1="47" y2="47"/><!--MD5=[1d7ba1c7002d54515419844fbd155368]
class Controller--><rect codeLine="12" fill="#FEFECE" filter="url(#fh0xd5kt5d0h)" height="103.3438" id="Controller" style="stroke:#A80036;stroke-width:1.5;" width="114" x="71" y="115"/><ellipse cx="98.6" cy="131" fill="#ADD1B2" rx="11" ry="11" style="stroke:#A80036;stroke-width:1.0;"/><path d="M100.6,127.5 Q100.8031,127 101.0375,126.75 Q101.2719,126.5 101.5375,126.5 Q102.0063,126.5 102.3031,126.7813 Q102.6,127.0625 102.6,127.7188 L102.6,129.2813 Q102.6,129.9375 102.3188,130.2188 Q102.0375,130.5 101.6,130.5 Q101.2094,130.5 100.9594,130.3281 Q100.7094,130.1563 100.6,129.7031 Q100.5531,129.3906 100.3813,129.2188 Q100.0688,128.8906 99.5063,128.7031 Q98.9438,128.5 98.3813,128.5 Q97.6781,128.5 97.0844,128.7813 Q96.5063,129.0625 96.0531,129.6875 Q95.6,130.3125 95.6,131.1719 L95.6,132.0938 Q95.6,133.125 96.4438,133.8125 Q97.2875,134.5 98.7875,134.5 Q99.6781,134.5 100.3031,134.2969 Q100.6625,134.1875 101.0688,133.8281 Q101.3344,133.625 101.475,133.5625 Q101.6156,133.5 101.7875,133.5 Q102.1156,133.5 102.35,133.7656 Q102.6,134.0156 102.6,134.375 Q102.6,134.7188 102.2563,135.125 Q101.7563,135.7188 100.9594,136.0469 Q99.9125,136.5 98.6313,136.5 Q97.1313,136.5 95.9281,135.9063 Q94.9594,135.4375 94.2719,134.4219 Q93.6,133.4063 93.6,132.2031 L93.6,131.1094 Q93.6,129.8594 94.1938,128.7656 Q94.8031,127.6719 95.85,127.0938 Q96.9125,126.5 98.1,126.5 Q98.8188,126.5 99.4438,126.75 Q100.0688,127 100.6,127.5 Z " fill="#000000"/><text fill="#000000" font-family="sans-serif" font-size="12" lengthAdjust="spacing" textLength="54" x="115.4" y="135.9102">Controller</text><line style="stroke:#A80036;stroke-width:1.5;" x1="72" x2="184" y1="147" y2="147"/><rect fill="none" height="6" style="stroke:#C82930;stroke-width:1.0;" width="6" x="79" y="155"/><text fill="#000000" font-family="sans-serif" font-size="11" lengthAdjust="spacing" textLength="22" x="91" y="162.4189">year</text><rect fill="none" height="6" style="stroke:#C82930;stroke-width:1.0;" width="6" x="79" y="168.8359"/><text fill="#000000" font-family="sans-serif" font-size="11" lengthAdjust="spacing" textLength="72" x="91" y="176.2549">id_load_unload</text><rect fill="none" height="6" style="stroke:#C82930;stroke-width:1.0;" width="6" x="79" y="182.6719"/><text fill="#000000" font-family="sans-serif" font-size="11" lengthAdjust="spacing" textLength="88" x="91" y="190.0908">id_manifest_travel</text><line style="stroke:#A80036;stroke-width:1.5;" x1="72" x2="184" y1="196.5078" y2="196.5078"/><ellipse cx="82" cy="207.5078" fill="#84BE84" rx="3" ry="3" style="stroke:#038048;stroke-width:1.0;"/><text fill="#000000" font-family="sans-serif" font-size="11" lengthAdjust="spacing" textLength="73" x="91" y="211.9268">cargo_qt(year)</text><!--MD5=[67f940062228542fbedddf865eba4690]
class Cargo_Qt--><rect codeLine="19" fill="#FEFECE" filter="url(#fh0xd5kt5d0h)" height="89.5078" id="Cargo_Qt" style="stroke:#A80036;stroke-width:1.5;" width="242" x="7" y="278"/><ellipse cx="97.25" cy="294" fill="#ADD1B2" rx="11" ry="11" style="stroke:#A80036;stroke-width:1.0;"/><path d="M99.25,290.5 Q99.4531,290 99.6875,289.75 Q99.9219,289.5 100.1875,289.5 Q100.6563,289.5 100.9531,289.7813 Q101.25,290.0625 101.25,290.7188 L101.25,292.2813 Q101.25,292.9375 100.9688,293.2188 Q100.6875,293.5 100.25,293.5 Q99.8594,293.5 99.6094,293.3281 Q99.3594,293.1563 99.25,292.7031 Q99.2031,292.3906 99.0313,292.2188 Q98.7188,291.8906 98.1563,291.7031 Q97.5938,291.5 97.0313,291.5 Q96.3281,291.5 95.7344,291.7813 Q95.1563,292.0625 94.7031,292.6875 Q94.25,293.3125 94.25,294.1719 L94.25,295.0938 Q94.25,296.125 95.0938,296.8125 Q95.9375,297.5 97.4375,297.5 Q98.3281,297.5 98.9531,297.2969 Q99.3125,297.1875 99.7188,296.8281 Q99.9844,296.625 100.125,296.5625 Q100.2656,296.5 100.4375,296.5 Q100.7656,296.5 101,296.7656 Q101.25,297.0156 101.25,297.375 Q101.25,297.7188 100.9063,298.125 Q100.4063,298.7188 99.6094,299.0469 Q98.5625,299.5 97.2813,299.5 Q95.7813,299.5 94.5781,298.9063 Q93.6094,298.4375 92.9219,297.4219 Q92.25,296.4063 92.25,295.2031 L92.25,294.1094 Q92.25,292.8594 92.8438,291.7656 Q93.4531,290.6719 94.5,290.0938 Q95.5625,289.5 96.75,289.5 Q97.4688,289.5 98.0938,289.75 Q98.7188,290 99.25,290.5 Z " fill="#000000"/><text fill="#000000" font-family="sans-serif" font-size="12" lengthAdjust="spacing" textLength="53" x="117.75" y="298.9102">Cargo_Qt</text><line style="stroke:#A80036;stroke-width:1.5;" x1="8" x2="248" y1="310" y2="310"/><rect fill="none" height="6" style="stroke:#C82930;stroke-width:1.0;" width="6" x="15" y="318"/><text fill="#000000" font-family="sans-serif" font-size="11" lengthAdjust="spacing" textLength="60" x="27" y="325.4189">container_qt</text><rect fill="none" height="6" style="stroke:#C82930;stroke-width:1.0;" width="6" x="15" y="331.8359"/><text fill="#000000" font-family="sans-serif" font-size="11" lengthAdjust="spacing" textLength="56" x="27" y="339.2549">manifest_qt</text><line style="stroke:#A80036;stroke-width:1.5;" x1="8" x2="248" y1="345.6719" y2="345.6719"/><ellipse cx="18" cy="356.6719" fill="#84BE84" rx="3" ry="3" style="stroke:#038048;stroke-width:1.0;"/><text fill="#000000" font-family="sans-serif" font-size="11" lengthAdjust="spacing" textLength="216" x="27" y="361.0908">calculate_average(container_qt,manifest_qt)</text><!--MD5=[132c963044dc2a803644bb1c6fd2eeb1]
link UI to Controller--><path codeLine="5" d="M128,55.25 C128,70.28 128,90.51 128,109.53 " fill="none" id="UI-to-Controller" style="stroke:#A80036;stroke-width:1.0;stroke-dasharray:7.0,7.0;"/><polygon fill="#A80036" points="128,114.86,132,105.86,128,109.86,124,105.86,128,114.86" style="stroke:#A80036;stroke-width:1.0;"/><!--MD5=[2bbef8995f90cfbf8a7ba74668329f64]
link Controller to Cargo_Qt--><path codeLine="6" d="M128,218.09 C128,235.56 128,255.09 128,272.47 " fill="none" id="Controller-to-Cargo_Qt" style="stroke:#A80036;stroke-width:1.0;stroke-dasharray:7.0,7.0;"/><polygon fill="#A80036" points="128,277.79,132,268.79,128,272.79,124,268.79,128,277.79" style="stroke:#A80036;stroke-width:1.0;"/><!--MD5=[8b6585f4bc8cf6bec660516e86cc850d]
@startuml
top to bottom direction
class UI
class Controller
class Cargo_Qt
UI ..> Controller
Controller ..> Cargo_Qt

class UI {

}

class Controller{
-year
-id_load_unload
-id_manifest_travel
+cargo_qt(year)
}

class Cargo_Qt {
-container_qt
-manifest_qt
+calculate_average(container_qt,manifest_qt)
}

@enduml

PlantUML version 1.2021.11(Sat Oct 02 14:26:11 BST 2021)
(GPL source distribution)
Java Runtime: OpenJDK Runtime Environment
JVM: OpenJDK 64-Bit Server VM
Default Encoding: Cp1252
Language: pt
Country: PT
--></g></svg>