<?xml version="1.0" encoding="UTF-8" standalone="no"?><svg xmlns="http://www.w3.org/2000/svg" xmlns:xlink="http://www.w3.org/1999/xlink" contentScriptType="application/ecmascript" contentStyleType="text/css" height="286.2px" preserveAspectRatio="none" style="width:663px;height:286px;background:#FFFFFF;" version="1.1" viewBox="0 0 663 286" width="663.3px" zoomAndPan="magnify"><defs><filter height="300%" id="f1xb9q5rybrkun" width="300%" x="-1" y="-1"><feGaussianBlur result="blurOut" stdDeviation="1.8"/><feColorMatrix in="blurOut" result="blurOut2" type="matrix" values="0 0 0 0 0 0 0 0 0 0 0 0 0 0 0 0 0 0 .4 0"/><feOffset dx="3.6" dy="3.6" in="blurOut2" result="blurOut3"/><feBlend in="SourceGraphic" in2="blurOut3" mode="normal"/></filter></defs><g><!--MD5=[e6b394b930674b2255938b8afe6bb7b4]
class ShipCaptain--><rect codeLine="3" fill="#FEFECE" filter="url(#f1xb9q5rybrkun)" height="43.2" id="ShipCaptain" style="stroke:#A80036;stroke-width:1.35;" width="90" x="6.3" y="118.35"/><ellipse cx="19.8" cy="132.75" fill="#ADD1B2" rx="9.9" ry="9.9" style="stroke:#A80036;stroke-width:0.9;"/><path d="M21.6,129.6 Q21.7828,129.15 21.9938,128.925 Q22.2047,128.7 22.4438,128.7 Q22.8656,128.7 23.1328,128.9531 Q23.4,129.2063 23.4,129.7969 L23.4,131.2031 Q23.4,131.7938 23.1469,132.0469 Q22.8938,132.3 22.5,132.3 Q22.1484,132.3 21.9234,132.1453 Q21.6984,131.9906 21.6,131.5828 Q21.5578,131.3016 21.4031,131.1469 Q21.1219,130.8516 20.6156,130.6828 Q20.1094,130.5 19.6031,130.5 Q18.9703,130.5 18.4359,130.7531 Q17.9156,131.0063 17.5078,131.5688 Q17.1,132.1313 17.1,132.9047 L17.1,133.7344 Q17.1,134.6625 17.8594,135.2813 Q18.6188,135.9 19.9688,135.9 Q20.7703,135.9 21.3328,135.7172 Q21.6563,135.6188 22.0219,135.2953 Q22.2609,135.1125 22.3875,135.0563 Q22.5141,135 22.6688,135 Q22.9641,135 23.175,135.2391 Q23.4,135.4641 23.4,135.7875 Q23.4,136.0969 23.0906,136.4625 Q22.6406,136.9969 21.9234,137.2922 Q20.9813,137.7 19.8281,137.7 Q18.4781,137.7 17.3953,137.1656 Q16.5234,136.7438 15.9047,135.8297 Q15.3,134.9156 15.3,133.8328 L15.3,132.8484 Q15.3,131.7234 15.8344,130.7391 Q16.3828,129.7547 17.325,129.2344 Q18.2813,128.7 19.35,128.7 Q19.9969,128.7 20.5594,128.925 Q21.1219,129.15 21.6,129.6 Z " fill="#000000"/><text fill="#000000" font-family="sans-serif" font-size="10.8" lengthAdjust="spacing" textLength="61.2" x="32.4" y="137.1691">ShipCaptain</text><line style="stroke:#A80036;stroke-width:1.35;" x1="7.2" x2="95.4" y1="147.15" y2="147.15"/><line style="stroke:#A80036;stroke-width:1.35;" x1="7.2" x2="95.4" y1="154.35" y2="154.35"/><!--MD5=[e9a58730c562b34349daa605d1ed6662]
class Container--><rect codeLine="26" fill="#FEFECE" filter="url(#f1xb9q5rybrkun)" height="117.9141" id="Container" style="stroke:#A80036;stroke-width:1.35;" width="77.4" x="573.3" y="81"/><ellipse cx="586.8" cy="95.4" fill="#ADD1B2" rx="9.9" ry="9.9" style="stroke:#A80036;stroke-width:0.9;"/><path d="M588.6,92.25 Q588.7828,91.8 588.9938,91.575 Q589.2047,91.35 589.4438,91.35 Q589.8656,91.35 590.1328,91.6031 Q590.4,91.8563 590.4,92.4469 L590.4,93.8531 Q590.4,94.4438 590.1469,94.6969 Q589.8938,94.95 589.5,94.95 Q589.1484,94.95 588.9234,94.7953 Q588.6984,94.6406 588.6,94.2328 Q588.5578,93.9516 588.4031,93.7969 Q588.1219,93.5016 587.6156,93.3328 Q587.1094,93.15 586.6031,93.15 Q585.9703,93.15 585.4359,93.4031 Q584.9156,93.6563 584.5078,94.2188 Q584.1,94.7813 584.1,95.5547 L584.1,96.3844 Q584.1,97.3125 584.8594,97.9313 Q585.6188,98.55 586.9688,98.55 Q587.7703,98.55 588.3328,98.3672 Q588.6563,98.2688 589.0219,97.9453 Q589.2609,97.7625 589.3875,97.7063 Q589.5141,97.65 589.6688,97.65 Q589.9641,97.65 590.175,97.8891 Q590.4,98.1141 590.4,98.4375 Q590.4,98.7469 590.0906,99.1125 Q589.6406,99.6469 588.9234,99.9422 Q587.9813,100.35 586.8281,100.35 Q585.4781,100.35 584.3953,99.8156 Q583.5234,99.3938 582.9047,98.4797 Q582.3,97.5656 582.3,96.4828 L582.3,95.4984 Q582.3,94.3734 582.8344,93.3891 Q583.3828,92.4047 584.325,91.8844 Q585.2813,91.35 586.35,91.35 Q586.9969,91.35 587.5594,91.575 Q588.1219,91.8 588.6,92.25 Z " fill="#000000"/><text fill="#000000" font-family="sans-serif" font-size="10.8" lengthAdjust="spacing" textLength="48.6" x="599.4" y="99.8191">Container</text><line style="stroke:#A80036;stroke-width:1.35;" x1="574.2" x2="649.8" y1="109.8" y2="109.8"/><rect fill="none" height="5.4" style="stroke:#C82930;stroke-width:0.9;" width="5.4" x="580.5" y="117"/><text fill="#000000" font-family="sans-serif" font-size="9.9" lengthAdjust="spacing" textLength="39.6" x="591.3" y="123.6771">iso_code</text><rect fill="none" height="5.4" style="stroke:#C82930;stroke-width:0.9;" width="5.4" x="580.5" y="129.4523"/><text fill="#000000" font-family="sans-serif" font-size="9.9" lengthAdjust="spacing" textLength="53.1" x="591.3" y="136.1294">refrigeration</text><rect fill="none" height="5.4" style="stroke:#C82930;stroke-width:0.9;" width="5.4" x="580.5" y="141.9047"/><text fill="#000000" font-family="sans-serif" font-size="9.9" lengthAdjust="spacing" textLength="52.2" x="591.3" y="148.5817">temperature</text><rect fill="none" height="5.4" style="stroke:#C82930;stroke-width:0.9;" width="5.4" x="580.5" y="154.357"/><text fill="#000000" font-family="sans-serif" font-size="9.9" lengthAdjust="spacing" textLength="34.2" x="591.3" y="161.0341">payload</text><rect fill="none" height="5.4" style="stroke:#C82930;stroke-width:0.9;" width="5.4" x="580.5" y="166.8094"/><text fill="#000000" font-family="sans-serif" font-size="9.9" lengthAdjust="spacing" textLength="17.1" x="591.3" y="173.4864">tare</text><rect fill="none" height="5.4" style="stroke:#C82930;stroke-width:0.9;" width="5.4" x="580.5" y="179.2617"/><text fill="#000000" font-family="sans-serif" font-size="9.9" lengthAdjust="spacing" textLength="25.2" x="591.3" y="185.9388">gross</text><line style="stroke:#A80036;stroke-width:1.35;" x1="574.2" x2="649.8" y1="191.7141" y2="191.7141"/><!--MD5=[bc6d56fff33115396b36caccb440b7b0]
class Manifest--><rect codeLine="35" fill="#FEFECE" filter="url(#f1xb9q5rybrkun)" height="80.557" id="Manifest" style="stroke:#A80036;stroke-width:1.35;" width="70.2" x="471.6" y="99.45"/><ellipse cx="485.1" cy="113.85" fill="#ADD1B2" rx="9.9" ry="9.9" style="stroke:#A80036;stroke-width:0.9;"/><path d="M486.9,110.7 Q487.0828,110.25 487.2938,110.025 Q487.5047,109.8 487.7438,109.8 Q488.1656,109.8 488.4328,110.0531 Q488.7,110.3063 488.7,110.8969 L488.7,112.3031 Q488.7,112.8938 488.4469,113.1469 Q488.1938,113.4 487.8,113.4 Q487.4484,113.4 487.2234,113.2453 Q486.9984,113.0906 486.9,112.6828 Q486.8578,112.4016 486.7031,112.2469 Q486.4219,111.9516 485.9156,111.7828 Q485.4094,111.6 484.9031,111.6 Q484.2703,111.6 483.7359,111.8531 Q483.2156,112.1063 482.8078,112.6688 Q482.4,113.2313 482.4,114.0047 L482.4,114.8344 Q482.4,115.7625 483.1594,116.3813 Q483.9188,117 485.2688,117 Q486.0703,117 486.6328,116.8172 Q486.9563,116.7188 487.3219,116.3953 Q487.5609,116.2125 487.6875,116.1563 Q487.8141,116.1 487.9688,116.1 Q488.2641,116.1 488.475,116.3391 Q488.7,116.5641 488.7,116.8875 Q488.7,117.1969 488.3906,117.5625 Q487.9406,118.0969 487.2234,118.3922 Q486.2813,118.8 485.1281,118.8 Q483.7781,118.8 482.6953,118.2656 Q481.8234,117.8438 481.2047,116.9297 Q480.6,116.0156 480.6,114.9328 L480.6,113.9484 Q480.6,112.8234 481.1344,111.8391 Q481.6828,110.8547 482.625,110.3344 Q483.5813,109.8 484.65,109.8 Q485.2969,109.8 485.8594,110.025 Q486.4219,110.25 486.9,110.7 Z " fill="#000000"/><text fill="#000000" font-family="sans-serif" font-size="10.8" lengthAdjust="spacing" textLength="41.4" x="497.7" y="118.2691">Manifest</text><line style="stroke:#A80036;stroke-width:1.35;" x1="472.5" x2="540.9" y1="128.25" y2="128.25"/><rect fill="none" height="5.4" style="stroke:#C82930;stroke-width:0.9;" width="5.4" x="478.8" y="135.45"/><text fill="#000000" font-family="sans-serif" font-size="9.9" lengthAdjust="spacing" textLength="18.9" x="489.6" y="142.1271">date</text><rect fill="none" height="5.4" style="stroke:#C82930;stroke-width:0.9;" width="5.4" x="478.8" y="147.9023"/><text fill="#000000" font-family="sans-serif" font-size="9.9" lengthAdjust="spacing" textLength="25.2" x="489.6" y="154.5794">gross</text><rect fill="none" height="5.4" style="stroke:#C82930;stroke-width:0.9;" width="5.4" x="478.8" y="160.3547"/><text fill="#000000" font-family="sans-serif" font-size="9.9" lengthAdjust="spacing" textLength="33.3" x="489.6" y="167.0317">position</text><line style="stroke:#A80036;stroke-width:1.35;" x1="472.5" x2="540.9" y1="172.807" y2="172.807"/><!--MD5=[0dc7f2ddb409b58bcf52b12238c25399]
class Ship--><rect codeLine="41" fill="#FEFECE" filter="url(#f1xb9q5rybrkun)" height="267.3422" id="Ship" style="stroke:#A80036;stroke-width:1.35;" width="101.7" x="337.95" y="6.3"/><ellipse cx="374.13" cy="20.7" fill="#ADD1B2" rx="9.9" ry="9.9" style="stroke:#A80036;stroke-width:0.9;"/><path d="M375.93,17.55 Q376.1128,17.1 376.3238,16.875 Q376.5347,16.65 376.7738,16.65 Q377.1956,16.65 377.4628,16.9031 Q377.73,17.1563 377.73,17.7469 L377.73,19.1531 Q377.73,19.7438 377.4769,19.9969 Q377.2238,20.25 376.83,20.25 Q376.4784,20.25 376.2534,20.0953 Q376.0284,19.9406 375.93,19.5328 Q375.8878,19.2516 375.7331,19.0969 Q375.4519,18.8016 374.9456,18.6328 Q374.4394,18.45 373.9331,18.45 Q373.3003,18.45 372.7659,18.7031 Q372.2456,18.9563 371.8378,19.5188 Q371.43,20.0813 371.43,20.8547 L371.43,21.6844 Q371.43,22.6125 372.1894,23.2313 Q372.9488,23.85 374.2988,23.85 Q375.1003,23.85 375.6628,23.6672 Q375.9863,23.5688 376.3519,23.2453 Q376.5909,23.0625 376.7175,23.0063 Q376.8441,22.95 376.9988,22.95 Q377.2941,22.95 377.505,23.1891 Q377.73,23.4141 377.73,23.7375 Q377.73,24.0469 377.4206,24.4125 Q376.9706,24.9469 376.2534,25.2422 Q375.3113,25.65 374.1581,25.65 Q372.8081,25.65 371.7253,25.1156 Q370.8534,24.6938 370.2347,23.7797 Q369.63,22.8656 369.63,21.7828 L369.63,20.7984 Q369.63,19.6734 370.1644,18.6891 Q370.7128,17.7047 371.655,17.1844 Q372.6113,16.65 373.68,16.65 Q374.3269,16.65 374.8894,16.875 Q375.4519,17.1 375.93,17.55 Z " fill="#000000"/><text fill="#000000" font-family="sans-serif" font-size="10.8" lengthAdjust="spacing" textLength="22.5" x="391.77" y="25.1191">Ship</text><line style="stroke:#A80036;stroke-width:1.35;" x1="338.85" x2="438.75" y1="35.1" y2="35.1"/><rect fill="none" height="5.4" style="stroke:#C82930;stroke-width:0.9;" width="5.4" x="345.15" y="42.3"/><text fill="#000000" font-family="sans-serif" font-size="9.9" lengthAdjust="spacing" textLength="21.6" x="355.95" y="48.9771">mmsi</text><rect fill="none" height="5.4" style="stroke:#C82930;stroke-width:0.9;" width="5.4" x="345.15" y="54.7523"/><text fill="#000000" font-family="sans-serif" font-size="9.9" lengthAdjust="spacing" textLength="14.4" x="355.95" y="61.4294">imo</text><rect fill="none" height="5.4" style="stroke:#C82930;stroke-width:0.9;" width="5.4" x="345.15" y="67.2047"/><text fill="#000000" font-family="sans-serif" font-size="9.9" lengthAdjust="spacing" textLength="58.5" x="355.95" y="73.8817">n_generators</text><rect fill="none" height="5.4" style="stroke:#C82930;stroke-width:0.9;" width="5.4" x="345.15" y="79.657"/><text fill="#000000" font-family="sans-serif" font-size="9.9" lengthAdjust="spacing" textLength="26.1" x="355.95" y="86.3341">length</text><rect fill="none" height="5.4" style="stroke:#C82930;stroke-width:0.9;" width="5.4" x="345.15" y="92.1094"/><text fill="#000000" font-family="sans-serif" font-size="9.9" lengthAdjust="spacing" textLength="24.3" x="355.95" y="98.7864">width</text><rect fill="none" height="5.4" style="stroke:#C82930;stroke-width:0.9;" width="5.4" x="345.15" y="104.5617"/><text fill="#000000" font-family="sans-serif" font-size="9.9" lengthAdjust="spacing" textLength="58.5" x="355.95" y="111.2388">p_generators</text><rect fill="none" height="5.4" style="stroke:#C82930;stroke-width:0.9;" width="5.4" x="345.15" y="117.0141"/><text fill="#000000" font-family="sans-serif" font-size="9.9" lengthAdjust="spacing" textLength="36.9" x="355.95" y="123.6911">capacity</text><rect fill="none" height="5.4" style="stroke:#C82930;stroke-width:0.9;" width="5.4" x="345.15" y="129.4664"/><text fill="#000000" font-family="sans-serif" font-size="9.9" lengthAdjust="spacing" textLength="46.8" x="355.95" y="136.1435">ship_name</text><rect fill="none" height="5.4" style="stroke:#C82930;stroke-width:0.9;" width="5.4" x="345.15" y="141.9188"/><text fill="#000000" font-family="sans-serif" font-size="9.9" lengthAdjust="spacing" textLength="53.1" x="355.95" y="148.5958">vessel_type</text><rect fill="none" height="5.4" style="stroke:#C82930;stroke-width:0.9;" width="5.4" x="345.15" y="154.3711"/><text fill="#000000" font-family="sans-serif" font-size="9.9" lengthAdjust="spacing" textLength="37.8" x="355.95" y="161.0481">call_sign</text><rect fill="none" height="5.4" style="stroke:#C82930;stroke-width:0.9;" width="5.4" x="345.15" y="166.8234"/><text fill="#000000" font-family="sans-serif" font-size="9.9" lengthAdjust="spacing" textLength="20.7" x="355.95" y="173.5005">draft</text><rect fill="none" height="5.4" style="stroke:#C82930;stroke-width:0.9;" width="5.4" x="345.15" y="179.2758"/><text fill="#000000" font-family="sans-serif" font-size="9.9" lengthAdjust="spacing" textLength="41.4" x="355.95" y="185.9528">date_time</text><rect fill="none" height="5.4" style="stroke:#C82930;stroke-width:0.9;" width="5.4" x="345.15" y="191.7281"/><text fill="#000000" font-family="sans-serif" font-size="9.9" lengthAdjust="spacing" textLength="30.6" x="355.95" y="198.4052">latitude</text><rect fill="none" height="5.4" style="stroke:#C82930;stroke-width:0.9;" width="5.4" x="345.15" y="204.1805"/><text fill="#000000" font-family="sans-serif" font-size="9.9" lengthAdjust="spacing" textLength="38.7" x="355.95" y="210.8575">longitude</text><rect fill="none" height="5.4" style="stroke:#C82930;stroke-width:0.9;" width="5.4" x="345.15" y="216.6328"/><text fill="#000000" font-family="sans-serif" font-size="9.9" lengthAdjust="spacing" textLength="16.2" x="355.95" y="223.3099">sog</text><rect fill="none" height="5.4" style="stroke:#C82930;stroke-width:0.9;" width="5.4" x="345.15" y="229.0852"/><text fill="#000000" font-family="sans-serif" font-size="9.9" lengthAdjust="spacing" textLength="16.2" x="355.95" y="235.7622">cog</text><rect fill="none" height="5.4" style="stroke:#C82930;stroke-width:0.9;" width="5.4" x="345.15" y="241.5375"/><text fill="#000000" font-family="sans-serif" font-size="9.9" lengthAdjust="spacing" textLength="34.2" x="355.95" y="248.2146">heading</text><rect fill="none" height="5.4" style="stroke:#C82930;stroke-width:0.9;" width="5.4" x="345.15" y="253.9898"/><text fill="#000000" font-family="sans-serif" font-size="9.9" lengthAdjust="spacing" textLength="78.3" x="355.95" y="260.6669">transceiver_class</text><line style="stroke:#A80036;stroke-width:1.35;" x1="338.85" x2="438.75" y1="266.4422" y2="266.4422"/><!--MD5=[02e4b9b7573f1156f41e60aa5b4e25a4]
class Company--><rect codeLine="62" fill="#FEFECE" filter="url(#f1xb9q5rybrkun)" height="55.6523" id="Company" style="stroke:#A80036;stroke-width:1.35;" width="76.5" x="229.95" y="112.05"/><ellipse cx="243.45" cy="126.45" fill="#ADD1B2" rx="9.9" ry="9.9" style="stroke:#A80036;stroke-width:0.9;"/><path d="M245.25,123.3 Q245.4328,122.85 245.6438,122.625 Q245.8547,122.4 246.0938,122.4 Q246.5156,122.4 246.7828,122.6531 Q247.05,122.9063 247.05,123.4969 L247.05,124.9031 Q247.05,125.4938 246.7969,125.7469 Q246.5438,126 246.15,126 Q245.7984,126 245.5734,125.8453 Q245.3484,125.6906 245.25,125.2828 Q245.2078,125.0016 245.0531,124.8469 Q244.7719,124.5516 244.2656,124.3828 Q243.7594,124.2 243.2531,124.2 Q242.6203,124.2 242.0859,124.4531 Q241.5656,124.7063 241.1578,125.2688 Q240.75,125.8313 240.75,126.6047 L240.75,127.4344 Q240.75,128.3625 241.5094,128.9813 Q242.2688,129.6 243.6188,129.6 Q244.4203,129.6 244.9828,129.4172 Q245.3063,129.3188 245.6719,128.9953 Q245.9109,128.8125 246.0375,128.7563 Q246.1641,128.7 246.3188,128.7 Q246.6141,128.7 246.825,128.9391 Q247.05,129.1641 247.05,129.4875 Q247.05,129.7969 246.7406,130.1625 Q246.2906,130.6969 245.5734,130.9922 Q244.6313,131.4 243.4781,131.4 Q242.1281,131.4 241.0453,130.8656 Q240.1734,130.4438 239.5547,129.5297 Q238.95,128.6156 238.95,127.5328 L238.95,126.5484 Q238.95,125.4234 239.4844,124.4391 Q240.0328,123.4547 240.975,122.9344 Q241.9313,122.4 243,122.4 Q243.6469,122.4 244.2094,122.625 Q244.7719,122.85 245.25,123.3 Z " fill="#000000"/><text fill="#000000" font-family="sans-serif" font-size="10.8" lengthAdjust="spacing" textLength="47.7" x="256.05" y="130.8691">Company</text><line style="stroke:#A80036;stroke-width:1.35;" x1="230.85" x2="305.55" y1="140.85" y2="140.85"/><rect fill="none" height="5.4" style="stroke:#C82930;stroke-width:0.9;" width="5.4" x="237.15" y="148.05"/><text fill="#000000" font-family="sans-serif" font-size="9.9" lengthAdjust="spacing" textLength="23.4" x="247.95" y="154.7271">name</text><line style="stroke:#A80036;stroke-width:1.35;" x1="230.85" x2="305.55" y1="160.5023" y2="160.5023"/><!--MD5=[bc7c05f31c243bd25c89b072cb7ec92c]
class Workers--><rect codeLine="17" fill="#FEFECE" filter="url(#f1xb9q5rybrkun)" height="117.9141" id="Workers" style="stroke:#A80036;stroke-width:1.35;" width="70.2" x="127.8" y="81"/><ellipse cx="141.3" cy="95.4" fill="#ADD1B2" rx="9.9" ry="9.9" style="stroke:#A80036;stroke-width:0.9;"/><path d="M143.1,92.25 Q143.2828,91.8 143.4938,91.575 Q143.7047,91.35 143.9438,91.35 Q144.3656,91.35 144.6328,91.6031 Q144.9,91.8563 144.9,92.4469 L144.9,93.8531 Q144.9,94.4438 144.6469,94.6969 Q144.3938,94.95 144,94.95 Q143.6484,94.95 143.4234,94.7953 Q143.1984,94.6406 143.1,94.2328 Q143.0578,93.9516 142.9031,93.7969 Q142.6219,93.5016 142.1156,93.3328 Q141.6094,93.15 141.1031,93.15 Q140.4703,93.15 139.9359,93.4031 Q139.4156,93.6563 139.0078,94.2188 Q138.6,94.7813 138.6,95.5547 L138.6,96.3844 Q138.6,97.3125 139.3594,97.9313 Q140.1188,98.55 141.4688,98.55 Q142.2703,98.55 142.8328,98.3672 Q143.1563,98.2688 143.5219,97.9453 Q143.7609,97.7625 143.8875,97.7063 Q144.0141,97.65 144.1688,97.65 Q144.4641,97.65 144.675,97.8891 Q144.9,98.1141 144.9,98.4375 Q144.9,98.7469 144.5906,99.1125 Q144.1406,99.6469 143.4234,99.9422 Q142.4813,100.35 141.3281,100.35 Q139.9781,100.35 138.8953,99.8156 Q138.0234,99.3938 137.4047,98.4797 Q136.8,97.5656 136.8,96.4828 L136.8,95.4984 Q136.8,94.3734 137.3344,93.3891 Q137.8828,92.4047 138.825,91.8844 Q139.7813,91.35 140.85,91.35 Q141.4969,91.35 142.0594,91.575 Q142.6219,91.8 143.1,92.25 Z " fill="#000000"/><text fill="#000000" font-family="sans-serif" font-size="10.8" lengthAdjust="spacing" textLength="41.4" x="153.9" y="99.8191">Workers</text><line style="stroke:#A80036;stroke-width:1.35;" x1="128.7" x2="197.1" y1="109.8" y2="109.8"/><rect fill="none" height="5.4" style="stroke:#C82930;stroke-width:0.9;" width="5.4" x="135" y="117"/><text fill="#000000" font-family="sans-serif" font-size="9.9" lengthAdjust="spacing" textLength="23.4" x="145.8" y="123.6771">name</text><rect fill="none" height="5.4" style="stroke:#C82930;stroke-width:0.9;" width="5.4" x="135" y="129.4523"/><text fill="#000000" font-family="sans-serif" font-size="9.9" lengthAdjust="spacing" textLength="43.2" x="145.8" y="136.1294">birth_date</text><rect fill="none" height="5.4" style="stroke:#C82930;stroke-width:0.9;" width="5.4" x="135" y="141.9047"/><text fill="#000000" font-family="sans-serif" font-size="9.9" lengthAdjust="spacing" textLength="21.6" x="145.8" y="148.5817">email</text><rect fill="none" height="5.4" style="stroke:#C82930;stroke-width:0.9;" width="5.4" x="135" y="154.357"/><text fill="#000000" font-family="sans-serif" font-size="9.9" lengthAdjust="spacing" textLength="36" x="145.8" y="161.0341">address</text><rect fill="none" height="5.4" style="stroke:#C82930;stroke-width:0.9;" width="5.4" x="135" y="166.8094"/><text fill="#000000" font-family="sans-serif" font-size="9.9" lengthAdjust="spacing" textLength="27" x="145.8" y="173.4864">phone</text><rect fill="none" height="5.4" style="stroke:#C82930;stroke-width:0.9;" width="5.4" x="135" y="179.2617"/><text fill="#000000" font-family="sans-serif" font-size="9.9" lengthAdjust="spacing" textLength="27" x="145.8" y="185.9388">salary</text><line style="stroke:#A80036;stroke-width:1.35;" x1="128.7" x2="197.1" y1="191.7141" y2="191.7141"/><!--MD5=[256e76932d24c698c372b06f459f4140]
reverse link ShipCaptain to Workers--><path codeLine="10" d="M101.25,139.95 C110.061,139.95 118.881,139.95 127.701,139.95 " fill="none" id="ShipCaptain-backto-Workers" style="stroke:#A80036;stroke-width:0.9;"/><polygon fill="#A80036" points="96.642,139.95,104.7523,143.5268,101.142,139.9371,104.7317,136.3269,96.642,139.95" style="stroke:#A80036;stroke-width:0.9;"/><!--MD5=[d5604eaad7ba2c5e8683bc6121dea734]
reverse link Workers to Company--><path codeLine="11" d="M202.941,139.95 C211.851,139.95 220.77,139.95 229.689,139.95 " fill="none" id="Workers-backto-Company" style="stroke:#A80036;stroke-width:0.9;"/><polygon fill="#A80036" points="198.27,139.95,206.37,143.55,202.77,139.95,206.37,136.35,198.27,139.95" style="stroke:#A80036;stroke-width:0.9;"/><!--MD5=[91a7dc353c8fcfe2ece624338356ce88]
reverse link Company to Ship--><path codeLine="12" d="M311.22,139.95 C320.058,139.95 328.905,139.95 337.743,139.95 " fill="none" id="Company-backto-Ship" style="stroke:#A80036;stroke-width:0.9;"/><polygon fill="#A80036" points="306.594,139.95,314.694,143.55,311.094,139.95,314.694,136.35,306.594,139.95" style="stroke:#A80036;stroke-width:0.9;"/><!--MD5=[2b818bdc3cb92feb37a817f104ff2a14]
reverse link Ship to Manifest--><path codeLine="13" d="M444.393,139.95 C453.384,139.95 462.375,139.95 471.366,139.95 " fill="none" id="Ship-backto-Manifest" style="stroke:#A80036;stroke-width:0.9;"/><polygon fill="#A80036" points="439.686,139.95,447.786,143.55,444.186,139.95,447.786,136.35,439.686,139.95" style="stroke:#A80036;stroke-width:0.9;"/><!--MD5=[7babe40846c929a5000a8edc0f2ae508]
reverse link Manifest to Container--><path codeLine="14" d="M546.696,139.95 C555.534,139.95 564.372,139.95 573.21,139.95 " fill="none" id="Manifest-backto-Container" style="stroke:#A80036;stroke-width:0.9;"/><polygon fill="#A80036" points="542.07,139.95,550.17,143.55,546.57,139.95,550.17,136.35,542.07,139.95" style="stroke:#A80036;stroke-width:0.9;"/><!--MD5=[1a9fe9b18c7e9195bd8693ca3990368c]
@startuml
'https://plantuml.com/class-diagram

class ShipCaptain
class Container
class Manifest
class Ship
class Company
class Workers

ShipCaptain <- Workers
Workers <- Company
Company <- Ship
Ship <- Manifest
Manifest <- Container


class Workers {
-name
-birth_date
-email
-address
-phone
-salary
}

class Container {
-iso_code
-refrigeration
-temperature
-payload
-tare
-gross
}

class Manifest {
-date
-gross
-position
}

class Ship {
-mmsi
-imo
-n_generators
-length
-width
-p_generators
-capacity
-ship_name
-vessel_type
-call_sign
-draft
-date_time
-latitude
-longitude
-sog
-cog
-heading
-transceiver_class
}

class Company {
-name
}


@enduml

@startuml

class ShipCaptain
class Container
class Manifest
class Ship
class Company
class Workers

ShipCaptain <- Workers
Workers <- Company
Company <- Ship
Ship <- Manifest
Manifest <- Container


class Workers {
-name
-birth_date
-email
-address
-phone
-salary
}

class Container {
-iso_code
-refrigeration
-temperature
-payload
-tare
-gross
}

class Manifest {
-date
-gross
-position
}

class Ship {
-mmsi
-imo
-n_generators
-length
-width
-p_generators
-capacity
-ship_name
-vessel_type
-call_sign
-draft
-date_time
-latitude
-longitude
-sog
-cog
-heading
-transceiver_class
}

class Company {
-name
}


@enduml

PlantUML version 1.2021.11(Sat Oct 02 14:26:11 BST 2021)
(GPL source distribution)
Java Runtime: OpenJDK Runtime Environment
JVM: OpenJDK 64-Bit Server VM
Default Encoding: Cp1252
Language: pt
Country: PT
--></g></svg>