<?xml version="1.0" encoding="UTF-8" standalone="no"?><svg xmlns="http://www.w3.org/2000/svg" xmlns:xlink="http://www.w3.org/1999/xlink" contentScriptType="application/ecmascript" contentStyleType="text/css" height="468px" preserveAspectRatio="none" style="width:2167px;height:468px;background:#FFFFFF;" version="1.1" viewBox="0 0 2167 468" width="2167px" zoomAndPan="magnify"><defs><filter height="300%" id="f1597izx85xi3x" width="300%" x="-1" y="-1"><feGaussianBlur result="blurOut" stdDeviation="2.0"/><feColorMatrix in="blurOut" result="blurOut2" type="matrix" values="0 0 0 0 0 0 0 0 0 0 0 0 0 0 0 0 0 0 .4 0"/><feOffset dx="4.0" dy="4.0" in="blurOut2" result="blurOut3"/><feBlend in="SourceGraphic" in2="blurOut3" mode="normal"/></filter></defs><g><rect fill="#FFFFFF" filter="url(#f1597izx85xi3x)" height="274.1641" style="stroke:#A80036;stroke-width:1.0;" width="10" x="41.5" y="99.6094"/><rect fill="#FFFFFF" filter="url(#f1597izx85xi3x)" height="30.3516" style="stroke:#A80036;stroke-width:1.0;" width="10" x="841.5" y="121.9609"/><rect fill="#FFFFFF" filter="url(#f1597izx85xi3x)" height="182.1094" style="stroke:#A80036;stroke-width:1.0;" width="10" x="841.5" y="182.6641"/><rect fill="#FFFFFF" filter="url(#f1597izx85xi3x)" height="121.4063" style="stroke:#A80036;stroke-width:1.0;" width="10" x="1270.5" y="213.0156"/><rect fill="#FFFFFF" filter="url(#f1597izx85xi3x)" height="30.3516" style="stroke:#A80036;stroke-width:1.0;" width="10" x="1412.5" y="243.3672"/><rect fill="#FFFFFF" filter="url(#f1597izx85xi3x)" height="30.3516" style="stroke:#A80036;stroke-width:1.0;" width="10" x="2125.5" y="273.7188"/><line style="stroke:#A80036;stroke-width:1.0;stroke-dasharray:5.0,5.0;" x1="46" x2="46" y1="89.6094" y2="382.7734"/><line style="stroke:#A80036;stroke-width:1.0;stroke-dasharray:5.0,5.0;" x1="846.5" x2="846.5" y1="89.6094" y2="382.7734"/><line style="stroke:#A80036;stroke-width:1.0;stroke-dasharray:5.0,5.0;" x1="1275.5" x2="1275.5" y1="89.6094" y2="382.7734"/><line style="stroke:#A80036;stroke-width:1.0;stroke-dasharray:5.0,5.0;" x1="1417.5" x2="1417.5" y1="89.6094" y2="382.7734"/><line style="stroke:#A80036;stroke-width:1.0;stroke-dasharray:5.0,5.0;" x1="2130.5" x2="2130.5" y1="89.6094" y2="382.7734"/><text fill="#000000" font-family="sans-serif" font-size="14" lengthAdjust="spacing" textLength="77" x="5" y="86.5332">ShipCaptain</text><ellipse cx="46.5" cy="15" fill="#FEFECE" filter="url(#f1597izx85xi3x)" rx="8" ry="8" style="stroke:#A80036;stroke-width:2.0;"/><path d="M46.5,23 L46.5,50 M33.5,31 L59.5,31 M46.5,50 L33.5,65 M46.5,50 L59.5,65 " fill="none" filter="url(#f1597izx85xi3x)" style="stroke:#A80036;stroke-width:2.0;"/><text fill="#000000" font-family="sans-serif" font-size="14" lengthAdjust="spacing" textLength="77" x="5" y="396.3066">ShipCaptain</text><ellipse cx="46.5" cy="409.3828" fill="#FEFECE" filter="url(#f1597izx85xi3x)" rx="8" ry="8" style="stroke:#A80036;stroke-width:2.0;"/><path d="M46.5,417.3828 L46.5,444.3828 M33.5,425.3828 L59.5,425.3828 M46.5,444.3828 L33.5,459.3828 M46.5,444.3828 L59.5,459.3828 " fill="none" filter="url(#f1597izx85xi3x)" style="stroke:#A80036;stroke-width:2.0;"/><rect fill="#FEFECE" filter="url(#f1597izx85xi3x)" height="31.6094" style="stroke:#A80036;stroke-width:1.5;" width="30" x="829.5" y="53"/><text fill="#000000" font-family="sans-serif" font-size="14" lengthAdjust="spacing" textLength="16" x="836.5" y="74.5332">:UI</text><rect fill="#FEFECE" filter="url(#f1597izx85xi3x)" height="31.6094" style="stroke:#A80036;stroke-width:1.5;" width="30" x="829.5" y="381.7734"/><text fill="#000000" font-family="sans-serif" font-size="14" lengthAdjust="spacing" textLength="16" x="836.5" y="403.3066">:UI</text><rect fill="#FEFECE" filter="url(#f1597izx85xi3x)" height="31.6094" style="stroke:#A80036;stroke-width:1.5;" width="80" x="1233.5" y="53"/><text fill="#000000" font-family="sans-serif" font-size="14" lengthAdjust="spacing" textLength="66" x="1240.5" y="74.5332">:Controller</text><rect fill="#FEFECE" filter="url(#f1597izx85xi3x)" height="31.6094" style="stroke:#A80036;stroke-width:1.5;" width="80" x="1233.5" y="381.7734"/><text fill="#000000" font-family="sans-serif" font-size="14" lengthAdjust="spacing" textLength="66" x="1240.5" y="403.3066">:Controller</text><rect fill="#FEFECE" filter="url(#f1597izx85xi3x)" height="31.6094" style="stroke:#A80036;stroke-width:1.5;" width="132" x="1349.5" y="53"/><text fill="#000000" font-family="sans-serif" font-size="14" lengthAdjust="spacing" textLength="118" x="1356.5" y="74.5332">:qtCargoManifest()</text><rect fill="#FEFECE" filter="url(#f1597izx85xi3x)" height="31.6094" style="stroke:#A80036;stroke-width:1.5;" width="132" x="1349.5" y="381.7734"/><text fill="#000000" font-family="sans-serif" font-size="14" lengthAdjust="spacing" textLength="118" x="1356.5" y="403.3066">:qtCargoManifest()</text><text fill="#000000" font-family="sans-serif" font-size="14" lengthAdjust="spacing" textLength="66" x="2094.5" y="86.5332">:DataBase</text><path d="M2112.5,36 C2112.5,26 2130.5,26 2130.5,26 C2130.5,26 2148.5,26 2148.5,36 L2148.5,62 C2148.5,72 2130.5,72 2130.5,72 C2130.5,72 2112.5,72 2112.5,62 L2112.5,36 " fill="#FEFECE" filter="url(#f1597izx85xi3x)" style="stroke:#000000;stroke-width:1.5;"/><path d="M2112.5,36 C2112.5,46 2130.5,46 2130.5,46 C2130.5,46 2148.5,46 2148.5,36 " fill="none" style="stroke:#000000;stroke-width:1.5;"/><text fill="#000000" font-family="sans-serif" font-size="14" lengthAdjust="spacing" textLength="66" x="2094.5" y="396.3066">:DataBase</text><path d="M2112.5,409.3828 C2112.5,399.3828 2130.5,399.3828 2130.5,399.3828 C2130.5,399.3828 2148.5,399.3828 2148.5,409.3828 L2148.5,435.3828 C2148.5,445.3828 2130.5,445.3828 2130.5,445.3828 C2130.5,445.3828 2112.5,445.3828 2112.5,435.3828 L2112.5,409.3828 " fill="#FEFECE" filter="url(#f1597izx85xi3x)" style="stroke:#000000;stroke-width:1.5;"/><path d="M2112.5,409.3828 C2112.5,419.3828 2130.5,419.3828 2130.5,419.3828 C2130.5,419.3828 2148.5,419.3828 2148.5,409.3828 " fill="none" style="stroke:#000000;stroke-width:1.5;"/><rect fill="#FFFFFF" filter="url(#f1597izx85xi3x)" height="274.1641" style="stroke:#A80036;stroke-width:1.0;" width="10" x="41.5" y="99.6094"/><rect fill="#FFFFFF" filter="url(#f1597izx85xi3x)" height="30.3516" style="stroke:#A80036;stroke-width:1.0;" width="10" x="841.5" y="121.9609"/><rect fill="#FFFFFF" filter="url(#f1597izx85xi3x)" height="182.1094" style="stroke:#A80036;stroke-width:1.0;" width="10" x="841.5" y="182.6641"/><rect fill="#FFFFFF" filter="url(#f1597izx85xi3x)" height="121.4063" style="stroke:#A80036;stroke-width:1.0;" width="10" x="1270.5" y="213.0156"/><rect fill="#FFFFFF" filter="url(#f1597izx85xi3x)" height="30.3516" style="stroke:#A80036;stroke-width:1.0;" width="10" x="1412.5" y="243.3672"/><rect fill="#FFFFFF" filter="url(#f1597izx85xi3x)" height="30.3516" style="stroke:#A80036;stroke-width:1.0;" width="10" x="2125.5" y="273.7188"/><polygon fill="#A80036" points="829.5,117.9609,839.5,121.9609,829.5,125.9609,833.5,121.9609" style="stroke:#A80036;stroke-width:1.0;"/><line style="stroke:#A80036;stroke-width:1.0;" x1="51.5" x2="835.5" y1="121.9609" y2="121.9609"/><text fill="#000000" font-family="sans-serif" font-size="13" font-weight="bold" lengthAdjust="spacing" textLength="7" x="58.5" y="117.1045">1</text><text fill="#000000" font-family="sans-serif" font-size="13" lengthAdjust="spacing" textLength="760" x="69.5" y="117.1045">Asks to search how many cargo manifests have been transported in a given year and the average number of containers per manifest</text><polygon fill="#A80036" points="62.5,148.3125,52.5,152.3125,62.5,156.3125,58.5,152.3125" style="stroke:#A80036;stroke-width:1.0;"/><line style="stroke:#A80036;stroke-width:1.0;stroke-dasharray:2.0,2.0;" x1="56.5" x2="845.5" y1="152.3125" y2="152.3125"/><text fill="#000000" font-family="sans-serif" font-size="13" font-weight="bold" lengthAdjust="spacing" textLength="7" x="68.5" y="147.4561">2</text><text fill="#000000" font-family="sans-serif" font-size="13" lengthAdjust="spacing" textLength="135" x="79.5" y="147.4561">Request year to search</text><polygon fill="#A80036" points="829.5,178.6641,839.5,182.6641,829.5,186.6641,833.5,182.6641" style="stroke:#A80036;stroke-width:1.0;"/><line style="stroke:#A80036;stroke-width:1.0;" x1="51.5" x2="835.5" y1="182.6641" y2="182.6641"/><text fill="#000000" font-family="sans-serif" font-size="13" font-weight="bold" lengthAdjust="spacing" textLength="7" x="58.5" y="177.8076">3</text><text fill="#000000" font-family="sans-serif" font-size="13" lengthAdjust="spacing" textLength="119" x="69.5" y="177.8076">Insert year to search</text><polygon fill="#A80036" points="1258.5,209.0156,1268.5,213.0156,1258.5,217.0156,1262.5,213.0156" style="stroke:#A80036;stroke-width:1.0;"/><line style="stroke:#A80036;stroke-width:1.0;" x1="851.5" x2="1264.5" y1="213.0156" y2="213.0156"/><text fill="#000000" font-family="sans-serif" font-size="13" font-weight="bold" lengthAdjust="spacing" textLength="7" x="858.5" y="208.1592">4</text><text fill="#000000" font-family="sans-serif" font-size="13" lengthAdjust="spacing" textLength="102" x="869.5" y="208.1592">qtCargoManifest()</text><polygon fill="#A80036" points="1400.5,239.3672,1410.5,243.3672,1400.5,247.3672,1404.5,243.3672" style="stroke:#A80036;stroke-width:1.0;"/><line style="stroke:#A80036;stroke-width:1.0;" x1="1280.5" x2="1406.5" y1="243.3672" y2="243.3672"/><text fill="#000000" font-family="sans-serif" font-size="13" font-weight="bold" lengthAdjust="spacing" textLength="7" x="1287.5" y="238.5107">5</text><text fill="#000000" font-family="sans-serif" font-size="13" lengthAdjust="spacing" textLength="102" x="1298.5" y="238.5107">qtCargoManifest()</text><polygon fill="#A80036" points="2113.5,269.7188,2123.5,273.7188,2113.5,277.7188,2117.5,273.7188" style="stroke:#A80036;stroke-width:1.0;"/><line style="stroke:#A80036;stroke-width:1.0;" x1="1417.5" x2="2119.5" y1="273.7188" y2="273.7188"/><text fill="#000000" font-family="sans-serif" font-size="13" font-weight="bold" lengthAdjust="spacing" textLength="7" x="1424.5" y="268.8623">6</text><text fill="#000000" font-family="sans-serif" font-size="13" lengthAdjust="spacing" textLength="673" x="1435.5" y="268.8623">query to search how many cargo manifests there were transported in the year and average of containers per manifest</text><polygon fill="#A80036" points="1291.5,300.0703,1281.5,304.0703,1291.5,308.0703,1287.5,304.0703" style="stroke:#A80036;stroke-width:1.0;"/><line style="stroke:#A80036;stroke-width:1.0;stroke-dasharray:2.0,2.0;" x1="1285.5" x2="2129.5" y1="304.0703" y2="304.0703"/><text fill="#000000" font-family="sans-serif" font-size="13" font-weight="bold" lengthAdjust="spacing" textLength="7" x="1297.5" y="299.2139">7</text><text fill="#000000" font-family="sans-serif" font-size="13" lengthAdjust="spacing" textLength="384" x="1308.5" y="299.2139">return cargo manifest quantity and average containers per manifest</text><polygon fill="#A80036" points="862.5,330.4219,852.5,334.4219,862.5,338.4219,858.5,334.4219" style="stroke:#A80036;stroke-width:1.0;"/><line style="stroke:#A80036;stroke-width:1.0;stroke-dasharray:2.0,2.0;" x1="856.5" x2="1274.5" y1="334.4219" y2="334.4219"/><text fill="#000000" font-family="sans-serif" font-size="13" font-weight="bold" lengthAdjust="spacing" textLength="7" x="868.5" y="329.5654">8</text><text fill="#000000" font-family="sans-serif" font-size="13" lengthAdjust="spacing" textLength="384" x="879.5" y="329.5654">return cargo manifest quantity and average containers per manifest</text><polygon fill="#A80036" points="62.5,360.7734,52.5,364.7734,62.5,368.7734,58.5,364.7734" style="stroke:#A80036;stroke-width:1.0;"/><line style="stroke:#A80036;stroke-width:1.0;stroke-dasharray:2.0,2.0;" x1="56.5" x2="845.5" y1="364.7734" y2="364.7734"/><text fill="#000000" font-family="sans-serif" font-size="13" font-weight="bold" lengthAdjust="spacing" textLength="7" x="68.5" y="359.917">9</text><text fill="#000000" font-family="sans-serif" font-size="13" lengthAdjust="spacing" textLength="403" x="79.5" y="359.917">show cargo manifest quantity and the average containers per manifest</text><!--MD5=[65dce9e16eec70761189fb40a4c8cce7]
@startuml
autonumber
actor "ShipCaptain" as ADM

participant ":UI" as ui
participant ":Controller" as ctrl
participant ":qtCargoManifest()" as model
database ":DataBase" as db


activate ADM
ADM -> ui : Asks to search how many cargo manifests have been transported in a given year and the average number of containers per manifest

activate ui
ui - -> ADM : Request year to search
deactivate ui
ADM -> ui : Insert year to search
activate ui

ui -> ctrl : qtCargoManifest()
activate ctrl
ctrl -> model : qtCargoManifest()
activate model
model -> db : query to search how many cargo manifests there were transported in the year and average of containers per manifest
deactivate model
activate db
db - -> ctrl : return cargo manifest quantity and average containers per manifest
deactivate db
ctrl - -> ui : return cargo manifest quantity and average containers per manifest
deactivate ctrl
ui - -> ADM : show cargo manifest quantity and the average containers per manifest

deactivate ui

@enduml

PlantUML version 1.2021.11(Sat Oct 02 14:26:11 BST 2021)
(GPL source distribution)
Java Runtime: OpenJDK Runtime Environment
JVM: OpenJDK 64-Bit Server VM
Default Encoding: Cp1252
Language: pt
Country: PT
--></g></svg>