<?xml version="1.0" encoding="UTF-8" standalone="no"?><svg xmlns="http://www.w3.org/2000/svg" xmlns:xlink="http://www.w3.org/1999/xlink" contentScriptType="application/ecmascript" contentStyleType="text/css" height="448px" preserveAspectRatio="none" style="width:178px;height:448px;background:#FFFFFF;" version="1.1" viewBox="0 0 178 448" width="178px" zoomAndPan="magnify"><defs><filter height="300%" id="f1td2gj3k01qqr" width="300%" x="-1" y="-1"><feGaussianBlur result="blurOut" stdDeviation="2.0"/><feColorMatrix in="blurOut" result="blurOut2" type="matrix" values="0 0 0 0 0 0 0 0 0 0 0 0 0 0 0 0 0 0 .4 0"/><feOffset dx="4.0" dy="4.0" in="blurOut2" result="blurOut3"/><feBlend in="SourceGraphic" in2="blurOut3" mode="normal"/></filter></defs><g><!--MD5=[df76e760f2062188d44f98c21a88999b]
class UI--><rect codeLine="1" fill="#FEFECE" filter="url(#f1td2gj3k01qqr)" height="48" id="UI" style="stroke:#A80036;stroke-width:1.5;" width="44" x="63.5" y="7"/><ellipse cx="78.5" cy="23" fill="#ADD1B2" rx="11" ry="11" style="stroke:#A80036;stroke-width:1.0;"/><path d="M80.5,19.5 Q80.7031,19 80.9375,18.75 Q81.1719,18.5 81.4375,18.5 Q81.9063,18.5 82.2031,18.7813 Q82.5,19.0625 82.5,19.7188 L82.5,21.2813 Q82.5,21.9375 82.2188,22.2188 Q81.9375,22.5 81.5,22.5 Q81.1094,22.5 80.8594,22.3281 Q80.6094,22.1563 80.5,21.7031 Q80.4531,21.3906 80.2813,21.2188 Q79.9688,20.8906 79.4063,20.7031 Q78.8438,20.5 78.2813,20.5 Q77.5781,20.5 76.9844,20.7813 Q76.4063,21.0625 75.9531,21.6875 Q75.5,22.3125 75.5,23.1719 L75.5,24.0938 Q75.5,25.125 76.3438,25.8125 Q77.1875,26.5 78.6875,26.5 Q79.5781,26.5 80.2031,26.2969 Q80.5625,26.1875 80.9688,25.8281 Q81.2344,25.625 81.375,25.5625 Q81.5156,25.5 81.6875,25.5 Q82.0156,25.5 82.25,25.7656 Q82.5,26.0156 82.5,26.375 Q82.5,26.7188 82.1563,27.125 Q81.6563,27.7188 80.8594,28.0469 Q79.8125,28.5 78.5313,28.5 Q77.0313,28.5 75.8281,27.9063 Q74.8594,27.4375 74.1719,26.4219 Q73.5,25.4063 73.5,24.2031 L73.5,23.1094 Q73.5,21.8594 74.0938,20.7656 Q74.7031,19.6719 75.75,19.0938 Q76.8125,18.5 78,18.5 Q78.7188,18.5 79.3438,18.75 Q79.9688,19 80.5,19.5 Z " fill="#000000"/><text fill="#000000" font-family="sans-serif" font-size="12" lengthAdjust="spacing" textLength="12" x="92.5" y="27.9102">UI</text><line style="stroke:#A80036;stroke-width:1.5;" x1="64.5" x2="106.5" y1="39" y2="39"/><line style="stroke:#A80036;stroke-width:1.5;" x1="64.5" x2="106.5" y1="47" y2="47"/><!--MD5=[1d7ba1c7002d54515419844fbd155368]
class Controller--><rect codeLine="4" fill="#FEFECE" filter="url(#f1td2gj3k01qqr)" height="75.6719" id="Controller" style="stroke:#A80036;stroke-width:1.5;" width="157" x="7" y="115"/><ellipse cx="54.25" cy="131" fill="#ADD1B2" rx="11" ry="11" style="stroke:#A80036;stroke-width:1.0;"/><path d="M56.25,127.5 Q56.4531,127 56.6875,126.75 Q56.9219,126.5 57.1875,126.5 Q57.6563,126.5 57.9531,126.7813 Q58.25,127.0625 58.25,127.7188 L58.25,129.2813 Q58.25,129.9375 57.9688,130.2188 Q57.6875,130.5 57.25,130.5 Q56.8594,130.5 56.6094,130.3281 Q56.3594,130.1563 56.25,129.7031 Q56.2031,129.3906 56.0313,129.2188 Q55.7188,128.8906 55.1563,128.7031 Q54.5938,128.5 54.0313,128.5 Q53.3281,128.5 52.7344,128.7813 Q52.1563,129.0625 51.7031,129.6875 Q51.25,130.3125 51.25,131.1719 L51.25,132.0938 Q51.25,133.125 52.0938,133.8125 Q52.9375,134.5 54.4375,134.5 Q55.3281,134.5 55.9531,134.2969 Q56.3125,134.1875 56.7188,133.8281 Q56.9844,133.625 57.125,133.5625 Q57.2656,133.5 57.4375,133.5 Q57.7656,133.5 58,133.7656 Q58.25,134.0156 58.25,134.375 Q58.25,134.7188 57.9063,135.125 Q57.4063,135.7188 56.6094,136.0469 Q55.5625,136.5 54.2813,136.5 Q52.7813,136.5 51.5781,135.9063 Q50.6094,135.4375 49.9219,134.4219 Q49.25,133.4063 49.25,132.2031 L49.25,131.1094 Q49.25,129.8594 49.8438,128.7656 Q50.4531,127.6719 51.5,127.0938 Q52.5625,126.5 53.75,126.5 Q54.4688,126.5 55.0938,126.75 Q55.7188,127 56.25,127.5 Z " fill="#000000"/><text fill="#000000" font-family="sans-serif" font-size="12" lengthAdjust="spacing" textLength="54" x="74.75" y="135.9102">Controller</text><line style="stroke:#A80036;stroke-width:1.5;" x1="8" x2="163" y1="147" y2="147"/><line style="stroke:#A80036;stroke-width:1.5;" x1="8" x2="163" y1="155" y2="155"/><ellipse cx="18" cy="166" fill="#84BE84" rx="3" ry="3" style="stroke:#038048;stroke-width:1.0;"/><text fill="#000000" font-family="sans-serif" font-size="11" lengthAdjust="spacing" textLength="131" x="27" y="170.4189">getContainerInfos(escolha)</text><ellipse cx="18" cy="179.8359" fill="#84BE84" rx="3" ry="3" style="stroke:#038048;stroke-width:1.0;"/><text fill="#000000" font-family="sans-serif" font-size="11" lengthAdjust="spacing" textLength="81" x="27" y="184.2549">getUS419Store()</text><!--MD5=[02e4b9b7573f1156f41e60aa5b4e25a4]
class Company--><rect codeLine="9" fill="#FEFECE" filter="url(#f1td2gj3k01qqr)" height="61.8359" id="Company" style="stroke:#A80036;stroke-width:1.5;" width="107" x="32" y="251"/><ellipse cx="56.9" cy="267" fill="#ADD1B2" rx="11" ry="11" style="stroke:#A80036;stroke-width:1.0;"/><path d="M58.9,263.5 Q59.1031,263 59.3375,262.75 Q59.5719,262.5 59.8375,262.5 Q60.3063,262.5 60.6031,262.7813 Q60.9,263.0625 60.9,263.7188 L60.9,265.2813 Q60.9,265.9375 60.6188,266.2188 Q60.3375,266.5 59.9,266.5 Q59.5094,266.5 59.2594,266.3281 Q59.0094,266.1563 58.9,265.7031 Q58.8531,265.3906 58.6813,265.2188 Q58.3688,264.8906 57.8063,264.7031 Q57.2438,264.5 56.6813,264.5 Q55.9781,264.5 55.3844,264.7813 Q54.8063,265.0625 54.3531,265.6875 Q53.9,266.3125 53.9,267.1719 L53.9,268.0938 Q53.9,269.125 54.7438,269.8125 Q55.5875,270.5 57.0875,270.5 Q57.9781,270.5 58.6031,270.2969 Q58.9625,270.1875 59.3688,269.8281 Q59.6344,269.625 59.775,269.5625 Q59.9156,269.5 60.0875,269.5 Q60.4156,269.5 60.65,269.7656 Q60.9,270.0156 60.9,270.375 Q60.9,270.7188 60.5563,271.125 Q60.0563,271.7188 59.2594,272.0469 Q58.2125,272.5 56.9313,272.5 Q55.4313,272.5 54.2281,271.9063 Q53.2594,271.4375 52.5719,270.4219 Q51.9,269.4063 51.9,268.2031 L51.9,267.1094 Q51.9,265.8594 52.4938,264.7656 Q53.1031,263.6719 54.15,263.0938 Q55.2125,262.5 56.4,262.5 Q57.1188,262.5 57.7438,262.75 Q58.3688,263 58.9,263.5 Z " fill="#000000"/><text fill="#000000" font-family="sans-serif" font-size="12" lengthAdjust="spacing" textLength="53" x="73.1" y="271.9102">Company</text><line style="stroke:#A80036;stroke-width:1.5;" x1="33" x2="138" y1="283" y2="283"/><line style="stroke:#A80036;stroke-width:1.5;" x1="33" x2="138" y1="291" y2="291"/><ellipse cx="43" cy="302" fill="#84BE84" rx="3" ry="3" style="stroke:#038048;stroke-width:1.0;"/><text fill="#000000" font-family="sans-serif" font-size="11" lengthAdjust="spacing" textLength="81" x="52" y="306.4189">getUS419Store()</text><!--MD5=[b4d3d50c0abf08df45181fececb9f04d]
class Store--><rect codeLine="13" fill="#FEFECE" filter="url(#f1td2gj3k01qqr)" height="61.8359" id="Store" style="stroke:#A80036;stroke-width:1.5;" width="157" x="7" y="373"/><ellipse cx="66.75" cy="389" fill="#ADD1B2" rx="11" ry="11" style="stroke:#A80036;stroke-width:1.0;"/><path d="M68.75,385.5 Q68.9531,385 69.1875,384.75 Q69.4219,384.5 69.6875,384.5 Q70.1563,384.5 70.4531,384.7813 Q70.75,385.0625 70.75,385.7188 L70.75,387.2813 Q70.75,387.9375 70.4688,388.2188 Q70.1875,388.5 69.75,388.5 Q69.3594,388.5 69.1094,388.3281 Q68.8594,388.1563 68.75,387.7031 Q68.7031,387.3906 68.5313,387.2188 Q68.2188,386.8906 67.6563,386.7031 Q67.0938,386.5 66.5313,386.5 Q65.8281,386.5 65.2344,386.7813 Q64.6563,387.0625 64.2031,387.6875 Q63.75,388.3125 63.75,389.1719 L63.75,390.0938 Q63.75,391.125 64.5938,391.8125 Q65.4375,392.5 66.9375,392.5 Q67.8281,392.5 68.4531,392.2969 Q68.8125,392.1875 69.2188,391.8281 Q69.4844,391.625 69.625,391.5625 Q69.7656,391.5 69.9375,391.5 Q70.2656,391.5 70.5,391.7656 Q70.75,392.0156 70.75,392.375 Q70.75,392.7188 70.4063,393.125 Q69.9063,393.7188 69.1094,394.0469 Q68.0625,394.5 66.7813,394.5 Q65.2813,394.5 64.0781,393.9063 Q63.1094,393.4375 62.4219,392.4219 Q61.75,391.4063 61.75,390.2031 L61.75,389.1094 Q61.75,387.8594 62.3438,386.7656 Q62.9531,385.6719 64,385.0938 Q65.0625,384.5 66.25,384.5 Q66.9688,384.5 67.5938,384.75 Q68.2188,385 68.75,385.5 Z " fill="#000000"/><text fill="#000000" font-family="sans-serif" font-size="12" lengthAdjust="spacing" textLength="29" x="87.25" y="393.9102">Store</text><line style="stroke:#A80036;stroke-width:1.5;" x1="8" x2="163" y1="405" y2="405"/><line style="stroke:#A80036;stroke-width:1.5;" x1="8" x2="163" y1="413" y2="413"/><ellipse cx="18" cy="424" fill="#84BE84" rx="3" ry="3" style="stroke:#038048;stroke-width:1.0;"/><text fill="#000000" font-family="sans-serif" font-size="11" lengthAdjust="spacing" textLength="131" x="27" y="428.4189">getContainerInfos(escolha)</text><!--MD5=[132c963044dc2a803644bb1c6fd2eeb1]
link UI to Controller--><path codeLine="18" d="M85.5,55.14 C85.5,70.58 85.5,91.33 85.5,109.67 " fill="none" id="UI-to-Controller" style="stroke:#A80036;stroke-width:1.0;stroke-dasharray:7.0,7.0;"/><polygon fill="#A80036" points="85.5,114.77,89.5,105.77,85.5,109.77,81.5,105.77,85.5,114.77" style="stroke:#A80036;stroke-width:1.0;"/><!--MD5=[e6ed5f8d33eaf4b7717944dd53806eb1]
link Controller to Company--><path codeLine="19" d="M85.5,191.08 C85.5,208.33 85.5,228.74 85.5,245.76 " fill="none" id="Controller-to-Company" style="stroke:#A80036;stroke-width:1.0;stroke-dasharray:7.0,7.0;"/><polygon fill="#A80036" points="85.5,250.93,89.5,241.93,85.5,245.93,81.5,241.93,85.5,250.93" style="stroke:#A80036;stroke-width:1.0;"/><!--MD5=[94141ed6bd4db0a0d11426b15c5ddee2]
link Company to Store--><path codeLine="20" d="M85.5,313.28 C85.5,329.77 85.5,350.26 85.5,367.49 " fill="none" id="Company-to-Store" style="stroke:#A80036;stroke-width:1.0;stroke-dasharray:7.0,7.0;"/><polygon fill="#A80036" points="85.5,372.73,89.5,363.73,85.5,367.73,81.5,363.73,85.5,372.73" style="stroke:#A80036;stroke-width:1.0;"/><!--MD5=[be0ad3dc3ac52f5b90ab199b5e3df90f]
@startuml
class UI{
}

class Controller{
    +getContainerInfos(escolha)
    +getUS419Store()
}

class Company{
    +getUS419Store()
}

class Store{
    +getContainerInfos(escolha)
}


UI ..> Controller
Controller ..> Company
Company ..> Store


@enduml

PlantUML version 1.2021.11(Sat Oct 02 14:26:11 BST 2021)
(GPL source distribution)
Java Runtime: OpenJDK Runtime Environment
JVM: OpenJDK 64-Bit Server VM
Default Encoding: Cp1252
Language: pt
Country: PT
--></g></svg>