<?xml version="1.0" encoding="UTF-8" standalone="no"?><svg xmlns="http://www.w3.org/2000/svg" xmlns:xlink="http://www.w3.org/1999/xlink" contentScriptType="application/ecmascript" contentStyleType="text/css" height="407px" preserveAspectRatio="none" style="width:1045px;height:407px;background:#FFFFFF;" version="1.1" viewBox="0 0 1045 407" width="1045px" zoomAndPan="magnify"><defs><filter height="300%" id="ft1arlqzl9ux9" width="300%" x="-1" y="-1"><feGaussianBlur result="blurOut" stdDeviation="2.0"/><feColorMatrix in="blurOut" result="blurOut2" type="matrix" values="0 0 0 0 0 0 0 0 0 0 0 0 0 0 0 0 0 0 .4 0"/><feOffset dx="4.0" dy="4.0" in="blurOut2" result="blurOut3"/><feBlend in="SourceGraphic" in2="blurOut3" mode="normal"/></filter></defs><g><rect fill="#FFFFFF" filter="url(#ft1arlqzl9ux9)" height="213.4609" style="stroke:#A80036;stroke-width:1.0;" width="10" x="43.5" y="99.6094"/><rect fill="#FFFFFF" filter="url(#ft1arlqzl9ux9)" height="182.1094" style="stroke:#A80036;stroke-width:1.0;" width="10" x="480.5" y="121.9609"/><rect fill="#FFFFFF" filter="url(#ft1arlqzl9ux9)" height="121.4063" style="stroke:#A80036;stroke-width:1.0;" width="10" x="673.5" y="152.3125"/><rect fill="#FFFFFF" filter="url(#ft1arlqzl9ux9)" height="30.3516" style="stroke:#A80036;stroke-width:1.0;" width="10" x="809.5" y="182.6641"/><rect fill="#FFFFFF" filter="url(#ft1arlqzl9ux9)" height="30.3516" style="stroke:#A80036;stroke-width:1.0;" width="10" x="1002.5" y="213.0156"/><line style="stroke:#A80036;stroke-width:1.0;stroke-dasharray:5.0,5.0;" x1="48" x2="48" y1="89.6094" y2="322.0703"/><line style="stroke:#A80036;stroke-width:1.0;stroke-dasharray:5.0,5.0;" x1="485.5" x2="485.5" y1="89.6094" y2="322.0703"/><line style="stroke:#A80036;stroke-width:1.0;stroke-dasharray:5.0,5.0;" x1="678.5" x2="678.5" y1="89.6094" y2="322.0703"/><line style="stroke:#A80036;stroke-width:1.0;stroke-dasharray:5.0,5.0;" x1="814.5" x2="814.5" y1="89.6094" y2="322.0703"/><line style="stroke:#A80036;stroke-width:1.0;stroke-dasharray:5.0,5.0;" x1="1007.5" x2="1007.5" y1="89.6094" y2="322.0703"/><text fill="#000000" font-family="sans-serif" font-size="14" lengthAdjust="spacing" textLength="81" x="5" y="86.5332">Ship Captain</text><ellipse cx="48.5" cy="15" fill="#FEFECE" filter="url(#ft1arlqzl9ux9)" rx="8" ry="8" style="stroke:#A80036;stroke-width:2.0;"/><path d="M48.5,23 L48.5,50 M35.5,31 L61.5,31 M48.5,50 L35.5,65 M48.5,50 L61.5,65 " fill="none" filter="url(#ft1arlqzl9ux9)" style="stroke:#A80036;stroke-width:2.0;"/><text fill="#000000" font-family="sans-serif" font-size="14" lengthAdjust="spacing" textLength="81" x="5" y="335.6035">Ship Captain</text><ellipse cx="48.5" cy="348.6797" fill="#FEFECE" filter="url(#ft1arlqzl9ux9)" rx="8" ry="8" style="stroke:#A80036;stroke-width:2.0;"/><path d="M48.5,356.6797 L48.5,383.6797 M35.5,364.6797 L61.5,364.6797 M48.5,383.6797 L35.5,398.6797 M48.5,383.6797 L61.5,398.6797 " fill="none" filter="url(#ft1arlqzl9ux9)" style="stroke:#A80036;stroke-width:2.0;"/><rect fill="#FEFECE" filter="url(#ft1arlqzl9ux9)" height="31.6094" style="stroke:#A80036;stroke-width:1.5;" width="30" x="468.5" y="53"/><text fill="#000000" font-family="sans-serif" font-size="14" lengthAdjust="spacing" textLength="16" x="475.5" y="74.5332">:UI</text><rect fill="#FEFECE" filter="url(#ft1arlqzl9ux9)" height="31.6094" style="stroke:#A80036;stroke-width:1.5;" width="30" x="468.5" y="321.0703"/><text fill="#000000" font-family="sans-serif" font-size="14" lengthAdjust="spacing" textLength="16" x="475.5" y="342.6035">:UI</text><rect fill="#FEFECE" filter="url(#ft1arlqzl9ux9)" height="31.6094" style="stroke:#A80036;stroke-width:1.5;" width="80" x="636.5" y="53"/><text fill="#000000" font-family="sans-serif" font-size="14" lengthAdjust="spacing" textLength="66" x="643.5" y="74.5332">:Controller</text><rect fill="#FEFECE" filter="url(#ft1arlqzl9ux9)" height="31.6094" style="stroke:#A80036;stroke-width:1.5;" width="80" x="636.5" y="321.0703"/><text fill="#000000" font-family="sans-serif" font-size="14" lengthAdjust="spacing" textLength="66" x="643.5" y="342.6035">:Controller</text><rect fill="#FEFECE" filter="url(#ft1arlqzl9ux9)" height="31.6094" style="stroke:#A80036;stroke-width:1.5;" width="78" x="773.5" y="53"/><text fill="#000000" font-family="sans-serif" font-size="14" lengthAdjust="spacing" textLength="64" x="780.5" y="74.5332">:Company</text><rect fill="#FEFECE" filter="url(#ft1arlqzl9ux9)" height="31.6094" style="stroke:#A80036;stroke-width:1.5;" width="78" x="773.5" y="321.0703"/><text fill="#000000" font-family="sans-serif" font-size="14" lengthAdjust="spacing" textLength="64" x="780.5" y="342.6035">:Company</text><rect fill="#FEFECE" filter="url(#ft1arlqzl9ux9)" height="31.6094" style="stroke:#A80036;stroke-width:1.5;" width="52" x="979.5" y="53"/><text fill="#000000" font-family="sans-serif" font-size="14" lengthAdjust="spacing" textLength="38" x="986.5" y="74.5332">:Store</text><rect fill="#FEFECE" filter="url(#ft1arlqzl9ux9)" height="31.6094" style="stroke:#A80036;stroke-width:1.5;" width="52" x="979.5" y="321.0703"/><text fill="#000000" font-family="sans-serif" font-size="14" lengthAdjust="spacing" textLength="38" x="986.5" y="342.6035">:Store</text><rect fill="#FFFFFF" filter="url(#ft1arlqzl9ux9)" height="213.4609" style="stroke:#A80036;stroke-width:1.0;" width="10" x="43.5" y="99.6094"/><rect fill="#FFFFFF" filter="url(#ft1arlqzl9ux9)" height="182.1094" style="stroke:#A80036;stroke-width:1.0;" width="10" x="480.5" y="121.9609"/><rect fill="#FFFFFF" filter="url(#ft1arlqzl9ux9)" height="121.4063" style="stroke:#A80036;stroke-width:1.0;" width="10" x="673.5" y="152.3125"/><rect fill="#FFFFFF" filter="url(#ft1arlqzl9ux9)" height="30.3516" style="stroke:#A80036;stroke-width:1.0;" width="10" x="809.5" y="182.6641"/><rect fill="#FFFFFF" filter="url(#ft1arlqzl9ux9)" height="30.3516" style="stroke:#A80036;stroke-width:1.0;" width="10" x="1002.5" y="213.0156"/><polygon fill="#A80036" points="468.5,117.9609,478.5,121.9609,468.5,125.9609,472.5,121.9609" style="stroke:#A80036;stroke-width:1.0;"/><line style="stroke:#A80036;stroke-width:1.0;" x1="53.5" x2="474.5" y1="121.9609" y2="121.9609"/><text fill="#000000" font-family="sans-serif" font-size="13" font-weight="bold" lengthAdjust="spacing" textLength="7" x="60.5" y="117.1045">1</text><text fill="#000000" font-family="sans-serif" font-size="13" lengthAdjust="spacing" textLength="397" x="71.5" y="117.1045">Request to know the area, volume, and center of mass of a container</text><polygon fill="#A80036" points="661.5,148.3125,671.5,152.3125,661.5,156.3125,665.5,152.3125" style="stroke:#A80036;stroke-width:1.0;"/><line style="stroke:#A80036;stroke-width:1.0;" x1="490.5" x2="667.5" y1="152.3125" y2="152.3125"/><text fill="#000000" font-family="sans-serif" font-size="13" font-weight="bold" lengthAdjust="spacing" textLength="7" x="497.5" y="147.4561">2</text><text fill="#000000" font-family="sans-serif" font-size="13" lengthAdjust="spacing" textLength="153" x="508.5" y="147.4561">getContainerInfos(escolha)</text><polygon fill="#A80036" points="797.5,178.6641,807.5,182.6641,797.5,186.6641,801.5,182.6641" style="stroke:#A80036;stroke-width:1.0;"/><line style="stroke:#A80036;stroke-width:1.0;" x1="683.5" x2="803.5" y1="182.6641" y2="182.6641"/><text fill="#000000" font-family="sans-serif" font-size="13" font-weight="bold" lengthAdjust="spacing" textLength="7" x="690.5" y="177.8076">3</text><text fill="#000000" font-family="sans-serif" font-size="13" lengthAdjust="spacing" textLength="96" x="701.5" y="177.8076">getUS419Store()</text><polygon fill="#A80036" points="990.5,209.0156,1000.5,213.0156,990.5,217.0156,994.5,213.0156" style="stroke:#A80036;stroke-width:1.0;"/><line style="stroke:#A80036;stroke-width:1.0;" x1="814.5" x2="996.5" y1="213.0156" y2="213.0156"/><text fill="#000000" font-family="sans-serif" font-size="13" font-weight="bold" lengthAdjust="spacing" textLength="7" x="821.5" y="208.1592">4</text><text fill="#000000" font-family="sans-serif" font-size="13" lengthAdjust="spacing" textLength="153" x="832.5" y="208.1592">getContainerInfos(escolha)</text><polygon fill="#A80036" points="694.5,239.3672,684.5,243.3672,694.5,247.3672,690.5,243.3672" style="stroke:#A80036;stroke-width:1.0;"/><line style="stroke:#A80036;stroke-width:1.0;stroke-dasharray:2.0,2.0;" x1="688.5" x2="1006.5" y1="243.3672" y2="243.3672"/><text fill="#000000" font-family="sans-serif" font-size="13" font-weight="bold" lengthAdjust="spacing" textLength="7" x="700.5" y="238.5107">5</text><text fill="#000000" font-family="sans-serif" font-size="13" lengthAdjust="spacing" textLength="114" x="711.5" y="238.5107">return container info</text><polygon fill="#A80036" points="501.5,269.7188,491.5,273.7188,501.5,277.7188,497.5,273.7188" style="stroke:#A80036;stroke-width:1.0;"/><line style="stroke:#A80036;stroke-width:1.0;stroke-dasharray:2.0,2.0;" x1="495.5" x2="677.5" y1="273.7188" y2="273.7188"/><text fill="#000000" font-family="sans-serif" font-size="13" font-weight="bold" lengthAdjust="spacing" textLength="7" x="507.5" y="268.8623">6</text><text fill="#000000" font-family="sans-serif" font-size="13" lengthAdjust="spacing" textLength="114" x="518.5" y="268.8623">return container info</text><polygon fill="#A80036" points="64.5,300.0703,54.5,304.0703,64.5,308.0703,60.5,304.0703" style="stroke:#A80036;stroke-width:1.0;"/><line style="stroke:#A80036;stroke-width:1.0;stroke-dasharray:2.0,2.0;" x1="58.5" x2="484.5" y1="304.0703" y2="304.0703"/><text fill="#000000" font-family="sans-serif" font-size="13" font-weight="bold" lengthAdjust="spacing" textLength="7" x="70.5" y="299.2139">7</text><text fill="#000000" font-family="sans-serif" font-size="13" lengthAdjust="spacing" textLength="133" x="81.5" y="299.2139">show the container info</text><!--MD5=[ca584275585be9d7755c62a65c1b6a0c]
@startuml
autonumber
actor "Ship Captain" as SC

participant ":UI" as UI
participant ":Controller" as CTRL
participant ":Company" as COMP
participant ":Store" as ST



activate SC
SC -> UI: Request to know the area, volume, and center of mass of a container
activate UI
UI -> CTRL: getContainerInfos(escolha)
activate CTRL
CTRL -> COMP: getUS419Store()
activate COMP
COMP -> ST: getContainerInfos(escolha)
deactivate COMP
activate ST
ST - -> CTRL: return container info
deactivate ST
CTRL - -> UI: return container info
deactivate CTRL
UI - -> SC: show the container info
deactivate UI


@enduml

PlantUML version 1.2021.11(Sat Oct 02 14:26:11 BST 2021)
(GPL source distribution)
Java Runtime: OpenJDK Runtime Environment
JVM: OpenJDK 64-Bit Server VM
Default Encoding: Cp1252
Language: pt
Country: PT
--></g></svg>