<?xml version="1.0" encoding="UTF-8" standalone="no"?><svg xmlns="http://www.w3.org/2000/svg" xmlns:xlink="http://www.w3.org/1999/xlink" contentScriptType="application/ecmascript" contentStyleType="text/css" height="448px" preserveAspectRatio="none" style="width:267px;height:448px;background:#FFFFFF;" version="1.1" viewBox="0 0 267 448" width="267px" zoomAndPan="magnify"><defs><filter height="300%" id="f1nkrvf0trb1wd" width="300%" x="-1" y="-1"><feGaussianBlur result="blurOut" stdDeviation="2.0"/><feColorMatrix in="blurOut" result="blurOut2" type="matrix" values="0 0 0 0 0 0 0 0 0 0 0 0 0 0 0 0 0 0 .4 0"/><feOffset dx="4.0" dy="4.0" in="blurOut2" result="blurOut3"/><feBlend in="SourceGraphic" in2="blurOut3" mode="normal"/></filter></defs><g><!--MD5=[df76e760f2062188d44f98c21a88999b]
class UI--><rect codeLine="1" fill="#FEFECE" filter="url(#f1nkrvf0trb1wd)" height="48" id="UI" style="stroke:#A80036;stroke-width:1.5;" width="44" x="108" y="7"/><ellipse cx="123" cy="23" fill="#ADD1B2" rx="11" ry="11" style="stroke:#A80036;stroke-width:1.0;"/><path d="M125,19.5 Q125.2031,19 125.4375,18.75 Q125.6719,18.5 125.9375,18.5 Q126.4063,18.5 126.7031,18.7813 Q127,19.0625 127,19.7188 L127,21.2813 Q127,21.9375 126.7188,22.2188 Q126.4375,22.5 126,22.5 Q125.6094,22.5 125.3594,22.3281 Q125.1094,22.1563 125,21.7031 Q124.9531,21.3906 124.7813,21.2188 Q124.4688,20.8906 123.9063,20.7031 Q123.3438,20.5 122.7813,20.5 Q122.0781,20.5 121.4844,20.7813 Q120.9063,21.0625 120.4531,21.6875 Q120,22.3125 120,23.1719 L120,24.0938 Q120,25.125 120.8438,25.8125 Q121.6875,26.5 123.1875,26.5 Q124.0781,26.5 124.7031,26.2969 Q125.0625,26.1875 125.4688,25.8281 Q125.7344,25.625 125.875,25.5625 Q126.0156,25.5 126.1875,25.5 Q126.5156,25.5 126.75,25.7656 Q127,26.0156 127,26.375 Q127,26.7188 126.6563,27.125 Q126.1563,27.7188 125.3594,28.0469 Q124.3125,28.5 123.0313,28.5 Q121.5313,28.5 120.3281,27.9063 Q119.3594,27.4375 118.6719,26.4219 Q118,25.4063 118,24.2031 L118,23.1094 Q118,21.8594 118.5938,20.7656 Q119.2031,19.6719 120.25,19.0938 Q121.3125,18.5 122.5,18.5 Q123.2188,18.5 123.8438,18.75 Q124.4688,19 125,19.5 Z " fill="#000000"/><text fill="#000000" font-family="sans-serif" font-size="12" lengthAdjust="spacing" textLength="12" x="137" y="27.9102">UI</text><line style="stroke:#A80036;stroke-width:1.5;" x1="109" x2="151" y1="39" y2="39"/><line style="stroke:#A80036;stroke-width:1.5;" x1="109" x2="151" y1="47" y2="47"/><!--MD5=[1d7ba1c7002d54515419844fbd155368]
class Controller--><rect codeLine="4" fill="#FEFECE" filter="url(#f1nkrvf0trb1wd)" height="75.6719" id="Controller" style="stroke:#A80036;stroke-width:1.5;" width="246" x="7" y="115"/><ellipse cx="98.75" cy="131" fill="#ADD1B2" rx="11" ry="11" style="stroke:#A80036;stroke-width:1.0;"/><path d="M100.75,127.5 Q100.9531,127 101.1875,126.75 Q101.4219,126.5 101.6875,126.5 Q102.1563,126.5 102.4531,126.7813 Q102.75,127.0625 102.75,127.7188 L102.75,129.2813 Q102.75,129.9375 102.4688,130.2188 Q102.1875,130.5 101.75,130.5 Q101.3594,130.5 101.1094,130.3281 Q100.8594,130.1563 100.75,129.7031 Q100.7031,129.3906 100.5313,129.2188 Q100.2188,128.8906 99.6563,128.7031 Q99.0938,128.5 98.5313,128.5 Q97.8281,128.5 97.2344,128.7813 Q96.6563,129.0625 96.2031,129.6875 Q95.75,130.3125 95.75,131.1719 L95.75,132.0938 Q95.75,133.125 96.5938,133.8125 Q97.4375,134.5 98.9375,134.5 Q99.8281,134.5 100.4531,134.2969 Q100.8125,134.1875 101.2188,133.8281 Q101.4844,133.625 101.625,133.5625 Q101.7656,133.5 101.9375,133.5 Q102.2656,133.5 102.5,133.7656 Q102.75,134.0156 102.75,134.375 Q102.75,134.7188 102.4063,135.125 Q101.9063,135.7188 101.1094,136.0469 Q100.0625,136.5 98.7813,136.5 Q97.2813,136.5 96.0781,135.9063 Q95.1094,135.4375 94.4219,134.4219 Q93.75,133.4063 93.75,132.2031 L93.75,131.1094 Q93.75,129.8594 94.3438,128.7656 Q94.9531,127.6719 96,127.0938 Q97.0625,126.5 98.25,126.5 Q98.9688,126.5 99.5938,126.75 Q100.2188,127 100.75,127.5 Z " fill="#000000"/><text fill="#000000" font-family="sans-serif" font-size="12" lengthAdjust="spacing" textLength="54" x="119.25" y="135.9102">Controller</text><line style="stroke:#A80036;stroke-width:1.5;" x1="8" x2="252" y1="147" y2="147"/><line style="stroke:#A80036;stroke-width:1.5;" x1="8" x2="252" y1="155" y2="155"/><ellipse cx="18" cy="166" fill="#84BE84" rx="3" ry="3" style="stroke:#038048;stroke-width:1.0;"/><text fill="#000000" font-family="sans-serif" font-size="11" lengthAdjust="spacing" textLength="220" x="27" y="170.4189">getTotalEnergy(nr_container1, nr_container2)</text><ellipse cx="18" cy="179.8359" fill="#84BE84" rx="3" ry="3" style="stroke:#038048;stroke-width:1.0;"/><text fill="#000000" font-family="sans-serif" font-size="11" lengthAdjust="spacing" textLength="106" x="27" y="184.2549">getTotalEnergyStore()</text><!--MD5=[02e4b9b7573f1156f41e60aa5b4e25a4]
class Company--><rect codeLine="9" fill="#FEFECE" filter="url(#f1nkrvf0trb1wd)" height="61.8359" id="Company" style="stroke:#A80036;stroke-width:1.5;" width="132" x="64" y="251"/><ellipse cx="100.15" cy="267" fill="#ADD1B2" rx="11" ry="11" style="stroke:#A80036;stroke-width:1.0;"/><path d="M102.15,263.5 Q102.3531,263 102.5875,262.75 Q102.8219,262.5 103.0875,262.5 Q103.5563,262.5 103.8531,262.7813 Q104.15,263.0625 104.15,263.7188 L104.15,265.2813 Q104.15,265.9375 103.8688,266.2188 Q103.5875,266.5 103.15,266.5 Q102.7594,266.5 102.5094,266.3281 Q102.2594,266.1563 102.15,265.7031 Q102.1031,265.3906 101.9313,265.2188 Q101.6188,264.8906 101.0563,264.7031 Q100.4938,264.5 99.9313,264.5 Q99.2281,264.5 98.6344,264.7813 Q98.0563,265.0625 97.6031,265.6875 Q97.15,266.3125 97.15,267.1719 L97.15,268.0938 Q97.15,269.125 97.9938,269.8125 Q98.8375,270.5 100.3375,270.5 Q101.2281,270.5 101.8531,270.2969 Q102.2125,270.1875 102.6188,269.8281 Q102.8844,269.625 103.025,269.5625 Q103.1656,269.5 103.3375,269.5 Q103.6656,269.5 103.9,269.7656 Q104.15,270.0156 104.15,270.375 Q104.15,270.7188 103.8063,271.125 Q103.3063,271.7188 102.5094,272.0469 Q101.4625,272.5 100.1813,272.5 Q98.6813,272.5 97.4781,271.9063 Q96.5094,271.4375 95.8219,270.4219 Q95.15,269.4063 95.15,268.2031 L95.15,267.1094 Q95.15,265.8594 95.7438,264.7656 Q96.3531,263.6719 97.4,263.0938 Q98.4625,262.5 99.65,262.5 Q100.3688,262.5 100.9938,262.75 Q101.6188,263 102.15,263.5 Z " fill="#000000"/><text fill="#000000" font-family="sans-serif" font-size="12" lengthAdjust="spacing" textLength="53" x="118.85" y="271.9102">Company</text><line style="stroke:#A80036;stroke-width:1.5;" x1="65" x2="195" y1="283" y2="283"/><line style="stroke:#A80036;stroke-width:1.5;" x1="65" x2="195" y1="291" y2="291"/><ellipse cx="75" cy="302" fill="#84BE84" rx="3" ry="3" style="stroke:#038048;stroke-width:1.0;"/><text fill="#000000" font-family="sans-serif" font-size="11" lengthAdjust="spacing" textLength="106" x="84" y="306.4189">getTotalEnergyStore()</text><!--MD5=[b4d3d50c0abf08df45181fececb9f04d]
class Store--><rect codeLine="13" fill="#FEFECE" filter="url(#f1nkrvf0trb1wd)" height="61.8359" id="Store" style="stroke:#A80036;stroke-width:1.5;" width="246" x="7" y="373"/><ellipse cx="111.25" cy="389" fill="#ADD1B2" rx="11" ry="11" style="stroke:#A80036;stroke-width:1.0;"/><path d="M113.25,385.5 Q113.4531,385 113.6875,384.75 Q113.9219,384.5 114.1875,384.5 Q114.6563,384.5 114.9531,384.7813 Q115.25,385.0625 115.25,385.7188 L115.25,387.2813 Q115.25,387.9375 114.9688,388.2188 Q114.6875,388.5 114.25,388.5 Q113.8594,388.5 113.6094,388.3281 Q113.3594,388.1563 113.25,387.7031 Q113.2031,387.3906 113.0313,387.2188 Q112.7188,386.8906 112.1563,386.7031 Q111.5938,386.5 111.0313,386.5 Q110.3281,386.5 109.7344,386.7813 Q109.1563,387.0625 108.7031,387.6875 Q108.25,388.3125 108.25,389.1719 L108.25,390.0938 Q108.25,391.125 109.0938,391.8125 Q109.9375,392.5 111.4375,392.5 Q112.3281,392.5 112.9531,392.2969 Q113.3125,392.1875 113.7188,391.8281 Q113.9844,391.625 114.125,391.5625 Q114.2656,391.5 114.4375,391.5 Q114.7656,391.5 115,391.7656 Q115.25,392.0156 115.25,392.375 Q115.25,392.7188 114.9063,393.125 Q114.4063,393.7188 113.6094,394.0469 Q112.5625,394.5 111.2813,394.5 Q109.7813,394.5 108.5781,393.9063 Q107.6094,393.4375 106.9219,392.4219 Q106.25,391.4063 106.25,390.2031 L106.25,389.1094 Q106.25,387.8594 106.8438,386.7656 Q107.4531,385.6719 108.5,385.0938 Q109.5625,384.5 110.75,384.5 Q111.4688,384.5 112.0938,384.75 Q112.7188,385 113.25,385.5 Z " fill="#000000"/><text fill="#000000" font-family="sans-serif" font-size="12" lengthAdjust="spacing" textLength="29" x="131.75" y="393.9102">Store</text><line style="stroke:#A80036;stroke-width:1.5;" x1="8" x2="252" y1="405" y2="405"/><line style="stroke:#A80036;stroke-width:1.5;" x1="8" x2="252" y1="413" y2="413"/><ellipse cx="18" cy="424" fill="#84BE84" rx="3" ry="3" style="stroke:#038048;stroke-width:1.0;"/><text fill="#000000" font-family="sans-serif" font-size="11" lengthAdjust="spacing" textLength="220" x="27" y="428.4189">getTotalEnergy(nr_container1, nr_container2)</text><!--MD5=[132c963044dc2a803644bb1c6fd2eeb1]
link UI to Controller--><path codeLine="18" d="M130,55.14 C130,70.58 130,91.33 130,109.67 " fill="none" id="UI-to-Controller" style="stroke:#A80036;stroke-width:1.0;stroke-dasharray:7.0,7.0;"/><polygon fill="#A80036" points="130,114.77,134,105.77,130,109.77,126,105.77,130,114.77" style="stroke:#A80036;stroke-width:1.0;"/><!--MD5=[e6ed5f8d33eaf4b7717944dd53806eb1]
link Controller to Company--><path codeLine="19" d="M130,191.08 C130,208.33 130,228.74 130,245.76 " fill="none" id="Controller-to-Company" style="stroke:#A80036;stroke-width:1.0;stroke-dasharray:7.0,7.0;"/><polygon fill="#A80036" points="130,250.93,134,241.93,130,245.93,126,241.93,130,250.93" style="stroke:#A80036;stroke-width:1.0;"/><!--MD5=[94141ed6bd4db0a0d11426b15c5ddee2]
link Company to Store--><path codeLine="20" d="M130,313.28 C130,329.77 130,350.26 130,367.49 " fill="none" id="Company-to-Store" style="stroke:#A80036;stroke-width:1.0;stroke-dasharray:7.0,7.0;"/><polygon fill="#A80036" points="130,372.73,134,363.73,130,367.73,126,363.73,130,372.73" style="stroke:#A80036;stroke-width:1.0;"/><!--MD5=[62abc2d0f715f8d6de053d5f2c9e2f8a]
@startuml
class UI{
}

class Controller{
    +getTotalEnergy(nr_container1, nr_container2)
    +getTotalEnergyStore()
}

class Company{
    +getTotalEnergyStore()
}

class Store{
    +getTotalEnergy(nr_container1, nr_container2)
}


UI ..> Controller
Controller ..> Company
Company ..> Store


@enduml

PlantUML version 1.2021.11(Sat Oct 02 14:26:11 BST 2021)
(GPL source distribution)
Java Runtime: OpenJDK Runtime Environment
JVM: OpenJDK 64-Bit Server VM
Default Encoding: Cp1252
Language: pt
Country: PT
--></g></svg>