<?xml version="1.0" encoding="UTF-8" standalone="no"?><svg xmlns="http://www.w3.org/2000/svg" xmlns:xlink="http://www.w3.org/1999/xlink" contentScriptType="application/ecmascript" contentStyleType="text/css" height="489px" preserveAspectRatio="none" style="width:436px;height:489px;background:#FFFFFF;" version="1.1" viewBox="0 0 436 489" width="436px" zoomAndPan="magnify"><defs><filter height="300%" id="fob5199kn728z" width="300%" x="-1" y="-1"><feGaussianBlur result="blurOut" stdDeviation="2.0"/><feColorMatrix in="blurOut" result="blurOut2" type="matrix" values="0 0 0 0 0 0 0 0 0 0 0 0 0 0 0 0 0 0 .4 0"/><feOffset dx="4.0" dy="4.0" in="blurOut2" result="blurOut3"/><feBlend in="SourceGraphic" in2="blurOut3" mode="normal"/></filter></defs><g><!--MD5=[df76e760f2062188d44f98c21a88999b]
class UI--><rect codeLine="1" fill="#FEFECE" filter="url(#fob5199kn728z)" height="48" id="UI" style="stroke:#A80036;stroke-width:1.5;" width="44" x="180" y="7"/><ellipse cx="195" cy="23" fill="#ADD1B2" rx="11" ry="11" style="stroke:#A80036;stroke-width:1.0;"/><path d="M197,19.5 Q197.2031,19 197.4375,18.75 Q197.6719,18.5 197.9375,18.5 Q198.4063,18.5 198.7031,18.7813 Q199,19.0625 199,19.7188 L199,21.2813 Q199,21.9375 198.7188,22.2188 Q198.4375,22.5 198,22.5 Q197.6094,22.5 197.3594,22.3281 Q197.1094,22.1563 197,21.7031 Q196.9531,21.3906 196.7813,21.2188 Q196.4688,20.8906 195.9063,20.7031 Q195.3438,20.5 194.7813,20.5 Q194.0781,20.5 193.4844,20.7813 Q192.9063,21.0625 192.4531,21.6875 Q192,22.3125 192,23.1719 L192,24.0938 Q192,25.125 192.8438,25.8125 Q193.6875,26.5 195.1875,26.5 Q196.0781,26.5 196.7031,26.2969 Q197.0625,26.1875 197.4688,25.8281 Q197.7344,25.625 197.875,25.5625 Q198.0156,25.5 198.1875,25.5 Q198.5156,25.5 198.75,25.7656 Q199,26.0156 199,26.375 Q199,26.7188 198.6563,27.125 Q198.1563,27.7188 197.3594,28.0469 Q196.3125,28.5 195.0313,28.5 Q193.5313,28.5 192.3281,27.9063 Q191.3594,27.4375 190.6719,26.4219 Q190,25.4063 190,24.2031 L190,23.1094 Q190,21.8594 190.5938,20.7656 Q191.2031,19.6719 192.25,19.0938 Q193.3125,18.5 194.5,18.5 Q195.2188,18.5 195.8438,18.75 Q196.4688,19 197,19.5 Z " fill="#000000"/><text fill="#000000" font-family="sans-serif" font-size="12" lengthAdjust="spacing" textLength="12" x="209" y="27.9102">UI</text><line style="stroke:#A80036;stroke-width:1.5;" x1="181" x2="223" y1="39" y2="39"/><line style="stroke:#A80036;stroke-width:1.5;" x1="181" x2="223" y1="47" y2="47"/><!--MD5=[1d7ba1c7002d54515419844fbd155368]
class Controller--><rect codeLine="4" fill="#FEFECE" filter="url(#fob5199kn728z)" height="75.6719" id="Controller" style="stroke:#A80036;stroke-width:1.5;" width="204" x="100" y="115"/><ellipse cx="170.75" cy="131" fill="#ADD1B2" rx="11" ry="11" style="stroke:#A80036;stroke-width:1.0;"/><path d="M172.75,127.5 Q172.9531,127 173.1875,126.75 Q173.4219,126.5 173.6875,126.5 Q174.1563,126.5 174.4531,126.7813 Q174.75,127.0625 174.75,127.7188 L174.75,129.2813 Q174.75,129.9375 174.4688,130.2188 Q174.1875,130.5 173.75,130.5 Q173.3594,130.5 173.1094,130.3281 Q172.8594,130.1563 172.75,129.7031 Q172.7031,129.3906 172.5313,129.2188 Q172.2188,128.8906 171.6563,128.7031 Q171.0938,128.5 170.5313,128.5 Q169.8281,128.5 169.2344,128.7813 Q168.6563,129.0625 168.2031,129.6875 Q167.75,130.3125 167.75,131.1719 L167.75,132.0938 Q167.75,133.125 168.5938,133.8125 Q169.4375,134.5 170.9375,134.5 Q171.8281,134.5 172.4531,134.2969 Q172.8125,134.1875 173.2188,133.8281 Q173.4844,133.625 173.625,133.5625 Q173.7656,133.5 173.9375,133.5 Q174.2656,133.5 174.5,133.7656 Q174.75,134.0156 174.75,134.375 Q174.75,134.7188 174.4063,135.125 Q173.9063,135.7188 173.1094,136.0469 Q172.0625,136.5 170.7813,136.5 Q169.2813,136.5 168.0781,135.9063 Q167.1094,135.4375 166.4219,134.4219 Q165.75,133.4063 165.75,132.2031 L165.75,131.1094 Q165.75,129.8594 166.3438,128.7656 Q166.9531,127.6719 168,127.0938 Q169.0625,126.5 170.25,126.5 Q170.9688,126.5 171.5938,126.75 Q172.2188,127 172.75,127.5 Z " fill="#000000"/><text fill="#000000" font-family="sans-serif" font-size="12" lengthAdjust="spacing" textLength="54" x="191.25" y="135.9102">Controller</text><line style="stroke:#A80036;stroke-width:1.5;" x1="101" x2="303" y1="147" y2="147"/><line style="stroke:#A80036;stroke-width:1.5;" x1="101" x2="303" y1="155" y2="155"/><ellipse cx="111" cy="166" fill="#84BE84" rx="3" ry="3" style="stroke:#038048;stroke-width:1.0;"/><text fill="#000000" font-family="sans-serif" font-size="11" lengthAdjust="spacing" textLength="142" x="120" y="170.4189">getCargoManifest(idManifest)</text><ellipse cx="111" cy="179.8359" fill="#84BE84" rx="3" ry="3" style="stroke:#038048;stroke-width:1.0;"/><text fill="#000000" font-family="sans-serif" font-size="11" lengthAdjust="spacing" textLength="178" x="120" y="184.2549">getContainer(idManifest, idContainer)</text><!--MD5=[02e4b9b7573f1156f41e60aa5b4e25a4]
class Company--><rect codeLine="9" fill="#FEFECE" filter="url(#fob5199kn728z)" height="103.3438" id="Company" style="stroke:#A80036;stroke-width:1.5;" width="145" x="129.5" y="251"/><ellipse cx="171.5" cy="267" fill="#ADD1B2" rx="11" ry="11" style="stroke:#A80036;stroke-width:1.0;"/><path d="M173.5,263.5 Q173.7031,263 173.9375,262.75 Q174.1719,262.5 174.4375,262.5 Q174.9063,262.5 175.2031,262.7813 Q175.5,263.0625 175.5,263.7188 L175.5,265.2813 Q175.5,265.9375 175.2188,266.2188 Q174.9375,266.5 174.5,266.5 Q174.1094,266.5 173.8594,266.3281 Q173.6094,266.1563 173.5,265.7031 Q173.4531,265.3906 173.2813,265.2188 Q172.9688,264.8906 172.4063,264.7031 Q171.8438,264.5 171.2813,264.5 Q170.5781,264.5 169.9844,264.7813 Q169.4063,265.0625 168.9531,265.6875 Q168.5,266.3125 168.5,267.1719 L168.5,268.0938 Q168.5,269.125 169.3438,269.8125 Q170.1875,270.5 171.6875,270.5 Q172.5781,270.5 173.2031,270.2969 Q173.5625,270.1875 173.9688,269.8281 Q174.2344,269.625 174.375,269.5625 Q174.5156,269.5 174.6875,269.5 Q175.0156,269.5 175.25,269.7656 Q175.5,270.0156 175.5,270.375 Q175.5,270.7188 175.1563,271.125 Q174.6563,271.7188 173.8594,272.0469 Q172.8125,272.5 171.5313,272.5 Q170.0313,272.5 168.8281,271.9063 Q167.8594,271.4375 167.1719,270.4219 Q166.5,269.4063 166.5,268.2031 L166.5,267.1094 Q166.5,265.8594 167.0938,264.7656 Q167.7031,263.6719 168.75,263.0938 Q169.8125,262.5 171,262.5 Q171.7188,262.5 172.3438,262.75 Q172.9688,263 173.5,263.5 Z " fill="#000000"/><text fill="#000000" font-family="sans-serif" font-size="12" lengthAdjust="spacing" textLength="53" x="191.5" y="271.9102">Company</text><line style="stroke:#A80036;stroke-width:1.5;" x1="130.5" x2="273.5" y1="283" y2="283"/><rect fill="none" height="6" style="stroke:#C82930;stroke-width:1.0;" width="6" x="137.5" y="291"/><text fill="#000000" font-family="sans-serif" font-size="11" lengthAdjust="spacing" textLength="119" x="149.5" y="298.4189">CargoManifestStore cms</text><rect fill="none" height="6" style="stroke:#C82930;stroke-width:1.0;" width="6" x="137.5" y="304.8359"/><text fill="#000000" font-family="sans-serif" font-size="11" lengthAdjust="spacing" textLength="87" x="149.5" y="312.2549">ContainerStore cs</text><line style="stroke:#A80036;stroke-width:1.5;" x1="130.5" x2="273.5" y1="318.6719" y2="318.6719"/><ellipse cx="140.5" cy="329.6719" fill="#84BE84" rx="3" ry="3" style="stroke:#038048;stroke-width:1.0;"/><text fill="#000000" font-family="sans-serif" font-size="11" lengthAdjust="spacing" textLength="119" x="149.5" y="334.0908">getCargoManifestStore()</text><ellipse cx="140.5" cy="343.5078" fill="#84BE84" rx="3" ry="3" style="stroke:#038048;stroke-width:1.0;"/><text fill="#000000" font-family="sans-serif" font-size="11" lengthAdjust="spacing" textLength="95" x="149.5" y="347.9268">getContainerStore()</text><!--MD5=[4ebfed50a2843d6810d5f28a3ed1348c]
class CargoManifestStore--><rect codeLine="16" fill="#FEFECE" filter="url(#fob5199kn728z)" height="61.8359" id="CargoManifestStore" style="stroke:#A80036;stroke-width:1.5;" width="168" x="7" y="414"/><ellipse cx="34.15" cy="430" fill="#ADD1B2" rx="11" ry="11" style="stroke:#A80036;stroke-width:1.0;"/><path d="M36.15,426.5 Q36.3531,426 36.5875,425.75 Q36.8219,425.5 37.0875,425.5 Q37.5563,425.5 37.8531,425.7813 Q38.15,426.0625 38.15,426.7188 L38.15,428.2813 Q38.15,428.9375 37.8688,429.2188 Q37.5875,429.5 37.15,429.5 Q36.7594,429.5 36.5094,429.3281 Q36.2594,429.1563 36.15,428.7031 Q36.1031,428.3906 35.9313,428.2188 Q35.6188,427.8906 35.0563,427.7031 Q34.4938,427.5 33.9313,427.5 Q33.2281,427.5 32.6344,427.7813 Q32.0563,428.0625 31.6031,428.6875 Q31.15,429.3125 31.15,430.1719 L31.15,431.0938 Q31.15,432.125 31.9938,432.8125 Q32.8375,433.5 34.3375,433.5 Q35.2281,433.5 35.8531,433.2969 Q36.2125,433.1875 36.6188,432.8281 Q36.8844,432.625 37.025,432.5625 Q37.1656,432.5 37.3375,432.5 Q37.6656,432.5 37.9,432.7656 Q38.15,433.0156 38.15,433.375 Q38.15,433.7188 37.8063,434.125 Q37.3063,434.7188 36.5094,435.0469 Q35.4625,435.5 34.1813,435.5 Q32.6813,435.5 31.4781,434.9063 Q30.5094,434.4375 29.8219,433.4219 Q29.15,432.4063 29.15,431.2031 L29.15,430.1094 Q29.15,428.8594 29.7438,427.7656 Q30.3531,426.6719 31.4,426.0938 Q32.4625,425.5 33.65,425.5 Q34.3688,425.5 34.9938,425.75 Q35.6188,426 36.15,426.5 Z " fill="#000000"/><text fill="#000000" font-family="sans-serif" font-size="12" lengthAdjust="spacing" textLength="109" x="50.85" y="434.9102">CargoManifestStore</text><line style="stroke:#A80036;stroke-width:1.5;" x1="8" x2="174" y1="446" y2="446"/><line style="stroke:#A80036;stroke-width:1.5;" x1="8" x2="174" y1="454" y2="454"/><ellipse cx="18" cy="465" fill="#84BE84" rx="3" ry="3" style="stroke:#038048;stroke-width:1.0;"/><text fill="#000000" font-family="sans-serif" font-size="11" lengthAdjust="spacing" textLength="142" x="27" y="469.4189">getCargoManifest(idManifest)</text><!--MD5=[421f7538b11410e8370fa0324235b51e]
class ContainerStore--><rect codeLine="20" fill="#FEFECE" filter="url(#fob5199kn728z)" height="61.8359" id="ContainerStore" style="stroke:#A80036;stroke-width:1.5;" width="204" x="218" y="414"/><ellipse cx="274.25" cy="430" fill="#ADD1B2" rx="11" ry="11" style="stroke:#A80036;stroke-width:1.0;"/><path d="M276.25,426.5 Q276.4531,426 276.6875,425.75 Q276.9219,425.5 277.1875,425.5 Q277.6563,425.5 277.9531,425.7813 Q278.25,426.0625 278.25,426.7188 L278.25,428.2813 Q278.25,428.9375 277.9688,429.2188 Q277.6875,429.5 277.25,429.5 Q276.8594,429.5 276.6094,429.3281 Q276.3594,429.1563 276.25,428.7031 Q276.2031,428.3906 276.0313,428.2188 Q275.7188,427.8906 275.1563,427.7031 Q274.5938,427.5 274.0313,427.5 Q273.3281,427.5 272.7344,427.7813 Q272.1563,428.0625 271.7031,428.6875 Q271.25,429.3125 271.25,430.1719 L271.25,431.0938 Q271.25,432.125 272.0938,432.8125 Q272.9375,433.5 274.4375,433.5 Q275.3281,433.5 275.9531,433.2969 Q276.3125,433.1875 276.7188,432.8281 Q276.9844,432.625 277.125,432.5625 Q277.2656,432.5 277.4375,432.5 Q277.7656,432.5 278,432.7656 Q278.25,433.0156 278.25,433.375 Q278.25,433.7188 277.9063,434.125 Q277.4063,434.7188 276.6094,435.0469 Q275.5625,435.5 274.2813,435.5 Q272.7813,435.5 271.5781,434.9063 Q270.6094,434.4375 269.9219,433.4219 Q269.25,432.4063 269.25,431.2031 L269.25,430.1094 Q269.25,428.8594 269.8438,427.7656 Q270.4531,426.6719 271.5,426.0938 Q272.5625,425.5 273.75,425.5 Q274.4688,425.5 275.0938,425.75 Q275.7188,426 276.25,426.5 Z " fill="#000000"/><text fill="#000000" font-family="sans-serif" font-size="12" lengthAdjust="spacing" textLength="83" x="294.75" y="434.9102">ContainerStore</text><line style="stroke:#A80036;stroke-width:1.5;" x1="219" x2="421" y1="446" y2="446"/><line style="stroke:#A80036;stroke-width:1.5;" x1="219" x2="421" y1="454" y2="454"/><ellipse cx="229" cy="465" fill="#84BE84" rx="3" ry="3" style="stroke:#038048;stroke-width:1.0;"/><text fill="#000000" font-family="sans-serif" font-size="11" lengthAdjust="spacing" textLength="178" x="238" y="469.4189">getContainer(idManifest, idContainer)</text><!--MD5=[132c963044dc2a803644bb1c6fd2eeb1]
link UI to Controller--><path codeLine="24" d="M202,55.14 C202,70.58 202,91.33 202,109.67 " fill="none" id="UI-to-Controller" style="stroke:#A80036;stroke-width:1.0;stroke-dasharray:7.0,7.0;"/><polygon fill="#A80036" points="202,114.77,206,105.77,202,109.77,198,105.77,202,114.77" style="stroke:#A80036;stroke-width:1.0;"/><!--MD5=[e6ed5f8d33eaf4b7717944dd53806eb1]
link Controller to Company--><path codeLine="25" d="M202,191.22 C202,207.76 202,227.57 202,245.82 " fill="none" id="Controller-to-Company" style="stroke:#A80036;stroke-width:1.0;stroke-dasharray:7.0,7.0;"/><polygon fill="#A80036" points="202,250.92,206,241.92,202,245.92,198,241.92,202,250.92" style="stroke:#A80036;stroke-width:1.0;"/><!--MD5=[091e7e5555d20c2e87a993879722993a]
link Company to CargoManifestStore--><path codeLine="26" d="M161.93,354.22 C147.39,372.63 131.31,392.98 118.15,409.64 " fill="none" id="Company-to-CargoManifestStore" style="stroke:#A80036;stroke-width:1.0;"/><polygon fill="#A80036" points="114.86,413.79,123.5752,409.2026,117.9573,409.8649,117.295,404.2469,114.86,413.79" style="stroke:#A80036;stroke-width:1.0;"/><!--MD5=[4546f9ecd2c2e8ec56683289b93f5556]
link Company to ContainerStore--><path codeLine="27" d="M244.6,354.22 C260.06,372.63 277.15,392.98 291.14,409.64 " fill="none" id="Company-to-ContainerStore" style="stroke:#A80036;stroke-width:1.0;"/><polygon fill="#A80036" points="294.63,413.79,291.9066,404.3252,291.415,409.9606,285.7796,409.4691,294.63,413.79" style="stroke:#A80036;stroke-width:1.0;"/><!--MD5=[6d70405607f4de16ff1e564f3a12aa6d]
link Controller to CargoManifestStore--><path codeLine="28" d="M156.87,191.14 C139.93,207.64 122.3,228.43 112,251 C88.7,302.06 86.82,368.36 88.36,408.46 " fill="none" id="Controller-to-CargoManifestStore" style="stroke:#A80036;stroke-width:1.0;stroke-dasharray:7.0,7.0;"/><polygon fill="#A80036" points="88.59,413.7,92.201,404.537,88.3759,408.7046,84.2083,404.8795,88.59,413.7" style="stroke:#A80036;stroke-width:1.0;"/><!--MD5=[6028b0291d1f7513e7c6edf429aaaba5]
link Controller to ContainerStore--><path codeLine="29" d="M246.73,191.33 C263.61,207.86 281.3,228.62 292,251 C316.39,302.01 320.88,368.6 321.04,408.74 " fill="none" id="Controller-to-ContainerStore" style="stroke:#A80036;stroke-width:1.0;stroke-dasharray:7.0,7.0;"/><polygon fill="#A80036" points="321.04,413.98,325.04,404.98,321.04,408.98,317.04,404.98,321.04,413.98" style="stroke:#A80036;stroke-width:1.0;"/><!--MD5=[305d3e6dece45010e5282244bfcb179f]
@startuml
class UI{
}

class Controller{
    +getCargoManifest(idManifest)
    +getContainer(idManifest, idContainer)
}

class Company{
    -CargoManifestStore cms
    -ContainerStore cs
    +getCargoManifestStore()
    +getContainerStore()
}

class CargoManifestStore{
    +getCargoManifest(idManifest)
}

class ContainerStore{
    +getContainer(idManifest, idContainer)
}

UI ..> Controller
Controller ..> Company
Company - -> CargoManifestStore
Company - -> ContainerStore
Controller ..> CargoManifestStore
Controller ..> ContainerStore

@enduml

PlantUML version 1.2021.11(Sat Oct 02 14:26:11 BST 2021)
(GPL source distribution)
Java Runtime: OpenJDK Runtime Environment
JVM: OpenJDK 64-Bit Server VM
Default Encoding: Cp1252
Language: pt
Country: PT
--></g></svg>