<?xml version="1.0" encoding="UTF-8" standalone="no"?><svg xmlns="http://www.w3.org/2000/svg" xmlns:xlink="http://www.w3.org/1999/xlink" contentScriptType="application/ecmascript" contentStyleType="text/css" height="663.3px" preserveAspectRatio="none" style="width:1413px;height:663px;background:#FFFFFF;" version="1.1" viewBox="0 0 1413 663" width="1413px" zoomAndPan="magnify"><defs><filter height="300%" id="f17gxor9jlokup" width="300%" x="-1" y="-1"><feGaussianBlur result="blurOut" stdDeviation="1.8"/><feColorMatrix in="blurOut" result="blurOut2" type="matrix" values="0 0 0 0 0 0 0 0 0 0 0 0 0 0 0 0 0 0 .4 0"/><feOffset dx="3.6" dy="3.6" in="blurOut2" result="blurOut3"/><feBlend in="SourceGraphic" in2="blurOut3" mode="normal"/></filter></defs><g><rect fill="#FFFFFF" filter="url(#f17gxor9jlokup)" height="488.6789" style="stroke:#A80036;stroke-width:0.9;" width="9" x="37.35" y="89.6484"/><rect fill="#FFFFFF" filter="url(#f17gxor9jlokup)" height="81.9492" style="stroke:#A80036;stroke-width:0.9;" width="9" x="614.25" y="109.7648"/><rect fill="#FFFFFF" filter="url(#f17gxor9jlokup)" height="241.9313" style="stroke:#A80036;stroke-width:0.9;" width="9" x="614.25" y="328.2961"/><rect fill="#FFFFFF" filter="url(#f17gxor9jlokup)" height="109.2656" style="stroke:#A80036;stroke-width:0.9;" width="9" x="894.15" y="191.7141"/><rect fill="#FFFFFF" filter="url(#f17gxor9jlokup)" height="214.6148" style="stroke:#A80036;stroke-width:0.9;" width="9" x="894.15" y="328.2961"/><rect fill="#FFFFFF" filter="url(#f17gxor9jlokup)" height="27.3164" style="stroke:#A80036;stroke-width:0.9;" width="9" x="1056.15" y="219.0305"/><rect fill="#FFFFFF" filter="url(#f17gxor9jlokup)" height="27.3164" style="stroke:#A80036;stroke-width:0.9;" width="9" x="1056.15" y="355.6125"/><rect fill="#FFFFFF" filter="url(#f17gxor9jlokup)" height="54.6328" style="stroke:#A80036;stroke-width:0.9;" width="9" x="1218.15" y="246.3469"/><rect fill="#FFFFFF" filter="url(#f17gxor9jlokup)" height="54.6328" style="stroke:#A80036;stroke-width:0.9;" width="9" x="1346.85" y="382.9289"/><line style="stroke:#A80036;stroke-width:0.9;stroke-dasharray:5.0,5.0;" x1="41.4" x2="41.4" y1="80.6484" y2="586.4273"/><line style="stroke:#A80036;stroke-width:0.9;stroke-dasharray:5.0,5.0;" x1="618.75" x2="618.75" y1="80.6484" y2="586.4273"/><line style="stroke:#A80036;stroke-width:0.9;stroke-dasharray:5.0,5.0;" x1="898.65" x2="898.65" y1="80.6484" y2="586.4273"/><line style="stroke:#A80036;stroke-width:0.9;stroke-dasharray:5.0,5.0;" x1="1060.65" x2="1060.65" y1="80.6484" y2="586.4273"/><line style="stroke:#A80036;stroke-width:0.9;stroke-dasharray:5.0,5.0;" x1="1222.65" x2="1222.65" y1="80.6484" y2="586.4273"/><line style="stroke:#A80036;stroke-width:0.9;stroke-dasharray:5.0,5.0;" x1="1351.35" x2="1351.35" y1="80.6484" y2="586.4273"/><text fill="#000000" font-family="sans-serif" font-size="12.6" lengthAdjust="spacing" textLength="69.3" x="4.5" y="77.8799">ShipCaptain</text><ellipse cx="41.85" cy="13.5" fill="#FEFECE" filter="url(#f17gxor9jlokup)" rx="7.2" ry="7.2" style="stroke:#A80036;stroke-width:1.8;"/><path d="M41.85,20.7 L41.85,45 M30.15,27.9 L53.55,27.9 M41.85,45 L30.15,58.5 M41.85,45 L53.55,58.5 " fill="none" filter="url(#f17gxor9jlokup)" style="stroke:#A80036;stroke-width:1.8;"/><text fill="#000000" font-family="sans-serif" font-size="12.6" lengthAdjust="spacing" textLength="69.3" x="4.5" y="598.6072">ShipCaptain</text><ellipse cx="41.85" cy="610.3758" fill="#FEFECE" filter="url(#f17gxor9jlokup)" rx="7.2" ry="7.2" style="stroke:#A80036;stroke-width:1.8;"/><path d="M41.85,617.5758 L41.85,641.8758 M30.15,624.7758 L53.55,624.7758 M41.85,641.8758 L30.15,655.3758 M41.85,641.8758 L53.55,655.3758 " fill="none" filter="url(#f17gxor9jlokup)" style="stroke:#A80036;stroke-width:1.8;"/><rect fill="#FEFECE" filter="url(#f17gxor9jlokup)" height="28.4484" style="stroke:#A80036;stroke-width:1.35;" width="27" x="603.45" y="47.7"/><text fill="#000000" font-family="sans-serif" font-size="12.6" lengthAdjust="spacing" textLength="14.4" x="609.75" y="67.0799">:UI</text><rect fill="#FEFECE" filter="url(#f17gxor9jlokup)" height="28.4484" style="stroke:#A80036;stroke-width:1.35;" width="27" x="603.45" y="585.5273"/><text fill="#000000" font-family="sans-serif" font-size="12.6" lengthAdjust="spacing" textLength="14.4" x="609.75" y="604.9072">:UI</text><rect fill="#FEFECE" filter="url(#f17gxor9jlokup)" height="28.4484" style="stroke:#A80036;stroke-width:1.35;" width="72" x="860.85" y="47.7"/><text fill="#000000" font-family="sans-serif" font-size="12.6" lengthAdjust="spacing" textLength="59.4" x="867.15" y="67.0799">:Controller</text><rect fill="#FEFECE" filter="url(#f17gxor9jlokup)" height="28.4484" style="stroke:#A80036;stroke-width:1.35;" width="72" x="860.85" y="585.5273"/><text fill="#000000" font-family="sans-serif" font-size="12.6" lengthAdjust="spacing" textLength="59.4" x="867.15" y="604.9072">:Controller</text><rect fill="#FEFECE" filter="url(#f17gxor9jlokup)" height="28.4484" style="stroke:#A80036;stroke-width:1.35;" width="70.2" x="1023.75" y="47.7"/><text fill="#000000" font-family="sans-serif" font-size="12.6" lengthAdjust="spacing" textLength="57.6" x="1030.05" y="67.0799">:Company</text><rect fill="#FEFECE" filter="url(#f17gxor9jlokup)" height="28.4484" style="stroke:#A80036;stroke-width:1.35;" width="70.2" x="1023.75" y="585.5273"/><text fill="#000000" font-family="sans-serif" font-size="12.6" lengthAdjust="spacing" textLength="57.6" x="1030.05" y="604.9072">:Company</text><rect fill="#FEFECE" filter="url(#f17gxor9jlokup)" height="28.4484" style="stroke:#A80036;stroke-width:1.35;" width="129.6" x="1156.05" y="47.7"/><text fill="#000000" font-family="sans-serif" font-size="12.6" lengthAdjust="spacing" textLength="117" x="1162.35" y="67.0799">:CargoManifestStore</text><rect fill="#FEFECE" filter="url(#f17gxor9jlokup)" height="28.4484" style="stroke:#A80036;stroke-width:1.35;" width="129.6" x="1156.05" y="585.5273"/><text fill="#000000" font-family="sans-serif" font-size="12.6" lengthAdjust="spacing" textLength="117" x="1162.35" y="604.9072">:CargoManifestStore</text><rect fill="#FEFECE" filter="url(#f17gxor9jlokup)" height="28.4484" style="stroke:#A80036;stroke-width:1.35;" width="102.6" x="1298.25" y="47.7"/><text fill="#000000" font-family="sans-serif" font-size="12.6" lengthAdjust="spacing" textLength="90" x="1304.55" y="67.0799">:ContainerStore</text><rect fill="#FEFECE" filter="url(#f17gxor9jlokup)" height="28.4484" style="stroke:#A80036;stroke-width:1.35;" width="102.6" x="1298.25" y="585.5273"/><text fill="#000000" font-family="sans-serif" font-size="12.6" lengthAdjust="spacing" textLength="90" x="1304.55" y="604.9072">:ContainerStore</text><rect fill="#FFFFFF" filter="url(#f17gxor9jlokup)" height="488.6789" style="stroke:#A80036;stroke-width:0.9;" width="9" x="37.35" y="89.6484"/><rect fill="#FFFFFF" filter="url(#f17gxor9jlokup)" height="81.9492" style="stroke:#A80036;stroke-width:0.9;" width="9" x="614.25" y="109.7648"/><rect fill="#FFFFFF" filter="url(#f17gxor9jlokup)" height="241.9313" style="stroke:#A80036;stroke-width:0.9;" width="9" x="614.25" y="328.2961"/><rect fill="#FFFFFF" filter="url(#f17gxor9jlokup)" height="109.2656" style="stroke:#A80036;stroke-width:0.9;" width="9" x="894.15" y="191.7141"/><rect fill="#FFFFFF" filter="url(#f17gxor9jlokup)" height="214.6148" style="stroke:#A80036;stroke-width:0.9;" width="9" x="894.15" y="328.2961"/><rect fill="#FFFFFF" filter="url(#f17gxor9jlokup)" height="27.3164" style="stroke:#A80036;stroke-width:0.9;" width="9" x="1056.15" y="219.0305"/><rect fill="#FFFFFF" filter="url(#f17gxor9jlokup)" height="27.3164" style="stroke:#A80036;stroke-width:0.9;" width="9" x="1056.15" y="355.6125"/><rect fill="#FFFFFF" filter="url(#f17gxor9jlokup)" height="54.6328" style="stroke:#A80036;stroke-width:0.9;" width="9" x="1218.15" y="246.3469"/><rect fill="#FFFFFF" filter="url(#f17gxor9jlokup)" height="54.6328" style="stroke:#A80036;stroke-width:0.9;" width="9" x="1346.85" y="382.9289"/><polygon fill="#A80036" points="603.45,106.1648,612.45,109.7648,603.45,113.3648,607.05,109.7648" style="stroke:#A80036;stroke-width:0.9;"/><line style="stroke:#A80036;stroke-width:0.9;" x1="46.35" x2="608.85" y1="109.7648" y2="109.7648"/><text fill="#000000" font-family="sans-serif" font-size="11.7" font-weight="bold" lengthAdjust="spacing" textLength="6.3" x="52.65" y="105.394">1</text><text fill="#000000" font-family="sans-serif" font-size="11.7" lengthAdjust="spacing" textLength="540.9" x="62.55" y="105.394">Request a list of all operations performed on a given container of a given manifest, in chronological order.</text><polygon fill="#A80036" points="56.25,133.4813,47.25,137.0813,56.25,140.6813,52.65,137.0813" style="stroke:#A80036;stroke-width:0.9;"/><line style="stroke:#A80036;stroke-width:0.9;stroke-dasharray:2.0,2.0;" x1="50.85" x2="613.35" y1="137.0813" y2="137.0813"/><text fill="#000000" font-family="sans-serif" font-size="11.7" font-weight="bold" lengthAdjust="spacing" textLength="6.3" x="61.65" y="132.7104">2</text><text fill="#000000" font-family="sans-serif" font-size="11.7" lengthAdjust="spacing" textLength="301.5" x="71.55" y="132.7104">Request manifest identification and container identification</text><polygon fill="#A80036" points="603.45,160.7977,612.45,164.3977,603.45,167.9977,607.05,164.3977" style="stroke:#A80036;stroke-width:0.9;"/><line style="stroke:#A80036;stroke-width:0.9;" x1="46.35" x2="608.85" y1="164.3977" y2="164.3977"/><text fill="#000000" font-family="sans-serif" font-size="11.7" font-weight="bold" lengthAdjust="spacing" textLength="6.3" x="52.65" y="160.0269">3</text><text fill="#000000" font-family="sans-serif" font-size="11.7" lengthAdjust="spacing" textLength="175.5" x="62.55" y="160.0269">Insert manifest id and container id</text><polygon fill="#A80036" points="883.35,188.1141,892.35,191.7141,883.35,195.3141,886.95,191.7141" style="stroke:#A80036;stroke-width:0.9;"/><line style="stroke:#A80036;stroke-width:0.9;" x1="618.75" x2="888.75" y1="191.7141" y2="191.7141"/><text fill="#000000" font-family="sans-serif" font-size="11.7" font-weight="bold" lengthAdjust="spacing" textLength="6.3" x="625.05" y="187.3433">4</text><text fill="#000000" font-family="sans-serif" font-size="11.7" lengthAdjust="spacing" textLength="157.5" x="634.95" y="187.3433">getCargoManifest(id_manifest)</text><polygon fill="#A80036" points="1045.35,215.4305,1054.35,219.0305,1045.35,222.6305,1048.95,219.0305" style="stroke:#A80036;stroke-width:0.9;"/><line style="stroke:#A80036;stroke-width:0.9;" x1="903.15" x2="1050.75" y1="219.0305" y2="219.0305"/><text fill="#000000" font-family="sans-serif" font-size="11.7" font-weight="bold" lengthAdjust="spacing" textLength="6.3" x="909.45" y="214.6597">5</text><text fill="#000000" font-family="sans-serif" font-size="11.7" lengthAdjust="spacing" textLength="126" x="919.35" y="214.6597">getCargoManifestStore()</text><polygon fill="#A80036" points="1207.35,242.7469,1216.35,246.3469,1207.35,249.9469,1210.95,246.3469" style="stroke:#A80036;stroke-width:0.9;"/><line style="stroke:#A80036;stroke-width:0.9;" x1="1060.65" x2="1212.75" y1="246.3469" y2="246.3469"/><text fill="#000000" font-family="sans-serif" font-size="11.7" font-weight="bold" lengthAdjust="spacing" textLength="6.3" x="1066.95" y="241.9761">6</text><text fill="#000000" font-family="sans-serif" font-size="11.7" lengthAdjust="spacing" textLength="126" x="1076.85" y="241.9761">getCargoManifestStore()</text><polygon fill="#A80036" points="1207.35,270.0633,1216.35,273.6633,1207.35,277.2633,1210.95,273.6633" style="stroke:#A80036;stroke-width:0.9;"/><line style="stroke:#A80036;stroke-width:0.9;" x1="903.15" x2="1212.75" y1="273.6633" y2="273.6633"/><text fill="#000000" font-family="sans-serif" font-size="11.7" font-weight="bold" lengthAdjust="spacing" textLength="6.3" x="909.45" y="269.2925">7</text><text fill="#000000" font-family="sans-serif" font-size="11.7" lengthAdjust="spacing" textLength="157.5" x="919.35" y="269.2925">getCargoManifest(id_manifest)</text><polygon fill="#A80036" points="908.55,297.3797,899.55,300.9797,908.55,304.5797,904.95,300.9797" style="stroke:#A80036;stroke-width:0.9;"/><line style="stroke:#A80036;stroke-width:0.9;stroke-dasharray:2.0,2.0;" x1="903.15" x2="1221.75" y1="300.9797" y2="300.9797"/><text fill="#000000" font-family="sans-serif" font-size="11.7" font-weight="bold" lengthAdjust="spacing" textLength="6.3" x="913.95" y="296.6089">8</text><text fill="#000000" font-family="sans-serif" font-size="11.7" lengthAdjust="spacing" textLength="109.8" x="923.85" y="296.6089">return cargo manifest</text><polygon fill="#A80036" points="883.35,324.6961,892.35,328.2961,883.35,331.8961,886.95,328.2961" style="stroke:#A80036;stroke-width:0.9;"/><line style="stroke:#A80036;stroke-width:0.9;" x1="623.25" x2="888.75" y1="328.2961" y2="328.2961"/><text fill="#000000" font-family="sans-serif" font-size="11.7" font-weight="bold" lengthAdjust="spacing" textLength="6.3" x="629.55" y="323.9253">9</text><text fill="#000000" font-family="sans-serif" font-size="11.7" lengthAdjust="spacing" textLength="248.4" x="639.45" y="323.9253">getContainerController(id_manifest,id_container)</text><polygon fill="#A80036" points="1045.35,352.0125,1054.35,355.6125,1045.35,359.2125,1048.95,355.6125" style="stroke:#A80036;stroke-width:0.9;"/><line style="stroke:#A80036;stroke-width:0.9;" x1="903.15" x2="1050.75" y1="355.6125" y2="355.6125"/><text fill="#000000" font-family="sans-serif" font-size="11.7" font-weight="bold" lengthAdjust="spacing" textLength="12.6" x="909.45" y="351.2417">10</text><text fill="#000000" font-family="sans-serif" font-size="11.7" lengthAdjust="spacing" textLength="100.8" x="925.65" y="351.2417">getContainerStore()</text><polygon fill="#A80036" points="1336.05,379.3289,1345.05,382.9289,1336.05,386.5289,1339.65,382.9289" style="stroke:#A80036;stroke-width:0.9;"/><line style="stroke:#A80036;stroke-width:0.9;" x1="1060.65" x2="1341.45" y1="382.9289" y2="382.9289"/><text fill="#000000" font-family="sans-serif" font-size="11.7" font-weight="bold" lengthAdjust="spacing" textLength="12.6" x="1066.95" y="378.5581">11</text><text fill="#000000" font-family="sans-serif" font-size="11.7" lengthAdjust="spacing" textLength="100.8" x="1083.15" y="378.5581">getContainerStore()</text><polygon fill="#A80036" points="1336.05,406.6453,1345.05,410.2453,1336.05,413.8453,1339.65,410.2453" style="stroke:#A80036;stroke-width:0.9;"/><line style="stroke:#A80036;stroke-width:0.9;" x1="903.15" x2="1341.45" y1="410.2453" y2="410.2453"/><text fill="#000000" font-family="sans-serif" font-size="11.7" font-weight="bold" lengthAdjust="spacing" textLength="12.6" x="909.45" y="405.8745">12</text><text fill="#000000" font-family="sans-serif" font-size="11.7" lengthAdjust="spacing" textLength="198.9" x="925.65" y="405.8745">getContainer(id_manifest,id_container)</text><polygon fill="#A80036" points="913.05,433.9617,904.05,437.5617,913.05,441.1617,909.45,437.5617" style="stroke:#A80036;stroke-width:0.9;"/><line style="stroke:#A80036;stroke-width:0.9;stroke-dasharray:2.0,2.0;" x1="907.65" x2="1350.45" y1="437.5617" y2="437.5617"/><text fill="#000000" font-family="sans-serif" font-size="11.7" font-weight="bold" lengthAdjust="spacing" textLength="12.6" x="918.45" y="433.1909">13</text><text fill="#000000" font-family="sans-serif" font-size="11.7" lengthAdjust="spacing" textLength="85.5" x="934.65" y="433.1909">Return container</text><line style="stroke:#A80036;stroke-width:0.9;" x1="903.15" x2="940.95" y1="464.8781" y2="464.8781"/><line style="stroke:#A80036;stroke-width:0.9;" x1="940.95" x2="940.95" y1="464.8781" y2="476.5781"/><line style="stroke:#A80036;stroke-width:0.9;" x1="904.05" x2="940.95" y1="476.5781" y2="476.5781"/><polygon fill="#A80036" points="913.05,472.9781,904.05,476.5781,913.05,480.1781,909.45,476.5781" style="stroke:#A80036;stroke-width:0.9;"/><text fill="#000000" font-family="sans-serif" font-size="11.7" font-weight="bold" lengthAdjust="spacing" textLength="12.6" x="909.45" y="460.5073">14</text><text fill="#000000" font-family="sans-serif" font-size="11.7" lengthAdjust="spacing" textLength="86.4" x="925.65" y="460.5073">Filter information</text><line style="stroke:#A80036;stroke-width:0.9;" x1="903.15" x2="940.95" y1="503.8945" y2="503.8945"/><line style="stroke:#A80036;stroke-width:0.9;" x1="940.95" x2="940.95" y1="503.8945" y2="515.5945"/><line style="stroke:#A80036;stroke-width:0.9;" x1="904.05" x2="940.95" y1="515.5945" y2="515.5945"/><polygon fill="#A80036" points="913.05,511.9945,904.05,515.5945,913.05,519.1945,909.45,515.5945" style="stroke:#A80036;stroke-width:0.9;"/><text fill="#000000" font-family="sans-serif" font-size="11.7" font-weight="bold" lengthAdjust="spacing" textLength="12.6" x="909.45" y="499.5237">15</text><text fill="#000000" font-family="sans-serif" font-size="11.7" lengthAdjust="spacing" textLength="89.1" x="925.65" y="499.5237">Order information</text><polygon fill="#A80036" points="633.15,539.3109,624.15,542.9109,633.15,546.5109,629.55,542.9109" style="stroke:#A80036;stroke-width:0.9;"/><line style="stroke:#A80036;stroke-width:0.9;stroke-dasharray:2.0,2.0;" x1="627.75" x2="897.75" y1="542.9109" y2="542.9109"/><text fill="#000000" font-family="sans-serif" font-size="11.7" font-weight="bold" lengthAdjust="spacing" textLength="12.6" x="638.55" y="538.5401">16</text><text fill="#000000" font-family="sans-serif" font-size="11.7" lengthAdjust="spacing" textLength="198" x="654.75" y="538.5401">Return information about the container</text><polygon fill="#A80036" points="56.25,566.6273,47.25,570.2273,56.25,573.8273,52.65,570.2273" style="stroke:#A80036;stroke-width:0.9;"/><line style="stroke:#A80036;stroke-width:0.9;stroke-dasharray:2.0,2.0;" x1="50.85" x2="617.85" y1="570.2273" y2="570.2273"/><text fill="#000000" font-family="sans-serif" font-size="11.7" font-weight="bold" lengthAdjust="spacing" textLength="12.6" x="61.65" y="565.8565">17</text><text fill="#000000" font-family="sans-serif" font-size="11.7" lengthAdjust="spacing" textLength="192.6" x="77.85" y="565.8565">Show information about the container</text><!--MD5=[0ec0d545dfc5d98eff5120222a239441]
@startuml
autonumber
actor "ShipCaptain" as ADM

participant ":UI" as UI
participant ":Controller" as CTRL
participant ":Company" as COMP
participant ":CargoManifestStore" as CMS
participant ":ContainerStore" as CS

activate ADM
ADM -> UI: Request a list of all operations performed on a given container of a given manifest, in chronological order.
activate UI
UI - -> ADM: Request manifest identification and container identification
ADM -> UI: Insert manifest id and container id
UI -> CTRL: getCargoManifest(id_manifest)
deactivate UI
activate CTRL

CTRL -> COMP: getCargoManifestStore()
activate COMP

COMP -> CMS: getCargoManifestStore()
deactivate COMP
activate CMS

CTRL -> CMS : getCargoManifest(id_manifest)
CMS - -> CTRL: return cargo manifest
deactivate CMS
deactivate CTRL
UI -> CTRL: getContainerController(id_manifest,id_container)
activate CTRL
activate UI
CTRL -> COMP: getContainerStore()
activate COMP

COMP -> CS: getContainerStore()
deactivate COMP
activate CS
CTRL -> CS: getContainer(id_manifest,id_container)


CS - -> CTRL: Return container
deactivate CS
CTRL -> CTRL: Filter information
CTRL -> CTRL: Order information
CTRL - -> UI: Return information about the container
deactivate CTRL
UI - -> ADM: Show information about the container
deactivate UI



@enduml

PlantUML version 1.2021.11(Sat Oct 02 14:26:11 BST 2021)
(GPL source distribution)
Java Runtime: OpenJDK Runtime Environment
JVM: OpenJDK 64-Bit Server VM
Default Encoding: Cp1252
Language: pt
Country: PT
--></g></svg>