<?xml version="1.0" encoding="UTF-8" standalone="no"?><svg xmlns="http://www.w3.org/2000/svg" xmlns:xlink="http://www.w3.org/1999/xlink" contentScriptType="application/ecmascript" contentStyleType="text/css" height="368px" preserveAspectRatio="none" style="width:208px;height:368px;background:#FFFFFF;" version="1.1" viewBox="0 0 208 368" width="208px" zoomAndPan="magnify"><defs><filter height="300%" id="fspwfndhhlvn8" width="300%" x="-1" y="-1"><feGaussianBlur result="blurOut" stdDeviation="2.0"/><feColorMatrix in="blurOut" result="blurOut2" type="matrix" values="0 0 0 0 0 0 0 0 0 0 0 0 0 0 0 0 0 0 .4 0"/><feOffset dx="4.0" dy="4.0" in="blurOut2" result="blurOut3"/><feBlend in="SourceGraphic" in2="blurOut3" mode="normal"/></filter></defs><g><!--MD5=[df76e760f2062188d44f98c21a88999b]
class UI--><rect codeLine="8" fill="#FEFECE" filter="url(#fspwfndhhlvn8)" height="48" id="UI" style="stroke:#A80036;stroke-width:1.5;" width="44" x="78.5" y="7"/><ellipse cx="93.5" cy="23" fill="#ADD1B2" rx="11" ry="11" style="stroke:#A80036;stroke-width:1.0;"/><path d="M95.5,19.5 Q95.7031,19 95.9375,18.75 Q96.1719,18.5 96.4375,18.5 Q96.9063,18.5 97.2031,18.7813 Q97.5,19.0625 97.5,19.7188 L97.5,21.2813 Q97.5,21.9375 97.2188,22.2188 Q96.9375,22.5 96.5,22.5 Q96.1094,22.5 95.8594,22.3281 Q95.6094,22.1563 95.5,21.7031 Q95.4531,21.3906 95.2813,21.2188 Q94.9688,20.8906 94.4063,20.7031 Q93.8438,20.5 93.2813,20.5 Q92.5781,20.5 91.9844,20.7813 Q91.4063,21.0625 90.9531,21.6875 Q90.5,22.3125 90.5,23.1719 L90.5,24.0938 Q90.5,25.125 91.3438,25.8125 Q92.1875,26.5 93.6875,26.5 Q94.5781,26.5 95.2031,26.2969 Q95.5625,26.1875 95.9688,25.8281 Q96.2344,25.625 96.375,25.5625 Q96.5156,25.5 96.6875,25.5 Q97.0156,25.5 97.25,25.7656 Q97.5,26.0156 97.5,26.375 Q97.5,26.7188 97.1563,27.125 Q96.6563,27.7188 95.8594,28.0469 Q94.8125,28.5 93.5313,28.5 Q92.0313,28.5 90.8281,27.9063 Q89.8594,27.4375 89.1719,26.4219 Q88.5,25.4063 88.5,24.2031 L88.5,23.1094 Q88.5,21.8594 89.0938,20.7656 Q89.7031,19.6719 90.75,19.0938 Q91.8125,18.5 93,18.5 Q93.7188,18.5 94.3438,18.75 Q94.9688,19 95.5,19.5 Z " fill="#000000"/><text fill="#000000" font-family="sans-serif" font-size="12" lengthAdjust="spacing" textLength="12" x="107.5" y="27.9102">UI</text><line style="stroke:#A80036;stroke-width:1.5;" x1="79.5" x2="121.5" y1="39" y2="39"/><line style="stroke:#A80036;stroke-width:1.5;" x1="79.5" x2="121.5" y1="47" y2="47"/><!--MD5=[1d7ba1c7002d54515419844fbd155368]
class Controller--><rect codeLine="12" fill="#FEFECE" filter="url(#fspwfndhhlvn8)" height="89.5078" id="Controller" style="stroke:#A80036;stroke-width:1.5;" width="187" x="7" y="115"/><ellipse cx="69.25" cy="131" fill="#ADD1B2" rx="11" ry="11" style="stroke:#A80036;stroke-width:1.0;"/><path d="M71.25,127.5 Q71.4531,127 71.6875,126.75 Q71.9219,126.5 72.1875,126.5 Q72.6563,126.5 72.9531,126.7813 Q73.25,127.0625 73.25,127.7188 L73.25,129.2813 Q73.25,129.9375 72.9688,130.2188 Q72.6875,130.5 72.25,130.5 Q71.8594,130.5 71.6094,130.3281 Q71.3594,130.1563 71.25,129.7031 Q71.2031,129.3906 71.0313,129.2188 Q70.7188,128.8906 70.1563,128.7031 Q69.5938,128.5 69.0313,128.5 Q68.3281,128.5 67.7344,128.7813 Q67.1563,129.0625 66.7031,129.6875 Q66.25,130.3125 66.25,131.1719 L66.25,132.0938 Q66.25,133.125 67.0938,133.8125 Q67.9375,134.5 69.4375,134.5 Q70.3281,134.5 70.9531,134.2969 Q71.3125,134.1875 71.7188,133.8281 Q71.9844,133.625 72.125,133.5625 Q72.2656,133.5 72.4375,133.5 Q72.7656,133.5 73,133.7656 Q73.25,134.0156 73.25,134.375 Q73.25,134.7188 72.9063,135.125 Q72.4063,135.7188 71.6094,136.0469 Q70.5625,136.5 69.2813,136.5 Q67.7813,136.5 66.5781,135.9063 Q65.6094,135.4375 64.9219,134.4219 Q64.25,133.4063 64.25,132.2031 L64.25,131.1094 Q64.25,129.8594 64.8438,128.7656 Q65.4531,127.6719 66.5,127.0938 Q67.5625,126.5 68.75,126.5 Q69.4688,126.5 70.0938,126.75 Q70.7188,127 71.25,127.5 Z " fill="#000000"/><text fill="#000000" font-family="sans-serif" font-size="12" lengthAdjust="spacing" textLength="54" x="89.75" y="135.9102">Controller</text><line style="stroke:#A80036;stroke-width:1.5;" x1="8" x2="193" y1="147" y2="147"/><rect fill="none" height="6" style="stroke:#C82930;stroke-width:1.0;" width="6" x="15" y="155"/><text fill="#000000" font-family="sans-serif" font-size="11" lengthAdjust="spacing" textLength="72" x="27" y="162.4189">id_load_unload</text><rect fill="none" height="6" style="stroke:#C82930;stroke-width:1.0;" width="6" x="15" y="168.8359"/><text fill="#000000" font-family="sans-serif" font-size="11" lengthAdjust="spacing" textLength="59" x="27" y="176.2549">id_container</text><line style="stroke:#A80036;stroke-width:1.5;" x1="8" x2="193" y1="182.6719" y2="182.6719"/><ellipse cx="18" cy="193.6719" fill="#84BE84" rx="3" ry="3" style="stroke:#038048;stroke-width:1.0;"/><text fill="#000000" font-family="sans-serif" font-size="11" lengthAdjust="spacing" textLength="161" x="27" y="198.0908">findContainerInvalid(id_container)</text><!--MD5=[e0894d131bdde495e196a3bb76da3adf]
class FindContainerInvalid--><rect codeLine="18" fill="#FEFECE" filter="url(#fspwfndhhlvn8)" height="89.5078" id="FindContainerInvalid" style="stroke:#A80036;stroke-width:1.5;" width="187" x="7" y="265"/><ellipse cx="40.9" cy="281" fill="#ADD1B2" rx="11" ry="11" style="stroke:#A80036;stroke-width:1.0;"/><path d="M42.9,277.5 Q43.1031,277 43.3375,276.75 Q43.5719,276.5 43.8375,276.5 Q44.3063,276.5 44.6031,276.7813 Q44.9,277.0625 44.9,277.7188 L44.9,279.2813 Q44.9,279.9375 44.6188,280.2188 Q44.3375,280.5 43.9,280.5 Q43.5094,280.5 43.2594,280.3281 Q43.0094,280.1563 42.9,279.7031 Q42.8531,279.3906 42.6813,279.2188 Q42.3688,278.8906 41.8063,278.7031 Q41.2438,278.5 40.6813,278.5 Q39.9781,278.5 39.3844,278.7813 Q38.8063,279.0625 38.3531,279.6875 Q37.9,280.3125 37.9,281.1719 L37.9,282.0938 Q37.9,283.125 38.7438,283.8125 Q39.5875,284.5 41.0875,284.5 Q41.9781,284.5 42.6031,284.2969 Q42.9625,284.1875 43.3688,283.8281 Q43.6344,283.625 43.775,283.5625 Q43.9156,283.5 44.0875,283.5 Q44.4156,283.5 44.65,283.7656 Q44.9,284.0156 44.9,284.375 Q44.9,284.7188 44.5563,285.125 Q44.0563,285.7188 43.2594,286.0469 Q42.2125,286.5 40.9313,286.5 Q39.4313,286.5 38.2281,285.9063 Q37.2594,285.4375 36.5719,284.4219 Q35.9,283.4063 35.9,282.2031 L35.9,281.1094 Q35.9,279.8594 36.4938,278.7656 Q37.1031,277.6719 38.15,277.0938 Q39.2125,276.5 40.4,276.5 Q41.1188,276.5 41.7438,276.75 Q42.3688,277 42.9,277.5 Z " fill="#000000"/><text fill="#000000" font-family="sans-serif" font-size="12" lengthAdjust="spacing" textLength="113" x="59.1" y="285.9102">FindContainerInvalid</text><line style="stroke:#A80036;stroke-width:1.5;" x1="8" x2="193" y1="297" y2="297"/><rect fill="none" height="6" style="stroke:#C82930;stroke-width:1.0;" width="6" x="15" y="305"/><text fill="#000000" font-family="sans-serif" font-size="11" lengthAdjust="spacing" textLength="52" x="27" y="312.4189">ship_name</text><rect fill="none" height="6" style="stroke:#C82930;stroke-width:1.0;" width="6" x="15" y="318.8359"/><text fill="#000000" font-family="sans-serif" font-size="11" lengthAdjust="spacing" textLength="51" x="27" y="326.2549">port_name</text><line style="stroke:#A80036;stroke-width:1.5;" x1="8" x2="193" y1="332.6719" y2="332.6719"/><ellipse cx="18" cy="343.6719" fill="#84BE84" rx="3" ry="3" style="stroke:#038048;stroke-width:1.0;"/><text fill="#000000" font-family="sans-serif" font-size="11" lengthAdjust="spacing" textLength="161" x="27" y="348.0908">findContainerInvalid(id_container)</text><!--MD5=[132c963044dc2a803644bb1c6fd2eeb1]
link UI to Controller--><path codeLine="5" d="M100.5,55.29 C100.5,70.48 100.5,90.88 100.5,109.56 " fill="none" id="UI-to-Controller" style="stroke:#A80036;stroke-width:1.0;stroke-dasharray:7.0,7.0;"/><polygon fill="#A80036" points="100.5,114.78,104.5,105.78,100.5,109.78,96.5,105.78,100.5,114.78" style="stroke:#A80036;stroke-width:1.0;"/><!--MD5=[5dbc6a0dc88b3df1b07784580edcc2fe]
link Controller to FindContainerInvalid--><path codeLine="6" d="M100.5,205 C100.5,222.15 100.5,241.87 100.5,259.51 " fill="none" id="Controller-to-FindContainerInvalid" style="stroke:#A80036;stroke-width:1.0;stroke-dasharray:7.0,7.0;"/><polygon fill="#A80036" points="100.5,264.91,104.5,255.91,100.5,259.91,96.5,255.91,100.5,264.91" style="stroke:#A80036;stroke-width:1.0;"/><!--MD5=[81a80669b2ae16ad6b0fd0382ddcb123]
@startuml
top to bottom direction
class UI
class Controller
class FindContainerInvalid
UI ..> Controller
Controller ..> FindContainerInvalid

class UI {

}

class Controller{
-id_load_unload
-id_container
+findContainerInvalid(id_container)
}

class FindContainerInvalid {
-ship_name
-port_name
+findContainerInvalid(id_container)
}

@enduml

PlantUML version 1.2021.11(Sat Oct 02 14:26:11 BST 2021)
(GPL source distribution)
Java Runtime: OpenJDK Runtime Environment
JVM: OpenJDK 64-Bit Server VM
Default Encoding: Cp1252
Language: pt
Country: PT
--></g></svg>