<?xml version="1.0" encoding="UTF-8" standalone="no"?><svg xmlns="http://www.w3.org/2000/svg" xmlns:xlink="http://www.w3.org/1999/xlink" contentScriptType="application/ecmascript" contentStyleType="text/css" height="434px" preserveAspectRatio="none" style="width:205px;height:434px;background:#FFFFFF;" version="1.1" viewBox="0 0 205 434" width="205px" zoomAndPan="magnify"><defs><filter height="300%" id="f1j3k77ncebar1" width="300%" x="-1" y="-1"><feGaussianBlur result="blurOut" stdDeviation="2.0"/><feColorMatrix in="blurOut" result="blurOut2" type="matrix" values="0 0 0 0 0 0 0 0 0 0 0 0 0 0 0 0 0 0 .4 0"/><feOffset dx="4.0" dy="4.0" in="blurOut2" result="blurOut3"/><feBlend in="SourceGraphic" in2="blurOut3" mode="normal"/></filter></defs><g><!--MD5=[298712f072f4b153f8f7f9b377bea0cd]
class AcessUI--><rect codeLine="1" fill="#FEFECE" filter="url(#f1j3k77ncebar1)" height="48" id="AcessUI" style="stroke:#A80036;stroke-width:1.5;" width="78" x="74.5" y="7"/><ellipse cx="89.5" cy="23" fill="#ADD1B2" rx="11" ry="11" style="stroke:#A80036;stroke-width:1.0;"/><path d="M91.5,19.5 Q91.7031,19 91.9375,18.75 Q92.1719,18.5 92.4375,18.5 Q92.9063,18.5 93.2031,18.7813 Q93.5,19.0625 93.5,19.7188 L93.5,21.2813 Q93.5,21.9375 93.2188,22.2188 Q92.9375,22.5 92.5,22.5 Q92.1094,22.5 91.8594,22.3281 Q91.6094,22.1563 91.5,21.7031 Q91.4531,21.3906 91.2813,21.2188 Q90.9688,20.8906 90.4063,20.7031 Q89.8438,20.5 89.2813,20.5 Q88.5781,20.5 87.9844,20.7813 Q87.4063,21.0625 86.9531,21.6875 Q86.5,22.3125 86.5,23.1719 L86.5,24.0938 Q86.5,25.125 87.3438,25.8125 Q88.1875,26.5 89.6875,26.5 Q90.5781,26.5 91.2031,26.2969 Q91.5625,26.1875 91.9688,25.8281 Q92.2344,25.625 92.375,25.5625 Q92.5156,25.5 92.6875,25.5 Q93.0156,25.5 93.25,25.7656 Q93.5,26.0156 93.5,26.375 Q93.5,26.7188 93.1563,27.125 Q92.6563,27.7188 91.8594,28.0469 Q90.8125,28.5 89.5313,28.5 Q88.0313,28.5 86.8281,27.9063 Q85.8594,27.4375 85.1719,26.4219 Q84.5,25.4063 84.5,24.2031 L84.5,23.1094 Q84.5,21.8594 85.0938,20.7656 Q85.7031,19.6719 86.75,19.0938 Q87.8125,18.5 89,18.5 Q89.7188,18.5 90.3438,18.75 Q90.9688,19 91.5,19.5 Z " fill="#000000"/><text fill="#000000" font-family="sans-serif" font-size="12" lengthAdjust="spacing" textLength="46" x="103.5" y="27.9102">AcessUI</text><line style="stroke:#A80036;stroke-width:1.5;" x1="75.5" x2="151.5" y1="39" y2="39"/><line style="stroke:#A80036;stroke-width:1.5;" x1="75.5" x2="151.5" y1="47" y2="47"/><!--MD5=[5751754e7a2b745eada4cdae2b160aba]
class AcessController--><rect codeLine="4" fill="#FEFECE" filter="url(#f1j3k77ncebar1)" height="61.8359" id="AcessController" style="stroke:#A80036;stroke-width:1.5;" width="156" x="35.5" y="115"/><ellipse cx="66.7" cy="131" fill="#ADD1B2" rx="11" ry="11" style="stroke:#A80036;stroke-width:1.0;"/><path d="M68.7,127.5 Q68.9031,127 69.1375,126.75 Q69.3719,126.5 69.6375,126.5 Q70.1063,126.5 70.4031,126.7813 Q70.7,127.0625 70.7,127.7188 L70.7,129.2813 Q70.7,129.9375 70.4188,130.2188 Q70.1375,130.5 69.7,130.5 Q69.3094,130.5 69.0594,130.3281 Q68.8094,130.1563 68.7,129.7031 Q68.6531,129.3906 68.4813,129.2188 Q68.1688,128.8906 67.6063,128.7031 Q67.0438,128.5 66.4813,128.5 Q65.7781,128.5 65.1844,128.7813 Q64.6063,129.0625 64.1531,129.6875 Q63.7,130.3125 63.7,131.1719 L63.7,132.0938 Q63.7,133.125 64.5438,133.8125 Q65.3875,134.5 66.8875,134.5 Q67.7781,134.5 68.4031,134.2969 Q68.7625,134.1875 69.1688,133.8281 Q69.4344,133.625 69.575,133.5625 Q69.7156,133.5 69.8875,133.5 Q70.2156,133.5 70.45,133.7656 Q70.7,134.0156 70.7,134.375 Q70.7,134.7188 70.3563,135.125 Q69.8563,135.7188 69.0594,136.0469 Q68.0125,136.5 66.7313,136.5 Q65.2313,136.5 64.0281,135.9063 Q63.0594,135.4375 62.3719,134.4219 Q61.7,133.4063 61.7,132.2031 L61.7,131.1094 Q61.7,129.8594 62.2938,128.7656 Q62.9031,127.6719 63.95,127.0938 Q65.0125,126.5 66.2,126.5 Q66.9188,126.5 67.5438,126.75 Q68.1688,127 68.7,127.5 Z " fill="#000000"/><text fill="#000000" font-family="sans-serif" font-size="12" lengthAdjust="spacing" textLength="88" x="84.3" y="135.9102">AcessController</text><line style="stroke:#A80036;stroke-width:1.5;" x1="36.5" x2="190.5" y1="147" y2="147"/><line style="stroke:#A80036;stroke-width:1.5;" x1="36.5" x2="190.5" y1="155" y2="155"/><ellipse cx="46.5" cy="166" fill="#84BE84" rx="3" ry="3" style="stroke:#038048;stroke-width:1.0;"/><text fill="#000000" font-family="sans-serif" font-size="11" lengthAdjust="spacing" textLength="130" x="55.5" y="170.4189">getAcess(login,password)</text><!--MD5=[02e4b9b7573f1156f41e60aa5b4e25a4]
class Company--><rect codeLine="8" fill="#FEFECE" filter="url(#f1j3k77ncebar1)" height="61.8359" id="Company" style="stroke:#A80036;stroke-width:1.5;" width="107" x="7" y="237"/><ellipse cx="31.9" cy="253" fill="#ADD1B2" rx="11" ry="11" style="stroke:#A80036;stroke-width:1.0;"/><path d="M33.9,249.5 Q34.1031,249 34.3375,248.75 Q34.5719,248.5 34.8375,248.5 Q35.3063,248.5 35.6031,248.7813 Q35.9,249.0625 35.9,249.7188 L35.9,251.2813 Q35.9,251.9375 35.6188,252.2188 Q35.3375,252.5 34.9,252.5 Q34.5094,252.5 34.2594,252.3281 Q34.0094,252.1563 33.9,251.7031 Q33.8531,251.3906 33.6813,251.2188 Q33.3688,250.8906 32.8063,250.7031 Q32.2438,250.5 31.6813,250.5 Q30.9781,250.5 30.3844,250.7813 Q29.8063,251.0625 29.3531,251.6875 Q28.9,252.3125 28.9,253.1719 L28.9,254.0938 Q28.9,255.125 29.7438,255.8125 Q30.5875,256.5 32.0875,256.5 Q32.9781,256.5 33.6031,256.2969 Q33.9625,256.1875 34.3688,255.8281 Q34.6344,255.625 34.775,255.5625 Q34.9156,255.5 35.0875,255.5 Q35.4156,255.5 35.65,255.7656 Q35.9,256.0156 35.9,256.375 Q35.9,256.7188 35.5563,257.125 Q35.0563,257.7188 34.2594,258.0469 Q33.2125,258.5 31.9313,258.5 Q30.4313,258.5 29.2281,257.9063 Q28.2594,257.4375 27.5719,256.4219 Q26.9,255.4063 26.9,254.2031 L26.9,253.1094 Q26.9,251.8594 27.4938,250.7656 Q28.1031,249.6719 29.15,249.0938 Q30.2125,248.5 31.4,248.5 Q32.1188,248.5 32.7438,248.75 Q33.3688,249 33.9,249.5 Z " fill="#000000"/><text fill="#000000" font-family="sans-serif" font-size="12" lengthAdjust="spacing" textLength="53" x="48.1" y="257.9102">Company</text><line style="stroke:#A80036;stroke-width:1.5;" x1="8" x2="113" y1="269" y2="269"/><line style="stroke:#A80036;stroke-width:1.5;" x1="8" x2="113" y1="277" y2="277"/><ellipse cx="18" cy="288" fill="#84BE84" rx="3" ry="3" style="stroke:#038048;stroke-width:1.0;"/><text fill="#000000" font-family="sans-serif" font-size="11" lengthAdjust="spacing" textLength="81" x="27" y="292.4189">getAcessStore()</text><!--MD5=[219bc8dc114c2d2506895ef839ec272b]
class AcessStore--><rect codeLine="12" fill="#FEFECE" filter="url(#f1j3k77ncebar1)" height="61.8359" id="AcessStore" style="stroke:#A80036;stroke-width:1.5;" width="156" x="35.5" y="359"/><ellipse cx="77.95" cy="375" fill="#ADD1B2" rx="11" ry="11" style="stroke:#A80036;stroke-width:1.0;"/><path d="M79.95,371.5 Q80.1531,371 80.3875,370.75 Q80.6219,370.5 80.8875,370.5 Q81.3563,370.5 81.6531,370.7813 Q81.95,371.0625 81.95,371.7188 L81.95,373.2813 Q81.95,373.9375 81.6688,374.2188 Q81.3875,374.5 80.95,374.5 Q80.5594,374.5 80.3094,374.3281 Q80.0594,374.1563 79.95,373.7031 Q79.9031,373.3906 79.7313,373.2188 Q79.4188,372.8906 78.8563,372.7031 Q78.2938,372.5 77.7313,372.5 Q77.0281,372.5 76.4344,372.7813 Q75.8563,373.0625 75.4031,373.6875 Q74.95,374.3125 74.95,375.1719 L74.95,376.0938 Q74.95,377.125 75.7938,377.8125 Q76.6375,378.5 78.1375,378.5 Q79.0281,378.5 79.6531,378.2969 Q80.0125,378.1875 80.4188,377.8281 Q80.6844,377.625 80.825,377.5625 Q80.9656,377.5 81.1375,377.5 Q81.4656,377.5 81.7,377.7656 Q81.95,378.0156 81.95,378.375 Q81.95,378.7188 81.6063,379.125 Q81.1063,379.7188 80.3094,380.0469 Q79.2625,380.5 77.9813,380.5 Q76.4813,380.5 75.2781,379.9063 Q74.3094,379.4375 73.6219,378.4219 Q72.95,377.4063 72.95,376.2031 L72.95,375.1094 Q72.95,373.8594 73.5438,372.7656 Q74.1531,371.6719 75.2,371.0938 Q76.2625,370.5 77.45,370.5 Q78.1688,370.5 78.7938,370.75 Q79.4188,371 79.95,371.5 Z " fill="#000000"/><text fill="#000000" font-family="sans-serif" font-size="12" lengthAdjust="spacing" textLength="63" x="98.05" y="379.9102">AcessStore</text><line style="stroke:#A80036;stroke-width:1.5;" x1="36.5" x2="190.5" y1="391" y2="391"/><line style="stroke:#A80036;stroke-width:1.5;" x1="36.5" x2="190.5" y1="399" y2="399"/><ellipse cx="46.5" cy="410" fill="#84BE84" rx="3" ry="3" style="stroke:#038048;stroke-width:1.0;"/><text fill="#000000" font-family="sans-serif" font-size="11" lengthAdjust="spacing" textLength="130" x="55.5" y="414.4189">getAcess(login,password)</text><!--MD5=[d2723f6174a8c3a3bc05c23eb6ed00bf]
link AcessUI to AcessController--><path codeLine="16" d="M113.5,55.14 C113.5,70.71 113.5,91.53 113.5,109.22 " fill="none" id="AcessUI-to-AcessController" style="stroke:#A80036;stroke-width:1.0;stroke-dasharray:7.0,7.0;"/><polygon fill="#A80036" points="113.5,114.6,117.5,105.6,113.5,109.6,109.5,105.6,113.5,114.6" style="stroke:#A80036;stroke-width:1.0;"/><!--MD5=[9da4d91ee086a67da0ad35805a46a83c]
link AcessController to Company--><path codeLine="17" d="M100.13,177.28 C92.78,193.91 83.64,214.61 75.99,231.94 " fill="none" id="AcessController-to-Company" style="stroke:#A80036;stroke-width:1.0;stroke-dasharray:7.0,7.0;"/><polygon fill="#A80036" points="73.87,236.73,81.1594,230.1069,75.8861,232.1545,73.8385,226.8812,73.87,236.73" style="stroke:#A80036;stroke-width:1.0;"/><!--MD5=[36818b207b7af8167a75f4f2fe0698d6]
link Company to AcessStore--><path codeLine="18" d="M73.87,299.28 C81.22,315.91 90.36,336.61 98.01,353.94 " fill="none" id="Company-to-AcessStore" style="stroke:#A80036;stroke-width:1.0;"/><polygon fill="#A80036" points="100.13,358.73,100.1615,348.8812,98.1139,354.1545,92.8406,352.1069,100.13,358.73" style="stroke:#A80036;stroke-width:1.0;"/><!--MD5=[d4303a5029af009d9e09b0af09c8ee40]
link AcessController to AcessStore--><path codeLine="19" d="M121.09,177.19 C125.06,194.55 129.51,216.86 131.5,237 C134.22,264.42 134.22,271.58 131.5,299 C129.69,317.25 125.87,337.28 122.21,353.8 " fill="none" id="AcessController-to-AcessStore" style="stroke:#A80036;stroke-width:1.0;stroke-dasharray:7.0,7.0;"/><polygon fill="#A80036" points="121.09,358.81,126.9741,350.9121,122.1913,353.9328,119.1706,349.15,121.09,358.81" style="stroke:#A80036;stroke-width:1.0;"/><!--MD5=[9a8fc2b4dcdd839e2b8b3a82a527de91]
@startuml
class AcessUI{
}

class AcessController{
    +getAcess(login,password)
}

class Company{
    +getAcessStore()
}

class AcessStore{
    +getAcess(login,password)
}

AcessUI ..> AcessController
AcessController ..> Company
Company - -> AcessStore
AcessController ..> AcessStore

@enduml

PlantUML version 1.2021.11(Sat Oct 02 14:26:11 BST 2021)
(GPL source distribution)
Java Runtime: OpenJDK Runtime Environment
JVM: OpenJDK 64-Bit Server VM
Default Encoding: Cp1252
Language: pt
Country: PT
--></g></svg>