<?xml version="1.0" encoding="UTF-8" standalone="no"?><svg xmlns="http://www.w3.org/2000/svg" xmlns:xlink="http://www.w3.org/1999/xlink" contentScriptType="application/ecmascript" contentStyleType="text/css" height="316px" preserveAspectRatio="none" style="width:666px;height:316px;background:#FFFFFF;" version="1.1" viewBox="0 0 666 316" width="666px" zoomAndPan="magnify"><defs><filter height="300%" id="f18b2pqg51hcfa" width="300%" x="-1" y="-1"><feGaussianBlur result="blurOut" stdDeviation="2.0"/><feColorMatrix in="blurOut" result="blurOut2" type="matrix" values="0 0 0 0 0 0 0 0 0 0 0 0 0 0 0 0 0 0 .4 0"/><feOffset dx="4.0" dy="4.0" in="blurOut2" result="blurOut3"/><feBlend in="SourceGraphic" in2="blurOut3" mode="normal"/></filter></defs><g><rect fill="#FFFFFF" filter="url(#f18b2pqg51hcfa)" height="122.4063" style="stroke:#A80036;stroke-width:1.0;" width="10" x="32.5" y="99.6094"/><rect fill="#FFFFFF" filter="url(#f18b2pqg51hcfa)" height="91.0547" style="stroke:#A80036;stroke-width:1.0;" width="10" x="271.5" y="121.9609"/><rect fill="#FFFFFF" filter="url(#f18b2pqg51hcfa)" height="30.3516" style="stroke:#A80036;stroke-width:1.0;" width="10" x="574.5" y="152.3125"/><line style="stroke:#A80036;stroke-width:1.0;stroke-dasharray:5.0,5.0;" x1="37" x2="37" y1="89.6094" y2="231.0156"/><line style="stroke:#A80036;stroke-width:1.0;stroke-dasharray:5.0,5.0;" x1="276.5" x2="276.5" y1="89.6094" y2="231.0156"/><line style="stroke:#A80036;stroke-width:1.0;stroke-dasharray:5.0,5.0;" x1="579.5" x2="579.5" y1="89.6094" y2="231.0156"/><text fill="#000000" font-family="sans-serif" font-size="14" lengthAdjust="spacing" textLength="59" x="5" y="86.5332">Port Staff</text><ellipse cx="37.5" cy="15" fill="#FEFECE" filter="url(#f18b2pqg51hcfa)" rx="8" ry="8" style="stroke:#A80036;stroke-width:2.0;"/><path d="M37.5,23 L37.5,50 M24.5,31 L50.5,31 M37.5,50 L24.5,65 M37.5,50 L50.5,65 " fill="none" filter="url(#f18b2pqg51hcfa)" style="stroke:#A80036;stroke-width:2.0;"/><text fill="#000000" font-family="sans-serif" font-size="14" lengthAdjust="spacing" textLength="59" x="5" y="244.5488">Port Staff</text><ellipse cx="37.5" cy="257.625" fill="#FEFECE" filter="url(#f18b2pqg51hcfa)" rx="8" ry="8" style="stroke:#A80036;stroke-width:2.0;"/><path d="M37.5,265.625 L37.5,292.625 M24.5,273.625 L50.5,273.625 M37.5,292.625 L24.5,307.625 M37.5,292.625 L50.5,307.625 " fill="none" filter="url(#f18b2pqg51hcfa)" style="stroke:#A80036;stroke-width:2.0;"/><rect fill="#FEFECE" filter="url(#f18b2pqg51hcfa)" height="31.6094" style="stroke:#A80036;stroke-width:1.5;" width="30" x="259.5" y="53"/><text fill="#000000" font-family="sans-serif" font-size="14" lengthAdjust="spacing" textLength="16" x="266.5" y="74.5332">:UI</text><rect fill="#FEFECE" filter="url(#f18b2pqg51hcfa)" height="31.6094" style="stroke:#A80036;stroke-width:1.5;" width="30" x="259.5" y="230.0156"/><text fill="#000000" font-family="sans-serif" font-size="14" lengthAdjust="spacing" textLength="16" x="266.5" y="251.5488">:UI</text><rect fill="#FEFECE" filter="url(#f18b2pqg51hcfa)" height="31.6094" style="stroke:#A80036;stroke-width:1.5;" width="150" x="502.5" y="53"/><text fill="#000000" font-family="sans-serif" font-size="14" lengthAdjust="spacing" textLength="136" x="509.5" y="74.5332">:ContainerVerification</text><rect fill="#FEFECE" filter="url(#f18b2pqg51hcfa)" height="31.6094" style="stroke:#A80036;stroke-width:1.5;" width="150" x="502.5" y="230.0156"/><text fill="#000000" font-family="sans-serif" font-size="14" lengthAdjust="spacing" textLength="136" x="509.5" y="251.5488">:ContainerVerification</text><rect fill="#FFFFFF" filter="url(#f18b2pqg51hcfa)" height="122.4063" style="stroke:#A80036;stroke-width:1.0;" width="10" x="32.5" y="99.6094"/><rect fill="#FFFFFF" filter="url(#f18b2pqg51hcfa)" height="91.0547" style="stroke:#A80036;stroke-width:1.0;" width="10" x="271.5" y="121.9609"/><rect fill="#FFFFFF" filter="url(#f18b2pqg51hcfa)" height="30.3516" style="stroke:#A80036;stroke-width:1.0;" width="10" x="574.5" y="152.3125"/><polygon fill="#A80036" points="259.5,117.9609,269.5,121.9609,259.5,125.9609,263.5,121.9609" style="stroke:#A80036;stroke-width:1.0;"/><line style="stroke:#A80036;stroke-width:1.0;" x1="42.5" x2="265.5" y1="121.9609" y2="121.9609"/><text fill="#000000" font-family="sans-serif" font-size="13" font-weight="bold" lengthAdjust="spacing" textLength="7" x="49.5" y="117.1045">1</text><text fill="#000000" font-family="sans-serif" font-size="13" lengthAdjust="spacing" textLength="167" x="60.5" y="117.1045">Give a position of a container</text><polygon fill="#A80036" points="562.5,148.3125,572.5,152.3125,562.5,156.3125,566.5,152.3125" style="stroke:#A80036;stroke-width:1.0;"/><line style="stroke:#A80036;stroke-width:1.0;" x1="281.5" x2="568.5" y1="152.3125" y2="152.3125"/><text fill="#000000" font-family="sans-serif" font-size="13" font-weight="bold" lengthAdjust="spacing" textLength="7" x="288.5" y="147.4561">2</text><text fill="#000000" font-family="sans-serif" font-size="13" lengthAdjust="spacing" textLength="128" x="299.5" y="147.4561">container_verification()</text><polygon fill="#A80036" points="292.5,178.6641,282.5,182.6641,292.5,186.6641,288.5,182.6641" style="stroke:#A80036;stroke-width:1.0;"/><line style="stroke:#A80036;stroke-width:1.0;stroke-dasharray:2.0,2.0;" x1="286.5" x2="578.5" y1="182.6641" y2="182.6641"/><text fill="#000000" font-family="sans-serif" font-size="13" font-weight="bold" lengthAdjust="spacing" textLength="7" x="298.5" y="177.8076">3</text><text fill="#000000" font-family="sans-serif" font-size="13" lengthAdjust="spacing" textLength="258" x="309.5" y="177.8076">Return a number if a container is there or not</text><polygon fill="#A80036" points="53.5,209.0156,43.5,213.0156,53.5,217.0156,49.5,213.0156" style="stroke:#A80036;stroke-width:1.0;"/><line style="stroke:#A80036;stroke-width:1.0;stroke-dasharray:2.0,2.0;" x1="47.5" x2="275.5" y1="213.0156" y2="213.0156"/><text fill="#000000" font-family="sans-serif" font-size="13" font-weight="bold" lengthAdjust="spacing" textLength="7" x="59.5" y="208.1592">4</text><text fill="#000000" font-family="sans-serif" font-size="13" lengthAdjust="spacing" textLength="194" x="70.5" y="208.1592">Show if a container is there or not</text><!--MD5=[6ce97a2e2e9b459cf99156ee3bde01aa]
@startuml
autonumber
actor "Port Staff" as ADM

participant ":UI" as UI

participant ":ContainerVerification" as COS

activate ADM
ADM -> UI: Give a position of a container
activate UI
UI -> COS: container_verification()
activate COS
COS - -> UI: Return a number if a container is there or not
deactivate COS
UI - -> ADM: Show if a container is there or not
deactivate UI

@enduml

PlantUML version 1.2021.11(Sat Oct 02 14:26:11 BST 2021)
(GPL source distribution)
Java Runtime: OpenJDK Runtime Environment
JVM: OpenJDK 64-Bit Server VM
Default Encoding: Cp1252
Language: pt
Country: PT
--></g></svg>