<?xml version="1.0" standalone="no"?>
<!DOCTYPE svg PUBLIC "-//W3C//DTD SVG 20010904//EN"
 "http://www.w3.org/TR/2001/REC-SVG-20010904/DTD/svg10.dtd">
<svg version="1.0" xmlns="http://www.w3.org/2000/svg"
 width="1360.000000pt" height="1760.000000pt" viewBox="0 0 1360.000000 1760.000000"
 preserveAspectRatio="xMidYMid meet">
<metadata>
Created by potrace 1.16, written by Peter Selinger 2001-2019
</metadata>
<g transform="translate(0.000000,1760.000000) scale(0.100000,-0.100000)"
fill="#000000" stroke="none">
<path d="M4036 14978 c-14 -20 -16 -145 -16 -1138 l0 -1116 -443 -257 -444
-257 -161 0 -162 0 0 93 0 94 43 12 c92 28 148 104 145 197 -1 37 -2 41 -5 14
-8 -79 -15 -102 -46 -137 -63 -71 -149 -90 -227 -50 -63 32 -102 85 -108 145
-11 122 68 212 188 212 78 0 136 -35 173 -105 9 -16 16 -26 17 -22 2 40 -82
123 -135 133 -104 19 -188 -19 -232 -106 -59 -115 2 -247 130 -281 l47 -13 0
-93 0 -93 -202 -3 -203 -2 203 -3 202 -2 0 -94 c0 -66 -4 -96 -12 -99 -10 -4
-10 -6 0 -6 15 -1 17 -81 2 -81 -5 0 -10 -7 -10 -15 0 -8 5 -15 10 -15 6 0 10
-7 10 -14 0 -8 -90 -157 -201 -332 -110 -174 -198 -318 -196 -320 2 -2 64 92
137 209 74 116 163 256 198 310 l63 99 196 -311 c108 -171 198 -309 200 -307
2 2 -82 140 -187 306 -185 292 -218 355 -188 358 7 1 40 5 73 10 l60 9 -73 2
-73 1 3 52 3 52 160 93 c113 65 170 93 195 94 27 1 30 2 13 7 -17 6 53 50 349
222 204 118 398 230 430 248 l58 33 0 -360 0 -360 -32 -4 -33 -4 33 -1 32 -2
0 -161 c0 -148 -1 -160 -17 -155 -47 13 -885 177 -889 173 -2 -2 193 -43 433
-91 241 -48 446 -89 456 -92 16 -5 17 -29 17 -330 0 -178 -2 -324 -5 -324 -3
0 -269 198 -591 441 -322 242 -587 439 -589 437 -2 -2 263 -204 588 -449 l592
-446 5 -1676 c5 -1592 6 -1677 23 -1694 17 -17 142 -18 2740 -20 2837 -3 2763
-4 2775 37 2 9 -2 7 -11 -5 -15 -20 -29 -20 -2724 -23 -1489 -1 -2723 0 -2740
3 -18 3 -37 14 -43 25 -7 12 -9 570 -8 1679 l3 1661 493 -372 c271 -204 494
-369 496 -367 2 2 -221 173 -495 379 l-499 375 0 333 c0 313 1 333 18 328 9
-3 35 -7 57 -10 35 -5 36 -5 10 3 -16 5 -42 12 -57 15 l-28 6 0 160 0 159 33
4 32 4 -32 1 -33 2 0 364 0 364 573 332 c314 182 577 336 582 342 14 15 -22
-5 -625 -355 l-525 -305 -3 1110 c-1 753 1 1115 8 1129 11 19 48 19 2755 19
2603 0 2745 -1 2754 -17 6 -10 11 -13 11 -7 0 5 -5 15 -12 22 -9 9 -635 12
-2754 12 l-2743 0 -15 -22z m-927 -2782 c-10 -8 -269 -157 -283 -162 -14 -5
-16 6 -16 80 l0 86 152 0 c83 0 149 -2 147 -4z"/>
<path d="M9565 11300 c0 -2010 1 -2833 2 -1827 2 1005 2 2649 0 3655 -1 1005
-2 182 -2 -1828z"/>
<path d="M5848 13980 c-317 -51 -562 -234 -623 -465 -64 -246 80 -487 371
-621 126 -59 226 -78 404 -78 178 0 278 19 404 78 291 134 435 375 371 621
-54 204 -262 380 -527 445 -95 24 -310 34 -400 20z"/>
<path d="M7055 12980 c-265 -42 -487 -184 -580 -374 -160 -322 66 -662 513
-773 48 -12 112 -17 222 -17 190 -1 285 20 439 95 87 42 117 64 187 133 66 65
91 98 121 161 37 78 38 82 38 195 0 113 -1 117 -38 195 -30 63 -55 96 -121
161 -70 69 -100 91 -187 133 -138 67 -240 91 -404 96 -71 2 -157 0 -190 -5z"/>
<path d="M6848 11580 c-317 -51 -562 -234 -623 -465 -64 -246 80 -487 371
-621 126 -59 226 -78 404 -78 178 0 278 19 404 78 291 134 435 375 371 621
-54 204 -262 380 -527 445 -95 24 -310 34 -400 20z m482 -518 c0 -73 4 -70
-63 -63 -4 1 -12 11 -18 24 -8 19 -16 22 -45 19 -19 -2 -34 -9 -34 -14 0 -6
12 -8 30 -4 33 6 41 -8 13 -22 -22 -12 -58 1 -67 23 -20 53 40 99 74 57 17
-20 17 -20 34 -1 11 13 23 18 36 14 16 -5 20 -2 20 20 0 15 4 24 10 20 6 -3
10 -36 10 -73z"/>
<path d="M5448 10380 c-317 -51 -562 -234 -623 -465 -64 -246 80 -487 371
-621 126 -59 226 -78 404 -78 178 0 278 19 404 78 291 134 435 375 371 621
-54 204 -262 380 -527 445 -95 24 -310 34 -400 20z"/>
</g>
</svg>
