<?xml version="1.0" encoding="UTF-8" standalone="no"?><svg xmlns="http://www.w3.org/2000/svg" xmlns:xlink="http://www.w3.org/1999/xlink" contentScriptType="application/ecmascript" contentStyleType="text/css" height="681px" preserveAspectRatio="none" style="width:233px;height:681px;background:#FFFFFF;" version="1.1" viewBox="0 0 233 681" width="233px" zoomAndPan="magnify"><defs><filter height="300%" id="f1mndm7e4ayk9z" width="300%" x="-1" y="-1"><feGaussianBlur result="blurOut" stdDeviation="2.0"/><feColorMatrix in="blurOut" result="blurOut2" type="matrix" values="0 0 0 0 0 0 0 0 0 0 0 0 0 0 0 0 0 0 .4 0"/><feOffset dx="4.0" dy="4.0" in="blurOut2" result="blurOut3"/><feBlend in="SourceGraphic" in2="blurOut3" mode="normal"/></filter></defs><g><!--MD5=[3d57a5727168e0e2a852a5c6ae235d81]
class PortShipUI--><rect codeLine="1" fill="#FEFECE" filter="url(#f1mndm7e4ayk9z)" height="48" id="PortShipUI" style="stroke:#A80036;stroke-width:1.5;" width="91" x="67.5" y="7"/><ellipse cx="82.5" cy="23" fill="#ADD1B2" rx="11" ry="11" style="stroke:#A80036;stroke-width:1.0;"/><path d="M84.5,19.5 Q84.7031,19 84.9375,18.75 Q85.1719,18.5 85.4375,18.5 Q85.9063,18.5 86.2031,18.7813 Q86.5,19.0625 86.5,19.7188 L86.5,21.2813 Q86.5,21.9375 86.2188,22.2188 Q85.9375,22.5 85.5,22.5 Q85.1094,22.5 84.8594,22.3281 Q84.6094,22.1563 84.5,21.7031 Q84.4531,21.3906 84.2813,21.2188 Q83.9688,20.8906 83.4063,20.7031 Q82.8438,20.5 82.2813,20.5 Q81.5781,20.5 80.9844,20.7813 Q80.4063,21.0625 79.9531,21.6875 Q79.5,22.3125 79.5,23.1719 L79.5,24.0938 Q79.5,25.125 80.3438,25.8125 Q81.1875,26.5 82.6875,26.5 Q83.5781,26.5 84.2031,26.2969 Q84.5625,26.1875 84.9688,25.8281 Q85.2344,25.625 85.375,25.5625 Q85.5156,25.5 85.6875,25.5 Q86.0156,25.5 86.25,25.7656 Q86.5,26.0156 86.5,26.375 Q86.5,26.7188 86.1563,27.125 Q85.6563,27.7188 84.8594,28.0469 Q83.8125,28.5 82.5313,28.5 Q81.0313,28.5 79.8281,27.9063 Q78.8594,27.4375 78.1719,26.4219 Q77.5,25.4063 77.5,24.2031 L77.5,23.1094 Q77.5,21.8594 78.0938,20.7656 Q78.7031,19.6719 79.75,19.0938 Q80.8125,18.5 82,18.5 Q82.7188,18.5 83.3438,18.75 Q83.9688,19 84.5,19.5 Z " fill="#000000"/><text fill="#000000" font-family="sans-serif" font-size="12" lengthAdjust="spacing" textLength="59" x="96.5" y="27.9102">PortShipUI</text><line style="stroke:#A80036;stroke-width:1.5;" x1="68.5" x2="157.5" y1="39" y2="39"/><line style="stroke:#A80036;stroke-width:1.5;" x1="68.5" x2="157.5" y1="47" y2="47"/><!--MD5=[58db7332efce12d406bf8e2472081552]
class ReadPortController--><rect codeLine="4" fill="#FEFECE" filter="url(#f1mndm7e4ayk9z)" height="61.8359" id="ReadPortController" style="stroke:#A80036;stroke-width:1.5;" width="181" x="22.5" y="115"/><ellipse cx="56.85" cy="131" fill="#ADD1B2" rx="11" ry="11" style="stroke:#A80036;stroke-width:1.0;"/><path d="M58.85,127.5 Q59.0531,127 59.2875,126.75 Q59.5219,126.5 59.7875,126.5 Q60.2563,126.5 60.5531,126.7813 Q60.85,127.0625 60.85,127.7188 L60.85,129.2813 Q60.85,129.9375 60.5688,130.2188 Q60.2875,130.5 59.85,130.5 Q59.4594,130.5 59.2094,130.3281 Q58.9594,130.1563 58.85,129.7031 Q58.8031,129.3906 58.6313,129.2188 Q58.3188,128.8906 57.7563,128.7031 Q57.1938,128.5 56.6313,128.5 Q55.9281,128.5 55.3344,128.7813 Q54.7563,129.0625 54.3031,129.6875 Q53.85,130.3125 53.85,131.1719 L53.85,132.0938 Q53.85,133.125 54.6938,133.8125 Q55.5375,134.5 57.0375,134.5 Q57.9281,134.5 58.5531,134.2969 Q58.9125,134.1875 59.3188,133.8281 Q59.5844,133.625 59.725,133.5625 Q59.8656,133.5 60.0375,133.5 Q60.3656,133.5 60.6,133.7656 Q60.85,134.0156 60.85,134.375 Q60.85,134.7188 60.5063,135.125 Q60.0063,135.7188 59.2094,136.0469 Q58.1625,136.5 56.8813,136.5 Q55.3813,136.5 54.1781,135.9063 Q53.2094,135.4375 52.5219,134.4219 Q51.85,133.4063 51.85,132.2031 L51.85,131.1094 Q51.85,129.8594 52.4438,128.7656 Q53.0531,127.6719 54.1,127.0938 Q55.1625,126.5 56.35,126.5 Q57.0688,126.5 57.6938,126.75 Q58.3188,127 58.85,127.5 Z " fill="#000000"/><text fill="#000000" font-family="sans-serif" font-size="12" lengthAdjust="spacing" textLength="106" x="75.15" y="135.9102">ReadPortController</text><line style="stroke:#A80036;stroke-width:1.5;" x1="23.5" x2="202.5" y1="147" y2="147"/><line style="stroke:#A80036;stroke-width:1.5;" x1="23.5" x2="202.5" y1="155" y2="155"/><ellipse cx="33.5" cy="166" fill="#84BE84" rx="3" ry="3" style="stroke:#038048;stroke-width:1.0;"/><text fill="#000000" font-family="sans-serif" font-size="11" lengthAdjust="spacing" textLength="155" x="42.5" y="170.4189">getPorts(String code, Date data)</text><!--MD5=[02e4b9b7573f1156f41e60aa5b4e25a4]
class Company--><rect codeLine="8" fill="#FEFECE" filter="url(#f1mndm7e4ayk9z)" height="75.6719" id="Company" style="stroke:#A80036;stroke-width:1.5;" width="94" x="16" y="237"/><ellipse cx="35.05" cy="253" fill="#ADD1B2" rx="11" ry="11" style="stroke:#A80036;stroke-width:1.0;"/><path d="M37.05,249.5 Q37.2531,249 37.4875,248.75 Q37.7219,248.5 37.9875,248.5 Q38.4563,248.5 38.7531,248.7813 Q39.05,249.0625 39.05,249.7188 L39.05,251.2813 Q39.05,251.9375 38.7688,252.2188 Q38.4875,252.5 38.05,252.5 Q37.6594,252.5 37.4094,252.3281 Q37.1594,252.1563 37.05,251.7031 Q37.0031,251.3906 36.8313,251.2188 Q36.5188,250.8906 35.9563,250.7031 Q35.3938,250.5 34.8313,250.5 Q34.1281,250.5 33.5344,250.7813 Q32.9563,251.0625 32.5031,251.6875 Q32.05,252.3125 32.05,253.1719 L32.05,254.0938 Q32.05,255.125 32.8938,255.8125 Q33.7375,256.5 35.2375,256.5 Q36.1281,256.5 36.7531,256.2969 Q37.1125,256.1875 37.5188,255.8281 Q37.7844,255.625 37.925,255.5625 Q38.0656,255.5 38.2375,255.5 Q38.5656,255.5 38.8,255.7656 Q39.05,256.0156 39.05,256.375 Q39.05,256.7188 38.7063,257.125 Q38.2063,257.7188 37.4094,258.0469 Q36.3625,258.5 35.0813,258.5 Q33.5813,258.5 32.3781,257.9063 Q31.4094,257.4375 30.7219,256.4219 Q30.05,255.4063 30.05,254.2031 L30.05,253.1094 Q30.05,251.8594 30.6437,250.7656 Q31.2531,249.6719 32.3,249.0938 Q33.3625,248.5 34.55,248.5 Q35.2688,248.5 35.8938,248.75 Q36.5188,249 37.05,249.5 Z " fill="#000000"/><text fill="#000000" font-family="sans-serif" font-size="12" lengthAdjust="spacing" textLength="53" x="49.95" y="257.9102">Company</text><line style="stroke:#A80036;stroke-width:1.5;" x1="17" x2="109" y1="269" y2="269"/><rect fill="none" height="6" style="stroke:#C82930;stroke-width:1.0;" width="6" x="24" y="277"/><text fill="#000000" font-family="sans-serif" font-size="11" lengthAdjust="spacing" textLength="60" x="36" y="284.4189">PortStore ps</text><line style="stroke:#A80036;stroke-width:1.0;" x1="17" x2="109" y1="290.8359" y2="290.8359"/><ellipse cx="27" cy="301.8359" fill="#84BE84" rx="3" ry="3" style="stroke:#038048;stroke-width:1.0;"/><text fill="#000000" font-family="sans-serif" font-size="11" lengthAdjust="spacing" textLength="68" x="36" y="306.2549">getPortStore()</text><!--MD5=[f70d2b281f9eefc1b49373c49159755a]
class PortStore--><rect codeLine="14" fill="#FEFECE" filter="url(#f1mndm7e4ayk9z)" height="89.5078" id="PortStore" style="stroke:#A80036;stroke-width:1.5;" width="212" x="7" y="373"/><ellipse cx="83.25" cy="389" fill="#ADD1B2" rx="11" ry="11" style="stroke:#A80036;stroke-width:1.0;"/><path d="M85.25,385.5 Q85.4531,385 85.6875,384.75 Q85.9219,384.5 86.1875,384.5 Q86.6563,384.5 86.9531,384.7813 Q87.25,385.0625 87.25,385.7188 L87.25,387.2813 Q87.25,387.9375 86.9688,388.2188 Q86.6875,388.5 86.25,388.5 Q85.8594,388.5 85.6094,388.3281 Q85.3594,388.1563 85.25,387.7031 Q85.2031,387.3906 85.0313,387.2188 Q84.7188,386.8906 84.1563,386.7031 Q83.5938,386.5 83.0313,386.5 Q82.3281,386.5 81.7344,386.7813 Q81.1563,387.0625 80.7031,387.6875 Q80.25,388.3125 80.25,389.1719 L80.25,390.0938 Q80.25,391.125 81.0938,391.8125 Q81.9375,392.5 83.4375,392.5 Q84.3281,392.5 84.9531,392.2969 Q85.3125,392.1875 85.7188,391.8281 Q85.9844,391.625 86.125,391.5625 Q86.2656,391.5 86.4375,391.5 Q86.7656,391.5 87,391.7656 Q87.25,392.0156 87.25,392.375 Q87.25,392.7188 86.9063,393.125 Q86.4063,393.7188 85.6094,394.0469 Q84.5625,394.5 83.2813,394.5 Q81.7813,394.5 80.5781,393.9063 Q79.6094,393.4375 78.9219,392.4219 Q78.25,391.4063 78.25,390.2031 L78.25,389.1094 Q78.25,387.8594 78.8438,386.7656 Q79.4531,385.6719 80.5,385.0938 Q81.5625,384.5 82.75,384.5 Q83.4688,384.5 84.0938,384.75 Q84.7188,385 85.25,385.5 Z " fill="#000000"/><text fill="#000000" font-family="sans-serif" font-size="12" lengthAdjust="spacing" textLength="51" x="103.75" y="393.9102">PortStore</text><line style="stroke:#A80036;stroke-width:1.5;" x1="8" x2="218" y1="405" y2="405"/><rect fill="none" height="6" style="stroke:#C82930;stroke-width:1.0;" width="6" x="15" y="413"/><text fill="#000000" font-family="sans-serif" font-size="11" lengthAdjust="spacing" textLength="86" x="27" y="420.4189">KdTree&lt;Ports&gt; kd</text><line style="stroke:#A80036;stroke-width:1.0;" x1="8" x2="218" y1="426.8359" y2="426.8359"/><ellipse cx="18" cy="437.8359" fill="#84BE84" rx="3" ry="3" style="stroke:#038048;stroke-width:1.0;"/><text fill="#000000" font-family="sans-serif" font-size="11" lengthAdjust="spacing" textLength="68" x="27" y="442.2549">getPortStore()</text><ellipse cx="18" cy="451.6719" fill="#84BE84" rx="3" ry="3" style="stroke:#038048;stroke-width:1.0;"/><text fill="#000000" font-family="sans-serif" font-size="11" lengthAdjust="spacing" textLength="186" x="27" y="456.0908">insert(Ports port,double lat, double lon)</text><!--MD5=[ea13aecf8df941b18fb8e3885c78c184]
class Ports--><rect codeLine="22" fill="#FEFECE" filter="url(#f1mndm7e4ayk9z)" height="144.8516" id="Ports" style="stroke:#A80036;stroke-width:1.5;" width="71" x="77.5" y="523"/><ellipse cx="97" cy="539" fill="#ADD1B2" rx="11" ry="11" style="stroke:#A80036;stroke-width:1.0;"/><path d="M99,535.5 Q99.2031,535 99.4375,534.75 Q99.6719,534.5 99.9375,534.5 Q100.4063,534.5 100.7031,534.7813 Q101,535.0625 101,535.7188 L101,537.2813 Q101,537.9375 100.7188,538.2188 Q100.4375,538.5 100,538.5 Q99.6094,538.5 99.3594,538.3281 Q99.1094,538.1563 99,537.7031 Q98.9531,537.3906 98.7813,537.2188 Q98.4688,536.8906 97.9063,536.7031 Q97.3438,536.5 96.7813,536.5 Q96.0781,536.5 95.4844,536.7813 Q94.9063,537.0625 94.4531,537.6875 Q94,538.3125 94,539.1719 L94,540.0938 Q94,541.125 94.8438,541.8125 Q95.6875,542.5 97.1875,542.5 Q98.0781,542.5 98.7031,542.2969 Q99.0625,542.1875 99.4688,541.8281 Q99.7344,541.625 99.875,541.5625 Q100.0156,541.5 100.1875,541.5 Q100.5156,541.5 100.75,541.7656 Q101,542.0156 101,542.375 Q101,542.7188 100.6563,543.125 Q100.1563,543.7188 99.3594,544.0469 Q98.3125,544.5 97.0313,544.5 Q95.5313,544.5 94.3281,543.9063 Q93.3594,543.4375 92.6719,542.4219 Q92,541.4063 92,540.2031 L92,539.1094 Q92,537.8594 92.5938,536.7656 Q93.2031,535.6719 94.25,535.0938 Q95.3125,534.5 96.5,534.5 Q97.2188,534.5 97.8438,534.75 Q98.4688,535 99,535.5 Z " fill="#000000"/><text fill="#000000" font-family="sans-serif" font-size="12" lengthAdjust="spacing" textLength="29" x="112" y="543.9102">Ports</text><line style="stroke:#A80036;stroke-width:1.5;" x1="78.5" x2="147.5" y1="555" y2="555"/><rect fill="none" height="6" style="stroke:#C82930;stroke-width:1.0;" width="6" x="85.5" y="563"/><text fill="#000000" font-family="sans-serif" font-size="11" lengthAdjust="spacing" textLength="27" x="97.5" y="570.4189">idPort</text><rect fill="none" height="6" style="stroke:#C82930;stroke-width:1.0;" width="6" x="85.5" y="576.8359"/><text fill="#000000" font-family="sans-serif" font-size="11" lengthAdjust="spacing" textLength="26" x="97.5" y="584.2549">name</text><rect fill="none" height="6" style="stroke:#C82930;stroke-width:1.0;" width="6" x="85.5" y="590.6719"/><text fill="#000000" font-family="sans-serif" font-size="11" lengthAdjust="spacing" textLength="11" x="97.5" y="598.0908">lat</text><rect fill="none" height="6" style="stroke:#C82930;stroke-width:1.0;" width="6" x="85.5" y="604.5078"/><text fill="#000000" font-family="sans-serif" font-size="11" lengthAdjust="spacing" textLength="14" x="97.5" y="611.9268">lon</text><rect fill="none" height="6" style="stroke:#C82930;stroke-width:1.0;" width="6" x="85.5" y="618.3438"/><text fill="#000000" font-family="sans-serif" font-size="11" lengthAdjust="spacing" textLength="44" x="97.5" y="625.7627">continent</text><rect fill="none" height="6" style="stroke:#C82930;stroke-width:1.0;" width="6" x="85.5" y="632.1797"/><text fill="#000000" font-family="sans-serif" font-size="11" lengthAdjust="spacing" textLength="37" x="97.5" y="639.5986">country</text><line style="stroke:#A80036;stroke-width:1.0;" x1="78.5" x2="147.5" y1="646.0156" y2="646.0156"/><ellipse cx="88.5" cy="657.0156" fill="#84BE84" rx="3" ry="3" style="stroke:#038048;stroke-width:1.0;"/><text fill="#000000" font-family="sans-serif" font-size="11" lengthAdjust="spacing" textLength="45" x="97.5" y="661.4346">toString()</text><!--MD5=[eeca93b3ed19545892787f92c62f11d1]
link PortShipUI to ReadPortController--><path codeLine="33" d="M113,55.14 C113,70.71 113,91.53 113,109.22 " fill="none" id="PortShipUI-to-ReadPortController" style="stroke:#A80036;stroke-width:1.0;stroke-dasharray:7.0,7.0;"/><polygon fill="#A80036" points="113,114.6,117,105.6,113,109.6,109,105.6,113,114.6" style="stroke:#A80036;stroke-width:1.0;"/><!--MD5=[d3af86c350274c15b234bc72cedae4ed]
link ReadPortController to Company--><path codeLine="34" d="M101.15,177.1 C94.71,193.46 86.64,213.95 79.58,231.87 " fill="none" id="ReadPortController-to-Company" style="stroke:#A80036;stroke-width:1.0;stroke-dasharray:7.0,7.0;"/><polygon fill="#A80036" points="77.62,236.86,84.6398,229.9519,79.4522,232.2078,77.1963,227.0203,77.62,236.86" style="stroke:#A80036;stroke-width:1.0;"/><!--MD5=[5a03d6507d51d9583d52cfaf8d4720dd]
link Company to PortStore--><path codeLine="35" d="M76.14,313.05 C82.09,329.83 89.21,349.9 95.59,367.91 " fill="none" id="Company-to-PortStore" style="stroke:#A80036;stroke-width:1.0;"/><polygon fill="#A80036" points="97.37,372.93,98.1326,363.1107,95.6992,368.2174,90.5925,365.784,97.37,372.93" style="stroke:#A80036;stroke-width:1.0;"/><!--MD5=[3a16021b68ae8ace0d154451475e34e6]
link ReadPortController to PortStore--><path codeLine="36" d="M119.32,177.25 C122.64,194.64 126.34,216.95 128,237 C130.79,270.66 130.42,279.31 128,313 C126.72,330.89 124.21,350.38 121.6,367.6 " fill="none" id="ReadPortController-to-PortStore" style="stroke:#A80036;stroke-width:1.0;stroke-dasharray:7.0,7.0;"/><polygon fill="#A80036" points="120.79,372.87,126.13,364.5945,121.561,367.9298,118.2257,363.3608,120.79,372.87" style="stroke:#A80036;stroke-width:1.0;"/><!--MD5=[af03eac9374996fab52622a2288382b0]
link PortStore to Ports--><path codeLine="37" d="M113,463.29 C113,479.81 113,499.08 113,517.68 " fill="none" id="PortStore-to-Ports" style="stroke:#A80036;stroke-width:1.0;"/><polygon fill="#A80036" points="113,522.91,117,513.91,113,517.91,109,513.91,113,522.91" style="stroke:#A80036;stroke-width:1.0;"/><!--MD5=[df55776a2f50ba9ccbae63ab61e4219a]
@startuml
class PortShipUI{
}

class ReadPortController{
+getPorts(String code, Date data)
}

class Company{
-PortStore ps
- -
+getPortStore()
}

class PortStore{
-KdTree<Ports> kd
- -
+getPortStore()
+insert(Ports port,double lat, double lon)
}


class Ports{
-idPort
-name
-lat
-lon
-continent
-country
- -
+toString()
}

PortShipUI ..> ReadPortController
ReadPortController ..> Company
Company - -> PortStore
ReadPortController ..> PortStore
PortStore - -> Ports

@enduml

PlantUML version 1.2021.11(Sat Oct 02 14:26:11 BST 2021)
(GPL source distribution)
Java Runtime: OpenJDK Runtime Environment
JVM: OpenJDK 64-Bit Server VM
Default Encoding: Cp1252
Language: pt
Country: PT
--></g></svg>