<?xml version="1.0" encoding="UTF-8" standalone="no"?><svg xmlns="http://www.w3.org/2000/svg" xmlns:xlink="http://www.w3.org/1999/xlink" contentScriptType="application/ecmascript" contentStyleType="text/css" height="138px" preserveAspectRatio="none" style="width:307px;height:138px;background:#FFFFFF;" version="1.1" viewBox="0 0 307 138" width="307px" zoomAndPan="magnify"><defs><filter height="300%" id="f1tut4ffm2y73a" width="300%" x="-1" y="-1"><feGaussianBlur result="blurOut" stdDeviation="2.0"/><feColorMatrix in="blurOut" result="blurOut2" type="matrix" values="0 0 0 0 0 0 0 0 0 0 0 0 0 0 0 0 0 0 .4 0"/><feOffset dx="4.0" dy="4.0" in="blurOut2" result="blurOut3"/><feBlend in="SourceGraphic" in2="blurOut3" mode="normal"/></filter></defs><g><!--MD5=[02e4b9b7573f1156f41e60aa5b4e25a4]
class Company--><rect codeLine="3" fill="#FEFECE" filter="url(#f1tut4ffm2y73a)" height="61.8359" id="Company" style="stroke:#A80036;stroke-width:1.5;" width="85" x="7" y="34.5"/><ellipse cx="22" cy="50.5" fill="#ADD1B2" rx="11" ry="11" style="stroke:#A80036;stroke-width:1.0;"/><path d="M24,47 Q24.2031,46.5 24.4375,46.25 Q24.6719,46 24.9375,46 Q25.4063,46 25.7031,46.2813 Q26,46.5625 26,47.2188 L26,48.7813 Q26,49.4375 25.7188,49.7188 Q25.4375,50 25,50 Q24.6094,50 24.3594,49.8281 Q24.1094,49.6563 24,49.2031 Q23.9531,48.8906 23.7813,48.7188 Q23.4688,48.3906 22.9063,48.2031 Q22.3438,48 21.7813,48 Q21.0781,48 20.4844,48.2813 Q19.9063,48.5625 19.4531,49.1875 Q19,49.8125 19,50.6719 L19,51.5938 Q19,52.625 19.8438,53.3125 Q20.6875,54 22.1875,54 Q23.0781,54 23.7031,53.7969 Q24.0625,53.6875 24.4688,53.3281 Q24.7344,53.125 24.875,53.0625 Q25.0156,53 25.1875,53 Q25.5156,53 25.75,53.2656 Q26,53.5156 26,53.875 Q26,54.2188 25.6563,54.625 Q25.1563,55.2188 24.3594,55.5469 Q23.3125,56 22.0313,56 Q20.5313,56 19.3281,55.4063 Q18.3594,54.9375 17.6719,53.9219 Q17,52.9063 17,51.7031 L17,50.6094 Q17,49.3594 17.5938,48.2656 Q18.2031,47.1719 19.25,46.5938 Q20.3125,46 21.5,46 Q22.2188,46 22.8438,46.25 Q23.4688,46.5 24,47 Z " fill="#000000"/><text fill="#000000" font-family="sans-serif" font-size="12" lengthAdjust="spacing" textLength="53" x="36" y="55.4102">Company</text><line style="stroke:#A80036;stroke-width:1.5;" x1="8" x2="91" y1="66.5" y2="66.5"/><rect fill="none" height="6" style="stroke:#C82930;stroke-width:1.0;" width="6" x="15" y="74.5"/><text fill="#000000" font-family="sans-serif" font-size="11" lengthAdjust="spacing" textLength="26" x="27" y="81.9189">name</text><line style="stroke:#A80036;stroke-width:1.5;" x1="8" x2="91" y1="88.3359" y2="88.3359"/><!--MD5=[437bb26754fe16ac4a5026aa47879818]
class PortWarehouse--><rect codeLine="7" fill="#FEFECE" filter="url(#f1tut4ffm2y73a)" height="117.1797" id="PortWarehouse" style="stroke:#A80036;stroke-width:1.5;" width="118" x="175" y="7"/><ellipse cx="190" cy="23" fill="#ADD1B2" rx="11" ry="11" style="stroke:#A80036;stroke-width:1.0;"/><path d="M192,19.5 Q192.2031,19 192.4375,18.75 Q192.6719,18.5 192.9375,18.5 Q193.4063,18.5 193.7031,18.7813 Q194,19.0625 194,19.7188 L194,21.2813 Q194,21.9375 193.7188,22.2188 Q193.4375,22.5 193,22.5 Q192.6094,22.5 192.3594,22.3281 Q192.1094,22.1563 192,21.7031 Q191.9531,21.3906 191.7813,21.2188 Q191.4688,20.8906 190.9063,20.7031 Q190.3438,20.5 189.7813,20.5 Q189.0781,20.5 188.4844,20.7813 Q187.9063,21.0625 187.4531,21.6875 Q187,22.3125 187,23.1719 L187,24.0938 Q187,25.125 187.8438,25.8125 Q188.6875,26.5 190.1875,26.5 Q191.0781,26.5 191.7031,26.2969 Q192.0625,26.1875 192.4688,25.8281 Q192.7344,25.625 192.875,25.5625 Q193.0156,25.5 193.1875,25.5 Q193.5156,25.5 193.75,25.7656 Q194,26.0156 194,26.375 Q194,26.7188 193.6563,27.125 Q193.1563,27.7188 192.3594,28.0469 Q191.3125,28.5 190.0313,28.5 Q188.5313,28.5 187.3281,27.9063 Q186.3594,27.4375 185.6719,26.4219 Q185,25.4063 185,24.2031 L185,23.1094 Q185,21.8594 185.5938,20.7656 Q186.2031,19.6719 187.25,19.0938 Q188.3125,18.5 189.5,18.5 Q190.2188,18.5 190.8438,18.75 Q191.4688,19 192,19.5 Z " fill="#000000"/><text fill="#000000" font-family="sans-serif" font-size="12" lengthAdjust="spacing" textLength="86" x="204" y="27.9102">PortWarehouse</text><line style="stroke:#A80036;stroke-width:1.5;" x1="176" x2="292" y1="39" y2="39"/><rect fill="none" height="6" style="stroke:#C82930;stroke-width:1.0;" width="6" x="183" y="47"/><text fill="#000000" font-family="sans-serif" font-size="11" lengthAdjust="spacing" textLength="26" x="195" y="54.4189">name</text><rect fill="none" height="6" style="stroke:#C82930;stroke-width:1.0;" width="6" x="183" y="60.8359"/><text fill="#000000" font-family="sans-serif" font-size="11" lengthAdjust="spacing" textLength="34" x="195" y="68.2549">latitude</text><rect fill="none" height="6" style="stroke:#C82930;stroke-width:1.0;" width="6" x="183" y="74.6719"/><text fill="#000000" font-family="sans-serif" font-size="11" lengthAdjust="spacing" textLength="43" x="195" y="82.0908">longitude</text><rect fill="none" height="6" style="stroke:#C82930;stroke-width:1.0;" width="6" x="183" y="88.5078"/><text fill="#000000" font-family="sans-serif" font-size="11" lengthAdjust="spacing" textLength="37" x="195" y="95.9268">country</text><rect fill="none" height="6" style="stroke:#C82930;stroke-width:1.0;" width="6" x="183" y="102.3438"/><text fill="#000000" font-family="sans-serif" font-size="11" lengthAdjust="spacing" textLength="44" x="195" y="109.7627">continent</text><line style="stroke:#A80036;stroke-width:1.5;" x1="176" x2="292" y1="116.1797" y2="116.1797"/><!--MD5=[9bc598176497c41962aad9ea04f5f1f0]
link Company to PortWarehouse--><path codeLine="15" d="M92.37,65.5 C116.78,65.5 147.95,65.5 174.73,65.5 " fill="none" id="Company-PortWarehouse" style="stroke:#A80036;stroke-width:1.0;"/><text fill="#000000" font-family="sans-serif" font-size="13" lengthAdjust="spacing" textLength="21" x="123" y="61.9951">has</text><text fill="#000000" font-family="sans-serif" font-size="13" lengthAdjust="spacing" textLength="7" x="100.05" y="80.3628">1</text><text fill="#000000" font-family="sans-serif" font-size="13" lengthAdjust="spacing" textLength="5" x="161.8157" y="80.0311">*</text><!--MD5=[69f2adbfcc6b7958201077e8a73c6fda]
@startuml
left to right direction

class Company{
    -name
}

class PortWarehouse {
    -name
    -latitude
    -longitude
    -country
    -continent
}

Company "1" - - "*" PortWarehouse : has
@enduml

PlantUML version 1.2021.11(Sat Oct 02 14:26:11 BST 2021)
(GPL source distribution)
Java Runtime: OpenJDK Runtime Environment
JVM: OpenJDK 64-Bit Server VM
Default Encoding: Cp1252
Language: pt
Country: PT
--></g></svg>