<?xml version="1.0" encoding="UTF-8" standalone="no"?><svg xmlns="http://www.w3.org/2000/svg" xmlns:xlink="http://www.w3.org/1999/xlink" contentScriptType="application/ecmascript" contentStyleType="text/css" height="366.3px" preserveAspectRatio="none" style="width:672px;height:366px;background:#FFFFFF;" version="1.1" viewBox="0 0 672 366" width="672.3px" zoomAndPan="magnify"><defs><filter height="300%" id="f1tkbujmvo9knd" width="300%" x="-1" y="-1"><feGaussianBlur result="blurOut" stdDeviation="1.8"/><feColorMatrix in="blurOut" result="blurOut2" type="matrix" values="0 0 0 0 0 0 0 0 0 0 0 0 0 0 0 0 0 0 .4 0"/><feOffset dx="3.6" dy="3.6" in="blurOut2" result="blurOut3"/><feBlend in="SourceGraphic" in2="blurOut3" mode="normal"/></filter></defs><g><rect fill="#FFFFFF" filter="url(#f1tkbujmvo9knd)" height="192.1148" style="stroke:#A80036;stroke-width:0.9;" width="9" x="41.4" y="89.6484"/><rect fill="#FFFFFF" filter="url(#f1tkbujmvo9knd)" height="171.9984" style="stroke:#A80036;stroke-width:0.9;" width="9" x="287.1" y="109.7648"/><rect fill="#FFFFFF" filter="url(#f1tkbujmvo9knd)" height="144.682" style="stroke:#A80036;stroke-width:0.9;" width="9" x="428.4" y="137.0813"/><rect fill="#FFFFFF" filter="url(#f1tkbujmvo9knd)" height="117.3656" style="stroke:#A80036;stroke-width:0.9;" width="9" x="539.1" y="164.3977"/><rect fill="#FFFFFF" filter="url(#f1tkbujmvo9knd)" height="90.0492" style="stroke:#A80036;stroke-width:0.9;" width="9" x="621.9" y="191.7141"/><line style="stroke:#A80036;stroke-width:0.9;stroke-dasharray:5.0,5.0;" x1="45.9" x2="45.9" y1="80.6484" y2="289.8633"/><line style="stroke:#A80036;stroke-width:0.9;stroke-dasharray:5.0,5.0;" x1="291.6" x2="291.6" y1="80.6484" y2="289.8633"/><line style="stroke:#A80036;stroke-width:0.9;stroke-dasharray:5.0,5.0;" x1="432.9" x2="432.9" y1="80.6484" y2="289.8633"/><line style="stroke:#A80036;stroke-width:0.9;stroke-dasharray:5.0,5.0;" x1="543.6" x2="543.6" y1="80.6484" y2="289.8633"/><line style="stroke:#A80036;stroke-width:0.9;stroke-dasharray:5.0,5.0;" x1="626.4" x2="626.4" y1="80.6484" y2="289.8633"/><text fill="#000000" font-family="sans-serif" font-size="12.6" lengthAdjust="spacing" textLength="77.4" x="4.5" y="77.8799">Port Manager</text><ellipse cx="45.9" cy="13.5" fill="#FEFECE" filter="url(#f1tkbujmvo9knd)" rx="7.2" ry="7.2" style="stroke:#A80036;stroke-width:1.8;"/><path d="M45.9,20.7 L45.9,45 M34.2,27.9 L57.6,27.9 M45.9,45 L34.2,58.5 M45.9,45 L57.6,58.5 " fill="none" filter="url(#f1tkbujmvo9knd)" style="stroke:#A80036;stroke-width:1.8;"/><text fill="#000000" font-family="sans-serif" font-size="12.6" lengthAdjust="spacing" textLength="77.4" x="4.5" y="302.0432">Port Manager</text><ellipse cx="45.9" cy="313.8117" fill="#FEFECE" filter="url(#f1tkbujmvo9knd)" rx="7.2" ry="7.2" style="stroke:#A80036;stroke-width:1.8;"/><path d="M45.9,321.0117 L45.9,345.3117 M34.2,328.2117 L57.6,328.2117 M45.9,345.3117 L34.2,358.8117 M45.9,345.3117 L57.6,358.8117 " fill="none" filter="url(#f1tkbujmvo9knd)" style="stroke:#A80036;stroke-width:1.8;"/><rect fill="#FEFECE" filter="url(#f1tkbujmvo9knd)" height="28.4484" style="stroke:#A80036;stroke-width:1.35;" width="75.6" x="252" y="47.7"/><text fill="#000000" font-family="sans-serif" font-size="12.6" lengthAdjust="spacing" textLength="63" x="258.3" y="67.0799">:PortShipUI</text><rect fill="#FEFECE" filter="url(#f1tkbujmvo9knd)" height="28.4484" style="stroke:#A80036;stroke-width:1.35;" width="75.6" x="252" y="288.9633"/><text fill="#000000" font-family="sans-serif" font-size="12.6" lengthAdjust="spacing" textLength="63" x="258.3" y="308.3432">:PortShipUI</text><rect fill="#FEFECE" filter="url(#f1tkbujmvo9knd)" height="28.4484" style="stroke:#A80036;stroke-width:1.35;" width="126" x="368.1" y="47.7"/><text fill="#000000" font-family="sans-serif" font-size="12.6" lengthAdjust="spacing" textLength="113.4" x="374.4" y="67.0799">:ReadPortController</text><rect fill="#FEFECE" filter="url(#f1tkbujmvo9knd)" height="28.4484" style="stroke:#A80036;stroke-width:1.35;" width="126" x="368.1" y="288.9633"/><text fill="#000000" font-family="sans-serif" font-size="12.6" lengthAdjust="spacing" textLength="113.4" x="374.4" y="308.3432">:ReadPortController</text><rect fill="#FEFECE" filter="url(#f1tkbujmvo9knd)" height="28.4484" style="stroke:#A80036;stroke-width:1.35;" width="70.2" x="506.7" y="47.7"/><text fill="#000000" font-family="sans-serif" font-size="12.6" lengthAdjust="spacing" textLength="57.6" x="513" y="67.0799">:Company</text><rect fill="#FEFECE" filter="url(#f1tkbujmvo9knd)" height="28.4484" style="stroke:#A80036;stroke-width:1.35;" width="70.2" x="506.7" y="288.9633"/><text fill="#000000" font-family="sans-serif" font-size="12.6" lengthAdjust="spacing" textLength="57.6" x="513" y="308.3432">:Company</text><rect fill="#FEFECE" filter="url(#f1tkbujmvo9knd)" height="28.4484" style="stroke:#A80036;stroke-width:1.35;" width="70.2" x="589.5" y="47.7"/><text fill="#000000" font-family="sans-serif" font-size="12.6" lengthAdjust="spacing" textLength="57.6" x="595.8" y="67.0799">:PortStore</text><rect fill="#FEFECE" filter="url(#f1tkbujmvo9knd)" height="28.4484" style="stroke:#A80036;stroke-width:1.35;" width="70.2" x="589.5" y="288.9633"/><text fill="#000000" font-family="sans-serif" font-size="12.6" lengthAdjust="spacing" textLength="57.6" x="595.8" y="308.3432">:PortStore</text><rect fill="#FFFFFF" filter="url(#f1tkbujmvo9knd)" height="192.1148" style="stroke:#A80036;stroke-width:0.9;" width="9" x="41.4" y="89.6484"/><rect fill="#FFFFFF" filter="url(#f1tkbujmvo9knd)" height="171.9984" style="stroke:#A80036;stroke-width:0.9;" width="9" x="287.1" y="109.7648"/><rect fill="#FFFFFF" filter="url(#f1tkbujmvo9knd)" height="144.682" style="stroke:#A80036;stroke-width:0.9;" width="9" x="428.4" y="137.0813"/><rect fill="#FFFFFF" filter="url(#f1tkbujmvo9knd)" height="117.3656" style="stroke:#A80036;stroke-width:0.9;" width="9" x="539.1" y="164.3977"/><rect fill="#FFFFFF" filter="url(#f1tkbujmvo9knd)" height="90.0492" style="stroke:#A80036;stroke-width:0.9;" width="9" x="621.9" y="191.7141"/><polygon fill="#A80036" points="276.3,106.1648,285.3,109.7648,276.3,113.3648,279.9,109.7648" style="stroke:#A80036;stroke-width:0.9;"/><line style="stroke:#A80036;stroke-width:0.9;" x1="50.4" x2="281.7" y1="109.7648" y2="109.7648"/><text fill="#000000" font-family="sans-serif" font-size="11.7" font-weight="bold" lengthAdjust="spacing" textLength="6.3" x="56.7" y="105.394">1</text><text fill="#000000" font-family="sans-serif" font-size="11.7" lengthAdjust="spacing" textLength="209.7" x="66.6" y="105.394">Reads the text file of big and small ports</text><polygon fill="#A80036" points="417.6,133.4813,426.6,137.0813,417.6,140.6813,421.2,137.0813" style="stroke:#A80036;stroke-width:0.9;"/><line style="stroke:#A80036;stroke-width:0.9;" x1="296.1" x2="423" y1="137.0813" y2="137.0813"/><text fill="#000000" font-family="sans-serif" font-size="11.7" font-weight="bold" lengthAdjust="spacing" textLength="6.3" x="302.4" y="132.7104">2</text><text fill="#000000" font-family="sans-serif" font-size="11.7" lengthAdjust="spacing" textLength="105.3" x="312.3" y="132.7104">ReadPortController()</text><polygon fill="#A80036" points="528.3,160.7977,537.3,164.3977,528.3,167.9977,531.9,164.3977" style="stroke:#A80036;stroke-width:0.9;"/><line style="stroke:#A80036;stroke-width:0.9;" x1="437.4" x2="533.7" y1="164.3977" y2="164.3977"/><text fill="#000000" font-family="sans-serif" font-size="11.7" font-weight="bold" lengthAdjust="spacing" textLength="6.3" x="443.7" y="160.0269">3</text><text fill="#000000" font-family="sans-serif" font-size="11.7" lengthAdjust="spacing" textLength="72.9" x="453.6" y="160.0269">getPortStore()</text><polygon fill="#A80036" points="611.1,188.1141,620.1,191.7141,611.1,195.3141,614.7,191.7141" style="stroke:#A80036;stroke-width:0.9;"/><line style="stroke:#A80036;stroke-width:0.9;" x1="548.1" x2="616.5" y1="191.7141" y2="191.7141"/><text fill="#000000" font-family="sans-serif" font-size="11.7" font-weight="bold" lengthAdjust="spacing" textLength="6.3" x="554.4" y="187.3433">4</text><text fill="#000000" font-family="sans-serif" font-size="11.7" lengthAdjust="spacing" textLength="36" x="564.3" y="187.3433">insert()</text><polygon fill="#A80036" points="558,215.4305,549,219.0305,558,222.6305,554.4,219.0305" style="stroke:#A80036;stroke-width:0.9;"/><line style="stroke:#A80036;stroke-width:0.9;stroke-dasharray:2.0,2.0;" x1="552.6" x2="621" y1="219.0305" y2="219.0305"/><text fill="#000000" font-family="sans-serif" font-size="11.7" font-weight="bold" lengthAdjust="spacing" textLength="6.3" x="563.4" y="214.6597">5</text><text fill="#000000" font-family="sans-serif" font-size="11.7" lengthAdjust="spacing" textLength="36.9" x="573.3" y="214.6597">KdTree</text><polygon fill="#A80036" points="447.3,242.7469,438.3,246.3469,447.3,249.9469,443.7,246.3469" style="stroke:#A80036;stroke-width:0.9;"/><line style="stroke:#A80036;stroke-width:0.9;stroke-dasharray:2.0,2.0;" x1="441.9" x2="538.2" y1="246.3469" y2="246.3469"/><text fill="#000000" font-family="sans-serif" font-size="11.7" font-weight="bold" lengthAdjust="spacing" textLength="6.3" x="452.7" y="241.9761">6</text><text fill="#000000" font-family="sans-serif" font-size="11.7" lengthAdjust="spacing" textLength="36.9" x="462.6" y="241.9761">KdTree</text><polygon fill="#A80036" points="306,270.0633,297,273.6633,306,277.2633,302.4,273.6633" style="stroke:#A80036;stroke-width:0.9;"/><line style="stroke:#A80036;stroke-width:0.9;stroke-dasharray:2.0,2.0;" x1="300.6" x2="427.5" y1="273.6633" y2="273.6633"/><text fill="#000000" font-family="sans-serif" font-size="11.7" font-weight="bold" lengthAdjust="spacing" textLength="6.3" x="311.4" y="269.2925">7</text><text fill="#000000" font-family="sans-serif" font-size="11.7" lengthAdjust="spacing" textLength="36.9" x="321.3" y="269.2925">KdTree</text><!--MD5=[ba7c090089d1cec3a1259ffea524a25b]
@startuml
autonumber
actor "Port Manager" as PM

participant ":PortShipUI" as psui
participant ":ReadPortController" as rpc
participant ":Company" as comp
participant ":PortStore" as ps


activate PM
PM -> psui : Reads the text file of big and small ports
activate psui
psui -> rpc : ReadPortController()
activate rpc
rpc -> comp : getPortStore()
activate comp
comp -> ps : insert()
activate ps
ps - -> comp : KdTree
comp - -> rpc : KdTree
rpc - -> psui : KdTree



@enduml

PlantUML version 1.2021.11(Sat Oct 02 14:26:11 BST 2021)
(GPL source distribution)
Java Runtime: OpenJDK Runtime Environment
JVM: OpenJDK 64-Bit Server VM
Default Encoding: Cp1252
Language: pt
Country: PT
--></g></svg>