<?xml version="1.0" standalone="no"?>
<!DOCTYPE svg PUBLIC "-//W3C//DTD SVG 20010904//EN"
 "http://www.w3.org/TR/2001/REC-SVG-20010904/DTD/svg10.dtd">
<svg version="1.0" xmlns="http://www.w3.org/2000/svg"
 width="880.000000pt" height="640.000000pt" viewBox="0 0 880.000000 640.000000"
 preserveAspectRatio="xMidYMid meet">
<metadata>
Created by potrace 1.16, written by Peter Selinger 2001-2019
</metadata>
<g transform="translate(0.000000,640.000000) scale(0.100000,-0.100000)"
fill="#000000" stroke="none">
<path d="M1515 5995 c-137 -74 -166 -239 -60 -341 28 -27 58 -45 89 -53 l46
-11 0 -85 0 -85 -195 0 c-167 0 -195 -2 -195 -15 0 -13 28 -15 195 -15 l195 0
0 -164 0 -165 -200 -315 c-110 -174 -200 -318 -200 -321 0 -3 6 -5 13 -5 7 0
99 135 203 300 104 165 191 300 194 300 14 0 40 -62 40 -94 0 -36 16 -50 22
-19 2 10 70 -90 162 -235 88 -139 165 -252 173 -252 7 0 13 2 13 5 0 3 -79
130 -176 282 -97 153 -185 296 -197 318 -19 35 -22 59 -25 203 l-4 162 196 0
c168 0 196 2 196 15 0 13 -28 15 -195 15 l-195 0 0 85 0 85 44 11 c129 32 192
174 131 296 -37 73 -89 107 -174 111 -47 2 -75 -2 -96 -13z m180 -38 c93 -51
115 -197 42 -275 -33 -36 -91 -62 -137 -62 -137 0 -226 155 -156 275 53 89
154 114 251 62z"/>
<path d="M6810 5390 c-20 -20 -20 -33 -20 -590 0 -557 0 -570 20 -590 20 -20
33 -20 790 -20 757 0 770 0 790 20 20 20 20 33 20 590 0 557 0 570 -20 590
-20 20 -33 20 -790 20 -757 0 -770 0 -790 -20z m1560 -20 c20 -20 20 -33 20
-570 0 -537 0 -550 -20 -570 -20 -20 -33 -20 -770 -20 -737 0 -750 0 -770 20
-20 20 -20 33 -20 570 0 537 0 550 20 570 20 20 33 20 770 20 737 0 750 0 770
-20z"/>
<path d="M7410 3634 l0 -24 -930 0 c-613 0 -930 -3 -930 -10 0 -7 317 -10 930
-10 l930 0 0 -24 0 -23 85 25 c47 14 85 28 85 32 0 4 -38 18 -85 32 l-85 25 0
-23z"/>
<path d="M1640 3530 c0 -60 4 -100 10 -100 6 0 10 33 10 80 l0 80 1020 0 c673
0 1020 3 1020 10 0 7 -347 10 -1020 10 -673 0 -1020 3 -1020 10 0 6 -4 10 -10
10 -6 0 -10 -40 -10 -100z"/>
</g>
</svg>
