<?xml version="1.0" standalone="no"?>
<!DOCTYPE svg PUBLIC "-//W3C//DTD SVG 20010904//EN"
 "http://www.w3.org/TR/2001/REC-SVG-20010904/DTD/svg10.dtd">
<svg version="1.0" xmlns="http://www.w3.org/2000/svg"
 width="2550.000000pt" height="3300.000000pt" viewBox="0 0 2550.000000 3300.000000"
 preserveAspectRatio="xMidYMid meet">
<metadata>
Created by potrace 1.16, written by Peter Selinger 2001-2019
</metadata>
<g transform="translate(0.000000,3300.000000) scale(0.100000,-0.100000)"
fill="#000000" stroke="none">
<path d="M7583 28112 c-12 -9 -27 -30 -32 -45 -8 -20 -11 -854 -11 -2693 l0
-2664 -682 0 c-376 0 -862 3 -1080 7 l-398 6 0 174 0 173 370 0 c240 0 370 4
370 10 0 6 -130 10 -370 10 l-370 0 0 174 0 173 40 7 c128 20 236 99 292 214
30 61 33 75 33 157 -1 121 -27 189 -104 265 -31 31 -77 66 -103 78 -227 110
-486 -20 -539 -270 -44 -203 105 -410 321 -444 l40 -7 0 -173 0 -174 -370 0
c-240 0 -370 -4 -370 -10 0 -6 130 -10 370 -10 l370 0 0 -175 c0 -149 -2 -175
-15 -175 -8 0 -15 -4 -15 -10 0 -5 6 -10 14 -10 11 0 15 -30 18 -142 2 -79 1
-145 -2 -148 -3 -3 -126 -194 -272 -425 -146 -231 -313 -495 -371 -587 -58
-92 -102 -170 -98 -172 5 -3 174 257 376 577 202 320 372 586 376 591 5 5 13
-3 19 -19 18 -47 722 -1155 731 -1149 5 2 -7 28 -25 57 -385 603 -683 1083
-697 1124 -15 40 -19 81 -19 174 l0 122 608 -6 c334 -4 820 -7 1079 -7 l473 0
2 -4195 3 -4195 28 -27 27 -28 5128 -2 c4087 -2 5132 0 5152 10 14 7 33 28 42
47 17 33 18 384 18 6887 0 4245 -4 6861 -9 6876 -6 14 -20 35 -32 46 l-23 21
-5135 0 c-4851 0 -5137 -1 -5158 -18z m10282 -7 c21 -8 39 -25 45 -40 15 -40
14 -13729 -2 -13758 -6 -12 -18 -27 -27 -34 -23 -18 -10259 -18 -10282 0 -9 7
-21 22 -27 34 -9 16 -12 1043 -12 4202 l0 4180 1282 -6 c972 -5 1279 -3 1274
5 -5 9 -243 12 -944 12 -515 0 -1089 3 -1274 7 l-338 6 0 2669 c0 1890 3 2675
11 2689 27 51 -298 48 5167 49 4429 0 5097 -2 5127 -15z m-12339 -3963 c70
-35 146 -113 177 -180 18 -38 22 -66 22 -142 0 -85 -3 -101 -29 -154 -37 -76
-96 -135 -172 -172 -53 -26 -69 -29 -154 -29 -84 0 -102 3 -152 28 -74 36
-139 101 -175 175 -24 50 -28 69 -28 147 0 78 4 98 28 150 34 73 95 138 162
172 70 37 99 43 186 39 59 -3 88 -10 135 -34z"/>
<path d="M12088 27965 c-32 -18 -45 -56 -32 -93 7 -20 25 -32 71 -50 70 -26
85 -48 53 -74 -30 -24 -66 -22 -93 5 -15 14 -32 21 -50 19 -30 -4 -31 -5 -17
-33 29 -53 155 -66 204 -20 56 53 38 108 -46 139 -60 23 -78 43 -59 66 18 22
53 20 83 -3 26 -21 68 -19 68 4 0 44 -125 72 -182 40z"/>
<path d="M12814 27935 c-9 -14 -22 -25 -29 -25 -19 0 -26 -28 -10 -37 12 -7
13 -20 3 -76 -10 -60 -9 -69 7 -87 25 -27 75 -27 75 0 0 12 -7 20 -16 20 -15
0 -16 9 -10 61 7 71 11 79 35 79 10 0 21 9 24 20 4 15 0 20 -14 20 -14 0 -19
7 -19 25 0 15 -6 25 -15 25 -8 0 -22 -11 -31 -25z"/>
<path d="M12604 27909 c-42 -12 -56 -31 -52 -71 3 -28 9 -35 45 -48 54 -20 71
-36 56 -51 -6 -6 -24 -11 -39 -11 -16 0 -30 5 -32 11 -4 13 -62 15 -62 2 0 -5
12 -19 26 -30 47 -37 146 -23 164 23 15 40 2 64 -46 82 -56 21 -70 37 -48 55
13 11 21 10 48 -5 39 -21 70 -13 56 14 -9 17 -26 25 -70 35 -8 2 -29 -1 -46
-6z"/>
<path d="M12990 27911 c-61 -15 -90 -56 -90 -129 0 -63 28 -92 87 -92 38 0 93
29 93 50 0 15 -44 19 -60 5 -23 -21 -47 -19 -60 4 -19 37 -12 41 65 41 l75 0
0 34 c0 60 -53 101 -110 87z"/>
<path d="M13260 27913 c-8 -3 -24 -13 -34 -22 -18 -15 -19 -15 -13 2 5 14 1
17 -22 17 -28 0 -29 -2 -46 -92 -9 -51 -19 -101 -22 -110 -3 -14 2 -18 25 -18
28 0 30 3 42 62 15 80 35 118 61 118 29 0 31 -17 14 -99 -8 -40 -15 -74 -15
-77 0 -2 13 -4 29 -4 28 0 29 3 41 68 14 77 32 112 59 112 28 0 31 -19 15
-101 -8 -41 -14 -75 -14 -76 0 -2 13 -3 28 -3 27 0 29 3 40 64 23 122 13 159
-44 159 -14 0 -36 -10 -49 -23 l-23 -22 -7 21 c-3 12 -10 21 -15 21 -5 0 -14
2 -22 4 -7 3 -20 2 -28 -1z"/>
<path d="M12310 27893 c1 -10 9 -58 20 -108 l19 -90 -21 -22 c-12 -13 -30 -23
-40 -23 -11 0 -18 -7 -18 -20 0 -16 7 -20 30 -20 42 0 80 39 140 145 29 50 61
105 72 123 l20 32 -31 0 c-28 0 -34 -6 -73 -82 l-42 -83 -11 80 c-10 77 -11
80 -37 83 -22 3 -28 -1 -28 -15z"/>
<path d="M12285 24353 c-124 -12 -364 -47 -468 -69 -265 -56 -476 -128 -712
-245 -411 -202 -687 -453 -848 -775 -157 -310 -156 -651 3 -969 76 -153 159
-263 302 -401 275 -263 650 -460 1103 -579 135 -36 363 -79 475 -90 206 -20
261 -23 425 -23 1127 2 2093 495 2362 1208 60 158 82 391 52 554 -104 574
-692 1073 -1514 1285 -122 32 -351 75 -490 92 -86 11 -607 20 -690 12z m211
-1234 c0 -8 2 -26 2 -41 2 -24 5 -26 35 -22 58 9 72 -12 72 -107 0 -70 -2 -82
-17 -85 -16 -2 -18 6 -18 61 0 79 -6 95 -35 95 -31 0 -33 -4 -37 -84 -3 -70
-7 -80 -30 -71 -10 4 -13 34 -12 133 0 70 2 130 2 134 3 12 37 1 38 -13z
m-1216 -71 c0 -9 3 -9 12 0 15 15 60 16 76 0 9 -9 18 -9 37 0 73 34 105 2 105
-105 0 -66 -2 -73 -20 -73 -18 0 -20 7 -20 70 0 57 -3 71 -19 79 -34 19 -50
-7 -53 -84 -2 -54 -6 -70 -18 -70 -11 0 -16 14 -18 55 -4 89 -8 100 -42 100
-34 0 -38 -11 -42 -100 -2 -41 -7 -55 -18 -55 -12 0 -16 17 -18 84 -2 46 -1
90 2 98 7 16 36 17 36 1z m406 -13 c35 -35 34 -116 -1 -150 -26 -27 -46 -31
-76 -15 -17 10 -19 7 -19 -30 0 -33 -3 -40 -20 -40 -19 0 -20 7 -20 129 l0
128 56 1 c47 0 61 -4 80 -23z m198 -1 c48 -48 32 -144 -27 -163 -83 -28 -145
56 -106 143 23 50 92 60 133 20z m516 4 c36 -39 15 -62 -26 -29 -20 16 -30 18
-46 10 -15 -8 -17 -13 -7 -25 6 -8 20 -14 30 -14 10 0 30 -10 45 -23 22 -19
26 -29 20 -51 -12 -47 -85 -58 -128 -19 -10 9 -18 22 -18 30 0 18 37 16 44 -3
4 -10 15 -14 33 -12 43 5 34 30 -16 48 -55 19 -68 48 -40 84 27 34 79 36 109
4z m370 10 c0 -9 3 -9 12 0 19 19 65 14 87 -9 61 -66 7 -201 -70 -172 -29 11
-29 11 -29 -26 0 -42 -6 -52 -26 -44 -11 4 -14 33 -14 134 0 122 1 129 20 129
11 0 20 -5 20 -12z m607 -3 c12 -8 27 -31 33 -50 36 -110 -100 -186 -153 -84
-46 89 43 188 120 134z m203 0 c9 -11 16 -11 39 2 37 22 75 11 90 -25 17 -41
10 -157 -9 -157 -11 0 -16 14 -18 55 -4 85 -9 100 -36 100 -35 0 -45 -19 -48
-90 -2 -50 -7 -65 -18 -65 -12 0 -16 17 -20 75 l-5 75 -30 0 -30 0 -3 -72 c-3
-65 -5 -73 -22 -73 -18 0 -20 7 -20 94 l0 93 59 1 c39 1 63 -4 71 -13z m388
-2 c16 -14 21 -34 25 -95 3 -58 1 -78 -9 -82 -7 -3 -16 -1 -19 4 -3 5 -17 5
-34 -1 -32 -11 -78 2 -87 26 -9 23 4 63 24 74 10 5 32 12 48 14 16 2 30 11 32
19 4 23 -28 31 -55 13 -13 -9 -32 -15 -41 -13 -14 3 -13 8 10 31 32 32 76 36
106 10z m-590 -349 c24 -16 31 -71 12 -90 -8 -8 -6 -20 6 -40 21 -36 13 -78
-16 -94 -11 -6 -47 -13 -80 -17 -53 -4 -60 -3 -62 13 -4 51 -4 221 0 232 6 18
112 16 140 -4z m219 -6 c24 -23 31 -58 11 -58 -7 0 -22 12 -34 27 -19 24 -25
26 -50 18 -49 -17 -38 -46 31 -80 44 -23 61 -37 66 -57 21 -83 -130 -120 -171
-42 -11 19 -11 27 -1 37 10 9 17 6 33 -15 35 -49 123 -30 92 20 -6 8 -28 21
-49 29 -54 19 -75 40 -75 79 0 41 30 64 84 64 27 0 47 -7 63 -22z m-2052 -44
c19 -8 45 -55 45 -84 0 -18 -6 -20 -60 -20 -61 0 -75 -11 -48 -38 15 -15 65
-16 74 -1 4 7 9 8 17 0 14 -14 -7 -38 -43 -46 -32 -7 -84 15 -94 40 -3 9 -6
35 -6 58 1 70 56 113 115 91z m105 -1 c0 -5 9 -19 19 -32 l19 -24 16 31 c10
20 24 32 36 32 26 0 25 -8 -5 -52 -14 -20 -25 -41 -25 -45 0 -5 11 -25 25 -45
14 -20 25 -42 25 -47 0 -24 -31 -9 -55 26 -14 21 -25 33 -25 28 0 -6 -10 -22
-23 -37 -16 -20 -26 -25 -36 -19 -12 8 -10 16 13 51 29 45 29 45 -9 103 l-25
37 25 0 c14 0 25 -3 25 -7z m765 -18 c16 -15 25 -36 25 -55 l0 -30 -60 0 c-61
0 -75 -11 -48 -38 15 -15 65 -16 74 -1 4 8 9 8 17 0 15 -15 -10 -39 -50 -47
-27 -5 -37 -1 -63 24 -24 25 -30 39 -30 75 0 38 5 49 31 71 38 33 73 33 104 1z
m389 0 c21 -19 26 -33 26 -69 0 -59 -7 -74 -42 -92 -94 -48 -175 81 -99 157
37 37 78 38 115 4z m272 11 c15 -12 20 -30 24 -96 3 -45 3 -83 0 -85 -3 -1
-14 1 -25 5 -10 4 -31 2 -46 -3 -21 -8 -33 -7 -53 6 -53 35 -22 107 46 107 34
0 46 19 23 36 -16 12 -22 12 -41 -1 -25 -16 -54 -20 -54 -7 0 5 9 18 20 30 24
26 76 29 106 8z"/>
<path d="M4757 21172 c-10 -10 -17 -24 -17 -30 0 -6 -8 -16 -17 -21 -15 -9
-15 -12 -5 -20 12 -7 12 -20 -1 -80 -12 -57 -12 -71 -1 -71 14 0 18 9 34 93
11 54 13 57 42 57 34 0 33 11 12 -112 -5 -29 -3 -38 8 -38 10 0 18 22 27 75
10 63 15 75 32 75 10 0 19 5 19 10 0 6 -7 10 -15 10 -22 0 -18 28 5 42 27 17
25 30 -2 26 -14 -2 -29 -15 -38 -35 -12 -25 -21 -33 -42 -33 -33 0 -38 24 -8
42 11 7 20 16 20 20 0 15 -37 8 -53 -10z"/>
<path d="M5265 21168 c-4 -12 -45 -205 -45 -214 0 -2 6 -4 13 -4 9 0 18 25 27
73 20 113 25 119 39 46 6 -35 14 -76 17 -91 3 -16 11 -28 17 -28 7 0 34 41 62
90 27 49 51 88 52 86 2 -1 -4 -39 -13 -85 -16 -76 -13 -112 5 -83 12 19 45
211 38 218 -15 15 -39 -11 -83 -90 -26 -47 -51 -86 -55 -86 -3 0 -12 35 -19
78 -12 75 -23 102 -42 102 -5 0 -11 -6 -13 -12z"/>
<path d="M5554 21120 c-24 -10 -40 -40 -21 -40 7 0 18 5 24 11 18 18 58 7 58
-16 0 -16 -8 -21 -47 -25 -27 -3 -53 -11 -59 -17 -16 -16 -14 -63 2 -74 22
-14 61 -10 81 8 17 15 18 15 18 0 0 -11 8 -17 25 -17 14 0 25 5 25 10 0 6 -5
10 -11 10 -7 0 -8 20 -4 63 5 47 4 66 -7 74 -20 17 -60 23 -84 13z"/>
<path d="M6115 21122 c-32 -7 -43 -20 -55 -73 -10 -42 -10 -53 4 -74 18 -27
45 -32 77 -14 18 9 20 8 17 -12 -2 -13 -15 -30 -30 -38 -24 -14 -28 -14 -46 2
-15 14 -22 15 -28 6 -10 -16 23 -39 57 -39 48 0 67 27 89 125 24 109 24 115 5
115 -8 0 -15 -5 -15 -11 0 -8 -4 -8 -12 -2 -19 15 -41 20 -63 15z"/>
<path d="M6295 21116 c-70 -30 -75 -162 -7 -167 37 -3 58 3 77 22 15 15 16 19
4 19 -8 0 -20 -5 -26 -11 -6 -6 -23 -9 -39 -7 -23 2 -30 9 -32 31 l-3 27 65 0
c63 0 66 1 66 24 0 28 -27 62 -55 70 -11 3 -34 -1 -50 -8z"/>
</g>
</svg>
