<?xml version="1.0" encoding="UTF-8" standalone="no"?><svg xmlns="http://www.w3.org/2000/svg" xmlns:xlink="http://www.w3.org/1999/xlink" contentScriptType="application/ecmascript" contentStyleType="text/css" height="326px" preserveAspectRatio="none" style="width:244px;height:326px;background:#FFFFFF;" version="1.1" viewBox="0 0 244 326" width="244px" zoomAndPan="magnify"><defs><filter height="300%" id="fhpknts8mvriy" width="300%" x="-1" y="-1"><feGaussianBlur result="blurOut" stdDeviation="2.0"/><feColorMatrix in="blurOut" result="blurOut2" type="matrix" values="0 0 0 0 0 0 0 0 0 0 0 0 0 0 0 0 0 0 .4 0"/><feOffset dx="4.0" dy="4.0" in="blurOut2" result="blurOut3"/><feBlend in="SourceGraphic" in2="blurOut3" mode="normal"/></filter></defs><g><!--MD5=[eee4cf789619d2dbd3cbed755805d0e9]
class ShipChiefEletricalEngineer--><rect codeLine="1" fill="#FEFECE" filter="url(#fhpknts8mvriy)" height="61.8359" id="ShipChiefEletricalEngineer" style="stroke:#A80036;stroke-width:1.5;" width="180" x="28.5" y="7"/><ellipse cx="43.5" cy="23" fill="#ADD1B2" rx="11" ry="11" style="stroke:#A80036;stroke-width:1.0;"/><path d="M45.5,19.5 Q45.7031,19 45.9375,18.75 Q46.1719,18.5 46.4375,18.5 Q46.9063,18.5 47.2031,18.7813 Q47.5,19.0625 47.5,19.7188 L47.5,21.2813 Q47.5,21.9375 47.2188,22.2188 Q46.9375,22.5 46.5,22.5 Q46.1094,22.5 45.8594,22.3281 Q45.6094,22.1563 45.5,21.7031 Q45.4531,21.3906 45.2813,21.2188 Q44.9688,20.8906 44.4063,20.7031 Q43.8438,20.5 43.2813,20.5 Q42.5781,20.5 41.9844,20.7813 Q41.4063,21.0625 40.9531,21.6875 Q40.5,22.3125 40.5,23.1719 L40.5,24.0938 Q40.5,25.125 41.3438,25.8125 Q42.1875,26.5 43.6875,26.5 Q44.5781,26.5 45.2031,26.2969 Q45.5625,26.1875 45.9688,25.8281 Q46.2344,25.625 46.375,25.5625 Q46.5156,25.5 46.6875,25.5 Q47.0156,25.5 47.25,25.7656 Q47.5,26.0156 47.5,26.375 Q47.5,26.7188 47.1563,27.125 Q46.6563,27.7188 45.8594,28.0469 Q44.8125,28.5 43.5313,28.5 Q42.0313,28.5 40.8281,27.9063 Q39.8594,27.4375 39.1719,26.4219 Q38.5,25.4063 38.5,24.2031 L38.5,23.1094 Q38.5,21.8594 39.0938,20.7656 Q39.7031,19.6719 40.75,19.0938 Q41.8125,18.5 43,18.5 Q43.7188,18.5 44.3438,18.75 Q44.9688,19 45.5,19.5 Z " fill="#000000"/><text fill="#000000" font-family="sans-serif" font-size="12" lengthAdjust="spacing" textLength="148" x="57.5" y="27.9102">ShipChiefEletricalEngineer</text><line style="stroke:#A80036;stroke-width:1.5;" x1="29.5" x2="207.5" y1="39" y2="39"/><rect fill="none" height="6" style="stroke:#C82930;stroke-width:1.0;" width="6" x="36.5" y="47"/><text fill="#000000" font-family="sans-serif" font-size="11" lengthAdjust="spacing" textLength="69" x="48.5" y="54.4189">container_pos</text><line style="stroke:#A80036;stroke-width:1.5;" x1="29.5" x2="207.5" y1="60.8359" y2="60.8359"/><!--MD5=[02110b30ee8a7f26b663159a79d16d36]
class getRequiredEnergy--><rect codeLine="5" fill="#FEFECE" filter="url(#fhpknts8mvriy)" height="61.8359" id="getRequiredEnergy" style="stroke:#A80036;stroke-width:1.5;" width="223" x="7" y="129"/><ellipse cx="61.25" cy="145" fill="#ADD1B2" rx="11" ry="11" style="stroke:#A80036;stroke-width:1.0;"/><path d="M63.25,141.5 Q63.4531,141 63.6875,140.75 Q63.9219,140.5 64.1875,140.5 Q64.6563,140.5 64.9531,140.7813 Q65.25,141.0625 65.25,141.7188 L65.25,143.2813 Q65.25,143.9375 64.9688,144.2188 Q64.6875,144.5 64.25,144.5 Q63.8594,144.5 63.6094,144.3281 Q63.3594,144.1563 63.25,143.7031 Q63.2031,143.3906 63.0313,143.2188 Q62.7188,142.8906 62.1563,142.7031 Q61.5938,142.5 61.0313,142.5 Q60.3281,142.5 59.7344,142.7813 Q59.1563,143.0625 58.7031,143.6875 Q58.25,144.3125 58.25,145.1719 L58.25,146.0938 Q58.25,147.125 59.0938,147.8125 Q59.9375,148.5 61.4375,148.5 Q62.3281,148.5 62.9531,148.2969 Q63.3125,148.1875 63.7188,147.8281 Q63.9844,147.625 64.125,147.5625 Q64.2656,147.5 64.4375,147.5 Q64.7656,147.5 65,147.7656 Q65.25,148.0156 65.25,148.375 Q65.25,148.7188 64.9063,149.125 Q64.4063,149.7188 63.6094,150.0469 Q62.5625,150.5 61.2813,150.5 Q59.7813,150.5 58.5781,149.9063 Q57.6094,149.4375 56.9219,148.4219 Q56.25,147.4063 56.25,146.2031 L56.25,145.1094 Q56.25,143.8594 56.8438,142.7656 Q57.4531,141.6719 58.5,141.0938 Q59.5625,140.5 60.75,140.5 Q61.4688,140.5 62.0938,140.75 Q62.7188,141 63.25,141.5 Z " fill="#000000"/><text fill="#000000" font-family="sans-serif" font-size="12" lengthAdjust="spacing" textLength="106" x="81.75" y="149.9102">getRequiredEnergy</text><line style="stroke:#A80036;stroke-width:1.5;" x1="8" x2="229" y1="161" y2="161"/><line style="stroke:#A80036;stroke-width:1.5;" x1="8" x2="229" y1="169" y2="169"/><ellipse cx="18" cy="180" fill="#84BE84" rx="3" ry="3" style="stroke:#038048;stroke-width:1.0;"/><text fill="#000000" font-family="sans-serif" font-size="11" lengthAdjust="spacing" textLength="197" x="27" y="184.4189">calculateRequiredEnergy(container_pos)</text><!--MD5=[1c6a5792ae8d2e848abeeb8da1096200]
class calculateRequiredEnergy--><rect codeLine="10" fill="#FEFECE" filter="url(#fhpknts8mvriy)" height="61.8359" id="calculateRequiredEnergy" style="stroke:#A80036;stroke-width:1.5;" width="223" x="7" y="251"/><ellipse cx="45.85" cy="267" fill="#ADD1B2" rx="11" ry="11" style="stroke:#A80036;stroke-width:1.0;"/><path d="M47.85,263.5 Q48.0531,263 48.2875,262.75 Q48.5219,262.5 48.7875,262.5 Q49.2563,262.5 49.5531,262.7813 Q49.85,263.0625 49.85,263.7188 L49.85,265.2813 Q49.85,265.9375 49.5688,266.2188 Q49.2875,266.5 48.85,266.5 Q48.4594,266.5 48.2094,266.3281 Q47.9594,266.1563 47.85,265.7031 Q47.8031,265.3906 47.6313,265.2188 Q47.3188,264.8906 46.7563,264.7031 Q46.1938,264.5 45.6313,264.5 Q44.9281,264.5 44.3344,264.7813 Q43.7563,265.0625 43.3031,265.6875 Q42.85,266.3125 42.85,267.1719 L42.85,268.0938 Q42.85,269.125 43.6938,269.8125 Q44.5375,270.5 46.0375,270.5 Q46.9281,270.5 47.5531,270.2969 Q47.9125,270.1875 48.3188,269.8281 Q48.5844,269.625 48.725,269.5625 Q48.8656,269.5 49.0375,269.5 Q49.3656,269.5 49.6,269.7656 Q49.85,270.0156 49.85,270.375 Q49.85,270.7188 49.5063,271.125 Q49.0063,271.7188 48.2094,272.0469 Q47.1625,272.5 45.8813,272.5 Q44.3813,272.5 43.1781,271.9063 Q42.2094,271.4375 41.5219,270.4219 Q40.85,269.4063 40.85,268.2031 L40.85,267.1094 Q40.85,265.8594 41.4438,264.7656 Q42.0531,263.6719 43.1,263.0938 Q44.1625,262.5 45.35,262.5 Q46.0688,262.5 46.6938,262.75 Q47.3188,263 47.85,263.5 Z " fill="#000000"/><text fill="#000000" font-family="sans-serif" font-size="12" lengthAdjust="spacing" textLength="138" x="65.15" y="271.9102">calculateRequiredEnergy</text><line style="stroke:#A80036;stroke-width:1.5;" x1="8" x2="229" y1="283" y2="283"/><line style="stroke:#A80036;stroke-width:1.5;" x1="8" x2="229" y1="291" y2="291"/><ellipse cx="18" cy="302" fill="#84BE84" rx="3" ry="3" style="stroke:#038048;stroke-width:1.0;"/><text fill="#000000" font-family="sans-serif" font-size="11" lengthAdjust="spacing" textLength="197" x="27" y="306.4189">calculateRequiredEnergy(container_pos)</text><!--MD5=[e033d259ca7c38c0fd976296afad4bc5]
link ShipChiefEletricalEngineer to getRequiredEnergy--><path codeLine="14" d="M118.5,69.28 C118.5,85.77 118.5,106.26 118.5,123.49 " fill="none" id="ShipChiefEletricalEngineer-to-getRequiredEnergy" style="stroke:#A80036;stroke-width:1.0;stroke-dasharray:7.0,7.0;"/><polygon fill="#A80036" points="118.5,128.73,122.5,119.73,118.5,123.73,114.5,119.73,118.5,128.73" style="stroke:#A80036;stroke-width:1.0;"/><!--MD5=[cbf81082718fcc8f4645846c9ec31fb4]
link getRequiredEnergy to calculateRequiredEnergy--><path codeLine="15" d="M118.5,191.28 C118.5,207.77 118.5,228.26 118.5,245.49 " fill="none" id="getRequiredEnergy-to-calculateRequiredEnergy" style="stroke:#A80036;stroke-width:1.0;stroke-dasharray:7.0,7.0;"/><polygon fill="#A80036" points="118.5,250.73,122.5,241.73,118.5,245.73,114.5,241.73,118.5,250.73" style="stroke:#A80036;stroke-width:1.0;"/><!--MD5=[affadc8b8397e984340d4085c8d2857c]
@startuml
class ShipChiefEletricalEngineer{
    -container_pos
}

class getRequiredEnergy{
    +calculateRequiredEnergy(container_pos)
}


class calculateRequiredEnergy{
    +calculateRequiredEnergy(container_pos)
}

ShipChiefEletricalEngineer..>getRequiredEnergy
getRequiredEnergy..>calculateRequiredEnergy

@enduml

PlantUML version 1.2021.11(Sat Oct 02 14:26:11 BST 2021)
(GPL source distribution)
Java Runtime: OpenJDK Runtime Environment
JVM: OpenJDK 64-Bit Server VM
Default Encoding: Cp1252
Language: pt
Country: PT
--></g></svg>