<?xml version="1.0" encoding="UTF-8" standalone="no"?><svg xmlns="http://www.w3.org/2000/svg" xmlns:xlink="http://www.w3.org/1999/xlink" contentScriptType="application/ecmascript" contentStyleType="text/css" height="190px" preserveAspectRatio="none" style="width:121px;height:190px;background:#FFFFFF;" version="1.1" viewBox="0 0 121 190" width="121px" zoomAndPan="magnify"><defs><filter height="300%" id="fbmx00119aqv8" width="300%" x="-1" y="-1"><feGaussianBlur result="blurOut" stdDeviation="2.0"/><feColorMatrix in="blurOut" result="blurOut2" type="matrix" values="0 0 0 0 0 0 0 0 0 0 0 0 0 0 0 0 0 0 .4 0"/><feOffset dx="4.0" dy="4.0" in="blurOut2" result="blurOut3"/><feBlend in="SourceGraphic" in2="blurOut3" mode="normal"/></filter></defs><g><!--MD5=[df76e760f2062188d44f98c21a88999b]
class UI--><rect codeLine="1" fill="#FEFECE" filter="url(#fbmx00119aqv8)" height="48" id="UI" style="stroke:#A80036;stroke-width:1.5;" width="44" x="35" y="7"/><ellipse cx="50" cy="23" fill="#ADD1B2" rx="11" ry="11" style="stroke:#A80036;stroke-width:1.0;"/><path d="M52,19.5 Q52.2031,19 52.4375,18.75 Q52.6719,18.5 52.9375,18.5 Q53.4063,18.5 53.7031,18.7813 Q54,19.0625 54,19.7188 L54,21.2813 Q54,21.9375 53.7188,22.2188 Q53.4375,22.5 53,22.5 Q52.6094,22.5 52.3594,22.3281 Q52.1094,22.1563 52,21.7031 Q51.9531,21.3906 51.7813,21.2188 Q51.4688,20.8906 50.9063,20.7031 Q50.3438,20.5 49.7813,20.5 Q49.0781,20.5 48.4844,20.7813 Q47.9063,21.0625 47.4531,21.6875 Q47,22.3125 47,23.1719 L47,24.0938 Q47,25.125 47.8438,25.8125 Q48.6875,26.5 50.1875,26.5 Q51.0781,26.5 51.7031,26.2969 Q52.0625,26.1875 52.4688,25.8281 Q52.7344,25.625 52.875,25.5625 Q53.0156,25.5 53.1875,25.5 Q53.5156,25.5 53.75,25.7656 Q54,26.0156 54,26.375 Q54,26.7188 53.6563,27.125 Q53.1563,27.7188 52.3594,28.0469 Q51.3125,28.5 50.0313,28.5 Q48.5313,28.5 47.3281,27.9063 Q46.3594,27.4375 45.6719,26.4219 Q45,25.4063 45,24.2031 L45,23.1094 Q45,21.8594 45.5938,20.7656 Q46.2031,19.6719 47.25,19.0938 Q48.3125,18.5 49.5,18.5 Q50.2188,18.5 50.8438,18.75 Q51.4688,19 52,19.5 Z " fill="#000000"/><text fill="#000000" font-family="sans-serif" font-size="12" lengthAdjust="spacing" textLength="12" x="64" y="27.9102">UI</text><line style="stroke:#A80036;stroke-width:1.5;" x1="36" x2="78" y1="39" y2="39"/><line style="stroke:#A80036;stroke-width:1.5;" x1="36" x2="78" y1="47" y2="47"/><!--MD5=[e363abb876c0de9ec54d3ae9a4c0429d]
class ReceiveAlert--><rect codeLine="4" fill="#FEFECE" filter="url(#fbmx00119aqv8)" height="61.8359" id="ReceiveAlert" style="stroke:#A80036;stroke-width:1.5;" width="100" x="7" y="115"/><ellipse cx="22" cy="131" fill="#ADD1B2" rx="11" ry="11" style="stroke:#A80036;stroke-width:1.0;"/><path d="M24,127.5 Q24.2031,127 24.4375,126.75 Q24.6719,126.5 24.9375,126.5 Q25.4063,126.5 25.7031,126.7813 Q26,127.0625 26,127.7188 L26,129.2813 Q26,129.9375 25.7188,130.2188 Q25.4375,130.5 25,130.5 Q24.6094,130.5 24.3594,130.3281 Q24.1094,130.1563 24,129.7031 Q23.9531,129.3906 23.7813,129.2188 Q23.4688,128.8906 22.9063,128.7031 Q22.3438,128.5 21.7813,128.5 Q21.0781,128.5 20.4844,128.7813 Q19.9063,129.0625 19.4531,129.6875 Q19,130.3125 19,131.1719 L19,132.0938 Q19,133.125 19.8438,133.8125 Q20.6875,134.5 22.1875,134.5 Q23.0781,134.5 23.7031,134.2969 Q24.0625,134.1875 24.4688,133.8281 Q24.7344,133.625 24.875,133.5625 Q25.0156,133.5 25.1875,133.5 Q25.5156,133.5 25.75,133.7656 Q26,134.0156 26,134.375 Q26,134.7188 25.6563,135.125 Q25.1563,135.7188 24.3594,136.0469 Q23.3125,136.5 22.0313,136.5 Q20.5313,136.5 19.3281,135.9063 Q18.3594,135.4375 17.6719,134.4219 Q17,133.4063 17,132.2031 L17,131.1094 Q17,129.8594 17.5938,128.7656 Q18.2031,127.6719 19.25,127.0938 Q20.3125,126.5 21.5,126.5 Q22.2188,126.5 22.8438,126.75 Q23.4688,127 24,127.5 Z " fill="#000000"/><text fill="#000000" font-family="sans-serif" font-size="12" lengthAdjust="spacing" textLength="68" x="36" y="135.9102">ReceiveAlert</text><line style="stroke:#A80036;stroke-width:1.5;" x1="8" x2="106" y1="147" y2="147"/><line style="stroke:#A80036;stroke-width:1.5;" x1="8" x2="106" y1="155" y2="155"/><ellipse cx="18" cy="166" fill="#84BE84" rx="3" ry="3" style="stroke:#038048;stroke-width:1.0;"/><text fill="#000000" font-family="sans-serif" font-size="11" lengthAdjust="spacing" textLength="65" x="27" y="170.4189">receivealert()</text><!--MD5=[fb5f3b6219f1448bd034af533a047b76]
link UI to ReceiveAlert--><path codeLine="9" d="M57,55.14 C57,70.71 57,91.53 57,109.22 " fill="none" id="UI-to-ReceiveAlert" style="stroke:#A80036;stroke-width:1.0;stroke-dasharray:7.0,7.0;"/><polygon fill="#A80036" points="57,114.6,61,105.6,57,109.6,53,105.6,57,114.6" style="stroke:#A80036;stroke-width:1.0;"/><!--MD5=[d846444cee507ecf379fd9e39dc21f33]
@startuml
class UI{
}

class ReceiveAlert{
+receivealert()
}


UI ..> ReceiveAlert


@enduml

PlantUML version 1.2021.11(Sat Oct 02 14:26:11 BST 2021)
(GPL source distribution)
Java Runtime: OpenJDK Runtime Environment
JVM: OpenJDK 64-Bit Server VM
Default Encoding: Cp1252
Language: pt
Country: PT
--></g></svg>