<?xml version="1.0" encoding="UTF-8" standalone="no"?><svg xmlns="http://www.w3.org/2000/svg" xmlns:xlink="http://www.w3.org/1999/xlink" contentScriptType="application/ecmascript" contentStyleType="text/css" height="434px" preserveAspectRatio="none" style="width:114px;height:434px;background:#FFFFFF;" version="1.1" viewBox="0 0 114 434" width="114px" zoomAndPan="magnify"><defs><filter height="300%" id="frnvy8wb35mxp" width="300%" x="-1" y="-1"><feGaussianBlur result="blurOut" stdDeviation="2.0"/><feColorMatrix in="blurOut" result="blurOut2" type="matrix" values="0 0 0 0 0 0 0 0 0 0 0 0 0 0 0 0 0 0 .4 0"/><feOffset dx="4.0" dy="4.0" in="blurOut2" result="blurOut3"/><feBlend in="SourceGraphic" in2="blurOut3" mode="normal"/></filter></defs><g><!--MD5=[df76e760f2062188d44f98c21a88999b]
class UI--><rect codeLine="1" fill="#FEFECE" filter="url(#frnvy8wb35mxp)" height="48" id="UI" style="stroke:#A80036;stroke-width:1.5;" width="44" x="31.5" y="7"/><ellipse cx="46.5" cy="23" fill="#ADD1B2" rx="11" ry="11" style="stroke:#A80036;stroke-width:1.0;"/><path d="M48.5,19.5 Q48.7031,19 48.9375,18.75 Q49.1719,18.5 49.4375,18.5 Q49.9063,18.5 50.2031,18.7813 Q50.5,19.0625 50.5,19.7188 L50.5,21.2813 Q50.5,21.9375 50.2188,22.2188 Q49.9375,22.5 49.5,22.5 Q49.1094,22.5 48.8594,22.3281 Q48.6094,22.1563 48.5,21.7031 Q48.4531,21.3906 48.2813,21.2188 Q47.9688,20.8906 47.4063,20.7031 Q46.8438,20.5 46.2813,20.5 Q45.5781,20.5 44.9844,20.7813 Q44.4063,21.0625 43.9531,21.6875 Q43.5,22.3125 43.5,23.1719 L43.5,24.0938 Q43.5,25.125 44.3438,25.8125 Q45.1875,26.5 46.6875,26.5 Q47.5781,26.5 48.2031,26.2969 Q48.5625,26.1875 48.9688,25.8281 Q49.2344,25.625 49.375,25.5625 Q49.5156,25.5 49.6875,25.5 Q50.0156,25.5 50.25,25.7656 Q50.5,26.0156 50.5,26.375 Q50.5,26.7188 50.1563,27.125 Q49.6563,27.7188 48.8594,28.0469 Q47.8125,28.5 46.5313,28.5 Q45.0313,28.5 43.8281,27.9063 Q42.8594,27.4375 42.1719,26.4219 Q41.5,25.4063 41.5,24.2031 L41.5,23.1094 Q41.5,21.8594 42.0938,20.7656 Q42.7031,19.6719 43.75,19.0938 Q44.8125,18.5 46,18.5 Q46.7188,18.5 47.3438,18.75 Q47.9688,19 48.5,19.5 Z " fill="#000000"/><text fill="#000000" font-family="sans-serif" font-size="12" lengthAdjust="spacing" textLength="12" x="60.5" y="27.9102">UI</text><line style="stroke:#A80036;stroke-width:1.5;" x1="32.5" x2="74.5" y1="39" y2="39"/><line style="stroke:#A80036;stroke-width:1.5;" x1="32.5" x2="74.5" y1="47" y2="47"/><!--MD5=[1d7ba1c7002d54515419844fbd155368]
class Controller--><rect codeLine="4" fill="#FEFECE" filter="url(#frnvy8wb35mxp)" height="61.8359" id="Controller" style="stroke:#A80036;stroke-width:1.5;" width="86" x="10.5" y="115"/><ellipse cx="25.5" cy="131" fill="#ADD1B2" rx="11" ry="11" style="stroke:#A80036;stroke-width:1.0;"/><path d="M27.5,127.5 Q27.7031,127 27.9375,126.75 Q28.1719,126.5 28.4375,126.5 Q28.9063,126.5 29.2031,126.7813 Q29.5,127.0625 29.5,127.7188 L29.5,129.2813 Q29.5,129.9375 29.2188,130.2188 Q28.9375,130.5 28.5,130.5 Q28.1094,130.5 27.8594,130.3281 Q27.6094,130.1563 27.5,129.7031 Q27.4531,129.3906 27.2813,129.2188 Q26.9688,128.8906 26.4063,128.7031 Q25.8438,128.5 25.2813,128.5 Q24.5781,128.5 23.9844,128.7813 Q23.4063,129.0625 22.9531,129.6875 Q22.5,130.3125 22.5,131.1719 L22.5,132.0938 Q22.5,133.125 23.3438,133.8125 Q24.1875,134.5 25.6875,134.5 Q26.5781,134.5 27.2031,134.2969 Q27.5625,134.1875 27.9688,133.8281 Q28.2344,133.625 28.375,133.5625 Q28.5156,133.5 28.6875,133.5 Q29.0156,133.5 29.25,133.7656 Q29.5,134.0156 29.5,134.375 Q29.5,134.7188 29.1563,135.125 Q28.6563,135.7188 27.8594,136.0469 Q26.8125,136.5 25.5313,136.5 Q24.0313,136.5 22.8281,135.9063 Q21.8594,135.4375 21.1719,134.4219 Q20.5,133.4063 20.5,132.2031 L20.5,131.1094 Q20.5,129.8594 21.0938,128.7656 Q21.7031,127.6719 22.75,127.0938 Q23.8125,126.5 25,126.5 Q25.7188,126.5 26.3438,126.75 Q26.9688,127 27.5,127.5 Z " fill="#000000"/><text fill="#000000" font-family="sans-serif" font-size="12" lengthAdjust="spacing" textLength="54" x="39.5" y="135.9102">Controller</text><line style="stroke:#A80036;stroke-width:1.5;" x1="11.5" x2="95.5" y1="147" y2="147"/><line style="stroke:#A80036;stroke-width:1.5;" x1="11.5" x2="95.5" y1="155" y2="155"/><ellipse cx="21.5" cy="166" fill="#84BE84" rx="3" ry="3" style="stroke:#038048;stroke-width:1.0;"/><text fill="#000000" font-family="sans-serif" font-size="11" lengthAdjust="spacing" textLength="57" x="30.5" y="170.4189">returnMap()</text><!--MD5=[02e4b9b7573f1156f41e60aa5b4e25a4]
class Company--><rect codeLine="8" fill="#FEFECE" filter="url(#frnvy8wb35mxp)" height="61.8359" id="Company" style="stroke:#A80036;stroke-width:1.5;" width="93" x="7" y="237"/><ellipse cx="25.6" cy="253" fill="#ADD1B2" rx="11" ry="11" style="stroke:#A80036;stroke-width:1.0;"/><path d="M27.6,249.5 Q27.8031,249 28.0375,248.75 Q28.2719,248.5 28.5375,248.5 Q29.0063,248.5 29.3031,248.7813 Q29.6,249.0625 29.6,249.7188 L29.6,251.2813 Q29.6,251.9375 29.3188,252.2188 Q29.0375,252.5 28.6,252.5 Q28.2094,252.5 27.9594,252.3281 Q27.7094,252.1563 27.6,251.7031 Q27.5531,251.3906 27.3813,251.2188 Q27.0688,250.8906 26.5063,250.7031 Q25.9438,250.5 25.3813,250.5 Q24.6781,250.5 24.0844,250.7813 Q23.5063,251.0625 23.0531,251.6875 Q22.6,252.3125 22.6,253.1719 L22.6,254.0938 Q22.6,255.125 23.4438,255.8125 Q24.2875,256.5 25.7875,256.5 Q26.6781,256.5 27.3031,256.2969 Q27.6625,256.1875 28.0688,255.8281 Q28.3344,255.625 28.475,255.5625 Q28.6156,255.5 28.7875,255.5 Q29.1156,255.5 29.35,255.7656 Q29.6,256.0156 29.6,256.375 Q29.6,256.7188 29.2563,257.125 Q28.7563,257.7188 27.9594,258.0469 Q26.9125,258.5 25.6313,258.5 Q24.1313,258.5 22.9281,257.9063 Q21.9594,257.4375 21.2719,256.4219 Q20.6,255.4063 20.6,254.2031 L20.6,253.1094 Q20.6,251.8594 21.1938,250.7656 Q21.8031,249.6719 22.85,249.0938 Q23.9125,248.5 25.1,248.5 Q25.8188,248.5 26.4438,248.75 Q27.0688,249 27.6,249.5 Z " fill="#000000"/><text fill="#000000" font-family="sans-serif" font-size="12" lengthAdjust="spacing" textLength="53" x="40.4" y="257.9102">Company</text><line style="stroke:#A80036;stroke-width:1.5;" x1="8" x2="99" y1="269" y2="269"/><line style="stroke:#A80036;stroke-width:1.5;" x1="8" x2="99" y1="277" y2="277"/><ellipse cx="18" cy="288" fill="#84BE84" rx="3" ry="3" style="stroke:#038048;stroke-width:1.0;"/><text fill="#000000" font-family="sans-serif" font-size="11" lengthAdjust="spacing" textLength="67" x="27" y="292.4189">get407Store()</text><!--MD5=[b4d3d50c0abf08df45181fececb9f04d]
class Store--><rect codeLine="12" fill="#FEFECE" filter="url(#frnvy8wb35mxp)" height="61.8359" id="Store" style="stroke:#A80036;stroke-width:1.5;" width="67" x="20" y="359"/><ellipse cx="37.7" cy="375" fill="#ADD1B2" rx="11" ry="11" style="stroke:#A80036;stroke-width:1.0;"/><path d="M39.7,371.5 Q39.9031,371 40.1375,370.75 Q40.3719,370.5 40.6375,370.5 Q41.1063,370.5 41.4031,370.7813 Q41.7,371.0625 41.7,371.7188 L41.7,373.2813 Q41.7,373.9375 41.4188,374.2188 Q41.1375,374.5 40.7,374.5 Q40.3094,374.5 40.0594,374.3281 Q39.8094,374.1563 39.7,373.7031 Q39.6531,373.3906 39.4813,373.2188 Q39.1688,372.8906 38.6063,372.7031 Q38.0438,372.5 37.4813,372.5 Q36.7781,372.5 36.1844,372.7813 Q35.6063,373.0625 35.1531,373.6875 Q34.7,374.3125 34.7,375.1719 L34.7,376.0938 Q34.7,377.125 35.5438,377.8125 Q36.3875,378.5 37.8875,378.5 Q38.7781,378.5 39.4031,378.2969 Q39.7625,378.1875 40.1688,377.8281 Q40.4344,377.625 40.575,377.5625 Q40.7156,377.5 40.8875,377.5 Q41.2156,377.5 41.45,377.7656 Q41.7,378.0156 41.7,378.375 Q41.7,378.7188 41.3563,379.125 Q40.8563,379.7188 40.0594,380.0469 Q39.0125,380.5 37.7313,380.5 Q36.2313,380.5 35.0281,379.9063 Q34.0594,379.4375 33.3719,378.4219 Q32.7,377.4063 32.7,376.2031 L32.7,375.1094 Q32.7,373.8594 33.2938,372.7656 Q33.9031,371.6719 34.95,371.0938 Q36.0125,370.5 37.2,370.5 Q37.9188,370.5 38.5438,370.75 Q39.1688,371 39.7,371.5 Z " fill="#000000"/><text fill="#000000" font-family="sans-serif" font-size="12" lengthAdjust="spacing" textLength="29" x="52.3" y="379.9102">Store</text><line style="stroke:#A80036;stroke-width:1.5;" x1="21" x2="86" y1="391" y2="391"/><line style="stroke:#A80036;stroke-width:1.5;" x1="21" x2="86" y1="399" y2="399"/><ellipse cx="31" cy="410" fill="#84BE84" rx="3" ry="3" style="stroke:#038048;stroke-width:1.0;"/><text fill="#000000" font-family="sans-serif" font-size="11" lengthAdjust="spacing" textLength="41" x="40" y="414.4189">get407()</text><!--MD5=[132c963044dc2a803644bb1c6fd2eeb1]
link UI to Controller--><path codeLine="17" d="M53.5,55.14 C53.5,70.71 53.5,91.53 53.5,109.22 " fill="none" id="UI-to-Controller" style="stroke:#A80036;stroke-width:1.0;stroke-dasharray:7.0,7.0;"/><polygon fill="#A80036" points="53.5,114.6,57.5,105.6,53.5,109.6,49.5,105.6,53.5,114.6" style="stroke:#A80036;stroke-width:1.0;"/><!--MD5=[e6ed5f8d33eaf4b7717944dd53806eb1]
link Controller to Company--><path codeLine="18" d="M53.5,177.28 C53.5,193.77 53.5,214.26 53.5,231.49 " fill="none" id="Controller-to-Company" style="stroke:#A80036;stroke-width:1.0;stroke-dasharray:7.0,7.0;"/><polygon fill="#A80036" points="53.5,236.73,57.5,227.73,53.5,231.73,49.5,227.73,53.5,236.73" style="stroke:#A80036;stroke-width:1.0;"/><!--MD5=[94141ed6bd4db0a0d11426b15c5ddee2]
link Company to Store--><path codeLine="19" d="M53.5,299.28 C53.5,315.77 53.5,336.26 53.5,353.49 " fill="none" id="Company-to-Store" style="stroke:#A80036;stroke-width:1.0;stroke-dasharray:7.0,7.0;"/><polygon fill="#A80036" points="53.5,358.73,57.5,349.73,53.5,353.73,49.5,349.73,53.5,358.73" style="stroke:#A80036;stroke-width:1.0;"/><!--MD5=[bd28032806d050857b047011cb6190e7]
@startuml
class UI{
}

class Controller{
    +returnMap()
}

class Company{
    +get407Store()
}

class Store{
    +get407()
}


UI ..> Controller
Controller ..> Company
Company ..> Store


@enduml

PlantUML version 1.2021.15(Tue Nov 30 16:45:34 GMT 2021)
(GPL source distribution)
Java Runtime: OpenJDK Runtime Environment
JVM: OpenJDK 64-Bit Server VM
Default Encoding: Cp1252
Language: pt
Country: PT
--></g></svg>