<?xml version="1.0" encoding="UTF-8" standalone="no"?><svg xmlns="http://www.w3.org/2000/svg" xmlns:xlink="http://www.w3.org/1999/xlink" contentScriptType="application/ecmascript" contentStyleType="text/css" height="438px" preserveAspectRatio="none" style="width:1764px;height:438px;background:#FFFFFF;" version="1.1" viewBox="0 0 1764 438" width="1764px" zoomAndPan="magnify"><defs><filter height="300%" id="ftgwst7lz6fbs" width="300%" x="-1" y="-1"><feGaussianBlur result="blurOut" stdDeviation="2.0"/><feColorMatrix in="blurOut" result="blurOut2" type="matrix" values="0 0 0 0 0 0 0 0 0 0 0 0 0 0 0 0 0 0 .4 0"/><feOffset dx="4.0" dy="4.0" in="blurOut2" result="blurOut3"/><feBlend in="SourceGraphic" in2="blurOut3" mode="normal"/></filter></defs><g><rect fill="#FFFFFF" filter="url(#ftgwst7lz6fbs)" height="243.8125" style="stroke:#A80036;stroke-width:1.0;" width="10" x="46" y="99.6094"/><rect fill="#FFFFFF" filter="url(#ftgwst7lz6fbs)" height="221.4609" style="stroke:#A80036;stroke-width:1.0;" width="10" x="708" y="121.9609"/><rect fill="#FFFFFF" filter="url(#ftgwst7lz6fbs)" height="151.7578" style="stroke:#A80036;stroke-width:1.0;" width="10" x="814" y="152.3125"/><rect fill="#FFFFFF" filter="url(#ftgwst7lz6fbs)" height="91.0547" style="stroke:#A80036;stroke-width:1.0;" width="10" x="1238" y="182.6641"/><rect fill="#FFFFFF" filter="url(#ftgwst7lz6fbs)" height="30.3516" style="stroke:#A80036;stroke-width:1.0;" width="10" x="1662" y="213.0156"/><line style="stroke:#A80036;stroke-width:1.0;stroke-dasharray:5.0,5.0;" x1="51" x2="51" y1="89.6094" y2="352.4219"/><line style="stroke:#A80036;stroke-width:1.0;stroke-dasharray:5.0,5.0;" x1="713" x2="713" y1="89.6094" y2="352.4219"/><line style="stroke:#A80036;stroke-width:1.0;stroke-dasharray:5.0,5.0;" x1="819" x2="819" y1="89.6094" y2="352.4219"/><line style="stroke:#A80036;stroke-width:1.0;stroke-dasharray:5.0,5.0;" x1="1243" x2="1243" y1="89.6094" y2="352.4219"/><line style="stroke:#A80036;stroke-width:1.0;stroke-dasharray:5.0,5.0;" x1="1667" x2="1667" y1="89.6094" y2="352.4219"/><line style="stroke:#A80036;stroke-width:1.0;stroke-dasharray:5.0,5.0;" x1="1729" x2="1729" y1="89.6094" y2="352.4219"/><text fill="#000000" font-family="sans-serif" font-size="14" lengthAdjust="spacing" textLength="86" x="5" y="86.5332">Port Manager</text><ellipse cx="51" cy="15" fill="#FEFECE" filter="url(#ftgwst7lz6fbs)" rx="8" ry="8" style="stroke:#A80036;stroke-width:2.0;"/><path d="M51,23 L51,50 M38,31 L64,31 M51,50 L38,65 M51,50 L64,65 " fill="none" filter="url(#ftgwst7lz6fbs)" style="stroke:#A80036;stroke-width:2.0;"/><text fill="#000000" font-family="sans-serif" font-size="14" lengthAdjust="spacing" textLength="86" x="5" y="365.9551">Port Manager</text><ellipse cx="51" cy="379.0313" fill="#FEFECE" filter="url(#ftgwst7lz6fbs)" rx="8" ry="8" style="stroke:#A80036;stroke-width:2.0;"/><path d="M51,387.0313 L51,414.0313 M38,395.0313 L64,395.0313 M51,414.0313 L38,429.0313 M51,414.0313 L64,429.0313 " fill="none" filter="url(#ftgwst7lz6fbs)" style="stroke:#A80036;stroke-width:2.0;"/><rect fill="#FEFECE" filter="url(#ftgwst7lz6fbs)" height="31.6094" style="stroke:#A80036;stroke-width:1.5;" width="30" x="696" y="53"/><text fill="#000000" font-family="sans-serif" font-size="14" lengthAdjust="spacing" textLength="16" x="703" y="74.5332">:UI</text><rect fill="#FEFECE" filter="url(#ftgwst7lz6fbs)" height="31.6094" style="stroke:#A80036;stroke-width:1.5;" width="30" x="696" y="351.4219"/><text fill="#000000" font-family="sans-serif" font-size="14" lengthAdjust="spacing" textLength="16" x="703" y="372.9551">:UI</text><rect fill="#FEFECE" filter="url(#ftgwst7lz6fbs)" height="31.6094" style="stroke:#A80036;stroke-width:1.5;" width="122" x="756" y="53"/><text fill="#000000" font-family="sans-serif" font-size="14" lengthAdjust="spacing" textLength="108" x="763" y="74.5332">:US406Controller</text><rect fill="#FEFECE" filter="url(#ftgwst7lz6fbs)" height="31.6094" style="stroke:#A80036;stroke-width:1.5;" width="122" x="756" y="351.4219"/><text fill="#000000" font-family="sans-serif" font-size="14" lengthAdjust="spacing" textLength="108" x="763" y="372.9551">:US406Controller</text><rect fill="#FEFECE" filter="url(#ftgwst7lz6fbs)" height="31.6094" style="stroke:#A80036;stroke-width:1.5;" width="78" x="1202" y="53"/><text fill="#000000" font-family="sans-serif" font-size="14" lengthAdjust="spacing" textLength="64" x="1209" y="74.5332">:Company</text><rect fill="#FEFECE" filter="url(#ftgwst7lz6fbs)" height="31.6094" style="stroke:#A80036;stroke-width:1.5;" width="78" x="1202" y="351.4219"/><text fill="#000000" font-family="sans-serif" font-size="14" lengthAdjust="spacing" textLength="64" x="1209" y="372.9551">:Company</text><rect fill="#FEFECE" filter="url(#ftgwst7lz6fbs)" height="31.6094" style="stroke:#A80036;stroke-width:1.5;" width="52" x="1639" y="53"/><text fill="#000000" font-family="sans-serif" font-size="14" lengthAdjust="spacing" textLength="38" x="1646" y="74.5332">:Store</text><rect fill="#FEFECE" filter="url(#ftgwst7lz6fbs)" height="31.6094" style="stroke:#A80036;stroke-width:1.5;" width="52" x="1639" y="351.4219"/><text fill="#000000" font-family="sans-serif" font-size="14" lengthAdjust="spacing" textLength="38" x="1646" y="372.9551">:Store</text><rect fill="#FEFECE" filter="url(#ftgwst7lz6fbs)" height="31.6094" style="stroke:#A80036;stroke-width:1.5;" width="45" x="1705" y="53"/><text fill="#000000" font-family="sans-serif" font-size="14" lengthAdjust="spacing" textLength="31" x="1712" y="74.5332">406c</text><rect fill="#FEFECE" filter="url(#ftgwst7lz6fbs)" height="31.6094" style="stroke:#A80036;stroke-width:1.5;" width="45" x="1705" y="351.4219"/><text fill="#000000" font-family="sans-serif" font-size="14" lengthAdjust="spacing" textLength="31" x="1712" y="372.9551">406c</text><rect fill="#FFFFFF" filter="url(#ftgwst7lz6fbs)" height="243.8125" style="stroke:#A80036;stroke-width:1.0;" width="10" x="46" y="99.6094"/><rect fill="#FFFFFF" filter="url(#ftgwst7lz6fbs)" height="221.4609" style="stroke:#A80036;stroke-width:1.0;" width="10" x="708" y="121.9609"/><rect fill="#FFFFFF" filter="url(#ftgwst7lz6fbs)" height="151.7578" style="stroke:#A80036;stroke-width:1.0;" width="10" x="814" y="152.3125"/><rect fill="#FFFFFF" filter="url(#ftgwst7lz6fbs)" height="91.0547" style="stroke:#A80036;stroke-width:1.0;" width="10" x="1238" y="182.6641"/><rect fill="#FFFFFF" filter="url(#ftgwst7lz6fbs)" height="30.3516" style="stroke:#A80036;stroke-width:1.0;" width="10" x="1662" y="213.0156"/><polygon fill="#A80036" points="696,117.9609,706,121.9609,696,125.9609,700,121.9609" style="stroke:#A80036;stroke-width:1.0;"/><line style="stroke:#A80036;stroke-width:1.0;" x1="56" x2="702" y1="121.9609" y2="121.9609"/><text fill="#000000" font-family="sans-serif" font-size="13" font-weight="bold" lengthAdjust="spacing" textLength="7" x="63" y="117.1045">1</text><text fill="#000000" font-family="sans-serif" font-size="13" lengthAdjust="spacing" textLength="622" x="74" y="117.1045">I intend to generate a week in advance the loading and unloading map based on trucks and ships manifests.</text><polygon fill="#A80036" points="802,148.3125,812,152.3125,802,156.3125,806,152.3125" style="stroke:#A80036;stroke-width:1.0;"/><line style="stroke:#A80036;stroke-width:1.0;" x1="718" x2="808" y1="152.3125" y2="152.3125"/><text fill="#000000" font-family="sans-serif" font-size="13" font-weight="bold" lengthAdjust="spacing" textLength="7" x="725" y="147.4561">2</text><text fill="#000000" font-family="sans-serif" font-size="13" lengthAdjust="spacing" textLength="66" x="736" y="147.4561">returnMap()</text><polygon fill="#A80036" points="1226,178.6641,1236,182.6641,1226,186.6641,1230,182.6641" style="stroke:#A80036;stroke-width:1.0;"/><line style="stroke:#A80036;stroke-width:1.0;" x1="824" x2="1232" y1="182.6641" y2="182.6641"/><text fill="#000000" font-family="sans-serif" font-size="13" font-weight="bold" lengthAdjust="spacing" textLength="7" x="831" y="177.8076">3</text><text fill="#000000" font-family="sans-serif" font-size="13" lengthAdjust="spacing" textLength="78" x="842" y="177.8076">get407Store()</text><polygon fill="#A80036" points="1650,209.0156,1660,213.0156,1650,217.0156,1654,213.0156" style="stroke:#A80036;stroke-width:1.0;"/><line style="stroke:#A80036;stroke-width:1.0;" x1="1248" x2="1656" y1="213.0156" y2="213.0156"/><text fill="#000000" font-family="sans-serif" font-size="13" font-weight="bold" lengthAdjust="spacing" textLength="7" x="1255" y="208.1592">4</text><text fill="#000000" font-family="sans-serif" font-size="13" lengthAdjust="spacing" textLength="47" x="1266" y="208.1592">get407()</text><polygon fill="#A80036" points="1259,239.3672,1249,243.3672,1259,247.3672,1255,243.3672" style="stroke:#A80036;stroke-width:1.0;"/><line style="stroke:#A80036;stroke-width:1.0;stroke-dasharray:2.0,2.0;" x1="1253" x2="1666" y1="243.3672" y2="243.3672"/><text fill="#000000" font-family="sans-serif" font-size="13" font-weight="bold" lengthAdjust="spacing" textLength="7" x="1265" y="238.5107">5</text><text fill="#000000" font-family="sans-serif" font-size="13" lengthAdjust="spacing" textLength="379" x="1276" y="238.5107">Loading and unloading map based on trucks and ships manifests.</text><polygon fill="#A80036" points="835,269.7188,825,273.7188,835,277.7188,831,273.7188" style="stroke:#A80036;stroke-width:1.0;"/><line style="stroke:#A80036;stroke-width:1.0;stroke-dasharray:2.0,2.0;" x1="829" x2="1242" y1="273.7188" y2="273.7188"/><text fill="#000000" font-family="sans-serif" font-size="13" font-weight="bold" lengthAdjust="spacing" textLength="7" x="841" y="268.8623">6</text><text fill="#000000" font-family="sans-serif" font-size="13" lengthAdjust="spacing" textLength="379" x="852" y="268.8623">Loading and unloading map based on trucks and ships manifests.</text><polygon fill="#A80036" points="729,300.0703,719,304.0703,729,308.0703,725,304.0703" style="stroke:#A80036;stroke-width:1.0;"/><line style="stroke:#A80036;stroke-width:1.0;stroke-dasharray:2.0,2.0;" x1="723" x2="1728.5" y1="304.0703" y2="304.0703"/><text fill="#000000" font-family="sans-serif" font-size="13" font-weight="bold" lengthAdjust="spacing" textLength="7" x="735" y="299.2139">7</text><text fill="#000000" font-family="sans-serif" font-size="13" lengthAdjust="spacing" textLength="379" x="746" y="299.2139">Loading and unloading map based on trucks and ships manifests.</text><polygon fill="#A80036" points="67,330.4219,57,334.4219,67,338.4219,63,334.4219" style="stroke:#A80036;stroke-width:1.0;"/><line style="stroke:#A80036;stroke-width:1.0;stroke-dasharray:2.0,2.0;" x1="61" x2="707" y1="334.4219" y2="334.4219"/><text fill="#000000" font-family="sans-serif" font-size="13" font-weight="bold" lengthAdjust="spacing" textLength="7" x="73" y="329.5654">8</text><text fill="#000000" font-family="sans-serif" font-size="13" lengthAdjust="spacing" textLength="379" x="84" y="329.5654">Loading and unloading map based on trucks and ships manifests.</text><!--MD5=[d226dbd911fa00ecff2ab87d61448a80]
@startuml
autonumber
actor "Port Manager" as PM

participant ":UI" as ui
participant ":US406Controller" as 407c
participant ":Company" as comp
participant ":Store" as s

activate PM
PM -> ui : I intend to generate a week in advance the loading and unloading map based on trucks and ships manifests.
activate ui
ui -> 407c : returnMap()
activate 407c
407c -> comp : get407Store()
activate comp
comp -> s : get407()
activate s
s - -> comp : Loading and unloading map based on trucks and ships manifests.
deactivate s
comp - -> 407c : Loading and unloading map based on trucks and ships manifests.
deactivate comp
406c - -> ui : Loading and unloading map based on trucks and ships manifests.
deactivate 407c
ui - -> PM : Loading and unloading map based on trucks and ships manifests.

@enduml

PlantUML version 1.2021.15(Tue Nov 30 16:45:34 GMT 2021)
(GPL source distribution)
Java Runtime: OpenJDK Runtime Environment
JVM: OpenJDK 64-Bit Server VM
Default Encoding: Cp1252
Language: pt
Country: PT
--></g></svg>