<?xml version="1.0" standalone="no"?>
<!DOCTYPE svg PUBLIC "-//W3C//DTD SVG 20010904//EN"
 "http://www.w3.org/TR/2001/REC-SVG-20010904/DTD/svg10.dtd">
<svg version="1.0" xmlns="http://www.w3.org/2000/svg"
 width="1592.000000pt" height="1050.000000pt" viewBox="0 0 1592.000000 1050.000000"
 preserveAspectRatio="xMidYMid meet">
<metadata>
Created by potrace 1.16, written by Peter Selinger 2001-2019
</metadata>
<g transform="translate(0.000000,1050.000000) scale(0.100000,-0.100000)"
fill="#000000" stroke="none">
<path d="M2130 9580 l0 -170 -197 0 -198 1 -68 42 c-37 24 -64 47 -60 50 3 4
-8 2 -25 -4 -34 -12 -45 -25 -13 -14 12 3 42 -8 82 -32 l64 -38 -38 -3 -37 -3
0 -119 0 -119 -72 -4 -73 -3 72 -2 72 -2 3 -132 3 -133 -159 -88 c-88 -48
-161 -89 -163 -91 -2 -2 3 -6 12 -10 9 -3 14 -2 11 3 -3 4 70 49 163 100 l168
91 232 0 231 0 0 -87 c1 -53 -22 -262 -57 -522 l-58 -433 -247 -124 c-137 -68
-248 -126 -248 -129 0 -3 112 -61 248 -129 l248 -124 17 -169 c21 -199 21
-206 5 -197 -6 4 -3 -4 8 -18 10 -14 20 -25 21 -24 1 1 -7 80 -17 176 -11 96
-20 187 -20 202 0 26 14 35 250 153 137 69 250 127 250 130 0 3 -112 61 -250
130 -197 99 -250 129 -250 144 0 11 25 201 55 423 35 257 55 438 55 501 l0 97
190 0 c160 0 190 -2 198 -15 5 -10 15 -13 27 -9 18 7 18 8 -1 16 -14 6 -11 7
11 4 17 -2 41 -2 55 1 25 4 25 5 22 100 -2 61 0 93 6 89 6 -4 5 7 -1 25 -11
27 -12 16 -15 -85 l-3 -116 -494 0 -495 0 0 245 0 245 495 0 494 0 3 -111 c3
-97 4 -107 15 -80 6 18 7 29 1 25 -6 -4 -8 28 -6 87 l3 94 -252 -3 -253 -3 0
170 c0 107 -4 171 -10 171 -6 0 -10 -63 -10 -170z m148 -2096 l-243 -122 -242
122 -243 121 242 121 243 122 242 -122 243 -121 -242 -121z"/>
<path d="M6242 8153 l-2 -172 -257 -3 c-142 -2 -264 -1 -270 1 -7 1 -10 8 -7
13 4 6 -3 5 -15 -1 -20 -11 -29 -23 -13 -19 4 1 22 -3 40 -9 l32 -12 0 -134 0
-135 -120 -12 c-66 -7 -120 -16 -120 -19 0 -4 42 -1 93 5 50 7 104 13 120 13
l27 1 0 -100 0 -100 95 0 95 0 0 -39 c0 -29 -5 -41 -17 -44 -10 -3 0 -5 22 -5
22 0 32 2 23 5 -13 3 -18 15 -18 44 l0 39 100 0 100 0 -15 -36 c-8 -20 -15
-38 -15 -39 0 -2 -8 -6 -17 -8 -10 -3 0 -5 22 -5 22 0 32 2 23 5 -15 4 -15 8
-4 41 l13 37 302 3 301 2 0 105 0 104 34 -6 c25 -4 35 -1 40 12 5 15 4 16 -9
5 -19 -16 -65 -5 -65 16 0 12 10 15 45 13 41 -3 49 1 78 31 32 34 32 34 1 7
-24 -21 -40 -27 -77 -27 l-47 0 0 129 0 129 -62 -5 c-43 -4 -60 -2 -53 5 6 5
17 12 26 14 9 1 -9 15 -43 30 -66 31 -79 29 -17 -2 38 -20 40 -22 22 -35 -14
-11 -60 -14 -200 -15 l-183 0 -3 173 -3 172 -2 -172z m508 -428 l0 -245 -495
0 -495 0 0 245 0 245 495 0 495 0 0 -245z"/>
<path d="M10812 8148 l-2 -88 -250 0 -250 0 -65 32 c-42 21 -64 37 -60 45 4
11 0 11 -17 2 -20 -11 -14 -15 70 -55 l92 -43 0 -115 0 -116 -131 0 c-78 0
-139 5 -152 11 -30 16 -19 5 28 -27 22 -14 33 -19 26 -10 -12 15 -3 16 108 16
l122 0 -3 -27 c-3 -27 -6 -28 -83 -39 -70 -10 -82 -10 -98 5 -18 15 -18 15 -1
-16 14 -24 20 -28 29 -18 6 8 41 17 83 21 l72 7 0 -92 0 -91 95 0 c52 0 95 -4
95 -9 0 -17 -144 -141 -164 -141 -25 0 -18 -5 19 -14 16 -4 26 -4 22 0 -8 8
100 124 115 124 16 0 9 -138 -7 -154 -14 -13 -14 -16 2 -25 17 -9 19 -2 22 92
1 56 7 108 13 115 8 9 58 12 187 12 l176 0 64 -197 c35 -109 65 -203 68 -210
2 -6 -6 -13 -19 -16 -13 -2 -6 -5 17 -5 22 0 34 2 28 5 -11 4 -143 391 -143
416 0 4 47 7 105 7 l105 0 0 -99 0 -99 67 -114 c68 -117 78 -128 103 -127 9 0
7 4 -6 9 -12 5 -50 57 -88 121 l-66 113 0 98 0 98 71 0 c63 0 80 -4 141 -37
l70 -36 -26 -14 c-14 -8 -26 -16 -26 -19 0 -2 19 5 43 17 45 23 63 36 35 26
-9 -3 -41 8 -74 25 -32 18 -53 33 -46 36 8 2 12 39 12 123 l0 119 74 0 c63 0
75 -3 79 -17 4 -14 5 -12 6 5 1 21 -2 22 -79 22 l-80 0 0 129 0 130 -42 3 -43
3 38 20 38 21 -48 22 c-43 20 -42 13 3 -14 15 -9 13 -13 -20 -32 -35 -21 -49
-22 -241 -22 l-204 0 -4 88 -3 87 -2 -87z m518 -343 l0 -245 -495 0 -495 0 0
245 0 245 495 0 495 0 0 -245z"/>
<path d="M8235 7968 l-240 -121 -163 -19 c-120 -13 -169 -15 -184 -7 -11 6
-21 9 -24 7 -2 -2 17 -14 41 -26 28 -13 44 -17 42 -10 -1 9 39 17 132 27 l134
14 256 -128 256 -127 253 126 252 126 156 0 c144 0 155 -1 143 -16 -10 -13 -3
-11 31 6 49 25 66 37 35 26 -11 -4 -96 -7 -190 -7 l-170 1 -253 125 c-139 69
-256 125 -260 124 -4 0 -115 -55 -247 -121z m493 -254 l-243 -122 -242 122
-243 121 242 121 243 122 242 -122 243 -121 -242 -121z"/>
<path d="M9920 6604 l-245 -315 -248 -125 c-136 -68 -246 -128 -243 -132 2 -4
113 -61 246 -127 l242 -120 -6 -125 c-10 -196 -36 -629 -42 -697 -5 -52 -8
-61 -22 -56 -15 4 -15 3 -2 -6 25 -18 28 -14 35 59 4 42 11 68 17 64 6 -4 5 4
-2 16 -7 13 -9 39 -6 64 3 22 6 48 6 56 1 8 8 150 17 316 l17 301 249 124
c137 68 251 127 253 131 3 4 -108 64 -246 133 -184 92 -249 129 -242 138 117
151 459 587 470 600 8 9 11 17 6 16 -5 0 -119 -142 -254 -315z m8 -690 l-243
-122 -242 122 -243 121 242 121 243 122 242 -122 243 -121 -242 -121z"/>
<path d="M5732 6471 c-62 -241 -112 -443 -112 -450 0 -6 -112 -67 -250 -136
-137 -69 -250 -127 -250 -130 0 -3 109 -59 243 -126 133 -67 244 -123 246
-125 2 -2 -29 -167 -68 -366 -102 -510 -90 -461 -109 -446 -9 7 -5 -2 8 -19
28 -38 30 -40 23 -14 -2 10 32 202 77 428 l82 409 250 125 c137 68 252 127
254 131 3 4 -108 64 -246 133 -137 69 -250 130 -250 136 0 9 147 594 211 841
7 26 16 38 32 41 20 4 19 4 -4 6 l-26 1 -111 -439z m136 -837 l-243 -122 -242
122 -243 121 242 121 243 122 242 -122 243 -121 -242 -121z"/>
<path d="M2080 6850 c-1 -14 -1 -29 0 -35 12 -54 60 -574 60 -652 l0 -103 -62
0 -63 1 -147 289 c-121 239 -144 290 -130 293 10 3 7 5 -9 6 -25 1 -20 -10
122 -286 82 -159 149 -291 149 -295 0 -5 -81 -8 -180 -8 -173 0 -180 -1 -180
-20 0 -11 -4 -20 -9 -20 -12 0 -234 91 -248 102 -6 5 -13 5 -16 1 -3 -5 57
-33 134 -63 l139 -55 0 -121 0 -121 -185 -17 c-101 -10 -189 -15 -194 -12 -5
3 -7 -3 -4 -15 3 -11 9 -16 12 -11 5 9 281 42 348 42 23 0 23 -2 23 -100 l0
-100 210 0 c194 0 210 -1 209 -17 0 -10 -22 -97 -48 -193 l-47 -175 -79 -6
-80 -5 95 -2 c52 -1 90 2 84 6 -7 5 6 68 40 197 l51 190 154 3 154 3 29 -28
c27 -25 28 -31 28 -116 0 -48 -5 -97 -11 -108 -10 -20 -10 -20 23 -3 42 21 49
28 21 20 -23 -7 -23 -6 -23 81 l0 87 65 -64 c45 -45 61 -66 52 -72 -6 -4 4 -5
23 -2 43 8 51 14 19 14 -36 0 -159 126 -159 163 l0 27 100 0 100 0 0 78 0 79
205 -38 c112 -21 209 -40 214 -43 5 -3 14 1 20 8 10 12 9 14 -6 10 -10 -2
-110 13 -223 34 l-205 38 0 89 0 90 255 47 c140 26 266 47 279 47 14 1 39 -11
55 -26 30 -28 30 -27 -2 8 l-32 35 -280 -51 -280 -52 0 78 c0 42 -4 79 -10 81
-5 2 155 91 355 198 200 107 364 199 365 203 0 4 -19 -3 -42 -16 -24 -14 -195
-106 -380 -206 l-338 -181 -164 2 -164 3 90 185 c49 102 114 236 143 298 l54
112 -27 -1 c-17 -1 -21 -3 -9 -6 9 -2 17 -6 17 -9 0 -2 -63 -133 -140 -291
l-140 -288 -55 -3 -55 -3 0 100 c0 80 -49 615 -64 696 -3 16 -4 15 -6 -5z
m560 -1045 l0 -245 -495 0 -495 0 0 245 0 245 495 0 495 0 0 -245z"/>
<path d="M11494 6716 c-16 -13 -17 -14 -2 -13 13 2 166 -252 598 -987 319
-544 580 -992 580 -995 0 -3 -110 -61 -245 -129 -135 -67 -244 -126 -241 -130
2 -4 113 -61 245 -127 235 -117 241 -120 241 -150 0 -16 -23 -289 -50 -605
-27 -316 -50 -621 -50 -677 l0 -103 -95 0 -95 0 0 -125 0 -125 -102 0 c-86 0
-160 -12 -482 -75 -210 -41 -392 -78 -406 -81 l-25 -7 25 -7 c33 -11 61 -11
36 -1 -13 5 115 34 366 84 328 65 401 77 487 77 l101 0 0 -49 c0 -43 -3 -50
-23 -55 -13 -3 -182 -42 -376 -86 -342 -78 -354 -80 -375 -63 -17 14 -16 13 3
-9 17 -20 27 -24 40 -18 9 5 165 43 346 84 182 41 342 77 358 81 23 6 27 4 27
-13 0 -18 -17 -27 -107 -56 -60 -19 -101 -35 -92 -36 8 0 55 13 104 30 49 16
90 30 92 30 10 0 1 -79 -9 -83 -7 -3 -4 -6 7 -7 11 0 38 -7 60 -15 34 -12 41
-12 48 0 5 9 23 15 45 15 l37 0 -29 -23 c-27 -22 -28 -24 -10 -31 10 -4 15 -4
11 0 -15 16 36 54 72 54 l35 0 -34 -35 c-19 -20 -40 -33 -47 -31 -22 9 -15 1
30 -34 33 -27 37 -28 18 -7 l-24 26 33 40 c29 38 35 41 81 41 27 0 49 -2 49
-5 0 -2 -19 -45 -42 -95 -41 -90 -42 -91 -55 -66 -20 39 -23 31 -6 -14 l16
-41 37 78 c20 43 42 93 49 110 13 31 31 45 31 24 0 -21 -114 -337 -124 -343
-7 -5 -6 -8 4 -8 11 0 33 54 75 180 l60 180 38 0 37 0 0 -165 c0 -103 4 -165
10 -165 6 0 10 62 10 165 l0 165 28 0 c29 0 29 -1 72 -157 24 -87 44 -166 44
-175 0 -11 8 -18 21 -18 14 0 16 3 7 8 -12 8 -95 289 -89 305 1 4 27 -66 57
-157 39 -119 59 -166 70 -166 11 0 12 2 2 8 -10 7 -122 321 -122 344 0 4 31 8
68 8 65 0 70 -2 102 -35 l34 -35 -30 -32 -29 -33 35 30 c36 30 56 49 43 40 -7
-6 -63 44 -63 57 0 18 57 7 81 -16 18 -16 30 -21 40 -15 11 7 11 9 -2 9 -9 0
-22 7 -29 15 -11 13 -8 15 13 15 14 0 30 -7 35 -15 5 -10 15 -13 27 -9 18 7
18 8 -1 16 -14 6 -11 7 11 4 17 -2 41 -2 55 1 23 4 25 8 22 49 -2 24 0 44 5
44 5 0 49 -14 98 -30 49 -17 98 -30 109 -29 12 0 17 2 11 4 -5 2 -58 18 -117
36 l-108 32 0 54 c0 36 4 53 12 53 63 0 514 -44 518 -51 3 -5 11 6 18 24 10
28 10 30 -3 13 -14 -18 -20 -18 -272 3 -142 12 -261 21 -265 21 -5 0 -8 65 -8
145 l0 145 -405 0 -405 0 0 103 c0 56 23 361 50 677 27 316 50 586 50 600 0
23 23 37 251 150 138 69 253 128 255 132 3 4 -109 65 -248 134 l-254 127 -569
969 c-314 534 -577 985 -586 1004 -14 31 -17 33 -35 20z m1434 -2372 l-243
-122 -242 122 -243 121 242 121 243 122 242 -122 243 -121 -242 -121z m452
-1799 l0 -245 -495 0 -495 0 0 245 0 245 495 0 495 0 0 -245z"/>
<path d="M2334 5024 c21 -22 44 -39 50 -39 7 0 11 -19 10 -50 -2 -58 0 -42
-56 -614 l-43 -443 -248 -124 c-136 -69 -246 -128 -243 -132 2 -4 113 -61 245
-127 l241 -120 0 -55 c1 -30 -9 -459 -22 -953 l-22 -897 -91 0 -90 1 -200 269
c-145 194 -206 268 -220 268 -17 1 -17 -1 -3 -6 9 -4 105 -124 213 -267 l197
-260 -150 -3 c-139 -2 -151 -4 -154 -21 -3 -17 -19 -13 -158 45 -269 111 -280
116 -274 126 4 6 -4 5 -16 -2 -22 -12 -20 -13 31 -31 30 -10 135 -52 234 -93
l180 -74 3 -231 2 -230 145 -3 144 -3 -74 -95 c-40 -52 -84 -101 -97 -107 -21
-12 -21 -13 -3 -13 14 0 47 35 105 110 l84 110 353 0 353 0 0 125 0 125 850 0
850 0 253 -126 253 -127 262 132 262 132 2588 510 c1423 280 2593 512 2601
514 9 4 11 0 6 -12 -15 -38 -15 -56 0 -23 9 19 28 48 43 65 l27 30 -26 -23
c-23 -20 -340 -85 -2635 -538 -1435 -283 -2617 -514 -2626 -514 -10 0 -127 55
-261 121 l-242 121 -253 -126 -252 -126 -850 0 -850 0 0 125 0 125 -100 0
-100 0 0 103 c0 95 -6 123 -79 407 -44 167 -78 306 -76 308 1 2 112 -52 247
-119 l243 -121 244 122 c135 67 260 134 280 150 20 15 323 213 674 440 l637
412 0 94 0 94 145 0 145 0 0 -159 c0 -118 -3 -161 -12 -164 -7 -3 1 -5 17 -5
17 0 24 2 18 5 -10 3 -13 46 -13 164 l0 160 223 -1 c122 -1 237 -1 255 -1 l32
1 0 120 0 120 54 0 c44 0 55 -4 59 -17 3 -11 5 -7 6 10 1 27 0 27 -59 27 l-60
0 0 125 0 125 -42 1 c-24 1 -69 0 -100 -1 l-58 -2 0 115 c0 93 7 149 34 282
32 155 37 169 70 205 20 22 36 46 36 53 0 6 -9 -2 -19 -19 -10 -17 -36 -45
-57 -64 -22 -18 -33 -29 -26 -26 17 10 16 -4 -14 -145 -17 -80 -29 -172 -33
-259 l-6 -135 -151 -3 -152 -3 -6 138 c-3 76 -9 177 -12 225 l-5 87 53 4 c29
2 -1 3 -67 3 -66 0 -92 -1 -58 -3 l61 -4 6 -82 c3 -45 8 -146 12 -224 l6 -143
-241 0 -241 0 0 -255 0 -255 95 0 95 0 0 -88 c0 -72 -3 -92 -18 -104 -14 -12
-1258 -818 -1301 -843 -9 -5 -97 33 -260 115 l-246 122 -253 -126 c-138 -69
-252 -131 -252 -137 0 -6 36 -149 80 -319 74 -286 80 -316 80 -409 l0 -101
-145 0 -145 0 0 78 c-1 124 42 1796 46 1809 2 7 116 69 254 138 137 69 250
127 250 130 0 3 -112 61 -250 130 -236 118 -250 127 -250 153 0 15 20 232 45
482 25 250 48 483 52 517 4 42 10 60 17 56 6 -3 -11 14 -38 38 -28 24 -52 44
-55 44 -3 0 -13 4 -21 9 -8 5 3 -9 24 -30z m214 -1520 l-243 -122 -242 122
-243 121 242 121 243 122 242 -122 243 -121 -242 -121z m2981 111 l0 -245
-494 0 -495 0 0 245 0 245 495 0 494 0 0 -245z m-2391 -1431 l-243 -122 -242
122 -243 121 242 121 243 122 242 -122 243 -121 -242 -121z m-388 -969 l0
-245 -495 0 -495 0 0 245 0 245 495 0 495 0 0 -245z m2458 -121 l-243 -122
-242 122 -243 121 242 121 243 122 242 -122 243 -121 -242 -121z"/>
<path d="M9953 4848 c0 -12 -322 -480 -345 -503 -7 -7 -9 18 -5 79 3 59 9 91
18 97 8 5 10 9 4 9 -18 0 -30 -15 -31 -37 0 -13 -1 -58 -2 -101 l-2 -78 -67
-97 -68 -97 -82 0 -83 0 -3 173 -3 172 -2 -172 -2 -173 -245 0 -245 0 0 -125
0 -125 -132 1 c-73 0 -234 6 -358 13 l-225 12 -245 123 -245 123 -255 -125
-255 -126 -293 -57 c-169 -33 -288 -60 -280 -65 7 -4 17 -4 23 0 5 4 131 32
279 61 l269 53 256 -128 256 -127 255 127 255 128 250 -12 c138 -6 294 -11
348 -11 l97 0 0 -125 0 -125 304 0 303 0 49 -112 c27 -62 48 -116 47 -120 -2
-4 14 -7 35 -7 34 1 35 2 8 8 -25 5 -34 20 -77 115 -27 60 -49 111 -49 113 0
2 87 3 194 3 162 0 195 2 198 14 2 11 72 -15 278 -105 151 -66 277 -124 280
-128 3 -5 25 2 50 15 25 13 41 23 37 24 -4 0 -21 -7 -38 -15 -29 -15 -34 -14
-292 99 -144 63 -274 120 -289 127 -28 12 -28 13 -28 111 l0 98 58 0 c33 0
140 -3 240 -7 154 -5 182 -9 185 -22 3 -11 5 -9 6 5 1 21 -3 22 -244 29 l-245
7 0 129 c0 96 -3 129 -12 130 -7 1 -52 0 -100 -1 l-88 -2 0 97 0 97 181 262
c100 143 189 267 197 274 14 10 13 12 -4 12 -12 0 -21 -6 -21 -12z m-2125
-1084 l-243 -122 -242 122 -243 121 242 121 243 122 242 -122 243 -121 -242
-121z m1962 101 l0 -245 -495 0 -495 0 0 245 0 245 495 0 495 0 0 -245z"/>
</g>
</svg>
