<?xml version="1.0" encoding="UTF-8" standalone="no"?><svg xmlns="http://www.w3.org/2000/svg" xmlns:xlink="http://www.w3.org/1999/xlink" contentScriptType="application/ecmascript" contentStyleType="text/css" height="791px" preserveAspectRatio="none" style="width:564px;height:791px;background:#FFFFFF;" version="1.1" viewBox="0 0 564 791" width="564px" zoomAndPan="magnify"><defs><filter height="300%" id="f1nzibicde06tz" width="300%" x="-1" y="-1"><feGaussianBlur result="blurOut" stdDeviation="2.0"/><feColorMatrix in="blurOut" result="blurOut2" type="matrix" values="0 0 0 0 0 0 0 0 0 0 0 0 0 0 0 0 0 0 .4 0"/><feOffset dx="4.0" dy="4.0" in="blurOut2" result="blurOut3"/><feBlend in="SourceGraphic" in2="blurOut3" mode="normal"/></filter></defs><g><!--MD5=[3d57a5727168e0e2a852a5c6ae235d81]
class PortShipUI--><rect codeLine="1" fill="#FEFECE" filter="url(#f1nzibicde06tz)" height="48" id="PortShipUI" style="stroke:#A80036;stroke-width:1.5;" width="91" x="215.5" y="7"/><ellipse cx="230.5" cy="23" fill="#ADD1B2" rx="11" ry="11" style="stroke:#A80036;stroke-width:1.0;"/><path d="M232.5,19.5 Q232.7031,19 232.9375,18.75 Q233.1719,18.5 233.4375,18.5 Q233.9063,18.5 234.2031,18.7813 Q234.5,19.0625 234.5,19.7188 L234.5,21.2813 Q234.5,21.9375 234.2188,22.2188 Q233.9375,22.5 233.5,22.5 Q233.1094,22.5 232.8594,22.3281 Q232.6094,22.1563 232.5,21.7031 Q232.4531,21.3906 232.2813,21.2188 Q231.9688,20.8906 231.4063,20.7031 Q230.8438,20.5 230.2813,20.5 Q229.5781,20.5 228.9844,20.7813 Q228.4063,21.0625 227.9531,21.6875 Q227.5,22.3125 227.5,23.1719 L227.5,24.0938 Q227.5,25.125 228.3438,25.8125 Q229.1875,26.5 230.6875,26.5 Q231.5781,26.5 232.2031,26.2969 Q232.5625,26.1875 232.9688,25.8281 Q233.2344,25.625 233.375,25.5625 Q233.5156,25.5 233.6875,25.5 Q234.0156,25.5 234.25,25.7656 Q234.5,26.0156 234.5,26.375 Q234.5,26.7188 234.1563,27.125 Q233.6563,27.7188 232.8594,28.0469 Q231.8125,28.5 230.5313,28.5 Q229.0313,28.5 227.8281,27.9063 Q226.8594,27.4375 226.1719,26.4219 Q225.5,25.4063 225.5,24.2031 L225.5,23.1094 Q225.5,21.8594 226.0938,20.7656 Q226.7031,19.6719 227.75,19.0938 Q228.8125,18.5 230,18.5 Q230.7188,18.5 231.3438,18.75 Q231.9688,19 232.5,19.5 Z " fill="#000000"/><text fill="#000000" font-family="sans-serif" font-size="12" lengthAdjust="spacing" textLength="59" x="244.5" y="27.9102">PortShipUI</text><line style="stroke:#A80036;stroke-width:1.5;" x1="216.5" x2="305.5" y1="39" y2="39"/><line style="stroke:#A80036;stroke-width:1.5;" x1="216.5" x2="305.5" y1="47" y2="47"/><!--MD5=[846a179fe15d22e2f3a24398fe178337]
class FindPortController--><rect codeLine="4" fill="#FEFECE" filter="url(#f1nzibicde06tz)" height="61.8359" id="FindPortController" style="stroke:#A80036;stroke-width:1.5;" width="181" x="170.5" y="115"/><ellipse cx="207.55" cy="131" fill="#ADD1B2" rx="11" ry="11" style="stroke:#A80036;stroke-width:1.0;"/><path d="M209.55,127.5 Q209.7531,127 209.9875,126.75 Q210.2219,126.5 210.4875,126.5 Q210.9563,126.5 211.2531,126.7813 Q211.55,127.0625 211.55,127.7188 L211.55,129.2813 Q211.55,129.9375 211.2688,130.2188 Q210.9875,130.5 210.55,130.5 Q210.1594,130.5 209.9094,130.3281 Q209.6594,130.1563 209.55,129.7031 Q209.5031,129.3906 209.3313,129.2188 Q209.0188,128.8906 208.4563,128.7031 Q207.8938,128.5 207.3313,128.5 Q206.6281,128.5 206.0344,128.7813 Q205.4563,129.0625 205.0031,129.6875 Q204.55,130.3125 204.55,131.1719 L204.55,132.0938 Q204.55,133.125 205.3938,133.8125 Q206.2375,134.5 207.7375,134.5 Q208.6281,134.5 209.2531,134.2969 Q209.6125,134.1875 210.0188,133.8281 Q210.2844,133.625 210.425,133.5625 Q210.5656,133.5 210.7375,133.5 Q211.0656,133.5 211.3,133.7656 Q211.55,134.0156 211.55,134.375 Q211.55,134.7188 211.2063,135.125 Q210.7063,135.7188 209.9094,136.0469 Q208.8625,136.5 207.5813,136.5 Q206.0813,136.5 204.8781,135.9063 Q203.9094,135.4375 203.2219,134.4219 Q202.55,133.4063 202.55,132.2031 L202.55,131.1094 Q202.55,129.8594 203.1438,128.7656 Q203.7531,127.6719 204.8,127.0938 Q205.8625,126.5 207.05,126.5 Q207.7688,126.5 208.3938,126.75 Q209.0188,127 209.55,127.5 Z " fill="#000000"/><text fill="#000000" font-family="sans-serif" font-size="12" lengthAdjust="spacing" textLength="100" x="226.45" y="135.9102">FindPortController</text><line style="stroke:#A80036;stroke-width:1.5;" x1="171.5" x2="350.5" y1="147" y2="147"/><line style="stroke:#A80036;stroke-width:1.5;" x1="171.5" x2="350.5" y1="155" y2="155"/><ellipse cx="181.5" cy="166" fill="#84BE84" rx="3" ry="3" style="stroke:#038048;stroke-width:1.0;"/><text fill="#000000" font-family="sans-serif" font-size="11" lengthAdjust="spacing" textLength="155" x="190.5" y="170.4189">getPorts(String code, Date data)</text><!--MD5=[02e4b9b7573f1156f41e60aa5b4e25a4]
class Company--><rect codeLine="8" fill="#FEFECE" filter="url(#f1nzibicde06tz)" height="103.3438" id="Company" style="stroke:#A80036;stroke-width:1.5;" width="96" x="213" y="237"/><ellipse cx="232.95" cy="253" fill="#ADD1B2" rx="11" ry="11" style="stroke:#A80036;stroke-width:1.0;"/><path d="M234.95,249.5 Q235.1531,249 235.3875,248.75 Q235.6219,248.5 235.8875,248.5 Q236.3563,248.5 236.6531,248.7813 Q236.95,249.0625 236.95,249.7188 L236.95,251.2813 Q236.95,251.9375 236.6688,252.2188 Q236.3875,252.5 235.95,252.5 Q235.5594,252.5 235.3094,252.3281 Q235.0594,252.1563 234.95,251.7031 Q234.9031,251.3906 234.7313,251.2188 Q234.4188,250.8906 233.8563,250.7031 Q233.2938,250.5 232.7313,250.5 Q232.0281,250.5 231.4344,250.7813 Q230.8563,251.0625 230.4031,251.6875 Q229.95,252.3125 229.95,253.1719 L229.95,254.0938 Q229.95,255.125 230.7938,255.8125 Q231.6375,256.5 233.1375,256.5 Q234.0281,256.5 234.6531,256.2969 Q235.0125,256.1875 235.4188,255.8281 Q235.6844,255.625 235.825,255.5625 Q235.9656,255.5 236.1375,255.5 Q236.4656,255.5 236.7,255.7656 Q236.95,256.0156 236.95,256.375 Q236.95,256.7188 236.6063,257.125 Q236.1063,257.7188 235.3094,258.0469 Q234.2625,258.5 232.9813,258.5 Q231.4813,258.5 230.2781,257.9063 Q229.3094,257.4375 228.6219,256.4219 Q227.95,255.4063 227.95,254.2031 L227.95,253.1094 Q227.95,251.8594 228.5438,250.7656 Q229.1531,249.6719 230.2,249.0938 Q231.2625,248.5 232.45,248.5 Q233.1688,248.5 233.7938,248.75 Q234.4188,249 234.95,249.5 Z " fill="#000000"/><text fill="#000000" font-family="sans-serif" font-size="12" lengthAdjust="spacing" textLength="53" x="248.05" y="257.9102">Company</text><line style="stroke:#A80036;stroke-width:1.5;" x1="214" x2="308" y1="269" y2="269"/><rect fill="none" height="6" style="stroke:#C82930;stroke-width:1.0;" width="6" x="221" y="277"/><text fill="#000000" font-family="sans-serif" font-size="11" lengthAdjust="spacing" textLength="62" x="233" y="284.4189">ShipStore ss</text><rect fill="none" height="6" style="stroke:#C82930;stroke-width:1.0;" width="6" x="221" y="290.8359"/><text fill="#000000" font-family="sans-serif" font-size="11" lengthAdjust="spacing" textLength="60" x="233" y="298.2549">PortStore ps</text><line style="stroke:#A80036;stroke-width:1.0;" x1="214" x2="308" y1="304.6719" y2="304.6719"/><ellipse cx="224" cy="315.6719" fill="#84BE84" rx="3" ry="3" style="stroke:#038048;stroke-width:1.0;"/><text fill="#000000" font-family="sans-serif" font-size="11" lengthAdjust="spacing" textLength="70" x="233" y="320.0908">getShipStore()</text><ellipse cx="224" cy="329.5078" fill="#84BE84" rx="3" ry="3" style="stroke:#038048;stroke-width:1.0;"/><text fill="#000000" font-family="sans-serif" font-size="11" lengthAdjust="spacing" textLength="68" x="233" y="333.9268">getPortStore()</text><!--MD5=[f70d2b281f9eefc1b49373c49159755a]
class PortStore--><rect codeLine="16" fill="#FEFECE" filter="url(#f1nzibicde06tz)" height="89.5078" id="PortStore" style="stroke:#A80036;stroke-width:1.5;" width="212" x="7" y="400"/><ellipse cx="83.25" cy="416" fill="#ADD1B2" rx="11" ry="11" style="stroke:#A80036;stroke-width:1.0;"/><path d="M85.25,412.5 Q85.4531,412 85.6875,411.75 Q85.9219,411.5 86.1875,411.5 Q86.6563,411.5 86.9531,411.7813 Q87.25,412.0625 87.25,412.7188 L87.25,414.2813 Q87.25,414.9375 86.9688,415.2188 Q86.6875,415.5 86.25,415.5 Q85.8594,415.5 85.6094,415.3281 Q85.3594,415.1563 85.25,414.7031 Q85.2031,414.3906 85.0313,414.2188 Q84.7188,413.8906 84.1563,413.7031 Q83.5938,413.5 83.0313,413.5 Q82.3281,413.5 81.7344,413.7813 Q81.1563,414.0625 80.7031,414.6875 Q80.25,415.3125 80.25,416.1719 L80.25,417.0938 Q80.25,418.125 81.0938,418.8125 Q81.9375,419.5 83.4375,419.5 Q84.3281,419.5 84.9531,419.2969 Q85.3125,419.1875 85.7188,418.8281 Q85.9844,418.625 86.125,418.5625 Q86.2656,418.5 86.4375,418.5 Q86.7656,418.5 87,418.7656 Q87.25,419.0156 87.25,419.375 Q87.25,419.7188 86.9063,420.125 Q86.4063,420.7188 85.6094,421.0469 Q84.5625,421.5 83.2813,421.5 Q81.7813,421.5 80.5781,420.9063 Q79.6094,420.4375 78.9219,419.4219 Q78.25,418.4063 78.25,417.2031 L78.25,416.1094 Q78.25,414.8594 78.8438,413.7656 Q79.4531,412.6719 80.5,412.0938 Q81.5625,411.5 82.75,411.5 Q83.4688,411.5 84.0938,411.75 Q84.7188,412 85.25,412.5 Z " fill="#000000"/><text fill="#000000" font-family="sans-serif" font-size="12" lengthAdjust="spacing" textLength="51" x="103.75" y="420.9102">PortStore</text><line style="stroke:#A80036;stroke-width:1.5;" x1="8" x2="218" y1="432" y2="432"/><rect fill="none" height="6" style="stroke:#C82930;stroke-width:1.0;" width="6" x="15" y="440"/><text fill="#000000" font-family="sans-serif" font-size="11" lengthAdjust="spacing" textLength="86" x="27" y="447.4189">KdTree&lt;Ports&gt; kd</text><line style="stroke:#A80036;stroke-width:1.0;" x1="8" x2="218" y1="453.8359" y2="453.8359"/><ellipse cx="18" cy="464.8359" fill="#84BE84" rx="3" ry="3" style="stroke:#038048;stroke-width:1.0;"/><text fill="#000000" font-family="sans-serif" font-size="11" lengthAdjust="spacing" textLength="68" x="27" y="469.2549">getPortStore()</text><ellipse cx="18" cy="478.6719" fill="#84BE84" rx="3" ry="3" style="stroke:#038048;stroke-width:1.0;"/><text fill="#000000" font-family="sans-serif" font-size="11" lengthAdjust="spacing" textLength="186" x="27" y="483.0908">insert(Ports port,double lat, double lon)</text><!--MD5=[ea2206eefe09474e90beb17e18e6b3d8]
class ShipStore--><rect codeLine="23" fill="#FEFECE" filter="url(#f1nzibicde06tz)" height="89.5078" id="ShipStore" style="stroke:#A80036;stroke-width:1.5;" width="248" x="254" y="400"/><ellipse cx="346.75" cy="416" fill="#ADD1B2" rx="11" ry="11" style="stroke:#A80036;stroke-width:1.0;"/><path d="M348.75,412.5 Q348.9531,412 349.1875,411.75 Q349.4219,411.5 349.6875,411.5 Q350.1563,411.5 350.4531,411.7813 Q350.75,412.0625 350.75,412.7188 L350.75,414.2813 Q350.75,414.9375 350.4688,415.2188 Q350.1875,415.5 349.75,415.5 Q349.3594,415.5 349.1094,415.3281 Q348.8594,415.1563 348.75,414.7031 Q348.7031,414.3906 348.5313,414.2188 Q348.2188,413.8906 347.6563,413.7031 Q347.0938,413.5 346.5313,413.5 Q345.8281,413.5 345.2344,413.7813 Q344.6563,414.0625 344.2031,414.6875 Q343.75,415.3125 343.75,416.1719 L343.75,417.0938 Q343.75,418.125 344.5938,418.8125 Q345.4375,419.5 346.9375,419.5 Q347.8281,419.5 348.4531,419.2969 Q348.8125,419.1875 349.2188,418.8281 Q349.4844,418.625 349.625,418.5625 Q349.7656,418.5 349.9375,418.5 Q350.2656,418.5 350.5,418.7656 Q350.75,419.0156 350.75,419.375 Q350.75,419.7188 350.4063,420.125 Q349.9063,420.7188 349.1094,421.0469 Q348.0625,421.5 346.7813,421.5 Q345.2813,421.5 344.0781,420.9063 Q343.1094,420.4375 342.4219,419.4219 Q341.75,418.4063 341.75,417.2031 L341.75,416.1094 Q341.75,414.8594 342.3438,413.7656 Q342.9531,412.6719 344,412.0938 Q345.0625,411.5 346.25,411.5 Q346.9688,411.5 347.5938,411.75 Q348.2188,412 348.75,412.5 Z " fill="#000000"/><text fill="#000000" font-family="sans-serif" font-size="12" lengthAdjust="spacing" textLength="54" x="367.25" y="420.9102">ShipStore</text><line style="stroke:#A80036;stroke-width:1.5;" x1="255" x2="501" y1="432" y2="432"/><rect fill="none" height="6" style="stroke:#C82930;stroke-width:1.0;" width="6" x="262" y="440"/><text fill="#000000" font-family="sans-serif" font-size="11" lengthAdjust="spacing" textLength="219" x="274" y="447.4189">Map&lt;Ship_static, BST&lt;Ship_dynamic&gt;&gt; mapa</text><line style="stroke:#A80036;stroke-width:1.0;" x1="255" x2="501" y1="453.8359" y2="453.8359"/><ellipse cx="265" cy="464.8359" fill="#84BE84" rx="3" ry="3" style="stroke:#038048;stroke-width:1.0;"/><text fill="#000000" font-family="sans-serif" font-size="11" lengthAdjust="spacing" textLength="70" x="274" y="469.2549">getShipStore()</text><ellipse cx="265" cy="478.6719" fill="#84BE84" rx="3" ry="3" style="stroke:#038048;stroke-width:1.0;"/><text fill="#000000" font-family="sans-serif" font-size="11" lengthAdjust="spacing" textLength="222" x="274" y="483.0908">insert(Ship_static sta, Ship_dynamic dynamic)</text><!--MD5=[9b6d7727f2e1e1e9ba33fdb2cf7ae46e]
class Ship_static--><rect codeLine="30" fill="#FEFECE" filter="url(#f1nzibicde06tz)" height="227.8672" id="Ship_static" style="stroke:#A80036;stroke-width:1.5;" width="93" x="257.5" y="550"/><ellipse cx="272.5" cy="566" fill="#ADD1B2" rx="11" ry="11" style="stroke:#A80036;stroke-width:1.0;"/><path d="M274.5,562.5 Q274.7031,562 274.9375,561.75 Q275.1719,561.5 275.4375,561.5 Q275.9063,561.5 276.2031,561.7813 Q276.5,562.0625 276.5,562.7188 L276.5,564.2813 Q276.5,564.9375 276.2188,565.2188 Q275.9375,565.5 275.5,565.5 Q275.1094,565.5 274.8594,565.3281 Q274.6094,565.1563 274.5,564.7031 Q274.4531,564.3906 274.2813,564.2188 Q273.9688,563.8906 273.4063,563.7031 Q272.8438,563.5 272.2813,563.5 Q271.5781,563.5 270.9844,563.7813 Q270.4063,564.0625 269.9531,564.6875 Q269.5,565.3125 269.5,566.1719 L269.5,567.0938 Q269.5,568.125 270.3438,568.8125 Q271.1875,569.5 272.6875,569.5 Q273.5781,569.5 274.2031,569.2969 Q274.5625,569.1875 274.9688,568.8281 Q275.2344,568.625 275.375,568.5625 Q275.5156,568.5 275.6875,568.5 Q276.0156,568.5 276.25,568.7656 Q276.5,569.0156 276.5,569.375 Q276.5,569.7188 276.1563,570.125 Q275.6563,570.7188 274.8594,571.0469 Q273.8125,571.5 272.5313,571.5 Q271.0313,571.5 269.8281,570.9063 Q268.8594,570.4375 268.1719,569.4219 Q267.5,568.4063 267.5,567.2031 L267.5,566.1094 Q267.5,564.8594 268.0938,563.7656 Q268.7031,562.6719 269.75,562.0938 Q270.8125,561.5 272,561.5 Q272.7188,561.5 273.3438,561.75 Q273.9688,562 274.5,562.5 Z " fill="#000000"/><text fill="#000000" font-family="sans-serif" font-size="12" lengthAdjust="spacing" textLength="61" x="286.5" y="570.9102">Ship_static</text><line style="stroke:#A80036;stroke-width:1.5;" x1="258.5" x2="349.5" y1="582" y2="582"/><rect fill="none" height="6" style="stroke:#C82930;stroke-width:1.0;" width="6" x="265.5" y="590"/><text fill="#000000" font-family="sans-serif" font-size="11" lengthAdjust="spacing" textLength="24" x="277.5" y="597.4189">mmsi</text><rect fill="none" height="6" style="stroke:#C82930;stroke-width:1.0;" width="6" x="265.5" y="603.8359"/><text fill="#000000" font-family="sans-serif" font-size="11" lengthAdjust="spacing" textLength="16" x="277.5" y="611.2549">imo</text><rect fill="none" height="6" style="stroke:#C82930;stroke-width:1.0;" width="6" x="265.5" y="617.6719"/><text fill="#000000" font-family="sans-serif" font-size="11" lengthAdjust="spacing" textLength="37" x="277.5" y="625.0908">callSign</text><rect fill="none" height="6" style="stroke:#C82930;stroke-width:1.0;" width="6" x="265.5" y="631.5078"/><text fill="#000000" font-family="sans-serif" font-size="11" lengthAdjust="spacing" textLength="59" x="277.5" y="638.9268">vesselName</text><rect fill="none" height="6" style="stroke:#C82930;stroke-width:1.0;" width="6" x="265.5" y="645.3438"/><text fill="#000000" font-family="sans-serif" font-size="11" lengthAdjust="spacing" textLength="56" x="277.5" y="652.7627">vesselType</text><rect fill="none" height="6" style="stroke:#C82930;stroke-width:1.0;" width="6" x="265.5" y="659.1797"/><text fill="#000000" font-family="sans-serif" font-size="11" lengthAdjust="spacing" textLength="29" x="277.5" y="666.5986">length</text><rect fill="none" height="6" style="stroke:#C82930;stroke-width:1.0;" width="6" x="265.5" y="673.0156"/><text fill="#000000" font-family="sans-serif" font-size="11" lengthAdjust="spacing" textLength="27" x="277.5" y="680.4346">width</text><rect fill="none" height="6" style="stroke:#C82930;stroke-width:1.0;" width="6" x="265.5" y="686.8516"/><text fill="#000000" font-family="sans-serif" font-size="11" lengthAdjust="spacing" textLength="23" x="277.5" y="694.2705">draft</text><rect fill="none" height="6" style="stroke:#C82930;stroke-width:1.0;" width="6" x="265.5" y="700.6875"/><text fill="#000000" font-family="sans-serif" font-size="11" lengthAdjust="spacing" textLength="28" x="277.5" y="708.1064">cargo</text><line style="stroke:#A80036;stroke-width:1.0;" x1="258.5" x2="349.5" y1="714.5234" y2="714.5234"/><ellipse cx="268.5" cy="725.5234" fill="#84BE84" rx="3" ry="3" style="stroke:#038048;stroke-width:1.0;"/><text fill="#000000" font-family="sans-serif" font-size="11" lengthAdjust="spacing" textLength="47" x="277.5" y="729.9424">getMmsi()</text><ellipse cx="268.5" cy="739.3594" fill="#84BE84" rx="3" ry="3" style="stroke:#038048;stroke-width:1.0;"/><text fill="#000000" font-family="sans-serif" font-size="11" lengthAdjust="spacing" textLength="39" x="277.5" y="743.7783">getImo()</text><ellipse cx="268.5" cy="753.1953" fill="#84BE84" rx="3" ry="3" style="stroke:#038048;stroke-width:1.0;"/><text fill="#000000" font-family="sans-serif" font-size="11" lengthAdjust="spacing" textLength="61" x="277.5" y="757.6143">getCallSign()</text><ellipse cx="268.5" cy="767.0313" fill="#84BE84" rx="3" ry="3" style="stroke:#038048;stroke-width:1.0;"/><text fill="#000000" font-family="sans-serif" font-size="11" lengthAdjust="spacing" textLength="45" x="277.5" y="771.4502">toString()</text><!--MD5=[1ddfaeb822fc2a2861c140960f151a5d]
class Ship_dynamic--><rect codeLine="47" fill="#FEFECE" filter="url(#f1nzibicde06tz)" height="200.1953" id="Ship_dynamic" style="stroke:#A80036;stroke-width:1.5;" width="164" x="386" y="564"/><ellipse cx="425.3" cy="580" fill="#ADD1B2" rx="11" ry="11" style="stroke:#A80036;stroke-width:1.0;"/><path d="M427.3,576.5 Q427.5031,576 427.7375,575.75 Q427.9719,575.5 428.2375,575.5 Q428.7063,575.5 429.0031,575.7813 Q429.3,576.0625 429.3,576.7188 L429.3,578.2813 Q429.3,578.9375 429.0188,579.2188 Q428.7375,579.5 428.3,579.5 Q427.9094,579.5 427.6594,579.3281 Q427.4094,579.1563 427.3,578.7031 Q427.2531,578.3906 427.0813,578.2188 Q426.7688,577.8906 426.2063,577.7031 Q425.6438,577.5 425.0813,577.5 Q424.3781,577.5 423.7844,577.7813 Q423.2063,578.0625 422.7531,578.6875 Q422.3,579.3125 422.3,580.1719 L422.3,581.0938 Q422.3,582.125 423.1438,582.8125 Q423.9875,583.5 425.4875,583.5 Q426.3781,583.5 427.0031,583.2969 Q427.3625,583.1875 427.7688,582.8281 Q428.0344,582.625 428.175,582.5625 Q428.3156,582.5 428.4875,582.5 Q428.8156,582.5 429.05,582.7656 Q429.3,583.0156 429.3,583.375 Q429.3,583.7188 428.9563,584.125 Q428.4563,584.7188 427.6594,585.0469 Q426.6125,585.5 425.3313,585.5 Q423.8313,585.5 422.6281,584.9063 Q421.6594,584.4375 420.9719,583.4219 Q420.3,582.4063 420.3,581.2031 L420.3,580.1094 Q420.3,578.8594 420.8938,577.7656 Q421.5031,576.6719 422.55,576.0938 Q423.6125,575.5 424.8,575.5 Q425.5188,575.5 426.1438,575.75 Q426.7688,576 427.3,576.5 Z " fill="#000000"/><text fill="#000000" font-family="sans-serif" font-size="12" lengthAdjust="spacing" textLength="78" x="444.7" y="584.9102">Ship_dynamic</text><line style="stroke:#A80036;stroke-width:1.5;" x1="387" x2="549" y1="596" y2="596"/><rect fill="none" height="6" style="stroke:#C82930;stroke-width:1.0;" width="6" x="394" y="604"/><text fill="#000000" font-family="sans-serif" font-size="11" lengthAdjust="spacing" textLength="68" x="406" y="611.4189">baseDateTime</text><rect fill="none" height="6" style="stroke:#C82930;stroke-width:1.0;" width="6" x="394" y="617.8359"/><text fill="#000000" font-family="sans-serif" font-size="11" lengthAdjust="spacing" textLength="11" x="406" y="625.2549">lat</text><rect fill="none" height="6" style="stroke:#C82930;stroke-width:1.0;" width="6" x="394" y="631.6719"/><text fill="#000000" font-family="sans-serif" font-size="11" lengthAdjust="spacing" textLength="14" x="406" y="639.0908">lon</text><rect fill="none" height="6" style="stroke:#C82930;stroke-width:1.0;" width="6" x="394" y="645.5078"/><text fill="#000000" font-family="sans-serif" font-size="11" lengthAdjust="spacing" textLength="18" x="406" y="652.9268">sog</text><rect fill="none" height="6" style="stroke:#C82930;stroke-width:1.0;" width="6" x="394" y="659.3438"/><text fill="#000000" font-family="sans-serif" font-size="11" lengthAdjust="spacing" textLength="18" x="406" y="666.7627">cog</text><rect fill="none" height="6" style="stroke:#C82930;stroke-width:1.0;" width="6" x="394" y="673.1797"/><text fill="#000000" font-family="sans-serif" font-size="11" lengthAdjust="spacing" textLength="38" x="406" y="680.5986">heading</text><rect fill="none" height="6" style="stroke:#C82930;stroke-width:1.0;" width="6" x="394" y="687.0156"/><text fill="#000000" font-family="sans-serif" font-size="11" lengthAdjust="spacing" textLength="82" x="406" y="694.4346">transceiverClass</text><line style="stroke:#A80036;stroke-width:1.0;" x1="387" x2="549" y1="700.8516" y2="700.8516"/><ellipse cx="397" cy="711.8516" fill="#84BE84" rx="3" ry="3" style="stroke:#038048;stroke-width:1.0;"/><text fill="#000000" font-family="sans-serif" font-size="11" lengthAdjust="spacing" textLength="92" x="406" y="716.2705">getBaseDateTime()</text><ellipse cx="397" cy="725.6875" fill="#84BE84" rx="3" ry="3" style="stroke:#038048;stroke-width:1.0;"/><text fill="#000000" font-family="sans-serif" font-size="11" lengthAdjust="spacing" textLength="43" x="406" y="730.1064">getLAT()</text><ellipse cx="397" cy="739.5234" fill="#84BE84" rx="3" ry="3" style="stroke:#038048;stroke-width:1.0;"/><text fill="#000000" font-family="sans-serif" font-size="11" lengthAdjust="spacing" textLength="44" x="406" y="743.9424">getLON()</text><ellipse cx="397" cy="753.3594" fill="#84BE84" rx="3" ry="3" style="stroke:#038048;stroke-width:1.0;"/><text fill="#000000" font-family="sans-serif" font-size="11" lengthAdjust="spacing" textLength="138" x="406" y="757.7783">compareTo(Ship_dynamic o)</text><!--MD5=[ea13aecf8df941b18fb8e3885c78c184]
class Ports--><rect codeLine="62" fill="#FEFECE" filter="url(#f1nzibicde06tz)" height="144.8516" id="Ports" style="stroke:#A80036;stroke-width:1.5;" width="71" x="77.5" y="591.5"/><ellipse cx="97" cy="607.5" fill="#ADD1B2" rx="11" ry="11" style="stroke:#A80036;stroke-width:1.0;"/><path d="M99,604 Q99.2031,603.5 99.4375,603.25 Q99.6719,603 99.9375,603 Q100.4063,603 100.7031,603.2813 Q101,603.5625 101,604.2188 L101,605.7813 Q101,606.4375 100.7188,606.7188 Q100.4375,607 100,607 Q99.6094,607 99.3594,606.8281 Q99.1094,606.6563 99,606.2031 Q98.9531,605.8906 98.7813,605.7188 Q98.4688,605.3906 97.9063,605.2031 Q97.3438,605 96.7813,605 Q96.0781,605 95.4844,605.2813 Q94.9063,605.5625 94.4531,606.1875 Q94,606.8125 94,607.6719 L94,608.5938 Q94,609.625 94.8438,610.3125 Q95.6875,611 97.1875,611 Q98.0781,611 98.7031,610.7969 Q99.0625,610.6875 99.4688,610.3281 Q99.7344,610.125 99.875,610.0625 Q100.0156,610 100.1875,610 Q100.5156,610 100.75,610.2656 Q101,610.5156 101,610.875 Q101,611.2188 100.6563,611.625 Q100.1563,612.2188 99.3594,612.5469 Q98.3125,613 97.0313,613 Q95.5313,613 94.3281,612.4063 Q93.3594,611.9375 92.6719,610.9219 Q92,609.9063 92,608.7031 L92,607.6094 Q92,606.3594 92.5938,605.2656 Q93.2031,604.1719 94.25,603.5938 Q95.3125,603 96.5,603 Q97.2188,603 97.8438,603.25 Q98.4688,603.5 99,604 Z " fill="#000000"/><text fill="#000000" font-family="sans-serif" font-size="12" lengthAdjust="spacing" textLength="29" x="112" y="612.4102">Ports</text><line style="stroke:#A80036;stroke-width:1.5;" x1="78.5" x2="147.5" y1="623.5" y2="623.5"/><rect fill="none" height="6" style="stroke:#C82930;stroke-width:1.0;" width="6" x="85.5" y="631.5"/><text fill="#000000" font-family="sans-serif" font-size="11" lengthAdjust="spacing" textLength="27" x="97.5" y="638.9189">idPort</text><rect fill="none" height="6" style="stroke:#C82930;stroke-width:1.0;" width="6" x="85.5" y="645.3359"/><text fill="#000000" font-family="sans-serif" font-size="11" lengthAdjust="spacing" textLength="26" x="97.5" y="652.7549">name</text><rect fill="none" height="6" style="stroke:#C82930;stroke-width:1.0;" width="6" x="85.5" y="659.1719"/><text fill="#000000" font-family="sans-serif" font-size="11" lengthAdjust="spacing" textLength="11" x="97.5" y="666.5908">lat</text><rect fill="none" height="6" style="stroke:#C82930;stroke-width:1.0;" width="6" x="85.5" y="673.0078"/><text fill="#000000" font-family="sans-serif" font-size="11" lengthAdjust="spacing" textLength="14" x="97.5" y="680.4268">lon</text><rect fill="none" height="6" style="stroke:#C82930;stroke-width:1.0;" width="6" x="85.5" y="686.8438"/><text fill="#000000" font-family="sans-serif" font-size="11" lengthAdjust="spacing" textLength="44" x="97.5" y="694.2627">continent</text><rect fill="none" height="6" style="stroke:#C82930;stroke-width:1.0;" width="6" x="85.5" y="700.6797"/><text fill="#000000" font-family="sans-serif" font-size="11" lengthAdjust="spacing" textLength="37" x="97.5" y="708.0986">country</text><line style="stroke:#A80036;stroke-width:1.0;" x1="78.5" x2="147.5" y1="714.5156" y2="714.5156"/><ellipse cx="88.5" cy="725.5156" fill="#84BE84" rx="3" ry="3" style="stroke:#038048;stroke-width:1.0;"/><text fill="#000000" font-family="sans-serif" font-size="11" lengthAdjust="spacing" textLength="45" x="97.5" y="729.9346">toString()</text><!--MD5=[c93cf0f95ae222cb0f6aab674d0a9c38]
link PortShipUI to FindPortController--><path codeLine="73" d="M261,55.14 C261,70.71 261,91.53 261,109.22 " fill="none" id="PortShipUI-to-FindPortController" style="stroke:#A80036;stroke-width:1.0;stroke-dasharray:7.0,7.0;"/><polygon fill="#A80036" points="261,114.6,265,105.6,261,109.6,257,105.6,261,114.6" style="stroke:#A80036;stroke-width:1.0;"/><!--MD5=[15ab8651c65aeda37bfb508722515549]
link FindPortController to Company--><path codeLine="74" d="M261,177.14 C261,193.06 261,213.11 261,231.74 " fill="none" id="FindPortController-to-Company" style="stroke:#A80036;stroke-width:1.0;stroke-dasharray:7.0,7.0;"/><polygon fill="#A80036" points="261,236.96,265,227.96,261,231.96,257,227.96,261,236.96" style="stroke:#A80036;stroke-width:1.0;"/><!--MD5=[6b4a94d80660e97c6833bde801bd4c89]
link Company to ShipStore--><path codeLine="75" d="M299.31,340.09 C312.77,357.86 327.84,377.77 341.17,395.37 " fill="none" id="Company-to-ShipStore" style="stroke:#A80036;stroke-width:1.0;"/><polygon fill="#A80036" points="344.52,399.79,342.2816,390.1989,341.504,395.802,335.9009,395.0245,344.52,399.79" style="stroke:#A80036;stroke-width:1.0;"/><!--MD5=[5a03d6507d51d9583d52cfaf8d4720dd]
link Company to PortStore--><path codeLine="76" d="M212.95,339.66 C195.69,357.68 176.26,377.96 159.17,395.81 " fill="none" id="Company-to-PortStore" style="stroke:#A80036;stroke-width:1.0;"/><polygon fill="#A80036" points="155.33,399.81,164.4416,396.0711,158.7861,396.1968,158.6604,390.5413,155.33,399.81" style="stroke:#A80036;stroke-width:1.0;"/><!--MD5=[af797a1da6de000dac25911bcf173442]
link FindPortController to ShipStore--><path codeLine="77" d="M287.3,177.23 C300.6,193.89 315.99,215.51 326,237 C349.82,288.16 363.71,351.72 371.04,394.81 " fill="none" id="FindPortController-to-ShipStore" style="stroke:#A80036;stroke-width:1.0;stroke-dasharray:7.0,7.0;"/><polygon fill="#A80036" points="371.91,399.96,374.367,390.4226,371.0834,395.0288,366.4771,391.7451,371.91,399.96" style="stroke:#A80036;stroke-width:1.0;"/><!--MD5=[996314549176cf5ba23b2453a9cfd423]
link FindPortController to PortStore--><path codeLine="78" d="M235.72,177.34 C222.47,194.2 206.62,215.97 195,237 C166.55,288.47 142.95,351.87 128.49,394.84 " fill="none" id="FindPortController-to-PortStore" style="stroke:#A80036;stroke-width:1.0;stroke-dasharray:7.0,7.0;"/><polygon fill="#A80036" points="126.86,399.72,133.5074,392.4528,128.4454,394.978,125.9202,389.9161,126.86,399.72" style="stroke:#A80036;stroke-width:1.0;"/><!--MD5=[8987bf6bea37f8d0ccd1196857e26e9d]
link ShipStore to Ship_static--><path codeLine="79" d="M362.94,490.17 C357.44,506.28 350.94,525.35 344.29,544.84 " fill="none" id="ShipStore-to-Ship_static" style="stroke:#A80036;stroke-width:1.0;"/><polygon fill="#A80036" points="342.6,549.8,349.2932,542.575,344.2154,545.0681,341.7222,539.9903,342.6,549.8" style="stroke:#A80036;stroke-width:1.0;"/><!--MD5=[6dcf3abd3e511283f57c719e9e706226]
link ShipStore to Ship_dynamic--><path codeLine="80" d="M396.32,490.17 C404.61,510.16 414.79,534.7 424.84,558.94 " fill="none" id="ShipStore-to-Ship_dynamic" style="stroke:#A80036;stroke-width:1.0;"/><polygon fill="#A80036" points="426.85,563.78,427.0959,553.9342,424.934,559.1617,419.7066,556.9998,426.85,563.78" style="stroke:#A80036;stroke-width:1.0;"/><!--MD5=[af03eac9374996fab52622a2288382b0]
link PortStore to Ports--><path codeLine="81" d="M113,490.17 C113,517.7 113,553.87 113,586 " fill="none" id="PortStore-to-Ports" style="stroke:#A80036;stroke-width:1.0;"/><polygon fill="#A80036" points="113,591.12,117,582.12,113,586.12,109,582.12,113,591.12" style="stroke:#A80036;stroke-width:1.0;"/><!--MD5=[3b53813909715bdfe1229546e9ed5297]
@startuml
class PortShipUI{
}

class FindPortController{
+getPorts(String code, Date data)
}

class Company{
-ShipStore ss
-PortStore ps
- -
+getShipStore()
+getPortStore()
}

class PortStore{
-KdTree<Ports> kd
- -
+getPortStore()
+insert(Ports port,double lat, double lon)
}

class ShipStore{
-Map<Ship_static, BST<Ship_dynamic>> mapa
- -
+getShipStore()
+insert(Ship_static sta, Ship_dynamic dynamic)
}

class Ship_static{
-mmsi
-imo
-callSign
-vesselName
-vesselType
-length
-width
-draft
-cargo
- -
+getMmsi()
+getImo()
+getCallSign()
+toString()
}

class Ship_dynamic{
-baseDateTime
-lat
-lon
-sog
-cog
-heading
-transceiverClass
- -
+getBaseDateTime()
+getLAT()
+getLON()
+compareTo(Ship_dynamic o)
}

class Ports{
-idPort
-name
-lat
-lon
-continent
-country
- -
+toString()
}

PortShipUI ..> FindPortController
FindPortController ..> Company
Company - -> ShipStore
Company - -> PortStore
FindPortController ..> ShipStore
FindPortController ..> PortStore
ShipStore - -> Ship_static
ShipStore - -> Ship_dynamic
PortStore - -> Ports

@enduml

PlantUML version 1.2021.11(Sat Oct 02 14:26:11 BST 2021)
(GPL source distribution)
Java Runtime: OpenJDK Runtime Environment
JVM: OpenJDK 64-Bit Server VM
Default Encoding: Cp1252
Language: pt
Country: PT
--></g></svg>