<?xml version="1.0" encoding="UTF-8" standalone="no"?><svg xmlns="http://www.w3.org/2000/svg" xmlns:xlink="http://www.w3.org/1999/xlink" contentScriptType="application/ecmascript" contentStyleType="text/css" height="316px" preserveAspectRatio="none" style="width:395px;height:316px;background:#FFFFFF;" version="1.1" viewBox="0 0 395 316" width="395px" zoomAndPan="magnify"><defs><filter height="300%" id="f1gofmgat3x2m9" width="300%" x="-1" y="-1"><feGaussianBlur result="blurOut" stdDeviation="2.0"/><feColorMatrix in="blurOut" result="blurOut2" type="matrix" values="0 0 0 0 0 0 0 0 0 0 0 0 0 0 0 0 0 0 .4 0"/><feOffset dx="4.0" dy="4.0" in="blurOut2" result="blurOut3"/><feBlend in="SourceGraphic" in2="blurOut3" mode="normal"/></filter></defs><g><rect fill="#FFFFFF" filter="url(#f1gofmgat3x2m9)" height="113.4063" style="stroke:#A80036;stroke-width:1.0;" width="10" x="53" y="99.6094"/><rect fill="#FFFFFF" filter="url(#f1gofmgat3x2m9)" height="30.3516" style="stroke:#A80036;stroke-width:1.0;" width="10" x="346" y="121.9609"/><rect fill="#FFFFFF" filter="url(#f1gofmgat3x2m9)" height="30.3516" style="stroke:#A80036;stroke-width:1.0;" width="10" x="346" y="182.6641"/><line style="stroke:#A80036;stroke-width:1.0;stroke-dasharray:5.0,5.0;" x1="58" x2="58" y1="89.6094" y2="231.0156"/><line style="stroke:#A80036;stroke-width:1.0;stroke-dasharray:5.0,5.0;" x1="351" x2="351" y1="89.6094" y2="231.0156"/><text fill="#000000" font-family="sans-serif" font-size="14" lengthAdjust="spacing" textLength="100" x="5" y="86.5332">Traffic Manager</text><ellipse cx="58" cy="15" fill="#FEFECE" filter="url(#f1gofmgat3x2m9)" rx="8" ry="8" style="stroke:#A80036;stroke-width:2.0;"/><path d="M58,23 L58,50 M45,31 L71,31 M58,50 L45,65 M58,50 L71,65 " fill="none" filter="url(#f1gofmgat3x2m9)" style="stroke:#A80036;stroke-width:2.0;"/><text fill="#000000" font-family="sans-serif" font-size="14" lengthAdjust="spacing" textLength="100" x="5" y="244.5488">Traffic Manager</text><ellipse cx="58" cy="257.625" fill="#FEFECE" filter="url(#f1gofmgat3x2m9)" rx="8" ry="8" style="stroke:#A80036;stroke-width:2.0;"/><path d="M58,265.625 L58,292.625 M45,273.625 L71,273.625 M58,292.625 L45,307.625 M58,292.625 L71,307.625 " fill="none" filter="url(#f1gofmgat3x2m9)" style="stroke:#A80036;stroke-width:2.0;"/><rect fill="#FEFECE" filter="url(#f1gofmgat3x2m9)" height="31.6094" style="stroke:#A80036;stroke-width:1.5;" width="64" x="317" y="53"/><text fill="#000000" font-family="sans-serif" font-size="14" lengthAdjust="spacing" textLength="50" x="324" y="74.5332">:System</text><rect fill="#FEFECE" filter="url(#f1gofmgat3x2m9)" height="31.6094" style="stroke:#A80036;stroke-width:1.5;" width="64" x="317" y="230.0156"/><text fill="#000000" font-family="sans-serif" font-size="14" lengthAdjust="spacing" textLength="50" x="324" y="251.5488">:System</text><rect fill="#FFFFFF" filter="url(#f1gofmgat3x2m9)" height="113.4063" style="stroke:#A80036;stroke-width:1.0;" width="10" x="53" y="99.6094"/><rect fill="#FFFFFF" filter="url(#f1gofmgat3x2m9)" height="30.3516" style="stroke:#A80036;stroke-width:1.0;" width="10" x="346" y="121.9609"/><rect fill="#FFFFFF" filter="url(#f1gofmgat3x2m9)" height="30.3516" style="stroke:#A80036;stroke-width:1.0;" width="10" x="346" y="182.6641"/><polygon fill="#A80036" points="334,117.9609,344,121.9609,334,125.9609,338,121.9609" style="stroke:#A80036;stroke-width:1.0;"/><line style="stroke:#A80036;stroke-width:1.0;" x1="63" x2="340" y1="121.9609" y2="121.9609"/><text fill="#000000" font-family="sans-serif" font-size="13" font-weight="bold" lengthAdjust="spacing" textLength="7" x="70" y="117.1045">1</text><text fill="#000000" font-family="sans-serif" font-size="13" lengthAdjust="spacing" textLength="253" x="81" y="117.1045">Asks to search for the closest port of a ship</text><polygon fill="#A80036" points="74,148.3125,64,152.3125,74,156.3125,70,152.3125" style="stroke:#A80036;stroke-width:1.0;"/><line style="stroke:#A80036;stroke-width:1.0;stroke-dasharray:2.0,2.0;" x1="68" x2="350" y1="152.3125" y2="152.3125"/><text fill="#000000" font-family="sans-serif" font-size="13" font-weight="bold" lengthAdjust="spacing" textLength="7" x="80" y="147.4561">2</text><text fill="#000000" font-family="sans-serif" font-size="13" lengthAdjust="spacing" textLength="188" x="91" y="147.4561">Asks for ship Call Sign and Date</text><polygon fill="#A80036" points="334,178.6641,344,182.6641,334,186.6641,338,182.6641" style="stroke:#A80036;stroke-width:1.0;"/><line style="stroke:#A80036;stroke-width:1.0;" x1="63" x2="340" y1="182.6641" y2="182.6641"/><text fill="#000000" font-family="sans-serif" font-size="13" font-weight="bold" lengthAdjust="spacing" textLength="7" x="70" y="177.8076">3</text><text fill="#000000" font-family="sans-serif" font-size="13" lengthAdjust="spacing" textLength="179" x="81" y="177.8076">Inserts ship Call Sign and Date</text><polygon fill="#A80036" points="69,209.0156,59,213.0156,69,217.0156,65,213.0156" style="stroke:#A80036;stroke-width:1.0;"/><line style="stroke:#A80036;stroke-width:1.0;stroke-dasharray:2.0,2.0;" x1="63" x2="350" y1="213.0156" y2="213.0156"/><text fill="#000000" font-family="sans-serif" font-size="13" font-weight="bold" lengthAdjust="spacing" textLength="7" x="75" y="208.1592">4</text><text fill="#000000" font-family="sans-serif" font-size="13" lengthAdjust="spacing" textLength="139" x="86" y="208.1592">Returns the closest port</text><!--MD5=[b5c955f84f157bacfe8fc2429e11d58e]
@startuml
autonumber

actor "Traffic Manager" as TM

participant ":System" as Sys

activate TM
TM -> Sys : Asks to search for the closest port of a ship
activate Sys
Sys - -> TM : Asks for ship Call Sign and Date
deactivate Sys
TM -> Sys : Inserts ship Call Sign and Date
activate Sys
Sys - -> TM : Returns the closest port
deactivate Sys
deactivate TM

@enduml

PlantUML version 1.2021.11(Sat Oct 02 14:26:11 BST 2021)
(GPL source distribution)
Java Runtime: OpenJDK Runtime Environment
JVM: OpenJDK 64-Bit Server VM
Default Encoding: Cp1252
Language: pt
Country: PT
--></g></svg>