<?xml version="1.0" encoding="UTF-8" standalone="no"?><svg xmlns="http://www.w3.org/2000/svg" xmlns:xlink="http://www.w3.org/1999/xlink" contentScriptType="application/ecmascript" contentStyleType="text/css" height="434px" preserveAspectRatio="none" style="width:196px;height:434px;background:#FFFFFF;" version="1.1" viewBox="0 0 196 434" width="196px" zoomAndPan="magnify"><defs><filter height="300%" id="fe3hyee5bdqge" width="300%" x="-1" y="-1"><feGaussianBlur result="blurOut" stdDeviation="2.0"/><feColorMatrix in="blurOut" result="blurOut2" type="matrix" values="0 0 0 0 0 0 0 0 0 0 0 0 0 0 0 0 0 0 .4 0"/><feOffset dx="4.0" dy="4.0" in="blurOut2" result="blurOut3"/><feBlend in="SourceGraphic" in2="blurOut3" mode="normal"/></filter></defs><g><!--MD5=[1be9b4f97fe1e3d1f06842bd69ea2e8d]
class IdleShipUI--><rect codeLine="1" fill="#FEFECE" filter="url(#fe3hyee5bdqge)" height="48" id="IdleShipUI" style="stroke:#A80036;stroke-width:1.5;" width="89" x="72.5" y="7"/><ellipse cx="87.5" cy="23" fill="#ADD1B2" rx="11" ry="11" style="stroke:#A80036;stroke-width:1.0;"/><path d="M89.5,19.5 Q89.7031,19 89.9375,18.75 Q90.1719,18.5 90.4375,18.5 Q90.9063,18.5 91.2031,18.7813 Q91.5,19.0625 91.5,19.7188 L91.5,21.2813 Q91.5,21.9375 91.2188,22.2188 Q90.9375,22.5 90.5,22.5 Q90.1094,22.5 89.8594,22.3281 Q89.6094,22.1563 89.5,21.7031 Q89.4531,21.3906 89.2813,21.2188 Q88.9688,20.8906 88.4063,20.7031 Q87.8438,20.5 87.2813,20.5 Q86.5781,20.5 85.9844,20.7813 Q85.4063,21.0625 84.9531,21.6875 Q84.5,22.3125 84.5,23.1719 L84.5,24.0938 Q84.5,25.125 85.3438,25.8125 Q86.1875,26.5 87.6875,26.5 Q88.5781,26.5 89.2031,26.2969 Q89.5625,26.1875 89.9688,25.8281 Q90.2344,25.625 90.375,25.5625 Q90.5156,25.5 90.6875,25.5 Q91.0156,25.5 91.25,25.7656 Q91.5,26.0156 91.5,26.375 Q91.5,26.7188 91.1563,27.125 Q90.6563,27.7188 89.8594,28.0469 Q88.8125,28.5 87.5313,28.5 Q86.0313,28.5 84.8281,27.9063 Q83.8594,27.4375 83.1719,26.4219 Q82.5,25.4063 82.5,24.2031 L82.5,23.1094 Q82.5,21.8594 83.0938,20.7656 Q83.7031,19.6719 84.75,19.0938 Q85.8125,18.5 87,18.5 Q87.7188,18.5 88.3438,18.75 Q88.9688,19 89.5,19.5 Z " fill="#000000"/><text fill="#000000" font-family="sans-serif" font-size="12" lengthAdjust="spacing" textLength="57" x="101.5" y="27.9102">IdleShipUI</text><line style="stroke:#A80036;stroke-width:1.5;" x1="73.5" x2="160.5" y1="39" y2="39"/><line style="stroke:#A80036;stroke-width:1.5;" x1="73.5" x2="160.5" y1="47" y2="47"/><!--MD5=[7b64a42c41cd93ee2facdebefb145a2e]
class IdleShipController--><rect codeLine="4" fill="#FEFECE" filter="url(#fe3hyee5bdqge)" height="61.8359" id="IdleShipController" style="stroke:#A80036;stroke-width:1.5;" width="131" x="51.5" y="115"/><ellipse cx="66.5" cy="131" fill="#ADD1B2" rx="11" ry="11" style="stroke:#A80036;stroke-width:1.0;"/><path d="M68.5,127.5 Q68.7031,127 68.9375,126.75 Q69.1719,126.5 69.4375,126.5 Q69.9063,126.5 70.2031,126.7813 Q70.5,127.0625 70.5,127.7188 L70.5,129.2813 Q70.5,129.9375 70.2188,130.2188 Q69.9375,130.5 69.5,130.5 Q69.1094,130.5 68.8594,130.3281 Q68.6094,130.1563 68.5,129.7031 Q68.4531,129.3906 68.2813,129.2188 Q67.9688,128.8906 67.4063,128.7031 Q66.8438,128.5 66.2813,128.5 Q65.5781,128.5 64.9844,128.7813 Q64.4063,129.0625 63.9531,129.6875 Q63.5,130.3125 63.5,131.1719 L63.5,132.0938 Q63.5,133.125 64.3438,133.8125 Q65.1875,134.5 66.6875,134.5 Q67.5781,134.5 68.2031,134.2969 Q68.5625,134.1875 68.9688,133.8281 Q69.2344,133.625 69.375,133.5625 Q69.5156,133.5 69.6875,133.5 Q70.0156,133.5 70.25,133.7656 Q70.5,134.0156 70.5,134.375 Q70.5,134.7188 70.1563,135.125 Q69.6563,135.7188 68.8594,136.0469 Q67.8125,136.5 66.5313,136.5 Q65.0313,136.5 63.8281,135.9063 Q62.8594,135.4375 62.1719,134.4219 Q61.5,133.4063 61.5,132.2031 L61.5,131.1094 Q61.5,129.8594 62.0938,128.7656 Q62.7031,127.6719 63.75,127.0938 Q64.8125,126.5 66,126.5 Q66.7188,126.5 67.3438,126.75 Q67.9688,127 68.5,127.5 Z " fill="#000000"/><text fill="#000000" font-family="sans-serif" font-size="12" lengthAdjust="spacing" textLength="99" x="80.5" y="135.9102">IdleShipController</text><line style="stroke:#A80036;stroke-width:1.5;" x1="52.5" x2="181.5" y1="147" y2="147"/><line style="stroke:#A80036;stroke-width:1.5;" x1="52.5" x2="181.5" y1="155" y2="155"/><ellipse cx="62.5" cy="166" fill="#84BE84" rx="3" ry="3" style="stroke:#038048;stroke-width:1.0;"/><text fill="#000000" font-family="sans-serif" font-size="11" lengthAdjust="spacing" textLength="60" x="71.5" y="170.4189">getIdleShip()</text><!--MD5=[02e4b9b7573f1156f41e60aa5b4e25a4]
class Company--><rect codeLine="8" fill="#FEFECE" filter="url(#fe3hyee5bdqge)" height="61.8359" id="Company" style="stroke:#A80036;stroke-width:1.5;" width="112" x="7" y="237"/><ellipse cx="34.15" cy="253" fill="#ADD1B2" rx="11" ry="11" style="stroke:#A80036;stroke-width:1.0;"/><path d="M36.15,249.5 Q36.3531,249 36.5875,248.75 Q36.8219,248.5 37.0875,248.5 Q37.5563,248.5 37.8531,248.7813 Q38.15,249.0625 38.15,249.7188 L38.15,251.2813 Q38.15,251.9375 37.8688,252.2188 Q37.5875,252.5 37.15,252.5 Q36.7594,252.5 36.5094,252.3281 Q36.2594,252.1563 36.15,251.7031 Q36.1031,251.3906 35.9313,251.2188 Q35.6188,250.8906 35.0563,250.7031 Q34.4938,250.5 33.9313,250.5 Q33.2281,250.5 32.6344,250.7813 Q32.0563,251.0625 31.6031,251.6875 Q31.15,252.3125 31.15,253.1719 L31.15,254.0938 Q31.15,255.125 31.9938,255.8125 Q32.8375,256.5 34.3375,256.5 Q35.2281,256.5 35.8531,256.2969 Q36.2125,256.1875 36.6188,255.8281 Q36.8844,255.625 37.025,255.5625 Q37.1656,255.5 37.3375,255.5 Q37.6656,255.5 37.9,255.7656 Q38.15,256.0156 38.15,256.375 Q38.15,256.7188 37.8063,257.125 Q37.3063,257.7188 36.5094,258.0469 Q35.4625,258.5 34.1813,258.5 Q32.6813,258.5 31.4781,257.9063 Q30.5094,257.4375 29.8219,256.4219 Q29.15,255.4063 29.15,254.2031 L29.15,253.1094 Q29.15,251.8594 29.7438,250.7656 Q30.3531,249.6719 31.4,249.0938 Q32.4625,248.5 33.65,248.5 Q34.3688,248.5 34.9938,248.75 Q35.6188,249 36.15,249.5 Z " fill="#000000"/><text fill="#000000" font-family="sans-serif" font-size="12" lengthAdjust="spacing" textLength="53" x="50.85" y="257.9102">Company</text><line style="stroke:#A80036;stroke-width:1.5;" x1="8" x2="118" y1="269" y2="269"/><line style="stroke:#A80036;stroke-width:1.5;" x1="8" x2="118" y1="277" y2="277"/><ellipse cx="18" cy="288" fill="#84BE84" rx="3" ry="3" style="stroke:#038048;stroke-width:1.0;"/><text fill="#000000" font-family="sans-serif" font-size="11" lengthAdjust="spacing" textLength="86" x="27" y="292.4189">getIdleShipStore()</text><!--MD5=[04f2f39fd49ecfbcaaa16a88877fe3a8]
class IdleShipStore--><rect codeLine="12" fill="#FEFECE" filter="url(#fe3hyee5bdqge)" height="61.8359" id="IdleShipStore" style="stroke:#A80036;stroke-width:1.5;" width="112" x="61" y="359"/><ellipse cx="78.7" cy="375" fill="#ADD1B2" rx="11" ry="11" style="stroke:#A80036;stroke-width:1.0;"/><path d="M80.7,371.5 Q80.9031,371 81.1375,370.75 Q81.3719,370.5 81.6375,370.5 Q82.1063,370.5 82.4031,370.7813 Q82.7,371.0625 82.7,371.7188 L82.7,373.2813 Q82.7,373.9375 82.4188,374.2188 Q82.1375,374.5 81.7,374.5 Q81.3094,374.5 81.0594,374.3281 Q80.8094,374.1563 80.7,373.7031 Q80.6531,373.3906 80.4813,373.2188 Q80.1688,372.8906 79.6063,372.7031 Q79.0438,372.5 78.4813,372.5 Q77.7781,372.5 77.1844,372.7813 Q76.6063,373.0625 76.1531,373.6875 Q75.7,374.3125 75.7,375.1719 L75.7,376.0938 Q75.7,377.125 76.5438,377.8125 Q77.3875,378.5 78.8875,378.5 Q79.7781,378.5 80.4031,378.2969 Q80.7625,378.1875 81.1688,377.8281 Q81.4344,377.625 81.575,377.5625 Q81.7156,377.5 81.8875,377.5 Q82.2156,377.5 82.45,377.7656 Q82.7,378.0156 82.7,378.375 Q82.7,378.7188 82.3563,379.125 Q81.8563,379.7188 81.0594,380.0469 Q80.0125,380.5 78.7313,380.5 Q77.2313,380.5 76.0281,379.9063 Q75.0594,379.4375 74.3719,378.4219 Q73.7,377.4063 73.7,376.2031 L73.7,375.1094 Q73.7,373.8594 74.2938,372.7656 Q74.9031,371.6719 75.95,371.0938 Q77.0125,370.5 78.2,370.5 Q78.9188,370.5 79.5438,370.75 Q80.1688,371 80.7,371.5 Z " fill="#000000"/><text fill="#000000" font-family="sans-serif" font-size="12" lengthAdjust="spacing" textLength="74" x="93.3" y="379.9102">IdleShipStore</text><line style="stroke:#A80036;stroke-width:1.5;" x1="62" x2="172" y1="391" y2="391"/><line style="stroke:#A80036;stroke-width:1.5;" x1="62" x2="172" y1="399" y2="399"/><ellipse cx="72" cy="410" fill="#84BE84" rx="3" ry="3" style="stroke:#038048;stroke-width:1.0;"/><text fill="#000000" font-family="sans-serif" font-size="11" lengthAdjust="spacing" textLength="86" x="81" y="414.4189">getIdleShipStore()</text><!--MD5=[60348de9331d208ee05d3398f3ac8568]
link IdleShipUI to IdleShipController--><path codeLine="16" d="M117,55.14 C117,70.71 117,91.53 117,109.22 " fill="none" id="IdleShipUI-to-IdleShipController" style="stroke:#A80036;stroke-width:1.0;stroke-dasharray:7.0,7.0;"/><polygon fill="#A80036" points="117,114.6,121,105.6,117,109.6,113,105.6,117,114.6" style="stroke:#A80036;stroke-width:1.0;"/><!--MD5=[a270d1a9d4ab77f7af94aa8fda099fab]
link IdleShipController to IdleShipStore--><path codeLine="17" d="M125.43,177.13 C129.84,194.49 134.78,216.79 137,237 C140.01,264.39 140.01,271.61 137,299 C134.99,317.31 130.74,337.35 126.68,353.86 " fill="none" id="IdleShipController-to-IdleShipStore" style="stroke:#A80036;stroke-width:1.0;stroke-dasharray:7.0,7.0;"/><polygon fill="#A80036" points="125.43,358.87,131.4934,351.1089,126.6427,354.0193,123.7323,349.1686,125.43,358.87" style="stroke:#A80036;stroke-width:1.0;"/><!--MD5=[19cc6bff00aa2c7bbeb44a902ff48de4]
link IdleShipController to Company--><path codeLine="18" d="M103.37,177.28 C95.89,193.91 86.58,214.61 78.78,231.94 " fill="none" id="IdleShipController-to-Company" style="stroke:#A80036;stroke-width:1.0;stroke-dasharray:7.0,7.0;"/><polygon fill="#A80036" points="76.62,236.73,83.9687,230.1728,78.6772,232.1728,76.6771,226.8813,76.62,236.73" style="stroke:#A80036;stroke-width:1.0;"/><!--MD5=[63045d2d076cea077cac10c6f04046b4]
link Company to IdleShipStore--><path codeLine="19" d="M76.63,299.28 C84.11,315.91 93.42,336.61 101.22,353.94 " fill="none" id="Company-to-IdleShipStore" style="stroke:#A80036;stroke-width:1.0;"/><polygon fill="#A80036" points="103.38,358.73,103.3229,348.8813,101.3228,354.1728,96.0313,352.1728,103.38,358.73" style="stroke:#A80036;stroke-width:1.0;"/><!--MD5=[126988bd25fc27bc6db085fb69234d32]
@startuml
class IdleShipUI{
}

class IdleShipController{
+getIdleShip()
}

class Company{
+getIdleShipStore()
}

class IdleShipStore{
+getIdleShipStore()
}

IdleShipUI ..> IdleShipController
IdleShipController ..> IdleShipStore
IdleShipController ..> Company
Company - -> IdleShipStore



@enduml

PlantUML version 1.2021.11(Sat Oct 02 14:26:11 BST 2021)
(GPL source distribution)
Java Runtime: OpenJDK Runtime Environment
JVM: OpenJDK 64-Bit Server VM
Default Encoding: Cp1252
Language: pt
Country: PT
--></g></svg>