<?xml version="1.0" encoding="UTF-8" standalone="no"?><svg xmlns="http://www.w3.org/2000/svg" xmlns:xlink="http://www.w3.org/1999/xlink" contentScriptType="application/ecmascript" contentStyleType="text/css" height="407px" preserveAspectRatio="none" style="width:1050px;height:407px;background:#FFFFFF;" version="1.1" viewBox="0 0 1050 407" width="1050px" zoomAndPan="magnify"><defs><filter height="300%" id="feyv2a38anrp5" width="300%" x="-1" y="-1"><feGaussianBlur result="blurOut" stdDeviation="2.0"/><feColorMatrix in="blurOut" result="blurOut2" type="matrix" values="0 0 0 0 0 0 0 0 0 0 0 0 0 0 0 0 0 0 .4 0"/><feOffset dx="4.0" dy="4.0" in="blurOut2" result="blurOut3"/><feBlend in="SourceGraphic" in2="blurOut3" mode="normal"/></filter></defs><g><rect fill="#FFFFFF" filter="url(#feyv2a38anrp5)" height="213.4609" style="stroke:#A80036;stroke-width:1.0;" width="10" x="49" y="99.6094"/><rect fill="#FFFFFF" filter="url(#feyv2a38anrp5)" height="121.4063" style="stroke:#A80036;stroke-width:1.0;" width="10" x="714" y="152.3125"/><rect fill="#FFFFFF" filter="url(#feyv2a38anrp5)" height="30.3516" style="stroke:#A80036;stroke-width:1.0;" width="10" x="826" y="182.6641"/><rect fill="#FFFFFF" filter="url(#feyv2a38anrp5)" height="30.3516" style="stroke:#A80036;stroke-width:1.0;" width="10" x="1008" y="213.0156"/><line style="stroke:#A80036;stroke-width:1.0;stroke-dasharray:5.0,5.0;" x1="54" x2="54" y1="89.6094" y2="322.0703"/><line style="stroke:#A80036;stroke-width:1.0;stroke-dasharray:5.0,5.0;" x1="542" x2="542" y1="89.6094" y2="322.0703"/><line style="stroke:#A80036;stroke-width:1.0;stroke-dasharray:5.0,5.0;" x1="719" x2="719" y1="89.6094" y2="322.0703"/><line style="stroke:#A80036;stroke-width:1.0;stroke-dasharray:5.0,5.0;" x1="831" x2="831" y1="89.6094" y2="322.0703"/><line style="stroke:#A80036;stroke-width:1.0;stroke-dasharray:5.0,5.0;" x1="1013" x2="1013" y1="89.6094" y2="322.0703"/><text fill="#000000" font-family="sans-serif" font-size="14" lengthAdjust="spacing" textLength="92" x="5" y="86.5332">Fleet Manager</text><ellipse cx="54" cy="15" fill="#FEFECE" filter="url(#feyv2a38anrp5)" rx="8" ry="8" style="stroke:#A80036;stroke-width:2.0;"/><path d="M54,23 L54,50 M41,31 L67,31 M54,50 L41,65 M54,50 L67,65 " fill="none" filter="url(#feyv2a38anrp5)" style="stroke:#A80036;stroke-width:2.0;"/><text fill="#000000" font-family="sans-serif" font-size="14" lengthAdjust="spacing" textLength="92" x="5" y="335.6035">Fleet Manager</text><ellipse cx="54" cy="348.6797" fill="#FEFECE" filter="url(#feyv2a38anrp5)" rx="8" ry="8" style="stroke:#A80036;stroke-width:2.0;"/><path d="M54,356.6797 L54,383.6797 M41,364.6797 L67,364.6797 M54,383.6797 L41,398.6797 M54,383.6797 L67,398.6797 " fill="none" filter="url(#feyv2a38anrp5)" style="stroke:#A80036;stroke-width:2.0;"/><rect fill="#FEFECE" filter="url(#feyv2a38anrp5)" height="31.6094" style="stroke:#A80036;stroke-width:1.5;" width="30" x="525" y="53"/><text fill="#000000" font-family="sans-serif" font-size="14" lengthAdjust="spacing" textLength="16" x="532" y="74.5332">:UI</text><rect fill="#FEFECE" filter="url(#feyv2a38anrp5)" height="31.6094" style="stroke:#A80036;stroke-width:1.5;" width="30" x="525" y="321.0703"/><text fill="#000000" font-family="sans-serif" font-size="14" lengthAdjust="spacing" textLength="16" x="532" y="342.6035">:UI</text><rect fill="#FEFECE" filter="url(#feyv2a38anrp5)" height="31.6094" style="stroke:#A80036;stroke-width:1.5;" width="80" x="677" y="53"/><text fill="#000000" font-family="sans-serif" font-size="14" lengthAdjust="spacing" textLength="66" x="684" y="74.5332">:Controller</text><rect fill="#FEFECE" filter="url(#feyv2a38anrp5)" height="31.6094" style="stroke:#A80036;stroke-width:1.5;" width="80" x="677" y="321.0703"/><text fill="#000000" font-family="sans-serif" font-size="14" lengthAdjust="spacing" textLength="66" x="684" y="342.6035">:Controller</text><rect fill="#FEFECE" filter="url(#feyv2a38anrp5)" height="31.6094" style="stroke:#A80036;stroke-width:1.5;" width="78" x="790" y="53"/><text fill="#000000" font-family="sans-serif" font-size="14" lengthAdjust="spacing" textLength="64" x="797" y="74.5332">:IdleShip()</text><rect fill="#FEFECE" filter="url(#feyv2a38anrp5)" height="31.6094" style="stroke:#A80036;stroke-width:1.5;" width="78" x="790" y="321.0703"/><text fill="#000000" font-family="sans-serif" font-size="14" lengthAdjust="spacing" textLength="64" x="797" y="342.6035">:IdleShip()</text><text fill="#000000" font-family="sans-serif" font-size="14" lengthAdjust="spacing" textLength="66" x="977" y="86.5332">:DataBase</text><path d="M995,36 C995,26 1013,26 1013,26 C1013,26 1031,26 1031,36 L1031,62 C1031,72 1013,72 1013,72 C1013,72 995,72 995,62 L995,36 " fill="#FEFECE" filter="url(#feyv2a38anrp5)" style="stroke:#000000;stroke-width:1.5;"/><path d="M995,36 C995,46 1013,46 1013,46 C1013,46 1031,46 1031,36 " fill="none" style="stroke:#000000;stroke-width:1.5;"/><text fill="#000000" font-family="sans-serif" font-size="14" lengthAdjust="spacing" textLength="66" x="977" y="335.6035">:DataBase</text><path d="M995,348.6797 C995,338.6797 1013,338.6797 1013,338.6797 C1013,338.6797 1031,338.6797 1031,348.6797 L1031,374.6797 C1031,384.6797 1013,384.6797 1013,384.6797 C1013,384.6797 995,384.6797 995,374.6797 L995,348.6797 " fill="#FEFECE" filter="url(#feyv2a38anrp5)" style="stroke:#000000;stroke-width:1.5;"/><path d="M995,348.6797 C995,358.6797 1013,358.6797 1013,358.6797 C1013,358.6797 1031,358.6797 1031,348.6797 " fill="none" style="stroke:#000000;stroke-width:1.5;"/><rect fill="#FFFFFF" filter="url(#feyv2a38anrp5)" height="213.4609" style="stroke:#A80036;stroke-width:1.0;" width="10" x="49" y="99.6094"/><rect fill="#FFFFFF" filter="url(#feyv2a38anrp5)" height="121.4063" style="stroke:#A80036;stroke-width:1.0;" width="10" x="714" y="152.3125"/><rect fill="#FFFFFF" filter="url(#feyv2a38anrp5)" height="30.3516" style="stroke:#A80036;stroke-width:1.0;" width="10" x="826" y="182.6641"/><rect fill="#FFFFFF" filter="url(#feyv2a38anrp5)" height="30.3516" style="stroke:#A80036;stroke-width:1.0;" width="10" x="1008" y="213.0156"/><polygon fill="#A80036" points="530,117.9609,540,121.9609,530,125.9609,534,121.9609" style="stroke:#A80036;stroke-width:1.0;"/><line style="stroke:#A80036;stroke-width:1.0;" x1="59" x2="536" y1="121.9609" y2="121.9609"/><text fill="#000000" font-family="sans-serif" font-size="13" font-weight="bold" lengthAdjust="spacing" textLength="7" x="66" y="117.1045">1</text><text fill="#000000" font-family="sans-serif" font-size="13" lengthAdjust="spacing" textLength="448" x="77" y="117.1045">Asks to see the number of a days the ships have been idle in the current year</text><polygon fill="#A80036" points="702,148.3125,712,152.3125,702,156.3125,706,152.3125" style="stroke:#A80036;stroke-width:1.0;"/><line style="stroke:#A80036;stroke-width:1.0;" x1="542" x2="708" y1="152.3125" y2="152.3125"/><text fill="#000000" font-family="sans-serif" font-size="13" font-weight="bold" lengthAdjust="spacing" textLength="7" x="549" y="147.4561">2</text><text fill="#000000" font-family="sans-serif" font-size="13" lengthAdjust="spacing" textLength="72" x="560" y="147.4561">getIdleShip()</text><polygon fill="#A80036" points="814,178.6641,824,182.6641,814,186.6641,818,182.6641" style="stroke:#A80036;stroke-width:1.0;"/><line style="stroke:#A80036;stroke-width:1.0;" x1="724" x2="820" y1="182.6641" y2="182.6641"/><text fill="#000000" font-family="sans-serif" font-size="13" font-weight="bold" lengthAdjust="spacing" textLength="7" x="731" y="177.8076">3</text><text fill="#000000" font-family="sans-serif" font-size="13" lengthAdjust="spacing" textLength="72" x="742" y="177.8076">getIdleShip()</text><polygon fill="#A80036" points="996,209.0156,1006,213.0156,996,217.0156,1000,213.0156" style="stroke:#A80036;stroke-width:1.0;"/><line style="stroke:#A80036;stroke-width:1.0;" x1="831" x2="1002" y1="213.0156" y2="213.0156"/><text fill="#000000" font-family="sans-serif" font-size="13" font-weight="bold" lengthAdjust="spacing" textLength="7" x="838" y="208.1592">4</text><text fill="#000000" font-family="sans-serif" font-size="13" lengthAdjust="spacing" textLength="142" x="849" y="208.1592">query to find all the days</text><polygon fill="#A80036" points="735,239.3672,725,243.3672,735,247.3672,731,243.3672" style="stroke:#A80036;stroke-width:1.0;"/><line style="stroke:#A80036;stroke-width:1.0;stroke-dasharray:2.0,2.0;" x1="729" x2="1012" y1="243.3672" y2="243.3672"/><text fill="#000000" font-family="sans-serif" font-size="13" font-weight="bold" lengthAdjust="spacing" textLength="7" x="741" y="238.5107">5</text><text fill="#000000" font-family="sans-serif" font-size="13" lengthAdjust="spacing" textLength="137" x="752" y="238.5107">return the days per ship</text><polygon fill="#A80036" points="553,269.7188,543,273.7188,553,277.7188,549,273.7188" style="stroke:#A80036;stroke-width:1.0;"/><line style="stroke:#A80036;stroke-width:1.0;stroke-dasharray:2.0,2.0;" x1="547" x2="718" y1="273.7188" y2="273.7188"/><text fill="#000000" font-family="sans-serif" font-size="13" font-weight="bold" lengthAdjust="spacing" textLength="7" x="559" y="268.8623">6</text><text fill="#000000" font-family="sans-serif" font-size="13" lengthAdjust="spacing" textLength="137" x="570" y="268.8623">return the days per ship</text><polygon fill="#A80036" points="70,300.0703,60,304.0703,70,308.0703,66,304.0703" style="stroke:#A80036;stroke-width:1.0;"/><line style="stroke:#A80036;stroke-width:1.0;stroke-dasharray:2.0,2.0;" x1="64" x2="541" y1="304.0703" y2="304.0703"/><text fill="#000000" font-family="sans-serif" font-size="13" font-weight="bold" lengthAdjust="spacing" textLength="7" x="76" y="299.2139">7</text><text fill="#000000" font-family="sans-serif" font-size="13" lengthAdjust="spacing" textLength="232" x="87" y="299.2139">Show the days that a ship has been idle</text><!--MD5=[0675575ccf07bad75f4f412622698f16]
@startuml
autonumber
actor "Fleet Manager" as ADM

participant ":UI" as ui
participant ":Controller" as ctrl
participant ":IdleShip()" as model
database ":DataBase" as db


activate ADM
ADM -> ui : Asks to see the number of a days the ships have been idle in the current year




ui -> ctrl : getIdleShip()
activate ctrl
ctrl -> model : getIdleShip()
activate model
model -> db : query to find all the days
deactivate model
activate db
db - -> ctrl : return the days per ship
deactivate db
ctrl - -> ui : return the days per ship
deactivate ctrl
ui - -> ADM : Show the days that a ship has been idle

deactivate ui

@enduml

PlantUML version 1.2021.11(Sat Oct 02 14:26:11 BST 2021)
(GPL source distribution)
Java Runtime: OpenJDK Runtime Environment
JVM: OpenJDK 64-Bit Server VM
Default Encoding: Cp1252
Language: pt
Country: PT
--></g></svg>