<?xml version="1.0" encoding="UTF-8" standalone="no"?><svg xmlns="http://www.w3.org/2000/svg" xmlns:xlink="http://www.w3.org/1999/xlink" contentScriptType="application/ecmascript" contentStyleType="text/css" height="318px" preserveAspectRatio="none" style="width:463px;height:318px;background:#FFFFFF;" version="1.1" viewBox="0 0 463 318" width="463px" zoomAndPan="magnify"><defs><filter height="300%" id="foi3gb86vosgq" width="300%" x="-1" y="-1"><feGaussianBlur result="blurOut" stdDeviation="2.0"/><feColorMatrix in="blurOut" result="blurOut2" type="matrix" values="0 0 0 0 0 0 0 0 0 0 0 0 0 0 0 0 0 0 .4 0"/><feOffset dx="4.0" dy="4.0" in="blurOut2" result="blurOut3"/><feBlend in="SourceGraphic" in2="blurOut3" mode="normal"/></filter></defs><g><!--MD5=[02e4b9b7573f1156f41e60aa5b4e25a4]
class Company--><rect codeLine="3" fill="#FEFECE" filter="url(#foi3gb86vosgq)" height="61.8359" id="Company" style="stroke:#A80036;stroke-width:1.5;" width="85" x="7" y="124.5"/><ellipse cx="22" cy="140.5" fill="#ADD1B2" rx="11" ry="11" style="stroke:#A80036;stroke-width:1.0;"/><path d="M24,137 Q24.2031,136.5 24.4375,136.25 Q24.6719,136 24.9375,136 Q25.4063,136 25.7031,136.2813 Q26,136.5625 26,137.2188 L26,138.7813 Q26,139.4375 25.7188,139.7188 Q25.4375,140 25,140 Q24.6094,140 24.3594,139.8281 Q24.1094,139.6563 24,139.2031 Q23.9531,138.8906 23.7813,138.7188 Q23.4688,138.3906 22.9063,138.2031 Q22.3438,138 21.7813,138 Q21.0781,138 20.4844,138.2813 Q19.9063,138.5625 19.4531,139.1875 Q19,139.8125 19,140.6719 L19,141.5938 Q19,142.625 19.8438,143.3125 Q20.6875,144 22.1875,144 Q23.0781,144 23.7031,143.7969 Q24.0625,143.6875 24.4688,143.3281 Q24.7344,143.125 24.875,143.0625 Q25.0156,143 25.1875,143 Q25.5156,143 25.75,143.2656 Q26,143.5156 26,143.875 Q26,144.2188 25.6563,144.625 Q25.1563,145.2188 24.3594,145.5469 Q23.3125,146 22.0313,146 Q20.5313,146 19.3281,145.4063 Q18.3594,144.9375 17.6719,143.9219 Q17,142.9063 17,141.7031 L17,140.6094 Q17,139.3594 17.5938,138.2656 Q18.2031,137.1719 19.25,136.5938 Q20.3125,136 21.5,136 Q22.2188,136 22.8438,136.25 Q23.4688,136.5 24,137 Z " fill="#000000"/><text fill="#000000" font-family="sans-serif" font-size="12" lengthAdjust="spacing" textLength="53" x="36" y="145.4102">Company</text><line style="stroke:#A80036;stroke-width:1.5;" x1="8" x2="91" y1="156.5" y2="156.5"/><rect fill="none" height="6" style="stroke:#C82930;stroke-width:1.0;" width="6" x="15" y="164.5"/><text fill="#000000" font-family="sans-serif" font-size="11" lengthAdjust="spacing" textLength="26" x="27" y="171.9189">name</text><line style="stroke:#A80036;stroke-width:1.5;" x1="8" x2="91" y1="178.3359" y2="178.3359"/><!--MD5=[0dc7f2ddb409b58bcf52b12238c25399]
class Ship--><rect codeLine="7" fill="#FEFECE" filter="url(#foi3gb86vosgq)" height="297.0469" id="Ship" style="stroke:#A80036;stroke-width:1.5;" width="113" x="175" y="7"/><ellipse cx="215.2" cy="23" fill="#ADD1B2" rx="11" ry="11" style="stroke:#A80036;stroke-width:1.0;"/><path d="M217.2,19.5 Q217.4031,19 217.6375,18.75 Q217.8719,18.5 218.1375,18.5 Q218.6063,18.5 218.9031,18.7813 Q219.2,19.0625 219.2,19.7188 L219.2,21.2813 Q219.2,21.9375 218.9188,22.2188 Q218.6375,22.5 218.2,22.5 Q217.8094,22.5 217.5594,22.3281 Q217.3094,22.1563 217.2,21.7031 Q217.1531,21.3906 216.9813,21.2188 Q216.6688,20.8906 216.1063,20.7031 Q215.5438,20.5 214.9813,20.5 Q214.2781,20.5 213.6844,20.7813 Q213.1063,21.0625 212.6531,21.6875 Q212.2,22.3125 212.2,23.1719 L212.2,24.0938 Q212.2,25.125 213.0438,25.8125 Q213.8875,26.5 215.3875,26.5 Q216.2781,26.5 216.9031,26.2969 Q217.2625,26.1875 217.6688,25.8281 Q217.9344,25.625 218.075,25.5625 Q218.2156,25.5 218.3875,25.5 Q218.7156,25.5 218.95,25.7656 Q219.2,26.0156 219.2,26.375 Q219.2,26.7188 218.8563,27.125 Q218.3563,27.7188 217.5594,28.0469 Q216.5125,28.5 215.2313,28.5 Q213.7313,28.5 212.5281,27.9063 Q211.5594,27.4375 210.8719,26.4219 Q210.2,25.4063 210.2,24.2031 L210.2,23.1094 Q210.2,21.8594 210.7938,20.7656 Q211.4031,19.6719 212.45,19.0938 Q213.5125,18.5 214.7,18.5 Q215.4188,18.5 216.0438,18.75 Q216.6688,19 217.2,19.5 Z " fill="#000000"/><text fill="#000000" font-family="sans-serif" font-size="12" lengthAdjust="spacing" textLength="25" x="234.8" y="27.9102">Ship</text><line style="stroke:#A80036;stroke-width:1.5;" x1="176" x2="287" y1="39" y2="39"/><rect fill="none" height="6" style="stroke:#C82930;stroke-width:1.0;" width="6" x="183" y="47"/><text fill="#000000" font-family="sans-serif" font-size="11" lengthAdjust="spacing" textLength="24" x="195" y="54.4189">mmsi</text><rect fill="none" height="6" style="stroke:#C82930;stroke-width:1.0;" width="6" x="183" y="60.8359"/><text fill="#000000" font-family="sans-serif" font-size="11" lengthAdjust="spacing" textLength="16" x="195" y="68.2549">imo</text><rect fill="none" height="6" style="stroke:#C82930;stroke-width:1.0;" width="6" x="183" y="74.6719"/><text fill="#000000" font-family="sans-serif" font-size="11" lengthAdjust="spacing" textLength="65" x="195" y="82.0908">n_generators</text><rect fill="none" height="6" style="stroke:#C82930;stroke-width:1.0;" width="6" x="183" y="88.5078"/><text fill="#000000" font-family="sans-serif" font-size="11" lengthAdjust="spacing" textLength="29" x="195" y="95.9268">length</text><rect fill="none" height="6" style="stroke:#C82930;stroke-width:1.0;" width="6" x="183" y="102.3438"/><text fill="#000000" font-family="sans-serif" font-size="11" lengthAdjust="spacing" textLength="27" x="195" y="109.7627">width</text><rect fill="none" height="6" style="stroke:#C82930;stroke-width:1.0;" width="6" x="183" y="116.1797"/><text fill="#000000" font-family="sans-serif" font-size="11" lengthAdjust="spacing" textLength="65" x="195" y="123.5986">p_generators</text><rect fill="none" height="6" style="stroke:#C82930;stroke-width:1.0;" width="6" x="183" y="130.0156"/><text fill="#000000" font-family="sans-serif" font-size="11" lengthAdjust="spacing" textLength="41" x="195" y="137.4346">capacity</text><rect fill="none" height="6" style="stroke:#C82930;stroke-width:1.0;" width="6" x="183" y="143.8516"/><text fill="#000000" font-family="sans-serif" font-size="11" lengthAdjust="spacing" textLength="52" x="195" y="151.2705">ship_name</text><rect fill="none" height="6" style="stroke:#C82930;stroke-width:1.0;" width="6" x="183" y="157.6875"/><text fill="#000000" font-family="sans-serif" font-size="11" lengthAdjust="spacing" textLength="59" x="195" y="165.1064">vessel_type</text><rect fill="none" height="6" style="stroke:#C82930;stroke-width:1.0;" width="6" x="183" y="171.5234"/><text fill="#000000" font-family="sans-serif" font-size="11" lengthAdjust="spacing" textLength="42" x="195" y="178.9424">call_sign</text><rect fill="none" height="6" style="stroke:#C82930;stroke-width:1.0;" width="6" x="183" y="185.3594"/><text fill="#000000" font-family="sans-serif" font-size="11" lengthAdjust="spacing" textLength="23" x="195" y="192.7783">draft</text><rect fill="none" height="6" style="stroke:#C82930;stroke-width:1.0;" width="6" x="183" y="199.1953"/><text fill="#000000" font-family="sans-serif" font-size="11" lengthAdjust="spacing" textLength="46" x="195" y="206.6143">date_time</text><rect fill="none" height="6" style="stroke:#C82930;stroke-width:1.0;" width="6" x="183" y="213.0313"/><text fill="#000000" font-family="sans-serif" font-size="11" lengthAdjust="spacing" textLength="34" x="195" y="220.4502">latitude</text><rect fill="none" height="6" style="stroke:#C82930;stroke-width:1.0;" width="6" x="183" y="226.8672"/><text fill="#000000" font-family="sans-serif" font-size="11" lengthAdjust="spacing" textLength="43" x="195" y="234.2861">longitude</text><rect fill="none" height="6" style="stroke:#C82930;stroke-width:1.0;" width="6" x="183" y="240.7031"/><text fill="#000000" font-family="sans-serif" font-size="11" lengthAdjust="spacing" textLength="18" x="195" y="248.1221">sog</text><rect fill="none" height="6" style="stroke:#C82930;stroke-width:1.0;" width="6" x="183" y="254.5391"/><text fill="#000000" font-family="sans-serif" font-size="11" lengthAdjust="spacing" textLength="18" x="195" y="261.958">cog</text><rect fill="none" height="6" style="stroke:#C82930;stroke-width:1.0;" width="6" x="183" y="268.375"/><text fill="#000000" font-family="sans-serif" font-size="11" lengthAdjust="spacing" textLength="38" x="195" y="275.7939">heading</text><rect fill="none" height="6" style="stroke:#C82930;stroke-width:1.0;" width="6" x="183" y="282.2109"/><text fill="#000000" font-family="sans-serif" font-size="11" lengthAdjust="spacing" textLength="87" x="195" y="289.6299">transceiver_class</text><line style="stroke:#A80036;stroke-width:1.5;" x1="176" x2="287" y1="296.0469" y2="296.0469"/><!--MD5=[bc6d56fff33115396b36caccb440b7b0]
class Manifest--><rect codeLine="28" fill="#FEFECE" filter="url(#foi3gb86vosgq)" height="89.5078" id="Manifest" style="stroke:#A80036;stroke-width:1.5;" width="78" x="371" y="110.5"/><ellipse cx="386" cy="126.5" fill="#ADD1B2" rx="11" ry="11" style="stroke:#A80036;stroke-width:1.0;"/><path d="M388,123 Q388.2031,122.5 388.4375,122.25 Q388.6719,122 388.9375,122 Q389.4063,122 389.7031,122.2813 Q390,122.5625 390,123.2188 L390,124.7813 Q390,125.4375 389.7188,125.7188 Q389.4375,126 389,126 Q388.6094,126 388.3594,125.8281 Q388.1094,125.6563 388,125.2031 Q387.9531,124.8906 387.7813,124.7188 Q387.4688,124.3906 386.9063,124.2031 Q386.3438,124 385.7813,124 Q385.0781,124 384.4844,124.2813 Q383.9063,124.5625 383.4531,125.1875 Q383,125.8125 383,126.6719 L383,127.5938 Q383,128.625 383.8438,129.3125 Q384.6875,130 386.1875,130 Q387.0781,130 387.7031,129.7969 Q388.0625,129.6875 388.4688,129.3281 Q388.7344,129.125 388.875,129.0625 Q389.0156,129 389.1875,129 Q389.5156,129 389.75,129.2656 Q390,129.5156 390,129.875 Q390,130.2188 389.6563,130.625 Q389.1563,131.2188 388.3594,131.5469 Q387.3125,132 386.0313,132 Q384.5313,132 383.3281,131.4063 Q382.3594,130.9375 381.6719,129.9219 Q381,128.9063 381,127.7031 L381,126.6094 Q381,125.3594 381.5938,124.2656 Q382.2031,123.1719 383.25,122.5938 Q384.3125,122 385.5,122 Q386.2188,122 386.8438,122.25 Q387.4688,122.5 388,123 Z " fill="#000000"/><text fill="#000000" font-family="sans-serif" font-size="12" lengthAdjust="spacing" textLength="46" x="400" y="131.4102">Manifest</text><line style="stroke:#A80036;stroke-width:1.5;" x1="372" x2="448" y1="142.5" y2="142.5"/><rect fill="none" height="6" style="stroke:#C82930;stroke-width:1.0;" width="6" x="379" y="150.5"/><text fill="#000000" font-family="sans-serif" font-size="11" lengthAdjust="spacing" textLength="21" x="391" y="157.9189">date</text><rect fill="none" height="6" style="stroke:#C82930;stroke-width:1.0;" width="6" x="379" y="164.3359"/><text fill="#000000" font-family="sans-serif" font-size="11" lengthAdjust="spacing" textLength="28" x="391" y="171.7549">gross</text><rect fill="none" height="6" style="stroke:#C82930;stroke-width:1.0;" width="6" x="379" y="178.1719"/><text fill="#000000" font-family="sans-serif" font-size="11" lengthAdjust="spacing" textLength="37" x="391" y="185.5908">position</text><line style="stroke:#A80036;stroke-width:1.5;" x1="372" x2="448" y1="192.0078" y2="192.0078"/><!--MD5=[37a14a5de6d6fd738aee271300f4b5c8]
link Company to Ship--><path codeLine="34" d="M92.25,155.5 C116.86,155.5 148.31,155.5 174.99,155.5 " fill="none" id="Company-Ship" style="stroke:#A80036;stroke-width:1.0;"/><text fill="#000000" font-family="sans-serif" font-size="13" lengthAdjust="spacing" textLength="21" x="123" y="151.9951">has</text><text fill="#000000" font-family="sans-serif" font-size="13" lengthAdjust="spacing" textLength="7" x="99.9102" y="170.3628">1</text><text fill="#000000" font-family="sans-serif" font-size="13" lengthAdjust="spacing" textLength="5" x="162.0605" y="170.0906">*</text><!--MD5=[bf3ea1a9851801edc53195a9e0780a16]
link Ship to Manifest--><path codeLine="35" d="M288.35,155.5 C315.21,155.5 346.73,155.5 370.81,155.5 " fill="none" id="Ship-Manifest" style="stroke:#A80036;stroke-width:1.0;"/><text fill="#000000" font-family="sans-serif" font-size="13" lengthAdjust="spacing" textLength="21" x="319" y="151.9951">has</text><text fill="#000000" font-family="sans-serif" font-size="13" lengthAdjust="spacing" textLength="7" x="296.0823" y="170.0396">1</text><text fill="#000000" font-family="sans-serif" font-size="13" lengthAdjust="spacing" textLength="5" x="358.1234" y="170.5479">*</text><!--MD5=[b12f6db78fbc74f790874ed9d08beeaa]
@startuml
left to right direction

class Company{
    -name
}

class Ship {
    -mmsi
    -imo
    -n_generators
    -length
    -width
    -p_generators
    -capacity
    -ship_name
    -vessel_type
    -call_sign
    -draft
    -date_time
    -latitude
    -longitude
    -sog
    -cog
    -heading
    -transceiver_class
}

class Manifest {
    -date
    -gross
    -position
}

Company "1" - -  "*" Ship : has
Ship "1" - -  "*" Manifest : has

@enduml

PlantUML version 1.2021.11(Sat Oct 02 14:26:11 BST 2021)
(GPL source distribution)
Java Runtime: OpenJDK Runtime Environment
JVM: OpenJDK 64-Bit Server VM
Default Encoding: Cp1252
Language: pt
Country: PT
--></g></svg>