<?xml version="1.0" encoding="UTF-8" standalone="no"?><svg xmlns="http://www.w3.org/2000/svg" xmlns:xlink="http://www.w3.org/1999/xlink" contentScriptType="application/ecmascript" contentStyleType="text/css" height="438px" preserveAspectRatio="none" style="width:899px;height:438px;background:#FFFFFF;" version="1.1" viewBox="0 0 899 438" width="899px" zoomAndPan="magnify"><defs><filter height="300%" id="f1ez7rvgy7t776" width="300%" x="-1" y="-1"><feGaussianBlur result="blurOut" stdDeviation="2.0"/><feColorMatrix in="blurOut" result="blurOut2" type="matrix" values="0 0 0 0 0 0 0 0 0 0 0 0 0 0 0 0 0 0 .4 0"/><feOffset dx="4.0" dy="4.0" in="blurOut2" result="blurOut3"/><feBlend in="SourceGraphic" in2="blurOut3" mode="normal"/></filter></defs><g><rect fill="#FFFFFF" filter="url(#f1ez7rvgy7t776)" height="243.8125" style="stroke:#A80036;stroke-width:1.0;" width="10" x="53" y="99.6094"/><rect fill="#FFFFFF" filter="url(#f1ez7rvgy7t776)" height="221.4609" style="stroke:#A80036;stroke-width:1.0;" width="10" x="292" y="121.9609"/><rect fill="#FFFFFF" filter="url(#f1ez7rvgy7t776)" height="191.1094" style="stroke:#A80036;stroke-width:1.0;" width="10" x="472" y="152.3125"/><rect fill="#FFFFFF" filter="url(#f1ez7rvgy7t776)" height="160.7578" style="stroke:#A80036;stroke-width:1.0;" width="10" x="643" y="182.6641"/><rect fill="#FFFFFF" filter="url(#f1ez7rvgy7t776)" height="130.4063" style="stroke:#A80036;stroke-width:1.0;" width="10" x="814" y="213.0156"/><line style="stroke:#A80036;stroke-width:1.0;stroke-dasharray:5.0,5.0;" x1="58" x2="58" y1="89.6094" y2="352.4219"/><line style="stroke:#A80036;stroke-width:1.0;stroke-dasharray:5.0,5.0;" x1="297" x2="297" y1="89.6094" y2="352.4219"/><line style="stroke:#A80036;stroke-width:1.0;stroke-dasharray:5.0,5.0;" x1="476.5" x2="476.5" y1="89.6094" y2="352.4219"/><line style="stroke:#A80036;stroke-width:1.0;stroke-dasharray:5.0,5.0;" x1="648" x2="648" y1="89.6094" y2="352.4219"/><line style="stroke:#A80036;stroke-width:1.0;stroke-dasharray:5.0,5.0;" x1="818.5" x2="818.5" y1="89.6094" y2="352.4219"/><text fill="#000000" font-family="sans-serif" font-size="14" lengthAdjust="spacing" textLength="100" x="5" y="86.5332">Traffic Manager</text><ellipse cx="58" cy="15" fill="#FEFECE" filter="url(#f1ez7rvgy7t776)" rx="8" ry="8" style="stroke:#A80036;stroke-width:2.0;"/><path d="M58,23 L58,50 M45,31 L71,31 M58,50 L45,65 M58,50 L71,65 " fill="none" filter="url(#f1ez7rvgy7t776)" style="stroke:#A80036;stroke-width:2.0;"/><text fill="#000000" font-family="sans-serif" font-size="14" lengthAdjust="spacing" textLength="100" x="5" y="365.9551">Traffic Manager</text><ellipse cx="58" cy="379.0313" fill="#FEFECE" filter="url(#f1ez7rvgy7t776)" rx="8" ry="8" style="stroke:#A80036;stroke-width:2.0;"/><path d="M58,387.0313 L58,414.0313 M45,395.0313 L71,395.0313 M58,414.0313 L45,429.0313 M58,414.0313 L71,429.0313 " fill="none" filter="url(#f1ez7rvgy7t776)" style="stroke:#A80036;stroke-width:2.0;"/><rect fill="#FEFECE" filter="url(#f1ez7rvgy7t776)" height="31.6094" style="stroke:#A80036;stroke-width:1.5;" width="84" x="253" y="53"/><text fill="#000000" font-family="sans-serif" font-size="14" lengthAdjust="spacing" textLength="70" x="260" y="74.5332">:PortShipUI</text><rect fill="#FEFECE" filter="url(#f1ez7rvgy7t776)" height="31.6094" style="stroke:#A80036;stroke-width:1.5;" width="84" x="253" y="351.4219"/><text fill="#000000" font-family="sans-serif" font-size="14" lengthAdjust="spacing" textLength="70" x="260" y="372.9551">:PortShipUI</text><rect fill="#FEFECE" filter="url(#f1ez7rvgy7t776)" height="31.6094" style="stroke:#A80036;stroke-width:1.5;" width="165" x="392.5" y="53"/><text fill="#000000" font-family="sans-serif" font-size="14" lengthAdjust="spacing" textLength="151" x="399.5" y="74.5332">:AvailableShipController</text><rect fill="#FEFECE" filter="url(#f1ez7rvgy7t776)" height="31.6094" style="stroke:#A80036;stroke-width:1.5;" width="165" x="392.5" y="351.4219"/><text fill="#000000" font-family="sans-serif" font-size="14" lengthAdjust="spacing" textLength="151" x="399.5" y="372.9551">:AvailableShipController</text><rect fill="#FEFECE" filter="url(#f1ez7rvgy7t776)" height="31.6094" style="stroke:#A80036;stroke-width:1.5;" width="78" x="607" y="53"/><text fill="#000000" font-family="sans-serif" font-size="14" lengthAdjust="spacing" textLength="64" x="614" y="74.5332">:Company</text><rect fill="#FEFECE" filter="url(#f1ez7rvgy7t776)" height="31.6094" style="stroke:#A80036;stroke-width:1.5;" width="78" x="607" y="351.4219"/><text fill="#000000" font-family="sans-serif" font-size="14" lengthAdjust="spacing" textLength="64" x="614" y="372.9551">:Company</text><rect fill="#FEFECE" filter="url(#f1ez7rvgy7t776)" height="31.6094" style="stroke:#A80036;stroke-width:1.5;" width="137" x="748.5" y="53"/><text fill="#000000" font-family="sans-serif" font-size="14" lengthAdjust="spacing" textLength="123" x="755.5" y="74.5332">:AvailableShipStore</text><rect fill="#FEFECE" filter="url(#f1ez7rvgy7t776)" height="31.6094" style="stroke:#A80036;stroke-width:1.5;" width="137" x="748.5" y="351.4219"/><text fill="#000000" font-family="sans-serif" font-size="14" lengthAdjust="spacing" textLength="123" x="755.5" y="372.9551">:AvailableShipStore</text><rect fill="#FFFFFF" filter="url(#f1ez7rvgy7t776)" height="243.8125" style="stroke:#A80036;stroke-width:1.0;" width="10" x="53" y="99.6094"/><rect fill="#FFFFFF" filter="url(#f1ez7rvgy7t776)" height="221.4609" style="stroke:#A80036;stroke-width:1.0;" width="10" x="292" y="121.9609"/><rect fill="#FFFFFF" filter="url(#f1ez7rvgy7t776)" height="191.1094" style="stroke:#A80036;stroke-width:1.0;" width="10" x="472" y="152.3125"/><rect fill="#FFFFFF" filter="url(#f1ez7rvgy7t776)" height="160.7578" style="stroke:#A80036;stroke-width:1.0;" width="10" x="643" y="182.6641"/><rect fill="#FFFFFF" filter="url(#f1ez7rvgy7t776)" height="130.4063" style="stroke:#A80036;stroke-width:1.0;" width="10" x="814" y="213.0156"/><polygon fill="#A80036" points="280,117.9609,290,121.9609,280,125.9609,284,121.9609" style="stroke:#A80036;stroke-width:1.0;"/><line style="stroke:#A80036;stroke-width:1.0;" x1="63" x2="286" y1="121.9609" y2="121.9609"/><text fill="#000000" font-family="sans-serif" font-size="13" font-weight="bold" lengthAdjust="spacing" textLength="7" x="70" y="117.1045">1</text><text fill="#000000" font-family="sans-serif" font-size="13" lengthAdjust="spacing" textLength="199" x="81" y="117.1045">Search for a ship on a certain date</text><polygon fill="#A80036" points="460,148.3125,470,152.3125,460,156.3125,464,152.3125" style="stroke:#A80036;stroke-width:1.0;"/><line style="stroke:#A80036;stroke-width:1.0;" x1="302" x2="466" y1="152.3125" y2="152.3125"/><text fill="#000000" font-family="sans-serif" font-size="13" font-weight="bold" lengthAdjust="spacing" textLength="7" x="309" y="147.4561">2</text><text fill="#000000" font-family="sans-serif" font-size="13" lengthAdjust="spacing" textLength="140" x="320" y="147.4561">AvailableShipController()</text><polygon fill="#A80036" points="631,178.6641,641,182.6641,631,186.6641,635,182.6641" style="stroke:#A80036;stroke-width:1.0;"/><line style="stroke:#A80036;stroke-width:1.0;" x1="482" x2="637" y1="182.6641" y2="182.6641"/><text fill="#000000" font-family="sans-serif" font-size="13" font-weight="bold" lengthAdjust="spacing" textLength="7" x="489" y="177.8076">3</text><text fill="#000000" font-family="sans-serif" font-size="13" lengthAdjust="spacing" textLength="131" x="500" y="177.8076">getAvailabeShipStore()</text><polygon fill="#A80036" points="802,209.0156,812,213.0156,802,217.0156,806,213.0156" style="stroke:#A80036;stroke-width:1.0;"/><line style="stroke:#A80036;stroke-width:1.0;" x1="653" x2="808" y1="213.0156" y2="213.0156"/><text fill="#000000" font-family="sans-serif" font-size="13" font-weight="bold" lengthAdjust="spacing" textLength="7" x="660" y="208.1592">4</text><text fill="#000000" font-family="sans-serif" font-size="13" lengthAdjust="spacing" textLength="131" x="671" y="208.1592">getAvailabeShipStore()</text><polygon fill="#A80036" points="664,239.3672,654,243.3672,664,247.3672,660,243.3672" style="stroke:#A80036;stroke-width:1.0;"/><line style="stroke:#A80036;stroke-width:1.0;stroke-dasharray:2.0,2.0;" x1="658" x2="813" y1="243.3672" y2="243.3672"/><text fill="#000000" font-family="sans-serif" font-size="13" font-weight="bold" lengthAdjust="spacing" textLength="7" x="670" y="238.5107">5</text><text fill="#000000" font-family="sans-serif" font-size="13" lengthAdjust="spacing" textLength="26" x="681" y="238.5107">Ship</text><polygon fill="#A80036" points="493,269.7188,483,273.7188,493,277.7188,489,273.7188" style="stroke:#A80036;stroke-width:1.0;"/><line style="stroke:#A80036;stroke-width:1.0;stroke-dasharray:2.0,2.0;" x1="487" x2="642" y1="273.7188" y2="273.7188"/><text fill="#000000" font-family="sans-serif" font-size="13" font-weight="bold" lengthAdjust="spacing" textLength="7" x="499" y="268.8623">6</text><text fill="#000000" font-family="sans-serif" font-size="13" lengthAdjust="spacing" textLength="26" x="510" y="268.8623">Ship</text><polygon fill="#A80036" points="313,300.0703,303,304.0703,313,308.0703,309,304.0703" style="stroke:#A80036;stroke-width:1.0;"/><line style="stroke:#A80036;stroke-width:1.0;stroke-dasharray:2.0,2.0;" x1="307" x2="471" y1="304.0703" y2="304.0703"/><text fill="#000000" font-family="sans-serif" font-size="13" font-weight="bold" lengthAdjust="spacing" textLength="7" x="319" y="299.2139">7</text><text fill="#000000" font-family="sans-serif" font-size="13" lengthAdjust="spacing" textLength="26" x="330" y="299.2139">Ship</text><polygon fill="#A80036" points="74,330.4219,64,334.4219,74,338.4219,70,334.4219" style="stroke:#A80036;stroke-width:1.0;"/><line style="stroke:#A80036;stroke-width:1.0;stroke-dasharray:2.0,2.0;" x1="68" x2="291" y1="334.4219" y2="334.4219"/><text fill="#000000" font-family="sans-serif" font-size="13" font-weight="bold" lengthAdjust="spacing" textLength="7" x="80" y="329.5654">8</text><text fill="#000000" font-family="sans-serif" font-size="13" lengthAdjust="spacing" textLength="189" x="91" y="329.5654">Ships available and their location</text><!--MD5=[5c851d9dccffebf6d210db16f69fdcdb]
@startuml
autonumber
actor "Traffic Manager" as TM

participant ":PortShipUI" as psui
participant ":AvailableShipController" as fsc
participant ":Company" as comp
participant ":AvailableShipStore" as ss


activate TM
TM -> psui : Search for a ship on a certain date
activate psui
psui -> fsc : AvailableShipController()
activate fsc
fsc -> comp : getAvailabeShipStore()
activate comp
comp -> ss : getAvailabeShipStore()
activate ss
ss - -> comp : Ship
comp - -> fsc : Ship
fsc - -> psui : Ship
psui - -> TM : Ships available and their location



@enduml

PlantUML version 1.2021.11(Sat Oct 02 14:26:11 BST 2021)
(GPL source distribution)
Java Runtime: OpenJDK Runtime Environment
JVM: OpenJDK 64-Bit Server VM
Default Encoding: Cp1252
Language: pt
Country: PT
--></g></svg>