<?xml version="1.0" encoding="UTF-8" standalone="no"?><svg xmlns="http://www.w3.org/2000/svg" xmlns:xlink="http://www.w3.org/1999/xlink" contentScriptType="application/ecmascript" contentStyleType="text/css" height="434px" preserveAspectRatio="none" style="width:268px;height:434px;background:#FFFFFF;" version="1.1" viewBox="0 0 268 434" width="268px" zoomAndPan="magnify"><defs><filter height="300%" id="fifyzphw3c714" width="300%" x="-1" y="-1"><feGaussianBlur result="blurOut" stdDeviation="2.0"/><feColorMatrix in="blurOut" result="blurOut2" type="matrix" values="0 0 0 0 0 0 0 0 0 0 0 0 0 0 0 0 0 0 .4 0"/><feOffset dx="4.0" dy="4.0" in="blurOut2" result="blurOut3"/><feBlend in="SourceGraphic" in2="blurOut3" mode="normal"/></filter></defs><g><!--MD5=[e32ef9683d949352750cd7030e29a374]
class AvailableShipUI--><rect codeLine="1" fill="#FEFECE" filter="url(#fifyzphw3c714)" height="48" id="AvailableShipUI" style="stroke:#A80036;stroke-width:1.5;" width="118" x="79" y="7"/><ellipse cx="94" cy="23" fill="#ADD1B2" rx="11" ry="11" style="stroke:#A80036;stroke-width:1.0;"/><path d="M96,19.5 Q96.2031,19 96.4375,18.75 Q96.6719,18.5 96.9375,18.5 Q97.4063,18.5 97.7031,18.7813 Q98,19.0625 98,19.7188 L98,21.2813 Q98,21.9375 97.7188,22.2188 Q97.4375,22.5 97,22.5 Q96.6094,22.5 96.3594,22.3281 Q96.1094,22.1563 96,21.7031 Q95.9531,21.3906 95.7813,21.2188 Q95.4688,20.8906 94.9063,20.7031 Q94.3438,20.5 93.7813,20.5 Q93.0781,20.5 92.4844,20.7813 Q91.9063,21.0625 91.4531,21.6875 Q91,22.3125 91,23.1719 L91,24.0938 Q91,25.125 91.8438,25.8125 Q92.6875,26.5 94.1875,26.5 Q95.0781,26.5 95.7031,26.2969 Q96.0625,26.1875 96.4688,25.8281 Q96.7344,25.625 96.875,25.5625 Q97.0156,25.5 97.1875,25.5 Q97.5156,25.5 97.75,25.7656 Q98,26.0156 98,26.375 Q98,26.7188 97.6563,27.125 Q97.1563,27.7188 96.3594,28.0469 Q95.3125,28.5 94.0313,28.5 Q92.5313,28.5 91.3281,27.9063 Q90.3594,27.4375 89.6719,26.4219 Q89,25.4063 89,24.2031 L89,23.1094 Q89,21.8594 89.5938,20.7656 Q90.2031,19.6719 91.25,19.0938 Q92.3125,18.5 93.5,18.5 Q94.2188,18.5 94.8438,18.75 Q95.4688,19 96,19.5 Z " fill="#000000"/><text fill="#000000" font-family="sans-serif" font-size="12" lengthAdjust="spacing" textLength="86" x="108" y="27.9102">AvailableShipUI</text><line style="stroke:#A80036;stroke-width:1.5;" x1="80" x2="196" y1="39" y2="39"/><line style="stroke:#A80036;stroke-width:1.5;" x1="80" x2="196" y1="47" y2="47"/><!--MD5=[8b6cdbdd51a634f853646e048157aa0c]
class AvailableShipController--><rect codeLine="4" fill="#FEFECE" filter="url(#fifyzphw3c714)" height="61.8359" id="AvailableShipController" style="stroke:#A80036;stroke-width:1.5;" width="207" x="34.5" y="115"/><ellipse cx="70.65" cy="131" fill="#ADD1B2" rx="11" ry="11" style="stroke:#A80036;stroke-width:1.0;"/><path d="M72.65,127.5 Q72.8531,127 73.0875,126.75 Q73.3219,126.5 73.5875,126.5 Q74.0563,126.5 74.3531,126.7813 Q74.65,127.0625 74.65,127.7188 L74.65,129.2813 Q74.65,129.9375 74.3688,130.2188 Q74.0875,130.5 73.65,130.5 Q73.2594,130.5 73.0094,130.3281 Q72.7594,130.1563 72.65,129.7031 Q72.6031,129.3906 72.4313,129.2188 Q72.1188,128.8906 71.5563,128.7031 Q70.9938,128.5 70.4313,128.5 Q69.7281,128.5 69.1344,128.7813 Q68.5563,129.0625 68.1031,129.6875 Q67.65,130.3125 67.65,131.1719 L67.65,132.0938 Q67.65,133.125 68.4938,133.8125 Q69.3375,134.5 70.8375,134.5 Q71.7281,134.5 72.3531,134.2969 Q72.7125,134.1875 73.1188,133.8281 Q73.3844,133.625 73.525,133.5625 Q73.6656,133.5 73.8375,133.5 Q74.1656,133.5 74.4,133.7656 Q74.65,134.0156 74.65,134.375 Q74.65,134.7188 74.3063,135.125 Q73.8063,135.7188 73.0094,136.0469 Q71.9625,136.5 70.6813,136.5 Q69.1813,136.5 67.9781,135.9063 Q67.0094,135.4375 66.3219,134.4219 Q65.65,133.4063 65.65,132.2031 L65.65,131.1094 Q65.65,129.8594 66.2438,128.7656 Q66.8531,127.6719 67.9,127.0938 Q68.9625,126.5 70.15,126.5 Q70.8688,126.5 71.4938,126.75 Q72.1188,127 72.65,127.5 Z " fill="#000000"/><text fill="#000000" font-family="sans-serif" font-size="12" lengthAdjust="spacing" textLength="128" x="89.35" y="135.9102">AvailableShipController</text><line style="stroke:#A80036;stroke-width:1.5;" x1="35.5" x2="240.5" y1="147" y2="147"/><line style="stroke:#A80036;stroke-width:1.5;" x1="35.5" x2="240.5" y1="155" y2="155"/><ellipse cx="45.5" cy="166" fill="#84BE84" rx="3" ry="3" style="stroke:#038048;stroke-width:1.0;"/><text fill="#000000" font-family="sans-serif" font-size="11" lengthAdjust="spacing" textLength="181" x="54.5" y="170.4189">getAvailableShip(Date baseDateTime)</text><!--MD5=[02e4b9b7573f1156f41e60aa5b4e25a4]
class Company--><rect codeLine="8" fill="#FEFECE" filter="url(#fifyzphw3c714)" height="61.8359" id="Company" style="stroke:#A80036;stroke-width:1.5;" width="140" x="7" y="237"/><ellipse cx="46.75" cy="253" fill="#ADD1B2" rx="11" ry="11" style="stroke:#A80036;stroke-width:1.0;"/><path d="M48.75,249.5 Q48.9531,249 49.1875,248.75 Q49.4219,248.5 49.6875,248.5 Q50.1563,248.5 50.4531,248.7813 Q50.75,249.0625 50.75,249.7188 L50.75,251.2813 Q50.75,251.9375 50.4688,252.2188 Q50.1875,252.5 49.75,252.5 Q49.3594,252.5 49.1094,252.3281 Q48.8594,252.1563 48.75,251.7031 Q48.7031,251.3906 48.5313,251.2188 Q48.2188,250.8906 47.6563,250.7031 Q47.0938,250.5 46.5313,250.5 Q45.8281,250.5 45.2344,250.7813 Q44.6563,251.0625 44.2031,251.6875 Q43.75,252.3125 43.75,253.1719 L43.75,254.0938 Q43.75,255.125 44.5938,255.8125 Q45.4375,256.5 46.9375,256.5 Q47.8281,256.5 48.4531,256.2969 Q48.8125,256.1875 49.2188,255.8281 Q49.4844,255.625 49.625,255.5625 Q49.7656,255.5 49.9375,255.5 Q50.2656,255.5 50.5,255.7656 Q50.75,256.0156 50.75,256.375 Q50.75,256.7188 50.4063,257.125 Q49.9063,257.7188 49.1094,258.0469 Q48.0625,258.5 46.7813,258.5 Q45.2813,258.5 44.0781,257.9063 Q43.1094,257.4375 42.4219,256.4219 Q41.75,255.4063 41.75,254.2031 L41.75,253.1094 Q41.75,251.8594 42.3438,250.7656 Q42.9531,249.6719 44,249.0938 Q45.0625,248.5 46.25,248.5 Q46.9688,248.5 47.5938,248.75 Q48.2188,249 48.75,249.5 Z " fill="#000000"/><text fill="#000000" font-family="sans-serif" font-size="12" lengthAdjust="spacing" textLength="53" x="66.25" y="257.9102">Company</text><line style="stroke:#A80036;stroke-width:1.5;" x1="8" x2="146" y1="269" y2="269"/><line style="stroke:#A80036;stroke-width:1.5;" x1="8" x2="146" y1="277" y2="277"/><ellipse cx="18" cy="288" fill="#84BE84" rx="3" ry="3" style="stroke:#038048;stroke-width:1.0;"/><text fill="#000000" font-family="sans-serif" font-size="11" lengthAdjust="spacing" textLength="114" x="27" y="292.4189">getAvailableShipStore()</text><!--MD5=[0f08459837c4df472fc76bd079f1c550]
class AvailableShipStore--><rect codeLine="12" fill="#FEFECE" filter="url(#fifyzphw3c714)" height="61.8359" id="AvailableShipStore" style="stroke:#A80036;stroke-width:1.5;" width="233" x="21.5" y="359"/><ellipse cx="82.25" cy="375" fill="#ADD1B2" rx="11" ry="11" style="stroke:#A80036;stroke-width:1.0;"/><path d="M84.25,371.5 Q84.4531,371 84.6875,370.75 Q84.9219,370.5 85.1875,370.5 Q85.6563,370.5 85.9531,370.7813 Q86.25,371.0625 86.25,371.7188 L86.25,373.2813 Q86.25,373.9375 85.9688,374.2188 Q85.6875,374.5 85.25,374.5 Q84.8594,374.5 84.6094,374.3281 Q84.3594,374.1563 84.25,373.7031 Q84.2031,373.3906 84.0313,373.2188 Q83.7188,372.8906 83.1563,372.7031 Q82.5938,372.5 82.0313,372.5 Q81.3281,372.5 80.7344,372.7813 Q80.1563,373.0625 79.7031,373.6875 Q79.25,374.3125 79.25,375.1719 L79.25,376.0938 Q79.25,377.125 80.0938,377.8125 Q80.9375,378.5 82.4375,378.5 Q83.3281,378.5 83.9531,378.2969 Q84.3125,378.1875 84.7188,377.8281 Q84.9844,377.625 85.125,377.5625 Q85.2656,377.5 85.4375,377.5 Q85.7656,377.5 86,377.7656 Q86.25,378.0156 86.25,378.375 Q86.25,378.7188 85.9063,379.125 Q85.4063,379.7188 84.6094,380.0469 Q83.5625,380.5 82.2813,380.5 Q80.7813,380.5 79.5781,379.9063 Q78.6094,379.4375 77.9219,378.4219 Q77.25,377.4063 77.25,376.2031 L77.25,375.1094 Q77.25,373.8594 77.8438,372.7656 Q78.4531,371.6719 79.5,371.0938 Q80.5625,370.5 81.75,370.5 Q82.4688,370.5 83.0938,370.75 Q83.7188,371 84.25,371.5 Z " fill="#000000"/><text fill="#000000" font-family="sans-serif" font-size="12" lengthAdjust="spacing" textLength="103" x="102.75" y="379.9102">AvailableShipStore</text><line style="stroke:#A80036;stroke-width:1.5;" x1="22.5" x2="253.5" y1="391" y2="391"/><line style="stroke:#A80036;stroke-width:1.5;" x1="22.5" x2="253.5" y1="399" y2="399"/><ellipse cx="32.5" cy="410" fill="#84BE84" rx="3" ry="3" style="stroke:#038048;stroke-width:1.0;"/><text fill="#000000" font-family="sans-serif" font-size="11" lengthAdjust="spacing" textLength="207" x="41.5" y="414.4189">getAvailableShipStore(Date baseDateTime)</text><!--MD5=[cea60c31d27f35a2b8c9e89802565bfd]
link AvailableShipUI to AvailableShipController--><path codeLine="16" d="M138,55.14 C138,70.71 138,91.53 138,109.22 " fill="none" id="AvailableShipUI-to-AvailableShipController" style="stroke:#A80036;stroke-width:1.0;stroke-dasharray:7.0,7.0;"/><polygon fill="#A80036" points="138,114.6,142,105.6,138,109.6,134,105.6,138,114.6" style="stroke:#A80036;stroke-width:1.0;"/><!--MD5=[4cdae8e6782d0a7475a0da04f7bcfcd3]
link AvailableShipController to AvailableShipStore--><path codeLine="17" d="M149.51,177.32 C155.43,194.54 162.02,216.66 165,237 C169,264.26 169,271.74 165,299 C162.3,317.43 156.63,337.32 151.19,353.71 " fill="none" id="AvailableShipController-to-AvailableShipStore" style="stroke:#A80036;stroke-width:1.0;stroke-dasharray:7.0,7.0;"/><polygon fill="#A80036" points="149.51,358.68,156.177,351.4308,151.1083,353.9423,148.5967,348.8736,149.51,358.68" style="stroke:#A80036;stroke-width:1.0;"/><!--MD5=[15f9df194a3dd72a7bcee26408b20bc2]
link AvailableShipController to Company--><path codeLine="18" d="M122.61,177.28 C114.15,193.91 103.63,214.61 94.82,231.94 " fill="none" id="AvailableShipController-to-Company" style="stroke:#A80036;stroke-width:1.0;stroke-dasharray:7.0,7.0;"/><polygon fill="#A80036" points="92.39,236.73,100.0246,230.508,94.6489,232.2694,92.8875,226.8937,92.39,236.73" style="stroke:#A80036;stroke-width:1.0;"/><!--MD5=[f5901fec667f14edbcc854a3e30c7f30]
link Company to AvailableShipStore--><path codeLine="19" d="M92.39,299.28 C100.85,315.91 111.37,336.61 120.18,353.94 " fill="none" id="Company-to-AvailableShipStore" style="stroke:#A80036;stroke-width:1.0;"/><polygon fill="#A80036" points="122.61,358.73,122.1125,348.8937,120.3511,354.2694,114.9754,352.508,122.61,358.73" style="stroke:#A80036;stroke-width:1.0;"/><!--MD5=[13d4139656966268712ea6b6f0c6f57f]
@startuml
class AvailableShipUI{
}

class AvailableShipController{
+getAvailableShip(Date baseDateTime)
}

class Company{
+getAvailableShipStore()
}

class AvailableShipStore{
+getAvailableShipStore(Date baseDateTime)
}

AvailableShipUI ..> AvailableShipController
AvailableShipController ..> AvailableShipStore
AvailableShipController ..> Company
Company - -> AvailableShipStore



@enduml

PlantUML version 1.2021.11(Sat Oct 02 14:26:11 BST 2021)
(GPL source distribution)
Java Runtime: OpenJDK Runtime Environment
JVM: OpenJDK 64-Bit Server VM
Default Encoding: Cp1252
Language: pt
Country: PT
--></g></svg>