<?xml version="1.0" encoding="UTF-8" standalone="no"?><svg xmlns="http://www.w3.org/2000/svg" xmlns:xlink="http://www.w3.org/1999/xlink" contentScriptType="application/ecmascript" contentStyleType="text/css" height="190px" preserveAspectRatio="none" style="width:276px;height:190px;background:#FFFFFF;" version="1.1" viewBox="0 0 276 190" width="276px" zoomAndPan="magnify"><defs><filter height="300%" id="feeus55kv69a9" width="300%" x="-1" y="-1"><feGaussianBlur result="blurOut" stdDeviation="2.0"/><feColorMatrix in="blurOut" result="blurOut2" type="matrix" values="0 0 0 0 0 0 0 0 0 0 0 0 0 0 0 0 0 0 .4 0"/><feOffset dx="4.0" dy="4.0" in="blurOut2" result="blurOut3"/><feBlend in="SourceGraphic" in2="blurOut3" mode="normal"/></filter></defs><g><!--MD5=[df76e760f2062188d44f98c21a88999b]
class UI--><rect codeLine="1" fill="#FEFECE" filter="url(#feeus55kv69a9)" height="48" id="UI" style="stroke:#A80036;stroke-width:1.5;" width="44" x="112.5" y="7"/><ellipse cx="127.5" cy="23" fill="#ADD1B2" rx="11" ry="11" style="stroke:#A80036;stroke-width:1.0;"/><path d="M129.5,19.5 Q129.7031,19 129.9375,18.75 Q130.1719,18.5 130.4375,18.5 Q130.9063,18.5 131.2031,18.7813 Q131.5,19.0625 131.5,19.7188 L131.5,21.2813 Q131.5,21.9375 131.2188,22.2188 Q130.9375,22.5 130.5,22.5 Q130.1094,22.5 129.8594,22.3281 Q129.6094,22.1563 129.5,21.7031 Q129.4531,21.3906 129.2813,21.2188 Q128.9688,20.8906 128.4063,20.7031 Q127.8438,20.5 127.2813,20.5 Q126.5781,20.5 125.9844,20.7813 Q125.4063,21.0625 124.9531,21.6875 Q124.5,22.3125 124.5,23.1719 L124.5,24.0938 Q124.5,25.125 125.3438,25.8125 Q126.1875,26.5 127.6875,26.5 Q128.5781,26.5 129.2031,26.2969 Q129.5625,26.1875 129.9688,25.8281 Q130.2344,25.625 130.375,25.5625 Q130.5156,25.5 130.6875,25.5 Q131.0156,25.5 131.25,25.7656 Q131.5,26.0156 131.5,26.375 Q131.5,26.7188 131.1563,27.125 Q130.6563,27.7188 129.8594,28.0469 Q128.8125,28.5 127.5313,28.5 Q126.0313,28.5 124.8281,27.9063 Q123.8594,27.4375 123.1719,26.4219 Q122.5,25.4063 122.5,24.2031 L122.5,23.1094 Q122.5,21.8594 123.0938,20.7656 Q123.7031,19.6719 124.75,19.0938 Q125.8125,18.5 127,18.5 Q127.7188,18.5 128.3438,18.75 Q128.9688,19 129.5,19.5 Z " fill="#000000"/><text fill="#000000" font-family="sans-serif" font-size="12" lengthAdjust="spacing" textLength="12" x="141.5" y="27.9102">UI</text><line style="stroke:#A80036;stroke-width:1.5;" x1="113.5" x2="155.5" y1="39" y2="39"/><line style="stroke:#A80036;stroke-width:1.5;" x1="113.5" x2="155.5" y1="47" y2="47"/><!--MD5=[e0c6a9c33183ff1d81c469b8c9e9a06f]
class US420--><rect codeLine="4" fill="#FEFECE" filter="url(#feeus55kv69a9)" height="61.8359" id="US420" style="stroke:#A80036;stroke-width:1.5;" width="255" x="7" y="115"/><ellipse cx="111.25" cy="131" fill="#ADD1B2" rx="11" ry="11" style="stroke:#A80036;stroke-width:1.0;"/><path d="M113.25,127.5 Q113.4531,127 113.6875,126.75 Q113.9219,126.5 114.1875,126.5 Q114.6563,126.5 114.9531,126.7813 Q115.25,127.0625 115.25,127.7188 L115.25,129.2813 Q115.25,129.9375 114.9688,130.2188 Q114.6875,130.5 114.25,130.5 Q113.8594,130.5 113.6094,130.3281 Q113.3594,130.1563 113.25,129.7031 Q113.2031,129.3906 113.0313,129.2188 Q112.7188,128.8906 112.1563,128.7031 Q111.5938,128.5 111.0313,128.5 Q110.3281,128.5 109.7344,128.7813 Q109.1563,129.0625 108.7031,129.6875 Q108.25,130.3125 108.25,131.1719 L108.25,132.0938 Q108.25,133.125 109.0938,133.8125 Q109.9375,134.5 111.4375,134.5 Q112.3281,134.5 112.9531,134.2969 Q113.3125,134.1875 113.7188,133.8281 Q113.9844,133.625 114.125,133.5625 Q114.2656,133.5 114.4375,133.5 Q114.7656,133.5 115,133.7656 Q115.25,134.0156 115.25,134.375 Q115.25,134.7188 114.9063,135.125 Q114.4063,135.7188 113.6094,136.0469 Q112.5625,136.5 111.2813,136.5 Q109.7813,136.5 108.5781,135.9063 Q107.6094,135.4375 106.9219,134.4219 Q106.25,133.4063 106.25,132.2031 L106.25,131.1094 Q106.25,129.8594 106.8438,128.7656 Q107.4531,127.6719 108.5,127.0938 Q109.5625,126.5 110.75,126.5 Q111.4688,126.5 112.0938,126.75 Q112.7188,127 113.25,127.5 Z " fill="#000000"/><text fill="#000000" font-family="sans-serif" font-size="12" lengthAdjust="spacing" textLength="38" x="131.75" y="135.9102">US420</text><line style="stroke:#A80036;stroke-width:1.5;" x1="8" x2="261" y1="147" y2="147"/><line style="stroke:#A80036;stroke-width:1.5;" x1="8" x2="261" y1="155" y2="155"/><ellipse cx="18" cy="166" fill="#84BE84" rx="3" ry="3" style="stroke:#038048;stroke-width:1.0;"/><text fill="#000000" font-family="sans-serif" font-size="11" lengthAdjust="spacing" textLength="229" x="27" y="170.4189">calculateSink(shipMass, shipLength, shipWidth)</text><!--MD5=[854f384a60276426346a021a0a6e2dce]
link UI to US420--><path codeLine="8" d="M134.5,55.14 C134.5,70.71 134.5,91.53 134.5,109.22 " fill="none" id="UI-to-US420" style="stroke:#A80036;stroke-width:1.0;stroke-dasharray:7.0,7.0;"/><polygon fill="#A80036" points="134.5,114.6,138.5,105.6,134.5,109.6,130.5,105.6,134.5,114.6" style="stroke:#A80036;stroke-width:1.0;"/><!--MD5=[d920e40f9d75da653a54098d215e8841]
@startuml
class UI{
}

class US420{
    +calculateSink(shipMass, shipLength, shipWidth)
}

UI ..> US420


@enduml

PlantUML version 1.2022.0(Tue Jan 11 16:16:42 GMT 2022)
(GPL source distribution)
Java Runtime: OpenJDK Runtime Environment
JVM: OpenJDK 64-Bit Server VM
Default Encoding: Cp1252
Language: pt
Country: PT
--></g></svg>