<?xml version="1.0" encoding="UTF-8" standalone="no"?><svg xmlns="http://www.w3.org/2000/svg" xmlns:xlink="http://www.w3.org/1999/xlink" contentScriptType="application/ecmascript" contentStyleType="text/css" height="625px" preserveAspectRatio="none" style="width:340px;height:625px;background:#FFFFFF;" version="1.1" viewBox="0 0 340 625" width="340px" zoomAndPan="magnify"><defs><filter height="300%" id="f69l3q72w09hs" width="300%" x="-1" y="-1"><feGaussianBlur result="blurOut" stdDeviation="2.0"/><feColorMatrix in="blurOut" result="blurOut2" type="matrix" values="0 0 0 0 0 0 0 0 0 0 0 0 0 0 0 0 0 0 .4 0"/><feOffset dx="4.0" dy="4.0" in="blurOut2" result="blurOut3"/><feBlend in="SourceGraphic" in2="blurOut3" mode="normal"/></filter></defs><g><!--MD5=[790fdf5b1e4930773078b9142fbc815d]
class ShipUI--><rect codeLine="2" fill="#FEFECE" filter="url(#f69l3q72w09hs)" height="48" id="ShipUI" style="stroke:#A80036;stroke-width:1.5;" width="69" x="132" y="7"/><ellipse cx="147" cy="23" fill="#ADD1B2" rx="11" ry="11" style="stroke:#A80036;stroke-width:1.0;"/><path d="M149,19.5 Q149.2031,19 149.4375,18.75 Q149.6719,18.5 149.9375,18.5 Q150.4063,18.5 150.7031,18.7813 Q151,19.0625 151,19.7188 L151,21.2813 Q151,21.9375 150.7188,22.2188 Q150.4375,22.5 150,22.5 Q149.6094,22.5 149.3594,22.3281 Q149.1094,22.1563 149,21.7031 Q148.9531,21.3906 148.7813,21.2188 Q148.4688,20.8906 147.9063,20.7031 Q147.3438,20.5 146.7813,20.5 Q146.0781,20.5 145.4844,20.7813 Q144.9063,21.0625 144.4531,21.6875 Q144,22.3125 144,23.1719 L144,24.0938 Q144,25.125 144.8438,25.8125 Q145.6875,26.5 147.1875,26.5 Q148.0781,26.5 148.7031,26.2969 Q149.0625,26.1875 149.4688,25.8281 Q149.7344,25.625 149.875,25.5625 Q150.0156,25.5 150.1875,25.5 Q150.5156,25.5 150.75,25.7656 Q151,26.0156 151,26.375 Q151,26.7188 150.6563,27.125 Q150.1563,27.7188 149.3594,28.0469 Q148.3125,28.5 147.0313,28.5 Q145.5313,28.5 144.3281,27.9063 Q143.3594,27.4375 142.6719,26.4219 Q142,25.4063 142,24.2031 L142,23.1094 Q142,21.8594 142.5938,20.7656 Q143.2031,19.6719 144.25,19.0938 Q145.3125,18.5 146.5,18.5 Q147.2188,18.5 147.8438,18.75 Q148.4688,19 149,19.5 Z " fill="#000000"/><text fill="#000000" font-family="sans-serif" font-size="12" lengthAdjust="spacing" textLength="37" x="161" y="27.9102">ShipUI</text><line style="stroke:#A80036;stroke-width:1.5;" x1="133" x2="200" y1="39" y2="39"/><line style="stroke:#A80036;stroke-width:1.5;" x1="133" x2="200" y1="47" y2="47"/><!--MD5=[8e19f7ccef17e8e8d7888553194f272d]
class PairShipController--><rect codeLine="6" fill="#FEFECE" filter="url(#f69l3q72w09hs)" height="117.1797" id="PairShipController" style="stroke:#A80036;stroke-width:1.5;" width="319" x="7" y="115"/><ellipse cx="111.75" cy="131" fill="#ADD1B2" rx="11" ry="11" style="stroke:#A80036;stroke-width:1.0;"/><path d="M113.75,127.5 Q113.9531,127 114.1875,126.75 Q114.4219,126.5 114.6875,126.5 Q115.1563,126.5 115.4531,126.7813 Q115.75,127.0625 115.75,127.7188 L115.75,129.2813 Q115.75,129.9375 115.4688,130.2188 Q115.1875,130.5 114.75,130.5 Q114.3594,130.5 114.1094,130.3281 Q113.8594,130.1563 113.75,129.7031 Q113.7031,129.3906 113.5313,129.2188 Q113.2188,128.8906 112.6563,128.7031 Q112.0938,128.5 111.5313,128.5 Q110.8281,128.5 110.2344,128.7813 Q109.6563,129.0625 109.2031,129.6875 Q108.75,130.3125 108.75,131.1719 L108.75,132.0938 Q108.75,133.125 109.5938,133.8125 Q110.4375,134.5 111.9375,134.5 Q112.8281,134.5 113.4531,134.2969 Q113.8125,134.1875 114.2188,133.8281 Q114.4844,133.625 114.625,133.5625 Q114.7656,133.5 114.9375,133.5 Q115.2656,133.5 115.5,133.7656 Q115.75,134.0156 115.75,134.375 Q115.75,134.7188 115.4063,135.125 Q114.9063,135.7188 114.1094,136.0469 Q113.0625,136.5 111.7813,136.5 Q110.2813,136.5 109.0781,135.9063 Q108.1094,135.4375 107.4219,134.4219 Q106.75,133.4063 106.75,132.2031 L106.75,131.1094 Q106.75,129.8594 107.3438,128.7656 Q107.9531,127.6719 109,127.0938 Q110.0625,126.5 111.25,126.5 Q111.9688,126.5 112.5938,126.75 Q113.2188,127 113.75,127.5 Z " fill="#000000"/><text fill="#000000" font-family="sans-serif" font-size="12" lengthAdjust="spacing" textLength="101" x="132.25" y="135.9102">PairShipController</text><line style="stroke:#A80036;stroke-width:1.5;" x1="8" x2="325" y1="147" y2="147"/><line style="stroke:#A80036;stroke-width:1.5;" x1="8" x2="325" y1="155" y2="155"/><ellipse cx="18" cy="166" fill="#84BE84" rx="3" ry="3" style="stroke:#038048;stroke-width:1.0;"/><text fill="#000000" font-family="sans-serif" font-size="11" lengthAdjust="spacing" textLength="47" x="27" y="170.4189">getPairs()</text><ellipse cx="18" cy="179.8359" fill="#84BE84" rx="3" ry="3" style="stroke:#038048;stroke-width:1.0;"/><text fill="#000000" font-family="sans-serif" font-size="11" lengthAdjust="spacing" textLength="46" x="27" y="184.2549">filterList()</text><ellipse cx="18" cy="193.6719" fill="#84BE84" rx="3" ry="3" style="stroke:#038048;stroke-width:1.0;"/><text fill="#000000" font-family="sans-serif" font-size="11" lengthAdjust="spacing" textLength="293" x="27" y="198.0908">distance(double lat1, double lat2, double long1, double long2)</text><ellipse cx="18" cy="207.5078" fill="#84BE84" rx="3" ry="3" style="stroke:#038048;stroke-width:1.0;"/><text fill="#000000" font-family="sans-serif" font-size="11" lengthAdjust="spacing" textLength="156" x="27" y="211.9268">distTotal(BST&lt;Ship_dynamic&gt; a)</text><ellipse cx="18" cy="221.3438" fill="#84BE84" rx="3" ry="3" style="stroke:#038048;stroke-width:1.0;"/><text fill="#000000" font-family="sans-serif" font-size="11" lengthAdjust="spacing" textLength="258" x="27" y="225.7627">verify(BST&lt;Ship_dynamic&gt; a, BST&lt;Ship_dynamic&gt; b)</text><!--MD5=[ea2206eefe09474e90beb17e18e6b3d8]
class ShipStore--><rect codeLine="14" fill="#FEFECE" filter="url(#f69l3q72w09hs)" height="75.6719" id="ShipStore" style="stroke:#A80036;stroke-width:1.5;" width="116" x="108.5" y="414"/><ellipse cx="137" cy="430" fill="#ADD1B2" rx="11" ry="11" style="stroke:#A80036;stroke-width:1.0;"/><path d="M139,426.5 Q139.2031,426 139.4375,425.75 Q139.6719,425.5 139.9375,425.5 Q140.4063,425.5 140.7031,425.7813 Q141,426.0625 141,426.7188 L141,428.2813 Q141,428.9375 140.7188,429.2188 Q140.4375,429.5 140,429.5 Q139.6094,429.5 139.3594,429.3281 Q139.1094,429.1563 139,428.7031 Q138.9531,428.3906 138.7813,428.2188 Q138.4688,427.8906 137.9063,427.7031 Q137.3438,427.5 136.7813,427.5 Q136.0781,427.5 135.4844,427.7813 Q134.9063,428.0625 134.4531,428.6875 Q134,429.3125 134,430.1719 L134,431.0938 Q134,432.125 134.8438,432.8125 Q135.6875,433.5 137.1875,433.5 Q138.0781,433.5 138.7031,433.2969 Q139.0625,433.1875 139.4688,432.8281 Q139.7344,432.625 139.875,432.5625 Q140.0156,432.5 140.1875,432.5 Q140.5156,432.5 140.75,432.7656 Q141,433.0156 141,433.375 Q141,433.7188 140.6563,434.125 Q140.1563,434.7188 139.3594,435.0469 Q138.3125,435.5 137.0313,435.5 Q135.5313,435.5 134.3281,434.9063 Q133.3594,434.4375 132.6719,433.4219 Q132,432.4063 132,431.2031 L132,430.1094 Q132,428.8594 132.5938,427.7656 Q133.2031,426.6719 134.25,426.0938 Q135.3125,425.5 136.5,425.5 Q137.2188,425.5 137.8438,425.75 Q138.4688,426 139,426.5 Z " fill="#000000"/><text fill="#000000" font-family="sans-serif" font-size="12" lengthAdjust="spacing" textLength="54" x="154" y="434.9102">ShipStore</text><line style="stroke:#A80036;stroke-width:1.5;" x1="109.5" x2="223.5" y1="446" y2="446"/><rect fill="none" height="6" style="stroke:#C82930;stroke-width:1.0;" width="6" x="116.5" y="454"/><text fill="#000000" font-family="sans-serif" font-size="11" lengthAdjust="spacing" textLength="90" x="128.5" y="461.4189">List&lt;Ship&gt; shipList</text><line style="stroke:#A80036;stroke-width:1.0;" x1="109.5" x2="223.5" y1="467.8359" y2="467.8359"/><ellipse cx="119.5" cy="478.8359" fill="#84BE84" rx="3" ry="3" style="stroke:#038048;stroke-width:1.0;"/><text fill="#000000" font-family="sans-serif" font-size="11" lengthAdjust="spacing" textLength="70" x="128.5" y="483.2549">getShipStore()</text><!--MD5=[02e4b9b7573f1156f41e60aa5b4e25a4]
class Company--><rect codeLine="20" fill="#FEFECE" filter="url(#f69l3q72w09hs)" height="61.8359" id="Company" style="stroke:#A80036;stroke-width:1.5;" width="96" x="169.5" y="292"/><ellipse cx="189.45" cy="308" fill="#ADD1B2" rx="11" ry="11" style="stroke:#A80036;stroke-width:1.0;"/><path d="M191.45,304.5 Q191.6531,304 191.8875,303.75 Q192.1219,303.5 192.3875,303.5 Q192.8563,303.5 193.1531,303.7813 Q193.45,304.0625 193.45,304.7188 L193.45,306.2813 Q193.45,306.9375 193.1688,307.2188 Q192.8875,307.5 192.45,307.5 Q192.0594,307.5 191.8094,307.3281 Q191.5594,307.1563 191.45,306.7031 Q191.4031,306.3906 191.2313,306.2188 Q190.9188,305.8906 190.3563,305.7031 Q189.7938,305.5 189.2313,305.5 Q188.5281,305.5 187.9344,305.7813 Q187.3563,306.0625 186.9031,306.6875 Q186.45,307.3125 186.45,308.1719 L186.45,309.0938 Q186.45,310.125 187.2938,310.8125 Q188.1375,311.5 189.6375,311.5 Q190.5281,311.5 191.1531,311.2969 Q191.5125,311.1875 191.9188,310.8281 Q192.1844,310.625 192.325,310.5625 Q192.4656,310.5 192.6375,310.5 Q192.9656,310.5 193.2,310.7656 Q193.45,311.0156 193.45,311.375 Q193.45,311.7188 193.1063,312.125 Q192.6063,312.7188 191.8094,313.0469 Q190.7625,313.5 189.4813,313.5 Q187.9813,313.5 186.7781,312.9063 Q185.8094,312.4375 185.1219,311.4219 Q184.45,310.4063 184.45,309.2031 L184.45,308.1094 Q184.45,306.8594 185.0438,305.7656 Q185.6531,304.6719 186.7,304.0938 Q187.7625,303.5 188.95,303.5 Q189.6688,303.5 190.2938,303.75 Q190.9188,304 191.45,304.5 Z " fill="#000000"/><text fill="#000000" font-family="sans-serif" font-size="12" lengthAdjust="spacing" textLength="53" x="204.55" y="312.9102">Company</text><line style="stroke:#A80036;stroke-width:1.5;" x1="170.5" x2="264.5" y1="324" y2="324"/><line style="stroke:#A80036;stroke-width:1.5;" x1="170.5" x2="264.5" y1="332" y2="332"/><ellipse cx="180.5" cy="343" fill="#84BE84" rx="3" ry="3" style="stroke:#038048;stroke-width:1.0;"/><text fill="#000000" font-family="sans-serif" font-size="11" lengthAdjust="spacing" textLength="70" x="189.5" y="347.4189">getShipStore()</text><!--MD5=[df8116ae06fc72c6cfbc80bd1fc14ec5]
class Ships--><rect codeLine="24" fill="#FEFECE" filter="url(#f69l3q72w09hs)" height="61.8359" id="Ships" style="stroke:#A80036;stroke-width:1.5;" width="82" x="125.5" y="550"/><ellipse cx="148.6" cy="566" fill="#ADD1B2" rx="11" ry="11" style="stroke:#A80036;stroke-width:1.0;"/><path d="M150.6,562.5 Q150.8031,562 151.0375,561.75 Q151.2719,561.5 151.5375,561.5 Q152.0063,561.5 152.3031,561.7813 Q152.6,562.0625 152.6,562.7188 L152.6,564.2813 Q152.6,564.9375 152.3188,565.2188 Q152.0375,565.5 151.6,565.5 Q151.2094,565.5 150.9594,565.3281 Q150.7094,565.1563 150.6,564.7031 Q150.5531,564.3906 150.3813,564.2188 Q150.0688,563.8906 149.5063,563.7031 Q148.9438,563.5 148.3813,563.5 Q147.6781,563.5 147.0844,563.7813 Q146.5063,564.0625 146.0531,564.6875 Q145.6,565.3125 145.6,566.1719 L145.6,567.0938 Q145.6,568.125 146.4438,568.8125 Q147.2875,569.5 148.7875,569.5 Q149.6781,569.5 150.3031,569.2969 Q150.6625,569.1875 151.0688,568.8281 Q151.3344,568.625 151.475,568.5625 Q151.6156,568.5 151.7875,568.5 Q152.1156,568.5 152.35,568.7656 Q152.6,569.0156 152.6,569.375 Q152.6,569.7188 152.2563,570.125 Q151.7563,570.7188 150.9594,571.0469 Q149.9125,571.5 148.6313,571.5 Q147.1313,571.5 145.9281,570.9063 Q144.9594,570.4375 144.2719,569.4219 Q143.6,568.4063 143.6,567.2031 L143.6,566.1094 Q143.6,564.8594 144.1938,563.7656 Q144.8031,562.6719 145.85,562.0938 Q146.9125,561.5 148.1,561.5 Q148.8188,561.5 149.4438,561.75 Q150.0688,562 150.6,562.5 Z " fill="#000000"/><text fill="#000000" font-family="sans-serif" font-size="12" lengthAdjust="spacing" textLength="32" x="164.4" y="570.9102">Ships</text><line style="stroke:#A80036;stroke-width:1.5;" x1="126.5" x2="206.5" y1="582" y2="582"/><rect fill="none" height="6" style="stroke:#C82930;stroke-width:1.0;" width="6" x="133.5" y="590"/><text fill="#000000" font-family="sans-serif" font-size="11" lengthAdjust="spacing" textLength="56" x="145.5" y="597.4189">Ships ships</text><line style="stroke:#A80036;stroke-width:1.5;" x1="126.5" x2="206.5" y1="603.8359" y2="603.8359"/><!--MD5=[8e4d0a7d7b888d323819dc301d1fcf3d]
link ShipUI to PairShipController--><path codeLine="28" d="M166.5,55.2 C166.5,70.09 166.5,90.2 166.5,109.56 " fill="none" id="ShipUI-to-PairShipController" style="stroke:#A80036;stroke-width:1.0;stroke-dasharray:7.0,7.0;"/><polygon fill="#A80036" points="166.5,115,170.5,106,166.5,110,162.5,106,166.5,115" style="stroke:#A80036;stroke-width:1.0;"/><!--MD5=[8ff1a1b4d5bfe32db701a65b172fc92f]
link PairShipController to Company--><path codeLine="29" d="M186.51,232.37 C192.88,250.8 199.74,270.63 205.37,286.93 " fill="none" id="PairShipController-to-Company" style="stroke:#A80036;stroke-width:1.0;stroke-dasharray:7.0,7.0;"/><polygon fill="#A80036" points="207.08,291.87,207.9048,282.0557,205.4391,287.1469,200.3479,284.6812,207.08,291.87" style="stroke:#A80036;stroke-width:1.0;"/><!--MD5=[6b4a94d80660e97c6833bde801bd4c89]
link Company to ShipStore--><path codeLine="30" d="M205.41,354.1 C198.84,370.46 190.61,390.95 183.42,408.87 " fill="none" id="Company-to-ShipStore" style="stroke:#A80036;stroke-width:1.0;"/><polygon fill="#A80036" points="181.42,413.86,188.5019,407.0156,183.2942,409.2246,181.0852,404.0168,181.42,413.86" style="stroke:#A80036;stroke-width:1.0;"/><!--MD5=[40d36f11a1b37f2d9f3567a77f030633]
link PairShipController to ShipStore--><path codeLine="31" d="M156.96,232.28 C152.33,267.46 148.37,313.31 151.5,354 C152.88,372.02 155.7,391.75 158.51,408.68 " fill="none" id="PairShipController-to-ShipStore" style="stroke:#A80036;stroke-width:1.0;stroke-dasharray:7.0,7.0;"/><polygon fill="#A80036" points="159.39,413.85,161.8157,404.3045,158.5472,408.9215,153.9301,405.6531,159.39,413.85" style="stroke:#A80036;stroke-width:1.0;"/><!--MD5=[3f80aed13f60f68d8014e5193b0edc9f]
link ShipStore to Ships--><path codeLine="32" d="M166.5,490.08 C166.5,507.33 166.5,527.74 166.5,544.76 " fill="none" id="ShipStore-to-Ships" style="stroke:#A80036;stroke-width:1.0;"/><polygon fill="#A80036" points="166.5,549.93,170.5,540.93,166.5,544.93,162.5,540.93,166.5,549.93" style="stroke:#A80036;stroke-width:1.0;"/><!--MD5=[701316c4839382a85e061631d1578b52]
@startuml

class ShipUI{

}

class PairShipController{
+getPairs()
+filterList()
+distance(double lat1, double lat2, double long1, double long2)
+distTotal(BST<Ship_dynamic> a)
+verify(BST<Ship_dynamic> a, BST<Ship_dynamic> b)
}

class ShipStore{
-List<Ship> shipList
- -
+getShipStore()
}

class Company{
+getShipStore()
}

class Ships{
-Ships ships
}

ShipUI ..> PairShipController
PairShipController ..> Company
Company - -> ShipStore
PairShipController ..> ShipStore
ShipStore - -> Ships

@enduml

PlantUML version 1.2021.11(Sat Oct 02 14:26:11 BST 2021)
(GPL source distribution)
Java Runtime: OpenJDK Runtime Environment
JVM: OpenJDK 64-Bit Server VM
Default Encoding: Cp1252
Language: pt
Country: PT
--></g></svg>