<?xml version="1.0" encoding="UTF-8" standalone="no"?><svg xmlns="http://www.w3.org/2000/svg" xmlns:xlink="http://www.w3.org/1999/xlink" contentScriptType="application/ecmascript" contentStyleType="text/css" height="628px" preserveAspectRatio="none" style="width:794px;height:628px;background:#FFFFFF;" version="1.1" viewBox="0 0 794 628" width="794px" zoomAndPan="magnify"><defs><filter height="300%" id="fjdzo787xqd8m" width="300%" x="-1" y="-1"><feGaussianBlur result="blurOut" stdDeviation="2.0"/><feColorMatrix in="blurOut" result="blurOut2" type="matrix" values="0 0 0 0 0 0 0 0 0 0 0 0 0 0 0 0 0 0 .4 0"/><feOffset dx="4.0" dy="4.0" in="blurOut2" result="blurOut3"/><feBlend in="SourceGraphic" in2="blurOut3" mode="normal"/></filter></defs><g><!--MD5=[3d57a5727168e0e2a852a5c6ae235d81]
class PortShipUI--><rect codeLine="1" fill="#FEFECE" filter="url(#fjdzo787xqd8m)" height="48" id="PortShipUI" style="stroke:#A80036;stroke-width:1.5;" width="91" x="190" y="7"/><ellipse cx="205" cy="23" fill="#ADD1B2" rx="11" ry="11" style="stroke:#A80036;stroke-width:1.0;"/><path d="M207,19.5 Q207.2031,19 207.4375,18.75 Q207.6719,18.5 207.9375,18.5 Q208.4063,18.5 208.7031,18.7813 Q209,19.0625 209,19.7188 L209,21.2813 Q209,21.9375 208.7188,22.2188 Q208.4375,22.5 208,22.5 Q207.6094,22.5 207.3594,22.3281 Q207.1094,22.1563 207,21.7031 Q206.9531,21.3906 206.7813,21.2188 Q206.4688,20.8906 205.9063,20.7031 Q205.3438,20.5 204.7813,20.5 Q204.0781,20.5 203.4844,20.7813 Q202.9063,21.0625 202.4531,21.6875 Q202,22.3125 202,23.1719 L202,24.0938 Q202,25.125 202.8438,25.8125 Q203.6875,26.5 205.1875,26.5 Q206.0781,26.5 206.7031,26.2969 Q207.0625,26.1875 207.4688,25.8281 Q207.7344,25.625 207.875,25.5625 Q208.0156,25.5 208.1875,25.5 Q208.5156,25.5 208.75,25.7656 Q209,26.0156 209,26.375 Q209,26.7188 208.6563,27.125 Q208.1563,27.7188 207.3594,28.0469 Q206.3125,28.5 205.0313,28.5 Q203.5313,28.5 202.3281,27.9063 Q201.3594,27.4375 200.6719,26.4219 Q200,25.4063 200,24.2031 L200,23.1094 Q200,21.8594 200.5938,20.7656 Q201.2031,19.6719 202.25,19.0938 Q203.3125,18.5 204.5,18.5 Q205.2188,18.5 205.8438,18.75 Q206.4688,19 207,19.5 Z " fill="#000000"/><text fill="#000000" font-family="sans-serif" font-size="12" lengthAdjust="spacing" textLength="59" x="219" y="27.9102">PortShipUI</text><line style="stroke:#A80036;stroke-width:1.5;" x1="191" x2="280" y1="39" y2="39"/><line style="stroke:#A80036;stroke-width:1.5;" x1="191" x2="280" y1="47" y2="47"/><!--MD5=[b1b6a0c5c1519568c1b7b396f855d9e0]
class ReadGraphController--><rect codeLine="4" fill="#FEFECE" filter="url(#fjdzo787xqd8m)" height="61.8359" id="ReadGraphController" style="stroke:#A80036;stroke-width:1.5;" width="150" x="160.5" y="115"/><ellipse cx="175.5" cy="131" fill="#ADD1B2" rx="11" ry="11" style="stroke:#A80036;stroke-width:1.0;"/><path d="M177.5,127.5 Q177.7031,127 177.9375,126.75 Q178.1719,126.5 178.4375,126.5 Q178.9063,126.5 179.2031,126.7813 Q179.5,127.0625 179.5,127.7188 L179.5,129.2813 Q179.5,129.9375 179.2188,130.2188 Q178.9375,130.5 178.5,130.5 Q178.1094,130.5 177.8594,130.3281 Q177.6094,130.1563 177.5,129.7031 Q177.4531,129.3906 177.2813,129.2188 Q176.9688,128.8906 176.4063,128.7031 Q175.8438,128.5 175.2813,128.5 Q174.5781,128.5 173.9844,128.7813 Q173.4063,129.0625 172.9531,129.6875 Q172.5,130.3125 172.5,131.1719 L172.5,132.0938 Q172.5,133.125 173.3438,133.8125 Q174.1875,134.5 175.6875,134.5 Q176.5781,134.5 177.2031,134.2969 Q177.5625,134.1875 177.9688,133.8281 Q178.2344,133.625 178.375,133.5625 Q178.5156,133.5 178.6875,133.5 Q179.0156,133.5 179.25,133.7656 Q179.5,134.0156 179.5,134.375 Q179.5,134.7188 179.1563,135.125 Q178.6563,135.7188 177.8594,136.0469 Q176.8125,136.5 175.5313,136.5 Q174.0313,136.5 172.8281,135.9063 Q171.8594,135.4375 171.1719,134.4219 Q170.5,133.4063 170.5,132.2031 L170.5,131.1094 Q170.5,129.8594 171.0938,128.7656 Q171.7031,127.6719 172.75,127.0938 Q173.8125,126.5 175,126.5 Q175.7188,126.5 176.3438,126.75 Q176.9688,127 177.5,127.5 Z " fill="#000000"/><text fill="#000000" font-family="sans-serif" font-size="12" lengthAdjust="spacing" textLength="118" x="189.5" y="135.9102">ReadGraphController</text><line style="stroke:#A80036;stroke-width:1.5;" x1="161.5" x2="309.5" y1="147" y2="147"/><line style="stroke:#A80036;stroke-width:1.5;" x1="161.5" x2="309.5" y1="155" y2="155"/><ellipse cx="171.5" cy="166" fill="#84BE84" rx="3" ry="3" style="stroke:#038048;stroke-width:1.0;"/><text fill="#000000" font-family="sans-serif" font-size="11" lengthAdjust="spacing" textLength="82" x="180.5" y="170.4189">readGraphData()</text><!--MD5=[02e4b9b7573f1156f41e60aa5b4e25a4]
class Company--><rect codeLine="8" fill="#FEFECE" filter="url(#fjdzo787xqd8m)" height="75.6719" id="Company" style="stroke:#A80036;stroke-width:1.5;" width="105" x="236" y="237"/><ellipse cx="260" cy="253" fill="#ADD1B2" rx="11" ry="11" style="stroke:#A80036;stroke-width:1.0;"/><path d="M262,249.5 Q262.2031,249 262.4375,248.75 Q262.6719,248.5 262.9375,248.5 Q263.4063,248.5 263.7031,248.7813 Q264,249.0625 264,249.7188 L264,251.2813 Q264,251.9375 263.7188,252.2188 Q263.4375,252.5 263,252.5 Q262.6094,252.5 262.3594,252.3281 Q262.1094,252.1563 262,251.7031 Q261.9531,251.3906 261.7813,251.2188 Q261.4688,250.8906 260.9063,250.7031 Q260.3438,250.5 259.7813,250.5 Q259.0781,250.5 258.4844,250.7813 Q257.9063,251.0625 257.4531,251.6875 Q257,252.3125 257,253.1719 L257,254.0938 Q257,255.125 257.8438,255.8125 Q258.6875,256.5 260.1875,256.5 Q261.0781,256.5 261.7031,256.2969 Q262.0625,256.1875 262.4688,255.8281 Q262.7344,255.625 262.875,255.5625 Q263.0156,255.5 263.1875,255.5 Q263.5156,255.5 263.75,255.7656 Q264,256.0156 264,256.375 Q264,256.7188 263.6563,257.125 Q263.1563,257.7188 262.3594,258.0469 Q261.3125,258.5 260.0313,258.5 Q258.5313,258.5 257.3281,257.9063 Q256.3594,257.4375 255.6719,256.4219 Q255,255.4063 255,254.2031 L255,253.1094 Q255,251.8594 255.5938,250.7656 Q256.2031,249.6719 257.25,249.0938 Q258.3125,248.5 259.5,248.5 Q260.2188,248.5 260.8438,248.75 Q261.4688,249 262,249.5 Z " fill="#000000"/><text fill="#000000" font-family="sans-serif" font-size="12" lengthAdjust="spacing" textLength="53" x="276" y="257.9102">Company</text><line style="stroke:#A80036;stroke-width:1.5;" x1="237" x2="340" y1="269" y2="269"/><rect fill="none" height="6" style="stroke:#C82930;stroke-width:1.0;" width="6" x="244" y="277"/><text fill="#000000" font-family="sans-serif" font-size="11" lengthAdjust="spacing" textLength="71" x="256" y="284.4189">GraphStore gs</text><line style="stroke:#A80036;stroke-width:1.0;" x1="237" x2="340" y1="290.8359" y2="290.8359"/><ellipse cx="247" cy="301.8359" fill="#84BE84" rx="3" ry="3" style="stroke:#038048;stroke-width:1.0;"/><text fill="#000000" font-family="sans-serif" font-size="11" lengthAdjust="spacing" textLength="79" x="256" y="306.2549">getGraphStore()</text><!--MD5=[65be2154f266a1385fe9dd381331645f]
class GraphStore--><rect codeLine="14" fill="#FEFECE" filter="url(#fjdzo787xqd8m)" height="131.0156" id="GraphStore" style="stroke:#A80036;stroke-width:1.5;" width="457" x="7" y="428.5"/><ellipse cx="199.75" cy="444.5" fill="#ADD1B2" rx="11" ry="11" style="stroke:#A80036;stroke-width:1.0;"/><path d="M201.75,441 Q201.9531,440.5 202.1875,440.25 Q202.4219,440 202.6875,440 Q203.1563,440 203.4531,440.2813 Q203.75,440.5625 203.75,441.2188 L203.75,442.7813 Q203.75,443.4375 203.4688,443.7188 Q203.1875,444 202.75,444 Q202.3594,444 202.1094,443.8281 Q201.8594,443.6563 201.75,443.2031 Q201.7031,442.8906 201.5313,442.7188 Q201.2188,442.3906 200.6563,442.2031 Q200.0938,442 199.5313,442 Q198.8281,442 198.2344,442.2813 Q197.6563,442.5625 197.2031,443.1875 Q196.75,443.8125 196.75,444.6719 L196.75,445.5938 Q196.75,446.625 197.5938,447.3125 Q198.4375,448 199.9375,448 Q200.8281,448 201.4531,447.7969 Q201.8125,447.6875 202.2188,447.3281 Q202.4844,447.125 202.625,447.0625 Q202.7656,447 202.9375,447 Q203.2656,447 203.5,447.2656 Q203.75,447.5156 203.75,447.875 Q203.75,448.2188 203.4063,448.625 Q202.9063,449.2188 202.1094,449.5469 Q201.0625,450 199.7813,450 Q198.2813,450 197.0781,449.4063 Q196.1094,448.9375 195.4219,447.9219 Q194.75,446.9063 194.75,445.7031 L194.75,444.6094 Q194.75,443.3594 195.3438,442.2656 Q195.9531,441.1719 197,440.5938 Q198.0625,440 199.25,440 Q199.9688,440 200.5938,440.25 Q201.2188,440.5 201.75,441 Z " fill="#000000"/><text fill="#000000" font-family="sans-serif" font-size="12" lengthAdjust="spacing" textLength="63" x="220.25" y="449.4102">GraphStore</text><line style="stroke:#A80036;stroke-width:1.5;" x1="8" x2="463" y1="460.5" y2="460.5"/><rect fill="none" height="6" style="stroke:#C82930;stroke-width:1.0;" width="6" x="15" y="468.5"/><text fill="#000000" font-family="sans-serif" font-size="11" lengthAdjust="spacing" textLength="196" x="27" y="475.9189">MatrixGraph&lt;PortsGraph, Integer&gt; graph</text><line style="stroke:#A80036;stroke-width:1.0;" x1="8" x2="463" y1="482.3359" y2="482.3359"/><ellipse cx="18" cy="493.3359" fill="#84BE84" rx="3" ry="3" style="stroke:#038048;stroke-width:1.0;"/><text fill="#000000" font-family="sans-serif" font-size="11" lengthAdjust="spacing" textLength="73" x="27" y="497.7549">getGraph(int n)</text><ellipse cx="18" cy="507.1719" fill="#84BE84" rx="3" ry="3" style="stroke:#038048;stroke-width:1.0;"/><text fill="#000000" font-family="sans-serif" font-size="11" lengthAdjust="spacing" textLength="431" x="27" y="511.5908">insertCapitals(Map&lt;PortsGraph, Set&lt;PortsGraph&gt;&gt; capitalPorts, List&lt;PairPorts&gt; portsList)</text><ellipse cx="18" cy="521.0078" fill="#84BE84" rx="3" ry="3" style="stroke:#038048;stroke-width:1.0;"/><text fill="#000000" font-family="sans-serif" font-size="11" lengthAdjust="spacing" textLength="298" x="27" y="525.4268">insertFrontiers(Map&lt;PortsGraph, Set&lt;PortsGraph&gt;&gt; frontiers)</text><ellipse cx="18" cy="534.8438" fill="#84BE84" rx="3" ry="3" style="stroke:#038048;stroke-width:1.0;"/><text fill="#000000" font-family="sans-serif" font-size="11" lengthAdjust="spacing" textLength="203" x="27" y="539.2627">insertPorts(List&lt;PairPorts&gt; portsList, int n)</text><ellipse cx="18" cy="548.6797" fill="#84BE84" rx="3" ry="3" style="stroke:#038048;stroke-width:1.0;"/><text fill="#000000" font-family="sans-serif" font-size="11" lengthAdjust="spacing" textLength="293" x="27" y="553.0986">distance(double lat1, double lat2, double long1, double long2)</text><!--MD5=[b802e1efbb285bcdc0ce4b2bde9610f7]
class PortsGraph--><rect codeLine="24" fill="#FEFECE" filter="url(#fjdzo787xqd8m)" height="241.7031" id="PortsGraph" style="stroke:#A80036;stroke-width:1.5;" width="106" x="674.5" y="373"/><ellipse cx="694.45" cy="389" fill="#ADD1B2" rx="11" ry="11" style="stroke:#A80036;stroke-width:1.0;"/><path d="M696.45,385.5 Q696.6531,385 696.8875,384.75 Q697.1219,384.5 697.3875,384.5 Q697.8563,384.5 698.1531,384.7813 Q698.45,385.0625 698.45,385.7188 L698.45,387.2813 Q698.45,387.9375 698.1688,388.2188 Q697.8875,388.5 697.45,388.5 Q697.0594,388.5 696.8094,388.3281 Q696.5594,388.1563 696.45,387.7031 Q696.4031,387.3906 696.2313,387.2188 Q695.9188,386.8906 695.3563,386.7031 Q694.7938,386.5 694.2313,386.5 Q693.5281,386.5 692.9344,386.7813 Q692.3563,387.0625 691.9031,387.6875 Q691.45,388.3125 691.45,389.1719 L691.45,390.0938 Q691.45,391.125 692.2938,391.8125 Q693.1375,392.5 694.6375,392.5 Q695.5281,392.5 696.1531,392.2969 Q696.5125,392.1875 696.9188,391.8281 Q697.1844,391.625 697.325,391.5625 Q697.4656,391.5 697.6375,391.5 Q697.9656,391.5 698.2,391.7656 Q698.45,392.0156 698.45,392.375 Q698.45,392.7188 698.1063,393.125 Q697.6063,393.7188 696.8094,394.0469 Q695.7625,394.5 694.4813,394.5 Q692.9813,394.5 691.7781,393.9063 Q690.8094,393.4375 690.1219,392.4219 Q689.45,391.4063 689.45,390.2031 L689.45,389.1094 Q689.45,387.8594 690.0438,386.7656 Q690.6531,385.6719 691.7,385.0938 Q692.7625,384.5 693.95,384.5 Q694.6688,384.5 695.2938,384.75 Q695.9188,385 696.45,385.5 Z " fill="#000000"/><text fill="#000000" font-family="sans-serif" font-size="12" lengthAdjust="spacing" textLength="63" x="709.55" y="393.9102">PortsGraph</text><line style="stroke:#A80036;stroke-width:1.5;" x1="675.5" x2="779.5" y1="405" y2="405"/><rect fill="none" height="6" style="stroke:#C82930;stroke-width:1.0;" width="6" x="682.5" y="413"/><text fill="#000000" font-family="sans-serif" font-size="11" lengthAdjust="spacing" textLength="52" x="694.5" y="420.4189">String type</text><rect fill="none" height="6" style="stroke:#C82930;stroke-width:1.0;" width="6" x="682.5" y="426.8359"/><text fill="#000000" font-family="sans-serif" font-size="11" lengthAdjust="spacing" textLength="57" x="694.5" y="434.2549">String name</text><rect fill="none" height="6" style="stroke:#C82930;stroke-width:1.0;" width="6" x="682.5" y="440.6719"/><text fill="#000000" font-family="sans-serif" font-size="11" lengthAdjust="spacing" textLength="75" x="694.5" y="448.0908">String continent</text><rect fill="none" height="6" style="stroke:#C82930;stroke-width:1.0;" width="6" x="682.5" y="454.5078"/><text fill="#000000" font-family="sans-serif" font-size="11" lengthAdjust="spacing" textLength="49" x="694.5" y="461.9268">double lon</text><rect fill="none" height="6" style="stroke:#C82930;stroke-width:1.0;" width="6" x="682.5" y="468.3438"/><text fill="#000000" font-family="sans-serif" font-size="11" lengthAdjust="spacing" textLength="46" x="694.5" y="475.7627">double lat</text><rect fill="none" height="6" style="stroke:#C82930;stroke-width:1.0;" width="6" x="682.5" y="482.1797"/><text fill="#000000" font-family="sans-serif" font-size="11" lengthAdjust="spacing" textLength="38" x="694.5" y="489.5986">int color</text><line style="stroke:#A80036;stroke-width:1.0;" x1="675.5" x2="779.5" y1="496.0156" y2="496.0156"/><ellipse cx="685.5" cy="507.0156" fill="#84BE84" rx="3" ry="3" style="stroke:#038048;stroke-width:1.0;"/><text fill="#000000" font-family="sans-serif" font-size="11" lengthAdjust="spacing" textLength="47" x="694.5" y="511.4346">getType()</text><ellipse cx="685.5" cy="520.8516" fill="#84BE84" rx="3" ry="3" style="stroke:#038048;stroke-width:1.0;"/><text fill="#000000" font-family="sans-serif" font-size="11" lengthAdjust="spacing" textLength="50" x="694.5" y="525.2705">getName()</text><ellipse cx="685.5" cy="534.6875" fill="#84BE84" rx="3" ry="3" style="stroke:#038048;stroke-width:1.0;"/><text fill="#000000" font-family="sans-serif" font-size="11" lengthAdjust="spacing" textLength="68" x="694.5" y="539.1064">getContinent()</text><ellipse cx="685.5" cy="548.5234" fill="#84BE84" rx="3" ry="3" style="stroke:#038048;stroke-width:1.0;"/><text fill="#000000" font-family="sans-serif" font-size="11" lengthAdjust="spacing" textLength="41" x="694.5" y="552.9424">getLon()</text><ellipse cx="685.5" cy="562.3594" fill="#84BE84" rx="3" ry="3" style="stroke:#038048;stroke-width:1.0;"/><text fill="#000000" font-family="sans-serif" font-size="11" lengthAdjust="spacing" textLength="38" x="694.5" y="566.7783">getLat()</text><ellipse cx="685.5" cy="576.1953" fill="#84BE84" rx="3" ry="3" style="stroke:#038048;stroke-width:1.0;"/><text fill="#000000" font-family="sans-serif" font-size="11" lengthAdjust="spacing" textLength="48" x="694.5" y="580.6143">getColor()</text><ellipse cx="685.5" cy="590.0313" fill="#84BE84" rx="3" ry="3" style="stroke:#038048;stroke-width:1.0;"/><text fill="#000000" font-family="sans-serif" font-size="11" lengthAdjust="spacing" textLength="48" x="694.5" y="594.4502">setColor()</text><ellipse cx="685.5" cy="603.8672" fill="#84BE84" rx="3" ry="3" style="stroke:#038048;stroke-width:1.0;"/><text fill="#000000" font-family="sans-serif" font-size="11" lengthAdjust="spacing" textLength="80" x="694.5" y="608.2861">equals(Object o)</text><!--MD5=[90fe374fa92918dcb9ea5704cd0a0c50]
class PairPorts--><rect codeLine="42" fill="#FEFECE" filter="url(#fjdzo787xqd8m)" height="200.1953" id="PairPorts" style="stroke:#A80036;stroke-width:1.5;" width="140" x="499.5" y="394"/><ellipse cx="540.15" cy="410" fill="#ADD1B2" rx="11" ry="11" style="stroke:#A80036;stroke-width:1.0;"/><path d="M542.15,406.5 Q542.3531,406 542.5875,405.75 Q542.8219,405.5 543.0875,405.5 Q543.5563,405.5 543.8531,405.7813 Q544.15,406.0625 544.15,406.7188 L544.15,408.2813 Q544.15,408.9375 543.8688,409.2188 Q543.5875,409.5 543.15,409.5 Q542.7594,409.5 542.5094,409.3281 Q542.2594,409.1563 542.15,408.7031 Q542.1031,408.3906 541.9313,408.2188 Q541.6188,407.8906 541.0563,407.7031 Q540.4938,407.5 539.9313,407.5 Q539.2281,407.5 538.6344,407.7813 Q538.0563,408.0625 537.6031,408.6875 Q537.15,409.3125 537.15,410.1719 L537.15,411.0938 Q537.15,412.125 537.9938,412.8125 Q538.8375,413.5 540.3375,413.5 Q541.2281,413.5 541.8531,413.2969 Q542.2125,413.1875 542.6188,412.8281 Q542.8844,412.625 543.025,412.5625 Q543.1656,412.5 543.3375,412.5 Q543.6656,412.5 543.9,412.7656 Q544.15,413.0156 544.15,413.375 Q544.15,413.7188 543.8063,414.125 Q543.3063,414.7188 542.5094,415.0469 Q541.4625,415.5 540.1813,415.5 Q538.6813,415.5 537.4781,414.9063 Q536.5094,414.4375 535.8219,413.4219 Q535.15,412.4063 535.15,411.2031 L535.15,410.1094 Q535.15,408.8594 535.7438,407.7656 Q536.3531,406.6719 537.4,406.0938 Q538.4625,405.5 539.65,405.5 Q540.3688,405.5 540.9938,405.75 Q541.6188,406 542.15,406.5 Z " fill="#000000"/><text fill="#000000" font-family="sans-serif" font-size="12" lengthAdjust="spacing" textLength="51" x="559.85" y="414.9102">PairPorts</text><line style="stroke:#A80036;stroke-width:1.5;" x1="500.5" x2="638.5" y1="426" y2="426"/><rect fill="none" height="6" style="stroke:#C82930;stroke-width:1.0;" width="6" x="507.5" y="434"/><text fill="#000000" font-family="sans-serif" font-size="11" lengthAdjust="spacing" textLength="56" x="519.5" y="441.4189">String port1</text><rect fill="none" height="6" style="stroke:#C82930;stroke-width:1.0;" width="6" x="507.5" y="447.8359"/><text fill="#000000" font-family="sans-serif" font-size="11" lengthAdjust="spacing" textLength="56" x="519.5" y="455.2549">String port2</text><rect fill="none" height="6" style="stroke:#C82930;stroke-width:1.0;" width="6" x="507.5" y="461.6719"/><text fill="#000000" font-family="sans-serif" font-size="11" lengthAdjust="spacing" textLength="74" x="519.5" y="469.0908">String country1</text><rect fill="none" height="6" style="stroke:#C82930;stroke-width:1.0;" width="6" x="507.5" y="475.5078"/><text fill="#000000" font-family="sans-serif" font-size="11" lengthAdjust="spacing" textLength="74" x="519.5" y="482.9268">String country2</text><rect fill="none" height="6" style="stroke:#C82930;stroke-width:1.0;" width="6" x="507.5" y="489.3438"/><text fill="#000000" font-family="sans-serif" font-size="11" lengthAdjust="spacing" textLength="55" x="519.5" y="496.7627">int distance</text><line style="stroke:#A80036;stroke-width:1.0;" x1="500.5" x2="638.5" y1="503.1797" y2="503.1797"/><ellipse cx="510.5" cy="514.1797" fill="#84BE84" rx="3" ry="3" style="stroke:#038048;stroke-width:1.0;"/><text fill="#000000" font-family="sans-serif" font-size="11" lengthAdjust="spacing" textLength="48" x="519.5" y="518.5986">getPort1()</text><ellipse cx="510.5" cy="528.0156" fill="#84BE84" rx="3" ry="3" style="stroke:#038048;stroke-width:1.0;"/><text fill="#000000" font-family="sans-serif" font-size="11" lengthAdjust="spacing" textLength="48" x="519.5" y="532.4346">getPort2()</text><ellipse cx="510.5" cy="541.8516" fill="#84BE84" rx="3" ry="3" style="stroke:#038048;stroke-width:1.0;"/><text fill="#000000" font-family="sans-serif" font-size="11" lengthAdjust="spacing" textLength="67" x="519.5" y="546.2705">getCountry1()</text><ellipse cx="510.5" cy="555.6875" fill="#84BE84" rx="3" ry="3" style="stroke:#038048;stroke-width:1.0;"/><text fill="#000000" font-family="sans-serif" font-size="11" lengthAdjust="spacing" textLength="67" x="519.5" y="560.1064">getCountry2()</text><ellipse cx="510.5" cy="569.5234" fill="#84BE84" rx="3" ry="3" style="stroke:#038048;stroke-width:1.0;"/><text fill="#000000" font-family="sans-serif" font-size="11" lengthAdjust="spacing" textLength="65" x="519.5" y="573.9424">getDistance()</text><ellipse cx="510.5" cy="583.3594" fill="#84BE84" rx="3" ry="3" style="stroke:#038048;stroke-width:1.0;"/><text fill="#000000" font-family="sans-serif" font-size="11" lengthAdjust="spacing" textLength="114" x="519.5" y="587.7783">compareTo(PairPorts o)</text><!--MD5=[a51cc4fcb9ade15c8b635d5b3383327e]
link PortShipUI to ReadGraphController--><path codeLine="57" d="M235.5,55.14 C235.5,70.71 235.5,91.53 235.5,109.22 " fill="none" id="PortShipUI-to-ReadGraphController" style="stroke:#A80036;stroke-width:1.0;stroke-dasharray:7.0,7.0;"/><polygon fill="#A80036" points="235.5,114.6,239.5,105.6,235.5,109.6,231.5,105.6,235.5,114.6" style="stroke:#A80036;stroke-width:1.0;"/><!--MD5=[69639e8d0e0bc9773420a2d19231b9a4]
link ReadGraphController to Company--><path codeLine="58" d="M248.06,177.1 C254.89,193.46 263.44,213.95 270.92,231.87 " fill="none" id="ReadGraphController-to-Company" style="stroke:#A80036;stroke-width:1.0;stroke-dasharray:7.0,7.0;"/><polygon fill="#A80036" points="273,236.86,273.22,227.0136,271.0719,232.2467,265.8387,230.0986,273,236.86" style="stroke:#A80036;stroke-width:1.0;"/><!--MD5=[7f16c109d8e6804f8569d9954fe88580]
link Company to GraphStore--><path codeLine="59" d="M279.39,313.3 C272.02,343.46 261.45,386.74 252.53,423.28 " fill="none" id="Company-to-GraphStore" style="stroke:#A80036;stroke-width:1.0;"/><polygon fill="#A80036" points="251.34,428.15,257.3603,420.3554,252.5258,423.2926,249.5885,418.4581,251.34,428.15" style="stroke:#A80036;stroke-width:1.0;"/><!--MD5=[1f2fb819672a4d924045c8bd4d2e2a59]
link ReadGraphController to GraphStore--><path codeLine="60" d="M228.33,177.21 C224.58,194.59 220.38,216.89 218.5,237 C212.61,299.92 218.47,371.73 224.87,423.25 " fill="none" id="ReadGraphController-to-GraphStore" style="stroke:#A80036;stroke-width:1.0;stroke-dasharray:7.0,7.0;"/><polygon fill="#A80036" points="225.53,428.48,228.3695,419.0493,224.9028,423.5195,220.4327,420.0528,225.53,428.48" style="stroke:#A80036;stroke-width:1.0;"/><!--MD5=[bc7212df0054b321fce92cdbbfa30b9f]
link GraphStore to PortsGraph--><path codeLine="61" d="M323.4,428.37 C372.59,395.77 436.63,359.82 500,343 C560.14,327.04 586.04,312.01 640,343 C651.7,349.72 661.98,358.67 670.97,368.87 " fill="none" id="GraphStore-to-PortsGraph" style="stroke:#A80036;stroke-width:1.0;"/><polygon fill="#A80036" points="674.23,372.69,671.4304,363.2474,670.9843,368.8867,665.3451,368.4406,674.23,372.69" style="stroke:#A80036;stroke-width:1.0;"/><!--MD5=[53052c1edc9ebd8260833bd3ccb32eee]
link GraphStore to PairPorts--><path codeLine="62" d="M464.15,494 C474.08,494 484.01,494 493.93,494 " fill="none" id="GraphStore-to-PairPorts" style="stroke:#A80036;stroke-width:1.0;"/><polygon fill="#A80036" points="499.13,494,490.13,490,494.13,494,490.13,498,499.13,494" style="stroke:#A80036;stroke-width:1.0;"/><!--MD5=[b9eadd1e202b136b6537d9436e9dd057]
@startuml
class PortShipUI{
}

class ReadGraphController{
+readGraphData()
}

class Company{
-GraphStore gs
- -
+getGraphStore()
}

class GraphStore{
-MatrixGraph<PortsGraph, Integer> graph
- -
+getGraph(int n)
+insertCapitals(Map<PortsGraph, Set<PortsGraph>> capitalPorts, List<PairPorts> portsList)
+insertFrontiers(Map<PortsGraph, Set<PortsGraph>> frontiers)
+insertPorts(List<PairPorts> portsList, int n)
+distance(double lat1, double lat2, double long1, double long2)
}

class PortsGraph{
-String type
-String name
-String continent
-double lon
-double lat
-int color
- -
+getType()
+getName()
+getContinent()
+getLon()
+getLat()
+getColor()
+setColor()
+equals(Object o)
}

class PairPorts{
-String port1
-String port2
-String country1
-String country2
-int distance
- -
+getPort1()
+getPort2()
+getCountry1()
+getCountry2()
+getDistance()
+compareTo(PairPorts o)
}

PortShipUI ..> ReadGraphController
ReadGraphController ..> Company
Company - -> GraphStore
ReadGraphController ..> GraphStore
GraphStore -> PortsGraph
GraphStore -> PairPorts

@enduml

PlantUML version 1.2021.11(Sat Oct 02 14:26:11 BST 2021)
(GPL source distribution)
Java Runtime: OpenJDK Runtime Environment
JVM: OpenJDK 64-Bit Server VM
Default Encoding: Cp1252
Language: pt
Country: PT
--></g></svg>