<?xml version="1.0" encoding="UTF-8" standalone="no"?><svg xmlns="http://www.w3.org/2000/svg" xmlns:xlink="http://www.w3.org/1999/xlink" contentScriptType="application/ecmascript" contentStyleType="text/css" height="407px" preserveAspectRatio="none" style="width:905px;height:407px;background:#FFFFFF;" version="1.1" viewBox="0 0 905 407" width="905px" zoomAndPan="magnify"><defs><filter height="300%" id="f10ebp7y0qmn76" width="300%" x="-1" y="-1"><feGaussianBlur result="blurOut" stdDeviation="2.0"/><feColorMatrix in="blurOut" result="blurOut2" type="matrix" values="0 0 0 0 0 0 0 0 0 0 0 0 0 0 0 0 0 0 .4 0"/><feOffset dx="4.0" dy="4.0" in="blurOut2" result="blurOut3"/><feBlend in="SourceGraphic" in2="blurOut3" mode="normal"/></filter></defs><g><rect fill="#FFFFFF" filter="url(#f10ebp7y0qmn76)" height="213.4609" style="stroke:#A80036;stroke-width:1.0;" width="10" x="53" y="99.6094"/><rect fill="#FFFFFF" filter="url(#f10ebp7y0qmn76)" height="191.1094" style="stroke:#A80036;stroke-width:1.0;" width="10" x="474" y="121.9609"/><rect fill="#FFFFFF" filter="url(#f10ebp7y0qmn76)" height="160.7578" style="stroke:#A80036;stroke-width:1.0;" width="10" x="609" y="152.3125"/><rect fill="#FFFFFF" filter="url(#f10ebp7y0qmn76)" height="130.4063" style="stroke:#A80036;stroke-width:1.0;" width="10" x="741" y="182.6641"/><rect fill="#FFFFFF" filter="url(#f10ebp7y0qmn76)" height="100.0547" style="stroke:#A80036;stroke-width:1.0;" width="10" x="842" y="213.0156"/><line style="stroke:#A80036;stroke-width:1.0;stroke-dasharray:5.0,5.0;" x1="58" x2="58" y1="89.6094" y2="322.0703"/><line style="stroke:#A80036;stroke-width:1.0;stroke-dasharray:5.0,5.0;" x1="479" x2="479" y1="89.6094" y2="322.0703"/><line style="stroke:#A80036;stroke-width:1.0;stroke-dasharray:5.0,5.0;" x1="614" x2="614" y1="89.6094" y2="322.0703"/><line style="stroke:#A80036;stroke-width:1.0;stroke-dasharray:5.0,5.0;" x1="746" x2="746" y1="89.6094" y2="322.0703"/><line style="stroke:#A80036;stroke-width:1.0;stroke-dasharray:5.0,5.0;" x1="847" x2="847" y1="89.6094" y2="322.0703"/><text fill="#000000" font-family="sans-serif" font-size="14" lengthAdjust="spacing" textLength="100" x="5" y="86.5332">Traffic Manager</text><ellipse cx="58" cy="15" fill="#FEFECE" filter="url(#f10ebp7y0qmn76)" rx="8" ry="8" style="stroke:#A80036;stroke-width:2.0;"/><path d="M58,23 L58,50 M45,31 L71,31 M58,50 L45,65 M58,50 L71,65 " fill="none" filter="url(#f10ebp7y0qmn76)" style="stroke:#A80036;stroke-width:2.0;"/><text fill="#000000" font-family="sans-serif" font-size="14" lengthAdjust="spacing" textLength="100" x="5" y="335.6035">Traffic Manager</text><ellipse cx="58" cy="348.6797" fill="#FEFECE" filter="url(#f10ebp7y0qmn76)" rx="8" ry="8" style="stroke:#A80036;stroke-width:2.0;"/><path d="M58,356.6797 L58,383.6797 M45,364.6797 L71,364.6797 M58,383.6797 L45,398.6797 M58,383.6797 L71,398.6797 " fill="none" filter="url(#f10ebp7y0qmn76)" style="stroke:#A80036;stroke-width:2.0;"/><rect fill="#FEFECE" filter="url(#f10ebp7y0qmn76)" height="31.6094" style="stroke:#A80036;stroke-width:1.5;" width="84" x="435" y="53"/><text fill="#000000" font-family="sans-serif" font-size="14" lengthAdjust="spacing" textLength="70" x="442" y="74.5332">:PortShipUI</text><rect fill="#FEFECE" filter="url(#f10ebp7y0qmn76)" height="31.6094" style="stroke:#A80036;stroke-width:1.5;" width="84" x="435" y="321.0703"/><text fill="#000000" font-family="sans-serif" font-size="14" lengthAdjust="spacing" textLength="70" x="442" y="342.6035">:PortShipUI</text><rect fill="#FEFECE" filter="url(#f10ebp7y0qmn76)" height="31.6094" style="stroke:#A80036;stroke-width:1.5;" width="154" x="535" y="53"/><text fill="#000000" font-family="sans-serif" font-size="14" lengthAdjust="spacing" textLength="140" x="542" y="74.5332">:ReadGraphController</text><rect fill="#FEFECE" filter="url(#f10ebp7y0qmn76)" height="31.6094" style="stroke:#A80036;stroke-width:1.5;" width="154" x="535" y="321.0703"/><text fill="#000000" font-family="sans-serif" font-size="14" lengthAdjust="spacing" textLength="140" x="542" y="342.6035">:ReadGraphController</text><rect fill="#FEFECE" filter="url(#f10ebp7y0qmn76)" height="31.6094" style="stroke:#A80036;stroke-width:1.5;" width="78" x="705" y="53"/><text fill="#000000" font-family="sans-serif" font-size="14" lengthAdjust="spacing" textLength="64" x="712" y="74.5332">:Company</text><rect fill="#FEFECE" filter="url(#f10ebp7y0qmn76)" height="31.6094" style="stroke:#A80036;stroke-width:1.5;" width="78" x="705" y="321.0703"/><text fill="#000000" font-family="sans-serif" font-size="14" lengthAdjust="spacing" textLength="64" x="712" y="342.6035">:Company</text><rect fill="#FEFECE" filter="url(#f10ebp7y0qmn76)" height="31.6094" style="stroke:#A80036;stroke-width:1.5;" width="92" x="799" y="53"/><text fill="#000000" font-family="sans-serif" font-size="14" lengthAdjust="spacing" textLength="78" x="806" y="74.5332">:GraphStore</text><rect fill="#FEFECE" filter="url(#f10ebp7y0qmn76)" height="31.6094" style="stroke:#A80036;stroke-width:1.5;" width="92" x="799" y="321.0703"/><text fill="#000000" font-family="sans-serif" font-size="14" lengthAdjust="spacing" textLength="78" x="806" y="342.6035">:GraphStore</text><rect fill="#FFFFFF" filter="url(#f10ebp7y0qmn76)" height="213.4609" style="stroke:#A80036;stroke-width:1.0;" width="10" x="53" y="99.6094"/><rect fill="#FFFFFF" filter="url(#f10ebp7y0qmn76)" height="191.1094" style="stroke:#A80036;stroke-width:1.0;" width="10" x="474" y="121.9609"/><rect fill="#FFFFFF" filter="url(#f10ebp7y0qmn76)" height="160.7578" style="stroke:#A80036;stroke-width:1.0;" width="10" x="609" y="152.3125"/><rect fill="#FFFFFF" filter="url(#f10ebp7y0qmn76)" height="130.4063" style="stroke:#A80036;stroke-width:1.0;" width="10" x="741" y="182.6641"/><rect fill="#FFFFFF" filter="url(#f10ebp7y0qmn76)" height="100.0547" style="stroke:#A80036;stroke-width:1.0;" width="10" x="842" y="213.0156"/><polygon fill="#A80036" points="462,117.9609,472,121.9609,462,125.9609,466,121.9609" style="stroke:#A80036;stroke-width:1.0;"/><line style="stroke:#A80036;stroke-width:1.0;" x1="63" x2="468" y1="121.9609" y2="121.9609"/><text fill="#000000" font-family="sans-serif" font-size="13" font-weight="bold" lengthAdjust="spacing" textLength="7" x="70" y="117.1045">1</text><text fill="#000000" font-family="sans-serif" font-size="13" lengthAdjust="spacing" textLength="381" x="81" y="117.1045">Asks to to import data from countries, ports, borders and seadists</text><polygon fill="#A80036" points="597,148.3125,607,152.3125,597,156.3125,601,152.3125" style="stroke:#A80036;stroke-width:1.0;"/><line style="stroke:#A80036;stroke-width:1.0;" x1="484" x2="603" y1="152.3125" y2="152.3125"/><text fill="#000000" font-family="sans-serif" font-size="13" font-weight="bold" lengthAdjust="spacing" textLength="7" x="491" y="147.4561">2</text><text fill="#000000" font-family="sans-serif" font-size="13" lengthAdjust="spacing" textLength="95" x="502" y="147.4561">readGraphData()</text><polygon fill="#A80036" points="729,178.6641,739,182.6641,729,186.6641,733,182.6641" style="stroke:#A80036;stroke-width:1.0;"/><line style="stroke:#A80036;stroke-width:1.0;" x1="619" x2="735" y1="182.6641" y2="182.6641"/><text fill="#000000" font-family="sans-serif" font-size="13" font-weight="bold" lengthAdjust="spacing" textLength="7" x="626" y="177.8076">3</text><text fill="#000000" font-family="sans-serif" font-size="13" lengthAdjust="spacing" textLength="92" x="637" y="177.8076">getGraphStore()</text><polygon fill="#A80036" points="830,209.0156,840,213.0156,830,217.0156,834,213.0156" style="stroke:#A80036;stroke-width:1.0;"/><line style="stroke:#A80036;stroke-width:1.0;" x1="751" x2="836" y1="213.0156" y2="213.0156"/><text fill="#000000" font-family="sans-serif" font-size="13" font-weight="bold" lengthAdjust="spacing" textLength="7" x="758" y="208.1592">4</text><text fill="#000000" font-family="sans-serif" font-size="13" lengthAdjust="spacing" textLength="61" x="769" y="208.1592">getGraph()</text><polygon fill="#A80036" points="762,239.3672,752,243.3672,762,247.3672,758,243.3672" style="stroke:#A80036;stroke-width:1.0;"/><line style="stroke:#A80036;stroke-width:1.0;stroke-dasharray:2.0,2.0;" x1="756" x2="841" y1="243.3672" y2="243.3672"/><text fill="#000000" font-family="sans-serif" font-size="13" font-weight="bold" lengthAdjust="spacing" textLength="7" x="768" y="238.5107">5</text><text fill="#000000" font-family="sans-serif" font-size="13" lengthAdjust="spacing" textLength="35" x="779" y="238.5107">Graph</text><polygon fill="#A80036" points="630,269.7188,620,273.7188,630,277.7188,626,273.7188" style="stroke:#A80036;stroke-width:1.0;"/><line style="stroke:#A80036;stroke-width:1.0;stroke-dasharray:2.0,2.0;" x1="624" x2="740" y1="273.7188" y2="273.7188"/><text fill="#000000" font-family="sans-serif" font-size="13" font-weight="bold" lengthAdjust="spacing" textLength="7" x="636" y="268.8623">6</text><text fill="#000000" font-family="sans-serif" font-size="13" lengthAdjust="spacing" textLength="35" x="647" y="268.8623">Graph</text><polygon fill="#A80036" points="495,300.0703,485,304.0703,495,308.0703,491,304.0703" style="stroke:#A80036;stroke-width:1.0;"/><line style="stroke:#A80036;stroke-width:1.0;stroke-dasharray:2.0,2.0;" x1="489" x2="608" y1="304.0703" y2="304.0703"/><text fill="#000000" font-family="sans-serif" font-size="13" font-weight="bold" lengthAdjust="spacing" textLength="7" x="501" y="299.2139">7</text><text fill="#000000" font-family="sans-serif" font-size="13" lengthAdjust="spacing" textLength="35" x="512" y="299.2139">Graph</text><!--MD5=[36cec770505b01280fae8a0e5a45e5cb]
@startuml
autonumber
actor "Traffic Manager" as TM

participant ":PortShipUI" as psui
participant ":ReadGraphController" as rgc
participant ":Company" as comp
participant ":GraphStore" as gs


activate TM
TM -> psui : Asks to to import data from countries, ports, borders and seadists
activate psui
psui -> rgc : readGraphData()
activate rgc
rgc -> comp : getGraphStore()
activate comp
comp -> gs : getGraph()
activate gs
gs - -> comp : Graph
comp - -> rgc : Graph
rgc - -> psui : Graph



@enduml

PlantUML version 1.2021.11(Sat Oct 02 14:26:11 BST 2021)
(GPL source distribution)
Java Runtime: OpenJDK Runtime Environment
JVM: OpenJDK 64-Bit Server VM
Default Encoding: Cp1252
Language: pt
Country: PT
--></g></svg>