<?xml version="1.0" encoding="UTF-8" standalone="no"?><svg xmlns="http://www.w3.org/2000/svg" xmlns:xlink="http://www.w3.org/1999/xlink" contentScriptType="application/ecmascript" contentStyleType="text/css" height="255px" preserveAspectRatio="none" style="width:616px;height:255px;background:#FFFFFF;" version="1.1" viewBox="0 0 616 255" width="616px" zoomAndPan="magnify"><defs><filter height="300%" id="fluagbcmwu7i2" width="300%" x="-1" y="-1"><feGaussianBlur result="blurOut" stdDeviation="2.0"/><feColorMatrix in="blurOut" result="blurOut2" type="matrix" values="0 0 0 0 0 0 0 0 0 0 0 0 0 0 0 0 0 0 .4 0"/><feOffset dx="4.0" dy="4.0" in="blurOut2" result="blurOut3"/><feBlend in="SourceGraphic" in2="blurOut3" mode="normal"/></filter></defs><g><rect fill="#FFFFFF" filter="url(#fluagbcmwu7i2)" height="52.7031" style="stroke:#A80036;stroke-width:1.0;" width="10" x="53" y="99.6094"/><rect fill="#FFFFFF" filter="url(#fluagbcmwu7i2)" height="30.3516" style="stroke:#A80036;stroke-width:1.0;" width="10" x="567" y="121.9609"/><line style="stroke:#A80036;stroke-width:1.0;stroke-dasharray:5.0,5.0;" x1="58" x2="58" y1="89.6094" y2="170.3125"/><line style="stroke:#A80036;stroke-width:1.0;stroke-dasharray:5.0,5.0;" x1="572" x2="572" y1="89.6094" y2="170.3125"/><text fill="#000000" font-family="sans-serif" font-size="14" lengthAdjust="spacing" textLength="100" x="5" y="86.5332">Traffic Manager</text><ellipse cx="58" cy="15" fill="#FEFECE" filter="url(#fluagbcmwu7i2)" rx="8" ry="8" style="stroke:#A80036;stroke-width:2.0;"/><path d="M58,23 L58,50 M45,31 L71,31 M58,50 L45,65 M58,50 L71,65 " fill="none" filter="url(#fluagbcmwu7i2)" style="stroke:#A80036;stroke-width:2.0;"/><text fill="#000000" font-family="sans-serif" font-size="14" lengthAdjust="spacing" textLength="100" x="5" y="183.8457">Traffic Manager</text><ellipse cx="58" cy="196.9219" fill="#FEFECE" filter="url(#fluagbcmwu7i2)" rx="8" ry="8" style="stroke:#A80036;stroke-width:2.0;"/><path d="M58,204.9219 L58,231.9219 M45,212.9219 L71,212.9219 M58,231.9219 L45,246.9219 M58,231.9219 L71,246.9219 " fill="none" filter="url(#fluagbcmwu7i2)" style="stroke:#A80036;stroke-width:2.0;"/><rect fill="#FEFECE" filter="url(#fluagbcmwu7i2)" height="31.6094" style="stroke:#A80036;stroke-width:1.5;" width="64" x="538" y="53"/><text fill="#000000" font-family="sans-serif" font-size="14" lengthAdjust="spacing" textLength="50" x="545" y="74.5332">:System</text><rect fill="#FEFECE" filter="url(#fluagbcmwu7i2)" height="31.6094" style="stroke:#A80036;stroke-width:1.5;" width="64" x="538" y="169.3125"/><text fill="#000000" font-family="sans-serif" font-size="14" lengthAdjust="spacing" textLength="50" x="545" y="190.8457">:System</text><rect fill="#FFFFFF" filter="url(#fluagbcmwu7i2)" height="52.7031" style="stroke:#A80036;stroke-width:1.0;" width="10" x="53" y="99.6094"/><rect fill="#FFFFFF" filter="url(#fluagbcmwu7i2)" height="30.3516" style="stroke:#A80036;stroke-width:1.0;" width="10" x="567" y="121.9609"/><polygon fill="#A80036" points="555,117.9609,565,121.9609,555,125.9609,559,121.9609" style="stroke:#A80036;stroke-width:1.0;"/><line style="stroke:#A80036;stroke-width:1.0;" x1="63" x2="561" y1="121.9609" y2="121.9609"/><text fill="#000000" font-family="sans-serif" font-size="13" font-weight="bold" lengthAdjust="spacing" textLength="7" x="70" y="117.1045">1</text><text fill="#000000" font-family="sans-serif" font-size="13" lengthAdjust="spacing" textLength="474" x="81" y="117.1045">Asks to import data from countries, ports, borders and seadists from the database</text><polygon fill="#A80036" points="69,148.3125,59,152.3125,69,156.3125,65,152.3125" style="stroke:#A80036;stroke-width:1.0;"/><line style="stroke:#A80036;stroke-width:1.0;stroke-dasharray:2.0,2.0;" x1="63" x2="571" y1="152.3125" y2="152.3125"/><text fill="#000000" font-family="sans-serif" font-size="13" font-weight="bold" lengthAdjust="spacing" textLength="7" x="75" y="147.4561">2</text><text fill="#000000" font-family="sans-serif" font-size="13" lengthAdjust="spacing" textLength="312" x="86" y="147.4561">Returns the created freight network with imported data</text><!--MD5=[15b340cf7d7752691168d19f1773c6d2]
@startuml
autonumber

actor "Traffic Manager" as TM

participant ":System" as Sys

activate TM
TM -> Sys : Asks to import data from countries, ports, borders and seadists from the database
activate Sys
Sys - -> TM : Returns the created freight network with imported data
deactivate Sys
deactivate TM

@enduml

PlantUML version 1.2021.15(Tue Nov 30 16:45:34 GMT 2021)
(GPL source distribution)
Java Runtime: OpenJDK Runtime Environment
JVM: OpenJDK 64-Bit Server VM
Default Encoding: Cp1252
Language: pt
Country: PT
--></g></svg>